<svg width="86" height="24" viewBox="0 0 86 24" fill="none" xmlns="http://www.w3.org/2000/svg">
<rect width="86" height="24" rx="4" fill="black"/>
<g clip-path="url(#clip0_1003_21816)">
<path d="M20.4241 7H18.7555V15.4611H20.4241V7Z" fill="white"/>
<path d="M16.8389 7.47345H15.1704V15.9344H16.8389V7.47345Z" fill="white"/>
<path d="M13.2537 8.00202H11.5852V16.4645H13.2537V8.00202Z" fill="white"/>
<path d="M9.66852 8.53646H8L8.00001 17H9.66853L9.66852 8.53646Z" fill="white"/>
<path d="M64.4894 11.5075L61.8028 8.52045H60.2323V15.4364H61.8721V11.0239L64.3248 13.6382H64.6279L67.0385 11.0239V15.4364H68.6783V8.52045H67.1077L64.4894 11.5075Z" fill="white"/>
<path d="M76.4907 8.52045L72.4263 13.0156V8.52045H70.7865V15.4364H72.2888L76.3533 10.9413V15.4364H77.9931V8.52045H76.4907Z" fill="white"/>
<path d="M51.3997 11.0511C51.3997 12.1522 52.0018 13.0196 52.9261 13.3833L51.193 15.4364H53.2001L54.7767 13.5687H56.4828V15.4364H58.1226V8.52045H53.9477C52.3912 8.52045 51.3997 9.5853 51.3997 11.0511ZM56.4838 10.0437V12.0887H54.2518C53.5072 12.0887 53.1078 11.6737 53.1078 11.0652C53.1078 10.4567 53.5212 10.0417 54.2518 10.0417L56.4838 10.0437Z" fill="white"/>
<path d="M43.7795 9.90365C43.6791 12.2822 43.1773 13.8175 42.1948 13.8175H41.949V15.4777L42.2109 15.4918C44.1809 15.6016 45.2698 13.8729 45.4484 10.0971H48.0396V15.4364H49.6765V8.52045H43.8347L43.7795 9.90365Z" fill="white"/>
<path d="M37.6066 8.42383C35.3887 8.42383 33.793 9.95914 33.793 11.978C33.793 14.0664 35.5292 15.5473 37.6066 15.5473C39.7703 15.5473 41.4513 13.9838 41.4513 11.978C41.4513 9.97224 39.7703 8.42383 37.6066 8.42383ZM37.6066 13.8871C36.3532 13.8871 35.4991 13.0711 35.4991 11.978C35.4991 10.8578 36.3542 10.0639 37.6066 10.0639C38.8591 10.0639 39.7422 10.894 39.7422 11.978C39.7422 13.062 38.847 13.8871 37.6066 13.8871Z" fill="white"/>
<path d="M32.0539 8.5335H26.2663L26.2111 9.91669C26.1288 11.9094 25.609 13.8043 24.6265 13.8315L24.1719 13.8456V16.9996L25.8258 16.9963V15.4374H31.5712V16.9963H33.2391V13.8315H32.0539V8.5335ZM30.4141 13.8315H26.9146C27.5067 12.9329 27.8239 11.6323 27.8791 10.1111H30.4141V13.8315Z" fill="white"/>
</g>
<defs>
<clipPath id="clip0_1003_21816">
<rect width="70" height="10" fill="white" transform="translate(8 7)"/>
</clipPath>
</defs>
</svg>
