<svg width="64" height="24" viewBox="0 0 64 24" fill="none" xmlns="http://www.w3.org/2000/svg">
<path d="M31.2336 19.1617C31.3013 19.2189 31.3736 19.2761 31.4448 19.3321C30.0254 20.2767 28.3578 20.7794 26.6528 20.7766C25.3026 20.7766 23.9711 20.4606 22.7649 19.8539C21.5587 19.2472 20.5112 18.3666 19.7062 17.2827C18.9011 16.1987 18.361 14.9414 18.1288 13.6113C17.8967 12.2812 17.9791 10.9152 18.3693 9.62265C18.7596 8.33008 19.4469 7.14677 20.3763 6.16736C21.3057 5.18796 22.4514 4.43965 23.7218 3.98228C24.9922 3.52491 26.352 3.37117 27.6924 3.53336C29.0328 3.69556 30.3167 4.16919 31.4413 4.91636C31.3713 4.97587 31.3013 5.03071 31.2488 5.09138C30.238 5.96348 29.4271 7.04314 28.8712 8.25686C28.3153 9.47058 28.0274 10.7898 28.0273 12.1248C28.0276 13.4588 28.3139 14.7772 28.867 15.9911C29.4201 17.205 30.2271 18.2862 31.2336 19.1617ZM37.3488 3.47187C35.5752 3.47187 33.9289 4.00393 32.5591 4.91636C32.6291 4.97587 32.6991 5.03071 32.7516 5.09138C33.7623 5.96348 34.5733 7.04314 35.1292 8.25686C35.6851 9.47058 35.973 10.7898 35.9731 12.1248C35.9724 13.4587 35.6858 14.777 35.1327 15.9908C34.5796 17.2047 33.7729 18.2859 32.7668 19.1617C32.6991 19.2189 32.6268 19.2761 32.5556 19.3321C33.9749 20.277 35.6425 20.7797 37.3476 20.7766C38.484 20.777 39.6094 20.5536 40.6594 20.119C41.7094 19.6844 42.6635 19.0471 43.4672 18.2437C44.2708 17.4402 44.9083 16.4863 45.3432 15.4364C45.7781 14.3865 46.0019 13.2612 46.0017 12.1248C46.0014 9.83 45.0896 7.62927 43.467 6.0066C41.8443 4.38393 39.6436 3.47218 37.3488 3.47187ZM32.0002 5.32707C30.9694 6.13481 30.1362 7.16678 29.5639 8.34464C28.9916 9.52249 28.6951 10.8153 28.697 12.1248C28.6947 13.4346 28.991 14.7276 29.5634 15.9057C30.1358 17.0838 30.9691 18.116 32.0002 18.9237C33.031 18.1157 33.8642 17.0835 34.4365 15.9055C35.0088 14.7275 35.3053 13.4345 35.3034 12.1248C35.3053 10.8153 35.0088 9.52249 34.4365 8.34464C33.8641 7.16678 33.031 6.13481 32.0002 5.32707Z" fill="black"/>
</svg>
