<svg width="64" height="24" viewBox="0 0 64 24" fill="none" xmlns="http://www.w3.org/2000/svg">
<path fill-rule="evenodd" clip-rule="evenodd" d="M12.4387 6.00222C12.4595 6.0021 12.4822 6.00171 12.5067 6.0013C12.9892 5.99314 14.1681 5.97322 14.6818 7.69467C15.0455 8.9132 15.6247 10.9092 16.4196 13.6827H16.7433C17.5957 10.7587 18.1813 8.76268 18.5 7.69467C19.0129 5.97623 20.2489 5.99308 20.8482 6.00125C20.8864 6.00177 20.922 6.00225 20.9546 6.00225L25.1629 6.00226V18.9999H20.8737V11.3402H20.5861L18.195 18.9999H14.9679L12.5769 11.3345H12.2892V18.9999H8V6.00226L12.4387 6.00222ZM31.3222 6.00217V13.6676H31.6644L34.5729 7.36437C35.1375 6.11001 36.3408 6.00217 36.3408 6.00217H40.4915V18.9999H36.1127V11.3344H35.7705L32.9191 17.6377C32.3545 18.8864 31.0941 18.9999 31.0941 18.9999H26.9434V6.00217H31.3222ZM50.974 15.1282C53.0976 15.1282 55.0158 13.8974 55.6266 12.1789H42.2179V19H46.3819V15.1282H50.974Z" fill="black"/>
<path d="M51.1746 6.0025H41.9994C42.2178 8.89623 44.7276 11.3735 47.3259 11.3735H55.9158C56.4115 8.96842 54.705 6.0025 51.1746 6.0025Z" fill="black"/>
</svg>
