<svg width="64" height="24" viewBox="0 0 64 24" fill="none" xmlns="http://www.w3.org/2000/svg">
<path d="M28.4068 18.8126H24.6913L27.0153 6.22822H30.7306L28.4068 18.8126Z" fill="black"/>
<path d="M41.8754 6.53577C41.1425 6.28114 39.9801 6 38.5429 6C34.8737 6 32.2899 7.71352 32.2741 10.1633C32.2436 11.9708 34.124 12.9747 35.5304 13.5774C36.9678 14.1932 37.4565 14.5952 37.4565 15.1441C37.4419 15.9872 36.2949 16.3758 35.2252 16.3758C33.7418 16.3758 32.947 16.1754 31.7391 15.7064L31.2498 15.5053L30.7299 18.3302C31.6013 18.6779 33.2068 18.9865 34.8737 19C38.7723 19 41.3103 17.313 41.3404 14.7023C41.3552 13.2698 40.3623 12.1721 38.2216 11.2751C36.9221 10.6993 36.1263 10.311 36.1263 9.72189C36.1415 9.1863 36.7994 8.63772 38.2663 8.63772C39.4742 8.61085 40.3617 8.86512 41.034 9.11957L41.3701 9.2532L41.8754 6.53577Z" fill="black"/>
<path fill-rule="evenodd" clip-rule="evenodd" d="M48.5265 6.22822H51.4005L54.3979 18.8124H50.9577C50.9577 18.8124 50.6211 17.3665 50.5144 16.9247H45.744C45.6061 17.2592 44.9642 18.8124 44.9642 18.8124H41.0657L46.5846 7.27235C46.9669 6.45562 47.6403 6.22822 48.5265 6.22822ZM48.2976 10.8333C48.2976 10.8333 47.1202 13.6313 46.8142 14.3543H49.9024C49.7497 13.7251 49.0461 10.7128 49.0461 10.7128L48.7864 9.62848C48.6771 9.9077 48.5189 10.2916 48.4123 10.5505C48.34 10.726 48.2913 10.8441 48.2976 10.8333Z" fill="black"/>
<path d="M8.59241 6.22822H14.5703C15.3805 6.25473 16.038 6.48231 16.252 7.28605L17.5508 13.0668L17.5516 13.0691L17.9492 14.8095L21.5879 6.22822H25.5167L19.6766 18.7992H15.7476L12.436 7.86461C11.2934 7.27956 9.9893 6.80902 8.53125 6.48249L8.59241 6.22822Z" fill="black"/>
</svg>
