<svg width="33" height="32" viewBox="0 0 33 32" xmlns="http://www.w3.org/2000/svg"><path d="M19.5 29l-7-5-7 5V13a2 2 0 012-2h10a2 2 0 012 2v16z" stroke-width="2" stroke-linecap="round" stroke-linejoin="round"/><path d="M12.5 6a4 4 0 014-4h10a4 4 0 014 4v7a4 4 0 01-4 4h-10a4 4 0 01-4-4V6z"/><path d="M20.2 10.79h.966v1.364h-.967V14h-1.693v-1.846h-3.498l-.076-1.066 3.556-5.62H20.2v5.321zm-3.58 0h1.886V7.776l-.111.194-1.776 2.818zm10.47 0h.967v1.364h-.967V14h-1.694v-1.846h-3.498l-.076-1.066 3.557-5.62h1.71v5.321zm-3.58 0h1.886V7.776l-.11.194-1.776 2.818z" fill="#fff"/><path d="M16.5 3.6h10V.4h-10v3.2zM28.9 6v7h3.2V6h-3.2zm-2.4 9.4h-10v3.2h10v-3.2zM14.1 13V6h-3.2v7h3.2zm2.4 2.4a2.4 2.4 0 01-2.4-2.4h-3.2a5.6 5.6 0 005.6 5.6v-3.2zM28.9 13a2.4 2.4 0 01-2.4 2.4v3.2a5.6 5.6 0 005.6-5.6h-3.2zm-2.4-9.4A2.4 2.4 0 0128.9 6h3.2A5.6 5.6 0 0026.5.4v3.2zM16.5.4A5.6 5.6 0 0010.9 6h3.2a2.4 2.4 0 012.4-2.4V.4z"/></svg>