<svg width="40" height="40" viewBox="0 0 40 40" xmlns="http://www.w3.org/2000/svg"><path d="M19.514 23.722a1 1 0 00-.251 1.984l.25-1.984zm2.733.482l-.46-.888.46.888zm2.062-2.046l-.884-.468.884.468zm.533-2.855l.993-.117-.993.117zm-1.184-2.651l-.75.661.75-.661zm-5.382-1.337l.354.935-.354-.935zm-2.287 1.789l.822.568-.822-.568zm-1.865 2.772a1 1 0 002 0h-2zM35.667 20c0 8.653-7.014 15.667-15.667 15.667v2c9.757 0 17.667-7.91 17.667-17.667h-2zM20 35.667c-8.652 0-15.666-7.014-15.666-15.667h-2c0 9.757 7.91 17.667 17.666 17.667v-2zM4.334 20c0-8.652 7.014-15.666 15.666-15.666v-2c-9.757 0-17.666 7.91-17.666 17.666h2zM20 4.334c8.653 0 15.667 7.014 15.667 15.666h2c0-9.757-7.91-17.666-17.667-17.666v2zm-.737 21.372a5.876 5.876 0 003.445-.615l-.922-1.775a3.876 3.876 0 01-2.272.406l-.251 1.984zm3.445-.615a5.876 5.876 0 002.485-2.465l-1.768-.936a3.877 3.877 0 01-1.639 1.626l.922 1.775zm2.485-2.465a5.877 5.877 0 00.642-3.44l-1.986.235a3.876 3.876 0 01-.424 2.27l1.768.935zm.642-3.44a5.875 5.875 0 00-1.427-3.195l-1.5 1.322c.52.59.849 1.326.941 2.108l1.986-.235zm-1.427-3.195a5.877 5.877 0 00-2.991-1.817l-.482 1.94c.764.19 1.452.608 1.973 1.2l1.5-1.323zm-2.991-1.817a5.876 5.876 0 00-3.494.205l.707 1.871a3.877 3.877 0 012.305-.136l.482-1.94zm-3.494.205a5.876 5.876 0 00-2.757 2.156l1.645 1.137a3.876 3.876 0 011.819-1.422l-.707-1.87zm-2.757 2.156a5.876 5.876 0 00-1.042 3.341h2c0-.787.24-1.556.687-2.204l-1.645-1.137z"/></svg>