<svg width="16" height="16" viewBox="0 0 16 16" fill="none" xmlns="http://www.w3.org/2000/svg"><path fill-rule="evenodd" clip-rule="evenodd" d="M9.536.611a.5.5 0 01.552-.441 6.5 6.5 0 015.742 5.734.5.5 0 01-.994.112 5.5 5.5 0 00-4.858-4.853.5.5 0 01-.442-.552zm-4.24 1.424a.833.833 0 00-.551-.202H2.74a.833.833 0 00-.83.905 12.693 12.693 0 001.97 5.557l.002.003a12.5 12.5 0 003.846 3.847l.004.002a12.694 12.694 0 005.53 1.969.834.834 0 00.835-.497c.114-.26.145-.609.134-1.04a13.387 13.387 0 00-.032-.587l-.004-.059a10.01 10.01 0 01-.029-.653v-.012a.833.833 0 00-.714-.846c-.36-.048-.756-.179-1.1-.292a11.796 11.796 0 00-.29-.094c-.445-.138-.784-.202-1.058-.143a.834.834 0 00-.412.221v.001l-.845.845a.5.5 0 01-.601.081 11.166 11.166 0 01-4.188-4.187.5.5 0 01.082-.601l.845-.846a.833.833 0 00.187-.878v-.001a9.06 9.06 0 01-.494-1.98.833.833 0 00-.282-.513zM4.738.833a1.833 1.833 0 011.83 1.577v.004a8.06 8.06 0 00.44 1.764l-.468.175.468-.176a1.833 1.833 0 01-.413 1.934l-.002.002-.572.572a10.167 10.167 0 003.293 3.293l.572-.572.002-.002c.25-.246.564-.416.907-.49.551-.117 1.112.027 1.564.167.136.042.262.084.382.123.32.105.585.193.844.227h.005a1.833 1.833 0 011.576 1.854c0 .173.012.365.027.582l.004.06c.013.197.028.411.033.625.013.462-.011.996-.217 1.468a1.834 1.834 0 01-1.845 1.091h-.009a13.694 13.694 0 01-5.97-2.124 13.5 13.5 0 01-4.15-4.15A13.693 13.693 0 01.916 2.839v-.007A1.833 1.833 0 012.738.833h1.999zm4.804 2.404a.5.5 0 01.587-.395 3.833 3.833 0 013.028 3.029.5.5 0 01-.981.191 2.834 2.834 0 00-2.239-2.238.5.5 0 01-.395-.587z" fill="#00ADEF"/></svg>