<svg width="40" height="40" viewBox="0 0 40 40" xmlns="http://www.w3.org/2000/svg"><path d="M25.17 12.142l-4.227-8.565a1.052 1.052 0 00-1.886 0l-4.228 8.565c-.153.31-.449.525-.79.575L4.581 14.1A1.052 1.052 0 004 15.893l6.841 6.663c.248.242.361.59.303.931L9.53 32.9a1.052 1.052 0 001.525 1.108l8.456-4.447c.306-.16.672-.16.979 0l8.455 4.447A1.052 1.052 0 0030.47 32.9l-1.615-9.412c-.058-.342.055-.69.303-.932L36 15.893a1.051 1.051 0 00-.582-1.793l-9.456-1.383a1.052 1.052 0 01-.791-.575z" stroke="#000" stroke-width="2" stroke-linecap="round" stroke-linejoin="round"/></svg>