<svg xmlns="http://www.w3.org/2000/svg" width="402.14" height="558.89" viewBox="0 0 402.14 558.89" fill="none">
<path fill-rule="evenodd" clip-rule="evenodd" d="M383.445 0.790009H382.399L372.737 6.37303L362.795 12.1306L353.757 6.87706L343.237 0.790009H342.174L332.512 6.37303L322.584 12.1306L313.549 6.87706L303.012 0.790009H301.966L292.304 6.37303L282.361 12.1306L273.34 6.87706L262.804 0.790009H261.758L254.604 4.91092L242.153 12.1306L239.415 10.5308L222.579 0.790009H221.533L211.871 6.37303L201.959 12.1306L192.893 6.87706L182.371 0.790009H181.308L174.173 4.91092L161.737 12.1306L158.982 10.5308L142.146 0.790009H141.101L136.556 3.40114L121.527 12.1306L107.245 3.85671L101.938 0.790009H100.875L88.7038 7.84345L81.3191 12.1306L74.6957 8.2824L61.7133 0.790009H60.6676L57.7735 2.45969L41.095 12.1306L31.1531 6.37303L21.5051 0.790009H20.4594L10.7963 6.37303L0.886805 12.1306L0.880001 12.1267V36.0255L0.886805 36.0215L20.4642 47.3506L10.7963 52.9379L0.886805 58.6948L0.880001 58.6909V82.5828L0.886805 82.5789L20.4642 93.9231L0.886805 105.276L0.880001 105.272V129.179L0.886805 129.175L20.4642 140.504L10.7963 146.09L0.886805 151.84L0.880001 151.836V175.735L0.886805 175.731L20.4642 187.076L10.7963 192.68L0.886805 198.412L0.880001 198.408V222.299L0.886805 222.296L20.4642 233.656L10.7963 239.244L0.886805 244.993L0.880001 244.989V268.888L0.886805 268.884L20.4642 280.205L0.886805 291.55L0.880001 291.546V315.444L0.886805 315.44L20.4642 326.792L10.7963 332.381L0.886805 338.13L0.880001 338.126V362.009L0.886805 362.005L20.4642 373.373L10.7963 378.962L0.886805 384.694L0.880001 384.691V408.605L0.886805 408.601L20.4642 419.938L10.7963 425.526L0.886805 431.29L0.880001 431.286V455.187L0.886805 455.183L20.4642 466.502L10.7963 472.09L0.886805 477.854L0.880001 477.85V501.765L0.886805 501.761L20.4642 513.066L0.886805 524.42L0.880001 524.416V548.315L0.886805 548.311L20.4638 559.68H21.5007L41.095 548.311L60.6721 559.68H61.7089L81.3033 548.311L100.897 559.68H101.934L121.527 548.311L141.105 559.68H142.142L161.737 548.311L181.313 559.68H182.367L201.928 548.311L221.537 559.68H222.575L242.153 548.311L261.762 559.68H262.8L282.361 548.311L301.97 559.68H303.008L322.584 548.311L342.179 559.68H343.233L362.795 548.311L382.404 559.68H383.441L403.017 548.311L403.02 548.313V524.419L403.017 524.42L383.424 513.066L403.017 501.761L403.02 501.763V477.852L403.017 477.854L383.441 466.502L403.017 455.183L403.02 455.184V431.289L403.017 431.29L389.707 423.577L383.441 419.938L403.017 408.601L403.02 408.603V384.693L403.017 384.694L383.424 373.373L403.017 362.005L403.02 362.006V338.129L403.017 338.13L389.707 330.432L383.441 326.792L403.017 315.44L403.02 315.441V291.548L403.017 291.55L383.441 280.205L403.017 268.884L403.02 268.885V244.991L403.017 244.993L383.424 233.656L403.017 222.32L403.02 222.321V198.411L403.017 198.412L389.707 190.689L383.441 187.076L403.017 175.739L403.02 175.74V151.838L403.017 151.84L383.424 140.504L403.017 129.175L403.02 129.176V105.274L403.017 105.276L393.982 100.022L383.424 93.9231L403.017 82.5789L403.02 82.5804V58.6933L403.017 58.6948L389.707 50.9816L383.441 47.3506L403.017 36.0215L403.02 36.0231V12.1291L403.017 12.1306L393.982 6.87706L383.445 0.790009ZM382.905 1.09448L363.328 12.4235L382.905 23.767L402.5 12.4235L382.905 1.09448ZM342.682 1.09448L323.12 12.4235L342.682 23.767L362.292 12.4235L342.682 1.09448ZM302.473 1.09448L282.912 12.4235L302.473 23.767L322.083 12.4235L302.473 1.09448ZM262.265 1.09448L242.687 12.4235L262.249 23.767L281.859 12.4235L262.265 1.09448ZM222.04 1.09448L202.479 12.4235L222.04 23.767L241.634 12.4235L226.897 3.90517L222.04 1.09448ZM181.816 1.09448L162.253 12.4235L181.816 23.767L201.425 12.4235L181.816 1.09448ZM141.639 1.09448L122.029 12.4235L141.639 23.767L161.217 12.4235L146.481 3.90517L141.639 1.09448ZM101.416 1.09448L81.8209 12.4235L101.416 23.767L120.992 12.4235L101.416 1.09448ZM61.2074 1.09448L41.5961 12.4235L61.2074 23.767L80.7683 12.4235L61.2074 1.09448ZM20.9826 1.09448L1.38782 12.4235L20.9826 23.767L40.5759 12.4235L20.9826 1.09448ZM402.775 12.8768L383.18 24.2066V46.9033L402.775 35.5675V12.8768ZM363.069 12.8768V35.5675L382.663 46.9033V24.2066L363.069 12.8768ZM362.55 12.8768L342.972 24.2066V46.9033L362.55 35.5675V12.8768ZM322.86 12.8768V35.5675L342.438 46.9033V24.2066L322.86 12.8768ZM322.341 12.8768L302.764 24.2066V46.9033L322.341 35.5675V12.8768ZM282.651 12.8768V35.5675L302.23 46.9033V24.2066L282.651 12.8768ZM282.118 12.8768L262.541 24.2066V46.9033L282.118 35.5675V12.8768ZM242.443 12.8768V35.5675L262.005 46.9033V24.2066L242.443 12.8768ZM241.892 12.8768L222.316 24.2066V46.9033L241.892 35.5675V12.8768ZM202.22 12.8768V35.5675L221.797 46.9033V24.2066L202.22 12.8768ZM201.684 12.8768L182.108 24.2066V46.9033L201.684 35.5675V12.8768ZM161.995 12.8768V35.5675L181.573 46.9033V24.2066L161.995 12.8768ZM161.461 12.8768L141.899 24.2066V46.9033L161.461 35.5675V12.8768ZM121.787 12.8768L121.77 35.5675L141.364 46.9033V24.2066L121.787 12.8768ZM121.268 12.8768L101.674 24.2066V46.9033L121.268 35.5675V12.8768ZM81.5787 12.8768V35.5675L101.155 46.9033V24.2066L81.5787 12.8768ZM81.0429 12.8768L61.4497 24.2066V46.9033L81.0429 35.5675V12.8768ZM41.3538 12.8768V35.5675L60.9328 46.9033V24.2066L41.3538 12.8768ZM40.8196 12.8768L21.2414 24.2066V46.9033L40.8196 35.5675V12.8768ZM1.12901 12.8768V35.5675L20.7223 46.9033V24.2066L1.12901 12.8768ZM343.232 47.3506L349.498 50.9816L362.795 58.6948L372.737 52.9379L382.404 47.3589L362.795 36.0215L343.232 47.3506ZM303.008 47.3506L309.274 50.9816L322.584 58.6948L332.512 52.9379L342.179 47.3589L322.584 36.0215L303.008 47.3506ZM262.799 47.3506L269.066 50.9816L282.361 58.6948L292.304 52.9379L301.971 47.3589L282.361 36.0215L262.799 47.3506ZM222.575 47.3506L225.034 48.7961L242.153 58.6948L261.763 47.3589L242.153 36.0215L222.575 47.3506ZM182.366 47.3506L188.649 50.9816L201.959 58.6948L211.871 52.9379L221.538 47.3589L201.928 36.0215L182.366 47.3506ZM142.142 47.3506L144.603 48.7961L161.751 58.6948L181.313 47.3589L161.737 36.0215L142.142 47.3506ZM101.933 47.3506L115.94 55.4724L121.527 58.6948L124.75 56.8278L141.106 47.3506L121.527 36.0215L101.933 47.3506ZM81.3033 36.0215L61.7085 47.3589L81.3191 58.6948L100.897 47.3589L81.3033 36.0215ZM21.5002 47.3506L31.1531 52.9379L41.1101 58.6948L60.6725 47.3506L41.095 36.0215L21.5002 47.3506ZM382.905 47.6586L363.328 58.996L382.905 70.3318L402.516 58.996L382.905 47.6586ZM342.682 47.6586L323.12 58.996L342.682 70.3318L362.308 58.996L342.682 47.6586ZM302.473 47.6586L282.912 58.996L302.473 70.3318L322.083 58.996L302.473 47.6586ZM262.265 47.6586L242.687 58.996L262.249 70.3318L281.859 58.996L262.265 47.6586ZM222.04 47.6586L202.461 58.996L222.04 70.3318L241.634 58.996L226.897 50.4776L222.04 47.6586ZM181.816 47.6586L162.237 58.996L181.816 70.3318L201.443 58.996L181.816 47.6586ZM141.639 47.6586L122.029 58.996L141.639 70.3318L161.217 58.996L146.481 50.4776L141.639 47.6586ZM101.416 47.6586L81.8209 58.996L101.416 70.3318L121.009 58.996L101.416 47.6586ZM61.2074 47.6586L41.5961 58.996L61.2074 70.3318L80.8007 58.996L61.2074 47.6586ZM20.9826 47.6586L1.38782 58.996L20.9826 70.3318L40.5759 58.996L20.9826 47.6586ZM402.775 59.4501L383.18 70.7958V93.4675L402.775 82.1399V59.4501ZM363.069 59.4501V82.1399L382.663 93.4675V70.7958L363.069 59.4501ZM362.55 59.4501L342.972 70.7958V93.4675L362.55 82.1399V59.4501ZM322.86 59.4501V82.1399L342.438 93.4675V70.7958L322.86 59.4501ZM322.341 59.4501L302.764 70.7958V93.4675L322.341 82.1399V59.4501ZM282.651 59.4501V82.1399L302.23 93.4675V70.7958L282.651 59.4501ZM282.118 59.4501L262.541 70.7958V93.4675L282.118 82.1399V59.4501ZM241.892 59.4501L222.316 70.7958V93.4675L241.892 82.1399V59.4501ZM202.22 59.4501V82.1399L221.797 93.4675V70.7958L202.22 59.4501ZM201.684 59.4501L182.108 70.7958V93.4675L201.684 82.1399V59.4501ZM161.461 59.4501L141.899 70.7958V93.4675L161.461 82.1399V59.4501ZM121.787 59.4501L121.77 82.1399L141.364 93.4675V70.7958L121.787 59.4501ZM121.268 59.4501L101.674 70.7958V93.4675L121.268 82.1399V59.4501ZM81.5787 59.4501V82.1399L101.155 93.4675V70.7958L81.5787 59.4501ZM40.8196 59.4501L21.2414 70.7958V93.4675L40.8196 82.1399V59.4501ZM1.12901 59.4501V82.1399L20.7223 93.4675V70.7958L1.12901 59.4501ZM242.443 59.4667V82.1399L262.005 93.4675V70.7958L242.443 59.4667ZM161.995 59.4667V82.1399L181.573 93.4675V70.7958L161.995 59.4667ZM81.0429 59.4667L61.4497 70.7958V93.4675L81.0429 82.1399V59.4667ZM41.3538 59.4667V82.1399L60.9328 93.4675V70.7958L41.3538 59.4667ZM343.232 93.9231L353.757 100.022L362.795 105.276L382.404 93.9231L362.795 82.5789L343.232 93.9231ZM303.008 93.9231L313.549 100.022L322.584 105.276L342.196 93.9231L322.584 82.5789L303.008 93.9231ZM262.799 93.9231L273.34 100.022L282.361 105.276L301.988 93.9231L282.361 82.5789L262.799 93.9231ZM222.575 93.9231L239.415 103.684L242.153 105.276L248.857 101.394L261.763 93.9231L242.153 82.5789L222.575 93.9231ZM182.366 93.9231L192.893 100.022L201.959 105.276L221.538 93.9231L201.928 82.5789L182.366 93.9231ZM142.142 93.9231L158.982 103.684L161.737 105.276L168.44 101.394L181.33 93.9231L161.737 82.5789L142.142 93.9231ZM101.917 93.9231L107.245 97.0085L121.527 105.276L141.106 93.9231L121.527 82.5789L101.917 93.9231ZM61.7085 93.9231L74.6957 101.434L81.3191 105.276L100.897 93.9231L81.3033 82.5789L61.7085 93.9231ZM41.095 82.5789L21.5002 93.9231L41.1101 105.276L53.1104 98.3003L60.6725 93.9231L41.095 82.5789ZM382.905 94.2243L363.328 105.585L382.905 116.921L402.516 105.585L385.707 95.8475L382.905 94.2243ZM342.682 94.2243L323.12 105.585L342.682 116.921L362.308 105.585L345.498 95.8475L342.682 94.2243ZM302.473 94.2243L282.912 105.585L302.473 116.921L322.083 105.585L305.274 95.8475L302.473 94.2243ZM262.265 94.2243L242.687 105.585L262.265 116.921L281.859 105.585L265.049 95.8475L262.265 94.2243ZM222.04 94.2243L202.461 105.585L222.04 116.921L241.634 105.585L223.789 95.2391L222.04 94.2243ZM181.816 94.2243L162.237 105.585L181.816 116.921L201.443 105.585L184.633 95.8475L181.816 94.2243ZM141.639 94.2243L122.029 105.585L141.639 116.913L161.217 105.585L143.34 95.2391L141.639 94.2243ZM101.431 94.2243L81.8209 105.585L101.431 116.921L121.009 105.585L110.435 99.4703L101.431 94.2243ZM49.1589 101.2L41.5961 105.585L61.2074 116.913L80.8007 105.585L67.7976 98.0642L61.2074 94.2243L49.1589 101.2ZM20.9826 94.2243L1.38782 105.585L20.9826 116.921L40.5759 105.585L20.9826 94.2243ZM241.892 106.023L222.316 117.36V140.04L241.892 128.705V106.023ZM161.461 106.023L141.899 117.36V140.04L161.461 128.705V106.023ZM402.775 106.031L383.18 117.36V140.04L402.775 128.705V106.031ZM363.069 106.031V128.705L382.663 140.04V117.36L363.069 106.031ZM362.55 106.031L342.972 117.36V140.04L362.55 128.705V106.031ZM322.86 106.031V128.705L342.438 140.04V117.36L322.86 106.031ZM322.341 106.031L302.764 117.36V140.04L322.341 128.705V106.031ZM282.651 106.031V128.705L302.23 140.04V117.36L282.651 106.031ZM282.118 106.031L262.541 117.36V140.04L282.118 128.705V106.031ZM242.443 106.031V128.705L262.005 140.04V117.36L242.443 106.031ZM202.22 106.031V128.705L221.797 140.04V117.36L202.22 106.031ZM201.684 106.031L182.108 117.36V140.04L201.684 128.705V106.031ZM161.995 106.031V128.705L181.573 140.04V117.36L161.995 106.031ZM121.787 106.031L121.77 128.705L141.364 140.04V117.36L121.787 106.031ZM121.268 106.031L101.674 117.36V140.04L121.268 128.705V106.031ZM81.5787 106.031V128.705L101.155 140.04V117.36L81.5787 106.031ZM81.0429 106.031L61.4497 117.36V140.04L81.0429 128.705V106.031ZM41.3538 106.031V128.705L60.9328 140.04V117.36L41.3538 106.031ZM40.8196 106.031L21.2414 117.36V140.04L40.8196 128.705V106.031ZM1.12901 106.031V128.705L20.7223 140.04V117.36L1.12901 106.031ZM362.795 129.175L343.232 140.504L362.795 151.84L372.737 146.09L382.404 140.504L362.795 129.175ZM322.584 129.175L303.008 140.504L322.584 151.84L332.512 146.09L342.196 140.504L322.584 129.175ZM282.361 129.175L262.799 140.504L282.361 151.84L292.304 146.09L301.988 140.504L282.361 129.175ZM242.153 129.175L222.575 140.504L242.153 151.84L261.763 140.504L242.153 129.175ZM201.959 129.175L182.366 140.504L201.959 151.84L211.871 146.09L221.538 140.504L201.959 129.175ZM161.751 129.175L142.142 140.504L161.737 151.84L181.33 140.504L161.751 129.175ZM121.527 129.175L101.917 140.504L121.527 151.84L124.523 150.094L141.106 140.504L121.527 129.175ZM61.7085 140.504L68.98 144.718L81.3191 151.84L100.897 140.504L81.3191 129.175L61.7085 140.504ZM21.5002 140.504L31.1531 146.09L41.1101 151.84L60.6725 140.504L41.095 129.175L21.5002 140.504ZM372.995 146.553L363.328 152.148L382.905 163.477L402.5 152.148L400.168 150.776L382.905 140.803L372.995 146.553ZM332.787 146.553L323.12 152.148L342.682 163.477L362.292 152.148L359.943 150.776L342.682 140.803L332.787 146.553ZM292.562 146.553L282.912 152.148L302.473 163.477L322.083 152.148L319.719 150.776L302.473 140.803L292.562 146.553ZM259.171 142.607L242.687 152.148L262.249 163.477L281.859 152.148L279.511 150.776L262.249 140.803L259.171 142.607ZM212.129 146.553L202.479 152.148L222.04 163.477L241.634 152.148L222.04 140.803L212.129 146.553ZM178.723 142.607L162.253 152.148L181.816 163.477L201.425 152.148L199.078 150.776L181.816 140.803L178.723 142.607ZM131.696 146.553L122.029 152.148L141.639 163.477L161.217 152.148L141.639 140.803L131.696 146.553ZM84.784 150.434L81.8209 152.148L101.416 163.477L120.992 152.148L114.936 148.623L101.416 140.803L84.784 150.434ZM61.2074 140.803L41.5961 152.148L61.2074 163.477L80.7683 152.148L72.0405 147.09L61.2074 140.803ZM4.35092 150.434L1.38782 152.148L20.9826 163.477L40.5759 152.148L30.9087 146.553L20.9826 140.803L4.35092 150.434ZM241.892 152.587L222.316 163.947V186.621L241.892 175.293V152.587ZM161.461 152.587L141.899 163.947V186.621L161.461 175.293V152.587ZM402.775 152.595L383.18 163.947V186.621L402.775 175.293V152.595ZM363.069 152.595V175.293L382.663 186.621V163.947L363.069 152.595ZM362.55 152.595L342.972 163.947V186.621L362.55 175.293V152.595ZM322.86 152.595V175.293L342.438 186.621V163.947L322.86 152.595ZM322.341 152.595L302.764 163.947V186.621L322.341 175.293V152.595ZM282.651 152.595V175.293L302.23 186.621V163.947L282.651 152.595ZM282.118 152.595L262.541 163.947V186.621L282.118 175.293V152.595ZM242.443 152.595V175.293L262.005 186.621V163.947L242.443 152.595ZM202.22 152.595V175.293L221.797 186.621V163.947L202.22 152.595ZM201.684 152.595L182.108 163.947V186.621L201.684 175.293V152.595ZM161.995 152.595V175.293L181.573 186.621V163.947L161.995 152.595ZM121.787 152.595L121.77 175.293L141.364 186.621V163.947L121.787 152.595ZM121.268 152.595L101.674 163.947V186.621L121.268 175.293V152.595ZM81.5787 152.595V175.293L101.155 186.629V163.947L81.5787 152.595ZM81.0429 152.595L61.4497 163.947V186.629L81.0429 175.293V152.595ZM41.3538 152.595V175.293L60.9328 186.621V163.947L41.3538 152.595ZM40.8196 152.595L21.2414 163.947V186.621L40.8196 175.293V152.595ZM1.12901 152.595V175.293L20.7223 186.621V163.947L1.12901 152.595ZM182.366 187.076L188.649 190.689L201.959 198.412L211.871 192.68L221.538 187.076L201.928 175.731L182.366 187.076ZM101.933 187.076L115.94 195.189L121.527 198.412L124.75 196.554L141.106 187.076L121.527 175.731L101.933 187.076ZM21.5002 187.076L31.1531 192.68L41.1101 198.412L60.6725 187.076L41.095 175.731L21.5002 187.076ZM343.232 187.076L349.498 190.689L362.795 198.412L372.737 192.68L382.404 187.076L362.795 175.739L343.232 187.076ZM303.008 187.076L309.274 190.689L322.584 198.412L332.512 192.68L342.179 187.076L322.584 175.739L303.008 187.076ZM262.799 187.076L269.066 190.689L282.361 198.412L292.304 192.68L301.971 187.076L282.361 175.739L262.799 187.076ZM222.575 187.076L225.034 188.506L242.153 198.412L261.763 187.076L242.153 175.739L222.575 187.076ZM142.142 187.076L144.603 188.506L161.751 198.412L181.313 187.076L161.737 175.739L142.142 187.076ZM81.3033 175.739L61.7085 187.076L81.3191 198.412L100.897 187.076L81.3033 175.739ZM372.995 193.125L363.328 198.713L382.905 210.058L402.516 198.713L382.905 187.376L372.995 193.125ZM332.787 193.125L323.12 198.713L342.682 210.058L362.308 198.713L342.682 187.376L332.787 193.125ZM292.562 193.125L282.912 198.713L302.473 210.058L322.083 198.713L302.473 187.376L292.562 193.125ZM259.398 189.058L242.687 198.713L262.265 210.058L281.859 198.713L262.265 187.376L259.398 189.058ZM212.129 193.125L202.461 198.713L222.04 210.058L241.634 198.713L226.897 190.195L222.04 187.376L212.129 193.125ZM178.965 189.058L162.237 198.713L181.816 210.058L201.443 198.713L181.816 187.376L178.965 189.058ZM131.696 193.125L122.029 198.713L141.639 210.058L161.217 198.713L146.481 190.195L141.639 187.376L131.696 193.125ZM84.5901 197.13L81.8209 198.713L101.431 210.058L121.009 198.713L101.431 187.376L84.5901 197.13ZM61.2074 187.376L41.5961 198.713L61.2074 210.058L80.8007 198.713L61.2074 187.376ZM4.15701 197.13L1.38782 198.713L20.9826 210.058L40.5759 198.713L30.9087 193.125L20.9826 187.376L4.15701 197.13ZM402.775 199.176L383.18 210.512V233.193L402.775 221.857V199.176ZM363.069 199.176V221.857L382.663 233.193V210.512L363.069 199.176ZM362.55 199.176L342.972 210.512V233.193L362.55 221.857V199.176ZM322.86 199.176V221.857L342.438 233.193V210.512L322.86 199.176ZM322.341 199.176L302.764 210.512V233.193L322.341 221.857V199.176ZM282.651 199.176V221.857L302.23 233.193V210.512L282.651 199.176ZM282.118 199.176L262.541 210.512V233.193L282.118 221.857V199.176ZM241.892 199.176L222.316 210.512V233.193L241.892 221.857V199.176ZM202.22 199.176V221.857L221.797 233.193V210.512L202.22 199.176ZM201.684 199.176L182.108 210.512V233.193L201.684 221.857V199.176ZM161.461 199.176L141.899 210.512V233.193L161.461 221.857V199.176ZM121.787 199.176L121.77 221.857L141.364 233.193V210.512L121.787 199.176ZM121.268 199.176L101.674 210.512V233.193L121.268 221.857V199.176ZM81.5787 199.176V221.857L101.155 233.193V210.512L81.5787 199.176ZM40.8196 199.176L21.2414 210.512V233.193L40.8196 221.857V199.176ZM1.12901 199.176V221.857L20.7223 233.193V210.512L1.12901 199.176ZM242.443 199.185V221.857L262.005 233.193V210.512L242.443 199.185ZM161.995 199.185V221.857L181.573 233.193V210.512L161.995 199.185ZM81.0429 199.185L61.4497 210.512V233.193L81.0429 221.857V199.185ZM41.3538 199.185V221.857L60.9328 233.193V210.512L41.3538 199.185ZM201.928 222.296L182.366 233.656L201.959 244.993L211.871 239.244L221.538 233.656L201.928 222.296ZM121.527 222.296L101.917 233.656L121.527 244.993L124.523 243.246L141.106 233.656L121.527 222.296ZM21.5002 233.656L31.1531 239.244L41.1101 244.993L60.6725 233.656L41.095 222.296L21.5002 233.656ZM362.795 222.32L343.232 233.656L362.795 244.993L372.737 239.244L382.404 233.656L362.795 222.32ZM322.584 222.32L303.008 233.656L322.584 244.993L332.512 239.244L342.196 233.656L322.584 222.32ZM282.361 222.32L262.799 233.656L282.361 244.993L292.304 239.244L301.988 233.656L282.361 222.32ZM242.153 222.32L222.575 233.656L242.153 244.993L261.763 233.656L242.153 222.32ZM161.737 222.32L142.142 233.656L161.737 244.993L181.33 233.656L161.737 222.32ZM61.7085 233.656L68.98 237.855L81.3191 244.993L100.897 233.656L81.3033 222.32L61.7085 233.656ZM372.995 239.698L363.328 245.286L382.905 256.631L402.5 245.286L382.905 233.957L372.995 239.698ZM332.787 239.698L323.12 245.286L342.682 256.631L362.292 245.286L342.682 233.957L332.787 239.698ZM292.562 239.698L282.912 245.286L302.473 256.631L322.083 245.286L302.473 233.957L292.562 239.698ZM259.171 235.743L242.687 245.286L262.265 256.631L281.859 245.286L262.265 233.957L259.171 235.743ZM212.129 239.698L202.479 245.286L222.04 256.631L241.634 245.278L226.849 236.734L222.04 233.957L212.129 239.698ZM178.723 235.743L162.253 245.286L181.816 256.631L201.425 245.286L181.816 233.957L178.723 235.743ZM131.696 239.698L122.029 245.286L141.639 256.631L161.217 245.278L146.417 236.734L141.639 233.957L131.696 239.698ZM84.784 243.596L81.8209 245.278L101.431 256.631L120.992 245.286L101.431 233.957L84.784 243.596ZM61.2074 233.957L41.5961 245.286L61.2074 256.631L80.7683 245.286L61.2074 233.957ZM4.35092 243.596L1.38782 245.286L20.9826 256.631L40.5759 245.286L30.9087 239.698L20.9826 233.957L4.35092 243.596ZM402.775 245.748L383.18 257.084V279.775L402.775 268.413V245.748ZM363.069 245.748V268.413L382.663 279.775V257.084L363.069 245.748ZM362.55 245.748L342.972 257.084V279.775L362.55 268.413V245.748ZM322.86 245.748V268.413L342.438 279.775V257.084L322.86 245.748ZM322.341 245.748L302.764 257.084V279.775L322.341 268.413V245.748ZM282.651 245.748V268.413L302.23 279.775V257.084L282.651 245.748ZM282.118 245.748L262.541 257.084V279.775L282.118 268.413V245.748ZM242.443 245.748V268.413L262.005 279.775V257.084L242.443 245.748ZM241.892 245.748L222.316 257.084V279.775L241.892 268.413V245.748ZM202.22 245.748V268.413L221.797 279.775V257.084L202.22 245.748ZM201.684 245.748L182.108 257.084V279.775L201.684 268.413V245.748ZM161.995 245.748V268.413L181.573 279.775V257.084L161.995 245.748ZM161.461 245.748L141.899 257.084V279.775L161.461 268.413V245.748ZM121.787 245.748L121.77 268.413L141.364 279.775V257.084L121.787 245.748ZM121.268 245.748L101.674 257.084V279.775L121.268 268.413V245.748ZM81.5787 245.748V268.413L101.155 279.775V257.084L81.5787 245.748ZM81.0429 245.748L61.4497 257.084V279.775L81.0429 268.413V245.748ZM41.3538 245.748V268.413L60.9328 279.775V257.084L41.3538 245.748ZM40.8196 245.748L21.2414 257.084V279.775L40.8196 268.413V245.748ZM1.12901 245.748V268.413L20.7223 279.775V257.084L1.12901 245.748ZM362.795 268.884L343.232 280.205L362.795 291.55L382.404 280.205L362.795 268.884ZM322.584 268.884L303.008 280.205L322.584 291.55L342.179 280.205L322.584 268.884ZM282.361 268.884L262.799 280.205L282.361 291.55L301.971 280.205L282.361 268.884ZM242.153 268.884L222.575 280.205L242.153 291.55L261.763 280.205L242.153 268.884ZM201.959 268.884L182.366 280.205L201.959 291.55L221.538 280.205L201.959 268.884ZM161.751 268.884L142.142 280.205L161.737 291.55L181.313 280.205L161.751 268.884ZM121.527 268.884L101.933 280.205L121.527 291.55L141.106 280.205L121.527 268.884ZM61.7085 280.205L68.98 284.436L81.3191 291.55L94.4844 283.933L100.897 280.205L81.3191 268.884L61.7085 280.205ZM41.095 268.884L21.5002 280.205L41.095 291.55L60.6725 280.205L41.095 268.884ZM382.905 280.529L363.328 291.891L382.905 303.194L402.5 291.891L382.905 280.529ZM342.682 280.529L323.12 291.891L342.682 303.194L362.292 291.891L342.682 280.529ZM302.473 280.529L282.912 291.891L302.473 303.194L322.083 291.891L302.473 280.529ZM262.265 280.529L242.687 291.891L262.249 303.194L281.859 291.891L262.265 280.529ZM222.04 280.529L202.479 291.891L222.04 303.194L241.634 291.891L226.897 283.355L222.04 280.529ZM181.816 280.529L162.253 291.891L181.816 303.194L201.425 291.891L181.816 280.529ZM141.639 280.529L122.029 291.891L141.639 303.194L161.217 291.891L146.481 283.355L141.639 280.529ZM101.416 280.529L81.8209 291.891L101.416 303.194L120.992 291.891L101.416 280.529ZM61.2074 280.529L41.5961 291.891L61.2074 303.194L80.7683 291.891L61.2074 280.529ZM20.9826 280.529L1.38782 291.891L20.9826 303.194L40.5759 291.891L20.9826 280.529ZM402.775 292.313L383.18 303.666V326.356L402.775 314.986V292.313ZM363.069 292.313V314.986L382.663 326.356V303.666L363.069 292.313ZM362.55 292.313L342.972 303.666V326.356L362.55 314.986V292.313ZM322.86 292.313V314.986L342.438 326.356V303.666L322.86 292.313ZM322.341 292.313L302.764 303.666V326.356L322.341 314.986V292.313ZM282.651 292.313V314.986L302.23 326.356V303.666L282.651 292.313ZM282.118 292.313L262.541 303.666V326.356L282.118 314.986V292.313ZM242.443 292.313V314.986L262.005 326.356V303.666L242.443 292.313ZM241.892 292.313L222.316 303.666V326.356L241.892 314.986V292.313ZM202.22 292.313V314.986L221.797 326.356V303.666L202.22 292.313ZM201.684 292.313L182.108 303.666V326.356L201.684 314.986V292.313ZM161.995 292.313V314.986L181.573 326.356V303.666L161.995 292.313ZM161.461 292.313L141.899 303.666V326.356L161.461 314.986V292.313ZM121.787 292.313L121.77 314.986L141.364 326.356V303.666L121.787 292.313ZM121.268 292.313L101.674 303.666V326.356L121.268 314.986V292.313ZM81.5787 292.313V314.986L101.155 326.356V303.666L81.5787 292.313ZM81.0429 292.313L61.4497 303.666V326.356L81.0429 314.986V292.313ZM41.3538 292.313V314.986L60.9328 326.356V303.666L41.3538 292.313ZM40.8196 292.313L21.2414 303.666V326.356L40.8196 314.986V292.313ZM1.12901 292.313V314.986L20.7223 326.356V303.666L1.12901 292.313ZM343.232 326.792L349.498 330.432L362.795 338.13L372.737 332.381L382.404 326.792L362.795 315.44L343.232 326.792ZM303.008 326.792L309.274 330.432L322.584 338.13L332.512 332.381L342.179 326.792L322.584 315.44L303.008 326.792ZM262.799 326.792L269.066 330.432L282.361 338.13L292.304 332.381L301.971 326.792L282.361 315.44L262.799 326.792ZM222.575 326.792L225.034 328.223L242.153 338.13L261.763 326.792L242.153 315.44L222.575 326.792ZM182.366 326.792L188.649 330.432L201.959 338.13L211.871 332.381L221.538 326.792L201.959 315.44L182.366 326.792ZM142.142 326.792L144.603 328.223L161.751 338.13L181.313 326.792L161.751 315.44L142.142 326.792ZM101.933 326.792L115.94 334.897L121.527 338.13L124.75 336.263L141.106 326.792L121.527 315.44L101.933 326.792ZM81.3191 315.44L61.7085 326.81L81.3191 338.13L100.897 326.81L81.3191 315.44ZM21.5002 326.792L31.1531 332.381L41.1101 338.13L60.6725 326.792L41.095 315.44L21.5002 326.792ZM372.995 332.868L363.328 338.438L382.905 349.776L402.516 338.438L382.905 327.102L372.995 332.868ZM332.787 332.868L323.12 338.438L342.682 349.776L362.308 338.438L342.682 327.102L332.787 332.868ZM292.562 332.868L282.912 338.438L302.473 349.776L322.083 338.438L302.473 327.102L292.562 332.868ZM259.398 328.758L242.687 338.438L262.265 349.776L281.859 338.438L262.265 327.102L259.398 328.758ZM212.129 332.868L202.461 338.438L222.04 349.776L241.634 338.438L226.897 329.928L222.04 327.102L212.129 332.868ZM178.965 328.758L162.237 338.438L181.816 349.776L201.443 338.438L181.816 327.102L178.965 328.758ZM131.696 332.868L122.029 338.438L141.639 349.776L161.217 338.438L146.481 329.928L141.639 327.102L131.696 332.868ZM84.5901 336.846L81.8209 338.438L101.431 349.776L121.009 338.438L101.431 327.102L84.5901 336.846ZM61.2074 327.102L41.5961 338.438L61.2074 349.776L80.8007 338.438L61.2074 327.102ZM4.15701 336.846L1.38782 338.438L20.9826 349.776L40.5759 338.438L30.9087 332.868L20.9826 327.102L4.15701 336.846ZM402.775 338.877L383.18 350.229V372.92L402.775 361.599V338.877ZM363.069 338.877V361.599L382.663 372.92V350.229L363.069 338.877ZM362.55 338.877L342.972 350.229V372.92L362.55 361.599V338.877ZM322.86 338.877V361.599L342.438 372.92V350.229L322.86 338.877ZM322.341 338.877L302.764 350.229V372.92L322.341 361.599V338.877ZM282.651 338.877V361.599L302.23 372.92V350.229L282.651 338.877ZM282.118 338.877L262.541 350.229V372.92L282.118 361.599V338.877ZM242.443 338.877V361.599L262.005 372.92V350.229L242.443 338.877ZM241.892 338.877L222.316 350.229V372.92L241.892 361.599V338.877ZM202.22 338.877V361.599L221.797 372.92V350.229L202.22 338.877ZM201.684 338.877L182.108 350.229V372.92L201.684 361.599V338.877ZM161.995 338.877V361.599L181.573 372.92V350.229L161.995 338.877ZM161.461 338.877L141.899 350.229V372.92L161.461 361.599V338.877ZM121.787 338.877L121.77 361.599L141.364 372.92V350.229L121.787 338.877ZM121.268 338.877L101.674 350.229V372.92L121.268 361.599V338.877ZM81.5787 338.877V361.599L101.155 372.92V350.229L81.5787 338.877ZM81.0429 338.877L61.4497 350.229V372.92L81.0429 361.599V338.877ZM41.3538 338.877V361.599L60.9328 372.92V350.229L41.3538 338.877ZM40.8196 338.877L21.2414 350.229V372.92L40.8196 361.599V338.877ZM1.12901 338.877V361.599L20.7223 372.92V350.229L1.12901 338.877ZM362.795 362.005L343.232 373.373L362.795 384.694L372.737 378.962L382.404 373.373L362.795 362.005ZM322.584 362.005L303.008 373.373L322.584 384.694L332.512 378.962L342.196 373.373L322.584 362.005ZM282.361 362.005L262.799 373.373L282.361 384.694L292.304 378.962L301.988 373.373L282.361 362.005ZM242.153 362.005L222.575 373.373L242.153 384.694L261.763 373.373L242.153 362.005ZM201.928 362.005L182.366 373.373L201.959 384.694L211.871 378.962L221.538 373.373L201.928 362.005ZM161.737 362.005L142.142 373.373L161.737 384.694L181.33 373.373L161.737 362.005ZM121.527 362.005L101.917 373.373L121.527 384.694L124.523 382.973L141.106 373.373L121.527 362.005ZM61.7085 373.373L68.98 377.596L81.3191 384.694L100.897 373.373L81.3033 362.005L61.7085 373.373ZM21.5002 373.373L31.1531 378.962L41.1101 384.694L60.6725 373.373L41.095 362.005L21.5002 373.373ZM382.905 373.666L363.328 385.019L382.905 396.356L402.516 385.019L382.905 373.666ZM342.682 373.666L323.12 385.019L342.682 396.356L362.308 385.019L342.682 373.666ZM302.473 373.666L282.912 385.019L302.473 396.356L322.083 385.019L302.473 373.666ZM262.249 373.666L242.687 385.019L262.265 396.356L281.859 385.019L262.249 373.666ZM222.04 373.666L202.461 385.019L222.04 396.356L241.634 385.019L222.04 373.666ZM181.816 373.666L162.237 385.019L181.816 396.356L201.443 385.019L181.816 373.666ZM141.639 373.666L122.029 385.019L141.639 396.323L161.217 385.019L141.639 373.666ZM101.416 373.666L81.8209 385.019L101.431 396.356L121.009 385.019L101.416 373.666ZM49.1589 380.633L41.5961 385.019L61.2074 396.323L80.8007 385.019L61.2074 373.666L49.1589 380.633ZM20.9826 373.666L1.38782 385.019L20.9826 396.356L40.5759 385.019L20.9826 373.666ZM402.775 385.475L383.18 396.81V419.484L402.775 408.146V385.475ZM363.069 385.475V408.146L382.663 419.484V396.81L363.069 385.475ZM362.55 385.475L342.972 396.81V419.484L362.55 408.146V385.475ZM322.86 385.475V408.146L342.438 419.484V396.81L322.86 385.475ZM322.341 385.475L302.764 396.81V419.484L322.341 408.146V385.475ZM282.651 385.475V408.146L302.23 419.484V396.81L282.651 385.475ZM282.118 385.475L262.541 396.81V419.484L282.118 408.146V385.475ZM242.443 385.475V408.146L262.005 419.484V396.81L242.443 385.475ZM241.892 385.475L222.316 396.81V419.484L241.892 408.146V385.475ZM202.22 385.475V408.146L221.797 419.484V396.81L202.22 385.475ZM201.684 385.475L182.108 396.81V419.484L201.684 408.146V385.475ZM161.995 385.475V408.146L181.573 419.484V396.81L161.995 385.475ZM161.461 385.475L141.899 396.81V419.484L161.461 408.146V385.475ZM121.787 385.475L121.77 408.146L141.364 419.484V396.81L121.787 385.475ZM121.268 385.475L101.674 396.81V419.484L121.268 408.146V385.475ZM81.5787 385.475V408.146L101.155 419.484V396.81L81.5787 385.475ZM81.0429 385.475L61.4497 396.81V419.484L81.0429 408.146V385.475ZM41.3538 385.475V408.146L60.9328 419.484V396.81L41.3538 385.475ZM40.8196 385.475L21.2414 396.81V419.484L40.8196 408.146V385.475ZM1.12901 385.475V408.146L20.7223 419.484V396.81L1.12901 385.475ZM343.232 419.938L349.498 423.577L362.795 431.29L372.737 425.526L382.404 419.938L362.795 408.601L343.232 419.938ZM303.008 419.938L309.274 423.577L322.584 431.29L332.512 425.526L342.179 419.938L322.584 408.601L303.008 419.938ZM262.799 419.938L269.066 423.577L282.361 431.29L292.304 425.526L301.971 419.938L282.361 408.601L262.799 419.938ZM222.575 419.938L225.034 421.368L242.153 431.29L261.763 419.938L242.153 408.601L222.575 419.938ZM182.366 419.938L188.649 423.577L201.959 431.29L211.871 425.526L221.538 419.938L201.959 408.601L182.366 419.938ZM142.142 419.938L144.603 421.368L161.751 431.29L181.313 419.938L161.751 408.601L142.142 419.938ZM101.933 419.938L115.94 428.027L121.527 431.29L124.75 429.423L141.106 419.938L121.527 408.601L101.933 419.938ZM81.3191 408.601L61.7085 419.938L81.3191 431.29L100.897 419.938L81.3191 408.601ZM21.5002 419.938L31.1531 425.526L41.1101 431.29L60.6725 419.938L41.095 408.601L21.5002 419.938ZM372.995 426.013L363.328 431.6L382.905 442.936L402.516 431.6L382.905 420.264L372.995 426.013ZM332.787 426.013L323.12 431.6L342.682 442.936L362.308 431.6L342.682 420.264L332.787 426.013ZM292.562 426.013L282.912 431.6L302.473 442.936L322.083 431.6L302.473 420.264L292.562 426.013ZM259.398 421.92L242.687 431.6L262.249 442.936L281.859 431.6L262.265 420.264L259.398 421.92ZM212.129 426.013L202.461 431.6L222.04 442.936L241.634 431.6L226.897 423.056L222.04 420.264L212.129 426.013ZM178.965 421.92L162.237 431.6L181.816 442.936L201.443 431.6L181.816 420.264L178.965 421.92ZM131.696 426.013L122.029 431.6L141.639 442.936L161.217 431.6L146.481 423.056L141.639 420.264L131.696 426.013ZM84.5901 429.974L81.8209 431.6L101.416 442.936L121.009 431.6L101.431 420.264L84.5901 429.974ZM61.2074 420.264L41.5961 431.6L61.2074 442.936L80.8007 431.6L61.2074 420.264ZM4.15701 429.974L1.38782 431.6L20.9826 442.936L40.5759 431.6L30.9087 426.013L20.9826 420.264L4.15701 429.974ZM402.775 432.039L383.18 443.375V466.048L402.775 454.727V432.039ZM363.069 432.039V454.727L382.663 466.048V443.375L363.069 432.039ZM362.55 432.039L342.972 443.375V466.048L362.55 454.727V432.039ZM322.86 432.039V454.727L342.438 466.048V443.375L322.86 432.039ZM322.341 432.039L302.764 443.375V466.048L322.341 454.727V432.039ZM282.651 432.039V454.727L302.23 466.048V443.375L282.651 432.039ZM282.118 432.039L262.541 443.375V466.048L282.118 454.727V432.039ZM242.443 432.039V454.727L262.005 466.048V443.375L242.443 432.039ZM241.892 432.039L222.316 443.375V466.048L241.892 454.727V432.039ZM202.22 432.039V454.727L221.797 466.048V443.375L202.22 432.039ZM201.684 432.039L182.108 443.375V466.048L201.684 454.727V432.039ZM161.995 432.039V454.727L181.573 466.048V443.375L161.995 432.039ZM161.461 432.039L141.899 443.375V466.048L161.461 454.727V432.039ZM121.787 432.039L121.77 454.727L141.364 466.048V443.375L121.787 432.039ZM121.268 432.039L101.674 443.375V466.048L121.268 454.727V432.039ZM81.5787 432.039V454.727L101.155 466.048V443.375L81.5787 432.039ZM81.0429 432.039L61.4497 443.375V466.048L81.0429 454.727V432.039ZM41.3538 432.039V454.727L60.9328 466.048V443.375L41.3538 432.039ZM40.8196 432.039L21.2414 443.375V466.048L40.8196 454.727V432.039ZM1.12901 432.039V454.727L20.7223 466.048V443.375L1.12901 432.039ZM362.795 455.183L343.232 466.502L362.795 477.854L372.737 472.09L382.404 466.502L362.795 455.183ZM322.584 455.183L303.008 466.502L322.584 477.854L332.512 472.09L342.179 466.502L322.584 455.183ZM282.361 455.183L262.799 466.502L282.361 477.854L292.304 472.09L301.971 466.502L282.361 455.183ZM242.153 455.183L222.575 466.502L242.153 477.854L261.763 466.502L242.153 455.183ZM201.928 455.183L182.366 466.502L201.959 477.854L211.871 472.09L221.538 466.502L201.928 455.183ZM161.737 455.183L142.142 466.502L161.737 477.854L181.313 466.502L161.737 455.183ZM121.527 455.183L101.933 466.502L121.527 477.854L124.75 476.003L141.106 466.502L121.527 455.183ZM61.7085 466.502L68.8985 470.66L81.3191 477.854L100.897 466.502L81.3033 455.183L61.7085 466.502ZM21.5002 466.502L31.1531 472.09L41.1101 477.854L60.6725 466.502L41.095 455.183L21.5002 466.502ZM382.905 466.812L363.328 478.147L382.905 489.516L402.516 478.147L385.707 468.42L382.905 466.812ZM342.682 466.812L323.12 478.147L342.682 489.516L362.308 478.147L345.498 468.42L342.682 466.812ZM302.473 466.812L282.912 478.147L302.473 489.516L322.083 478.147L305.274 468.42L302.473 466.812ZM262.265 466.812L242.687 478.147L262.265 489.516L281.859 478.147L265.049 468.42L262.265 466.812ZM222.04 466.812L202.461 478.147L222.04 489.516L241.634 478.147L223.789 467.817L222.04 466.812ZM181.816 466.812L162.237 478.147L181.816 489.516L201.443 478.147L184.633 468.42L181.816 466.812ZM141.639 466.812L122.029 478.147L141.639 489.516L161.217 478.147L143.34 467.817L141.639 466.812ZM101.431 466.812L81.8209 478.147L101.431 489.516L121.009 478.147L110.435 472.04L101.431 466.812ZM49.1589 473.794L41.5961 478.147L61.2074 489.516L80.8007 478.147L67.7976 470.645L61.2074 466.812L49.1589 473.794ZM20.9826 466.812L1.38782 478.147L20.9826 489.516L40.5759 478.147L20.9826 466.812ZM402.775 478.617L383.18 489.971V512.644L402.775 501.291V478.617ZM363.069 478.617V501.291L382.663 512.644V489.971L363.069 478.617ZM362.55 478.617L342.972 489.971V512.644L362.55 501.291V478.617ZM322.86 478.617V501.291L342.438 512.644V489.971L322.86 478.617ZM322.341 478.617L302.764 489.971V512.644L322.341 501.291V478.617ZM282.651 478.617V501.291L302.23 512.644V489.971L282.651 478.617ZM282.118 478.617L262.541 489.971V512.644L282.118 501.291V478.617ZM241.892 478.617L222.316 489.971V512.644L241.892 501.291V478.617ZM202.22 478.617V501.291L221.797 512.644V489.971L202.22 478.617ZM201.684 478.617L182.108 489.971V512.644L201.684 501.291V478.617ZM161.461 478.617L141.899 489.971V512.644L161.461 501.291V478.617ZM121.787 478.617L121.77 501.291L141.364 512.644V489.971L121.787 478.617ZM121.268 478.617L101.674 489.971V512.644L121.268 501.291V478.617ZM81.5787 478.617V501.291L101.155 512.644V489.971L81.5787 478.617ZM40.8196 478.617L21.2414 489.971V512.644L40.8196 501.291V478.617ZM1.12901 478.617V501.291L20.7223 512.644V489.971L1.12901 478.617ZM242.443 478.635V501.291L262.005 512.644V489.971L242.443 478.635ZM161.995 478.635V501.291L181.573 512.644V489.971L161.995 478.635ZM81.0429 478.635L61.4497 489.971V512.644L81.0429 501.291V478.635ZM41.3538 478.635V501.291L60.9328 512.644V489.971L41.3538 478.635ZM362.795 501.761L343.232 513.066L362.795 524.42L382.404 513.066L362.795 501.761ZM322.584 501.761L303.008 513.066L322.584 524.42L342.196 513.066L322.584 501.761ZM282.361 501.761L262.799 513.066L282.361 524.42L301.988 513.066L282.361 501.761ZM242.153 501.761L222.575 513.066L242.153 524.42L261.763 513.066L242.153 501.761ZM201.959 501.761L182.366 513.066L201.959 524.42L221.538 513.066L201.959 501.761ZM161.751 501.761L142.142 513.066L161.737 524.42L181.33 513.066L161.751 501.761ZM121.527 501.761L101.917 513.066L121.527 524.42L141.106 513.066L121.527 501.761ZM61.7085 513.066L68.98 517.289L81.3191 524.42L94.4844 516.787L100.897 513.066L81.3191 501.761L61.7085 513.066ZM41.095 501.761L21.5002 513.066L41.095 524.42L60.6725 513.066L41.095 501.761ZM372.995 519.142L363.328 524.727L382.905 536.064L402.5 524.727L400.168 523.38L382.905 513.407L372.995 519.142ZM332.787 519.142L323.12 524.727L342.682 536.064L362.292 524.727L359.943 523.38L342.682 513.407L332.787 519.142ZM292.562 519.142L282.912 524.727L302.473 536.064L322.083 524.727L319.719 523.38L302.473 513.407L292.562 519.142ZM259.171 515.21L242.687 524.727L262.265 536.064L281.859 524.727L279.511 523.38L262.249 513.407L259.171 515.21ZM212.129 519.142L202.479 524.727L222.04 536.064L241.634 524.727L222.04 513.407L212.129 519.142ZM178.723 515.21L162.253 524.727L181.816 536.064L201.425 524.727L199.078 523.38L181.816 513.407L178.723 515.21ZM131.696 519.142L122.029 524.727L141.639 536.064L161.217 524.727L141.639 513.407L131.696 519.142ZM84.784 523.038L81.8209 524.727L101.431 536.064L120.992 524.727L114.936 521.221L101.416 513.407L84.784 523.038ZM61.2074 513.407L41.5961 524.727L61.2074 536.064L80.7683 524.727L72.0405 519.66L61.2074 513.407ZM4.35092 523.038L1.38782 524.727L20.9826 536.064L40.5759 524.727L30.9087 519.142L20.9826 513.407L4.35092 523.038ZM402.775 525.183L383.18 536.536V559.225L402.775 547.855V525.183ZM363.069 525.183V547.855L382.663 559.225V536.536L363.069 525.183ZM362.55 525.183L342.972 536.536V559.225L362.55 547.855V525.183ZM322.86 525.183V547.855L342.438 559.225V536.536L322.86 525.183ZM322.341 525.183L302.764 536.536V559.225L322.341 547.855V525.183ZM282.651 525.183V547.855L302.23 559.225V536.536L282.651 525.183ZM282.118 525.183L262.541 536.536V559.225L282.118 547.855V525.183ZM242.443 525.183V547.855L262.005 559.225V536.536L242.443 525.183ZM241.892 525.183L222.316 536.536V559.225L241.892 547.855V525.183ZM202.22 525.183V547.855L221.797 559.225V536.536L202.22 525.183ZM201.684 525.183L182.108 536.536V559.225L201.684 547.855V525.183ZM161.995 525.183V547.855L181.573 559.225V536.536L161.995 525.183ZM161.461 525.183L141.899 536.536V559.225L161.461 547.855V525.183ZM121.787 525.183L121.77 547.855L141.364 559.225V536.536L121.787 525.183ZM121.268 525.183L101.674 536.536V559.225L121.268 547.855V525.183ZM81.5787 525.183V547.855L101.155 559.225V536.536L81.5787 525.183ZM81.0429 525.183L61.4497 536.536V559.225L81.0429 547.855V525.183ZM41.3538 525.183V547.855L60.9328 559.225V536.536L41.3538 525.183ZM40.8196 525.183L21.2414 536.536V559.225L40.8196 547.855V525.183ZM1.12901 525.183V547.855L20.7223 559.225V536.536L1.12901 525.183Z" fill="#D9EAED"/>
</svg>