<svg width="1931" height="513" viewBox="0 0 1931 513" fill="none" xmlns="http://www.w3.org/2000/svg">
<path fill-rule="evenodd" clip-rule="evenodd" d="M382.565 0H381.519L371.857 5.58303L361.915 11.3406L352.877 6.08706L342.357 0H341.294L331.632 5.58303L321.704 11.3406L312.669 6.08706L302.132 0H301.086L291.424 5.58303L281.481 11.3406L272.46 6.08706L261.924 0H260.878L253.724 4.12092L241.273 11.3406L238.535 9.74081L221.699 0H220.653L210.991 5.58303L201.079 11.3406L192.013 6.08706L181.491 0H180.428L173.293 4.12092L160.857 11.3406L158.102 9.74081L141.266 0H140.221L135.676 2.61114L120.647 11.3406L106.365 3.06671L101.058 0H99.9952L87.8238 7.05345L80.4391 11.3406L73.8157 7.4924L60.8333 0H59.7877L56.8935 1.66968L40.215 11.3406L30.2731 5.58303L20.625 0H19.5794L9.91625 5.58303L0.00680421 11.3406L0 11.3367V35.2355L0.00680421 35.2315L19.5842 46.5606L9.91625 52.1479L0.00680421 57.9048L0 57.9009V81.7928L0.00680421 81.7889L19.5842 93.1331L0.00680421 104.486L0 104.482V128.389L0.00680421 128.385L19.5842 139.714L9.91625 145.3L0.00680421 151.05L0 151.046V174.945L0.00680421 174.941L19.5842 186.286L9.91625 191.89L0.00680421 197.622L0 197.618V221.509L0.00680421 221.506L19.5842 232.866L9.91625 238.454L0.00680421 244.203L0 244.199V268.098L0.00680421 268.094L19.5842 279.415L0.00680421 290.76L0 290.756V314.654L0.00680421 314.65L19.5842 326.002L20.1026 326.312L20.6202 326.002L40.215 314.65L40.4738 314.5V291.523V290.91L40.215 290.76L20.6202 279.415L40.215 268.094L59.7925 279.415L60.3274 279.739L60.8285 279.415L80.4391 268.094L100.017 279.415L100.536 279.739L101.053 279.415L120.647 268.094L140.226 279.415L120.647 290.76L120.388 290.918V291.523V291.748V314.196V314.421V314.5L120.647 314.65L140.226 326.002L140.759 326.312L141.262 326.002L160.871 314.65L161.115 314.5V314.196V291.523V290.909L160.857 290.76L141.262 279.415L160.871 268.094L173.836 275.597L175.419 276.513L180.433 279.415L180.936 279.72L181.486 279.415L201.079 268.094L201.34 267.934V267.623V245.051V244.35L201.079 244.203L181.486 232.866L201.048 221.506L201.34 221.328V221.16V221.067V198.7V197.8L201.079 197.622L187.769 189.899L181.486 186.286L201.048 174.941L220.658 186.286L221.16 186.586L221.695 186.286L241.273 174.949L260.883 186.286L261.385 186.586L261.919 186.286L281.481 174.949L281.771 174.789V174.503V151.805V151.227L281.481 151.05L261.919 139.714L281.481 128.385L301.108 139.714L301.593 140.013L302.128 139.714L321.704 128.385L341.316 139.714L341.802 140.013L342.352 139.714L361.915 128.385L381.524 139.714L371.857 145.3L361.915 151.05L361.67 151.185V151.805V174.503V174.804L361.915 174.949L381.524 186.286L382.025 186.586L382.561 186.286L402.137 174.949L402.14 174.95L402.14 174.945L402.147 174.941L421.724 186.286L422.243 186.586L422.76 186.286L442.355 174.941L442.614 174.801V174.511V174.503V151.813V151.805V151.184L442.37 151.05L432.413 145.3L422.76 139.714L442.355 128.385L461.932 139.714L460.576 140.013H461.625H462.467H463.307H464H464.325L462.968 139.714L482.579 128.385L502.157 139.714L502.676 140.013L503.177 139.714L522.787 128.385L523.03 128.246V127.918V127.915V121.298V104.625L522.787 104.486L508.505 96.2185L503.177 93.1331L522.787 81.7889L542.366 93.1331L542.899 93.4343L543.402 93.1331L562.997 81.7889L582.59 93.1331L583.076 93.4343L583.626 93.1331L603.188 81.7889L622.798 93.1331L623.3 93.4343L623.835 93.1331L643.413 81.7889L663.023 93.1331L650.117 100.604L643.413 104.486L643.152 104.645V105.233V105.321V127.915V128.003V128.25L643.413 128.385L663.023 139.714L663.509 140.013L664.059 139.714L683.621 128.385L683.911 128.237V127.915V105.292V105.241V104.65L683.621 104.486L674.6 99.232L664.059 93.1331L683.621 81.7889L703.248 93.1331L703.733 93.4343L704.268 93.1331L723.844 81.7889L743.456 93.1331L723.844 104.486L723.601 104.63V105.241V105.299V127.915V127.974V128.246L723.844 128.385L743.456 139.714L743.942 140.013L744.492 139.714L764.055 128.385L764.329 128.21V127.915V105.339V105.241V104.647L764.055 104.486L755.017 99.232L744.492 93.1331L764.055 81.7889L783.664 93.1331L784.165 93.4343L784.684 93.1331L804.277 81.7889L804.28 81.7904V81.7928L804.287 81.7889L823.864 93.1331L824.383 93.4343L824.9 93.1331L844.495 81.7889L864.073 93.1331L856.51 97.5103L844.51 104.486L844.22 104.656V105.368V127.915V128.222L844.495 128.385L864.073 139.714L864.607 140.013L865.109 139.714L884.719 128.385L904.297 139.714L904.816 140.013L905.317 139.714L924.927 128.385L944.506 139.714L927.923 149.304L924.927 151.05L924.668 151.188V152.192V174.503V174.791L924.927 174.941L944.506 186.286L945.039 186.586L945.542 186.286L965.137 174.949L984.713 186.286L985.216 186.586L985.766 186.286L1005.33 174.941L1005.62 174.77V174.503V152.025V151.208L1005.36 151.05L985.766 139.714L1005.36 128.385L1024.94 139.714L1025.44 140.013L1025.97 139.714L1045.55 128.385L1065.16 139.714L1045.55 151.05L1045.29 151.193V151.966V174.503V174.812L1045.55 174.949L1065.16 186.286L1065.67 186.586L1066.2 186.286L1085.76 174.949L1086.05 174.773V174.503V152.065V151.198L1085.76 151.05L1066.2 139.714L1085.76 128.385L1105.39 139.714L1105.87 140.013L1106.41 139.714L1125.98 128.385L1145.6 139.714L1146.08 140.013L1146.63 139.714L1166.19 128.385L1185.8 139.714L1186.3 140.013L1186.82 139.714L1206.42 128.385L1206.42 128.386L1206.42 128.389L1206.43 128.385L1206.67 128.242V127.915V105.432V104.594L1206.43 104.486L1206.42 104.482L1206.42 104.484L1206.42 104.486L1197.38 99.232L1186.82 93.1331L1206.42 81.7889L1206.42 81.7904L1206.42 81.7928L1206.43 81.7889L1226 93.1331L1226.52 93.4343L1227.04 93.1331L1246.64 81.7889L1266.21 93.1331L1266.75 93.4343L1267.25 93.1331L1286.84 81.7889L1306.44 93.1331L1286.86 104.486L1286.58 104.655V105.241V105.289V127.5V128.253L1286.86 128.385L1306.44 139.714L1306.96 140.013L1307.46 139.714L1327.07 128.385L1346.65 139.714L1347.18 140.013L1347.68 139.714L1367.29 128.385L1386.87 139.714L1387.36 140.013L1387.91 139.714L1407.5 128.385L1427.08 139.714L1417.41 145.3L1407.5 151.05L1407.22 151.232V151.5V151.805V151.935V174.503V174.801L1407.47 174.941L1427.08 186.286L1427.58 186.518L1428.11 186.286L1447.69 174.949L1467.3 186.286L1447.69 197.622L1447.43 197.768V198.462V221.067V221.144V221.385L1447.69 221.53L1467.3 232.866L1467.81 233.167L1468.34 232.866L1487.9 221.53L1488.19 221.357V221.072V221.067V198.391V198.386V197.801L1487.9 197.622L1474.61 189.899L1468.34 186.286L1487.9 174.949L1507.51 186.286L1508.01 186.586L1508.55 186.286L1528.12 174.949L1528.4 174.788V174.561V174.503V151.863V151.211L1528.12 151.05L1508.55 139.714L1528.12 128.385L1547.74 139.714L1548.22 140.013L1548.77 139.714L1568.33 128.385L1587.94 139.714L1578.28 145.3L1568.33 151.05L1568.09 151.193V151.5V151.805V151.857V174.503V174.555V174.805L1568.33 174.949L1587.94 186.286L1588.44 186.586L1588.98 186.286L1608.56 174.949L1608.56 174.95V174.945L1608.57 174.941L1628.14 186.286L1628.66 186.586L1629.18 186.286L1648.78 174.941L1668.35 186.286L1668.89 186.586L1669.39 186.286L1688.98 174.949L1708.58 186.286L1689 197.622L1688.72 197.773V198V198.395V198.524V221.067V221.196V221.385L1688.98 221.53L1708.58 232.866L1709.11 233.167L1709.6 232.866L1729.21 221.506L1748.79 232.866L1732.2 242.456L1729.21 244.203L1728.95 244.355V244.958V244.986V267.623V267.651V268L1729.21 268.094L1748.79 279.415L1729.21 290.76L1709.61 279.415L1709.1 279.122L1708.58 279.415L1702.16 283.143L1689 290.76L1688.72 290.927V291.523V291.652V314.196V314.326V314.5L1689 314.65L1708.58 326.02L1709.11 326.312L1709.61 326.002L1729.21 314.65L1748.79 326.002L1732.43 335.473L1729.21 337.34L1728.95 337.5V338.087V338.173V360.809V360.894V361.084L1729.21 361.215L1748.79 372.583L1749.32 372.876L1749.82 372.583L1769.42 361.215L1789.01 372.583L1789.5 372.876L1790.05 372.583L1809.61 361.215L1829.22 372.583L1819.55 378.172L1809.64 383.904L1809.36 384.061V384.896V407.356V407.649L1809.64 407.811L1829.22 419.148L1819.55 424.736L1809.64 430.5L1809.36 430.668V431.249V431.344V453.937V454.032V454.258L1809.61 454.393L1829.22 465.712L1829.75 466L1830.25 465.712L1849.83 454.393L1869.44 465.712L1849.83 477.064L1849.57 477.219V477.869V500.501V500.543V500.83L1849.83 500.971L1869.44 512.276L1869.93 512.617L1870.48 512.276L1890.04 500.971L1909.67 512.276L1910.15 512.617L1910.69 512.276L1930.26 500.971L1930.5 501.107V476.927L1930.26 477.064L1910.69 465.712L1930.26 454.393L1930.5 454.529V430.363L1930.26 430.5L1916.95 422.786L1910.69 419.148L1930.26 407.811L1930.5 407.948V383.768L1930.26 383.904L1910.69 372.583L1930.26 361.215L1930.5 361.351V337.204L1930.26 337.34L1916.95 329.642L1910.69 326.002L1930.26 314.65L1930.5 314.786V290.623L1930.26 290.76L1910.69 279.415L1930.26 268.094L1930.5 268.23V244.066L1930.26 244.203L1910.69 232.866L1930.26 221.53L1930.5 221.666V197.486L1930.26 197.622L1916.95 189.899L1910.69 186.286L1930.26 174.949L1930.5 175.085V150.913L1930.26 151.05L1910.69 139.714L1930.26 128.385L1930.5 128.521V104.349L1930.26 104.486L1921.23 99.232L1910.69 93.1331L1930.26 81.7889L1930.5 81.9253V57.7681L1930.26 57.9048L1916.95 50.1916L1910.69 46.5606L1930.26 35.2315L1930.5 35.3679V11.2039L1930.26 11.3406L1921.23 6.08706L1910.69 0H1909.65L1899.98 5.58303L1890.04 11.3406L1881.02 6.08706L1870.48 0H1869.44L1862.28 4.12092L1849.83 11.3406L1847.1 9.74081L1830.26 0H1829.21L1819.55 5.58303L1809.64 11.3406L1800.57 6.08706L1790.05 0H1788.99L1781.85 4.12092L1769.42 11.3406L1766.66 9.74081L1749.83 0H1748.78L1744.24 2.61114L1729.21 11.3406L1714.92 3.06671L1709.62 0H1708.56L1696.38 7.05345L1689 11.3406L1682.38 7.4924L1669.39 0H1668.35L1665.45 1.66968L1648.78 11.3406L1638.83 5.58303L1629.18 0H1628.14L1618.48 5.58303L1608.57 11.3406L1608.56 11.3367V11.3391L1608.56 11.3406L1599.52 6.08706L1588.99 0H1587.94L1578.28 5.58303L1568.33 11.3406L1559.3 6.08706L1548.78 0H1547.71L1538.05 5.58303L1528.12 11.3406L1519.09 6.08706L1508.55 0H1507.51L1497.84 5.58303L1487.9 11.3406L1478.88 6.08706L1468.34 0H1467.3L1460.14 4.12092L1447.69 11.3406L1444.96 9.74081L1428.12 0H1427.07L1417.41 5.58303L1407.5 11.3406L1398.43 6.08706L1387.91 0H1386.85L1379.71 4.12092L1367.28 11.3406L1364.52 9.74081L1347.69 0H1346.64L1342.1 2.61114L1327.07 11.3406L1312.78 3.06671L1307.48 0H1306.42L1294.24 7.05345L1286.86 11.3406L1280.24 7.4924L1267.25 0H1266.21L1263.31 1.66968L1246.64 11.3406L1236.69 5.58303L1227.04 0H1226L1216.34 5.58303L1206.43 11.3406L1206.42 11.3367L1206.42 11.3391L1206.42 11.3406L1197.38 6.08706L1186.85 0H1185.8L1176.14 5.58303L1166.19 11.3406L1157.16 6.08706L1146.64 0H1145.57L1135.91 5.58303L1125.98 11.3406L1116.95 6.08706L1106.41 0H1105.37L1095.7 5.58303L1085.76 11.3406L1076.74 6.08706L1066.2 0H1065.16L1058 4.12092L1045.55 11.3406L1042.82 9.74081L1025.98 0H1024.93L1015.27 5.58303L1005.36 11.3406L996.293 6.08706L985.771 0H984.708L977.573 4.12092L965.137 11.3406L962.382 9.74081L945.546 0H944.501L939.956 2.61114L924.927 11.3406L910.645 3.06671L905.338 0H904.275L892.104 7.05345L884.719 11.3406L878.096 7.4924L865.113 0H864.068L861.174 1.66968L844.495 11.3406L834.553 5.58303L824.905 0H823.859L814.196 5.58303L804.287 11.3406L804.28 11.3367V11.3391L804.277 11.3406L795.242 6.08706L784.706 0H783.659L773.997 5.58303L764.055 11.3406L755.017 6.08706L744.497 0H743.434L733.772 5.58303L723.844 11.3406L714.809 6.08706L704.272 0H703.226L693.564 5.58303L683.621 11.3406L674.6 6.08706L664.064 0H663.018L655.864 4.12092L643.413 11.3406L640.675 9.74081L623.839 0H622.793L613.131 5.58303L603.219 11.3406L594.153 6.08706L583.631 0H582.568L575.433 4.12092L562.997 11.3406L560.242 9.74081L543.406 0H542.361L537.816 2.61114L522.787 11.3406L508.505 3.06671L503.198 0H502.135L489.964 7.05345L482.579 11.3406L475.956 7.4924L462.973 0H461.928L459.034 1.66968L442.355 11.3406L432.413 5.58303L422.765 0H421.719L412.056 5.58303L402.147 11.3406L402.14 11.3367L402.14 11.3391L402.137 11.3406L393.102 6.08706L382.565 0ZM402.14 35.2331L402.137 35.2315L382.561 46.5606L388.827 50.1916L402.137 57.9048L402.14 57.9033L402.14 57.9009L402.147 57.9048L412.056 52.1479L421.724 46.5606L402.147 35.2315L402.14 35.2355L402.14 35.2331ZM402.14 81.7904L402.137 81.7889L382.544 93.1331L393.102 99.232L402.137 104.486L402.14 104.484L402.14 104.482L402.147 104.486L421.724 93.1331L402.147 81.7889L402.14 81.7928L402.14 81.7904ZM402.14 128.386L402.137 128.385L382.544 139.714L402.137 151.05L402.14 151.048L402.14 151.046L402.147 151.05L412.056 145.3L421.724 139.714L402.147 128.385L402.14 128.389L402.14 128.386ZM382.025 0.304481L362.448 11.6335L382.025 22.977L401.62 11.6335L382.025 0.304481ZM341.802 0.304481L322.24 11.6335L341.802 22.977L361.412 11.6335L341.802 0.304481ZM301.593 0.304481L282.032 11.6335L301.593 22.977L321.203 11.6335L301.593 0.304481ZM261.385 0.304481L241.807 11.6335L261.369 22.977L280.979 11.6335L261.385 0.304481ZM221.16 0.304481L201.599 11.6335L221.16 22.977L240.754 11.6335L226.017 3.11517L221.16 0.304481ZM180.936 0.304481L161.373 11.6335L180.936 22.977L200.545 11.6335L180.936 0.304481ZM140.759 0.304481L121.149 11.6335L140.759 22.977L160.337 11.6335L145.601 3.11517L140.759 0.304481ZM100.536 0.304481L80.9409 11.6335L100.536 22.977L120.112 11.6335L100.536 0.304481ZM60.3274 0.304481L40.716 11.6335L60.3274 22.977L79.8883 11.6335L60.3274 0.304481ZM20.1026 0.304481L0.507822 11.6335L20.1026 22.977L39.6959 11.6335L20.1026 0.304481ZM401.895 12.0868L382.3 23.4166V46.1133L401.895 34.7775V12.0868ZM362.189 12.0868V34.7775L381.783 46.1133V23.4166L362.189 12.0868ZM361.67 12.0868L342.092 23.4166V46.1133L361.67 34.7775V12.0868ZM321.98 12.0868V34.7775L341.558 46.1133V23.4166L321.98 12.0868ZM321.461 12.0868L301.884 23.4166V46.1133L321.461 34.7775V12.0868ZM281.771 12.0868V34.7775L301.35 46.1133V23.4166L281.771 12.0868ZM281.238 12.0868L261.661 23.4166V46.1133L281.238 34.7775V12.0868ZM241.563 12.0868V34.7775L261.125 46.1133V23.4166L241.563 12.0868ZM241.012 12.0868L221.436 23.4166V46.1133L241.012 34.7775V12.0868ZM201.34 12.0868V34.7775L220.917 46.1133V23.4166L201.34 12.0868ZM200.804 12.0868L181.228 23.4166V46.1133L200.804 34.7775V12.0868ZM161.115 12.0868V34.7775L180.693 46.1133V23.4166L161.115 12.0868ZM160.581 12.0868L141.019 23.4166V46.1133L160.581 34.7775V12.0868ZM120.907 12.0868L120.89 34.7775L140.484 46.1133V23.4166L120.907 12.0868ZM120.388 12.0868L100.794 23.4166V46.1133L120.388 34.7775V12.0868ZM80.6987 12.0868V34.7775L100.275 46.1133V23.4166L80.6987 12.0868ZM80.1629 12.0868L60.5697 23.4166V46.1133L80.1629 34.7775V12.0868ZM40.4738 12.0868V34.7775L60.0528 46.1133V23.4166L40.4738 12.0868ZM39.9396 12.0868L20.3614 23.4166V46.1133L39.9396 34.7775V12.0868ZM0.249013 12.0868V34.7775L19.8423 46.1133V23.4166L0.249013 12.0868ZM342.352 46.5606L348.618 50.1916L361.915 57.9048L371.857 52.1479L381.524 46.5689L361.915 35.2315L342.352 46.5606ZM302.128 46.5606L308.394 50.1916L321.704 57.9048L331.632 52.1479L341.299 46.5689L321.704 35.2315L302.128 46.5606ZM261.919 46.5606L268.186 50.1916L281.481 57.9048L291.424 52.1479L301.091 46.5689L281.481 35.2315L261.919 46.5606ZM221.695 46.5606L224.154 48.0061L241.273 57.9048L260.883 46.5689L241.273 35.2315L221.695 46.5606ZM181.486 46.5606L187.769 50.1916L201.079 57.9048L210.991 52.1479L220.658 46.5689L201.048 35.2315L181.486 46.5606ZM141.262 46.5606L143.723 48.0061L160.871 57.9048L180.433 46.5689L160.857 35.2315L141.262 46.5606ZM101.053 46.5606L115.06 54.6824L120.647 57.9048L123.87 56.0378L140.226 46.5606L120.647 35.2315L101.053 46.5606ZM80.4233 35.2315L60.8285 46.5689L80.4391 57.9048L100.017 46.5689L80.4233 35.2315ZM20.6202 46.5606L30.2731 52.1479L40.2301 57.9048L59.7925 46.5606L40.215 35.2315L20.6202 46.5606ZM382.025 46.8686L362.448 58.206L382.025 69.5418L401.636 58.206L382.025 46.8686ZM341.802 46.8686L322.24 58.206L341.802 69.5418L361.428 58.206L341.802 46.8686ZM301.593 46.8686L282.032 58.206L301.593 69.5418L321.203 58.206L301.593 46.8686ZM261.385 46.8686L241.807 58.206L261.369 69.5418L280.979 58.206L261.385 46.8686ZM221.16 46.8686L201.581 58.206L221.16 69.5418L240.754 58.206L226.017 49.6876L221.16 46.8686ZM180.936 46.8686L161.357 58.206L180.936 69.5418L200.563 58.206L180.936 46.8686ZM140.759 46.8686L121.149 58.206L140.759 69.5418L160.337 58.206L145.601 49.6876L140.759 46.8686ZM100.536 46.8686L80.9409 58.206L100.536 69.5418L120.129 58.206L100.536 46.8686ZM60.3274 46.8686L40.716 58.206L60.3274 69.5418L79.9207 58.206L60.3274 46.8686ZM20.1026 46.8686L0.507822 58.206L20.1026 69.5418L39.6959 58.206L20.1026 46.8686ZM401.895 58.6601L382.3 70.0058V92.6775L401.895 81.3499V58.6601ZM362.189 58.6601V81.3499L381.783 92.6775V70.0058L362.189 58.6601ZM361.67 58.6601L342.092 70.0058V92.6775L361.67 81.3499V58.6601ZM321.98 58.6601V81.3499L341.558 92.6775V70.0058L321.98 58.6601ZM321.461 58.6601L301.884 70.0058V92.6775L321.461 81.3499V58.6601ZM281.771 58.6601V81.3499L301.35 92.6775V70.0058L281.771 58.6601ZM281.238 58.6601L261.661 70.0058V92.6775L281.238 81.3499V58.6601ZM241.012 58.6601L221.436 70.0058V92.6775L241.012 81.3499V58.6601ZM201.34 58.6601V81.3499L220.917 92.6775V70.0058L201.34 58.6601ZM200.804 58.6601L181.228 70.0058V92.6775L200.804 81.3499V58.6601ZM160.581 58.6601L141.019 70.0058V92.6775L160.581 81.3499V58.6601ZM120.907 58.6601L120.89 81.3499L140.484 92.6775V70.0058L120.907 58.6601ZM120.388 58.6601L100.794 70.0058V92.6775L120.388 81.3499V58.6601ZM80.6987 58.6601V81.3499L100.275 92.6775V70.0058L80.6987 58.6601ZM39.9396 58.6601L20.3614 70.0058V92.6775L39.9396 81.3499V58.6601ZM0.249013 58.6601V81.3499L19.8423 92.6775V70.0058L0.249013 58.6601ZM241.563 58.6767V81.3499L261.125 92.6775V70.0058L241.563 58.6767ZM161.115 58.6767V81.3499L180.693 92.6775V70.0058L161.115 58.6767ZM80.1629 58.6767L60.5697 70.0058V92.6775L80.1629 81.3499V58.6767ZM40.4738 58.6767V81.3499L60.0528 92.6775V70.0058L40.4738 58.6767ZM342.352 93.1331L352.877 99.232L361.915 104.486L381.524 93.1331L361.915 81.7889L342.352 93.1331ZM302.128 93.1331L312.669 99.232L321.704 104.486L341.316 93.1331L321.704 81.7889L302.128 93.1331ZM261.919 93.1331L272.46 99.232L281.481 104.486L301.108 93.1331L281.481 81.7889L261.919 93.1331ZM221.695 93.1331L238.535 102.894L241.273 104.486L247.977 100.604L260.883 93.1331L241.273 81.7889L221.695 93.1331ZM181.486 93.1331L192.013 99.232L201.079 104.486L220.658 93.1331L201.048 81.7889L181.486 93.1331ZM141.262 93.1331L158.102 102.894L160.857 104.486L167.56 100.604L180.45 93.1331L160.857 81.7889L141.262 93.1331ZM101.037 93.1331L106.365 96.2185L120.647 104.486L140.226 93.1331L120.647 81.7889L101.037 93.1331ZM60.8285 93.1331L73.8157 100.644L80.4391 104.486L100.017 93.1331L80.4233 81.7889L60.8285 93.1331ZM40.215 81.7889L20.6202 93.1331L40.2301 104.486L52.2304 97.5103L59.7925 93.1331L40.215 81.7889ZM382.025 93.4343L362.448 104.795L382.025 116.131L401.636 104.795L384.827 95.0575L382.025 93.4343ZM341.802 93.4343L322.24 104.795L341.802 116.131L361.428 104.795L344.618 95.0575L341.802 93.4343ZM301.593 93.4343L282.032 104.795L301.593 116.131L321.203 104.795L304.394 95.0575L301.593 93.4343ZM261.385 93.4343L241.807 104.795L261.385 116.131L280.979 104.795L264.169 95.0575L261.385 93.4343ZM221.16 93.4343L201.581 104.795L221.16 116.131L240.754 104.795L222.909 94.4491L221.16 93.4343ZM180.936 93.4343L161.357 104.795L180.936 116.131L200.563 104.795L183.753 95.0575L180.936 93.4343ZM140.759 93.4343L121.149 104.795L140.759 116.123L160.337 104.795L142.46 94.4491L140.759 93.4343ZM100.551 93.4343L80.9409 104.795L100.551 116.131L120.129 104.795L109.555 98.6803L100.551 93.4343ZM48.2789 100.41L40.716 104.795L60.3274 116.123L79.9207 104.795L66.9176 97.2742L60.3274 93.4343L48.2789 100.41ZM20.1026 93.4343L0.507822 104.795L20.1026 116.131L39.6959 104.795L20.1026 93.4343ZM241.012 105.233L221.436 116.57V139.25L241.012 127.915V105.233ZM160.581 105.233L141.019 116.57V139.25L160.581 127.915V105.233ZM401.895 105.241L382.3 116.57V139.25L401.895 127.915V105.241ZM362.189 105.241V127.915L381.783 139.25V116.57L362.189 105.241ZM361.67 105.241L342.092 116.57V139.25L361.67 127.915V105.241ZM321.98 105.241V127.915L341.558 139.25V116.57L321.98 105.241ZM321.461 105.241L301.884 116.57V139.25L321.461 127.915V105.241ZM281.771 105.241V127.915L301.35 139.25V116.57L281.771 105.241ZM281.238 105.241L261.661 116.57V139.25L281.238 127.915V105.241ZM241.563 105.241V127.915L261.125 139.25V116.57L241.563 105.241ZM201.34 105.241V127.915L220.917 139.25V116.57L201.34 105.241ZM200.804 105.241L181.228 116.57V139.25L200.804 127.915V105.241ZM161.115 105.241V127.915L180.693 139.25V116.57L161.115 105.241ZM120.907 105.241L120.89 127.915L140.484 139.25V116.57L120.907 105.241ZM120.388 105.241L100.794 116.57V139.25L120.388 127.915V105.241ZM80.6987 105.241V127.915L100.275 139.25V116.57L80.6987 105.241ZM80.1629 105.241L60.5697 116.57V139.25L80.1629 127.915V105.241ZM40.4738 105.241V127.915L60.0528 139.25V116.57L40.4738 105.241ZM39.9396 105.241L20.3614 116.57V139.25L39.9396 127.915V105.241ZM0.249013 105.241V127.915L19.8423 139.25V116.57L0.249013 105.241ZM241.273 128.385L221.695 139.714L241.273 151.05L260.883 139.714L241.273 128.385ZM201.079 128.385L181.486 139.714L201.079 151.05L210.991 145.3L220.658 139.714L201.079 128.385ZM160.871 128.385L141.262 139.714L160.857 151.05L180.45 139.714L160.871 128.385ZM120.647 128.385L101.037 139.714L120.647 151.05L123.643 149.304L140.226 139.714L120.647 128.385ZM60.8285 139.714L68.1 143.928L80.4391 151.05L100.017 139.714L80.4391 128.385L60.8285 139.714ZM20.6202 139.714L30.2731 145.3L40.2301 151.05L59.7925 139.714L40.215 128.385L20.6202 139.714ZM372.115 145.763L362.448 151.358L382.025 162.687L401.62 151.358L399.288 149.986L382.025 140.013L372.115 145.763ZM258.291 141.817L241.807 151.358L261.369 162.687L280.979 151.358L278.631 149.986L261.369 140.013L258.291 141.817ZM211.249 145.763L201.599 151.358L221.16 162.687L240.754 151.358L221.16 140.013L211.249 145.763ZM177.843 141.817L161.373 151.358L180.936 162.687L200.545 151.358L198.198 149.986L180.936 140.013L177.843 141.817ZM130.816 145.763L121.149 151.358L140.759 162.687L160.337 151.358L140.759 140.013L130.816 145.763ZM83.904 149.644L80.9409 151.358L100.536 162.687L120.112 151.358L114.056 147.833L100.536 140.013L83.904 149.644ZM60.3274 140.013L40.716 151.358L60.3274 162.687L79.8883 151.358L71.1605 146.3L60.3274 140.013ZM3.47092 149.644L0.507822 151.358L20.1026 162.687L39.6959 151.358L30.0287 145.763L20.1026 140.013L3.47092 149.644ZM241.012 151.797L221.436 163.158V185.831L241.012 174.503V151.797ZM160.581 151.797L141.019 163.158V185.831L160.581 174.503V151.797ZM401.895 151.805L382.3 163.158V185.831L401.895 174.503V151.805ZM362.189 151.805V174.503L381.783 185.831V163.158L362.189 151.805ZM281.238 151.805L261.661 163.158V185.831L281.238 174.503V151.805ZM241.563 151.805V174.503L261.125 185.831V163.158L241.563 151.805ZM201.34 151.805V174.503L220.917 185.831V163.158L201.34 151.805ZM200.804 151.805L181.228 163.158V185.831L200.804 174.503V151.805ZM161.115 151.805V174.503L180.693 185.831V163.158L161.115 151.805ZM120.907 151.805L120.89 174.503L140.484 185.831V163.158L120.907 151.805ZM120.388 151.805L100.794 163.158V185.831L120.388 174.503V151.805ZM80.6987 151.805V174.503L100.275 185.839V163.158L80.6987 151.805ZM80.1629 151.805L60.5697 163.158V185.839L80.1629 174.503V151.805ZM40.4738 151.805V174.503L60.0528 185.831V163.158L40.4738 151.805ZM39.9396 151.805L20.3614 163.158V185.831L39.9396 174.503V151.805ZM0.249013 151.805V174.503L19.8423 185.831V163.158L0.249013 151.805ZM101.053 186.286L115.06 194.399L120.647 197.622L123.87 195.764L140.226 186.286L120.647 174.941L101.053 186.286ZM20.6202 186.286L30.2731 191.89L40.2301 197.622L59.7925 186.286L40.215 174.941L20.6202 186.286ZM141.262 186.286L143.723 187.716L160.871 197.622L180.433 186.286L160.857 174.949L141.262 186.286ZM80.4233 174.949L60.8285 186.286L80.4391 197.622L100.017 186.286L80.4233 174.949ZM178.085 188.268L161.357 197.923L180.936 209.268L200.563 197.923L180.936 186.586L178.085 188.268ZM130.816 192.335L121.149 197.923L140.759 209.268L160.337 197.923L145.601 189.405L140.759 186.586L130.816 192.335ZM83.7101 196.34L80.9409 197.923L100.551 209.268L120.129 197.923L100.551 186.586L83.7101 196.34ZM60.3274 186.586L40.716 197.923L60.3274 209.268L79.9207 197.923L60.3274 186.586ZM3.277 196.34L0.507822 197.923L20.1026 209.268L39.6959 197.923L30.0287 192.335L20.1026 186.586L3.277 196.34ZM200.804 198.386L181.228 209.722V232.403L200.804 221.067V198.386ZM160.581 198.386L141.019 209.722V232.403L160.581 221.067V198.386ZM120.907 198.386L120.89 221.067L140.484 232.403V209.722L120.907 198.386ZM120.388 198.386L100.794 209.722V232.403L120.388 221.067V198.386ZM80.6987 198.386V221.067L100.275 232.403V209.722L80.6987 198.386ZM39.9396 198.386L20.3614 209.722V232.403L39.9396 221.067V198.386ZM0.249013 198.386V221.067L19.8423 232.403V209.722L0.249013 198.386ZM161.115 198.395V221.067L180.693 232.403V209.722L161.115 198.395ZM80.1629 198.395L60.5697 209.722V232.403L80.1629 221.067V198.395ZM40.4738 198.395V221.067L60.0528 232.403V209.722L40.4738 198.395ZM120.647 221.506L101.037 232.866L120.647 244.203L123.643 242.456L140.226 232.866L120.647 221.506ZM20.6202 232.866L30.2731 238.454L40.2301 244.203L59.7925 232.866L40.215 221.506L20.6202 232.866ZM160.857 221.53L141.262 232.866L160.857 244.203L180.45 232.866L160.857 221.53ZM60.8285 232.866L68.1 237.065L80.4391 244.203L100.017 232.866L80.4233 221.53L60.8285 232.866ZM177.843 234.953L161.373 244.496L180.936 255.841L200.545 244.496L180.936 233.167L177.843 234.953ZM130.816 238.908L121.149 244.496L140.759 255.841L160.337 244.488L145.537 235.944L140.759 233.167L130.816 238.908ZM83.904 242.806L80.9409 244.488L100.551 255.841L120.112 244.496L100.551 233.167L83.904 242.806ZM60.3274 233.167L40.716 244.496L60.3274 255.841L79.8883 244.496L60.3274 233.167ZM3.47092 242.806L0.507822 244.496L20.1026 255.841L39.6959 244.496L30.0287 238.908L20.1026 233.167L3.47092 242.806ZM200.804 244.958L181.228 256.294V278.985L200.804 267.623V244.958ZM161.115 244.958V267.623L180.693 278.985V256.294L161.115 244.958ZM160.581 244.958L141.019 256.294V278.985L160.581 267.623V244.958ZM120.907 244.958L120.89 267.623L140.484 278.985V256.294L120.907 244.958ZM120.388 244.958L100.794 256.294V278.985L120.388 267.623V244.958ZM80.6987 244.958V267.623L100.275 278.985V256.294L80.6987 244.958ZM80.1629 244.958L60.5697 256.294V278.985L80.1629 267.623V244.958ZM40.4738 244.958V267.623L60.0528 278.985V256.294L40.4738 244.958ZM39.9396 244.958L20.3614 256.294V278.985L39.9396 267.623V244.958ZM0.249013 244.958V267.623L19.8423 278.985V256.294L0.249013 244.958ZM140.759 279.739L121.149 291.101L140.759 302.404L160.337 291.101L145.601 282.565L140.759 279.739ZM20.1026 279.739L0.507822 291.101L20.1026 302.404L39.6959 291.101L20.1026 279.739ZM160.581 291.523L141.019 302.876V325.566L160.581 314.196V291.523ZM120.907 291.523L120.89 314.196L140.484 325.566V302.876L120.907 291.523ZM39.9396 291.523L20.3614 302.876V325.566L39.9396 314.196V291.523ZM0.249013 291.523V314.196L19.8423 325.566V302.876L0.249013 291.523ZM1206.42 57.9009L1206.42 57.9033L1206.42 57.9048L1193.11 50.1916L1186.84 46.5606L1206.42 35.2315L1206.42 35.2331L1206.42 35.2355L1206.43 35.2315L1226 46.5606L1216.34 52.1479L1206.43 57.9048L1206.42 57.9009ZM804.28 35.2331L804.277 35.2315L784.701 46.5606L790.967 50.1916L804.277 57.9048L804.28 57.9033V57.9009L804.287 57.9048L814.196 52.1479L823.864 46.5606L804.287 35.2315L804.28 35.2355V35.2331ZM784.165 0.304481L764.588 11.6335L784.165 22.977L803.76 11.6335L784.165 0.304481ZM743.942 0.304481L724.38 11.6335L743.942 22.977L763.552 11.6335L743.942 0.304481ZM703.733 0.304481L684.172 11.6335L703.733 22.977L723.343 11.6335L703.733 0.304481ZM663.525 0.304481L643.947 11.6335L663.509 22.977L683.119 11.6335L663.525 0.304481ZM623.3 0.304481L603.739 11.6335L623.3 22.977L642.894 11.6335L628.157 3.11517L623.3 0.304481ZM583.076 0.304481L563.513 11.6335L583.076 22.977L602.685 11.6335L583.076 0.304481ZM542.899 0.304481L523.289 11.6335L542.899 22.977L562.477 11.6335L547.741 3.11517L542.899 0.304481ZM502.676 0.304481L483.081 11.6335L502.676 22.977L522.252 11.6335L502.676 0.304481ZM462.467 0.304481L442.856 11.6335L462.467 22.977L482.028 11.6335L462.467 0.304481ZM422.243 0.304481L402.648 11.6335L422.243 22.977L441.836 11.6335L422.243 0.304481ZM804.035 12.0868L784.44 23.4166V46.1133L804.035 34.7775V12.0868ZM764.329 12.0868V34.7775L783.923 46.1133V23.4166L764.329 12.0868ZM763.81 12.0868L744.232 23.4166V46.1133L763.81 34.7775V12.0868ZM724.12 12.0868V34.7775L743.698 46.1133V23.4166L724.12 12.0868ZM723.601 12.0868L704.024 23.4166V46.1133L723.601 34.7775V12.0868ZM683.911 12.0868V34.7775L703.49 46.1133V23.4166L683.911 12.0868ZM683.378 12.0868L663.801 23.4166V46.1133L683.378 34.7775V12.0868ZM643.703 12.0868V34.7775L663.265 46.1133V23.4166L643.703 12.0868ZM643.152 12.0868L623.576 23.4166V46.1133L643.152 34.7775V12.0868ZM603.48 12.0868V34.7775L623.057 46.1133V23.4166L603.48 12.0868ZM602.944 12.0868L583.368 23.4166V46.1133L602.944 34.7775V12.0868ZM563.255 12.0868V34.7775L582.833 46.1133V23.4166L563.255 12.0868ZM562.721 12.0868L543.159 23.4166V46.1133L562.721 34.7775V12.0868ZM523.047 12.0868L523.03 34.7775L542.624 46.1133V23.4166L523.047 12.0868ZM522.528 12.0868L502.935 23.4166V46.1133L522.528 34.7775V12.0868ZM482.839 12.0868V34.7775L502.415 46.1133V23.4166L482.839 12.0868ZM482.303 12.0868L462.71 23.4166V46.1133L482.303 34.7775V12.0868ZM442.614 12.0868V34.7775L462.193 46.1133V23.4166L442.614 12.0868ZM442.08 12.0868L422.501 23.4166V46.1133L442.08 34.7775V12.0868ZM402.389 12.0868V34.7775L421.982 46.1133V23.4166L402.389 12.0868ZM744.492 46.5606L750.758 50.1916L764.055 57.9048L773.997 52.1479L783.664 46.5689L764.055 35.2315L744.492 46.5606ZM704.268 46.5606L710.534 50.1916L723.844 57.9048L733.772 52.1479L743.439 46.5689L723.844 35.2315L704.268 46.5606ZM664.059 46.5606L670.326 50.1916L683.621 57.9048L693.564 52.1479L703.231 46.5689L683.621 35.2315L664.059 46.5606ZM623.835 46.5606L626.294 48.0061L643.413 57.9048L663.023 46.5689L643.413 35.2315L623.835 46.5606ZM583.626 46.5606L589.909 50.1916L603.219 57.9048L613.131 52.1479L622.798 46.5689L603.188 35.2315L583.626 46.5606ZM543.402 46.5606L545.863 48.0061L563.011 57.9048L582.573 46.5689L562.997 35.2315L543.402 46.5606ZM503.193 46.5606L517.2 54.6824L522.787 57.9048L526.01 56.0378L542.366 46.5606L522.787 35.2315L503.193 46.5606ZM482.563 35.2315L462.968 46.5689L482.579 57.9048L502.157 46.5689L482.563 35.2315ZM422.76 46.5606L432.413 52.1479L442.37 57.9048L461.932 46.5606L442.355 35.2315L422.76 46.5606ZM784.165 46.8686L764.588 58.206L784.165 69.5418L803.776 58.206L784.165 46.8686ZM743.942 46.8686L724.38 58.206L743.942 69.5418L763.568 58.206L743.942 46.8686ZM703.733 46.8686L684.172 58.206L703.733 69.5418L723.343 58.206L703.733 46.8686ZM663.525 46.8686L643.947 58.206L663.509 69.5418L683.119 58.206L663.525 46.8686ZM623.3 46.8686L603.721 58.206L623.3 69.5418L642.894 58.206L628.157 49.6876L623.3 46.8686ZM583.076 46.8686L563.497 58.206L583.076 69.5418L602.703 58.206L583.076 46.8686ZM542.899 46.8686L523.289 58.206L542.899 69.5418L562.477 58.206L547.741 49.6876L542.899 46.8686ZM502.676 46.8686L483.081 58.206L502.676 69.5418L522.269 58.206L502.676 46.8686ZM462.467 46.8686L442.856 58.206L462.467 69.5418L482.061 58.206L462.467 46.8686ZM422.243 46.8686L402.648 58.206L422.243 69.5418L441.836 58.206L422.243 46.8686ZM804.035 58.6601L784.44 70.0058V92.6775L804.035 81.3499V58.6601ZM764.329 58.6601V81.3499L783.923 92.6775V70.0058L764.329 58.6601ZM763.81 58.6601L744.232 70.0058V92.6775L763.81 81.3499V58.6601ZM724.12 58.6601V81.3499L743.698 92.6775V70.0058L724.12 58.6601ZM723.601 58.6601L704.024 70.0058V92.6775L723.601 81.3499V58.6601ZM683.911 58.6601V81.3499L703.49 92.6775V70.0058L683.911 58.6601ZM683.378 58.6601L663.801 70.0058V92.6775L683.378 81.3499V58.6601ZM643.152 58.6601L623.576 70.0058V92.6775L643.152 81.3499V58.6601ZM603.48 58.6601V81.3499L623.057 92.6775V70.0058L603.48 58.6601ZM602.944 58.6601L583.368 70.0058V92.6775L602.944 81.3499V58.6601ZM562.721 58.6601L543.159 70.0058V92.6775L562.721 81.3499V58.6601ZM523.047 58.6601L523.03 81.3499L542.624 92.6775V70.0058L523.047 58.6601ZM522.528 58.6601L502.935 70.0058V92.6775L522.528 81.3499V58.6601ZM482.839 58.6601V81.3499L502.415 92.6775V70.0058L482.839 58.6601ZM442.08 58.6601L422.501 70.0058V92.6775L442.08 81.3499V58.6601ZM402.389 58.6601V81.3499L421.982 92.6775V70.0058L402.389 58.6601ZM643.703 58.6767V81.3499L663.265 92.6775V70.0058L643.703 58.6767ZM563.255 58.6767V81.3499L582.833 92.6775V70.0058L563.255 58.6767ZM482.303 58.6767L462.71 70.0058V92.6775L482.303 81.3499V58.6767ZM442.614 58.6767V81.3499L462.193 92.6775V70.0058L442.614 58.6767ZM462.968 93.1331L475.956 100.644L482.579 104.486L502.157 93.1331L482.563 81.7889L462.968 93.1331ZM442.355 81.7889L422.76 93.1331L442.37 104.486L454.37 97.5103L461.932 93.1331L442.355 81.7889ZM743.942 93.4343L724.38 104.795L743.942 116.131L763.568 104.795L746.758 95.0575L743.942 93.4343ZM663.525 93.4343L643.947 104.795L663.525 116.131L683.119 104.795L666.309 95.0575L663.525 93.4343ZM502.691 93.4343L483.081 104.795L502.691 116.131L522.269 104.795L511.695 98.6803L502.691 93.4343ZM450.419 100.41L442.856 104.795L462.467 116.123L482.061 104.795L469.058 97.2742L462.467 93.4343L450.419 100.41ZM422.243 93.4343L402.648 104.795L422.243 116.131L441.836 104.795L422.243 93.4343ZM763.81 105.241L744.232 116.57V139.25L763.81 127.915V105.241ZM724.12 105.241V127.915L743.698 139.25V116.57L724.12 105.241ZM683.378 105.241L663.801 116.57V139.25L683.378 127.915V105.241ZM643.703 105.241V127.915L663.265 139.25V116.57L643.703 105.241ZM522.528 105.241L502.935 116.57V139.25L522.528 127.915V105.241ZM482.839 105.241V127.915L502.415 139.25V116.57L482.839 105.241ZM482.303 105.241L462.71 116.57V139.25L482.303 127.915V105.241ZM442.614 105.241V127.915L462.193 139.25V116.57L442.614 105.241ZM442.08 105.241L422.501 116.57V139.25L442.08 127.915V105.241ZM402.389 105.241V127.915L421.982 139.25V116.57L402.389 105.241ZM405.611 149.644L402.648 151.358L422.243 162.687L441.836 151.358L432.169 145.763L422.243 140.013L405.611 149.644ZM442.08 151.805L422.501 163.158V185.831L442.08 174.503V151.805ZM402.389 151.805V174.503L421.982 185.831V163.158L402.389 151.805ZM1186.3 0.304481L1166.73 11.6335L1186.3 22.977L1205.9 11.6335L1186.3 0.304481ZM1146.08 0.304481L1126.52 11.6335L1146.08 22.977L1165.69 11.6335L1146.08 0.304481ZM1105.87 0.304481L1086.31 11.6335L1105.87 22.977L1125.48 11.6335L1105.87 0.304481ZM1065.67 0.304481L1046.09 11.6335L1065.65 22.977L1085.26 11.6335L1065.67 0.304481ZM1025.44 0.304481L1005.88 11.6335L1025.44 22.977L1045.03 11.6335L1030.3 3.11517L1025.44 0.304481ZM985.216 0.304481L965.653 11.6335L985.216 22.977L1004.83 11.6335L985.216 0.304481ZM945.039 0.304481L925.429 11.6335L945.039 22.977L964.617 11.6335L949.881 3.11517L945.039 0.304481ZM904.816 0.304481L885.221 11.6335L904.816 22.977L924.392 11.6335L904.816 0.304481ZM864.607 0.304481L844.996 11.6335L864.607 22.977L884.168 11.6335L864.607 0.304481ZM824.383 0.304481L804.788 11.6335L824.383 22.977L843.976 11.6335L824.383 0.304481ZM1206.18 12.0868L1186.58 23.4166V46.1133L1206.18 34.7775V12.0868ZM1166.47 12.0868V34.7775L1186.06 46.1133V23.4166L1166.47 12.0868ZM1165.95 12.0868L1146.37 23.4166V46.1133L1165.95 34.7775V12.0868ZM1126.26 12.0868V34.7775L1145.84 46.1133V23.4166L1126.26 12.0868ZM1125.74 12.0868L1106.16 23.4166V46.1133L1125.74 34.7775V12.0868ZM1086.05 12.0868V34.7775L1105.63 46.1133V23.4166L1086.05 12.0868ZM1085.52 12.0868L1065.94 23.4166V46.1133L1085.52 34.7775V12.0868ZM1045.84 12.0868V34.7775L1065.4 46.1133V23.4166L1045.84 12.0868ZM1045.29 12.0868L1025.72 23.4166V46.1133L1045.29 34.7775V12.0868ZM1005.62 12.0868V34.7775L1025.2 46.1133V23.4166L1005.62 12.0868ZM1005.08 12.0868L985.508 23.4166V46.1133L1005.08 34.7775V12.0868ZM965.395 12.0868V34.7775L984.973 46.1133V23.4166L965.395 12.0868ZM964.861 12.0868L945.299 23.4166V46.1133L964.861 34.7775V12.0868ZM925.187 12.0868L925.17 34.7775L944.764 46.1133V23.4166L925.187 12.0868ZM924.668 12.0868L905.075 23.4166V46.1133L924.668 34.7775V12.0868ZM884.979 12.0868V34.7775L904.555 46.1133V23.4166L884.979 12.0868ZM884.443 12.0868L864.85 23.4166V46.1133L884.443 34.7775V12.0868ZM844.754 12.0868V34.7775L864.333 46.1133V23.4166L844.754 12.0868ZM844.22 12.0868L824.641 23.4166V46.1133L844.22 34.7775V12.0868ZM804.529 12.0868V34.7775L824.122 46.1133V23.4166L804.529 12.0868ZM1146.63 46.5606L1152.9 50.1916L1166.19 57.9048L1176.14 52.1479L1185.8 46.5689L1166.19 35.2315L1146.63 46.5606ZM1106.41 46.5606L1112.67 50.1916L1125.98 57.9048L1135.91 52.1479L1145.58 46.5689L1125.98 35.2315L1106.41 46.5606ZM1066.2 46.5606L1072.47 50.1916L1085.76 57.9048L1095.7 52.1479L1105.37 46.5689L1085.76 35.2315L1066.2 46.5606ZM1025.97 46.5606L1028.43 48.0061L1045.55 57.9048L1065.16 46.5689L1045.55 35.2315L1025.97 46.5606ZM985.766 46.5606L992.049 50.1916L1005.36 57.9048L1015.27 52.1479L1024.94 46.5689L1005.33 35.2315L985.766 46.5606ZM945.542 46.5606L948.003 48.0061L965.151 57.9048L984.713 46.5689L965.137 35.2315L945.542 46.5606ZM905.333 46.5606L919.34 54.6824L924.927 57.9048L928.15 56.0378L944.506 46.5606L924.927 35.2315L905.333 46.5606ZM884.703 35.2315L865.109 46.5689L884.719 57.9048L904.297 46.5689L884.703 35.2315ZM824.9 46.5606L834.553 52.1479L844.51 57.9048L864.073 46.5606L844.495 35.2315L824.9 46.5606ZM1186.3 46.8686L1166.73 58.206L1186.3 69.5418L1205.92 58.206L1186.3 46.8686ZM1146.08 46.8686L1126.52 58.206L1146.08 69.5418L1165.71 58.206L1146.08 46.8686ZM1105.87 46.8686L1086.31 58.206L1105.87 69.5418L1125.48 58.206L1105.87 46.8686ZM1065.67 46.8686L1046.09 58.206L1065.65 69.5418L1085.26 58.206L1065.67 46.8686ZM1025.44 46.8686L1005.86 58.206L1025.44 69.5418L1045.03 58.206L1030.3 49.6876L1025.44 46.8686ZM985.216 46.8686L965.637 58.206L985.216 69.5418L1004.84 58.206L985.216 46.8686ZM945.039 46.8686L925.429 58.206L945.039 69.5418L964.617 58.206L949.881 49.6876L945.039 46.8686ZM904.816 46.8686L885.221 58.206L904.816 69.5418L924.409 58.206L904.816 46.8686ZM864.607 46.8686L844.996 58.206L864.607 69.5418L884.201 58.206L864.607 46.8686ZM824.383 46.8686L804.788 58.206L824.383 69.5418L843.976 58.206L824.383 46.8686ZM1206.18 58.6601L1186.58 70.0058V92.6775L1206.18 81.3499V58.6601ZM1166.47 58.6601V81.3499L1186.06 92.6775V70.0058L1166.47 58.6601ZM1165.95 58.6601L1146.37 70.0058V92.6775L1165.95 81.3499V58.6601ZM1126.26 58.6601V81.3499L1145.84 92.6775V70.0058L1126.26 58.6601ZM1125.74 58.6601L1106.16 70.0058V92.6775L1125.74 81.3499V58.6601ZM1086.05 58.6601V81.3499L1105.63 92.6775V70.0058L1086.05 58.6601ZM1085.52 58.6601L1065.94 70.0058V92.6775L1085.52 81.3499V58.6601ZM1045.29 58.6601L1025.72 70.0058V92.6775L1045.29 81.3499V58.6601ZM1005.62 58.6601V81.3499L1025.2 92.6775V70.0058L1005.62 58.6601ZM1005.08 58.6601L985.508 70.0058V92.6775L1005.08 81.3499V58.6601ZM964.861 58.6601L945.299 70.0058V92.6775L964.861 81.3499V58.6601ZM925.187 58.6601L925.17 81.3499L944.764 92.6775V70.0058L925.187 58.6601ZM924.668 58.6601L905.075 70.0058V92.6775L924.668 81.3499V58.6601ZM884.979 58.6601V81.3499L904.555 92.6775V70.0058L884.979 58.6601ZM844.22 58.6601L824.641 70.0058V92.6775L844.22 81.3499V58.6601ZM804.529 58.6601V81.3499L824.122 92.6775V70.0058L804.529 58.6601ZM1045.84 58.6767V81.3499L1065.4 92.6775V70.0058L1045.84 58.6767ZM965.395 58.6767V81.3499L984.973 92.6775V70.0058L965.395 58.6767ZM884.443 58.6767L864.85 70.0058V92.6775L884.443 81.3499V58.6767ZM844.754 58.6767V81.3499L864.333 92.6775V70.0058L844.754 58.6767ZM1146.63 93.1331L1157.16 99.232L1166.19 104.486L1185.8 93.1331L1166.19 81.7889L1146.63 93.1331ZM1106.41 93.1331L1116.95 99.232L1125.98 104.486L1145.6 93.1331L1125.98 81.7889L1106.41 93.1331ZM1066.2 93.1331L1076.74 99.232L1085.76 104.486L1105.39 93.1331L1085.76 81.7889L1066.2 93.1331ZM1025.97 93.1331L1042.82 102.894L1045.55 104.486L1052.26 100.604L1065.16 93.1331L1045.55 81.7889L1025.97 93.1331ZM985.766 93.1331L996.293 99.232L1005.36 104.486L1024.94 93.1331L1005.33 81.7889L985.766 93.1331ZM945.542 93.1331L962.382 102.894L965.137 104.486L971.84 100.604L984.73 93.1331L965.137 81.7889L945.542 93.1331ZM905.317 93.1331L910.645 96.2185L924.927 104.486L944.506 93.1331L924.927 81.7889L905.317 93.1331ZM865.109 93.1331L878.096 100.644L884.719 104.486L904.297 93.1331L884.703 81.7889L865.109 93.1331ZM1186.3 93.4343L1166.73 104.795L1186.3 116.131L1205.92 104.795L1189.11 95.0575L1186.3 93.4343ZM1146.08 93.4343L1126.52 104.795L1146.08 116.131L1165.71 104.795L1148.9 95.0575L1146.08 93.4343ZM1105.87 93.4343L1086.31 104.795L1105.87 116.131L1125.48 104.795L1108.67 95.0575L1105.87 93.4343ZM1065.67 93.4343L1046.09 104.795L1065.67 116.131L1085.26 104.795L1068.45 95.0575L1065.67 93.4343ZM1025.44 93.4343L1005.86 104.795L1025.44 116.131L1045.03 104.795L1027.19 94.4491L1025.44 93.4343ZM985.216 93.4343L965.637 104.795L985.216 116.131L1004.84 104.795L988.033 95.0575L985.216 93.4343ZM945.039 93.4343L925.429 104.795L945.039 116.123L964.617 104.795L946.74 94.4491L945.039 93.4343ZM904.831 93.4343L885.221 104.795L904.831 116.131L924.409 104.795L913.835 98.6803L904.831 93.4343ZM852.559 100.41L844.996 104.795L864.607 116.123L884.201 104.795L871.198 97.2742L864.607 93.4343L852.559 100.41ZM1045.29 105.233L1025.72 116.57V139.25L1045.29 127.915V105.233ZM964.861 105.233L945.299 116.57V139.25L964.861 127.915V105.233ZM1206.18 105.241L1186.58 116.57V139.25L1206.18 127.915V105.241ZM1166.47 105.241V127.915L1186.06 139.25V116.57L1166.47 105.241ZM1165.95 105.241L1146.37 116.57V139.25L1165.95 127.915V105.241ZM1126.26 105.241V127.915L1145.84 139.25V116.57L1126.26 105.241ZM1125.74 105.241L1106.16 116.57V139.25L1125.74 127.915V105.241ZM1086.05 105.241V127.915L1105.63 139.25V116.57L1086.05 105.241ZM1085.52 105.241L1065.94 116.57V139.25L1085.52 127.915V105.241ZM1045.84 105.241V127.915L1065.4 139.25V116.57L1045.84 105.241ZM1005.62 105.241V127.915L1025.2 139.25V116.57L1005.62 105.241ZM1005.08 105.241L985.508 116.57V139.25L1005.08 127.915V105.241ZM965.395 105.241V127.915L984.973 139.25V116.57L965.395 105.241ZM925.187 105.241L925.17 127.915L944.764 139.25V116.57L925.187 105.241ZM924.668 105.241L905.075 116.57V139.25L924.668 127.915V105.241ZM884.979 105.241V127.915L904.555 139.25V116.57L884.979 105.241ZM884.443 105.241L864.85 116.57V139.25L884.443 127.915V105.241ZM844.754 105.241V127.915L864.333 139.25V116.57L844.754 105.241ZM965.151 128.385L945.542 139.714L965.137 151.05L984.73 139.714L965.151 128.385ZM1062.57 141.817L1046.09 151.358L1065.65 162.687L1085.26 151.358L1082.91 149.986L1065.65 140.013L1062.57 141.817ZM982.123 141.817L965.653 151.358L985.216 162.687L1004.83 151.358L1002.48 149.986L985.216 140.013L982.123 141.817ZM935.096 145.763L925.429 151.358L945.039 162.687L964.617 151.358L945.039 140.013L935.096 145.763ZM964.861 151.797L945.299 163.158V185.831L964.861 174.503V151.797ZM1085.52 151.805L1065.94 163.158V185.831L1085.52 174.503V151.805ZM1045.84 151.805V174.503L1065.4 185.831V163.158L1045.84 151.805ZM1005.08 151.805L985.508 163.158V185.831L1005.08 174.503V151.805ZM965.395 151.805V174.503L984.973 185.831V163.158L965.395 151.805ZM925.187 151.805L925.17 174.503L944.764 185.831V163.158L925.187 151.805ZM1608.56 35.2331L1608.56 35.2315L1588.98 46.5606L1595.25 50.1916L1608.56 57.9048L1608.56 57.9033V57.9009L1608.57 57.9048L1618.48 52.1479L1628.14 46.5606L1608.57 35.2315L1608.56 35.2355V35.2331ZM1608.56 81.7904L1608.56 81.7889L1588.96 93.1331L1599.52 99.232L1608.56 104.486L1608.56 104.484V104.482L1608.57 104.486L1628.14 93.1331L1608.57 81.7889L1608.56 81.7928V81.7904ZM1608.56 128.386L1608.56 128.385L1588.96 139.714L1608.56 151.05L1608.56 151.048V151.046L1608.57 151.05L1618.48 145.3L1628.14 139.714L1608.57 128.385L1608.56 128.389V128.386ZM1588.44 0.304481L1568.87 11.6335L1588.44 22.977L1608.04 11.6335L1588.44 0.304481ZM1548.22 0.304481L1528.66 11.6335L1548.22 22.977L1567.83 11.6335L1548.22 0.304481ZM1508.01 0.304481L1488.45 11.6335L1508.01 22.977L1527.62 11.6335L1508.01 0.304481ZM1467.81 0.304481L1448.23 11.6335L1467.79 22.977L1487.4 11.6335L1467.81 0.304481ZM1427.58 0.304481L1408.02 11.6335L1427.58 22.977L1447.17 11.6335L1432.44 3.11517L1427.58 0.304481ZM1387.36 0.304481L1367.79 11.6335L1387.36 22.977L1406.97 11.6335L1387.36 0.304481ZM1347.18 0.304481L1327.57 11.6335L1347.18 22.977L1366.76 11.6335L1352.02 3.11517L1347.18 0.304481ZM1306.96 0.304481L1287.36 11.6335L1306.96 22.977L1326.53 11.6335L1306.96 0.304481ZM1266.75 0.304481L1247.14 11.6335L1266.75 22.977L1286.31 11.6335L1266.75 0.304481ZM1226.52 0.304481L1206.93 11.6335L1226.52 22.977L1246.12 11.6335L1226.52 0.304481ZM1608.32 12.0868L1588.72 23.4166V46.1133L1608.32 34.7775V12.0868ZM1568.61 12.0868V34.7775L1588.2 46.1133V23.4166L1568.61 12.0868ZM1568.09 12.0868L1548.51 23.4166V46.1133L1568.09 34.7775V12.0868ZM1528.4 12.0868V34.7775L1547.98 46.1133V23.4166L1528.4 12.0868ZM1527.88 12.0868L1508.3 23.4166V46.1133L1527.88 34.7775V12.0868ZM1488.19 12.0868V34.7775L1507.77 46.1133V23.4166L1488.19 12.0868ZM1487.66 12.0868L1468.08 23.4166V46.1133L1487.66 34.7775V12.0868ZM1447.98 12.0868V34.7775L1467.54 46.1133V23.4166L1447.98 12.0868ZM1447.43 12.0868L1427.86 23.4166V46.1133L1447.43 34.7775V12.0868ZM1407.76 12.0868V34.7775L1427.34 46.1133V23.4166L1407.76 12.0868ZM1407.22 12.0868L1387.65 23.4166V46.1133L1407.22 34.7775V12.0868ZM1367.54 12.0868V34.7775L1387.11 46.1133V23.4166L1367.54 12.0868ZM1367 12.0868L1347.44 23.4166V46.1133L1367 34.7775V12.0868ZM1327.33 12.0868L1327.31 34.7775L1346.9 46.1133V23.4166L1327.33 12.0868ZM1326.81 12.0868L1307.21 23.4166V46.1133L1326.81 34.7775V12.0868ZM1287.12 12.0868V34.7775L1306.7 46.1133V23.4166L1287.12 12.0868ZM1286.58 12.0868L1266.99 23.4166V46.1133L1286.58 34.7775V12.0868ZM1246.89 12.0868V34.7775L1266.47 46.1133V23.4166L1246.89 12.0868ZM1246.36 12.0868L1226.78 23.4166V46.1133L1246.36 34.7775V12.0868ZM1206.67 12.0868V34.7775L1226.26 46.1133V23.4166L1206.67 12.0868ZM1548.77 46.5606L1555.04 50.1916L1568.33 57.9048L1578.28 52.1479L1587.94 46.5689L1568.33 35.2315L1548.77 46.5606ZM1508.55 46.5606L1514.81 50.1916L1528.12 57.9048L1538.05 52.1479L1547.72 46.5689L1528.12 35.2315L1508.55 46.5606ZM1468.34 46.5606L1474.61 50.1916L1487.9 57.9048L1497.84 52.1479L1507.51 46.5689L1487.9 35.2315L1468.34 46.5606ZM1428.11 46.5606L1430.57 48.0061L1447.69 57.9048L1467.3 46.5689L1447.69 35.2315L1428.11 46.5606ZM1387.91 46.5606L1394.19 50.1916L1407.5 57.9048L1417.41 52.1479L1427.08 46.5689L1407.47 35.2315L1387.91 46.5606ZM1347.68 46.5606L1350.14 48.0061L1367.29 57.9048L1386.85 46.5689L1367.28 35.2315L1347.68 46.5606ZM1307.47 46.5606L1321.48 54.6824L1327.07 57.9048L1330.29 56.0378L1346.65 46.5606L1327.07 35.2315L1307.47 46.5606ZM1286.84 35.2315L1267.25 46.5689L1286.86 57.9048L1306.44 46.5689L1286.84 35.2315ZM1227.04 46.5606L1236.69 52.1479L1246.65 57.9048L1266.21 46.5606L1246.64 35.2315L1227.04 46.5606ZM1588.44 46.8686L1568.87 58.206L1588.44 69.5418L1608.06 58.206L1588.44 46.8686ZM1548.22 46.8686L1528.66 58.206L1548.22 69.5418L1567.85 58.206L1548.22 46.8686ZM1508.01 46.8686L1488.45 58.206L1508.01 69.5418L1527.62 58.206L1508.01 46.8686ZM1467.81 46.8686L1448.23 58.206L1467.79 69.5418L1487.4 58.206L1467.81 46.8686ZM1427.58 46.8686L1408 58.206L1427.58 69.5418L1447.17 58.206L1432.44 49.6876L1427.58 46.8686ZM1387.36 46.8686L1367.78 58.206L1387.36 69.5418L1406.98 58.206L1387.36 46.8686ZM1347.18 46.8686L1327.57 58.206L1347.18 69.5418L1366.76 58.206L1352.02 49.6876L1347.18 46.8686ZM1306.96 46.8686L1287.36 58.206L1306.96 69.5418L1326.55 58.206L1306.96 46.8686ZM1266.75 46.8686L1247.14 58.206L1266.75 69.5418L1286.34 58.206L1266.75 46.8686ZM1226.52 46.8686L1206.93 58.206L1226.52 69.5418L1246.12 58.206L1226.52 46.8686ZM1608.32 58.6601L1588.72 70.0058V92.6775L1608.32 81.3499V58.6601ZM1568.61 58.6601V81.3499L1588.2 92.6775V70.0058L1568.61 58.6601ZM1568.09 58.6601L1548.51 70.0058V92.6775L1568.09 81.3499V58.6601ZM1528.4 58.6601V81.3499L1547.98 92.6775V70.0058L1528.4 58.6601ZM1527.88 58.6601L1508.3 70.0058V92.6775L1527.88 81.3499V58.6601ZM1488.19 58.6601V81.3499L1507.77 92.6775V70.0058L1488.19 58.6601ZM1487.66 58.6601L1468.08 70.0058V92.6775L1487.66 81.3499V58.6601ZM1447.43 58.6601L1427.86 70.0058V92.6775L1447.43 81.3499V58.6601ZM1407.76 58.6601V81.3499L1427.34 92.6775V70.0058L1407.76 58.6601ZM1407.22 58.6601L1387.65 70.0058V92.6775L1407.22 81.3499V58.6601ZM1367 58.6601L1347.44 70.0058V92.6775L1367 81.3499V58.6601ZM1327.33 58.6601L1327.31 81.3499L1346.9 92.6775V70.0058L1327.33 58.6601ZM1326.81 58.6601L1307.21 70.0058V92.6775L1326.81 81.3499V58.6601ZM1287.12 58.6601V81.3499L1306.7 92.6775V70.0058L1287.12 58.6601ZM1246.36 58.6601L1226.78 70.0058V92.6775L1246.36 81.3499V58.6601ZM1206.67 58.6601V81.3499L1226.26 92.6775V70.0058L1206.67 58.6601ZM1447.98 58.6767V81.3499L1467.54 92.6775V70.0058L1447.98 58.6767ZM1367.54 58.6767V81.3499L1387.11 92.6775V70.0058L1367.54 58.6767ZM1286.58 58.6767L1266.99 70.0058V92.6775L1286.58 81.3499V58.6767ZM1246.89 58.6767V81.3499L1266.47 92.6775V70.0058L1246.89 58.6767ZM1548.77 93.1331L1559.3 99.232L1568.33 104.486L1587.94 93.1331L1568.33 81.7889L1548.77 93.1331ZM1508.55 93.1331L1519.09 99.232L1528.12 104.486L1547.74 93.1331L1528.12 81.7889L1508.55 93.1331ZM1468.34 93.1331L1478.88 99.232L1487.9 104.486L1507.53 93.1331L1487.9 81.7889L1468.34 93.1331ZM1428.11 93.1331L1444.96 102.894L1447.69 104.486L1454.4 100.604L1467.3 93.1331L1447.69 81.7889L1428.11 93.1331ZM1387.91 93.1331L1398.43 99.232L1407.5 104.486L1427.08 93.1331L1407.47 81.7889L1387.91 93.1331ZM1347.68 93.1331L1364.52 102.894L1367.28 104.486L1373.98 100.604L1386.87 93.1331L1367.28 81.7889L1347.68 93.1331ZM1307.46 93.1331L1312.78 96.2185L1327.07 104.486L1346.65 93.1331L1327.07 81.7889L1307.46 93.1331ZM1588.44 93.4343L1568.87 104.795L1588.44 116.131L1608.06 104.795L1591.25 95.0575L1588.44 93.4343ZM1548.22 93.4343L1528.66 104.795L1548.22 116.131L1567.85 104.795L1551.04 95.0575L1548.22 93.4343ZM1508.01 93.4343L1488.45 104.795L1508.01 116.131L1527.62 104.795L1510.81 95.0575L1508.01 93.4343ZM1467.81 93.4343L1448.23 104.795L1467.81 116.131L1487.4 104.795L1470.59 95.0575L1467.81 93.4343ZM1427.58 93.4343L1408 104.795L1427.58 116.131L1447.17 104.795L1429.33 94.4491L1427.58 93.4343ZM1387.36 93.4343L1367.78 104.795L1387.36 116.131L1406.98 104.795L1390.17 95.0575L1387.36 93.4343ZM1347.18 93.4343L1327.57 104.795L1347.18 116.123L1366.76 104.795L1348.88 94.4491L1347.18 93.4343ZM1306.97 93.4343L1287.36 104.795L1306.97 116.131L1326.55 104.795L1315.97 98.6803L1306.97 93.4343ZM1447.43 105.233L1427.86 116.57V139.25L1447.43 127.915V105.233ZM1367 105.233L1347.44 116.57V139.25L1367 127.915V105.233ZM1608.32 105.241L1588.72 116.57V139.25L1608.32 127.915V105.241ZM1568.61 105.241V127.915L1588.2 139.25V116.57L1568.61 105.241ZM1568.09 105.241L1548.51 116.57V139.25L1568.09 127.915V105.241ZM1528.4 105.241V127.915L1547.98 139.25V116.57L1528.4 105.241ZM1527.88 105.241L1508.3 116.57V139.25L1527.88 127.915V105.241ZM1488.19 105.241V127.915L1507.77 139.25V116.57L1488.19 105.241ZM1487.66 105.241L1468.08 116.57V139.25L1487.66 127.915V105.241ZM1447.98 105.241V127.915L1467.54 139.25V116.57L1447.98 105.241ZM1407.76 105.241V127.915L1427.34 139.25V116.57L1407.76 105.241ZM1407.22 105.241L1387.65 116.57V139.25L1407.22 127.915V105.241ZM1367.54 105.241V127.915L1387.11 139.25V116.57L1367.54 105.241ZM1327.33 105.241L1327.31 127.915L1346.9 139.25V116.57L1327.33 105.241ZM1326.81 105.241L1307.21 116.57V139.25L1326.81 127.915V105.241ZM1287.12 105.241V127.915L1306.7 139.25V116.57L1287.12 105.241ZM1487.9 128.385L1468.34 139.714L1487.9 151.05L1497.84 145.3L1507.53 139.714L1487.9 128.385ZM1447.69 128.385L1428.11 139.714L1447.69 151.05L1467.3 139.714L1447.69 128.385ZM1578.53 145.763L1568.87 151.358L1588.44 162.687L1608.04 151.358L1605.71 149.986L1588.44 140.013L1578.53 145.763ZM1498.1 145.763L1488.45 151.358L1508.01 162.687L1527.62 151.358L1525.26 149.986L1508.01 140.013L1498.1 145.763ZM1464.71 141.817L1448.23 151.358L1467.79 162.687L1487.4 151.358L1485.05 149.986L1467.79 140.013L1464.71 141.817ZM1417.67 145.763L1408.02 151.358L1427.58 162.687L1447.17 151.358L1427.58 140.013L1417.67 145.763ZM1447.43 151.797L1427.86 163.158V185.831L1447.43 174.503V151.797ZM1608.32 151.805L1588.72 163.158V185.831L1608.32 174.503V151.805ZM1568.61 151.805V174.503L1588.2 185.831V163.158L1568.61 151.805ZM1527.88 151.805L1508.3 163.158V185.831L1527.88 174.503V151.805ZM1488.19 151.805V174.503L1507.77 185.831V163.158L1488.19 151.805ZM1487.66 151.805L1468.08 163.158V185.831L1487.66 174.503V151.805ZM1447.98 151.805V174.503L1467.54 185.831V163.158L1447.98 151.805ZM1407.76 151.805V174.503L1427.34 185.831V163.158L1407.76 151.805ZM1464.94 188.268L1448.23 197.923L1467.81 209.268L1487.4 197.923L1467.81 186.586L1464.94 188.268ZM1487.66 198.386L1468.08 209.722V232.403L1487.66 221.067V198.386ZM1447.98 198.395V221.067L1467.54 232.403V209.722L1447.98 198.395ZM1910.15 0.304481L1890.59 11.6335L1910.15 22.977L1929.76 11.6335L1910.15 0.304481ZM1869.95 0.304481L1850.37 11.6335L1869.93 22.977L1889.54 11.6335L1869.95 0.304481ZM1829.72 0.304481L1810.16 11.6335L1829.72 22.977L1849.31 11.6335L1834.58 3.11517L1829.72 0.304481ZM1789.5 0.304481L1769.93 11.6335L1789.5 22.977L1809.11 11.6335L1789.5 0.304481ZM1749.32 0.304481L1729.71 11.6335L1749.32 22.977L1768.9 11.6335L1754.16 3.11517L1749.32 0.304481ZM1709.1 0.304481L1689.5 11.6335L1709.1 22.977L1728.67 11.6335L1709.1 0.304481ZM1668.89 0.304481L1649.28 11.6335L1668.89 22.977L1688.45 11.6335L1668.89 0.304481ZM1628.66 0.304481L1609.07 11.6335L1628.66 22.977L1648.26 11.6335L1628.66 0.304481ZM1930.02 12.0868L1910.44 23.4166V46.1133L1930.02 34.7775V12.0868ZM1890.33 12.0868V34.7775L1909.91 46.1133V23.4166L1890.33 12.0868ZM1889.8 12.0868L1870.22 23.4166V46.1133L1889.8 34.7775V12.0868ZM1850.12 12.0868V34.7775L1869.68 46.1133V23.4166L1850.12 12.0868ZM1849.57 12.0868L1830 23.4166V46.1133L1849.57 34.7775V12.0868ZM1809.9 12.0868V34.7775L1829.48 46.1133V23.4166L1809.9 12.0868ZM1809.36 12.0868L1789.79 23.4166V46.1133L1809.36 34.7775V12.0868ZM1769.68 12.0868V34.7775L1789.25 46.1133V23.4166L1769.68 12.0868ZM1769.14 12.0868L1749.58 23.4166V46.1133L1769.14 34.7775V12.0868ZM1729.47 12.0868L1729.45 34.7775L1749.04 46.1133V23.4166L1729.47 12.0868ZM1728.95 12.0868L1709.35 23.4166V46.1133L1728.95 34.7775V12.0868ZM1689.26 12.0868V34.7775L1708.84 46.1133V23.4166L1689.26 12.0868ZM1688.72 12.0868L1669.13 23.4166V46.1133L1688.72 34.7775V12.0868ZM1649.03 12.0868V34.7775L1668.61 46.1133V23.4166L1649.03 12.0868ZM1648.5 12.0868L1628.92 23.4166V46.1133L1648.5 34.7775V12.0868ZM1608.81 12.0868V34.7775L1628.4 46.1133V23.4166L1608.81 12.0868ZM1870.48 46.5606L1876.75 50.1916L1890.04 57.9048L1899.98 52.1479L1909.65 46.5689L1890.04 35.2315L1870.48 46.5606ZM1830.25 46.5606L1832.71 48.0061L1849.83 57.9048L1869.44 46.5689L1849.83 35.2315L1830.25 46.5606ZM1790.05 46.5606L1796.33 50.1916L1809.64 57.9048L1819.55 52.1479L1829.22 46.5689L1809.61 35.2315L1790.05 46.5606ZM1749.82 46.5606L1752.28 48.0061L1769.43 57.9048L1788.99 46.5689L1769.42 35.2315L1749.82 46.5606ZM1709.61 46.5606L1723.62 54.6824L1729.21 57.9048L1732.43 56.0378L1748.79 46.5606L1729.21 35.2315L1709.61 46.5606ZM1688.98 35.2315L1669.39 46.5689L1689 57.9048L1708.58 46.5689L1688.98 35.2315ZM1629.18 46.5606L1638.83 52.1479L1648.79 57.9048L1668.35 46.5606L1648.78 35.2315L1629.18 46.5606ZM1910.15 46.8686L1890.59 58.206L1910.15 69.5418L1929.76 58.206L1910.15 46.8686ZM1869.95 46.8686L1850.37 58.206L1869.93 69.5418L1889.54 58.206L1869.95 46.8686ZM1829.72 46.8686L1810.14 58.206L1829.72 69.5418L1849.31 58.206L1834.58 49.6876L1829.72 46.8686ZM1789.5 46.8686L1769.92 58.206L1789.5 69.5418L1809.12 58.206L1789.5 46.8686ZM1749.32 46.8686L1729.71 58.206L1749.32 69.5418L1768.9 58.206L1754.16 49.6876L1749.32 46.8686ZM1709.1 46.8686L1689.5 58.206L1709.1 69.5418L1728.69 58.206L1709.1 46.8686ZM1668.89 46.8686L1649.28 58.206L1668.89 69.5418L1688.48 58.206L1668.89 46.8686ZM1628.66 46.8686L1609.07 58.206L1628.66 69.5418L1648.26 58.206L1628.66 46.8686ZM1930.02 58.6601L1910.44 70.0058V92.6775L1930.02 81.3499V58.6601ZM1890.33 58.6601V81.3499L1909.91 92.6775V70.0058L1890.33 58.6601ZM1889.8 58.6601L1870.22 70.0058V92.6775L1889.8 81.3499V58.6601ZM1849.57 58.6601L1830 70.0058V92.6775L1849.57 81.3499V58.6601ZM1809.9 58.6601V81.3499L1829.48 92.6775V70.0058L1809.9 58.6601ZM1809.36 58.6601L1789.79 70.0058V92.6775L1809.36 81.3499V58.6601ZM1769.14 58.6601L1749.58 70.0058V92.6775L1769.14 81.3499V58.6601ZM1729.47 58.6601L1729.45 81.3499L1749.04 92.6775V70.0058L1729.47 58.6601ZM1728.95 58.6601L1709.35 70.0058V92.6775L1728.95 81.3499V58.6601ZM1689.26 58.6601V81.3499L1708.84 92.6775V70.0058L1689.26 58.6601ZM1648.5 58.6601L1628.92 70.0058V92.6775L1648.5 81.3499V58.6601ZM1608.81 58.6601V81.3499L1628.4 92.6775V70.0058L1608.81 58.6601ZM1850.12 58.6767V81.3499L1869.68 92.6775V70.0058L1850.12 58.6767ZM1769.68 58.6767V81.3499L1789.25 92.6775V70.0058L1769.68 58.6767ZM1688.72 58.6767L1669.13 70.0058V92.6775L1688.72 81.3499V58.6767ZM1649.03 58.6767V81.3499L1668.61 92.6775V70.0058L1649.03 58.6767ZM1870.48 93.1331L1881.02 99.232L1890.04 104.486L1909.67 93.1331L1890.04 81.7889L1870.48 93.1331ZM1830.25 93.1331L1847.1 102.894L1849.83 104.486L1856.54 100.604L1869.44 93.1331L1849.83 81.7889L1830.25 93.1331ZM1790.05 93.1331L1800.57 99.232L1809.64 104.486L1829.22 93.1331L1809.61 81.7889L1790.05 93.1331ZM1749.82 93.1331L1766.66 102.894L1769.42 104.486L1776.12 100.604L1789.01 93.1331L1769.42 81.7889L1749.82 93.1331ZM1709.6 93.1331L1714.92 96.2185L1729.21 104.486L1748.79 93.1331L1729.21 81.7889L1709.6 93.1331ZM1669.39 93.1331L1682.38 100.644L1689 104.486L1708.58 93.1331L1688.98 81.7889L1669.39 93.1331ZM1648.78 81.7889L1629.18 93.1331L1648.79 104.486L1660.79 97.5103L1668.35 93.1331L1648.78 81.7889ZM1910.15 93.4343L1890.59 104.795L1910.15 116.131L1929.76 104.795L1912.95 95.0575L1910.15 93.4343ZM1869.95 93.4343L1850.37 104.795L1869.95 116.131L1889.54 104.795L1872.73 95.0575L1869.95 93.4343ZM1829.72 93.4343L1810.14 104.795L1829.72 116.131L1849.31 104.795L1831.47 94.4491L1829.72 93.4343ZM1789.5 93.4343L1769.92 104.795L1789.5 116.131L1809.12 104.795L1792.31 95.0575L1789.5 93.4343ZM1749.32 93.4343L1729.71 104.795L1749.32 116.123L1768.9 104.795L1751.02 94.4491L1749.32 93.4343ZM1709.11 93.4343L1689.5 104.795L1709.11 116.131L1728.69 104.795L1718.11 98.6803L1709.11 93.4343ZM1656.84 100.41L1649.28 104.795L1668.89 116.123L1688.48 104.795L1675.48 97.2742L1668.89 93.4343L1656.84 100.41ZM1628.66 93.4343L1609.07 104.795L1628.66 116.131L1648.26 104.795L1628.66 93.4343ZM1849.57 105.233L1830 116.57V139.25L1849.57 127.915V105.233ZM1769.14 105.233L1749.58 116.57V139.25L1769.14 127.915V105.233ZM1930.02 105.241L1910.44 116.57V139.25L1930.02 127.915V105.241ZM1890.33 105.241V127.915L1909.91 139.25V116.57L1890.33 105.241ZM1889.8 105.241L1870.22 116.57V139.25L1889.8 127.915V105.241ZM1850.12 105.241V127.915L1869.68 139.25V116.57L1850.12 105.241ZM1809.9 105.241V127.915L1829.48 139.25V116.57L1809.9 105.241ZM1809.36 105.241L1789.79 116.57V139.25L1809.36 127.915V105.241ZM1769.68 105.241V127.915L1789.25 139.25V116.57L1769.68 105.241ZM1729.47 105.241L1729.45 127.915L1749.04 139.25V116.57L1729.47 105.241ZM1728.95 105.241L1709.35 116.57V139.25L1728.95 127.915V105.241ZM1689.26 105.241V127.915L1708.84 139.25V116.57L1689.26 105.241ZM1688.72 105.241L1669.13 116.57V139.25L1688.72 127.915V105.241ZM1649.03 105.241V127.915L1668.61 139.25V116.57L1649.03 105.241ZM1648.5 105.241L1628.92 116.57V139.25L1648.5 127.915V105.241ZM1608.81 105.241V127.915L1628.4 139.25V116.57L1608.81 105.241ZM1890.04 128.385L1870.48 139.714L1890.04 151.05L1899.98 145.3L1909.67 139.714L1890.04 128.385ZM1849.83 128.385L1830.25 139.714L1849.83 151.05L1869.44 139.714L1849.83 128.385ZM1809.64 128.385L1790.05 139.714L1809.64 151.05L1819.55 145.3L1829.22 139.714L1809.64 128.385ZM1769.43 128.385L1749.82 139.714L1769.42 151.05L1789.01 139.714L1769.43 128.385ZM1729.21 128.385L1709.6 139.714L1729.21 151.05L1732.2 149.304L1748.79 139.714L1729.21 128.385ZM1669.39 139.714L1676.66 143.928L1689 151.05L1708.58 139.714L1689 128.385L1669.39 139.714ZM1629.18 139.714L1638.83 145.3L1648.79 151.05L1668.35 139.714L1648.78 128.385L1629.18 139.714ZM1900.24 145.763L1890.59 151.358L1910.15 162.687L1929.76 151.358L1927.4 149.986L1910.15 140.013L1900.24 145.763ZM1866.85 141.817L1850.37 151.358L1869.93 162.687L1889.54 151.358L1887.19 149.986L1869.93 140.013L1866.85 141.817ZM1819.81 145.763L1810.16 151.358L1829.72 162.687L1849.31 151.358L1829.72 140.013L1819.81 145.763ZM1786.4 141.817L1769.93 151.358L1789.5 162.687L1809.11 151.358L1806.76 149.986L1789.5 140.013L1786.4 141.817ZM1739.38 145.763L1729.71 151.358L1749.32 162.687L1768.9 151.358L1749.32 140.013L1739.38 145.763ZM1692.46 149.644L1689.5 151.358L1709.1 162.687L1728.67 151.358L1722.62 147.833L1709.1 140.013L1692.46 149.644ZM1668.89 140.013L1649.28 151.358L1668.89 162.687L1688.45 151.358L1679.72 146.3L1668.89 140.013ZM1612.03 149.644L1609.07 151.358L1628.66 162.687L1648.26 151.358L1638.59 145.763L1628.66 140.013L1612.03 149.644ZM1849.57 151.797L1830 163.158V185.831L1849.57 174.503V151.797ZM1769.14 151.797L1749.58 163.158V185.831L1769.14 174.503V151.797ZM1930.02 151.805L1910.44 163.158V185.831L1930.02 174.503V151.805ZM1890.33 151.805V174.503L1909.91 185.831V163.158L1890.33 151.805ZM1889.8 151.805L1870.22 163.158V185.831L1889.8 174.503V151.805ZM1850.12 151.805V174.503L1869.68 185.831V163.158L1850.12 151.805ZM1809.9 151.805V174.503L1829.48 185.831V163.158L1809.9 151.805ZM1809.36 151.805L1789.79 163.158V185.831L1809.36 174.503V151.805ZM1769.68 151.805V174.503L1789.25 185.831V163.158L1769.68 151.805ZM1729.47 151.805L1729.45 174.503L1749.04 185.831V163.158L1729.47 151.805ZM1728.95 151.805L1709.35 163.158V185.831L1728.95 174.503V151.805ZM1689.26 151.805V174.503L1708.84 185.839V163.158L1689.26 151.805ZM1688.72 151.805L1669.13 163.158V185.839L1688.72 174.503V151.805ZM1649.03 151.805V174.503L1668.61 185.831V163.158L1649.03 151.805ZM1648.5 151.805L1628.92 163.158V185.831L1648.5 174.503V151.805ZM1608.81 151.805V174.503L1628.4 185.831V163.158L1608.81 151.805ZM1790.05 186.286L1796.33 189.899L1809.64 197.622L1819.55 191.89L1829.22 186.286L1809.61 174.941L1790.05 186.286ZM1709.61 186.286L1723.62 194.399L1729.21 197.622L1732.43 195.764L1748.79 186.286L1729.21 174.941L1709.61 186.286ZM1870.48 186.286L1876.75 189.899L1890.04 197.622L1899.98 191.89L1909.65 186.286L1890.04 174.949L1870.48 186.286ZM1830.25 186.286L1832.71 187.716L1849.83 197.622L1869.44 186.286L1849.83 174.949L1830.25 186.286ZM1749.82 186.286L1752.28 187.716L1769.43 197.622L1788.99 186.286L1769.42 174.949L1749.82 186.286ZM1900.24 192.335L1890.59 197.923L1910.15 209.268L1929.76 197.923L1910.15 186.586L1900.24 192.335ZM1867.08 188.268L1850.37 197.923L1869.95 209.268L1889.54 197.923L1869.95 186.586L1867.08 188.268ZM1819.81 192.335L1810.14 197.923L1829.72 209.268L1849.31 197.923L1834.58 189.405L1829.72 186.586L1819.81 192.335ZM1786.64 188.268L1769.92 197.923L1789.5 209.268L1809.12 197.923L1789.5 186.586L1786.64 188.268ZM1739.38 192.335L1729.71 197.923L1749.32 209.268L1768.9 197.923L1754.16 189.405L1749.32 186.586L1739.38 192.335ZM1692.27 196.34L1689.5 197.923L1709.11 209.268L1728.69 197.923L1709.11 186.586L1692.27 196.34ZM1930.02 198.386L1910.44 209.722V232.403L1930.02 221.067V198.386ZM1890.33 198.386V221.067L1909.91 232.403V209.722L1890.33 198.386ZM1889.8 198.386L1870.22 209.722V232.403L1889.8 221.067V198.386ZM1849.57 198.386L1830 209.722V232.403L1849.57 221.067V198.386ZM1809.9 198.386V221.067L1829.48 232.403V209.722L1809.9 198.386ZM1809.36 198.386L1789.79 209.722V232.403L1809.36 221.067V198.386ZM1769.14 198.386L1749.58 209.722V232.403L1769.14 221.067V198.386ZM1729.47 198.386L1729.45 221.067L1749.04 232.403V209.722L1729.47 198.386ZM1728.95 198.386L1709.35 209.722V232.403L1728.95 221.067V198.386ZM1689.26 198.386V221.067L1708.84 232.403V209.722L1689.26 198.386ZM1850.12 198.395V221.067L1869.68 232.403V209.722L1850.12 198.395ZM1769.68 198.395V221.067L1789.25 232.403V209.722L1769.68 198.395ZM1809.61 221.506L1790.05 232.866L1809.64 244.203L1819.55 238.454L1829.22 232.866L1809.61 221.506ZM1890.04 221.53L1870.48 232.866L1890.04 244.203L1899.98 238.454L1909.67 232.866L1890.04 221.53ZM1849.83 221.53L1830.25 232.866L1849.83 244.203L1869.44 232.866L1849.83 221.53ZM1769.42 221.53L1749.82 232.866L1769.42 244.203L1789.01 232.866L1769.42 221.53ZM1900.24 238.908L1890.59 244.496L1910.15 255.841L1929.76 244.496L1910.15 233.167L1900.24 238.908ZM1866.85 234.953L1850.37 244.496L1869.95 255.841L1889.54 244.496L1869.95 233.167L1866.85 234.953ZM1819.81 238.908L1810.16 244.496L1829.72 255.841L1849.31 244.488L1834.53 235.944L1829.72 233.167L1819.81 238.908ZM1786.4 234.953L1769.93 244.496L1789.5 255.841L1809.11 244.496L1789.5 233.167L1786.4 234.953ZM1739.38 238.908L1729.71 244.496L1749.32 255.841L1768.9 244.488L1754.1 235.944L1749.32 233.167L1739.38 238.908ZM1930.02 244.958L1910.44 256.294V278.985L1930.02 267.623V244.958ZM1890.33 244.958V267.623L1909.91 278.985V256.294L1890.33 244.958ZM1889.8 244.958L1870.22 256.294V278.985L1889.8 267.623V244.958ZM1850.12 244.958V267.623L1869.68 278.985V256.294L1850.12 244.958ZM1849.57 244.958L1830 256.294V278.985L1849.57 267.623V244.958ZM1809.9 244.958V267.623L1829.48 278.985V256.294L1809.9 244.958ZM1809.36 244.958L1789.79 256.294V278.985L1809.36 267.623V244.958ZM1769.68 244.958V267.623L1789.25 278.985V256.294L1769.68 244.958ZM1769.14 244.958L1749.58 256.294V278.985L1769.14 267.623V244.958ZM1729.47 244.958L1729.45 267.623L1749.04 278.985V256.294L1729.47 244.958ZM1890.04 268.094L1870.48 279.415L1890.04 290.76L1909.65 279.415L1890.04 268.094ZM1849.83 268.094L1830.25 279.415L1849.83 290.76L1869.44 279.415L1849.83 268.094ZM1809.64 268.094L1790.05 279.415L1809.64 290.76L1829.22 279.415L1809.64 268.094ZM1769.43 268.094L1749.82 279.415L1769.42 290.76L1788.99 279.415L1769.43 268.094ZM1910.15 279.739L1890.59 291.101L1910.15 302.404L1929.76 291.101L1910.15 279.739ZM1869.95 279.739L1850.37 291.101L1869.93 302.404L1889.54 291.101L1869.95 279.739ZM1829.72 279.739L1810.16 291.101L1829.72 302.404L1849.31 291.101L1834.58 282.565L1829.72 279.739ZM1789.5 279.739L1769.93 291.101L1789.5 302.404L1809.11 291.101L1789.5 279.739ZM1749.32 279.739L1729.71 291.101L1749.32 302.404L1768.9 291.101L1754.16 282.565L1749.32 279.739ZM1709.1 279.739L1689.5 291.101L1709.1 302.404L1728.67 291.101L1709.1 279.739ZM1930.02 291.523L1910.44 302.876V325.566L1930.02 314.196V291.523ZM1890.33 291.523V314.196L1909.91 325.566V302.876L1890.33 291.523ZM1889.8 291.523L1870.22 302.876V325.566L1889.8 314.196V291.523ZM1850.12 291.523V314.196L1869.68 325.566V302.876L1850.12 291.523ZM1849.57 291.523L1830 302.876V325.566L1849.57 314.196V291.523ZM1809.9 291.523V314.196L1829.48 325.566V302.876L1809.9 291.523ZM1809.36 291.523L1789.79 302.876V325.566L1809.36 314.196V291.523ZM1769.68 291.523V314.196L1789.25 325.566V302.876L1769.68 291.523ZM1769.14 291.523L1749.58 302.876V325.566L1769.14 314.196V291.523ZM1729.47 291.523L1729.45 314.196L1749.04 325.566V302.876L1729.47 291.523ZM1728.95 291.523L1709.35 302.876V325.566L1728.95 314.196V291.523ZM1689.26 291.523V314.196L1708.84 325.566V302.876L1689.26 291.523ZM1870.48 326.002L1876.75 329.642L1890.04 337.34L1899.98 331.591L1909.65 326.002L1890.04 314.65L1870.48 326.002ZM1830.25 326.002L1832.71 327.433L1849.83 337.34L1869.44 326.002L1849.83 314.65L1830.25 326.002ZM1790.05 326.002L1796.33 329.642L1809.64 337.34L1819.55 331.591L1829.22 326.002L1809.64 314.65L1790.05 326.002ZM1749.82 326.002L1752.28 327.433L1769.43 337.34L1788.99 326.002L1769.43 314.65L1749.82 326.002ZM1900.24 332.078L1890.59 337.648L1910.15 348.986L1929.76 337.648L1910.15 326.312L1900.24 332.078ZM1867.08 327.968L1850.37 337.648L1869.95 348.986L1889.54 337.648L1869.95 326.312L1867.08 327.968ZM1819.81 332.078L1810.14 337.648L1829.72 348.986L1849.31 337.648L1834.58 329.138L1829.72 326.312L1819.81 332.078ZM1786.64 327.968L1769.92 337.648L1789.5 348.986L1809.12 337.648L1789.5 326.312L1786.64 327.968ZM1739.38 332.078L1729.71 337.648L1749.32 348.986L1768.9 337.648L1754.16 329.138L1749.32 326.312L1739.38 332.078ZM1930.02 338.087L1910.44 349.439V372.13L1930.02 360.809V338.087ZM1890.33 338.087V360.809L1909.91 372.13V349.439L1890.33 338.087ZM1889.8 338.087L1870.22 349.439V372.13L1889.8 360.809V338.087ZM1850.12 338.087V360.809L1869.68 372.13V349.439L1850.12 338.087ZM1849.57 338.087L1830 349.439V372.13L1849.57 360.809V338.087ZM1809.9 338.087V360.809L1829.48 372.13V349.439L1809.9 338.087ZM1809.36 338.087L1789.79 349.439V372.13L1809.36 360.809V338.087ZM1769.68 338.087V360.809L1789.25 372.13V349.439L1769.68 338.087ZM1769.14 338.087L1749.58 349.439V372.13L1769.14 360.809V338.087ZM1729.47 338.087L1729.45 360.809L1749.04 372.13V349.439L1729.47 338.087ZM1890.04 361.215L1870.48 372.583L1890.04 383.904L1899.98 378.172L1909.67 372.583L1890.04 361.215ZM1849.83 361.215L1830.25 372.583L1849.83 383.904L1869.44 372.583L1849.83 361.215ZM1910.15 372.876L1890.59 384.229L1910.15 395.566L1929.76 384.229L1910.15 372.876ZM1869.93 372.876L1850.37 384.229L1869.95 395.566L1889.54 384.229L1869.93 372.876ZM1829.72 372.876L1810.14 384.229L1829.72 395.566L1849.31 384.229L1829.72 372.876ZM1930.02 384.685L1910.44 396.02V418.694L1930.02 407.356V384.685ZM1890.33 384.685V407.356L1909.91 418.694V396.02L1890.33 384.685ZM1889.8 384.685L1870.22 396.02V418.694L1889.8 407.356V384.685ZM1850.12 384.685V407.356L1869.68 418.694V396.02L1850.12 384.685ZM1849.57 384.685L1830 396.02V418.694L1849.57 407.356V384.685ZM1809.9 384.685V407.356L1829.48 418.694V396.02L1809.9 384.685ZM1870.48 419.148L1876.75 422.786L1890.04 430.5L1899.98 424.736L1909.65 419.148L1890.04 407.811L1870.48 419.148ZM1830.25 419.148L1832.71 420.578L1849.83 430.5L1869.44 419.148L1849.83 407.811L1830.25 419.148ZM1900.24 425.223L1890.59 430.81L1910.15 442.146L1929.76 430.81L1910.15 419.474L1900.24 425.223ZM1867.08 421.13L1850.37 430.81L1869.93 442.146L1889.54 430.81L1869.95 419.474L1867.08 421.13ZM1819.81 425.223L1810.14 430.81L1829.72 442.146L1849.31 430.81L1834.58 422.266L1829.72 419.474L1819.81 425.223ZM1930.02 431.249L1910.44 442.585V465.258L1930.02 453.937V431.249ZM1890.33 431.249V453.937L1909.91 465.258V442.585L1890.33 431.249ZM1889.8 431.249L1870.22 442.585V465.258L1889.8 453.937V431.249ZM1850.12 431.249V453.937L1869.68 465.258V442.585L1850.12 431.249ZM1849.57 431.249L1830 442.585V465.258L1849.57 453.937V431.249ZM1809.9 431.249V453.937L1829.48 465.258V442.585L1809.9 431.249ZM1890.04 454.393L1870.48 465.712L1890.04 477.064L1899.98 471.3L1909.65 465.712L1890.04 454.393ZM1910.15 466.022L1890.59 477.357L1910.15 488.726L1929.76 477.357L1912.95 467.63L1910.15 466.022ZM1869.95 466.022L1850.37 477.357L1869.95 488.726L1889.54 477.357L1872.73 467.63L1869.95 466.022ZM1930.02 477.827L1910.44 489.181V511.854L1930.02 500.501V477.827ZM1890.33 477.827V500.501L1909.91 511.854V489.181L1890.33 477.827ZM1889.8 477.827L1870.22 489.181V511.854L1889.8 500.501V477.827ZM1850.12 477.845V500.501L1869.68 511.854V489.181L1850.12 477.845Z" fill="#D9EAED"/>
</svg>
