<svg width="726" height="465" viewBox="0 0 726 465" fill="none" xmlns="http://www.w3.org/2000/svg">
<path fill-rule="evenodd" clip-rule="evenodd" d="M0.351501 9.97641V33.5577L0.628265 33.7101L20.2466 45.0474L20.7502 45.3471L21.3022 45.0391L40.9061 33.7101L60.5585 45.0474L50.8703 50.6264L40.9371 56.3833L40.6619 56.5391V57.1386V79.8285L21.0428 91.156V90.9784L20.1071 91.5214L20.2632 91.6116L7.3454 99.0826L0.628265 102.964L0.351501 103.109V103.711V126.707L0.641876 126.863L20.2632 138.192L20.7502 138.491L21.3022 138.192L40.9371 126.863L60.5585 138.192L50.8703 143.779L40.9371 149.528L40.6619 149.7V162.018V173.273L40.9061 173.419L60.5585 184.765L61.0621 185.065L61.5974 184.765L81.218 173.427L100.87 184.765L101.374 185.065L101.909 184.765L121.513 173.427L141.166 184.765L131.478 190.368L121.513 196.101L121.27 196.258V196.864V219.546V219.853L121.669 220.08L122.328 220.466L123.644 221.236L141.183 231.344L141.7 231.65L142.307 231.285L161.824 220.008L181.477 231.344L171.773 236.932L161.824 242.681L161.58 242.824V243.437V266.102L141.96 277.463L141.166 277.894L121.513 289.238L121.27 289.387V290.002V312.675V313L121.513 313.128L141.166 324.481L141.65 324.8L142.315 324.417L161.824 313.128L181.461 324.481L171.773 330.07L161.824 335.819L161.58 335.965V336.566V359.563L161.824 359.693L181.477 371.061L181.964 371.354L182.516 371.061L198.277 361.922L202 359.688L202.063 359.727L202.121 359.693L221.773 371.061L212.085 376.65L202.121 382.383L201.876 382.534V405.835V406.148L202.121 406.29L221.773 417.626L222.275 417.953L222.812 417.626L242.431 406.29L262.068 417.626L262.6 417.95L263.123 417.626L282.5 406.434V406.33L302.05 417.626L302.569 417.953L303.088 417.626L322.725 406.29L342.345 417.626L322.74 428.979L322.5 429.114V452.743L322.725 452.871L342.345 464.191L342.881 464.5L343.383 464.191L363.02 452.871L382.657 464.191L383.191 464.5L383.695 464.191L403.331 452.871L420.357 462.694L422.179 463.691L423.089 464.19L423.545 464.439L423.99 464.191L443.628 452.871L463.247 464.191L463.75 464.5L464.302 464.191L483.906 452.871L503.558 464.191L503.539 464.179L504.062 464.5L504.597 464.191L522.114 454.085L524.5 452.688V429.138L524.218 428.979L507.063 419.057L504.597 417.626L524.218 406.29L543.87 417.626L544.374 417.953L544.909 417.626L564.513 406.29L584.166 417.626L584.669 417.953L585.205 417.626L604.824 406.29L624.461 417.626L614.773 423.214L604.824 428.979L604.58 429.118V429.727V452.416V452.724L604.824 452.871L624.461 464.191L624.964 464.5L625.516 464.191L645.121 452.871L645.396 452.688V452.416V429.727V429.143L645.121 428.979L631.796 421.265L625.516 417.626L645.121 406.29L664.773 417.626L665.275 417.953L665.812 417.626L685.431 406.29L705.068 417.626L705.6 417.938L706.123 417.626L725.5 406.434V382.253L706.106 371.061L725.5 359.837V335.688L712.403 328.12L706.123 324.481L725.5 313.289V289.107L706.123 277.894L725.5 266.708V242.551L706.106 231.344L725.5 220.135V195.97L712.403 188.378L706.123 184.765L725.5 173.571V149.397L706.106 138.192L725.5 126.984V102.833L716.671 97.7105L706.106 91.6116L725.5 80.4195V56.2531L712.403 48.6702L706.123 45.0391L725.5 33.847V9.68822L716.671 4.56557L709.956 0.688477H708.884L725.191 10.112L705.57 21.4555L685.951 10.112L702.284 0.688477H701.236L695.395 4.06154L685.431 9.81912L676.376 4.56557L669.65 0.688477H668.578L684.912 10.112L665.275 21.4555L645.656 10.112L661.975 0.688477H660.935L655.085 4.06154L645.121 9.81912L636.064 4.56557L629.349 0.688477H628.27L644.618 10.112L624.964 21.4555L605.361 10.112L621.667 0.688477H620.623L614.773 4.06154L604.824 9.81912L595.768 4.56557L589.043 0.688477H587.975L604.322 10.112L584.669 21.4555L565.065 10.112L581.372 0.688477H580.328L574.478 4.06154L564.513 9.81912L555.473 4.56557L548.748 0.688477H547.677L564.01 10.112L544.358 21.4555L524.753 10.112L541.074 0.688477H540.021L536.697 2.59943L524.218 9.81912L521.475 8.21932L508.43 0.688477H507.362L508.93 1.59368L523.698 10.112L504.062 21.4555L484.458 10.112L500.765 0.688477H499.721L493.87 4.06154L483.937 9.81912L474.852 4.56557L468.135 0.688477H467.056L483.403 10.112L463.75 21.4555L444.146 10.112L460.453 0.688477H459.407L456.091 2.59943L443.628 9.81912L440.867 8.21932L427.823 0.688477H426.776L428.339 1.59368L443.107 10.112L423.487 21.4555L403.834 10.112L420.181 0.688477H419.092L418.392 1.08965L403.331 9.81912L389.018 1.54522L387.532 0.688477H386.476L402.795 10.112L383.176 21.4555L363.539 10.112L379.873 0.688477H378.813L370.437 5.53196L363.036 9.81912L356.398 5.97091L347.226 0.688477H346.178L362.484 10.112L342.881 21.4555L323.227 10.112L339.575 0.688477H338.506L322.725 9.81912L312.762 4.06154L306.92 0.688477H305.872L322.205 10.112L302.569 21.4555L282.932 10.112L299.266 0.688477H298.211L292.361 4.06154L282.5 9.77845V9.68822L273.671 4.56557L266.956 0.688477H266.634H265.884H265.573L281.893 10.112L262.5 21.3048V21.4149L242.951 10.112L259.284 0.688477H258.236L252.395 4.06154L242.431 9.81912L233.376 4.56557L226.65 0.688477H225.578L241.912 10.112L222.275 21.4555L202.656 10.112L218.975 0.688477H217.935L212.085 4.06154L202.121 9.81912L193.064 4.56557L186.349 0.688477H185.27L201.618 10.112L181.964 21.4555L162.361 10.112L178.667 0.688477H177.623L171.773 4.06154L161.824 9.81912L152.768 4.56557L146.043 0.688477H144.975L161.322 10.112L141.669 21.4555L122.065 10.112L138.372 0.688477H137.328L131.478 4.06154L121.513 9.81912L112.473 4.56557L105.748 0.688477H104.677L121.01 10.112L101.358 21.4555L81.7534 10.112L98.0739 0.688477H97.0209L93.6965 2.59943L81.218 9.81912L78.4746 8.21932L65.4302 0.688477H64.362L65.9296 1.59368L80.6978 10.112L61.0621 21.4555L41.4581 10.112L57.7648 0.688477H56.7206L50.8703 4.06154L40.9371 9.81912L31.8516 4.56557L25.1353 0.688477H24.0556L40.4025 10.112L20.7502 21.4555L1.14549 10.112L17.4528 0.688477H16.4068L13.0908 2.59943L0.628265 9.81912L0.351501 9.97641ZM262.5 45.3972L242.951 56.6845L262.5 67.9798V67.8932L281.893 56.6845L262.5 45.4773V45.3972ZM262.5 91.963L242.951 103.274L262.5 114.559V114.458L281.893 103.274L262.5 92.0437V91.963ZM262.5 138.532L252.639 144.241L242.951 149.837L262.5 161.125V161.047L281.893 149.837L272.205 144.241L262.5 138.622V138.532ZM262.5 185.115L252.639 190.814L242.951 196.402L262.5 207.696V207.611L281.893 196.402L272.205 190.814L262.5 185.195V185.115ZM262.5 231.695L252.639 237.386L242.951 242.974L262.5 254.269V254.184L281.893 242.974L272.205 237.386L262.5 231.776V231.695ZM262.5 278.268L242.951 289.579L262.5 300.842V300.757L281.893 289.579L262.5 278.349V278.268ZM262.5 324.841L252.639 330.556L242.951 336.127L262.5 347.414V347.335L281.893 336.127L272.205 330.556L262.5 324.921V324.841ZM262.5 371.395L242.951 382.708L262.5 393.994V393.9L281.893 382.708L262.5 371.485V371.395ZM282.5 56.3426V56.2531L269.403 48.6702L263.123 45.0391L282.5 33.847V33.7506L302.05 45.0391L292.361 50.6264L282.5 56.3426ZM282.5 102.923V102.833L273.671 97.7105L263.106 91.6116L282.5 80.4195V80.308L302.05 91.6116L282.5 102.923ZM282.5 149.488V149.397L263.106 138.192L282.5 126.984V126.904L302.05 138.192L292.361 143.779L282.5 149.488ZM282.5 196.06V195.97L269.403 188.378L263.123 184.765L282.5 173.571V173.46L302.05 184.765L292.361 190.368L282.5 196.06ZM282.5 242.641V242.551L263.106 231.344L282.5 220.135V220.025L302.05 231.344L292.361 236.932L282.5 242.641ZM282.5 289.197V289.107L263.123 277.894L282.5 266.708V266.613L302.05 277.894L282.5 289.197ZM282.5 335.778V335.688L269.403 328.12L263.123 324.481L282.5 313.289V313.169L302.05 324.481L292.361 330.07L282.5 335.778ZM282.5 382.342V382.253L263.106 371.061L282.5 359.837V359.734L302.05 371.061L292.361 376.65L282.5 382.342ZM282.137 10.7652L262.862 21.8951V44.4017L282.137 33.256V10.7652ZM242.706 10.5653V33.256L262.327 44.5918V21.8951L242.706 10.5653ZM242.188 10.5653L222.551 21.8951V44.5918L242.188 33.256V10.5653ZM202.396 10.5653V33.256L222.032 44.5918V21.8951L202.396 10.5653ZM201.876 10.5653L182.256 21.8951V44.5918L201.876 33.256V10.5653ZM162.1 10.5653V33.256L181.72 44.5918V21.8951L162.1 10.5653ZM161.58 10.5653L141.96 21.8951V44.5918L161.58 33.256V10.5653ZM121.804 10.5653V33.256L141.425 44.5918V21.8951L121.804 10.5653ZM121.27 10.5653L101.65 21.8951V44.5918L121.27 33.256V10.5653ZM81.5091 10.5653V33.256L101.113 44.5918V21.8951L81.5091 10.5653ZM80.9571 10.5653L61.3381 21.8951V44.5918L80.9571 33.256V10.5653ZM41.1988 10.5653V33.256L60.8178 44.5918V21.8951L41.1988 10.5653ZM40.6619 10.5653L21.0428 21.8951V44.5918L40.6619 33.256V10.5653ZM0.886871 10.5653V33.256L20.5067 44.5918V21.8951L0.886871 10.5653ZM222.812 45.0391L229.092 48.6702L242.431 56.3833L252.395 50.6264L262.068 45.0474L242.431 33.7101L222.812 45.0391ZM182.516 45.0391L188.796 48.6702L202.121 56.3833L212.085 50.6264L221.773 45.0474L202.121 33.7101L182.516 45.0391ZM142.205 45.0391L148.485 48.6702L161.824 56.3833L171.773 50.6264L181.461 45.0474L161.824 33.7101L142.205 45.0391ZM101.909 45.0391L108.189 48.6702L121.513 56.3833L131.478 50.6264L141.166 45.0474L121.513 33.7101L101.909 45.0391ZM61.5974 45.0391L64.0626 46.4846L81.218 56.3833L100.87 45.0474L81.218 33.7101L61.5974 45.0391ZM222.275 45.3471L202.656 56.6845L222.275 68.0203L241.929 56.6845L222.275 45.3471ZM181.964 45.3471L162.361 56.6845L181.964 68.0203L201.633 56.6845L181.964 45.3471ZM141.669 45.3471L122.065 56.6845L141.669 68.0203L161.322 56.6845L141.669 45.3471ZM101.374 45.3471L81.7534 56.6845L101.358 68.0203L121.01 56.6845L101.374 45.3471ZM61.0621 45.3471L41.4407 56.6845L61.0621 68.0203L80.6978 56.6845L65.9296 48.1661L61.0621 45.3471ZM282.137 57.3387L262.862 68.4843V90.966L282.137 79.8285V57.3387ZM242.706 57.1386V79.8285L262.327 91.156V68.4843L242.706 57.1386ZM242.188 57.1386L222.551 68.4843V91.156L242.188 79.8285V57.1386ZM202.396 57.1386V79.8285L222.032 91.156V68.4843L202.396 57.1386ZM201.876 57.1386L182.256 68.4843V91.156L201.876 79.8285V57.1386ZM162.1 57.1386V79.8285L181.72 91.156V68.4843L162.1 57.1386ZM161.58 57.1386L141.96 68.4843V91.156L161.58 79.8285V57.1386ZM121.804 57.1386V79.8285L141.425 91.156V68.4843L121.804 57.1386ZM121.27 57.1386L101.65 68.4843V91.156L121.27 79.8285V57.1386ZM80.9571 57.1386L61.3381 68.4843V91.156L80.9571 79.8285V57.1386ZM41.1988 57.1386V79.8285L60.8178 91.156V68.4843L41.1988 57.1386ZM81.5091 57.1552V79.8285L101.113 91.156V68.4843L81.5091 57.1552ZM222.795 91.6116L233.376 97.7105L242.431 102.964L262.085 91.6116L242.431 80.2674L222.795 91.6116ZM182.516 91.6116L193.064 97.7105L202.121 102.964L221.773 91.6116L202.121 80.2674L182.516 91.6116ZM142.205 91.6116L152.768 97.7105L161.824 102.964L181.477 91.6116L161.824 80.2674L142.205 91.6116ZM101.909 91.6116L112.473 97.7105L121.513 102.964L141.183 91.6116L121.513 80.2674L101.909 91.6116ZM61.5974 91.6116L78.4746 101.373L81.218 102.964L87.9367 99.0826L100.87 91.6116L81.218 80.2674L61.5974 91.6116ZM21.3022 91.6116L31.8516 97.7105L40.9371 102.964L60.5585 91.6116L40.9061 80.2674L21.3022 91.6116ZM222.275 91.9128L202.656 103.274L222.275 114.609L241.929 103.274L225.083 93.5361L222.275 91.9128ZM181.964 91.9128L162.361 103.274L181.964 114.609L201.633 103.274L184.787 93.5361L181.964 91.9128ZM141.669 91.9128L122.065 103.274L141.669 114.609L161.322 103.274L144.476 93.5361L141.669 91.9128ZM101.374 91.9128L81.7534 103.274L101.374 114.609L121.01 103.274L104.164 93.5361L101.374 91.9128ZM61.0621 91.9128L41.4407 103.274L61.0621 114.609L80.6978 103.274L62.8141 92.9276L61.0621 91.9128ZM20.7502 91.9128L1.12961 103.274L20.7502 114.609L40.4199 103.274L23.5738 93.5361L20.7502 91.9128ZM80.9571 103.711L61.3381 115.048V137.728L80.9571 126.393V103.711ZM282.137 103.919L262.862 115.048V137.538L282.137 126.393V103.919ZM242.706 103.719V126.393L262.327 137.728V115.048L242.706 103.719ZM242.188 103.719L222.551 115.048V137.728L242.188 126.393V103.719ZM202.396 103.719V126.393L222.032 137.728V115.048L202.396 103.719ZM201.876 103.719L182.256 115.048V137.728L201.876 126.393V103.719ZM162.1 103.719V126.393L181.72 137.728V115.048L162.1 103.719ZM161.58 103.719L141.96 115.048V137.728L161.58 126.393V103.719ZM121.804 103.719V126.393L141.425 137.728V115.048L121.804 103.719ZM121.27 103.719L101.65 115.048V137.728L121.27 126.393V103.719ZM81.5091 103.719V126.393L101.113 137.728V115.048L81.5091 103.719ZM41.1988 103.719V126.393L60.8178 137.728V115.048L41.1988 103.719ZM40.6619 103.719L21.0428 115.048V137.728L40.6619 126.393V103.719ZM0.886871 103.719V126.393L20.5067 137.728V115.048L0.886871 103.719ZM242.431 126.863L222.795 138.192L242.431 149.528L252.395 143.779L262.085 138.192L242.431 126.863ZM202.121 126.863L182.516 138.192L202.121 149.528L212.085 143.779L221.773 138.192L202.121 126.863ZM161.824 126.863L142.205 138.192L161.824 149.528L171.773 143.779L181.477 138.192L161.824 126.863ZM121.513 126.863L101.909 138.192L121.513 149.528L131.478 143.779L141.183 138.192L121.513 126.863ZM81.218 126.863L61.5974 138.192L81.218 149.528L100.87 138.192L81.218 126.863ZM212.343 144.241L202.656 149.837L222.275 161.165L241.912 149.837L239.575 148.464L222.275 138.491L212.343 144.241ZM172.049 144.241L162.361 149.837L181.964 161.165L201.618 149.837L199.264 148.464L181.964 138.491L172.049 144.241ZM131.737 144.241L122.065 149.837L141.669 161.165L161.322 149.837L158.952 148.464L141.669 138.491L131.737 144.241ZM98.2729 140.295L81.7534 149.837L101.358 161.165L121.01 149.837L118.657 148.464L101.358 138.491L98.2729 140.295ZM51.1297 144.241L41.4581 149.837L61.0621 161.165L80.6978 149.837L61.0621 138.491L51.1297 144.241ZM80.9571 150.275L61.3381 161.636V184.309L80.9571 172.982V150.275ZM282.137 150.484L262.862 161.636V184.119L282.137 172.982V150.484ZM242.706 150.284V172.982L262.327 184.309V161.636L242.706 150.284ZM242.188 150.284L222.551 161.636V184.309L242.188 172.982V150.284ZM202.396 150.284V172.982L222.032 184.309V161.636L202.396 150.284ZM201.876 150.284L182.256 161.636V184.309L201.876 172.982V150.284ZM162.1 150.284V172.982L181.72 184.309V161.636L162.1 150.284ZM161.58 150.284L141.96 161.636V184.309L161.58 172.982V150.284ZM121.804 150.284V172.982L141.425 184.309V161.636L121.804 150.284ZM121.27 150.284L101.65 161.636V184.309L121.27 172.982V150.284ZM81.5091 150.284V172.982L101.113 184.309V161.636L81.5091 150.284ZM41.1988 150.284V172.982L60.8178 184.309V161.636L41.1988 150.284ZM222.812 184.765L229.092 188.378L242.431 196.101L252.395 190.368L262.068 184.765L242.431 173.427L222.812 184.765ZM182.516 184.765L188.796 188.378L202.121 196.101L212.085 190.368L221.773 184.765L202.121 173.427L182.516 184.765ZM142.205 184.765L148.485 188.378L161.824 196.101L171.773 190.368L181.461 184.765L161.824 173.427L142.205 184.765ZM212.343 190.814L202.656 196.402L222.275 207.746L241.929 196.402L222.275 185.065L212.343 190.814ZM172.049 190.814L162.361 196.402L181.964 207.746L201.633 196.402L181.964 185.065L172.049 190.814ZM131.737 190.814L122.065 196.402L141.669 207.746L161.322 196.402L141.669 185.065L131.737 190.814ZM282.137 197.064L262.862 208.2V230.692L282.137 219.546V197.064ZM242.706 196.864V219.546L262.327 230.882V208.2L242.706 196.864ZM242.188 196.864L222.551 208.2V230.882L242.188 219.546V196.864ZM202.396 196.864V219.546L222.032 230.882V208.2L202.396 196.864ZM201.876 196.864L182.256 208.2V230.882L201.876 219.546V196.864ZM162.1 196.864V219.546L181.72 230.882V208.2L162.1 196.864ZM161.58 196.864L141.96 208.2V230.882L161.58 219.546V196.864ZM121.804 196.864V219.546L141.425 230.882V208.2L121.804 196.864ZM242.431 220.008L222.795 231.344L242.431 242.681L252.395 236.932L262.085 231.344L242.431 220.008ZM202.121 220.008L182.516 231.344L202.121 242.681L212.085 236.932L221.773 231.344L202.121 220.008ZM212.343 237.386L202.656 242.974L222.275 254.319L241.912 242.974L222.275 231.645L212.343 237.386ZM172.049 237.386L162.361 242.974L181.964 254.319L201.618 242.974L181.964 231.645L172.049 237.386ZM282.137 243.637L262.862 254.773V277.273L282.137 266.102V243.637ZM242.706 243.437V266.102L262.327 277.463V254.773L242.706 243.437ZM242.188 243.437L222.551 254.773V277.463L242.188 266.102V243.437ZM202.396 243.437V266.102L222.032 277.463V254.773L202.396 243.437ZM201.876 243.437L182.256 254.773V277.463L201.876 266.102V243.437ZM162.1 243.437V266.102L181.72 277.463V254.773L162.1 243.437ZM242.431 266.572L222.812 277.894L242.431 289.238L262.068 277.894L242.431 266.572ZM202.121 266.572L182.516 277.894L202.121 289.238L221.773 277.894L202.121 266.572ZM161.824 266.572L142.205 277.894L161.824 289.238L181.461 277.894L161.824 266.572ZM222.275 278.218L202.656 289.579L222.275 300.883L241.912 289.579L222.275 278.218ZM181.964 278.218L162.361 289.579L181.964 300.883L201.618 289.579L181.964 278.218ZM141.669 278.218L122.065 289.579L141.669 300.883L161.322 289.579L141.669 278.218ZM282.137 290.202L262.862 301.354V323.853L282.137 312.675V290.202ZM242.706 290.002V312.675L262.327 324.044V301.354L242.706 290.002ZM242.188 290.002L222.551 301.354V324.044L242.188 312.675V290.002ZM202.396 290.002V312.675L222.032 324.044V301.354L202.396 290.002ZM201.876 290.002L182.256 301.354V324.044L201.876 312.675V290.002ZM162.1 290.002V312.675L181.72 324.044V301.354L162.1 290.002ZM161.58 290.002L141.96 301.354V324.044L161.58 312.675V290.002ZM121.804 290.002V312.675L141.425 324.044V301.354L121.804 290.002ZM222.812 324.481L229.092 328.12L242.431 335.819L252.395 330.07L262.068 324.481L242.431 313.128L222.812 324.481ZM182.516 324.481L188.796 328.12L202.121 335.819L212.085 330.07L221.773 324.481L202.121 313.128L182.516 324.481ZM212.343 330.556L202.656 336.127L222.275 347.464L241.929 336.127L222.275 324.79L212.343 330.556ZM172.049 330.556L162.361 336.127L181.964 347.464L201.633 336.127L181.964 324.79L172.049 330.556ZM282.137 336.766L262.862 347.918V370.418L282.137 359.287V336.766ZM242.706 336.566V359.287L262.327 370.608V347.918L242.706 336.566ZM242.188 336.566L222.551 347.918V370.608L242.188 359.287V336.566ZM202.396 336.566V359.287L222.032 370.608V347.918L202.396 336.566ZM201.876 336.566L182.256 347.918V370.608L201.876 359.287V336.566ZM162.1 336.566V359.287L181.72 370.608V347.918L162.1 336.566ZM242.431 359.693L222.795 371.061L242.431 382.383L252.395 376.65L262.085 371.061L242.431 359.693ZM222.275 371.354L202.656 382.708L222.275 394.044L241.929 382.708L222.275 371.354ZM282.137 383.363L262.862 394.498V416.982L282.137 405.835V383.363ZM242.706 383.163V405.835L262.327 417.172V394.498L242.706 383.163ZM242.188 383.163L222.551 394.498V417.172L242.188 405.835V383.163ZM202.396 383.163V405.835L222.032 417.172V394.498L202.396 383.163ZM725.483 10.5653L705.862 21.8951V44.5918L725.483 33.256V10.5653ZM685.706 10.5653V33.256L705.327 44.5918V21.8951L685.706 10.5653ZM685.188 10.5653L665.551 21.8951V44.5918L685.188 33.256V10.5653ZM645.396 10.5653V33.256L665.032 44.5918V21.8951L645.396 10.5653ZM644.876 10.5653L625.256 21.8951V44.5918L644.876 33.256V10.5653ZM605.1 10.5653V33.256L624.72 44.5918V21.8951L605.1 10.5653ZM604.58 10.5653L584.96 21.8951V44.5918L604.58 33.256V10.5653ZM564.804 10.5653V33.256L584.425 44.5918V21.8951L564.804 10.5653ZM564.27 10.5653L544.65 21.8951V44.5918L564.27 33.256V10.5653ZM524.509 10.5653V33.256L544.113 44.5918V21.8951L524.509 10.5653ZM523.957 10.5653L504.338 21.8951V44.5918L523.957 33.256V10.5653ZM484.199 10.5653V33.256L503.818 44.5918V21.8951L484.199 10.5653ZM483.662 10.5653L464.043 21.8951V44.5918L483.662 33.256V10.5653ZM443.887 10.5653V33.256L463.507 44.5918V21.8951L443.887 10.5653ZM443.352 10.5653L423.748 21.8951V44.5918L443.352 33.256V10.5653ZM403.592 10.5653L403.575 33.256L423.211 44.5918V21.8951L403.592 10.5653ZM403.071 10.5653L383.436 21.8951V44.5918L403.071 33.256V10.5653ZM363.296 10.5653V33.256L382.915 44.5918V21.8951L363.296 10.5653ZM362.759 10.5653L343.124 21.8951V44.5918L362.759 33.256V10.5653ZM322.984 10.5653V33.256L342.606 44.5918V21.8951L322.984 10.5653ZM322.449 10.5653L302.828 21.8951V44.5918L322.449 33.256V10.5653ZM282.673 10.5653V33.256L302.308 44.5918V21.8951L282.673 10.5653ZM665.812 45.0391L672.092 48.6702L685.431 56.3833L695.395 50.6264L705.068 45.0474L685.431 33.7101L665.812 45.0391ZM625.516 45.0391L631.796 48.6702L645.121 56.3833L655.085 50.6264L664.773 45.0474L645.121 33.7101L625.516 45.0391ZM585.205 45.0391L591.485 48.6702L604.824 56.3833L614.773 50.6264L624.461 45.0474L604.824 33.7101L585.205 45.0391ZM544.909 45.0391L551.189 48.6702L564.513 56.3833L574.478 50.6264L584.166 45.0474L564.513 33.7101L544.909 45.0391ZM504.597 45.0391L507.063 46.4846L524.218 56.3833L543.87 45.0474L524.218 33.7101L504.597 45.0391ZM464.302 45.0391L470.598 48.6702L483.937 56.3833L493.87 50.6264L503.558 45.0474L483.906 33.7101L464.302 45.0391ZM423.99 45.0391L426.457 46.4846L443.642 56.3833L463.247 45.0474L443.628 33.7101L423.99 45.0391ZM383.695 45.0391L397.732 53.1609L403.331 56.3833L406.561 54.5163L422.952 45.0391L403.331 33.7101L383.695 45.0391ZM363.02 33.7101L343.383 45.0474L363.036 56.3833L382.657 45.0474L363.02 33.7101ZM303.088 45.0391L312.762 50.6264L322.74 56.3833L342.345 45.0391L322.725 33.7101L303.088 45.0391ZM705.587 45.3471L685.951 56.6845L705.57 68.0203L725.191 56.6845L705.587 45.3471ZM665.275 45.3471L645.656 56.6845L665.275 68.0203L684.929 56.6845L665.275 45.3471ZM624.964 45.3471L605.361 56.6845L624.964 68.0203L644.633 56.6845L624.964 45.3471ZM584.669 45.3471L565.065 56.6845L584.669 68.0203L604.322 56.6845L584.669 45.3471ZM544.374 45.3471L524.753 56.6845L544.358 68.0203L564.01 56.6845L544.374 45.3471ZM504.062 45.3471L484.441 56.6845L504.062 68.0203L523.698 56.6845L508.93 48.1661L504.062 45.3471ZM463.75 45.3471L444.13 56.6845L463.75 68.0203L483.42 56.6845L463.75 45.3471ZM423.487 45.3471L403.834 56.6845L423.487 68.0203L443.107 56.6845L428.339 48.1661L423.487 45.3471ZM383.176 45.3471L363.539 56.6845L383.176 68.0203L402.812 56.6845L383.176 45.3471ZM342.881 45.3471L323.227 56.6845L342.881 68.0203L362.517 56.6845L342.881 45.3471ZM302.569 45.3471L282.932 56.6845L302.569 68.0203L322.205 56.6845L302.569 45.3471ZM725.483 57.1386L705.862 68.4843V91.156L725.483 79.8285V57.1386ZM685.706 57.1386V79.8285L705.327 91.156V68.4843L685.706 57.1386ZM685.188 57.1386L665.551 68.4843V91.156L685.188 79.8285V57.1386ZM645.396 57.1386V79.8285L665.032 91.156V68.4843L645.396 57.1386ZM644.876 57.1386L625.256 68.4843V91.156L644.876 79.8285V57.1386ZM605.1 57.1386V79.8285L624.72 91.156V68.4843L605.1 57.1386ZM604.58 57.1386L584.96 68.4843V91.156L604.58 79.8285V57.1386ZM564.804 57.1386V79.8285L584.425 91.156V68.4843L564.804 57.1386ZM564.27 57.1386L544.65 68.4843V91.156L564.27 79.8285V57.1386ZM523.957 57.1386L504.338 68.4843V91.156L523.957 79.8285V57.1386ZM484.199 57.1386V79.8285L503.818 91.156V68.4843L484.199 57.1386ZM483.662 57.1386L464.043 68.4843V91.156L483.662 79.8285V57.1386ZM443.352 57.1386L423.748 68.4843V91.156L443.352 79.8285V57.1386ZM403.592 57.1386L403.575 79.8285L423.211 91.156V68.4843L403.592 57.1386ZM403.071 57.1386L383.436 68.4843V91.156L403.071 79.8285V57.1386ZM363.296 57.1386V79.8285L382.915 91.156V68.4843L363.296 57.1386ZM322.449 57.1386L302.828 68.4843V91.156L322.449 79.8285V57.1386ZM282.673 57.1386V79.8285L302.308 91.156V68.4843L282.673 57.1386ZM524.509 57.1552V79.8285L544.113 91.156V68.4843L524.509 57.1552ZM443.887 57.1552V79.8285L463.507 91.156V68.4843L443.887 57.1552ZM362.759 57.1552L343.124 68.4843V91.156L362.759 79.8285V57.1552ZM322.984 57.1552V79.8285L342.606 91.156V68.4843L322.984 57.1552ZM665.795 91.6116L676.376 97.7105L685.431 102.964L705.085 91.6116L685.431 80.2674L665.795 91.6116ZM625.516 91.6116L636.064 97.7105L645.121 102.964L664.773 91.6116L645.121 80.2674L625.516 91.6116ZM585.205 91.6116L595.768 97.7105L604.824 102.964L624.478 91.6116L604.824 80.2674L585.205 91.6116ZM544.909 91.6116L555.473 97.7105L564.513 102.964L584.183 91.6116L564.513 80.2674L544.909 91.6116ZM504.597 91.6116L521.475 101.373L524.218 102.964L530.937 99.0826L543.87 91.6116L524.218 80.2674L504.597 91.6116ZM464.302 91.6116L474.852 97.7105L483.937 102.964L503.558 91.6116L483.906 80.2674L464.302 91.6116ZM423.99 91.6116L440.867 101.373L443.628 102.964L450.345 99.0826L463.263 91.6116L443.628 80.2674L423.99 91.6116ZM383.678 91.6116L389.018 94.697L403.331 102.964L422.952 91.6116L403.331 80.2674L383.678 91.6116ZM343.383 91.6116L356.398 99.1226L363.036 102.964L382.657 91.6116L363.02 80.2674L343.383 91.6116ZM322.725 80.2674L303.088 91.6116L322.74 102.964L334.766 95.9888L342.345 91.6116L322.725 80.2674ZM705.587 91.9128L685.951 103.274L705.587 114.609L725.191 103.274L708.379 93.5361L705.587 91.9128ZM665.275 91.9128L645.656 103.274L665.275 114.609L684.929 103.274L668.083 93.5361L665.275 91.9128ZM624.964 91.9128L605.361 103.274L624.964 114.609L644.633 103.274L627.787 93.5361L624.964 91.9128ZM584.669 91.9128L565.065 103.274L584.669 114.609L604.322 103.274L587.476 93.5361L584.669 91.9128ZM544.374 91.9128L524.753 103.274L544.374 114.609L564.01 103.274L547.164 93.5361L544.374 91.9128ZM504.062 91.9128L484.441 103.274L504.062 114.609L523.698 103.274L505.814 92.9276L504.062 91.9128ZM463.75 91.9128L444.13 103.274L463.75 114.609L483.42 103.274L466.574 93.5361L463.75 91.9128ZM423.487 91.9128L403.834 103.274L423.487 114.601L443.107 103.274L425.192 92.9276L423.487 91.9128ZM383.191 91.9128L363.539 103.274L383.191 114.609L402.812 103.274L392.215 97.1588L383.191 91.9128ZM330.806 98.888L323.227 103.274L342.881 114.601L362.517 103.274L349.486 95.7527L342.881 91.9128L330.806 98.888ZM302.569 91.9128L282.932 103.274L302.569 114.609L322.205 103.274L302.569 91.9128ZM523.957 103.711L504.338 115.048V137.728L523.957 126.393V103.711ZM443.352 103.711L423.748 115.048V137.728L443.352 126.393V103.711ZM725.483 103.719L705.862 115.048V137.728L725.483 126.393V103.719ZM685.706 103.719V126.393L705.327 137.728V115.048L685.706 103.719ZM685.188 103.719L665.551 115.048V137.728L685.188 126.393V103.719ZM645.396 103.719V126.393L665.032 137.728V115.048L645.396 103.719ZM644.876 103.719L625.256 115.048V137.728L644.876 126.393V103.719ZM605.1 103.719V126.393L624.72 137.728V115.048L605.1 103.719ZM604.58 103.719L584.96 115.048V137.728L604.58 126.393V103.719ZM564.804 103.719V126.393L584.425 137.728V115.048L564.804 103.719ZM564.27 103.719L544.65 115.048V137.728L564.27 126.393V103.719ZM524.509 103.719V126.393L544.113 137.728V115.048L524.509 103.719ZM484.199 103.719V126.393L503.818 137.728V115.048L484.199 103.719ZM483.662 103.719L464.043 115.048V137.728L483.662 126.393V103.719ZM443.887 103.719V126.393L463.507 137.728V115.048L443.887 103.719ZM403.592 103.719L403.575 126.393L423.211 137.728V115.048L403.592 103.719ZM403.071 103.719L383.436 115.048V137.728L403.071 126.393V103.719ZM363.296 103.719V126.393L382.915 137.728V115.048L363.296 103.719ZM362.759 103.719L343.124 115.048V137.728L362.759 126.393V103.719ZM322.984 103.719V126.393L342.606 137.728V115.048L322.984 103.719ZM322.449 103.719L302.828 115.048V137.728L322.449 126.393V103.719ZM282.673 103.719V126.393L302.308 137.728V115.048L282.673 103.719ZM685.431 126.863L665.795 138.192L685.431 149.528L695.395 143.779L705.085 138.192L685.431 126.863ZM645.121 126.863L625.516 138.192L645.121 149.528L655.085 143.779L664.773 138.192L645.121 126.863ZM604.824 126.863L585.205 138.192L604.824 149.528L614.773 143.779L624.478 138.192L604.824 126.863ZM564.513 126.863L544.909 138.192L564.513 149.528L574.478 143.779L584.183 138.192L564.513 126.863ZM524.218 126.863L504.597 138.192L524.218 149.528L543.87 138.192L524.218 126.863ZM483.937 126.863L464.302 138.192L483.937 149.528L493.87 143.779L503.558 138.192L483.937 126.863ZM443.642 126.863L423.99 138.192L443.628 149.528L463.263 138.192L443.642 126.863ZM403.331 126.863L383.678 138.192L403.331 149.528L406.334 147.782L422.952 138.192L403.331 126.863ZM343.383 138.192L350.67 142.407L363.036 149.528L382.657 138.192L363.036 126.863L343.383 138.192ZM303.088 138.192L312.762 143.779L322.74 149.528L342.345 138.192L322.725 126.863L303.088 138.192ZM695.639 144.241L685.951 149.837L705.57 161.165L725.191 149.837L722.871 148.464L705.57 138.491L695.639 144.241ZM655.343 144.241L645.656 149.837L665.275 161.165L684.912 149.837L682.576 148.464L665.275 138.491L655.343 144.241ZM615.049 144.241L605.361 149.837L624.964 161.165L644.618 149.837L642.264 148.464L624.964 138.491L615.049 144.241ZM574.737 144.241L565.065 149.837L584.669 161.165L604.322 149.837L601.952 148.464L584.669 138.491L574.737 144.241ZM541.273 140.295L524.753 149.837L544.358 161.165L564.01 149.837L561.657 148.464L544.358 138.491L541.273 140.295ZM494.13 144.241L484.458 149.837L504.062 161.165L523.698 149.837L504.062 138.491L494.13 144.241ZM460.651 140.295L444.146 149.837L463.75 161.165L483.403 149.837L481.05 148.464L463.75 138.491L460.651 140.295ZM413.523 144.241L403.834 149.837L423.487 161.165L443.107 149.837L423.487 138.491L413.523 144.241ZM366.509 148.123L363.539 149.837L383.176 161.165L402.795 149.837L396.726 146.312L383.176 138.491L366.509 148.123ZM342.881 138.491L323.227 149.837L342.881 161.165L362.484 149.837L353.737 144.779L342.881 138.491ZM285.901 148.123L282.932 149.837L302.569 161.165L322.205 149.837L312.517 144.241L302.569 138.491L285.901 148.123ZM523.957 150.275L504.338 161.636V184.309L523.957 172.982V150.275ZM443.352 150.275L423.748 161.636V184.309L443.352 172.982V150.275ZM725.483 150.284L705.862 161.636V184.309L725.483 172.982V150.284ZM685.706 150.284V172.982L705.327 184.309V161.636L685.706 150.284ZM685.188 150.284L665.551 161.636V184.309L685.188 172.982V150.284ZM645.396 150.284V172.982L665.032 184.309V161.636L645.396 150.284ZM644.876 150.284L625.256 161.636V184.309L644.876 172.982V150.284ZM605.1 150.284V172.982L624.72 184.309V161.636L605.1 150.284ZM604.58 150.284L584.96 161.636V184.309L604.58 172.982V150.284ZM564.804 150.284V172.982L584.425 184.309V161.636L564.804 150.284ZM564.27 150.284L544.65 161.636V184.309L564.27 172.982V150.284ZM524.509 150.284V172.982L544.113 184.309V161.636L524.509 150.284ZM484.199 150.284V172.982L503.818 184.309V161.636L484.199 150.284ZM483.662 150.284L464.043 161.636V184.309L483.662 172.982V150.284ZM443.887 150.284V172.982L463.507 184.309V161.636L443.887 150.284ZM403.592 150.284L403.575 172.982L423.211 184.309V161.636L403.592 150.284ZM403.071 150.284L383.436 161.636V184.309L403.071 172.982V150.284ZM363.296 150.284V172.982L382.915 184.318V161.636L363.296 150.284ZM362.759 150.284L343.124 161.636V184.318L362.759 172.982V150.284ZM322.984 150.284V172.982L342.606 184.309V161.636L322.984 150.284ZM322.449 150.284L302.828 161.636V184.309L322.449 172.982V150.284ZM282.673 150.284V172.982L302.308 184.309V161.636L282.673 150.284ZM464.302 184.765L470.598 188.378L483.937 196.101L493.87 190.368L503.558 184.765L483.906 173.419L464.302 184.765ZM383.695 184.765L397.732 192.878L403.331 196.101L406.561 194.242L422.952 184.765L403.331 173.419L383.695 184.765ZM303.088 184.765L312.762 190.368L322.74 196.101L342.345 184.765L322.725 173.419L303.088 184.765ZM665.812 184.765L672.092 188.378L685.431 196.101L695.395 190.368L705.068 184.765L685.431 173.427L665.812 184.765ZM625.516 184.765L631.796 188.378L645.121 196.101L655.085 190.368L664.773 184.765L645.121 173.427L625.516 184.765ZM585.205 184.765L591.485 188.378L604.824 196.101L614.773 190.368L624.461 184.765L604.824 173.427L585.205 184.765ZM544.909 184.765L551.189 188.378L564.513 196.101L574.478 190.368L584.166 184.765L564.513 173.427L544.909 184.765ZM504.597 184.765L507.063 186.194L524.218 196.101L543.87 184.765L524.218 173.427L504.597 184.765ZM423.99 184.765L426.457 186.194L443.642 196.101L463.247 184.765L443.628 173.427L423.99 184.765ZM363.02 173.427L343.383 184.765L363.036 196.101L382.657 184.765L363.02 173.427ZM695.639 190.814L685.951 196.402L705.587 207.746L725.191 196.402L705.587 185.065L695.639 190.814ZM655.343 190.814L645.656 196.402L665.275 207.746L684.929 196.402L665.275 185.065L655.343 190.814ZM615.049 190.814L605.361 196.402L624.964 207.746L644.633 196.402L624.964 185.065L615.049 190.814ZM574.737 190.814L565.065 196.402L584.669 207.746L604.322 196.402L584.669 185.065L574.737 190.814ZM541.5 186.746L524.753 196.402L544.374 207.746L564.01 196.402L544.374 185.065L541.5 186.746ZM494.13 190.814L484.441 196.402L504.062 207.746L523.698 196.402L508.93 187.884L504.062 185.065L494.13 190.814ZM460.893 186.746L444.13 196.402L463.75 207.746L483.42 196.402L463.75 185.065L460.893 186.746ZM413.523 190.814L403.834 196.402L423.487 207.746L443.107 196.402L428.339 187.884L423.487 185.065L413.523 190.814ZM366.314 194.819L363.539 196.402L383.191 207.746L402.812 196.402L383.191 185.065L366.314 194.819ZM342.881 185.065L323.227 196.402L342.881 207.746L362.517 196.402L342.881 185.065ZM285.707 194.819L282.932 196.402L302.569 207.746L322.205 196.402L312.517 190.814L302.569 185.065L285.707 194.819ZM725.483 196.864L705.862 208.2V230.882L725.483 219.546V196.864ZM685.706 196.864V219.546L705.327 230.882V208.2L685.706 196.864ZM685.188 196.864L665.551 208.2V230.882L685.188 219.546V196.864ZM645.396 196.864V219.546L665.032 230.882V208.2L645.396 196.864ZM644.876 196.864L625.256 208.2V230.882L644.876 219.546V196.864ZM605.1 196.864V219.546L624.72 230.882V208.2L605.1 196.864ZM604.58 196.864L584.96 208.2V230.882L604.58 219.546V196.864ZM564.804 196.864V219.546L584.425 230.882V208.2L564.804 196.864ZM564.27 196.864L544.65 208.2V230.882L564.27 219.546V196.864ZM523.957 196.864L504.338 208.2V230.882L523.957 219.546V196.864ZM484.199 196.864V219.546L503.818 230.882V208.2L484.199 196.864ZM483.662 196.864L464.043 208.2V230.882L483.662 219.546V196.864ZM443.352 196.864L423.748 208.2V230.882L443.352 219.546V196.864ZM403.592 196.864L403.575 219.546L423.211 230.882V208.2L403.592 196.864ZM403.071 196.864L383.436 208.2V230.882L403.071 219.546V196.864ZM363.296 196.864V219.546L382.915 230.882V208.2L363.296 196.864ZM322.449 196.864L302.828 208.2V230.882L322.449 219.546V196.864ZM282.673 196.864V219.546L302.308 230.882V208.2L282.673 196.864ZM524.509 196.873V219.546L544.113 230.882V208.2L524.509 196.873ZM443.887 196.873V219.546L463.507 230.882V208.2L443.887 196.873ZM362.759 196.873L343.124 208.2V230.882L362.759 219.546V196.873ZM322.984 196.873V219.546L342.606 230.882V208.2L322.984 196.873ZM483.906 219.984L464.302 231.344L483.937 242.681L493.87 236.932L503.558 231.344L483.906 219.984ZM403.331 219.984L383.678 231.344L403.331 242.681L406.334 240.935L422.952 231.344L403.331 219.984ZM303.088 231.344L312.762 236.932L322.74 242.681L342.345 231.344L322.725 219.984L303.088 231.344ZM685.431 220.008L665.795 231.344L685.431 242.681L695.395 236.932L705.085 231.344L685.431 220.008ZM645.121 220.008L625.516 231.344L645.121 242.681L655.085 236.932L664.773 231.344L645.121 220.008ZM604.824 220.008L585.205 231.344L604.824 242.681L614.773 236.932L624.478 231.344L604.824 220.008ZM564.513 220.008L544.909 231.344L564.513 242.681L574.478 236.932L584.183 231.344L564.513 220.008ZM524.218 220.008L504.597 231.344L524.218 242.681L543.87 231.344L524.218 220.008ZM443.628 220.008L423.99 231.344L443.628 242.681L463.263 231.344L443.628 220.008ZM343.383 231.344L350.67 235.544L363.036 242.681L382.657 231.344L363.02 220.008L343.383 231.344ZM695.639 237.386L685.951 242.974L705.587 254.319L725.191 242.974L705.587 231.645L695.639 237.386ZM655.343 237.386L645.656 242.974L665.275 254.319L684.912 242.974L665.275 231.645L655.343 237.386ZM615.049 237.386L605.361 242.974L624.964 254.319L644.618 242.974L624.964 231.645L615.049 237.386ZM574.737 237.386L565.065 242.974L584.669 254.319L604.322 242.974L584.669 231.645L574.737 237.386ZM541.273 233.431L524.753 242.974L544.374 254.319L564.01 242.974L544.374 231.645L541.273 233.431ZM494.13 237.386L484.458 242.974L504.062 254.319L523.698 242.966L508.881 234.423L504.062 231.645L494.13 237.386ZM460.651 233.431L444.146 242.974L463.75 254.319L483.403 242.974L463.75 231.645L460.651 233.431ZM413.523 237.386L403.834 242.974L423.487 254.319L443.107 242.966L428.275 234.423L423.487 231.645L413.523 237.386ZM366.509 241.284L363.539 242.966L383.191 254.319L402.795 242.974L383.191 231.645L366.509 241.284ZM342.881 231.645L323.227 242.974L342.881 254.319L362.484 242.974L342.881 231.645ZM285.901 241.284L282.932 242.974L302.569 254.319L322.205 242.974L312.517 237.386L302.569 231.645L285.901 241.284ZM725.483 243.437L705.862 254.773V277.463L725.483 266.102V243.437ZM685.706 243.437V266.102L705.327 277.463V254.773L685.706 243.437ZM685.188 243.437L665.551 254.773V277.463L685.188 266.102V243.437ZM645.396 243.437V266.102L665.032 277.463V254.773L645.396 243.437ZM644.876 243.437L625.256 254.773V277.463L644.876 266.102V243.437ZM605.1 243.437V266.102L624.72 277.463V254.773L605.1 243.437ZM604.58 243.437L584.96 254.773V277.463L604.58 266.102V243.437ZM564.804 243.437V266.102L584.425 277.463V254.773L564.804 243.437ZM564.27 243.437L544.65 254.773V277.463L564.27 266.102V243.437ZM524.509 243.437V266.102L544.113 277.463V254.773L524.509 243.437ZM523.957 243.437L504.338 254.773V277.463L523.957 266.102V243.437ZM484.199 243.437V266.102L503.818 277.463V254.773L484.199 243.437ZM483.662 243.437L464.043 254.773V277.463L483.662 266.102V243.437ZM443.887 243.437V266.102L463.507 277.463V254.773L443.887 243.437ZM443.352 243.437L423.748 254.773V277.463L443.352 266.102V243.437ZM403.592 243.437L403.575 266.102L423.211 277.463V254.773L403.592 243.437ZM403.071 243.437L383.436 254.773V277.463L403.071 266.102V243.437ZM363.296 243.437V266.102L382.915 277.463V254.773L363.296 243.437ZM362.759 243.437L343.124 254.773V277.463L362.759 266.102V243.437ZM322.984 243.437V266.102L342.606 277.463V254.773L322.984 243.437ZM322.449 243.437L302.828 254.773V277.463L322.449 266.102V243.437ZM282.673 243.437V266.102L302.308 277.463V254.773L282.673 243.437ZM685.431 266.572L665.812 277.894L685.431 289.238L705.068 277.894L685.431 266.572ZM645.121 266.572L625.516 277.894L645.121 289.238L664.773 277.894L645.121 266.572ZM604.824 266.572L585.205 277.894L604.824 289.238L624.461 277.894L604.824 266.572ZM564.513 266.572L544.909 277.894L564.513 289.238L584.166 277.894L564.513 266.572ZM524.218 266.572L504.597 277.894L524.218 289.238L543.87 277.894L524.218 266.572ZM483.937 266.572L464.302 277.894L483.937 289.238L503.558 277.894L483.937 266.572ZM443.642 266.572L423.99 277.894L443.628 289.238L463.247 277.894L443.642 266.572ZM403.331 266.572L383.695 277.894L403.331 289.238L422.952 277.894L403.331 266.572ZM343.383 277.894L350.67 282.124L363.036 289.238L376.23 281.621L382.657 277.894L363.036 266.572L343.383 277.894ZM322.725 266.572L303.088 277.894L322.725 289.238L342.345 277.894L322.725 266.572ZM705.587 278.218L685.951 289.579L705.57 300.883L725.191 289.579L705.587 278.218ZM665.275 278.218L645.656 289.579L665.275 300.883L684.912 289.579L665.275 278.218ZM624.964 278.218L605.361 289.579L624.964 300.883L644.618 289.579L624.964 278.218ZM584.669 278.218L565.065 289.579L584.669 300.883L604.322 289.579L584.669 278.218ZM544.374 278.218L524.753 289.579L544.358 300.883L564.01 289.579L544.374 278.218ZM504.062 278.218L484.458 289.579L504.062 300.883L523.698 289.579L508.93 281.044L504.062 278.218ZM463.75 278.218L444.146 289.579L463.75 300.883L483.403 289.579L463.75 278.218ZM423.487 278.218L403.834 289.579L423.487 300.883L443.107 289.579L428.339 281.044L423.487 278.218ZM383.176 278.218L363.539 289.579L383.176 300.883L402.795 289.579L383.176 278.218ZM342.881 278.218L323.227 289.579L342.881 300.883L362.484 289.579L342.881 278.218ZM302.569 278.218L282.932 289.579L302.569 300.883L322.205 289.579L302.569 278.218ZM725.483 290.002L705.862 301.354V324.044L725.483 312.675V290.002ZM685.706 290.002V312.675L705.327 324.044V301.354L685.706 290.002ZM685.188 290.002L665.551 301.354V324.044L685.188 312.675V290.002ZM645.396 290.002V312.675L665.032 324.044V301.354L645.396 290.002ZM644.876 290.002L625.256 301.354V324.044L644.876 312.675V290.002ZM605.1 290.002V312.675L624.72 324.044V301.354L605.1 290.002ZM604.58 290.002L584.96 301.354V324.044L604.58 312.675V290.002ZM564.804 290.002V312.675L584.425 324.044V301.354L564.804 290.002ZM564.27 290.002L544.65 301.354V324.044L564.27 312.675V290.002ZM524.509 290.002V312.675L544.113 324.044V301.354L524.509 290.002ZM523.957 290.002L504.338 301.354V324.044L523.957 312.675V290.002ZM484.199 290.002V312.675L503.818 324.044V301.354L484.199 290.002ZM483.662 290.002L464.043 301.354V324.044L483.662 312.675V290.002ZM443.887 290.002V312.675L463.507 324.044V301.354L443.887 290.002ZM443.352 290.002L423.748 301.354V324.044L443.352 312.675V290.002ZM403.592 290.002L403.575 312.675L423.211 324.044V301.354L403.592 290.002ZM403.071 290.002L383.436 301.354V324.044L403.071 312.675V290.002ZM363.296 290.002V312.675L382.915 324.044V301.354L363.296 290.002ZM362.759 290.002L343.124 301.354V324.044L362.759 312.675V290.002ZM322.984 290.002V312.675L342.606 324.044V301.354L322.984 290.002ZM322.449 290.002L302.828 301.354V324.044L322.449 312.675V290.002ZM282.673 290.002V312.675L302.308 324.044V301.354L282.673 290.002ZM665.812 324.481L672.092 328.12L685.431 335.819L695.395 330.07L705.068 324.481L685.431 313.128L665.812 324.481ZM625.516 324.481L631.796 328.12L645.121 335.819L655.085 330.07L664.773 324.481L645.121 313.128L625.516 324.481ZM585.205 324.481L591.485 328.12L604.824 335.819L614.773 330.07L624.461 324.481L604.824 313.128L585.205 324.481ZM544.909 324.481L551.189 328.12L564.513 335.819L574.478 330.07L584.166 324.481L564.513 313.128L544.909 324.481ZM504.597 324.481L507.063 325.911L524.218 335.819L543.87 324.481L524.218 313.128L504.597 324.481ZM464.302 324.481L470.598 328.12L483.937 335.819L493.87 330.07L503.558 324.481L483.937 313.128L464.302 324.481ZM423.99 324.481L426.457 325.911L443.642 335.819L463.247 324.481L443.642 313.128L423.99 324.481ZM383.695 324.481L397.732 332.585L403.331 335.819L406.561 333.951L422.952 324.481L403.331 313.128L383.695 324.481ZM363.036 313.128L343.383 324.498L363.036 335.819L382.657 324.498L363.036 313.128ZM303.088 324.481L312.762 330.07L322.74 335.819L342.345 324.481L322.725 313.128L303.088 324.481ZM695.639 330.556L685.951 336.127L705.587 347.464L725.191 336.127L705.587 324.79L695.639 330.556ZM655.343 330.556L645.656 336.127L665.275 347.464L684.929 336.127L665.275 324.79L655.343 330.556ZM615.049 330.556L605.361 336.127L624.964 347.464L644.633 336.127L624.964 324.79L615.049 330.556ZM574.737 330.556L565.065 336.127L584.669 347.464L604.322 336.127L584.669 324.79L574.737 330.556ZM541.5 326.447L524.753 336.127L544.374 347.464L564.01 336.127L544.374 324.79L541.5 326.447ZM494.13 330.556L484.441 336.127L504.062 347.464L523.698 336.127L508.93 327.616L504.062 324.79L494.13 330.556ZM460.893 326.447L444.13 336.127L463.75 347.464L483.42 336.127L463.75 324.79L460.893 326.447ZM413.523 330.556L403.834 336.127L423.487 347.464L443.107 336.127L428.339 327.616L423.487 324.79L413.523 330.556ZM366.314 334.535L363.539 336.127L383.191 347.464L402.812 336.127L383.191 324.79L366.314 334.535ZM342.881 324.79L323.227 336.127L342.881 347.464L362.517 336.127L342.881 324.79ZM285.707 334.535L282.932 336.127L302.569 347.464L322.205 336.127L312.517 330.556L302.569 324.79L285.707 334.535ZM725.483 336.566L705.862 347.918V370.608L725.483 359.287V336.566ZM685.706 336.566V359.287L705.327 370.608V347.918L685.706 336.566ZM685.188 336.566L665.551 347.918V370.608L685.188 359.287V336.566ZM645.396 336.566V359.287L665.032 370.608V347.918L645.396 336.566ZM644.876 336.566L625.256 347.918V370.608L644.876 359.287V336.566ZM605.1 336.566V359.287L624.72 370.608V347.918L605.1 336.566ZM604.58 336.566L584.96 347.918V370.608L604.58 359.287V336.566ZM564.804 336.566V359.287L584.425 370.608V347.918L564.804 336.566ZM564.27 336.566L544.65 347.918V370.608L564.27 359.287V336.566ZM524.509 336.566V359.287L544.113 370.608V347.918L524.509 336.566ZM523.957 336.566L504.338 347.918V370.608L523.957 359.287V336.566ZM484.199 336.566V359.287L503.818 370.608V347.918L484.199 336.566ZM483.662 336.566L464.043 347.918V370.608L483.662 359.287V336.566ZM443.887 336.566V359.287L463.507 370.608V347.918L443.887 336.566ZM443.352 336.566L423.748 347.918V370.608L443.352 359.287V336.566ZM403.592 336.566L403.575 359.287L423.211 370.608V347.918L403.592 336.566ZM403.071 336.566L383.436 347.918V370.608L403.071 359.287V336.566ZM363.296 336.566V359.287L382.915 370.608V347.918L363.296 336.566ZM362.759 336.566L343.124 347.918V370.608L362.759 359.287V336.566ZM322.984 336.566V359.287L342.606 370.608V347.918L322.984 336.566ZM322.449 336.566L302.828 347.918V370.608L322.449 359.287V336.566ZM282.673 336.566V359.287L302.308 370.608V347.918L282.673 336.566ZM685.431 359.693L665.795 371.061L685.431 382.383L695.395 376.65L705.085 371.061L685.431 359.693ZM645.121 359.693L625.516 371.061L645.121 382.383L655.085 376.65L664.773 371.061L645.121 359.693ZM604.824 359.693L585.205 371.061L604.824 382.383L614.773 376.65L624.478 371.061L604.824 359.693ZM564.513 359.693L544.909 371.061L564.513 382.383L574.478 376.65L584.183 371.061L564.513 359.693ZM524.218 359.693L504.597 371.061L524.218 382.383L543.87 371.061L524.218 359.693ZM483.906 359.693L464.302 371.061L483.937 382.383L493.87 376.65L503.558 371.061L483.906 359.693ZM443.628 359.693L423.99 371.061L443.628 382.383L463.263 371.061L443.628 359.693ZM403.331 359.693L383.678 371.061L403.331 382.383L406.334 380.661L422.952 371.061L403.331 359.693ZM343.383 371.061L350.67 375.284L363.036 382.383L382.657 371.061L363.02 359.693L343.383 371.061ZM303.088 371.061L312.762 376.65L322.74 382.383L342.345 371.061L322.725 359.693L303.088 371.061ZM705.57 371.354L685.951 382.708L705.587 394.044L725.191 382.708L705.57 371.354ZM665.275 371.354L645.656 382.708L665.275 394.044L684.929 382.708L665.275 371.354ZM624.964 371.354L605.361 382.708L624.964 394.044L644.633 382.708L624.964 371.354ZM584.669 371.354L565.065 382.708L584.669 394.044L604.322 382.708L584.669 371.354ZM544.358 371.354L524.753 382.708L544.374 394.044L564.01 382.708L544.358 371.354ZM504.062 371.354L484.441 382.708L504.062 394.044L523.698 382.708L504.062 371.354ZM463.75 371.354L444.13 382.708L463.75 394.044L483.42 382.708L463.75 371.354ZM423.487 371.354L403.834 382.708L423.487 394.012L443.107 382.708L423.487 371.354ZM383.176 371.354L363.539 382.708L383.191 394.044L402.812 382.708L383.176 371.354ZM330.806 378.321L323.227 382.708L342.881 394.012L362.517 382.708L342.881 371.354L330.806 378.321ZM302.569 371.354L282.932 382.708L302.569 394.044L322.205 382.708L302.569 371.354ZM725.483 383.163L705.862 394.498V417.172L725.483 405.835V383.163ZM685.706 383.163V405.835L705.327 417.172V394.498L685.706 383.163ZM685.188 383.163L665.551 394.498V417.172L685.188 405.835V383.163ZM645.396 383.163V405.835L665.032 417.172V394.498L645.396 383.163ZM644.876 383.163L625.256 394.498V417.172L644.876 405.835V383.163ZM605.1 383.163V405.835L624.72 417.172V394.498L605.1 383.163ZM604.58 383.163L584.96 394.498V417.172L604.58 405.835V383.163ZM564.804 383.163V405.835L584.425 417.172V394.498L564.804 383.163ZM564.27 383.163L544.65 394.498V417.172L564.27 405.835V383.163ZM524.509 383.163V405.835L544.113 417.172V394.498L524.509 383.163ZM523.957 383.163L504.338 394.498V417.172L523.957 405.835V383.163ZM484.199 383.163V405.835L503.818 417.172V394.498L484.199 383.163ZM483.662 383.163L464.043 394.498V417.172L483.662 405.835V383.163ZM443.887 383.163V405.835L463.507 417.172V394.498L443.887 383.163ZM443.352 383.163L423.748 394.498V417.172L443.352 405.835V383.163ZM403.592 383.163L403.575 405.835L423.211 417.172V394.498L403.592 383.163ZM403.071 383.163L383.436 394.498V417.172L403.071 405.835V383.163ZM363.296 383.163V405.835L382.915 417.172V394.498L363.296 383.163ZM362.759 383.163L343.124 394.498V417.172L362.759 405.835V383.163ZM322.984 383.163V405.835L342.606 417.172V394.498L322.984 383.163ZM322.449 383.163L302.828 394.498V417.172L322.449 405.835V383.163ZM282.673 383.163V405.835L302.308 417.172V394.498L282.673 383.163ZM464.302 417.626L470.598 421.265L483.937 428.979L493.87 423.214L503.558 417.626L483.937 406.29L464.302 417.626ZM423.99 417.626L426.457 419.057L443.642 428.979L463.247 417.626L443.642 406.29L423.99 417.626ZM383.695 417.626L397.732 425.716L403.331 428.979L406.561 427.111L422.952 417.626L403.331 406.29L383.695 417.626ZM363.036 406.29L343.383 417.626L363.036 428.979L382.657 417.626L363.036 406.29ZM615.049 423.702L605.361 429.288L624.964 440.624L644.633 429.288L624.964 417.953L615.049 423.702ZM494.13 423.702L484.441 429.288L504.062 440.624L523.698 429.288L508.93 420.744L504.062 417.953L494.13 423.702ZM460.893 419.608L444.13 429.288L463.75 440.624L483.42 429.288L463.75 417.953L460.893 419.608ZM413.523 423.702L403.834 429.288L423.487 440.624L443.107 429.288L428.339 420.744L423.487 417.953L413.523 423.702ZM366.314 427.663L363.539 429.288L383.176 440.624L402.812 429.288L383.191 417.953L366.314 427.663ZM342.881 417.953L323.227 429.288L342.881 440.624L362.517 429.288L342.881 417.953ZM644.876 429.727L625.256 441.063V463.736L644.876 452.416V429.727ZM605.1 429.727V452.416L624.72 463.736V441.063L605.1 429.727ZM523.957 429.727L504.338 441.063V463.736L523.957 452.416V429.727ZM484.199 429.727V452.416L503.818 463.736V441.063L484.199 429.727ZM483.662 429.727L464.043 441.063V463.736L483.662 452.416V429.727ZM443.887 429.727V452.416L463.507 463.736V441.063L443.887 429.727ZM443.352 429.727L423.748 441.063V463.736L443.352 452.416V429.727ZM403.592 429.727L403.575 452.416L423.211 463.736V441.063L403.592 429.727ZM403.071 429.727L383.436 441.063V463.736L403.071 452.416V429.727ZM363.296 429.727V452.416L382.915 463.736V441.063L363.296 429.727ZM362.759 429.727L343.124 441.063V463.736L362.759 452.416V429.727ZM322.984 429.727V452.416L342.606 463.736V441.063L322.984 429.727Z" fill="#D9EAED"/>
</svg>
