<svg width="162" height="24" viewBox="0 0 162 24" fill="none" xmlns="http://www.w3.org/2000/svg">
<path d="M59.6334 11.7009H61.3633L64.6945 6.44873H62.9582L59.6334 11.7009Z" fill="#25221E"/>
<path fill-rule="evenodd" clip-rule="evenodd" d="M18.09 3.45108L9.54341 11.8079C8.73312 12.6077 8.73312 13.8924 9.54341 14.6922C10.3537 15.492 11.6785 15.492 12.4887 14.6922L21.0289 6.33536C21.8392 5.54187 21.8392 4.24457 21.0289 3.45108C20.2058 2.65758 18.8939 2.65758 18.09 3.45108Z" fill="#952E6D"/>
<path fill-rule="evenodd" clip-rule="evenodd" d="M10.3601 0.0250452C7.78778 0.434387 5.45981 1.59944 3.60772 3.41313C1.28617 5.69285 0 8.71568 0 11.94C0 15.1581 1.28617 18.1872 3.60772 20.4669C8.41158 25.1712 16.2187 25.1712 21.0289 20.4669C22.7781 18.7477 23.955 16.6002 24.418 14.226C24.6367 13.1177 23.8971 12.0471 22.7588 11.833C21.6334 11.6252 20.5466 12.3431 20.328 13.4577C20.0193 15.0195 19.2476 16.4491 18.09 17.5889C16.5466 19.1004 14.5016 19.9253 12.3215 19.9253C10.1415 19.9253 8.09646 19.1067 6.55305 17.5889C5.00965 16.0838 4.1672 14.0749 4.1672 11.94C4.1672 9.80516 5.00965 7.79623 6.55305 6.28482C7.77492 5.09458 9.31833 4.31998 11.0161 4.05548C12.1479 3.87285 12.9196 2.82116 12.7396 1.71279C12.5659 0.604421 11.4984 -0.151287 10.3601 0.0250452Z" fill="#952E6D"/>
<path d="M73.5177 15.9769V14.2325C69.7492 14.0562 68.2187 12.0158 68.2187 8.36948C68.2187 4.76098 69.8971 2.87801 73.5177 2.68278V1.32251H75.4662V2.67649C79.0868 2.87171 80.7653 4.75468 80.7653 8.36318C80.7653 12.0095 79.2347 14.0499 75.4662 14.2262V15.9706H73.5177V15.9769ZM73.5177 4.50278C70.9582 4.60354 70.1672 5.95122 70.1672 8.46394C70.1672 10.9326 71.0161 12.3306 73.5177 12.444V4.50278ZM75.4598 12.444C77.9678 12.3243 78.8103 10.9326 78.8103 8.46394C78.8103 5.95122 78.0193 4.59724 75.4598 4.50278V12.444Z" fill="#2B2523"/>
<path d="M92.1222 9.09367C92.1222 11.3923 92.1029 13.1367 90.881 14.5096C90 15.492 88.8424 16.0021 87.492 16.0021C86.1608 16.0021 85.0032 15.492 84.1222 14.5096C82.8939 13.1556 82.881 11.2537 82.881 9.17554V8.2498C82.881 5.95119 83.0418 4.46497 84.1222 3.28732C85.0032 2.32379 86.1801 1.7948 87.492 1.7948C88.8232 1.7948 90 2.32379 90.881 3.28732C91.8714 4.3831 92.1222 5.9323 92.1222 7.91603V9.09367ZM89.4019 4.55943C88.8939 3.99265 88.2315 3.69666 87.492 3.69666C86.7717 3.69666 86.0836 3.99265 85.582 4.55943C84.8617 5.38441 84.8424 6.75728 84.8424 8.53949V9.73602C84.8424 11.1656 84.8939 12.4818 85.582 13.2249C86.1029 13.7917 86.7524 14.0876 87.492 14.0876C88.2508 14.0876 88.9132 13.7917 89.4019 13.2249C90.1608 12.3621 90.1608 11.1278 90.1608 8.7536C90.1608 6.63762 90.1222 5.38441 89.4019 4.55943Z" fill="#2B2523"/>
<path d="M98.9968 3.81629V15.8824H97.0482V3.81629H93.5113V1.91443H102.527V3.81629H98.9968Z" fill="#2B2523"/>
<path d="M113.17 9.09367C113.17 11.3923 113.151 13.1367 111.929 14.5096C111.048 15.492 109.891 16.0021 108.54 16.0021C107.209 16.0021 106.051 15.492 105.17 14.5096C103.942 13.1556 103.929 11.2537 103.929 9.17554V8.2498C103.929 5.95119 104.09 4.46497 105.17 3.28732C106.051 2.32379 107.228 1.7948 108.54 1.7948C109.871 1.7948 111.048 2.32379 111.929 3.28732C112.92 4.3831 113.17 5.9323 113.17 7.91603V9.09367ZM110.444 4.55943C109.936 3.99265 109.273 3.69666 108.534 3.69666C107.814 3.69666 107.125 3.99265 106.624 4.55943C105.904 5.38441 105.884 6.75728 105.884 8.53949V9.73602C105.884 11.1656 105.936 12.4818 106.624 13.2249C107.145 13.7917 107.794 14.0876 108.534 14.0876C109.293 14.0876 109.955 13.7917 110.444 13.2249C111.203 12.3621 111.203 11.1278 111.203 8.7536C111.203 6.63762 111.17 5.38441 110.444 4.55943Z" fill="#2B2523"/>
<path d="M123.196 15.8761V9.77378H118.006V15.8761H116.058V1.91443H118.006V7.89711H123.196V1.91443H125.164V15.8824H123.196V15.8761Z" fill="#2B2523"/>
<path d="M136.013 15.8761V5.73705L130.264 15.8761H128.495V1.91443H130.444V12.0346L136.18 1.91443H137.968V15.8824H136.013V15.8761Z" fill="#2B2523"/>
<path d="M141.376 15.8761V1.91443H143.325V8.54576L148.122 1.91443H150.521L145.582 8.50797L150.971 15.8824H148.502L143.325 8.58354V15.8824H141.376V15.8761Z" fill="#2B2523"/>
<path d="M159.961 15.8762L159.061 13.0738H153.994L153.093 15.8762H151.035L155.743 1.9082H157.312L162 15.8762H159.961ZM156.572 5.06958L154.553 11.2664H158.534L156.572 5.06958Z" fill="#2B2523"/>
<path d="M43.8328 9.18819C43.8328 11.1089 43.8328 12.9352 42.3923 14.4278C41.3698 15.4857 40.0514 15.9958 38.4244 15.9958C36.7588 15.9958 35.4598 15.4857 34.418 14.4278C33.2347 13.2312 33.0161 11.7828 32.9775 10.3469H31.3376V15.8762H27.8328V1.9145H31.3376V7.29262H33.0032C33.1061 5.32778 33.4855 4.35166 34.4244 3.36924C35.4469 2.31125 36.7653 1.80115 38.3923 1.80115C40.0322 1.80115 41.3569 2.31125 42.3987 3.36924C43.4019 4.38945 43.8392 5.64266 43.8392 7.66418V9.18819H43.8328ZM40.328 8.30653C40.328 6.99034 40.1865 5.95124 39.8071 5.46003C39.4855 5.06958 38.9839 4.84917 38.4051 4.84917C37.8264 4.84917 37.3248 5.06328 37.0032 5.46003C36.6238 5.95124 36.4823 6.99034 36.4823 8.30653V9.27006C36.4823 11.0586 36.6238 11.8395 37.0032 12.3118C37.3248 12.7022 37.8457 12.9415 38.4051 12.9415C38.9646 12.9415 39.4855 12.7085 39.8071 12.3118C40.1865 11.8395 40.328 11.0586 40.328 9.27006V8.30653Z" fill="#2B2523"/>
<path d="M46.2637 15.8761V1.91443H55.9614V4.97504H49.7685V7.31144H55.0547V10.3721H49.7685V12.8218H55.9614V15.8824H46.2637V15.8761Z" fill="#2B2523"/>
</svg>
