<svg width="20" height="20" viewBox="0 0 20 20" fill="none" xmlns="http://www.w3.org/2000/svg">
<path fill-rule="evenodd" clip-rule="evenodd" d="M13.1499 2.15625C12.5306 2.15625 11.9366 2.40228 11.4987 2.84021L3.84036 10.4985C3.08969 11.2492 2.66797 12.2673 2.66797 13.3289C2.66797 14.3905 3.08969 15.4087 3.84036 16.1593C4.59102 16.91 5.60915 17.3317 6.67075 17.3317C7.73235 17.3317 8.75047 16.91 9.50114 16.1593L17.1595 8.501C17.55 8.11047 18.1832 8.11047 18.5737 8.501C18.9642 8.89152 18.9642 9.52469 18.5737 9.91521L10.9154 17.5735C9.78962 18.6993 8.26279 19.3317 6.67075 19.3317C5.07871 19.3317 3.55188 18.6993 2.42614 17.5735C1.3004 16.4478 0.667969 14.921 0.667969 13.3289C0.667969 11.7369 1.3004 10.2101 2.42614 9.08433L10.0845 1.426C10.8975 0.612992 12.0002 0.15625 13.1499 0.15625C14.2997 0.15625 15.4024 0.612991 16.2154 1.426C17.0284 2.239 17.4851 3.34167 17.4851 4.49144C17.4851 5.6412 17.0284 6.74387 16.2154 7.55688L16.215 7.55726L8.54869 15.2152C8.04842 15.7155 7.36991 15.9965 6.66242 15.9965C5.95493 15.9965 5.27641 15.7155 4.77614 15.2152C4.27587 14.7149 3.99482 14.0364 3.99482 13.3289C3.99482 12.6214 4.27587 11.9429 4.77614 11.4427L4.77656 11.4422L11.8516 4.37558C12.2423 3.98529 12.8755 3.98566 13.2658 4.37641C13.6561 4.76717 13.6557 5.40033 13.2649 5.79063L6.19036 12.8569C6.19026 12.857 6.19017 12.8571 6.19008 12.8572C6.06505 12.9823 5.99482 13.152 5.99482 13.3289C5.99482 13.506 6.06516 13.6758 6.19036 13.801C6.31555 13.9262 6.48536 13.9965 6.66242 13.9965C6.83947 13.9965 7.00928 13.9262 7.13448 13.801L7.13486 13.8006L14.8011 6.14266L14.8015 6.14228C15.2392 5.70438 15.4851 5.11059 15.4851 4.49144C15.4851 3.87211 15.2391 3.27814 14.8011 2.84021C14.3632 2.40228 13.7692 2.15625 13.1499 2.15625Z" fill="#12BDA8"/>
</svg>
