<?xml version="1.0" encoding="utf-8"?>
<!-- Generator: Adobe Illustrator 21.1.0, SVG Export Plug-In . SVG Version: 6.00 Build 0)  -->
<svg version="1.1" id="_x36_0b0e5a6-e111-4eef-9483-f15f7ae507f7"
	 xmlns="http://www.w3.org/2000/svg" xmlns:xlink="http://www.w3.org/1999/xlink" x="0px" y="0px" viewBox="0 0 62.2 80"
	 style="enable-background:new 0 0 62.2 80;" xml:space="preserve">
<style type="text/css">
	.st0{fill:#D6E2BF;}
	.st1{fill:#FEFFFD;}
</style>
<title>bem-01</title>
<rect y="35.4" class="st0" width="55.1" height="44.6"/>
<path d="M46,26.7H28.1L14.4,0H0v80h35.3c-4.6-8-4.7-15.3,0.2-20.2c8.7-8.7,24.3-1.2,26.7,0V43C62.2,34,55,26.7,46,26.7
	C46,26.7,46,26.7,46,26.7z"/>
<path class="st1" d="M55.3,52c-2.1-1-4.3-1.4-6.6-1.3h-29c-9.9,0-15.5-7.4-15.5-10.1c2.1,0.7,4.3,1,6.5,1.1c0,0-6.7-3.8-6.7-18.9
	c0,0,7,11.3,20,11.3s12.6,0.3,20.9,0.3s10.3,6.3,10.3,9.4C55.4,45.3,55.3,52,55.3,52z"/>
<polygon points="38.2,43.4 38.2,42.3 48.9,42.3 48.9,44.7 43.5,44.7 "/>
</svg>
