<?xml version="1.0" encoding="utf-8"?>
<!-- Generator: Adobe Illustrator 21.1.0, SVG Export Plug-In . SVG Version: 6.00 Build 0)  -->
<svg version="1.1" id="Layer_1" xmlns="http://www.w3.org/2000/svg" xmlns:xlink="http://www.w3.org/1999/xlink" x="0px" y="0px"
	 viewBox="0 0 83 83" style="enable-background:new 0 0 83 83;" xml:space="preserve">
<style type="text/css">
	.st0{fill:#FFFFFF;}
	.st1{fill:#D34A47;}
</style>
<g>
	<path class="st0" d="M25.6,40.8l1.3,12.4L55.6,55l2.8-24.4l-31.7,2.7L25.6,40.8z M28.6,61.9l-0.9-1.6H55l-1.1,1.9L42,64.9
		L28.6,61.9L28.6,61.9z M23.7,25l-0.1-1.3h35.8l-0.4,1.5l-11,2.6l-21.2-0.8L23.7,25z"/>
	<path class="st1" d="M51.3,77l0.8-11.9l2.1-3.3c0,0-4.8,1.9-12.8,1.9s-12.7-1.8-12.7-1.8l2.4,3.6L31.8,77c0,1.2,4.4,2.2,9.8,2.2
		S51.3,78.2,51.3,77 M48.9,21.5l1.6-5.9l8.9-8.7L57,4.9l-9.4,9.3l-1.9,7.1c-1.4,0-2.8-0.1-4.2-0.1c-9.9,0-17.9,1-17.9,2.3
		c0,1.3,8.1,2.3,17.9,2.3s17.9-1,17.9-2.3C59.5,22.7,55.2,21.8,48.9,21.5"/>
	<path class="st0" d="M47.9,24.8c0,0-0.3,0.1-1.4,0.1c-1,0-1.8,0-2-0.3c-0.1-0.1-0.1-0.2-0.1-0.3c0-0.2,0.1-0.3,0.3-0.4l0.1,0.3
		c-0.1,0-0.1,0-0.1,0.1s1.1,0.2,1.9,0.2c0.8,0,1.8-0.1,1.8-0.2c0,0-0.1-0.1-0.2-0.1l0.2-0.2c0.2,0.1,0.4,0.2,0.4,0.4
		C48.7,24.7,48.2,24.8,47.9,24.8"/>
	<path class="st1" d="M59.4,6.9c0.2-0.3-0.1-0.8-0.8-1.4C58,4.9,57.3,4.7,57,5c-0.2,0.2,0.2,0.8,0.8,1.4C58.5,6.9,59.2,7.1,59.4,6.9
		 M50.9,47.9c-0.2-1.9,4.4-4.6,3.3-4.7c-2.6,0.1-3.9,2.8-5.2,5.6c-0.5,1-2.1,5.4-3.2,4.8c-1.1-0.6,1.4-4.1,2.1-6.2
		c-0.8,0.6-3.7,2.6-4.4,0.7c-1.2,0.9-3.8,1.5-3.5-1c-0.6,1-2.1,2.5-3.8,2c-2.3-0.8,1.3-7.5,2.2-7.2c0.9,0.4-0.2,1.9-0.5,2.4
		c-0.6,1.3-1.3,3-0.9,3.3c0.8,0.6,3-2.1,3.1-2.2c0.4-0.5,1.6-3.8,2.5-3.4c1,0.4-2.4,4.7-1.1,5.7c0.3,0.2,1.3-0.1,1.9-0.7
		c0.4-0.4,0.3-1.3,1.6-4.3c1.3-3,2.5-6.7,3.5-6.4c0.9,0.3,0.2,2.2-0.2,2.9c-1.6,3.3-4.2,8.8-3,8.5c1.3-0.5,1.9-0.5,3.2-1.8
		c1.2-1.4,1.2-3.5,2-3.5c0.8,0.1,0.7,0.7,0.5,1.3c0.8-0.8,3.9-2.7,4.6-0.9c0.9,2.1-4.4,5.2-3,5c1.3-0.2,3.3-1.4,4.2-2.5l2.4-20.2
		c0,0-2.4,1.9-17.8,1.9s-17.6-1.9-17.6-1.9l2.1,18.4c1.1-2.9,3.7-8.7,7.8-8.6c1.9,0.1,4.3,3.4,2.2,3.5c-0.9,0.1-1-1.7-2.1-2
		c-0.8-0.2-1.8,0.4-2.5,1c-1.4,1.3-4.3,6.2-4,8.6c0.5,3.2,4.7-1.1,5.4-2.3c0.5-0.9,0.8-3.5,1.9-3.3s-0.1,3-0.9,5.4
		c-0.9,2.7-1.4,5.6-2.5,5.2c-1.1-0.4,0.7-3.8,0.6-4.4c-1,0.9-3,3.2-5.4,2L27.6,60c0,0,3.4,2.5,13.5,2.5s13.7-2.4,13.7-2.4l1.6-13.3
		C55.2,48.2,51.1,50.4,50.9,47.9"/>
</g>
</svg>
