<svg id="Layer_1" xmlns="http://www.w3.org/2000/svg" width="83" height="83" viewBox="0 0 100 100"><style>.st3{fill:#ebebeb}.st3,.st4,.st5{display:inline}.st5{fill:#fff}.st7{fill:#172c45}.st8{fill:#fefefe}</style><path d="M51 16.3c.8.2 1.4.7 2.1 1.1C61.6 22.3 70 27.2 78.5 32c1.3.8 1.8 1.5 1.8 3.1-.1 10.2-.1 20.5 0 30.7 0 .7-.2 1-.8 1.3-8.1 4.7-16.2 9.3-24.3 14-1.2.7-2.5 1.4-3.7 2.2-.1.1-.2.2-.4.1-.3-.4-.3-.8-.3-1.3V66.4c0-1.3 0-1.3-1.4-1.4H48c-.3 0-.6 0-.8-.3 0-.5.4-.4.7-.4h2.6c.6 0 .9-.3 1-.8.3-1.8.8-3.5 1.1-5.3.2-.9 0-1.1-.9-1-.3 0-.5.2-.8.2-.3-.2-.2-.5-.2-.8.1-.9 0-6.3 0-6.8v-1.7c.1-.8 0-5.9 0-6.4v-1-23c0-.6-.1-1.1.3-1.4z" fill="#193556"/><path class="st7" d="M50.9 57.3c.3.2-.3 3.4-.7 4.6-.2.9-.8 1.1-1.8.9-.8-.2-1.2-.7-1.1-1.5.1-1.2.5-2.3.7-3.5 0-.3.2-.7-.3-.7-.4 0-1-.2-1.2.4-.3 1.5-.8 2.9-.9 4.4-.1.9.3 1.6 1.1 2.1.2.1.3.2.4.4.8.3 1.6.1 2.3.1 1.6 0 1.6 0 1.6 1.6v17.1c-1.6-.7-3.1-1.7-4.6-2.6-5.2-3-10.4-6-15.7-9-2.8-1.6-5.6-3.2-8.4-4.9-.3-.2-.4-.4-.4-.7v-.4-31.9c0-.6.2-1 .7-1.3 8.9-5 17.7-10.1 26.5-15.2.6-.4 1.2-.8 1.9-1v31c0 1.3-.1 10-.1 10.1z"/><path class="st8" d="M57.6 61.5h-1.9c-.2 0-.5-.1-.6.2s.1.6.4.7c.3.2.6.2 1 .2h2.7c.4 0 .5.1.4.5-.2 1.5-.2 1.5-1.7 1.5-1 0-1.9.1-2.9-.1-1.7-.3-2.3-1-2.2-2.8.1-.9.3-1.8.6-2.6.8-2.1 2.4-2.5 4.4-2.5h.3c1.7.2 2.4.9 2.3 2.6-.1 2-.2 2.1-2.1 2.1-.1.2-.4.2-.7.2zM47.1 64.6c-1.4-.4-1.9-1.2-1.7-2.6.2-1.6.6-3.1.9-4.6.1-.3.2-.4.5-.4 2 0 1.7-.3 1.4 1.6l-.6 3c-.1.4-.2.9.3 1.1.6.2 1.2.2 1.8.1.1 0 .1-.2.1-.3.3-1.6.7-3.3 1-4.9.1-.6.5-.5.9-.5 1.3 0 1.3 0 1.1 1.3l-1.2 5.7c-.1.5-.3.7-.8.7-1.2-.2-2.4-.2-3.7-.2zM69 60.3c1-1.4 1.9-2.7 2.7-4 .3-.5.7-.8 1.3-.7h1.1c.2 0 .5-.1.6.1.1.2-.1.4-.3.5-1.1 1.5-2.2 2.9-3.3 4.4-.8 1.1-1.8 2-1.9 3.5 0 .3-.2.4-.5.4h-1.5c-.3 0-.5-.1-.4-.4.7-1.6-.1-3-.5-4.4-.1-.5 0-.6.4-.5h.6c1.3.1 1.3.1 1.7 1.1z"/><path class="st8" d="M64.8 56.8h1.9c1.2 0 1.5.3 1.7 1.4.1.4 0 .5-.4.5-1.2 0-2.4.1-3.6.1-.4 0-.6.1-.7.6-.3 1.5-.6 3-.9 4.4-.1.5-.3.7-.8.7-1.5 0-1.5 0-1.2-1.5.4-1.9.8-3.7 1.2-5.6.1-.5.3-.7.7-.6h2.1z"/><path d="M56.9 51.3h-3.3v-.1c1.1.1 2.2.1 3.3.1z" fill="#1c3758"/><path class="st8" d="M43.7 62.5h.7c.1 0 .3 0 .3.1.1.6-.2 1.1-.4 1.7-.1.4-.4.2-.7.2h-4.9c-1.9 0-3.1-1-3.2-2.8-.1-2.5.5-4.8 2.7-6.2 1.4-.9 3-1 4.5-.4s2.3 2.1 2.1 3.8c-.2 1.3-.7 2.4-1.1 3.6zM30.4 67.7c-1.2 0-1.2 0-.9-1.2.1-.5.2-.9.9-.9.4.1.6-.3.8-.7.3-.6.4-1.3.5-2 .3-1.1.5-2.1.7-3.2.1-.5.3-.6.7-.6 1.7 0 1.7 0 1.3 1.6-.3 1.5-.6 3.1-1 4.6-.5 1.9-1.1 2.4-3 2.4z"/><path d="M34.1 56.8c1.3 0 1.2 0 1 1.2-.1.6-.4.8-1 .7-1.7-.1-1.6.3-1.1-1.5.2-.7.8-.2 1.1-.4z" fill="#fcfcfc"/><path d="M61.3 39.8z" fill="#c2c7ce"/><path d="M56.8 59.8h-.5c-.2 0-.6.2-.7-.1-.1-.3.2-.5.5-.7.5-.3 1.1-.4 1.7-.2.3.1.5.4.4.8-.1.4-.4.2-.6.3-.2-.1-.5-.1-.8-.1z" fill="#1e3959"/><path class="st7" d="M40.1 62.5h-.9c-.6 0-1.2-.4-1.2-1-.2-1.5.1-2.9 1.2-4 .7-.6 1.8-.8 2.6-.3.6.4.9 1.1.6 2.1-.2 1-.5 1.9-.8 2.8-.1.3-.2.5-.5.4h-1z"/><g><path class="st8" d="M40.8 36.3c-1.1 1.6-1.6 3.5-1.6 5.3 0 1.9.5 3.8 1.3 5.5 0 .1.1.2.1.2 0 .1 0 .1.1.2v.1c0 .1.1.1.1.2.1.1.1.2.2.3 0 .1.1.1.1.2.1.1.1.2.2.3l.1.1c.1.1.2.3.3.4v.1c.1.1.2.2.2.3l.1.1c.1.1.2.2.2.3l.1.1c.1.1.2.3.3.4l.3.3.1.1.3.3.1.1c.1.1.2.2.4.3h.1l.3.3.1.1c.1.1.2.1.3.2l.1.1c.1.1.2.2.3.2l.1.1c.1.1.2.1.3.2l.1.1c.2.1.3.2.5.3 0 0 .1 0 .1.1.1.1.2.1.3.2.1 0 .1.1.2.1s.2.1.2.1h.2c.1.1.3.1.4.2h.1c.2.1.3.1.5.2h.1c.1.1.3.1.4.2.2.1.3.1.5.2h.1c.2 0 .3.1.5.1 10.7 2 13.8-6.5 13.8-6.5-2.6 3.4-7.2 4.4-11.6 3.3-.2 0-.3-.1-.5-.1h-.1c-.2 0-.3-.1-.5-.2h-.1c-.1 0-.3-.1-.4-.2h-.1c-.2-.1-.3-.1-.4-.2h-.1c-.1-.1-.3-.1-.4-.2h-.1c-.1 0-.2-.1-.3-.2-.1 0-.1-.1-.2-.1-.1-.1-.2-.1-.3-.2 0 0-.1 0-.1-.1-.2-.1-.3-.2-.5-.3l-.1-.1c-.1-.1-.2-.1-.3-.2 0 0-.1 0-.1-.1-.1-.1-.2-.2-.3-.2l-.1-.1c-.1-.1-.2-.1-.3-.2l-.1-.1c-.1-.1-.2-.2-.4-.3-.1-.1-.2-.2-.4-.3l-.1-.1-.3-.3-.1-.1-.3-.3c-.1-.1-.2-.2-.3-.4l-.1-.1c-.1-.1-.2-.2-.2-.3l-.1-.1c-.1-.1-.2-.2-.3-.4-2.4-3.4-3.3-8-1.4-11.8l-1.6 2.3z"/><path class="st8" d="M47.6 33.7c-1.6 2.3-1.5 5.5-.3 7.9.2.4.4.8.7 1.2.2.3.5.8.8 1 .1.1.2.3.4.4l.1.1c.1.1.2.2.4.3.1.1.3.2.4.4l.1.1c.1.1.3.2.4.3.1 0 .1.1.2.1 0 0 .1 0 .1.1.1.1.2.1.3.2.1.1.2.1.3.2 0 0 .1 0 .1.1.1 0 .1.1.2.1.1.1.3.1.4.2h.1c.1 0 .2.1.3.1s.1 0 .2.1c.1 0 .2.1.3.1h.1c.2 0 .3.1.5.1 8.3 1.4 10.2-5.1 10.2-5.1-1.7 2.5-5 3.7-8.6 2.8-.2 0-.3-.1-.5-.1h-.1c-.1 0-.2-.1-.3-.1 0 0-.1 0-.1-.1-.1 0-.2-.1-.4-.1h-.1c-.1-.1-.3-.1-.4-.2-.1 0-.1-.1-.2-.1 0 0-.1 0-.1-.1-.1 0-.2-.1-.3-.2h-.1c-.1-.1-.2-.1-.3-.2 0 0-.1 0-.1-.1-.1 0-.1-.1-.2-.1-.2-.1-.3-.2-.4-.3l-.1-.1c-1.6-1.2-2.8-2.9-3.4-4.9-.6-2-.5-4.2.6-6.1l-1.2 2z"/><path class="st8" d="M53.4 31.6c-.9 1.4-1 3.2-.4 4.7.7 1.7 2.1 2.9 3.8 3.6.1 0 .1 0 .2.1h.1c.1 0 .2.1.3.1 4.6.9 5.8-2.4 6.1-2.9-1.1 1.6-2.9 2-5.1 1.4-.2 0-.4-.1-.5-.2l-.6-.3c-.4-.2-.8-.4-1.1-.7-2-1.5-3.2-4.5-1.9-6.9l-.9 1.1z"/></g></svg>