<?xml version="1.0" encoding="utf-8"?>
<!-- Generator: Adobe Illustrator 21.1.0, SVG Export Plug-In . SVG Version: 6.00 Build 0)  -->
<svg version="1.1" id="Layer_1" xmlns="http://www.w3.org/2000/svg" xmlns:xlink="http://www.w3.org/1999/xlink" x="0px" y="0px"
	 viewBox="0 0 83 83" style="enable-background:new 0 0 83 83;" xml:space="preserve">
<style type="text/css">
	.st0{fill:#AEB3B7;}
	.st1{fill:#FEFEFE;}
	.st2{fill:#1C3758;}
	.st3{fill:#FCFCFC;}
	.st4{fill:#C2C7CE;}
</style>
<path d="M42.3,13.5c0.7,0.2,1.2,0.6,1.7,0.9c7.1,4.1,14,8.1,21.1,12.1c1.1,0.7,1.5,1.2,1.5,2.6c-0.1,8.5-0.1,17,0,25.5
	c0,0.6-0.2,0.8-0.7,1.1c-6.7,3.9-13.4,7.7-20.2,11.6c-1,0.6-2.1,1.2-3.1,1.8c-0.1,0.1-0.2,0.2-0.3,0.1c-0.2-0.3-0.2-0.7-0.2-1.1v-13
	c0-1.1,0-1.1-1.2-1.2h-1.2c-0.2,0-0.5,0-0.7-0.2c0-0.4,0.3-0.3,0.6-0.3h2.2c0.5,0,0.7-0.2,0.8-0.7c0.2-1.5,0.7-2.9,0.9-4.4
	c0.2-0.7,0-0.9-0.7-0.8c-0.2,0-0.4,0.2-0.7,0.2c-0.2-0.2-0.2-0.4-0.2-0.7c0.1-0.7,0-5.2,0-5.6v-1.4c0.1-0.7,0-4.9,0-5.3v-0.8V14.7
	C42.1,14.2,42,13.8,42.3,13.5z"/>
<path class="st0" d="M42.2,47.6c0.2,0.2-0.2,2.8-0.6,3.8c-0.2,0.7-0.7,0.9-1.5,0.7c-0.7-0.2-1-0.6-0.9-1.2c0.1-1,0.4-1.9,0.6-2.9
	c0-0.2,0.2-0.6-0.2-0.6c-0.3,0-0.8-0.2-1,0.3c-0.2,1.2-0.7,2.4-0.7,3.7c-0.1,0.7,0.2,1.3,0.9,1.7c0.2,0.1,0.2,0.2,0.3,0.3
	c0.7,0.2,1.3,0.1,1.9,0.1c1.3,0,1.3,0,1.3,1.3v14.2c-1.3-0.6-2.6-1.4-3.8-2.2c-4.3-2.5-8.6-5-13-7.5c-2.3-1.3-4.6-2.7-7-4.1
	c-0.2-0.2-0.3-0.3-0.3-0.6v-0.3V28c0-0.5,0.2-0.8,0.6-1.1c7.4-4.2,14.7-8.4,22-12.6c0.5-0.3,1-0.7,1.6-0.8v25.7
	C42.3,40.3,42.2,47.5,42.2,47.6z"/>
<path class="st1" d="M47.8,51h-1.6c-0.2,0-0.4-0.1-0.5,0.2c-0.1,0.2,0.1,0.5,0.3,0.6c0.2,0.2,0.5,0.2,0.8,0.2h2.2
	c0.3,0,0.4,0.1,0.3,0.4c-0.2,1.2-0.2,1.2-1.4,1.2c-0.8,0-1.6,0.1-2.4-0.1c-1.4-0.2-1.9-0.8-1.8-2.3c0.1-0.7,0.2-1.5,0.5-2.2
	c0.7-1.7,2-2.1,3.7-2.1h0.2c1.4,0.2,2,0.7,1.9,2.2c-0.1,1.7-0.2,1.7-1.7,1.7C48.3,51,48.1,51,47.8,51z M39.1,53.6
	c-1.2-0.3-1.6-1-1.4-2.2c0.2-1.3,0.5-2.6,0.7-3.8c0.1-0.2,0.2-0.3,0.4-0.3c1.7,0,1.4-0.2,1.2,1.3l-0.5,2.5c-0.1,0.3-0.2,0.7,0.2,0.9
	c0.5,0.2,1,0.2,1.5,0.1c0.1,0,0.1-0.2,0.1-0.2c0.2-1.3,0.6-2.7,0.8-4.1c0.1-0.5,0.4-0.4,0.7-0.4c1.1,0,1.1,0,0.9,1.1l-1,4.7
	c-0.1,0.4-0.2,0.6-0.7,0.6C41.2,53.6,40.2,53.6,39.1,53.6z M57.3,50c0.8-1.2,1.6-2.2,2.2-3.3c0.2-0.4,0.6-0.7,1.1-0.6h0.9
	c0.2,0,0.4-0.1,0.5,0.1c0.1,0.2-0.1,0.3-0.2,0.4c-0.9,1.2-1.8,2.4-2.7,3.7c-0.7,0.9-1.5,1.7-1.6,2.9c0,0.2-0.2,0.3-0.4,0.3h-1.2
	c-0.2,0-0.4-0.1-0.3-0.3c0.6-1.3-0.1-2.5-0.4-3.7c-0.1-0.4,0-0.5,0.3-0.4h0.5C56.9,49.2,56.9,49.2,57.3,50L57.3,50z"/>
<path class="st1" d="M53.8,47.1h1.6c1,0,1.2,0.2,1.4,1.2c0.1,0.3,0,0.4-0.3,0.4c-1,0-2,0.1-3,0.1c-0.3,0-0.5,0.1-0.6,0.5
	c-0.2,1.2-0.5,2.5-0.7,3.7c-0.1,0.4-0.2,0.6-0.7,0.6c-1.2,0-1.2,0-1-1.2c0.3-1.6,0.7-3.1,1-4.6c0.1-0.4,0.2-0.6,0.6-0.5
	C52,47.1,53.8,47.1,53.8,47.1z"/>
<path class="st2" d="M47.2,42.6h-2.7v-0.1C45.4,42.6,46.3,42.6,47.2,42.6z"/>
<path class="st1" d="M36.3,51.9h0.6c0.1,0,0.2,0,0.2,0.1c0.1,0.5-0.2,0.9-0.3,1.4c-0.1,0.3-0.3,0.2-0.6,0.2h-4.1
	c-1.6,0-2.6-0.8-2.7-2.3c-0.1-2.1,0.4-4,2.2-5.1c1.2-0.7,2.5-0.8,3.7-0.3c1.2,0.5,1.9,1.7,1.7,3.2C37,50,36.6,50.9,36.3,51.9z
	 M25.2,56.2c-1,0-1,0-0.7-1c0.1-0.4,0.2-0.7,0.7-0.7c0.3,0.1,0.5-0.2,0.7-0.6c0.2-0.5,0.3-1.1,0.4-1.7c0.2-0.9,0.4-1.7,0.6-2.7
	c0.1-0.4,0.2-0.5,0.6-0.5c1.4,0,1.4,0,1.1,1.3c-0.2,1.2-0.5,2.6-0.8,3.8C27.3,55.8,26.8,56.2,25.2,56.2z"/>
<path class="st3" d="M28.3,47.1c1.1,0,1,0,0.8,1c-0.1,0.5-0.3,0.7-0.8,0.6c-1.4-0.1-1.3,0.2-0.9-1.2C27.6,46.9,28.1,47.3,28.3,47.1z
	"/>
<path class="st4" d="M50.9,33"/>
<path d="M47.1,49.6h-0.4c-0.2,0-0.5,0.2-0.6-0.1c-0.1-0.2,0.2-0.4,0.4-0.6c0.4-0.2,0.9-0.3,1.4-0.2c0.2,0.1,0.4,0.3,0.3,0.7
	s-0.3,0.2-0.5,0.2C47.6,49.6,47.4,49.6,47.1,49.6z"/>
<path class="st0" d="M33.3,51.9h-0.7c-0.5,0-1-0.3-1-0.8c-0.2-1.2,0.1-2.4,1-3.3c0.6-0.5,1.5-0.7,2.2-0.2c0.5,0.3,0.7,0.9,0.5,1.7
	c-0.2,0.8-0.4,1.6-0.7,2.3c-0.1,0.2-0.2,0.4-0.4,0.3C34.1,51.9,33.3,51.9,33.3,51.9z"/>
<g>
	<path class="st1" d="M33.9,30.1c-0.9,1.3-1.3,2.9-1.3,4.4c0,1.6,0.4,3.2,1.1,4.6c0,0.1,0.1,0.2,0.1,0.2c0,0.1,0,0.1,0.1,0.2v0.1
		c0,0.1,0.1,0.1,0.1,0.2c0.1,0.1,0.1,0.2,0.2,0.2c0,0.1,0.1,0.1,0.1,0.2c0.1,0.1,0.1,0.2,0.2,0.2l0.1,0.1c0.1,0.1,0.2,0.2,0.2,0.3
		v0.1c0.1,0.1,0.2,0.2,0.2,0.2l0.1,0.1c0.1,0.1,0.2,0.2,0.2,0.2l0.1,0.1c0.1,0.1,0.2,0.2,0.2,0.3l0.2,0.2l0.1,0.1l0.2,0.2l0.1,0.1
		c0.1,0.1,0.2,0.2,0.3,0.2h0.1l0.2,0.2l0.1,0.1c0.1,0.1,0.2,0.1,0.2,0.2l0.1,0.1c0.1,0.1,0.2,0.2,0.2,0.2l0.1,0.1
		c0.1,0.1,0.2,0.1,0.2,0.2l0.1,0.1c0.2,0.1,0.2,0.2,0.4,0.2c0,0,0.1,0,0.1,0.1c0.1,0.1,0.2,0.1,0.2,0.2c0.1,0,0.1,0.1,0.2,0.1
		c0.1,0,0.2,0.1,0.2,0.1H39c0.1,0.1,0.2,0.1,0.3,0.2h0.1c0.2,0.1,0.2,0.1,0.4,0.2h0.1c0.1,0.1,0.2,0.1,0.3,0.2
		c0.2,0.1,0.2,0.1,0.4,0.2h0.1c0.2,0,0.2,0.1,0.4,0.1c8.9,1.7,11.5-5.4,11.5-5.4c-2.2,2.8-6,3.7-9.6,2.7c-0.2,0-0.2-0.1-0.4-0.1
		h-0.1c-0.2,0-0.2-0.1-0.4-0.2H42c-0.1,0-0.2-0.1-0.3-0.2h-0.1c-0.2-0.1-0.2-0.1-0.3-0.2h-0.1c-0.1-0.1-0.2-0.1-0.3-0.2h-0.1
		c-0.1,0-0.2-0.1-0.2-0.2c-0.1,0-0.1-0.1-0.2-0.1c-0.1-0.1-0.2-0.1-0.2-0.2c0,0-0.1,0-0.1-0.1c-0.2-0.1-0.2-0.2-0.4-0.2L39.5,41
		c-0.1-0.1-0.2-0.1-0.2-0.2c0,0-0.1,0-0.1-0.1c-0.1-0.1-0.2-0.2-0.2-0.2l-0.1-0.1c-0.1-0.1-0.2-0.1-0.2-0.2l-0.1-0.1
		c-0.1-0.1-0.2-0.2-0.3-0.2c-0.1-0.1-0.2-0.2-0.3-0.2l-0.1-0.1l-0.2-0.2l-0.1-0.1l-0.2-0.2c-0.1-0.1-0.2-0.2-0.2-0.3l-0.1-0.1
		c-0.1-0.1-0.2-0.2-0.2-0.2l-0.1-0.1c-0.1-0.1-0.2-0.2-0.2-0.3c-2-2.8-2.7-6.6-1.2-9.8C35.2,28.2,33.9,30.1,33.9,30.1z"/>
	<path class="st1" d="M39.5,28c-1.3,1.9-1.2,4.6-0.2,6.6c0.2,0.3,0.3,0.7,0.6,1c0.2,0.2,0.4,0.7,0.7,0.8c0.1,0.1,0.2,0.2,0.3,0.3
		l0.1,0.1c0.1,0.1,0.2,0.2,0.3,0.2c0.1,0.1,0.2,0.2,0.3,0.3l0.1,0.1c0.1,0.1,0.2,0.2,0.3,0.2c0.1,0,0.1,0.1,0.2,0.1
		c0,0,0.1,0,0.1,0.1c0.1,0.1,0.2,0.1,0.2,0.2c0.1,0.1,0.2,0.1,0.2,0.2c0,0,0.1,0,0.1,0.1c0.1,0,0.1,0.1,0.2,0.1
		c0.1,0.1,0.2,0.1,0.3,0.2h0.1c0.1,0,0.2,0.1,0.2,0.1c0.1,0,0.1,0,0.2,0.1c0.1,0,0.2,0.1,0.2,0.1h0.1c0.2,0,0.2,0.1,0.4,0.1
		c6.9,1.2,8.5-4.2,8.5-4.2c-1.4,2.1-4.2,3.1-7.1,2.3c-0.2,0-0.2-0.1-0.4-0.1h-0.1c-0.1,0-0.2-0.1-0.2-0.1c0,0-0.1,0-0.1-0.1
		c-0.1,0-0.2-0.1-0.3-0.1h-0.1c-0.1-0.1-0.2-0.1-0.3-0.2c-0.1,0-0.1-0.1-0.2-0.1c0,0-0.1,0-0.1-0.1c-0.1,0-0.2-0.1-0.2-0.2h-0.1
		c-0.1-0.1-0.2-0.1-0.2-0.2c0,0-0.1,0-0.1-0.1c-0.1,0-0.1-0.1-0.2-0.1c-0.2-0.1-0.2-0.2-0.3-0.2l-0.1-0.1c-1.3-1-2.3-2.4-2.8-4.1
		c-0.5-1.7-0.4-3.5,0.5-5.1C40.5,26.3,39.5,28,39.5,28z"/>
	<path class="st1" d="M44.3,26.2c-0.7,1.2-0.8,2.7-0.3,3.9c0.6,1.4,1.7,2.4,3.2,3c0.1,0,0.1,0,0.2,0.1h0.1c0.1,0,0.2,0.1,0.2,0.1
		c3.8,0.7,4.8-2,5.1-2.4c-0.9,1.3-2.4,1.7-4.2,1.2c-0.2,0-0.3-0.1-0.4-0.2l-0.5-0.2c-0.3-0.2-0.7-0.3-0.9-0.6
		c-1.7-1.2-2.7-3.7-1.6-5.7C45.1,25.3,44.3,26.2,44.3,26.2z"/>
</g>
</svg>
