<?xml version="1.0" encoding="utf-8"?>
<!-- Generator: Adobe Illustrator 21.1.0, SVG Export Plug-In . SVG Version: 6.00 Build 0)  -->
<svg version="1.1" id="Layer_1" xmlns="http://www.w3.org/2000/svg" xmlns:xlink="http://www.w3.org/1999/xlink" x="0px" y="0px"
	 viewBox="0 0 91.2 88.9" style="enable-background:new 0 0 91.2 88.9;" xml:space="preserve">
<style type="text/css">
	.st0{fill:#F7F9F8;}
	.st1{fill:#FFFFFF;}
	.st2{fill:#9FBBC1;}
</style>
<g>
	<g>
		<g>
			<ellipse cx="31.9" cy="46.3" rx="27.6" ry="25.7"/>
		</g>
	</g>
	<g>
		<ellipse class="st0" cx="31.9" cy="46.3" rx="25.3" ry="23.6"/>
	</g>
	<g>
		<path d="M31.9,32.9c-5.5,0-10.8,9.5-10.8,16.7c0,5.5,4.9,10.1,10.8,10.1s10.8-4.5,10.8-10.1C42.7,42.3,37.3,32.9,31.9,32.9z
			 M31.9,54.6c-3,0-5.3-2.2-5.3-5c0-3.8,2.7-8.4,5.3-8.4s5.3,4.7,5.3,8.4C37.2,52.4,34.8,54.6,31.9,54.6z"/>
	</g>
</g>
<g>
	<path class="st1" d="M46.3,27.4h42.1v41.1H46.3V27.4z"/>
	<path class="st2" d="M46.3,27.4h42.1v41.1H46.3V27.4z M44.4,70.5h45.9V25.6H44.4V70.5z M75.3,44c-1.5,0-2,0.8-2,1.4
		s0.3,1.2,2.4,2.3c3,1.4,4,2.9,4,4.9c0,3-2.4,4.8-5.5,4.8c-1.4,0-2.7-0.2-3.9-0.9c-0.1-0.1-0.1-0.1-0.1-0.3v-2.8
		c0-0.2,0.1-0.2,0.2-0.1c1.2,0.8,2.5,1.2,3.9,1.2c1.5,0,2.2-0.6,2.2-1.5c0-0.6-0.4-1.3-2.4-2.3c-2.7-1.3-3.9-2.6-3.9-4.9
		c0-2.5,1.9-4.5,5.3-4.5c1.2,0,2.4,0.1,3.4,0.5c0.1,0.1,0.2,0.2,0.2,0.4v2.6c0,0.1-0.1,0.2-0.3,0.2C77.7,44.3,76.5,44,75.3,44
		L75.3,44z M58.9,46.3c0.4,0,0.8,0,1.6,0c2.3,0,4.3-0.8,4.3-3.9c0-2.5-1.5-3.7-4.1-3.7c-0.8,0-1.5,0-1.8,0.1L58.9,46.3z M55.5,36.1
		c0-0.1,0.3-0.2,0.4-0.2c1.2-0.1,3-0.1,5-0.1c5.3,0,7.3,2.9,7.3,6.6c0,4.9-3.6,6.9-7.9,6.9c-0.8,0-1,0-1.5,0v7.4
		c0,0.1-0.1,0.2-0.2,0.2h-2.9c-0.1,0-0.2-0.1-0.2-0.2V36.1L55.5,36.1z"/>
</g>
</svg>
