<?xml version="1.0" encoding="utf-8"?>
<!-- Generator: Adobe Illustrator 21.1.0, SVG Export Plug-In . SVG Version: 6.00 Build 0)  -->
<svg version="1.1" id="Layer_1" xmlns="http://www.w3.org/2000/svg" xmlns:xlink="http://www.w3.org/1999/xlink" x="0px" y="0px"
	 viewBox="0 0 91.2 88.9" style="enable-background:new 0 0 91.2 88.9;" xml:space="preserve">
<style type="text/css">
	.st0{fill:#F8F8F8;}
	.st1{fill:#00BC87;}
	.st2{fill:#FFFFFF;}
	.st3{fill:url(#SVGID_1_);}
	.st4{fill:#31C5F0;}
</style>
<g>
	<g>
		<g>
			<ellipse class="st0" cx="66" cy="65.1" rx="25.2" ry="24"/>
		</g>
	</g>
	<g>
		<ellipse class="st1" cx="66" cy="65" rx="23.1" ry="22"/>
	</g>
	<g>
		<path class="st2" d="M66,52.6c-5,0-9.9,8.9-9.9,15.6c0,5.1,4.5,9.4,9.9,9.4s9.9-4.2,9.9-9.4C75.9,61.4,70.9,52.6,66,52.6z
			 M66,72.8c-2.7,0-4.8-2-4.8-4.7c0-3.6,2.5-7.9,4.8-7.9c2.4,0,4.8,4.4,4.8,7.9C70.9,70.8,68.7,72.8,66,72.8z"/>
	</g>
</g>
<g>
	
		<radialGradient id="SVGID_1_" cx="-484.8884" cy="77.5788" r="8.761114e-03" gradientTransform="matrix(2999.5854 0 0 -2948.3279 1454478.375 228744.3438)" gradientUnits="userSpaceOnUse">
		<stop  offset="0" style="stop-color:#34364E;stop-opacity:0.98"/>
		<stop  offset="1" style="stop-color:#0C0824"/>
	</radialGradient>
	<path class="st3" d="M4.5,4h42.1v41.5H4.5V4z"/>
	<path class="st4" d="M4.5,4h42.1v41.5H4.5V4z M2.6,47.5h45.9V2.2H2.6V47.5z M33.5,20.7c-1.5,0-2,0.8-2,1.4s0.3,1.2,2.4,2.3
		c3,1.4,4,2.9,4,4.9c0,3-2.4,4.8-5.5,4.8c-1.4,0-2.7-0.2-3.9-0.9c-0.1-0.1-0.1-0.1-0.1-0.3v-2.8c0-0.2,0.1-0.2,0.2-0.1
		c1.2,0.8,2.5,1.2,3.9,1.2c1.5,0,2.2-0.6,2.2-1.5c0-0.6-0.4-1.3-2.4-2.3c-2.7-1.3-3.9-2.6-3.9-4.9c0-2.5,1.9-4.5,5.3-4.5
		c1.2,0,2.4,0.1,3.4,0.5c0.1,0.1,0.2,0.2,0.2,0.4v2.6c0,0.1-0.1,0.2-0.3,0.2C35.9,21,34.7,20.7,33.5,20.7L33.5,20.7z M17.1,23.1
		c0.4,0,0.8,0,1.6,0c2.3,0,4.3-0.8,4.3-3.9c0-2.5-1.5-3.7-4.1-3.7c-0.8,0-1.5,0-1.8,0.1V23.1z M13.7,12.8c0-0.1,0.3-0.2,0.4-0.2
		c1.2-0.1,3-0.1,5-0.1c5.3,0,7.3,2.9,7.3,6.7c0,4.9-3.6,7-7.9,7c-0.8,0-1,0-1.5,0v7.5c0,0.1-0.1,0.2-0.2,0.2h-2.9
		c-0.1,0-0.2-0.1-0.2-0.2L13.7,12.8L13.7,12.8z"/>
</g>
</svg>
