<?xml version="1.0" encoding="utf-8"?>
<!-- Generator: Adobe Illustrator 21.1.0, SVG Export Plug-In . SVG Version: 6.00 Build 0)  -->
<svg version="1.1" id="Слой_1" xmlns="http://www.w3.org/2000/svg" xmlns:xlink="http://www.w3.org/1999/xlink" x="0px" y="0px"
	 viewBox="0 0 500 500" style="enable-background:new 0 0 500 500;" xml:space="preserve">
<style type="text/css">
	.st0{fill:#03A9F4;}
</style>
<path class="st0" d="M60,40c-10.9,0-20,9.1-20,20v380c0,10.9,9.1,20,20,20h380c10.9,0,20-9.1,20-20V60c0-10.9-9.1-20-20-20H60z
	 M60,60h380v380H60V60z M185.9,140c-14.4,0-25.9,1.6-35.8,4.2l0,215.8h24.6v-91.7c3.5,0.3,6.7,0.3,10.9,0.3c19.2,0,39.4-8,50.9-24
	c8.3-10.9,13.1-24.3,13.1-44.2c0-18.9-5.4-34.6-15.7-44.8C222.6,144.8,205.7,140,185.9,140z M189.8,156.4
	c27.5,0,36.5,19.8,36.5,41.9c0,30.4-16.3,46.4-40.3,46.4c-4.2,0-7-0.3-9.9-0.6V158C179.2,157,184,156.4,189.8,156.4z M317.2,200
	c-24.9,0-44.2,17.7-44.2,43.1c0,17.7,11.3,31.2,32.2,44.3c16.3,10.3,20.6,18.6,20.6,30.5c0,13.8-9.3,22.5-23.6,22.5
	c-10.3,0-20.3-4.5-25.9-8L270,351c7,5.5,19.9,9,31.5,9c26.6,0,48.5-15.1,48.5-46.3c0-21.5-14.6-36-33.2-47.6
	c-15.9-10.3-19.9-16.4-19.9-26.7c0-10.3,7-19.9,20.6-19.9c8.6,0,15.3,2.9,21.6,7.1l6.6-18.7C339.1,203.9,329.8,200,317.2,200z"/>
</svg>
