<?xml version="1.0" encoding="utf-8"?>
<!-- Generator: Adobe Illustrator 21.1.0, SVG Export Plug-In . SVG Version: 6.00 Build 0)  -->
<svg version="1.1" id="Capa_1" xmlns="http://www.w3.org/2000/svg" xmlns:xlink="http://www.w3.org/1999/xlink" x="0px" y="0px"
	 viewBox="0 0 512 512" style="enable-background:new 0 0 512 512;" xml:space="preserve">
<style type="text/css">
	.st0{fill:#F2F2F2;}
</style>
<path d="M512,256c0,15.5-1.4,30.6-4,45.4C486.6,421.1,381.9,512,256,512c-94.9,0-177.7-51.6-221.9-128.2
	C23.3,365.1,14.8,344.9,9,323.6c-5.9-21.5-9-44.2-9-67.6C0,114.6,114.6,0,256,0c116.7,0,215.1,78.1,246,184.8
	C508.5,207.4,512,231.3,512,256z"/>
<g>
	<path class="st0" d="M130.2,178.2H35.9L9,323.6c5.8,21.3,14.3,41.5,25.1,60.2h8.7l10.4-56.3h51.8c63.1,0,80-56.6,84.1-84.4
		C193.3,215.2,172.9,178.2,130.2,178.2z M143.9,247.7c-2.3,15.8-14,47.9-49.7,47.9h-35L74.8,211h35.6
		C145.1,211,146.2,231.9,143.9,247.7z"/>
	<path class="st0" d="M502,184.8c-8-4.1-17.6-6.6-28.6-6.6h-94.3l-38,205.5h45l10.4-56.3h51.8c28.1,0,47-11.2,59.7-26.1
		c2.6-14.7,4-29.9,4-45.4C512,231.3,508.5,207.4,502,184.8z M487.1,247.7c-2.3,15.8-14,47.9-49.7,47.9h-35L418,211h35.6
		C488.3,211,489.4,231.9,487.1,247.7z"/>
	<path class="st0" d="M309.2,178.9c-18.3,0-42.7,0-54.6,0l10.2-55.5h-44.8l-38,205.5h44.8l21.8-118.2c8.1,0,18.8,0,28.6,0
		c19,0,31.9,4.1,29.2,21.7c-2.7,17.6-18.3,95.6-18.3,95.6h45.4c0,0,17.6-86.8,20.3-111.2C356.7,192.5,334.3,178.9,309.2,178.9z"/>
</g>
</svg>
