<svg xmlns="http://www.w3.org/2000/svg" width="102.38" height="84.958"><path fill="#F9EEBE" d="M61.533 53.18h36.171v29.288H61.533z"/><path fill="#EDC722" d="M91.699 47.484H79.972l-8.969-17.516h-9.47v52.5h23.189-.001c-2.99-5.222-3.059-10.067.13-13.256 5.713-5.713 15.967-.798 17.528.001v-11.05c.001-5.898-4.78-10.679-10.68-10.679z"/><path fill="#040700" d="M97.847 64.085s-1.489-.854-4.308-.854H74.528c-6.492 0-10.146-4.842-10.146-6.658 0 0 2.135.713 4.271.713 0 0-4.379-2.492-4.379-12.426 0 0 4.593 7.405 13.137 7.405 8.545 0 8.295.214 13.707.214 5.411 0 6.764 4.117 6.764 6.135 0 1.104-.035 5.471-.035 5.471z"/><path fill="#FFF" d="M86.62 58.472v-.735h6.978v1.591h-3.512z"/><g fill-rule="evenodd" clip-rule="evenodd"><path fill="#56332B" d="M0 59.96c2.358-2.893 4.873-5.644 7.773-7.996 1.897-1.54 3.893-2.976 6.536-2.937.421.006.685-.611 1.208-.439.348.063.707.259 1.023-.081.626-.304 1.292-.21 1.949-.187.368.926-.546 1.092-.929 1.573-1.288 1.503-2.649 2.939-3.736 4.614-1.736 2.678-2.636 5.607-2.87 8.766a4.16 4.16 0 0 1-.109.832c-.354.928.145 1.99-.451 2.877-.05.158-.433-.141-.337.27.11.475.098.973.2 1.455.044.498-.377.846-.421 1.316-.48 1.469-.696 1.52-1.833.564-.357-.299-.636-.611-.779-1.047-.107-5.232 1.635-9.958 3.959-14.527.271-.533.709-.938 1.04-1.422.101-.146-.021.046.081-.104.076-.112.148-.226.218-.341-.099.052-.106.169-.18.247-2.397 2.99-4.654 6.059-6.282 9.554-.315.677-.362 1.491-.96 2.034-1.606-1.684-3.33-3.24-5.1-4.748v-.273zM42.963 48.305c2.742.08 5.459.477 7.895 1.721 1.713.874 3.172 2.213 4.525 3.641a50.17 50.17 0 0 0 2.902 2.797c1.066.955 1.795 2.273 2.908 3.225v.816c-1.768 1.111-2.988 2.836-4.605 4.117-.449-.127-.623-.516-.787-.881-1.713-3.789-4.139-7.117-6.688-10.364a6.492 6.492 0 0 1-.26-.424c.104.231.232.446.393.646 3.115 4.853 4.98 10.091 4.953 15.917-.086.416-.367.699-.648.994-1.049 1.1-1.455 1.01-1.943-.453-.26-.223-.35-.516-.352-.844-.104-.545.471-1.15-.152-1.652-.338-.377-.289-.814-.217-1.256.17-.65.303-1.301.008-1.951a1.697 1.697 0 0 1-.178-.32 1.12 1.12 0 0 1-.043-.539c-.084-.452.578-.963-.111-1.37-.342-.358-.313-.834-.389-1.27-.689-3.916-2.689-7.112-5.42-9.909-.477-.512-.996-.982-1.455-1.51-.272-.312-.668-.623-.336-1.131z"/><path fill="#442823" d="M21.231 83.551c-.594-.018-1.126-.248-1.659-.479-1.356-.881-1.944-2.143-1.858-3.74.093-.479.459-.883.377-1.449-.167.188.169.715-.387.588-.626-.789-.435-1.658-.252-2.525.659-.811 1.118-.107 1.563.248 1.452 1.16 2.889 2.33 4.726 2.842.944.307 1.018-.439 1.238-1.018.143-.375.273-.928.713-.871.529.068.37.641.316 1.012-.141.971.353 1.402 1.215 1.623 2.456.627 4.891.742 7.331-.113.794-.277 1.549-.498 1.631-1.531.022-.277.15-.672.62-.416.825 1.512.814 1.488 2.431.738 1.493-.693 2.723-1.717 3.885-2.855.395-.387.838-.945 1.434-.211.197 1.008.348 2.012-.135 2.984-.305.313-.371-.105-.551-.182.078.348.35.607.436.955.031 1.322-.055 2.598-1.336 3.404-.824.771-1.803 1.1-2.924 1.076-1.072-.021-1.969.598-2.962.869-.572.154-1.13.289-1.723.221-1.875.063-3.747-.26-5.624-.035-1.206.143-2.417-.115-3.624.012-1.303.064-2.378-.643-3.544-1.043-.423-.321-.884-.162-1.337-.104z"/><path fill="#CBAB8C" d="M10.647 63.237c.179-4.459 1.986-8.234 4.869-11.552.612-.704 1.257-1.378 1.887-2.066.478.583.033 1.009-.264 1.441-1.125 1.64-2.343 3.216-3.326 4.952-.333.588-.638 1.176-.768 1.841 1.052-.628 1.199-1.999 2.261-2.595.297.053.417.3.572.509.463.39.961.153 1.424.041 1.38-.332 2.778-.341 4.178-.28 1.756.076 2.267.745 1.905 2.431a19.049 19.049 0 0 1-.527 1.962c-.296.637-.14 1.447-.751 1.961-.736.055-.657-.622-.868-1.008-.816-1.497-2.294-2.332-3.916-2.166-1.626.168-2.742 1.174-3.203 2.887-.575 2.141.902 4.287 3.113 4.527.531.057 1.1-.064 1.563.324-.48 1.939-1.443 2.506-3.198 1.846-1.637-.617-2.851-1.695-3.532-3.357-.031 2.654-.972 5.271-.246 7.947a.555.555 0 0 1-.413.439c-.756-.947-.888-2.107-1.065-3.238-.125-.807-.336-.086-.507-.059l.188-1.375c-.108-.525-.236-1.053.086-1.555.504-.979-.032-2.117.479-3.094.192.174.136.375.136.322-.003-.191.116-.638-.077-1.085zM51.174 66.2c-.018.488-.107.986.182 1.438.322.5.178 1.029.092 1.555.053.289.105.576.16.865-.877.92-.701 2.338-1.553 3.271-.182-.145-.254-.34-.279-.561-.016-.504.178-.965.295-1.439.236-.795.215-1.59.002-2.385-.227-1.385-.445-2.77-.463-4.359-.664 2.346-2.297 3.402-4.318 3.945-1.205.324-2.174-.598-2.352-2.09.287-.258.65-.307 1.004-.289 2.047.096 3.254-.963 3.91-2.799a.926.926 0 0 1 .309-.424c.182-.053.328-.042.324.207.078-.328-.141-.658.02-1.002.027-.061-.188.161-.314.041-.336-.229-.344-.613-.467-.944-.672-1.837-2.518-2.866-4.41-2.468-1.846.389-3.037 1.982-2.963 3.95.018.44.211.888-.037 1.321-1.197.193-1.719-.772-2.405-1.432-.229-.221-.111-.518.163-.68.954-.563.769-1.439.63-2.291-.094-.58-.279-1.141-.41-1.714-.368-1.618.112-2.28 1.805-2.362 1.443-.07 2.895-.104 4.311.281.566.154 1.01.273 1.1-.609.07-.692.563-.458.816-.07.721 1.1 1.602 2.067 2.383 2.918-.652-2.142-2.135-3.997-3.42-5.967-.273-.422-.818-.801-.395-1.428 3.033 2.93 5.035 6.412 5.688 10.618.047.306.152.601.23.901.324.262.131.615.164.927-.527.62-.07 1.2.074 1.794.072.176.123.359.191.535.019.254.06.507-.067.746z"/><path fill="#CBAB8C" d="M11.408 73.321l.294-.309c.776-.129 1.073.559 1.554.922.723.545 1.409 1.137 2.228 1.545.687.342 1.033.162 1.03-.619-.016-3.477 1.658-6.125 4.104-8.398.1-.092.18-.215.293-.281 2.839-1.676 5.346-3.869 8.284-5.375 1.533-.784 3.146-.467 4.516.492 2.187 1.529 4.362 3.066 6.6 4.525 1.889 1.232 3.051 3.191 4.107 5.16.268.496.307 1.037.105 1.578a.475.475 0 0 1-.303.242c-.711-.396-.652-1.24-1.061-1.828-1.938-2.801-4.274-5.113-7.471-6.439a3.055 3.055 0 0 1-.908-.582c-2.527-2.309-4.78-2.343-7.263-.088-.419.381-.911.57-1.415.771-3.19 1.275-5.575 3.477-7.302 6.412-.563.955-.775 2.018-.786 3.123-.005.537.075 1.096-.292 1.568-.049.934-.137 1.871.196 2.779.256.227.181.482.062.74.011 1.488.565 2.748 1.592 3.813-3.112-.848-5.316-2.592-5.898-5.951-.269-1.552-1.591-2.484-2.266-3.8z"/><path fill="#442823" d="M54.199 69.516c-.783-.895-.277-1.992-.43-2.984-.727-4.701-2.49-8.997-4.816-13.098-.105-.287.027-.335.271-.271 3.072 3.424 5.459 7.286 7.363 11.459-.819 1.621-1.409 3.351-2.388 4.894zM12.511 53.433a35.626 35.626 0 0 0-4.432 11.015c-.27 1.232-.521 2.465-.475 3.744.017.471.166 1.02-.381 1.35-.878-1.441-1.478-3.01-2.125-4.559.401-2.462 1.851-4.439 3.074-6.508 1.139-1.926 2.579-3.643 4.066-5.313.245-.064.379-.015.273.271z"/><path fill="#CBAB8C" d="M50.037 72.731l.018.596c-1.066 1.707-2.068 3.395-2.586 5.416-.539 2.105-2.855 3.783-4.5 3.813.73-1.076 1.115-2.256 1.074-3.563-.125-.172-.156-.336.049-.473.383-1.09.205-2.211.197-3.324-.482-.809-.508-1.615.002-2.424l.1-.068c.912.494.516 1.447.709 2.176.211.803.449.998 1.162.523.867-.576 1.705-1.176 2.443-1.918.359-.363.672-.889 1.332-.754z"/><path fill="#3D1E17" d="M26.112 84.698c.403-.432.928-.248 1.4-.252 2.198-.018 4.396-.016 6.595-.002.429.002.911-.152 1.253.277l-.409.021c-1.09.158-2.179.158-3.268 0a2.35 2.35 0 0 1-1.355 0c-1.259.16-2.518.16-3.776 0-.147-.013-.294-.029-.44-.044z"/><path fill="#442823" d="M26.551 84.743h3.776c-1.258.252-2.517.318-3.776 0zM31.683 84.743h3.268c-1.09.299-2.179.222-3.268 0z"/><path fill="#340900" d="M21.231 83.551c.471-.285.925-.365 1.336.104l-1.336-.104z"/><path fill="#EECBA2" d="M50.037 72.731c-1.256 1.064-2.365 2.303-3.82 3.135-.861.492-1.367.602-1.387-.688-.012-.826-.283-1.648-.439-2.475-.484-3.295-2.57-5.521-5.183-7.215-1.63-1.057-3.245-2.109-4.772-3.309-2.521-1.977-4.917-1.896-7.354.209-1.336 1.154-2.848 2.039-4.344 2.969-3.474 2.158-5.776 5.139-5.873 9.438-.039 1.719-.062 1.73-1.647.945-1.359-.674-2.358-1.799-3.515-2.729-1.12-1.988-.332-4.061-.145-6.068.088-.943-.144-1.994.505-3.043.578 2.059 1.807 3.359 3.696 4.098 1.013.396 1.77.42 2.319-.662.157-.309.46-.543.696-.813.617-1.275 1.732-2.074 2.793-2.926.242-.188.47-.393.718-.573 1.177-.481-.089-1.124.109-1.671.142-.455-.088-.952.17-1.391.179-.785.367-1.566.535-2.354.264-1.232-.05-1.672-1.312-1.722-1.751-.069-3.494-.034-5.206.468-.343.1-1.148.644-1.07-.471.118-.287.359-.638-.276-.539-.559 1.344-1.461 2.42-2.716 3.565.296-2.636 1.872-4.343 3.058-6.243.627-1.005 1.656-1.771 1.825-3.05.33-.46 1.108-.545 1.086-1.298.48.236.935.08 1.427-.017a56.62 56.62 0 0 1 14.888-.944c2.745.188 5.436.676 8.159.945.301 1.07 1.418 1.477 1.93 2.375.662 1.539 1.822 2.762 2.662 4.188.75 1.272 1.504 2.534 1.633 4.294-1.199-1.49-2.563-2.549-3.291-4.2-.449.552.145.979-.037 1.558-1.623-.382-3.27-.705-4.977-.661-2.555.065-2.68.187-2.088 2.595.172.694.415 1.378.38 2.122-.039.825.146 1.753-1.599 1.521 1.174.799 1.76 1.553 2.631 1.951 1.299.408 2.166 1.293 2.756 2.486.459.768.912 1.877 1.842 1.75 1.508-.209 2.941-.898 3.83-2.281.383-.6.646-1.277 1.041-2.068.439 1.717.498 3.367.648 5.006a5.21 5.21 0 0 1 0 2.439c-.094.452-.19.903-.286 1.354z"/><path fill="#4A2014" d="M16.541 48.507c-.304.504-.658.357-1.023.081l1.023-.081z"/><path fill="#492B25" d="M12.511 53.433l-.272-.271c.217-.394.497-.725 1.071-.994-.184.581-.466.937-.799 1.265z"/><path fill="#4E2924" d="M10.111 67.094a809.71 809.71 0 0 0-.086 1.555c-.395-.512-.252-1.07-.138-1.625.002-.012.082-.021.118-.01.04.014.071.053.106.08z"/><path fill="#CFAF8F" d="M10.647 63.237c.368.424.249.893.149 1.381-.267-.164-.155-.416-.207-.617l.058-.764z"/><path fill="#492B25" d="M49.225 53.163l-.271.271-.795-1.033c.556.022.841.352 1.066.762z"/><path fill="#4E2924" d="M51.174 66.2c-.029-.262-.059-.523-.086-.785-.172-.457-.332-.916.016-1.367.488.701.398 1.421.07 2.152z"/><path fill="#4E2923" d="M51.447 69.192c-.031-.52-.063-1.037-.092-1.555.588.485.352 1.02.092 1.555z"/><path fill="#CFAF8F" d="M50.855 65.127c-.443-.621-.371-1.258-.055-1.901.105.022.156.066.152.134-.004.08-.02.119-.045.119-.006.176-.01.35-.014.525.132.379.175.756-.038 1.123z"/><path fill="#4E2924" d="M50.908 63.479l-.107-.253c.004-.343.008-.685.01-1.026.681.377.279.837.097 1.279z"/><path fill="#9B7C66" d="M50.855 65.127l.039-1.123a.893.893 0 0 0 .209.043l-.016 1.367c-.077-.095-.153-.191-.232-.287z"/><path fill="#56332B" d="M44.291 72.772l-.002 2.424c-.887.08-1.184.928-1.717 1.42-1.082.998-2.299 1.723-3.602 2.344-1.747.834-1.75.828-2.252-1.049.306-2.457-.599-4.367-2.557-5.85-1.184-.895-2.443-1.781-2.227-3.574.076-.629-.454-.947-.776-1.367-.149-.492-.37-.984-.004-1.477.143-.107.333-.076.43-.129-.419-.213-.885-.063-1.352.014-.183.02-.322-.115-.493-.141.188.105.388.16.606.154.203.002.4.012.516.219.038.283.087.563.13.844.054.666.149 1.328.114 1.998-.057.801.137 1.635-.311 2.383a1.287 1.287 0 0 1-.287.293c-.481.303-1.029.484-1.499.811-.447.273-.899.543-1.044 1.105a1.93 1.93 0 0 1-.183.326c-1.016 1.693-2.398 3.146-3.195 4.984-.16.369-.316.881-.927.766-1.978-.305-3.358-1.645-4.84-2.807-.347-.273-.574-.721-1.098-.723-.25-4.877 2.939-9.355 8.152-11.406.677-.268 1.289-.531 1.762-1.146 1.294-1.681 6.035-1.813 7.177.309.299.555.864.6 1.337.836 3.713 1.849 6.679 4.419 8.142 8.439z"/><path fill="#56332B" d="M23.66 79.27c.436-.459.771-.947.878-1.613.08-.5.209-1.033.878-1.217.453-.123.596-.6.76-1.039.316-.842.707-1.664 1.569-2.115 1.81-1.271 3.679-1.977 5.762-.598.173.104.326.283.568.145-.154-.236-.42-.33-.625-.5-.717-.514-1.658-.662-2.254-1.377-.263-1.314-.399-2.627.091-3.924.709.305 1.198.641 1.004 1.615-.333 1.678 1.084 2.438 2.137 3.15 1.437.971 3.166 4.139 2.795 5.742-.062.264-.274.332-.506.371-.525 2.543-2.779 2.332-4.535 2.664-1.816.346-3.679-.025-5.471-.523-1.175-.326-1.263-.598-.985-2.719-.563.338-.442.957-.564 1.436-.263 1.039-.746 1.098-1.502.502z"/><path fill="#3E211E" d="M17.98 79.26l-.062-.74.097-.902c.189.564.388 1.125-.035 1.642zM44.092 78.52l-.049.473c-.383-.297-.221-.684-.092-1.082l.141.609z"/><path d="M21.795 63.77l-3.022 2.754c-1.825.215-3.422-.131-4.486-1.809-.941-1.482-.951-3.012-.048-4.475.944-1.528 2.413-2.162 4.182-1.91 1.666.236 2.752 1.252 3.336 2.814.094.252.169.51.253.764.686.709.064 1.265-.215 1.862z"/><path fill="#CFAF8F" d="M21.795 63.77l.215-1.861c.285-.619.121-1.367.554-1.945l.001 1.635c-.088.547.253 1.162-.258 1.643-.171.175-.341.35-.512.528z"/><path fill="#DCBB97" d="M15.235 55.346c.1-.189.246-.506.447-.289.22.236.122.598-.171.828-.016-.218-.052-.427-.276-.539z"/><path d="M42.963 66.534c-.918-.828-1.838-1.656-2.756-2.486-.848-3.424 1.217-6.107 4.471-5.723 2.244.266 3.264 1.816 3.705 3.869.223.231.221.463-.004.692-1.014 3.034-2.135 3.788-5.416 3.648z"/><path fill="#CDAF91" d="M50.324 71.379V68.94c.42.812.418 1.625 0 2.439z"/><path fill="#CFAF8F" d="M48.379 62.886c.002-.231.004-.462.004-.692.055-.105.107-.211.162-.316.283.42.158.885.057 1.305-.024.105-.166-.169-.223-.297z"/><path fill="#CBAB8C" d="M37.798 54.516c-1.389.381-1.681 1.579-1.854 2.729-.142.941-.484.76-1.045.436-2.898-1.68-5.774-1.892-8.697.232-.18-1.082.827-2.398-.629-3.133-.06-.239-.02-.375.266-.26.42.203.923.539.938.916.063 1.618.931 1.026 1.771.768 1.928-.596 3.835-.407 5.671.363.696.291 1.09.522 1.186-.561.104-1.18 1.138-1.504 2.123-1.766.285-.099.337.032.27.276z"/><path fill="#CDAD8D" d="M26.345 59.933c3.071-2.519 7.116-2.222 9.631.206-1.766-.654-3.343-1.18-4.968-1.219-1.595-.039-3.133.543-4.663 1.013z"/><path fill="#CDAD8E" d="M48.959 69.211c-.918 1.213-2.234 1.109-3.531 1.076-.082-.057-.109-.113-.084-.172.023-.059.051-.09.076-.09 1.191-.051 2.309-.324 3.258-1.096.256-.067.379-.003.281.282zM16.042 70.292c-2.133.014-2.484-.154-3.402-1.707a5.32 5.32 0 0 0 3.407 1.438c.092.061.122.121.09.182-.032.057-.063.087-.095.087z"/><path fill="#CBAB8D" d="M22.307 63.241c.079-.549-.224-1.157.258-1.643.144.453.609.471.956.686-.286.49-.625.878-1.214.957z"/><path fill="#CFAF8F" d="M31.809 53.44c-.653.06-1.306.118-2.131.192.807-.822 1.562-.913 2.411-.462.055.243.011.385-.28.27z"/><path fill="#DAB996" d="M37.798 54.516l-.271-.275c.692-.518 1.449-.176 2.191-.117l-1.92.392z"/><path fill="#D1B090" d="M25.839 54.52l-.266.26c-.402-.316-1.008-.104-1.368-.529-.095-.061-.127-.121-.095-.182.031-.06.063-.09.095-.09.597.023 1.162.141 1.634.541z"/><path fill="#CFAF8F" d="M31.809 53.44l.28-.27c.316.199.77.213.938.741-.476-.078-.889-.148-1.218-.471z"/><path fill="#D2B191" d="M48.959 69.211l-.281-.281c.219-.314.377-.705.898-.713-.09.432-.334.727-.617.994z"/><path fill="#DEBD99" d="M16.042 70.292c.003-.09.005-.18.005-.27.348-.143.677-.402 1.236-.107-.488.148-.864.261-1.241.377z"/><path fill="#D9B895" d="M22.847 54.247h-1.06l-.01-.216 1.07-.052c.088.06.118.119.088.179s-.059.089-.088.089z"/><path fill="#E3C19B" d="M34.277 54.452c-.253.174-.347.26-.364.246-.132-.1-.292-.199-.36-.339-.066-.138.033-.249.207-.172.162.072.318.161.517.265z"/><path fill="#CCAC8D" d="M22.847 54.247a11.971 11.971 0 0 1 0-.268h1.358v.271c-.453-.001-.906-.001-1.358-.003z"/><path fill="#DEBD99" d="M45.42 70.026c.002.088.004.176.008.262l-.959-.41c.435-.169.715-.172.951.148z"/><path fill="#7B483F" d="M33.746 73.026c-2.062-1.33-4.028-.469-6 .26l.002-.311a9.588 9.588 0 0 1 1.303-.992c.502-.27 1.003-.541 1.53-.762 1.221-.314 1.98.611 2.912 1.078.208.2.374.412.253.727z"/><path fill="#1D110E" d="M31.288 67.032c.109 1.354-.286 2.742.283 4.063-.378.223-.755.223-1.133 0 .512-.762.189-1.623.297-2.434.23-.719.21-1.438.014-2.158l-.048-.807c.191-.188.388-.189.59-.016-.323.449.056.901-.003 1.352z"/><path fill="#040202" d="M30.438 71.094h1.133a4.88 4.88 0 0 1 2.151 1.107c.057.25-.013.369-.285.279-.936-.486-1.748-1.307-2.945-1.076-.299.115-.347-.031-.295-.281a1.29 1.29 0 0 1 .241-.029z"/><path fill="#76453C" d="M29.932 62.616c.751-.313 1.308-.194 1.895-.166-.737.558-.737.558-1.895.166z"/><path fill="#341813" d="M30.179 64.143c-.067.252-.09.578-.468.514-.259-.045-.333-.297-.301-.531.038-.277.169-.545.5-.516.306.027.247.316.269.533z"/><path fill="#371A15" d="M31.817 63.612c.319.061.38.346.454.574.07.221-.026.473-.288.482-.332.014-.402-.281-.419-.541-.014-.203-.039-.447.253-.515z"/><path fill="#070403" d="M31.29 65.68l-.59.016a38.055 38.055 0 0 1-.485-.039c-.109-.051-.145-.104-.11-.158.035-.053.071-.08.107-.08.477-.307.946-.408 1.452-.031.166.123.337.162.017.266-.121.038-.26.018-.391.026z"/><path fill="#130B09" d="M30.196 71.124l.295.281c-.466.258-.932.516-1.398.771-.113-.074-.272-.098-.298-.27.384-.409.91-.566 1.401-.782z"/><path fill="#0B0605" d="M28.796 71.907l.298.271c-.453.258-.711.846-1.346.797.038-.662.614-.795 1.048-1.068z"/><path fill="#090504" d="M30.749 66.502c.394.721.412 1.441-.014 2.158l.014-2.158z"/><path fill="#482B25" d="M23.864 70.346c.214.035.291.186.29.375-.001.223-.163.338-.343.26a.579.579 0 0 1-.304-.373c-.04-.234.175-.256.357-.262z"/><path fill="#462A24" d="M37.638 71.032c-.317-.045-.367-.219-.322-.395.024-.1.203-.254.237-.236.14.07.333.189.345.309.012.107-.186.238-.26.322z"/><path fill="#472A24" d="M30.212 65.418a.704.704 0 0 0 .002.238c-.364.016-.65-.129-.931-.389.419-.259.647.073.929.151z"/><path fill="#150C0A" d="M33.437 72.481l.285-.279c.281.189.721.289.599.746-.034.127-.345.311-.575.078l-.309-.545z"/><path fill="#39211D" d="M36.368 76.899c-.261-.297-.362-.59-.354-1.033.479.265.451.605.354 1.033z"/><path fill="#F6F6F6" d="M18.922 61.681c-.692-.021-1.14-.407-1.161-1.062-.021-.646.391-1.123 1.072-1.157.696-.034 1.116.426 1.151 1.072.036.663-.379 1.068-1.062 1.147z"/><path fill="#F7F7F7" d="M43.047 59.424c.65.174 1.09.488 1.055 1.203-.033.716-.471 1.066-1.137 1.033-.668-.033-1.09-.459-1.049-1.143.041-.667.506-.999 1.131-1.093z"/></g><g><path fill-rule="evenodd" clip-rule="evenodd" fill="#CC649B" d="M62.759 39.217c-.22-.158-.182-.663.529-2.235.28-.616.921-1.659 2.032-2.653.127.41.208.801.204 1.166-.014 2.434-1.729 3.346-2.765 3.722zm-9.137 2.106c-.29.155-.555.252-.679.18-.092-.057.12-.258.12-.258s1.482-1.615 2.066-2.354c.339-.427.732-.935 1.163-1.501.003.058.003.112.003.168-.002 1.935-1.848 3.242-2.673 3.765zm-11.851-5.726c-.688 1.691-2.125 6.026-2.998 5.795-.75-.201-1.207-3.493-.149-6.735.531-1.63 1.67-3.58 2.336-4.34 1.075-1.214 2.262-1.616 2.548-1.122.366.632-1.31 5.34-1.737 6.402zm-14.352 9.878c-1.967 2.176-4.72 2.996-5.902 2.305-1.273-.748-.768-3.952 1.648-6.259 1.473-1.409 3.376-2.705 4.639-3.501.286-.175.708-.434 1.222-.745a4.98 4.98 0 0 1 .131-.075v-.004l.304-.186c.88 3.289.028 6.181-2.042 8.465zm45.836-15.648a13.926 13.926 0 0 0-6.195 1.461c-.632-1.282-1.277-2.411-1.382-3.249-.128-.982-.273-1.566-.121-2.73.151-1.169.817-2.819.807-2.942-.008-.124-.149-.719-1.525-.73-1.38-.006-2.558.269-2.696.639a13.385 13.385 0 0 0-.569 2.063c-.244 1.266-2.752 5.78-4.178 8.14-.467-.919-.863-1.732-.945-2.374-.127-.981-.272-1.565-.12-2.729.152-1.168.817-2.82.81-2.946-.01-.121-.151-.715-1.528-.727-1.379-.01-2.558.269-2.695.637-.14.37-.286 1.23-.569 2.063-.284.832-3.621 8.364-4.494 10.313a53.236 53.236 0 0 1-1.108 2.34v-.004l-.046.097c-.233.466-.375.724-.375.724s.005.004.005.007c-.185.345-.384.659-.481.659-.071 0-.209-.905.027-2.153.495-2.611 1.691-6.685 1.678-6.824-.004-.071.223-.782-.778-1.154-.973-.358-1.319.241-1.408.243-.085 0-.148.212-.148.212s1.082-4.579-2.066-4.579c-1.972 0-4.699 2.183-6.045 4.16-.848.469-2.663 1.474-4.591 2.544-.738.411-1.493.83-2.211 1.232l-.146-.165c-3.821-4.127-10.884-7.047-10.587-12.594.11-2.021.803-7.331 13.572-13.772 10.46-5.278 18.834-3.826 20.281-.609 2.066 4.6-4.476 13.146-15.337 14.381-4.141.47-6.32-1.157-6.861-1.763-.57-.634-.655-.663-.87-.545-.348.194-.128.756 0 1.092.326.854 1.656 2.37 3.928 3.126 1.996.662 6.853 1.028 12.729-1.276 6.582-2.575 11.723-9.749 10.211-15.743C55.692.258 45.711-1.749 36.261 1.651c-5.622 2.022-11.708 5.199-16.085 9.345-4.553 4.31-5.76 8.132-5.76 10.226 0 .297.025.559.067.784 1.214 6.369 9.886 10.516 13.355 13.59l-.477.268c-1.741.872-8.35 4.375-10.002 8.074-1.876 4.198.297 7.207 1.737 7.612 4.458 1.257 9.033-1.002 11.49-4.715 2.46-3.712 2.159-8.549 1.031-10.755-.014-.026-.028-.055-.044-.08.45-.27.907-.543 1.363-.813a103.73 103.73 0 0 1 2.509-1.438c-.422 1.173-.732 2.577-.893 4.605-.19 2.383.775 5.464 2.036 6.675.555.533 1.224.548 1.647.548 1.469 0 2.139-1.239 2.876-2.701.906-1.795 1.71-3.884 1.71-3.884s-1.009 5.643 1.737 5.643c.998 0 2.006-1.315 2.452-1.981l.003.011.078-.132c.103-.161.162-.262.162-.262s0-.012.004-.029c.403-.708 1.295-2.321 2.633-4.976 1.727-3.437 3.383-7.735 3.383-7.735s.155 1.048.661 2.79c.298 1.022.928 2.153 1.426 3.239-.403.563-.647.885-.647.885s0 .008.007.02c-.322.429-.679.895-1.058 1.346-1.362 1.645-2.985 3.522-3.202 4.066-.259.638-.198 1.108.298 1.483.36.276 1.004.318 1.678.276 1.227-.087 2.087-.395 2.515-.581a8.345 8.345 0 0 0 2.158-1.149c1.338-.995 2.144-2.423 2.066-4.306-.043-1.04-.368-2.071-.781-3.047.119-.176.239-.355.363-.534 2.108-3.124 3.742-6.553 3.742-6.553s.156 1.05.66 2.791c.258.883.76 1.843 1.212 2.78-1.98 1.634-3.212 3.529-3.636 4.772-.793 2.3-.173 3.344.986 3.578.527.107 1.267-.136 1.825-.375a8.385 8.385 0 0 0 2.309-1.2c1.34-.995 2.624-2.39 2.547-4.278-.035-.859-.265-1.712-.576-2.529 1.68-.709 3.855-1.104 6.626-.776 5.947.701 7.116 4.463 6.893 6.036-.223 1.573-1.472 2.439-1.889 2.701-.418.262-.545.351-.51.546.053.283.244.272.601.21.49-.082 3.121-1.279 3.234-4.184.145-3.692-3.346-7.745-9.526-7.711z"/></g></svg>