<?xml version="1.0" encoding="utf-8"?>
<!-- Generator: Adobe Illustrator 21.1.0, SVG Export Plug-In . SVG Version: 6.00 Build 0)  -->
<svg version="1.1" id="Слой_1" xmlns="http://www.w3.org/2000/svg" xmlns:xlink="http://www.w3.org/1999/xlink" x="0px" y="0px"
	 viewBox="0 0 102.4 85" style="enable-background:new 0 0 102.4 85;" xml:space="preserve">
<style type="text/css">
	.st0{fill:#56332B;}
	.st1{fill:#442823;}
	.st2{fill:#CBAB8C;}
	.st3{fill:#3D1E17;}
	.st4{fill:#340900;}
	.st5{fill:#EECBA2;}
	.st6{fill:#4A2014;}
	.st7{fill:#492B25;}
	.st8{fill:#4E2924;}
	.st9{fill:#CFAF8F;}
	.st10{fill:#4E2923;}
	.st11{fill:#9B7C66;}
	.st12{fill:#3E211E;}
	.st13{fill:#DCBB97;}
	.st14{fill:#CDAF91;}
	.st15{fill:#CDAD8D;}
	.st16{fill:#CDAD8E;}
	.st17{fill:#CBAB8D;}
	.st18{fill:#DAB996;}
	.st19{fill:#D1B090;}
	.st20{fill:#D2B191;}
	.st21{fill:#DEBD99;}
	.st22{fill:#D9B895;}
	.st23{fill:#E3C19B;}
	.st24{fill:#CCAC8D;}
	.st25{fill:#7B483F;}
	.st26{fill:#1D110E;}
	.st27{fill:#040202;}
	.st28{fill:#76453C;}
	.st29{fill:#341813;}
	.st30{fill:#371A15;}
	.st31{fill:#070403;}
	.st32{fill:#130B09;}
	.st33{fill:#0B0605;}
	.st34{fill:#090504;}
	.st35{fill:#482B25;}
	.st36{fill:#462A24;}
	.st37{fill:#472A24;}
	.st38{fill:#150C0A;}
	.st39{fill:#39211D;}
	.st40{fill:#F6F6F6;}
	.st41{fill:#F7F7F7;}
</style>
<g>
	<path class="st0" d="M5.8,34.2C9.3,29.4,13,24.9,17.3,21c2.8-2.5,5.7-4.9,9.6-4.8c0.6,0,1-1,1.8-0.7c0.5,0.1,1,0.4,1.5-0.1
		C31.1,14.8,32,15,33,15c0.5,1.5-0.8,1.8-1.4,2.6c-1.9,2.5-3.9,4.8-5.5,7.6c-2.6,4.4-3.9,9.2-4.2,14.4c0,0.5-0.1,0.9-0.2,1.4
		c-0.5,1.5,0.2,3.3-0.7,4.7c-0.1,0.3-0.6-0.2-0.5,0.4c0.2,0.8,0.1,1.6,0.3,2.4c0.1,0.8-0.6,1.4-0.6,2.2c-0.7,2.4-1,2.5-2.7,0.9
		c-0.5-0.5-0.9-1-1.1-1.7c-0.2-8.6,2.4-16.4,5.8-23.9c0.4-0.9,1-1.5,1.5-2.3c0.1-0.2,0,0.1,0.1-0.2c0.1-0.2,0.2-0.4,0.3-0.6
		c-0.1,0.1-0.2,0.3-0.3,0.4c-3.5,4.9-6.8,10-9.2,15.7c-0.5,1.1-0.5,2.5-1.4,3.3c-2.4-2.8-4.9-5.3-7.5-7.8
		C5.8,34.6,5.8,34.2,5.8,34.2z M69,15c4,0.1,8,0.8,11.6,2.8c2.5,1.4,4.7,3.6,6.6,6c1.4,1.6,2.8,3.1,4.3,4.6c1.6,1.6,2.6,3.7,4.3,5.3
		v1.3c-2.6,1.8-4.4,4.7-6.8,6.8c-0.7-0.2-0.9-0.8-1.2-1.4c-2.5-6.2-6.1-11.7-9.8-17c-0.1-0.2-0.3-0.5-0.4-0.7
		c0.2,0.4,0.3,0.7,0.6,1.1c4.6,8,7.3,16.6,7.3,26.2c-0.1,0.7-0.5,1.1-1,1.6c-1.5,1.8-2.1,1.7-2.9-0.7c-0.4-0.4-0.5-0.8-0.5-1.4
		c-0.2-0.9,0.7-1.9-0.2-2.7c-0.5-0.6-0.4-1.3-0.3-2.1c0.2-1.1,0.4-2.1,0-3.2c-0.1-0.2-0.2-0.3-0.3-0.5c-0.1-0.3-0.1-0.6-0.1-0.9
		c-0.1-0.7,0.8-1.6-0.2-2.3c-0.5-0.6-0.5-1.4-0.6-2.1c-1-6.4-4-11.7-8-16.3c-0.7-0.8-1.5-1.6-2.1-2.5C69.1,16.3,68.5,15.8,69,15z"/>
	<path class="st1" d="M37,72.9c-0.9,0-1.7-0.4-2.4-0.8c-2-1.4-2.9-3.5-2.7-6.1c0.1-0.8,0.7-1.5,0.6-2.4c-0.2,0.3,0.2,1.2-0.6,1
		c-0.9-1.3-0.6-2.7-0.4-4.2c1-1.3,1.6-0.2,2.3,0.4c2.1,1.9,4.2,3.8,6.9,4.7c1.4,0.5,1.5-0.7,1.8-1.7c0.2-0.6,0.4-1.5,1-1.4
		c0.8,0.1,0.5,1.1,0.5,1.7c-0.2,1.6,0.5,2.3,1.8,2.7c3.6,1,7.2,1.2,10.8-0.2c1.2-0.5,2.3-0.8,2.4-2.5c0-0.5,0.2-1.1,0.9-0.7
		c1.2,2.5,1.2,2.4,3.6,1.2c2.2-1.1,4-2.8,5.7-4.7c0.6-0.6,1.2-1.6,2.1-0.3c0.3,1.7,0.5,3.3-0.2,4.9c-0.4,0.5-0.5-0.2-0.8-0.3
		c0.1,0.6,0.5,1,0.6,1.6c0,2.2-0.1,4.3-2,5.6c-1.2,1.3-2.6,1.8-4.3,1.8c-1.6,0-2.9,1-4.4,1.4c-0.8,0.3-1.7,0.5-2.5,0.4
		c-2.8,0.1-5.5-0.4-8.3-0.1c-1.8,0.2-3.6-0.2-5.3,0c-1.9,0.1-3.5-1.1-5.2-1.7C38.4,72.6,37.7,72.8,37,72.9L37,72.9z"/>
	<path class="st2" d="M21.5,39.5c0.3-7.3,2.9-13.5,7.2-19c0.9-1.2,1.8-2.3,2.8-3.4c0.7,1,0,1.7-0.4,2.4c-1.7,2.7-3.4,5.3-4.9,8.1
		c-0.5,1-0.9,1.9-1.1,3c1.5-1,1.8-3.3,3.3-4.3c0.4,0.1,0.6,0.5,0.8,0.8c0.7,0.6,1.4,0.3,2.1,0.1c2-0.5,4.1-0.6,6.1-0.5
		c2.6,0.1,3.3,1.2,2.8,4C40,32,39.7,33,39.4,34.1c-0.4,1-0.2,2.4-1.1,3.2c-1.1,0.1-1-1-1.3-1.7c-1.2-2.5-3.4-3.8-5.8-3.6
		c-2.4,0.3-4,1.9-4.7,4.7c-0.8,3.5,1.3,7,4.6,7.4c0.8,0.1,1.6-0.1,2.3,0.5c-0.7,3.2-2.1,4.1-4.7,3c-2.4-1-4.2-2.8-5.2-5.5
		c0,4.4-1.4,8.7-0.4,13.1c-0.1,0.4-0.3,0.6-0.6,0.7c-1.1-1.6-1.3-3.5-1.6-5.3c-0.2-1.3-0.5-0.1-0.7-0.1l0.3-2.3
		c-0.2-0.9-0.3-1.7,0.1-2.6c0.7-1.6,0-3.5,0.7-5.1c0.3,0.3,0.2,0.6,0.2,0.5C21.6,41,21.8,40.3,21.5,39.5z M81,44.4
		c0,0.8-0.2,1.6,0.3,2.4c0.5,0.8,0.3,1.7,0.1,2.6c0.1,0.5,0.2,0.9,0.2,1.4c-1.3,1.5-1,3.8-2.3,5.4c-0.3-0.2-0.4-0.6-0.4-0.9
		c0-0.8,0.3-1.6,0.4-2.4c0.3-1.3,0.3-2.6,0-3.9c-0.3-2.3-0.7-4.6-0.7-7.2c-1,3.9-3.4,5.6-6.3,6.5c-1.8,0.5-3.2-1-3.5-3.4
		c0.4-0.4,1-0.5,1.5-0.5c3,0.2,4.8-1.6,5.7-4.6c0.1-0.3,0.2-0.5,0.5-0.7c0.3-0.1,0.5-0.1,0.5,0.3c0.1-0.5-0.2-1.1,0-1.6
		c0-0.1-0.3,0.3-0.5,0.1c-0.5-0.4-0.5-1-0.7-1.6c-1-3-3.7-4.7-6.5-4.1c-2.7,0.6-4.5,3.3-4.4,6.5c0,0.7,0.3,1.5-0.1,2.2
		c-1.8,0.3-2.5-1.3-3.5-2.4c-0.3-0.4-0.2-0.9,0.2-1.1c1.4-0.9,1.1-2.4,0.9-3.8c-0.1-1-0.4-1.9-0.6-2.8c-0.5-2.7,0.2-3.7,2.7-3.9
		c2.1-0.1,4.3-0.2,6.3,0.5c0.8,0.3,1.5,0.4,1.6-1c0.1-1.1,0.8-0.8,1.2-0.1c1.1,1.8,2.4,3.4,3.5,4.8c-1-3.5-3.1-6.6-5-9.8
		c-0.4-0.7-1.2-1.3-0.6-2.3c4.5,4.8,7.4,10.5,8.4,17.5c0.1,0.5,0.2,1,0.3,1.5c0.5,0.4,0.2,1,0.2,1.5c-0.8,1-0.1,2,0.1,2.9
		c0.1,0.3,0.2,0.6,0.3,0.9C81.2,43.6,81.2,44,81,44.4z"/>
	<path class="st2" d="M22.6,56.1l0.4-0.5c1.1-0.2,1.6,0.9,2.3,1.5c1.1,0.9,2.1,1.9,3.3,2.5c1,0.6,1.5,0.3,1.5-1
		c0-5.7,2.4-10.1,6-13.8c0.1-0.2,0.3-0.4,0.4-0.5c4.2-2.8,7.9-6.4,12.2-8.8c2.3-1.3,4.6-0.8,6.6,0.8c3.2,2.5,6.4,5,9.7,7.4
		c2.8,2,4.5,5.2,6,8.5c0.4,0.8,0.5,1.7,0.2,2.6c-0.1,0.2-0.3,0.3-0.4,0.4c-1-0.7-1-2-1.6-3c-2.8-4.6-6.3-8.4-11-10.6
		c-0.5-0.2-0.9-0.6-1.3-1c-3.7-3.8-7-3.9-10.7-0.1c-0.6,0.6-1.3,0.9-2.1,1.3c-4.7,2.1-8.2,5.7-10.7,10.5c-0.8,1.6-1.1,3.3-1.2,5.1
		c0,0.9,0.1,1.8-0.4,2.6c-0.1,1.5-0.2,3.1,0.3,4.6c0.4,0.4,0.3,0.8,0.1,1.2c0,2.4,0.8,4.5,2.3,6.3c-4.6-1.4-7.8-4.3-8.7-9.8
		C25.5,59.8,23.6,58.3,22.6,56.1L22.6,56.1z"/>
	<path class="st1" d="M85.5,49.9c-1.2-1.5-0.4-3.3-0.6-4.9c-1.1-7.7-3.7-14.8-7.1-21.5c-0.2-0.5,0-0.6,0.4-0.4
		c4.5,5.6,8,12,10.8,18.8C87.8,44.5,86.9,47.3,85.5,49.9z M24.2,23.4C21.2,29,19,35.1,17.7,41.5c-0.4,2-0.8,4.1-0.7,6.2
		c0,0.8,0.2,1.7-0.6,2.2c-1.3-2.4-2.2-4.9-3.1-7.5c0.6-4,2.7-7.3,4.5-10.7c1.7-3.2,3.8-6,6-8.7C24.2,22.9,24.4,23,24.2,23.4z"/>
	<path class="st2" d="M79.4,55.2l0,1c-1.6,2.8-3,5.6-3.8,8.9c-0.8,3.5-4.2,6.2-6.6,6.3c1.1-1.8,1.6-3.7,1.6-5.9
		c-0.2-0.3-0.2-0.6,0.1-0.8c0.6-1.8,0.3-3.6,0.3-5.5c-0.7-1.3-0.7-2.7,0-4l0.1-0.1c1.3,0.8,0.8,2.4,1,3.6c0.3,1.3,0.7,1.6,1.7,0.9
		c1.3-0.9,2.5-1.9,3.6-3.2C77.9,55.8,78.4,54.9,79.4,55.2z"/>
	<path class="st3" d="M44.2,74.8c0.6-0.7,1.4-0.4,2.1-0.4c3.2,0,6.5,0,9.7,0c0.6,0,1.3-0.2,1.8,0.5l-0.6,0c-1.6,0.3-3.2,0.3-4.8,0
		c-0.6,0.2-1.3,0.2-2,0c-1.9,0.3-3.7,0.3-5.5,0C44.6,74.9,44.4,74.8,44.2,74.8z"/>
	<path class="st1" d="M44.8,74.9h5.5C48.5,75.3,46.7,75.4,44.8,74.9z M52.4,74.9h4.8C55.6,75.4,54,75.3,52.4,74.9z"/>
	<path class="st4" d="M37,72.9c0.7-0.5,1.4-0.6,2,0.2L37,72.9z"/>
	<path class="st5" d="M79.4,55.2c-1.8,1.7-3.5,3.8-5.6,5.2c-1.3,0.8-2,1-2-1.1c0-1.4-0.4-2.7-0.6-4.1c-0.7-5.4-3.8-9.1-7.6-11.9
		c-2.4-1.7-4.8-3.5-7-5.4c-3.7-3.2-7.2-3.1-10.8,0.3c-2,1.9-4.2,3.4-6.4,4.9c-5.1,3.5-8.5,8.4-8.6,15.5c-0.1,2.8-0.1,2.8-2.4,1.6
		c-2-1.1-3.5-3-5.2-4.5c-1.6-3.3-0.5-6.7-0.2-10c0.1-1.6-0.2-3.3,0.7-5c0.8,3.4,2.7,5.5,5.4,6.7c1.5,0.7,2.6,0.7,3.4-1.1
		c0.2-0.5,0.7-0.9,1-1.3c0.9-2.1,2.5-3.4,4.1-4.8c0.4-0.3,0.7-0.6,1.1-0.9c1.7-0.8-0.1-1.8,0.2-2.7c0.2-0.7-0.1-1.6,0.2-2.3
		c0.3-1.3,0.5-2.6,0.8-3.9c0.4-2-0.1-2.7-1.9-2.8c-2.6-0.1-5.1-0.1-7.7,0.8c-0.5,0.2-1.7,1.1-1.6-0.8c0.2-0.5,0.5-1-0.4-0.9
		c-0.8,2.2-2.1,4-4,5.9c0.4-4.3,2.8-7.1,4.5-10.3c0.9-1.7,2.4-2.9,2.7-5c0.5-0.8,1.6-0.9,1.6-2.1c0.7,0.4,1.4,0.1,2.1,0
		c7.2-1.6,14.6-2.1,21.9-1.6c4,0.3,8,1.1,12,1.6c0.4,1.8,2.1,2.4,2.8,3.9c1,2.5,2.7,4.5,3.9,6.9c1.1,2.1,2.2,4.2,2.4,7.1
		c-1.8-2.4-3.8-4.2-4.8-6.9c-0.7,0.9,0.2,1.6-0.1,2.6c-2.4-0.6-4.8-1.2-7.3-1.1c-3.8,0.1-3.9,0.3-3.1,4.3c0.3,1.1,0.6,2.3,0.6,3.5
		c-0.1,1.4,0.2,2.9-2.3,2.5c1.7,1.3,2.6,2.6,3.9,3.2c1.9,0.7,3.2,2.1,4,4.1c0.7,1.3,1.3,3.1,2.7,2.9c2.2-0.3,4.3-1.5,5.6-3.7
		c0.6-1,0.9-2.1,1.5-3.4c0.6,2.8,0.7,5.5,1,8.2c0.3,1.3,0.3,2.7,0,4C79.6,53.7,79.5,54.4,79.4,55.2z"/>
	<path class="st6" d="M30.1,15.3c-0.4,0.8-1,0.6-1.5,0.1L30.1,15.3z"/>
	<path class="st7" d="M24.2,23.4L23.8,23c0.3-0.6,0.7-1.2,1.6-1.6C25.1,22.3,24.7,22.9,24.2,23.4z"/>
	<path class="st8" d="M20.7,45.9c0,0.9-0.1,1.7-0.1,2.6c-0.6-0.8-0.4-1.8-0.2-2.7c0,0,0.1,0,0.2,0C20.6,45.8,20.6,45.8,20.7,45.9z"
		/>
	<path class="st9" d="M21.5,39.5c0.5,0.7,0.4,1.5,0.2,2.3c-0.4-0.3-0.2-0.7-0.3-1L21.5,39.5z"/>
	<path class="st7" d="M78.2,23l-0.4,0.4l-1.2-1.7C77.4,21.8,77.8,22.3,78.2,23z"/>
	<path class="st8" d="M81,44.4c0-0.4-0.1-0.9-0.1-1.3c-0.3-0.8-0.5-1.5,0-2.2C81.6,42,81.5,43.2,81,44.4z"/>
	<path class="st10" d="M81.4,49.3c0-0.9-0.1-1.7-0.1-2.6C82.2,47.6,81.8,48.5,81.4,49.3z"/>
	<path class="st9" d="M80.6,42.7c-0.7-1-0.5-2.1-0.1-3.1c0.2,0,0.2,0.1,0.2,0.2c0,0.1,0,0.2-0.1,0.2c0,0.3,0,0.6,0,0.9
		C80.8,41.4,80.9,42,80.6,42.7z"/>
	<path class="st8" d="M80.6,39.9l-0.2-0.4c0-0.6,0-1.1,0-1.7C81.5,38.5,80.9,39.2,80.6,39.9z"/>
	<path class="st11" d="M80.6,42.7l0.1-1.8c0.1,0,0.2,0.1,0.3,0.1l0,2.2C80.8,43,80.7,42.8,80.6,42.7z"/>
	<path class="st0" d="M70.9,55.2l0,4c-1.3,0.1-1.7,1.5-2.5,2.3c-1.6,1.6-3.4,2.8-5.3,3.9c-2.6,1.4-2.6,1.4-3.3-1.7
		c0.4-4-0.9-7.2-3.8-9.6c-1.7-1.5-3.6-2.9-3.3-5.9c0.1-1-0.7-1.6-1.1-2.2c-0.2-0.8-0.5-1.6,0-2.4c0.2-0.2,0.5-0.1,0.6-0.2
		c-0.6-0.4-1.3-0.1-2,0c-0.3,0-0.5-0.2-0.7-0.2c0.3,0.2,0.6,0.3,0.9,0.3c0.3,0,0.6,0,0.8,0.4c0.1,0.5,0.1,0.9,0.2,1.4
		c0.1,1.1,0.2,2.2,0.2,3.3c-0.1,1.3,0.2,2.7-0.5,3.9c-0.1,0.2-0.3,0.3-0.4,0.5c-0.7,0.5-1.5,0.8-2.2,1.3c-0.7,0.4-1.3,0.9-1.5,1.8
		c-0.1,0.2-0.2,0.4-0.3,0.5c-1.5,2.8-3.5,5.2-4.7,8.2c-0.2,0.6-0.5,1.4-1.4,1.3c-2.9-0.5-4.9-2.7-7.1-4.6c-0.5-0.4-0.8-1.2-1.6-1.2
		c-0.4-8,4.3-15.4,12-18.7c1-0.4,1.9-0.9,2.6-1.9c1.9-2.8,8.9-3,10.5,0.5c0.4,0.9,1.3,1,2,1.4C64.4,44.4,68.8,48.6,70.9,55.2
		L70.9,55.2z"/>
	<path class="st0" d="M40.6,65.9c0.6-0.8,1.1-1.6,1.3-2.7c0.1-0.8,0.3-1.7,1.3-2c0.7-0.2,0.9-1,1.1-1.7c0.5-1.4,1-2.7,2.3-3.5
		c2.7-2.1,5.4-3.2,8.5-1c0.3,0.2,0.5,0.5,0.8,0.2c-0.2-0.4-0.6-0.5-0.9-0.8c-1.1-0.8-2.4-1.1-3.3-2.3c-0.4-2.2-0.6-4.3,0.1-6.5
		c1,0.5,1.8,1.1,1.5,2.7c-0.5,2.8,1.6,4,3.1,5.2c2.1,1.6,4.7,6.8,4.1,9.4c-0.1,0.4-0.4,0.5-0.7,0.6c-0.8,4.2-4.1,3.8-6.7,4.4
		c-2.7,0.6-5.4,0-8-0.9c-1.7-0.5-1.9-1-1.4-4.5c-0.8,0.6-0.6,1.6-0.8,2.4C42.4,66.8,41.7,66.9,40.6,65.9L40.6,65.9z"/>
	<path class="st12" d="M32.3,65.9l-0.1-1.2l0.1-1.5C32.6,64.1,32.9,65,32.3,65.9z M70.6,64.7l-0.1,0.8c-0.6-0.5-0.3-1.1-0.1-1.8
		L70.6,64.7z"/>
	<path d="M37.9,40.4l-4.4,4.5c-2.7,0.4-5-0.2-6.6-3c-1.4-2.4-1.4-5-0.1-7.4c1.4-2.5,3.5-3.6,6.1-3.1c2.4,0.4,4,2.1,4.9,4.6
		c0.1,0.4,0.2,0.8,0.4,1.3C39.2,38.5,38.3,39.4,37.9,40.4z"/>
	<path class="st9" d="M37.9,40.4l0.3-3.1c0.4-1,0.2-2.2,0.8-3.2l0,2.7c-0.1,0.9,0.4,1.9-0.4,2.7C38.4,39.8,38.1,40.1,37.9,40.4z"/>
	<path class="st13" d="M28.2,26.6c0.1-0.3,0.4-0.8,0.7-0.5c0.3,0.4,0.2,1-0.3,1.4C28.6,27.1,28.5,26.8,28.2,26.6z"/>
	<path d="M69,45c-1.3-1.4-2.7-2.7-4-4.1c-1.2-5.6,1.8-10,6.6-9.4c3.3,0.4,4.8,3,5.4,6.4c0.3,0.4,0.3,0.8,0,1.1
		C75.4,44,73.8,45.2,69,45z"/>
	<path class="st14" d="M79.8,52.9v-4C80.4,50.3,80.4,51.6,79.8,52.9z"/>
	<path class="st9" d="M76.9,39c0-0.4,0-0.8,0-1.1c0.1-0.2,0.2-0.3,0.2-0.5c0.4,0.7,0.2,1.5,0.1,2.1C77.2,39.6,77,39.2,76.9,39z"/>
	<path class="st2" d="M61.4,25.2c-2,0.6-2.5,2.6-2.7,4.5c-0.2,1.5-0.7,1.2-1.5,0.7c-4.3-2.8-8.5-3.1-12.8,0.4
		c-0.3-1.8,1.2-3.9-0.9-5.1c-0.1-0.4,0-0.6,0.4-0.4c0.6,0.3,1.4,0.9,1.4,1.5c0.1,2.7,1.4,1.7,2.6,1.3c2.8-1,5.6-0.7,8.3,0.6
		c1,0.5,1.6,0.9,1.7-0.9c0.2-1.9,1.7-2.5,3.1-2.9C61.4,24.6,61.5,24.8,61.4,25.2z"/>
	<path class="st15" d="M44.5,34.1c4.5-4.1,10.5-3.7,14.2,0.3c-2.6-1.1-4.9-1.9-7.3-2C49.1,32.4,46.8,33.3,44.5,34.1z"/>
	<path class="st16" d="M77.8,49.4c-1.3,2-3.3,1.8-5.2,1.8c-0.1-0.1-0.2-0.2-0.1-0.3c0-0.1,0.1-0.1,0.1-0.1c1.8-0.1,3.4-0.5,4.8-1.8
		C77.7,48.8,77.9,48.9,77.8,49.4z M29.4,51.1c-3.1,0-3.7-0.3-5-2.8c1.4,1.4,3.1,2.3,5,2.4c0.1,0.1,0.2,0.2,0.1,0.3
		C29.5,51.1,29.4,51.1,29.4,51.1z"/>
	<path class="st17" d="M38.6,39.6c0.1-0.9-0.3-1.9,0.4-2.7c0.2,0.7,0.9,0.8,1.4,1.1C40,38.8,39.5,39.4,38.6,39.6z"/>
	<path class="st9" d="M52.6,23.4c-1,0.1-1.9,0.2-3.1,0.3c1.2-1.4,2.3-1.5,3.5-0.8C53.1,23.4,53,23.6,52.6,23.4z"/>
	<path class="st18" d="M61.4,25.2L61,24.8c1-0.9,2.1-0.3,3.2-0.2C64.2,24.6,61.4,25.2,61.4,25.2z"/>
	<path class="st19" d="M43.8,25.2l-0.4,0.4c-0.6-0.5-1.5-0.2-2-0.9c-0.1-0.1-0.2-0.2-0.1-0.3c0-0.1,0.1-0.1,0.1-0.1
		C42.3,24.4,43.1,24.6,43.8,25.2z"/>
	<path class="st9" d="M52.6,23.4L53,23c0.5,0.3,1.1,0.4,1.4,1.2C53.7,24.1,53.1,24,52.6,23.4z"/>
	<path class="st20" d="M77.8,49.4l-0.4-0.5c0.3-0.5,0.6-1.2,1.3-1.2C78.5,48.4,78.2,48.9,77.8,49.4z"/>
	<path class="st21" d="M29.4,51.1c0-0.1,0-0.3,0-0.4c0.5-0.2,1-0.7,1.8-0.2C30.5,50.8,30,51,29.4,51.1z"/>
	<path class="st22" d="M39.4,24.8h-1.6l0-0.4l1.6-0.1c0.1,0.1,0.2,0.2,0.1,0.3C39.5,24.7,39.4,24.8,39.4,24.8z"/>
	<path class="st23" d="M56.2,25.1c-0.4,0.3-0.5,0.4-0.5,0.4c-0.2-0.2-0.4-0.3-0.5-0.6c-0.1-0.2,0-0.4,0.3-0.3
		C55.7,24.8,55.9,24.9,56.2,25.1z"/>
	<path class="st24" d="M39.4,24.8c0-0.1,0-0.3,0-0.4h2v0.4C40.7,24.8,40.1,24.8,39.4,24.8z"/>
	<path class="st21" d="M72.6,50.7c0,0.1,0,0.3,0,0.4l-1.4-0.7C71.8,50.2,72.2,50.2,72.6,50.7z"/>
	<path class="st25" d="M55.4,55.6c-3-2.2-5.9-0.8-8.8,0.4l0-0.5c0.6-0.6,1.2-1.1,1.9-1.6c0.7-0.4,1.5-0.9,2.2-1.3
		c1.8-0.5,2.9,1,4.3,1.8C55.4,54.8,55.6,55.1,55.4,55.6z"/>
	<path class="st26" d="M51.8,45.8c0.2,2.2-0.4,4.5,0.4,6.7c-0.6,0.4-1.1,0.4-1.7,0c0.8-1.3,0.3-2.7,0.4-4c0.3-1.2,0.3-2.4,0-3.5
		l-0.1-1.3c0.3-0.3,0.6-0.3,0.9,0C51.3,44.3,51.9,45,51.8,45.8z"/>
	<path class="st27" d="M50.6,52.5h1.7c1.2,0.3,2.3,0.9,3.2,1.8c0.1,0.4,0,0.6-0.4,0.5c-1.4-0.8-2.6-2.1-4.3-1.8
		c-0.4,0.2-0.5-0.1-0.4-0.5C50.3,52.5,50.4,52.5,50.6,52.5z"/>
	<path class="st28" d="M49.8,38.5c1.1-0.5,1.9-0.3,2.8-0.3C51.5,39.2,51.5,39.2,49.8,38.5z"/>
	<path class="st29" d="M50.2,41c-0.1,0.4-0.1,1-0.7,0.8C49.1,41.8,49,41.4,49,41c0.1-0.5,0.2-0.9,0.7-0.8
		C50.2,40.2,50.1,40.7,50.2,41z"/>
	<path class="st30" d="M52.6,40.2c0.5,0.1,0.6,0.6,0.7,0.9c0.1,0.4,0,0.8-0.4,0.8c-0.5,0-0.6-0.5-0.6-0.9
		C52.2,40.7,52.2,40.3,52.6,40.2z"/>
	<path class="st31" d="M51.8,43.6l-0.9,0c-0.2,0-0.5,0-0.7-0.1c-0.2-0.1-0.2-0.2-0.2-0.3c0.1-0.1,0.1-0.1,0.2-0.1
		c0.7-0.5,1.4-0.7,2.1-0.1c0.2,0.2,0.5,0.3,0,0.4C52.2,43.6,52,43.5,51.8,43.6z"/>
	<path class="st32" d="M50.2,52.5l0.4,0.5c-0.7,0.4-1.4,0.8-2.1,1.3c-0.2-0.1-0.4-0.2-0.4-0.4C48.7,53.1,49.5,52.9,50.2,52.5z"/>
	<path class="st33" d="M48.1,53.8l0.4,0.4c-0.7,0.4-1,1.4-2,1.3C46.7,54.5,47.5,54.2,48.1,53.8z"/>
	<path class="st34" d="M51,44.9c0.6,1.2,0.6,2.4,0,3.5L51,44.9z"/>
	<path class="st35" d="M40.9,51.2c0.3,0.1,0.4,0.3,0.4,0.6c0,0.4-0.2,0.6-0.5,0.4c-0.2-0.1-0.4-0.3-0.4-0.6
		C40.3,51.3,40.6,51.2,40.9,51.2z"/>
	<path class="st36" d="M61.1,52.4c-0.5-0.1-0.5-0.4-0.5-0.6c0-0.2,0.3-0.4,0.3-0.4c0.2,0.1,0.5,0.3,0.5,0.5
		C61.5,52,61.2,52.2,61.1,52.4z"/>
	<path class="st37" d="M50.2,43.1c0,0.1,0,0.3,0,0.4c-0.5,0-1-0.2-1.4-0.6C49.5,42.5,49.8,43,50.2,43.1z"/>
	<path class="st38" d="M55,54.7l0.4-0.5c0.4,0.3,1.1,0.5,0.9,1.2c0,0.2-0.5,0.5-0.8,0.1C55.4,55.6,55,54.7,55,54.7z"/>
	<path class="st39" d="M59.3,62c-0.4-0.5-0.5-1-0.5-1.7C59.5,60.7,59.4,61.3,59.3,62z"/>
	<path class="st40" d="M33.6,37c-1,0-1.7-0.7-1.7-1.7c0-1.1,0.6-1.8,1.6-1.9c1-0.1,1.6,0.7,1.7,1.8C35.2,36.2,34.6,36.9,33.6,37z"/>
	<path class="st41" d="M69.1,33.3c1,0.3,1.6,0.8,1.6,2c0,1.2-0.7,1.8-1.7,1.7c-1-0.1-1.6-0.8-1.5-1.9C67.5,34,68.2,33.4,69.1,33.3z"
		/>
</g>
</svg>
