<?xml version="1.0" encoding="utf-8"?>
<!-- Generator: Adobe Illustrator 21.1.0, SVG Export Plug-In . SVG Version: 6.00 Build 0)  -->
<svg version="1.1" id="Слой_1" xmlns="http://www.w3.org/2000/svg" xmlns:xlink="http://www.w3.org/1999/xlink" x="0px" y="0px"
	 viewBox="0 0 102.4 85" style="enable-background:new 0 0 102.4 85;" xml:space="preserve">
<style type="text/css">
	.st0{fill:#FFFFFF;}
	.st1{fill:#FFF6F5;}
	.st2{fill:#545251;}
	.st3{fill:#050200;}
	.st4{fill:#020000;}
	.st5{fill:#3D1E17;}
	.st6{fill:#442823;}
	.st7{fill:#340900;}
	.st8{fill:#ADA7A1;}
	.st9{fill:#4A2014;}
	.st10{fill:#CFAF8F;}
	.st11{fill:#9B7C66;}
	.st12{fill:#A09392;}
	.st13{fill:#756A6A;}
	.st14{fill:#3E211E;}
	.st15{fill:#CDAF91;}
	.st16{fill:#1D110E;}
	.st17{fill:#040202;}
	.st18{fill:#341813;}
	.st19{fill:#371A15;}
	.st20{fill:#070403;}
	.st21{fill:#130B09;}
	.st22{fill:#0B0605;}
	.st23{fill:#090504;}
	.st24{fill:#472A24;}
	.st25{fill:#150C0A;}
	.st26{fill:#F6F6F6;}
	.st27{fill:#F7F7F7;}
</style>
<path class="st0" d="M86.6,58.5v-0.7h7v1.6h-3.5L86.6,58.5z"/>
<g>
	<path d="M6.3,33.9c3.5-4.8,7.1-9.4,11.4-13.4c2.8-2.6,5.7-5,9.6-4.9c0.6,0,1-1,1.8-0.7c0.5,0.1,1,0.4,1.5-0.1
		c0.9-0.5,1.9-0.4,2.9-0.3c0.5,1.5-0.8,1.8-1.4,2.6c-1.9,2.5-3.9,4.9-5.5,7.7c-2.5,4.5-3.9,9.4-4.2,14.7c0,0.5-0.1,0.9-0.2,1.4
		c-0.5,1.6,0.2,3.3-0.7,4.8c-0.1,0.3-0.6-0.2-0.5,0.5c0.2,0.8,0.1,1.6,0.3,2.4c0.1,0.8-0.6,1.4-0.6,2.2c-0.7,2.5-1,2.5-2.7,0.9
		c-0.5-0.5-0.9-1-1.1-1.8c-0.2-8.7,2.4-16.7,5.8-24.3c0.4-0.9,1-1.6,1.5-2.4c0.1-0.2,0,0.1,0.1-0.2c0.1-0.2,0.2-0.4,0.3-0.6
		c-0.1,0.1-0.2,0.3-0.3,0.4c-3.5,5-6.8,10.1-9.2,16c-0.5,1.1-0.5,2.5-1.4,3.4c-2.4-2.8-4.9-5.4-7.5-7.9C6.3,34.4,6.3,33.9,6.3,33.9z
		 M69.3,14.5c4,0.1,8,0.8,11.6,2.9c2.5,1.5,4.7,3.7,6.6,6.1c1.4,1.6,2.8,3.2,4.3,4.7c1.6,1.6,2.6,3.8,4.3,5.4v1.4
		c-2.6,1.9-4.4,4.7-6.8,6.9c-0.7-0.2-0.9-0.9-1.2-1.5c-2.5-6.3-6.1-11.9-9.8-17.3c-0.1-0.2-0.3-0.5-0.4-0.7c0.2,0.4,0.3,0.7,0.6,1.1
		c4.6,8.1,7.3,16.9,7.3,26.6c-0.1,0.7-0.5,1.2-1,1.7c-1.5,1.8-2.1,1.7-2.8-0.8c-0.4-0.4-0.5-0.9-0.5-1.4c-0.2-0.9,0.7-1.9-0.2-2.8
		c-0.5-0.6-0.4-1.4-0.3-2.1c0.2-1.1,0.4-2.2,0-3.3c-0.1-0.2-0.2-0.3-0.3-0.5c-0.1-0.3-0.1-0.6-0.1-0.9c-0.1-0.8,0.8-1.6-0.2-2.3
		c-0.5-0.6-0.5-1.4-0.6-2.1c-1-6.5-3.9-11.9-7.9-16.6c-0.7-0.9-1.5-1.6-2.1-2.5C69.4,15.8,68.8,15.3,69.3,14.5z"/>
	<path class="st1" d="M37.4,73.4c-0.9,0-1.7-0.4-2.4-0.8c-2-1.5-2.9-3.6-2.7-6.3c0.1-0.8,0.7-1.5,0.6-2.4c-0.2,0.3,0.2,1.2-0.6,1
		c-0.9-1.3-0.6-2.8-0.4-4.2c1-1.4,1.6-0.2,2.3,0.4c2.1,1.9,4.2,3.9,6.9,4.8c1.4,0.5,1.5-0.7,1.8-1.7c0.2-0.6,0.4-1.6,1-1.5
		c0.8,0.1,0.5,1.1,0.5,1.7c-0.2,1.6,0.5,2.3,1.8,2.7c3.6,1,7.2,1.2,10.8-0.2c1.2-0.5,2.3-0.8,2.4-2.6c0-0.5,0.2-1.1,0.9-0.7
		c1.2,2.5,1.2,2.5,3.6,1.2c2.2-1.2,4-2.9,5.7-4.8c0.6-0.6,1.2-1.6,2.1-0.4c0.3,1.7,0.5,3.4-0.2,5c-0.4,0.5-0.5-0.2-0.8-0.3
		c0.1,0.6,0.5,1,0.6,1.6c0,2.2-0.1,4.3-2,5.7c-1.2,1.3-2.6,1.8-4.3,1.8c-1.6,0-2.9,1-4.3,1.5c-0.8,0.3-1.7,0.5-2.5,0.4
		c-2.7,0.1-5.5-0.4-8.2-0.1c-1.8,0.2-3.5-0.2-5.3,0c-1.9,0.1-3.5-1.1-5.2-1.7C38.7,73,38.1,73.3,37.4,73.4L37.4,73.4z"/>
	<path class="st2" d="M21.9,39.4c0.3-7.5,2.9-13.8,7.1-19.3c0.9-1.2,1.8-2.3,2.8-3.5c0.7,1,0,1.7-0.4,2.4c-1.6,2.7-3.4,5.4-4.9,8.3
		c-0.5,1-0.9,2-1.1,3.1c1.5-1.1,1.8-3.3,3.3-4.3c0.4,0.1,0.6,0.5,0.8,0.9c0.7,0.7,1.4,0.3,2.1,0.1c2-0.6,4.1-0.6,6.1-0.5
		c2.6,0.1,3.3,1.2,2.8,4.1c-0.2,1.1-0.5,2.2-0.8,3.3c-0.4,1.1-0.2,2.4-1.1,3.3c-1.1,0.1-1-1-1.3-1.7c-1.2-2.5-3.4-3.9-5.7-3.6
		c-2.4,0.3-4,2-4.7,4.8c-0.8,3.6,1.3,7.2,4.6,7.6c0.8,0.1,1.6-0.1,2.3,0.5c-0.7,3.2-2.1,4.2-4.7,3.1c-2.4-1-4.2-2.8-5.2-5.6
		c0,4.4-1.4,8.8-0.4,13.3c-0.1,0.4-0.3,0.6-0.6,0.7c-1.1-1.6-1.3-3.5-1.6-5.4c-0.2-1.3-0.5-0.1-0.7-0.1l0.3-2.3
		c-0.2-0.9-0.3-1.8,0.1-2.6c0.7-1.6,0-3.5,0.7-5.2c0.3,0.3,0.2,0.6,0.2,0.5C22,40.9,22.2,40.2,21.9,39.4z M81.3,44.4
		c0,0.8-0.2,1.6,0.3,2.4c0.5,0.8,0.3,1.7,0.1,2.6c0.1,0.5,0.2,1,0.2,1.4c-1.3,1.5-1,3.9-2.3,5.5c-0.3-0.2-0.4-0.6-0.4-0.9
		c0-0.8,0.3-1.6,0.4-2.4c0.3-1.3,0.3-2.7,0-4c-0.3-2.3-0.7-4.6-0.7-7.3c-1,3.9-3.4,5.7-6.3,6.6c-1.8,0.5-3.2-1-3.4-3.5
		c0.4-0.4,1-0.5,1.5-0.5c3,0.2,4.8-1.6,5.7-4.7c0.1-0.3,0.2-0.5,0.5-0.7c0.3-0.1,0.5-0.1,0.5,0.3c0.1-0.5-0.2-1.1,0-1.7
		c0-0.1-0.3,0.3-0.5,0.1c-0.5-0.4-0.5-1-0.7-1.6c-1-3.1-3.7-4.8-6.5-4.1c-2.7,0.7-4.5,3.3-4.3,6.6c0,0.7,0.3,1.5-0.1,2.2
		c-1.8,0.3-2.5-1.3-3.5-2.4c-0.3-0.4-0.2-0.9,0.2-1.1c1.4-0.9,1.1-2.4,0.9-3.8c-0.1-1-0.4-1.9-0.6-2.9c-0.5-2.7,0.2-3.8,2.6-4
		c2.1-0.1,4.2-0.2,6.3,0.5c0.8,0.3,1.5,0.5,1.6-1c0.1-1.2,0.8-0.8,1.2-0.1c1.1,1.8,2.3,3.5,3.5,4.9c-1-3.6-3.1-6.7-5-10
		c-0.4-0.7-1.2-1.3-0.6-2.4c4.4,4.9,7.4,10.7,8.3,17.8c0.1,0.5,0.2,1,0.3,1.5c0.5,0.4,0.2,1,0.2,1.6c-0.8,1-0.1,2,0.1,3
		c0.1,0.3,0.2,0.6,0.3,0.9C81.4,43.6,81.5,44,81.3,44.4z"/>
	<path class="st3" d="M23,56.3l0.4-0.5c1.1-0.2,1.6,0.9,2.3,1.5c1.1,0.9,2.1,1.9,3.3,2.6c1,0.6,1.5,0.3,1.5-1c0-5.8,2.4-10.2,6-14
		c0.1-0.2,0.3-0.4,0.4-0.5c4.2-2.8,7.8-6.5,12.1-9c2.2-1.3,4.6-0.8,6.6,0.8c3.2,2.6,6.4,5.1,9.7,7.6c2.8,2.1,4.5,5.3,6,8.6
		c0.4,0.8,0.5,1.7,0.2,2.6c-0.1,0.2-0.3,0.3-0.4,0.4c-1-0.7-1-2.1-1.6-3.1c-2.8-4.7-6.3-8.6-11-10.8c-0.5-0.2-0.9-0.6-1.3-1
		c-3.7-3.9-7-3.9-10.7-0.1c-0.6,0.6-1.3,1-2.1,1.3c-4.7,2.1-8.2,5.8-10.7,10.7c-0.8,1.6-1.1,3.4-1.2,5.2c0,0.9,0.1,1.8-0.4,2.6
		c-0.1,1.6-0.2,3.1,0.3,4.6c0.4,0.4,0.3,0.8,0.1,1.2c0,2.5,0.8,4.6,2.3,6.4c-4.6-1.4-7.8-4.3-8.6-10C25.9,60,24,58.5,23,56.3
		L23,56.3z"/>
	<path class="st4" d="M85.7,49.9c-1.1-1.5-0.4-3.3-0.6-5c-1.1-7.9-3.7-15-7.1-21.9c-0.2-0.5,0-0.6,0.4-0.5c4.5,5.7,8,12.2,10.8,19.2
		C88,44.5,87.2,47.3,85.7,49.9z M24.6,23c-3.1,5.7-5.3,11.9-6.5,18.4c-0.4,2.1-0.8,4.1-0.7,6.3c0,0.8,0.2,1.7-0.6,2.3
		c-1.3-2.4-2.2-5-3.1-7.6c0.6-4.1,2.7-7.4,4.5-10.9c1.7-3.2,3.8-6.1,6-8.9C24.6,22.5,24.8,22.6,24.6,23z"/>
	<path d="M79.6,55.3l0,1c-1.6,2.9-3,5.7-3.8,9.1c-0.8,3.5-4.2,6.3-6.6,6.4c1.1-1.8,1.6-3.8,1.6-6c-0.2-0.3-0.2-0.6,0.1-0.8
		c0.6-1.8,0.3-3.7,0.3-5.6c-0.7-1.4-0.7-2.7,0-4.1l0.1-0.1c1.3,0.8,0.8,2.4,1,3.6c0.3,1.3,0.7,1.7,1.7,0.9c1.3-1,2.5-2,3.6-3.2
		C78.2,56,78.7,55.1,79.6,55.3z"/>
	<path class="st5" d="M44.6,75.3c0.6-0.7,1.4-0.4,2.1-0.4c3.2,0,6.4,0,9.7,0c0.6,0,1.3-0.3,1.8,0.5l-0.6,0c-1.6,0.3-3.2,0.3-4.8,0
		c-0.6,0.2-1.3,0.2-2,0c-1.8,0.3-3.7,0.3-5.5,0C45,75.4,44.8,75.3,44.6,75.3z"/>
	<path class="st6" d="M45.2,75.4h5.5C48.9,75.8,47,75.9,45.2,75.4z M52.7,75.4h4.8C55.9,75.9,54.3,75.8,52.7,75.4z"/>
	<path class="st7" d="M37.4,73.4c0.7-0.5,1.4-0.6,2,0.2L37.4,73.4z"/>
	<path class="st8" d="M79.6,55.3c-1.8,1.8-3.5,3.9-5.6,5.2c-1.3,0.8-2,1-2-1.2c0-1.4-0.4-2.8-0.6-4.1c-0.7-5.5-3.8-9.2-7.6-12.1
		c-2.4-1.8-4.8-3.5-7-5.5c-3.7-3.3-7.2-3.2-10.8,0.3c-2,1.9-4.2,3.4-6.4,5c-5.1,3.6-8.5,8.6-8.6,15.8c-0.1,2.9-0.1,2.9-2.4,1.6
		c-2-1.1-3.5-3-5.2-4.6c-1.6-3.3-0.5-6.8-0.2-10.1c0.1-1.6-0.2-3.3,0.7-5.1c0.8,3.4,2.6,5.6,5.4,6.9c1.5,0.7,2.6,0.7,3.4-1.1
		c0.2-0.5,0.7-0.9,1-1.4c0.9-2.1,2.5-3.5,4.1-4.9c0.4-0.3,0.7-0.7,1.1-1c1.7-0.8-0.1-1.9,0.2-2.8c0.2-0.8-0.1-1.6,0.2-2.3
		c0.3-1.3,0.5-2.6,0.8-3.9c0.4-2.1-0.1-2.8-1.9-2.9c-2.6-0.1-5.1-0.1-7.6,0.8c-0.5,0.2-1.7,1.1-1.6-0.8c0.2-0.5,0.5-1.1-0.4-0.9
		c-0.8,2.2-2.1,4-4,6c0.4-4.4,2.7-7.3,4.5-10.4c0.9-1.7,2.4-3,2.7-5.1c0.5-0.8,1.6-0.9,1.6-2.2c0.7,0.4,1.4,0.1,2.1,0
		c7.2-1.6,14.5-2.2,21.8-1.6c4,0.3,8,1.1,12,1.6c0.4,1.8,2.1,2.5,2.8,4c1,2.6,2.7,4.6,3.9,7c1.1,2.1,2.2,4.2,2.4,7.2
		c-1.8-2.5-3.8-4.3-4.8-7c-0.7,0.9,0.2,1.6-0.1,2.6c-2.4-0.6-4.8-1.2-7.3-1.1c-3.7,0.1-3.9,0.3-3.1,4.3c0.3,1.2,0.6,2.3,0.6,3.5
		c-0.1,1.4,0.2,2.9-2.3,2.5c1.7,1.3,2.6,2.6,3.9,3.3c1.9,0.7,3.2,2.2,4,4.2c0.7,1.3,1.3,3.1,2.7,2.9c2.2-0.3,4.3-1.5,5.6-3.8
		c0.6-1,0.9-2.1,1.5-3.5c0.6,2.9,0.7,5.6,1,8.4c0.3,1.3,0.3,2.7,0,4.1C79.9,53.8,79.8,54.5,79.6,55.3z"/>
	<path class="st9" d="M30.5,14.8c-0.4,0.8-1,0.6-1.5,0.1L30.5,14.8z"/>
	<path class="st10" d="M80.8,42.6c-0.6-1-0.5-2.1-0.1-3.2c0.2,0,0.2,0.1,0.2,0.2c0,0.1,0,0.2-0.1,0.2c0,0.3,0,0.6,0,0.9
		C81.1,41.3,81.2,42,80.8,42.6z"/>
	<path class="st11" d="M80.8,42.6l0.1-1.9c0.1,0,0.2,0.1,0.3,0.1l0,2.3C81.1,42.9,81,42.7,80.8,42.6z"/>
	<path class="st12" d="M71.1,55.4l0,4.1c-1.3,0.1-1.7,1.6-2.5,2.4c-1.6,1.7-3.4,2.9-5.3,3.9c-2.6,1.4-2.6,1.4-3.3-1.8
		c0.4-4.1-0.9-7.3-3.7-9.8c-1.7-1.5-3.6-3-3.3-6c0.1-1.1-0.7-1.6-1.1-2.3c-0.2-0.8-0.5-1.6,0-2.5c0.2-0.2,0.5-0.1,0.6-0.2
		c-0.6-0.4-1.3-0.1-2,0c-0.3,0-0.5-0.2-0.7-0.2c0.3,0.2,0.6,0.3,0.9,0.3c0.3,0,0.6,0,0.8,0.4c0.1,0.5,0.1,0.9,0.2,1.4
		c0.1,1.1,0.2,2.2,0.2,3.3c-0.1,1.3,0.2,2.7-0.5,4c-0.1,0.2-0.3,0.4-0.4,0.5c-0.7,0.5-1.5,0.8-2.2,1.4c-0.7,0.5-1.3,0.9-1.5,1.8
		c-0.1,0.2-0.2,0.4-0.3,0.5c-1.5,2.8-3.5,5.3-4.7,8.3c-0.2,0.6-0.5,1.5-1.4,1.3c-2.9-0.5-4.9-2.8-7.1-4.7c-0.5-0.5-0.8-1.2-1.6-1.2
		c-0.4-8.2,4.3-15.6,12-19.1c1-0.4,1.9-0.9,2.6-1.9c1.9-2.8,8.8-3,10.5,0.5c0.4,0.9,1.3,1,2,1.4C64.6,44.4,68.9,48.6,71.1,55.4
		L71.1,55.4z"/>
	<path class="st13" d="M41,66.2c0.6-0.8,1.1-1.6,1.3-2.7c0.1-0.8,0.3-1.7,1.3-2c0.7-0.2,0.9-1,1.1-1.7c0.5-1.4,1-2.8,2.3-3.5
		c2.7-2.1,5.4-3.3,8.4-1c0.3,0.2,0.5,0.5,0.8,0.2c-0.2-0.4-0.6-0.6-0.9-0.8c-1.1-0.9-2.4-1.1-3.3-2.3c-0.4-2.2-0.6-4.4,0.1-6.6
		c1,0.5,1.8,1.1,1.5,2.7c-0.5,2.8,1.6,4.1,3.1,5.3c2.1,1.6,4.6,6.9,4.1,9.6c-0.1,0.4-0.4,0.6-0.7,0.6c-0.8,4.3-4.1,3.9-6.7,4.5
		c-2.7,0.6-5.4,0-8-0.9c-1.7-0.5-1.9-1-1.4-4.5c-0.8,0.6-0.6,1.6-0.8,2.4C42.8,67.1,42.1,67.2,41,66.2L41,66.2z"/>
	<path class="st14" d="M32.6,66.2L32.5,65l0.1-1.5C33,64.4,33.3,65.4,32.6,66.2z M70.9,65l-0.1,0.8c-0.6-0.5-0.3-1.1-0.1-1.8
		L70.9,65z"/>
	<path d="M38.2,40.3l-4.4,4.6c-2.7,0.4-5-0.2-6.6-3c-1.4-2.5-1.4-5-0.1-7.5c1.4-2.6,3.5-3.6,6.1-3.2c2.4,0.4,4,2.1,4.9,4.7
		c0.1,0.4,0.2,0.9,0.4,1.3C39.5,38.4,38.6,39.3,38.2,40.3z"/>
	<path d="M69.3,44.9c-1.3-1.4-2.7-2.8-4-4.2c-1.2-5.7,1.8-10.2,6.6-9.6c3.3,0.4,4.8,3,5.4,6.5c0.3,0.4,0.3,0.8,0,1.2
		C75.7,43.9,74.1,45.2,69.3,44.9z"/>
	<path class="st15" d="M80.1,53V49C80.7,50.3,80.7,51.7,80.1,53z"/>
	<path class="st10" d="M77.2,38.8c0-0.4,0-0.8,0-1.2c0.1-0.2,0.2-0.4,0.2-0.5c0.4,0.7,0.2,1.5,0.1,2.2
		C77.5,39.5,77.3,39.1,77.2,38.8z"/>
	<path class="st0" d="M55.8,55.8c-3-2.2-5.9-0.8-8.8,0.4l0-0.5c0.6-0.6,1.2-1.2,1.9-1.7c0.7-0.5,1.5-0.9,2.2-1.3
		c1.8-0.5,2.9,1,4.3,1.8C55.7,54.9,55.9,55.3,55.8,55.8z"/>
	<path class="st16" d="M52.1,45.8c0.2,2.3-0.4,4.6,0.4,6.8c-0.6,0.4-1.1,0.4-1.7,0c0.8-1.3,0.3-2.7,0.4-4.1c0.3-1.2,0.3-2.4,0-3.6
		l-0.1-1.3c0.3-0.3,0.6-0.3,0.9,0C51.7,44.3,52.2,45,52.1,45.8z"/>
	<path class="st17" d="M50.9,52.6h1.7c1.2,0.3,2.3,0.9,3.2,1.9c0.1,0.4,0,0.6-0.4,0.5c-1.4-0.8-2.6-2.2-4.3-1.8
		c-0.4,0.2-0.5-0.1-0.4-0.5C50.7,52.6,50.8,52.6,50.9,52.6z"/>
	<path class="st18" d="M50.5,40.9c-0.1,0.4-0.1,1-0.7,0.9c-0.4-0.1-0.5-0.5-0.4-0.9c0.1-0.5,0.2-0.9,0.7-0.9
		C50.6,40.1,50.5,40.6,50.5,40.9z"/>
	<path class="st19" d="M52.9,40.1c0.5,0.1,0.6,0.6,0.7,1c0.1,0.4,0,0.8-0.4,0.8c-0.5,0-0.6-0.5-0.6-0.9
		C52.5,40.6,52.5,40.2,52.9,40.1z"/>
	<path class="st20" d="M52.1,43.5l-0.9,0c-0.2,0-0.5,0-0.7-0.1c-0.2-0.1-0.2-0.2-0.2-0.3c0.1-0.1,0.1-0.1,0.2-0.1
		c0.7-0.5,1.4-0.7,2.1-0.1c0.2,0.2,0.5,0.3,0,0.4C52.5,43.5,52.3,43.5,52.1,43.5z"/>
	<path class="st21" d="M50.5,52.6l0.4,0.5c-0.7,0.4-1.4,0.9-2.1,1.3c-0.2-0.1-0.4-0.2-0.4-0.5C49.1,53.2,49.8,53,50.5,52.6z"/>
	<path class="st22" d="M48.5,53.9l0.4,0.5c-0.7,0.4-1,1.4-2,1.3C47,54.6,47.9,54.4,48.5,53.9z"/>
	<path class="st23" d="M51.4,44.9c0.6,1.2,0.6,2.4,0,3.6L51.4,44.9z"/>
	<path class="st24" d="M50.6,43.1c0,0.1,0,0.3,0,0.4c-0.5,0-1-0.2-1.4-0.7C49.8,42.4,50.2,42.9,50.6,43.1z"/>
	<path class="st25" d="M55.3,54.9l0.4-0.5c0.4,0.3,1.1,0.5,0.9,1.2c0,0.2-0.5,0.5-0.8,0.1C55.8,55.8,55.3,54.9,55.3,54.9z"/>
	<path class="st26" d="M34,36.8c-1,0-1.7-0.7-1.7-1.8c0-1.1,0.6-1.9,1.6-1.9c1-0.1,1.6,0.7,1.7,1.8C35.6,36,35,36.7,34,36.8z"/>
	<path class="st27" d="M69.4,33c1,0.3,1.6,0.8,1.5,2c0,1.2-0.7,1.8-1.7,1.7c-1-0.1-1.6-0.8-1.5-1.9C67.8,33.8,68.5,33.2,69.4,33z"/>
</g>
</svg>
