<?xml version="1.0" encoding="utf-8"?>
<!-- Generator: Adobe Illustrator 21.1.0, SVG Export Plug-In . SVG Version: 6.00 Build 0)  -->
<svg version="1.1" id="Capa_1" xmlns="http://www.w3.org/2000/svg" xmlns:xlink="http://www.w3.org/1999/xlink" x="0px" y="0px"
	 viewBox="0 0 512 512" style="enable-background:new 0 0 512 512;" xml:space="preserve">
<style type="text/css">
	.st0{fill:#F2F2F2;}
	.st1{fill:#CD6699;}
	.st2{fill:#56332B;}
	.st3{fill:#442823;}
	.st4{fill:#CBAB8C;}
	.st5{fill:#3D1E17;}
	.st6{fill:#340900;}
	.st7{fill:#EECBA2;}
	.st8{fill:#4A2014;}
	.st9{fill:#492B25;}
	.st10{fill:#4E2924;}
	.st11{fill:#CFAF8F;}
	.st12{fill:#4E2923;}
	.st13{fill:#9B7C66;}
	.st14{fill:#3E211E;}
	.st15{fill:#DCBB97;}
	.st16{fill:#CDAF91;}
	.st17{fill:#CDAD8D;}
	.st18{fill:#CDAD8E;}
	.st19{fill:#CBAB8D;}
	.st20{fill:#DAB996;}
	.st21{fill:#D1B090;}
	.st22{fill:#D2B191;}
	.st23{fill:#DEBD99;}
	.st24{fill:#D9B895;}
	.st25{fill:#E3C19B;}
	.st26{fill:#CCAC8D;}
	.st27{fill:#7B483F;}
	.st28{fill:#1D110E;}
	.st29{fill:#040202;}
	.st30{fill:#76453C;}
	.st31{fill:#341813;}
	.st32{fill:#371A15;}
	.st33{fill:#070403;}
	.st34{fill:#130B09;}
	.st35{fill:#0B0605;}
	.st36{fill:#090504;}
	.st37{fill:#482B25;}
	.st38{fill:#462A24;}
	.st39{fill:#472A24;}
	.st40{fill:#150C0A;}
	.st41{fill:#39211D;}
	.st42{fill:#F6F6F6;}
	.st43{fill:#F7F7F7;}
</style>
<path class="st0" d="M362.4,194.4c0,5.5-0.2,11-0.7,16.3c-0.4,4.3-0.9,8.5-1.6,12.6c-13.8,84.7-87.4,149.4-176,149.4
	c-45.1,0-86.4-16.8-117.8-44.4c-11.6-10.2-21.9-21.9-30.5-34.8c-19-28.3-30-62.4-30-99.1C5.6,95.9,85.5,16,184,16
	S362.4,95.9,362.4,194.4z"/>
<path class="st1" d="M296.5,201.6c-4.7,1.8-4.5,1.8-7-2.7c-3.2-5.7-4.8-11.8-5-18.4c-0.1-5.6,1.4-10.9,3.4-16c1.5-4.1-0.5-5.5-4-5.9
	c-2.6-0.3-5.2-0.2-7.8,0c-6.7,0.7-7.4,1.3-9.2,7.8c-1.1,3.9-1.9,7.8-3.7,11.4c-4.3,9-9.3,17.7-14.3,26.4c-0.9,1.6-1.7,3.2-2.9,4.6
	c-3.7-5.5-5-11.5-5.3-17.9c-0.3-6.3,1.6-12.1,3.7-17.9c0.7-1.9,0.1-3.1-1.6-4c-0.7-0.4-1.6-0.7-2.4-0.8c-4.3-0.3-8.6-0.3-12.8,0.9
	c-1.9,0.5-3.1,1.6-3.5,3.7c-0.8,4.2-2.1,8.2-3.8,12.1c-4.8,10.7-9.5,21.5-14.3,32.3c-4.2,9.3-8.3,18.7-13.2,27.7
	c-0.3,0.6-0.6,1.7-1.5,1.5c-0.9-0.2-0.6-1.3-0.6-2c-0.3-5.3,1.2-10.3,2.4-15.4c1.9-8,4.1-15.9,6.1-23.9c0.6-2.3-0.4-3.8-2.3-4.9
	c-2.7-1.6-5.4-1.6-8.4,0.6c0.4-3.3,0.6-6.1,0.4-9c-0.3-6.4-3.3-10.5-8.4-11.5c-3.7-0.7-7.3,0.4-10.6,2c-7.8,3.7-14.1,9.3-19.4,16
	c-0.6,0.8-1.2,1.5-2.1,2c-9.9,5.4-19.8,10.8-29.7,16.2c-1.1,0.6-1.8,0.4-2.6-0.4c-5-5.3-10.8-9.7-16.5-14.2
	c-8-6.2-16.3-12.2-23.2-19.7c-4-4.4-7.4-9.2-9.1-15.1c-2.7-9.5-0.7-18.4,3.9-26.9c5.4-10,13.4-17.7,22.3-24.6
	c14.1-10.9,29.5-19.6,45.7-26.7c18.2-8,37.1-13.1,57.2-12.3c8,0.3,15.7,1.7,22.8,5.6c5,2.8,8.3,6.7,9.3,12.6
	c1.1,6.9-0.5,13.2-3.6,19.2c-6.8,13.4-17.6,22.9-30.4,30.3c-10.6,6.2-22.1,10.1-34.2,12.2c-6.7,1.1-13.4,1.8-20.2,0.8
	c-7.7-1.2-14.9-3.8-20.2-10c-0.6-0.7-1.4-1.2-2.4-0.7c-1.1,0.5-1,1.5-0.9,2.4c0.1,0.6,0.2,1.3,0.5,1.8c1.4,3.8,4.1,6.7,7.2,9.2
	c8.1,6.6,17.6,8.5,27.7,8.7c9.8,0.2,19.5-1.1,29.1-3.3c21.6-5.2,39.7-15.8,52.9-33.9c7.9-10.9,12.9-22.8,12.5-36.5
	c-0.3-8.7-3.2-16.4-9.5-22.6c-7.5-7.4-16.9-11.1-26.9-13.4c-11.2-2.5-22.4-2.8-33.8-1.5c-9.9,1.2-19.6,3.2-29,6.5
	c-14.4,5-28.3,11.1-41.7,18.5C91.9,90.2,79,98.9,67.8,109.8c-10,9.6-18.6,20.3-23.4,33.5c-2.1,5.7-3.6,11.5-2.2,17.6
	c1.8,7.9,5.7,14.7,10.8,20.8c7.7,9.3,17.2,16.6,26.9,23.6c7.8,5.6,16,10.8,23.6,16.8c2.1,1.7,2.1,1.7-0.4,3c-2.9,1.5-5.9,3-8.8,4.6
	c-11.6,6.6-22.9,13.7-32.1,23.6c-4.5,4.9-7.6,10.4-9,16.4c7.5,11.2,16.4,21.3,26.4,30.1c17.1-1.3,30.3-10.3,40-25
	c4.7-7.1,6.9-15.2,7.7-23.7c0.7-7.5,0-14.8-2.2-21.9c-0.4-1.3-1.8-2.5-1.3-3.6c0.5-1,2.1-1.5,3.3-2.2c4.7-2.7,9.4-5.4,14.2-8.2
	c0.2,1-0.2,1.6-0.4,2.3c-2.8,10.1-4.7,20.3-2.6,30.8c1.3,6.6,3.5,12.7,7.6,18.1c4.3,5.6,13.7,4.9,17.6-0.2
	c3.7-4.8,6.1-10.3,8.6-15.7c1.4-3,2.7-6,4-9c-0.2,3.6-0.2,7.1-0.1,10.7c0.1,3.5,0.7,6.9,2.5,9.9c2.2,3.7,6.2,4.7,10,2.8
	c4-2.1,6.7-5.5,8.8-9.2c9.1-15.9,17.5-32.2,24.5-49.2c1.5-3.6,3-7.2,4.7-11.2c0.3,1.3,0.4,2.1,0.6,2.9c1.5,8.1,4.3,15.8,8.3,23
	c0.9,1.5,0.8,2.6-0.3,4.1c-3.7,5-7.7,9.7-11.7,14.5c-3.3,4-6.9,7.8-9.7,12.2c-2.5,4-1.1,8,3.1,8.9c1.3,0.3,2.7,0.4,4,0.3
	c7.4-0.1,14.2-2.3,20.5-5.9c8.5-4.9,13.6-12,13.3-22.1c-0.1-4.6-1.4-9-3.2-13.3c-0.4-0.9-0.4-1.6,0.2-2.5
	c5.9-8.5,11.1-17.3,15.9-26.4c0.9-1.6,1.4-3.4,2.8-5c0.2,0.6,0.3,1,0.4,1.4c1.5,7.6,3.6,14.9,7.4,21.7c1.1,1.8,0.5,2.8-0.9,4
	c-5,4.3-9.3,9.3-12.6,15c-2.6,4.4-4.4,9.2-4.4,14.4c0,5.8,4.5,9.2,10.1,7.8c5.9-1.4,11.3-3.8,16.2-7.4c10.7-7.8,13.8-16.1,10.5-27.6
	c-1.3-4.5-1.3-4.5,3.3-5.8c9.9-3,20-3.1,30.1-1.5c1.1,0.2,2.3,0.4,3.4,0.6c0.6-3.6,1.1-7.2,1.4-10.9
	C322.3,195.1,309.3,196.7,296.5,201.6z M86.6,282.6c-2.9,1-5.9,1.5-8.9,1.2c-3.8-0.3-6.2-3-6.5-7c-0.3-4.7,1.1-8.9,3.1-13
	c3.7-7.4,9.9-12.5,16.3-17.4c6.2-4.8,12.8-8.9,19.5-12.9c2-1.2,2.1-1.2,2.5,1.2c0.6,3.1,1.1,6.2,0.9,9.1
	C114.2,260.7,101.9,277.2,86.6,282.6z M179.1,197.1c-1.1,7.1-3.4,14-5.9,20.7c-3.4,9.2-6.7,18.4-11,27.2c-1,2-2,4.1-3.6,5.7
	c-1.5,1.6-2.8,1.4-3.8-0.5c-2-3.7-1.8-7.9-2.1-10.9c0.1-15.2,5.2-27.6,13.6-38.7c2.3-3.1,5.3-5.6,9.3-6.6
	C178.3,193.2,179.5,194.3,179.1,197.1z M237.8,242c-2.9,5-7,8.6-12.1,11.1c-0.5,0.3-1.2,0.7-1.7,0.1c-0.5-0.6,0.3-1,0.6-1.4
	c5-5.5,10-11.1,14.5-17c0.1-0.1,0.2-0.1,0.6-0.3C239.7,237.3,239.1,239.8,237.8,242z M272.6,241.8c-0.7,0.4-1.6,1-2.3,0.4
	c-0.8-0.6-0.5-1.7-0.2-2.6c1.1-3.8,2.7-7.5,4.8-11c1.8-2.9,4-5.4,6.4-7.8c1-0.9,1.4-0.8,1.8,0.5c0.3,1.4,0.4,2.8,0.4,4.2
	C283.4,233.4,279.5,238.6,272.6,241.8z"/>
<g>
	<path class="st2" d="M154,354.9c13.9-18.7,28.5-36.2,45.5-51.4c11.1-9.7,22.6-19.1,38-18.7c2.4,0,4-3.9,7.1-2.7
		c2,0.4,4,1.6,5.9-0.4c3.6-2.3,7.1-1.6,11.1-1.6c2,5.8-3.2,7-5.5,10.1c-7.5,9.7-15.4,18.7-21.8,29.6c-10.3,17.1-15.4,35.8-16.6,56.1
		c0,1.9-0.4,3.5-0.8,5.5c-2,5.8,0.8,12.9-2.8,18.3c-0.4,1.2-2.4-0.8-2,1.6c0.8,3.1,0.4,6.2,1.2,9.3c0.4,3.1-2.4,5.5-2.4,8.6
		c-2.8,9.3-4,9.7-10.7,3.5c-2-1.9-3.6-3.9-4.4-6.6c-0.8-33.5,9.5-63.9,23-93.1c1.6-3.5,4-5.8,5.9-9c0.4-0.8,0,0.4,0.4-0.8
		c0.4-0.8,0.8-1.6,1.2-2.3c-0.4,0.4-0.8,1.2-1.2,1.6c-13.9,19.1-26.9,38.9-36.4,61.1c-2,4.3-2,9.7-5.5,12.9
		c-9.5-10.9-19.4-20.6-29.7-30.4C154,356.4,154,354.9,154,354.9z M404.3,280.1c15.8,0.4,31.7,3.1,45.9,10.9
		c9.9,5.5,18.6,14,26.1,23.4c5.5,6.2,11.1,12.1,17,17.9c6.3,6.2,10.3,14.4,17,20.6v5.1c-10.3,7-17.4,18.3-26.9,26.5
		c-2.8-0.8-3.6-3.1-4.8-5.5c-9.9-24.1-24.2-45.6-38.8-66.2c-0.4-0.8-1.2-1.9-1.6-2.7c0.8,1.6,1.2,2.7,2.4,4.3
		c18.2,31.2,28.9,64.7,28.9,102c-0.4,2.7-2,4.3-4,6.2c-5.9,7-8.3,6.6-11.5-2.7c-1.6-1.6-2-3.1-2-5.5c-0.8-3.5,2.8-7.4-0.8-10.5
		c-2-2.3-1.6-5.1-1.2-8.2c0.8-4.3,1.6-8.2,0-12.5c-0.4-0.8-0.8-1.2-1.2-1.9c-0.4-1.2-0.4-2.3-0.4-3.5c-0.4-2.7,3.2-6.2-0.8-9
		c-2-2.3-2-5.5-2.4-8.2c-4-24.9-15.8-45.6-31.7-63.5c-2.8-3.1-5.9-6.2-8.3-9.7C404.7,285.2,402.4,283.2,404.3,280.1z"/>
	<path class="st3" d="M277.6,505.6c-3.6,0-6.7-1.6-9.5-3.1c-7.9-5.5-11.5-13.6-10.7-23.8c0.4-3.1,2.8-5.8,2.4-9.3
		c-0.8,1.2,0.8,4.7-2.4,3.9c-3.6-5.1-2.4-10.5-1.6-16.4c4-5.1,6.3-0.8,9.1,1.6c8.3,7.4,16.6,14.8,27.3,18.3c5.5,1.9,5.9-2.7,7.1-6.6
		c0.8-2.3,1.6-5.8,4-5.5c3.2,0.4,2,4.3,2,6.6c-0.8,6.2,2,9,7.1,10.5c14.3,3.9,28.5,4.7,42.8-0.8c4.8-1.9,9.1-3.1,9.5-9.7
		c0-1.9,0.8-4.3,3.6-2.7c4.8,9.7,4.8,9.3,14.3,4.7c8.7-4.3,15.8-10.9,22.6-18.3c2.4-2.3,4.8-6.2,8.3-1.2c1.2,6.6,2,12.9-0.8,19.1
		c-1.6,1.9-2-0.8-3.2-1.2c0.4,2.3,2,3.9,2.4,6.2c0,8.6-0.4,16.7-7.9,21.8c-4.8,5.1-10.3,7-17,7c-6.3,0-11.5,3.9-17.4,5.5
		c-3.2,1.2-6.7,1.9-9.9,1.6c-11.1,0.4-21.8-1.6-32.9-0.4c-7.1,0.8-14.3-0.8-21,0c-7.5,0.4-13.9-4.3-20.6-6.6
		C283.1,504.4,280.4,505.2,277.6,505.6L277.6,505.6z"/>
	<path class="st4" d="M216.2,375.5c1.2-28.4,11.5-52.6,28.5-74c3.6-4.7,7.1-9,11.1-13.2c2.8,3.9,0,6.6-1.6,9.3
		c-6.7,10.5-13.5,20.6-19.4,31.5c-2,3.9-3.6,7.4-4.4,11.7c5.9-3.9,7.1-12.9,13.1-16.7c1.6,0.4,2.4,1.9,3.2,3.1
		c2.8,2.3,5.5,1.2,8.3,0.4c7.9-1.9,16.2-2.3,24.2-1.9c10.3,0.4,13.1,4.7,11.1,15.6c-0.8,5.1-2,9-3.2,13.2c-1.6,3.9-0.8,9.3-4.4,12.5
		c-4.4,0.4-4-3.9-5.1-6.6c-4.8-9.7-13.5-14.8-23-14c-9.5,1.2-15.8,7.4-18.6,18.3c-3.2,13.6,5.1,27.3,18.2,28.8
		c3.2,0.4,6.3-0.4,9.1,1.9c-2.8,12.5-8.3,16-18.6,11.7c-9.5-3.9-16.6-10.9-20.6-21.4c0,17.1-5.5,33.9-1.6,51
		c-0.4,1.6-1.2,2.3-2.4,2.7c-4.4-6.2-5.1-13.6-6.3-20.6c-0.8-5.1-2-0.4-2.8-0.4l1.2-9c-0.8-3.5-1.2-6.6,0.4-10.1
		c2.8-6.2,0-13.6,2.8-19.9c1.2,1.2,0.8,2.3,0.8,1.9C216.6,381.4,217.4,378.6,216.2,375.5z M451.9,394.6c0,3.1-0.8,6.2,1.2,9.3
		c2,3.1,1.2,6.6,0.4,10.1c0.4,1.9,0.8,3.5,0.8,5.5c-5.1,5.8-4,14.8-9.1,21c-1.2-0.8-1.6-2.3-1.6-3.5c0-3.1,1.2-6.2,1.6-9.3
		c1.2-5.1,1.2-10.1,0-15.2c-1.2-9-2.8-17.9-2.8-28c-4,15.2-13.5,21.8-25,25.3c-7.1,1.9-12.7-3.9-13.9-13.2c1.6-1.6,4-1.9,5.9-1.9
		c11.9,0.8,19-6.2,22.6-17.9c0.4-1.2,0.8-1.9,2-2.7c1.2-0.4,2-0.4,2,1.2c0.4-1.9-0.8-4.3,0-6.2c0-0.4-1.2,1.2-2,0.4
		c-2-1.6-2-3.9-2.8-6.2c-4-11.7-14.7-18.3-25.7-16c-10.7,2.3-17.8,12.9-17.4,25.3c0,2.7,1.2,5.8-0.4,8.6c-7.1,1.2-9.9-5.1-13.9-9.3
		c-1.2-1.6-0.8-3.5,0.8-4.3c5.5-3.5,4.4-9.3,3.6-14.8c-0.4-3.9-1.6-7.4-2.4-10.9c-2-10.5,0.8-14.4,10.7-15.2c8.3-0.4,17-0.8,25,1.9
		c3.2,1.2,5.9,1.6,6.3-3.9c0.4-4.3,3.2-3.1,4.8-0.4c4.4,7,9.5,13.2,13.9,18.7c-4-13.6-12.3-25.7-19.8-38.2c-1.6-2.7-4.8-5.1-2.4-9
		c17.8,18.7,29.3,40.9,33.3,68.2c0.4,1.9,0.8,3.9,1.2,5.8c2,1.6,0.8,3.9,0.8,5.8c-3.2,3.9-0.4,7.8,0.4,11.3c0.4,1.2,0.8,2.3,1.2,3.5
		C452.7,391.5,452.7,393,451.9,394.6z"/>
	<path class="st4" d="M220.6,440.2l1.6-1.9c4.4-0.8,6.3,3.5,9.1,5.8c4.4,3.5,8.3,7.4,13.1,9.7c4,2.3,5.9,1.2,5.9-3.9
		c0-22.2,9.5-39.3,23.8-53.7c0.4-0.8,1.2-1.6,1.6-1.9c16.6-10.9,31.3-24.9,48.3-34.3c9.1-5.1,18.2-3.1,26.1,3.1
		c12.7,9.7,25.3,19.5,38.4,28.8c11.1,7.8,17.8,20.3,23.8,33.1c1.6,3.1,2,6.6,0.8,10.1c-0.4,0.8-1.2,1.2-1.6,1.6
		c-4-2.7-4-7.8-6.3-11.7c-11.1-17.9-25-32.7-43.6-41.3c-2-0.8-3.6-2.3-5.1-3.9c-14.7-14.8-27.7-15.2-42.4-0.4
		c-2.4,2.3-5.1,3.5-8.3,5.1c-18.6,8.2-32.5,22.2-42.4,40.9c-3.2,6.2-4.4,12.9-4.8,19.9c0,3.5,0.4,7-1.6,10.1
		c-0.4,5.8-0.8,12.1,1.2,17.9c1.6,1.6,1.2,3.1,0.4,4.7c0,9.3,3.2,17.5,9.1,24.5c-18.2-5.5-30.9-16.7-34.5-38.2
		C232,454.6,224.5,448.7,220.6,440.2L220.6,440.2z"/>
	<path class="st3" d="M469.7,416c-4.8-5.8-1.6-12.9-2.4-19.1c-4.4-30-14.7-57.6-28.1-83.7c-0.8-1.9,0-2.3,1.6-1.6
		c17.8,21.8,31.7,46.7,42.8,73.2C478.8,395,475.2,405.9,469.7,416z M226.9,312.8c-11.9,21.8-20.6,45.6-25.7,70.5
		c-1.6,7.8-3.2,16-2.8,24.1c0,3.1,0.8,6.6-2.4,8.6c-5.1-9.3-8.7-19.1-12.3-29.2c2.4-15.6,10.7-28.4,17.8-41.7
		c6.7-12.5,15.1-23.4,23.8-33.9C226.9,310.9,227.7,311.2,226.9,312.8z"/>
	<path class="st4" d="M445.5,436.7v3.9c-6.3,10.9-11.9,21.8-15.1,34.7c-3.2,13.6-16.6,24.1-26.1,24.5c4.4-7,6.3-14.4,6.3-23
		c-0.8-1.2-0.8-2.3,0.4-3.1c2.4-7,1.2-14,1.2-21.4c-2.8-5.1-2.8-10.5,0-15.6l0.4-0.4c5.1,3.1,3.2,9.3,4,14c1.2,5.1,2.8,6.2,6.7,3.5
		c5.1-3.5,9.9-7.4,14.3-12.5C439.6,439,441.6,435.5,445.5,436.7z"/>
	<path class="st5" d="M306.1,513c2.4-2.7,5.5-1.6,8.3-1.6c12.7,0,25.7,0,38.4,0c2.4,0,5.1-0.8,7.1,1.9h-2.4c-6.3,1.2-12.7,1.2-19,0
		c-2.4,0.8-5.1,0.8-7.9,0c-7.5,1.2-14.7,1.2-21.8,0C307.7,513.4,306.9,513,306.1,513z"/>
	<path class="st3" d="M308.5,513.4h21.8C323.1,514.9,316,515.3,308.5,513.4z M338.6,513.4h19C351.3,515.3,344.9,514.9,338.6,513.4z"
		/>
	<path class="st6" d="M277.6,505.6c2.8-1.9,5.5-2.3,7.9,0.8L277.6,505.6z"/>
	<path class="st7" d="M445.5,436.7c-7.1,6.6-13.9,14.8-22.2,20.3c-5.1,3.1-7.9,3.9-7.9-4.3c0-5.5-1.6-10.5-2.4-16
		c-2.8-21-15.1-35.4-30.1-46.3c-9.5-6.6-19-13.6-27.7-21c-14.7-12.5-28.5-12.1-42.8,1.2c-7.9,7.4-16.6,13.2-25.3,19.1
		c-20.2,13.6-33.7,32.7-34.1,60.4c-0.4,10.9-0.4,10.9-9.5,6.2c-7.9-4.3-13.9-11.7-20.6-17.5c-6.3-12.9-2-26.1-0.8-38.9
		c0.4-6.2-0.8-12.9,2.8-19.5c3.2,13.2,10.7,21.4,21.4,26.1c5.9,2.7,10.3,2.7,13.5-4.3c0.8-1.9,2.8-3.5,4-5.1
		c3.6-8.2,9.9-13.2,16.2-18.7c1.6-1.2,2.8-2.3,4.4-3.5c6.7-3.1-0.4-7,0.8-10.5c0.8-2.7-0.4-6.2,0.8-9c1.2-5.1,2-10.1,3.2-15.2
		c1.6-7.8-0.4-10.5-7.5-10.9c-10.3-0.4-20.2-0.4-30.5,3.1c-2,0.8-6.7,4.3-6.3-3.1c0.8-1.9,2-3.9-1.6-3.5c-3.2,8.6-8.3,15.6-15.8,23
		c1.6-16.7,11.1-27.7,17.8-40.1c3.6-6.6,9.5-11.3,10.7-19.5c2-3.1,6.3-3.5,6.3-8.2c2.8,1.6,5.5,0.4,8.3,0
		c28.5-6.2,57.8-8.2,86.7-6.2c15.8,1.2,31.7,4.3,47.5,6.2c1.6,7,8.3,9.3,11.1,15.2c4,9.7,10.7,17.5,15.4,26.9
		c4.4,8.2,8.7,16.4,9.5,27.7c-7.1-9.3-15.1-16.4-19-26.9c-2.8,3.5,0.8,6.2-0.4,10.1c-9.5-2.3-19-4.7-28.9-4.3
		c-15.1,0.4-15.4,1.2-12.3,16.7c1.2,4.3,2.4,9,2.4,13.6c-0.4,5.5,0.8,11.3-9.1,9.7c6.7,5.1,10.3,10.1,15.4,12.5
		c7.5,2.7,12.7,8.2,15.8,16c2.8,5.1,5.1,12.1,10.7,11.3c8.7-1.2,17-5.8,22.2-14.4c2.4-3.9,3.6-8.2,5.9-13.2
		c2.4,10.9,2.8,21.4,4,31.9c1.2,5.1,1.2,10.5,0,15.6C446.3,430.8,445.9,433.5,445.5,436.7z"/>
	<path class="st8" d="M250.3,281.3c-1.6,3.1-4,2.3-5.9,0.4L250.3,281.3z"/>
	<path class="st9" d="M226.9,312.8l-1.6-1.6c1.2-2.3,2.8-4.7,6.3-6.2C230.5,308.5,228.9,310.9,226.9,312.8z"/>
	<path class="st10" d="M213,400.4c0,3.5-0.4,6.6-0.4,10.1c-2.4-3.1-1.6-7-0.8-10.5c0,0,0.4,0,0.8,0C212.6,400,212.6,400,213,400.4z"
		/>
	<path class="st11" d="M216.2,375.5c2,2.7,1.6,5.8,0.8,9c-1.6-1.2-0.8-2.7-1.2-3.9L216.2,375.5z"/>
	<path class="st9" d="M440.8,311.2l-1.6,1.6l-4.8-6.6C437.6,306.6,439.2,308.5,440.8,311.2z"/>
	<path class="st10" d="M451.9,394.6c0-1.6-0.4-3.5-0.4-5.1c-1.2-3.1-2-5.8,0-8.6C454.2,385.2,453.8,389.9,451.9,394.6z"/>
	<path class="st12" d="M453.4,413.7c0-3.5-0.4-6.6-0.4-10.1C456.6,407.1,455,410.6,453.4,413.7z"/>
	<path class="st11" d="M450.3,388c-2.8-3.9-2-8.2-0.4-12.1c0.8,0,0.8,0.4,0.8,0.8s0,0.8-0.4,0.8c0,1.2,0,2.3,0,3.5
		C451.1,382.9,451.5,385.2,450.3,388z"/>
	<path class="st10" d="M450.3,377.1l-0.8-1.6c0-2.3,0-4.3,0-6.6C453.8,371.6,451.5,374.3,450.3,377.1z"/>
	<path class="st13" d="M450.3,388l0.4-7c0.4,0,0.8,0.4,1.2,0.4v8.6C451.1,389.1,450.7,388.4,450.3,388z"/>
	<path class="st2" d="M411.9,436.7v15.6c-5.1,0.4-6.7,5.8-9.9,9c-6.3,6.2-13.5,10.9-21,15.2c-10.3,5.5-10.3,5.5-13.1-6.6
		c1.6-15.6-3.6-28-15.1-37.4c-6.7-5.8-14.3-11.3-13.1-23c0.4-3.9-2.8-6.2-4.4-8.6c-0.8-3.1-2-6.2,0-9.3c0.8-0.8,2-0.4,2.4-0.8
		c-2.4-1.6-5.1-0.4-7.9,0c-1.2,0-2-0.8-2.8-0.8c1.2,0.8,2.4,1.2,3.6,1.2c1.2,0,2.4,0,3.2,1.6c0.4,1.9,0.4,3.5,0.8,5.5
		c0.4,4.3,0.8,8.6,0.8,12.9c-0.4,5.1,0.8,10.5-2,15.2c-0.4,0.8-1.2,1.2-1.6,1.9c-2.8,1.9-5.9,3.1-8.7,5.1c-2.8,1.6-5.1,3.5-5.9,7
		c-0.4,0.8-0.8,1.6-1.2,1.9c-5.9,10.9-13.9,20.3-18.6,31.9c-0.8,2.3-2,5.5-5.5,5.1c-11.5-1.9-19.4-10.5-28.1-17.9
		c-2-1.6-3.2-4.7-6.3-4.7c-1.6-31.2,17-60,47.5-72.8c4-1.6,7.5-3.5,10.3-7.4c7.5-10.9,35.2-11.7,41.6,1.9c1.6,3.5,5.1,3.9,7.9,5.5
		C386.1,394.6,403.5,411,411.9,436.7L411.9,436.7z"/>
	<path class="st2" d="M291.9,478.3c2.4-3.1,4.4-6.2,5.1-10.5c0.4-3.1,1.2-6.6,5.1-7.8c2.8-0.8,3.6-3.9,4.4-6.6
		c2-5.5,4-10.5,9.1-13.6c10.7-8.2,21.4-12.5,33.7-3.9c1.2,0.8,2,1.9,3.2,0.8c-0.8-1.6-2.4-1.9-3.6-3.1c-4.4-3.1-9.5-4.3-13.1-9
		c-1.6-8.6-2.4-16.7,0.4-25.3c4,1.9,7.1,4.3,5.9,10.5c-2,10.9,6.3,15.6,12.3,20.3c8.3,6.2,18.6,26.5,16.2,36.6
		c-0.4,1.6-1.6,1.9-2.8,2.3c-3.2,16.4-16.2,14.8-26.5,17.1c-10.7,2.3-21.4,0-31.7-3.5c-6.7-1.9-7.5-3.9-5.5-17.5
		c-3.2,2.3-2.4,6.2-3.2,9.3C299,481.8,296.2,482.2,291.9,478.3L291.9,478.3z"/>
	<path class="st14" d="M259,478.3l-0.4-4.7l0.4-5.8C260.2,471.3,261.4,474.8,259,478.3z M410.7,473.7l-0.4,3.1
		c-2.4-1.9-1.2-4.3-0.4-7L410.7,473.7z"/>
	<path d="M281.2,379l-17.4,17.5c-10.7,1.6-19.8-0.8-26.1-11.7c-5.5-9.3-5.5-19.5-0.4-28.8c5.5-9.7,13.9-14,24.2-12.1
		c9.5,1.6,15.8,8.2,19.4,17.9c0.4,1.6,0.8,3.1,1.6,5.1C286.3,371.6,282.7,375.1,281.2,379z"/>
	<path class="st11" d="M281.2,379l1.2-12.1c1.6-3.9,0.8-8.6,3.2-12.5V365c-0.4,3.5,1.6,7.4-1.6,10.5
		C283.1,376.7,282,377.8,281.2,379z"/>
	<path class="st15" d="M242.7,325.3c0.4-1.2,1.6-3.1,2.8-1.9c1.2,1.6,0.8,3.9-1.2,5.5C244.3,327.2,243.9,326,242.7,325.3z"/>
	<path d="M404.3,396.9c-5.1-5.5-10.7-10.5-15.8-16c-4.8-21.8,7.1-38.9,26.1-36.6c13.1,1.6,19,11.7,21.4,24.9c1.2,1.6,1.2,3.1,0,4.3
		C429.7,393,423.3,397.7,404.3,396.9z"/>
	<path class="st16" d="M447.1,427.7v-15.6C449.5,417.6,449.5,422.6,447.1,427.7z"/>
	<path class="st11" d="M435.6,373.6c0-1.6,0-3.1,0-4.3c0.4-0.8,0.8-1.2,0.8-1.9c1.6,2.7,0.8,5.8,0.4,8.2
		C436.8,375.9,436,374.3,435.6,373.6z"/>
	<path class="st4" d="M374.2,319.8c-7.9,2.3-9.9,10.1-10.7,17.5c-0.8,5.8-2.8,4.7-5.9,2.7c-17-10.9-33.7-12.1-50.7,1.6
		c-1.2-7,4.8-15.2-3.6-19.9c-0.4-1.6,0-2.3,1.6-1.6c2.4,1.2,5.5,3.5,5.5,5.8c0.4,10.5,5.5,6.6,10.3,5.1c11.1-3.9,22.2-2.7,32.9,2.3
		c4,1.9,6.3,3.5,6.7-3.5c0.8-7.4,6.7-9.7,12.3-11.3C374.2,317.5,374.6,318.3,374.2,319.8z"/>
	<path class="st17" d="M307.3,354.5c17.8-16,41.6-14.4,56.2,1.2c-10.3-4.3-19.4-7.4-28.9-7.8C325.5,347.9,316.4,351.4,307.3,354.5z"
		/>
	<path class="st18" d="M439.2,414.1c-5.1,7.8-13.1,7-20.6,7c-0.4-0.4-0.8-0.8-0.4-1.2c0-0.4,0.4-0.4,0.4-0.4c7.1-0.4,13.5-1.9,19-7
		C438.8,411.7,439.6,412.1,439.2,414.1z M247.5,420.7c-12.3,0-14.7-1.2-19.8-10.9c5.5,5.5,12.3,9,19.8,9.3c0.4,0.4,0.8,0.8,0.4,1.2
		C247.9,420.7,247.5,420.7,247.5,420.7z"/>
	<path class="st19" d="M283.9,375.9c0.4-3.5-1.2-7.4,1.6-10.5c0.8,2.7,3.6,3.1,5.5,4.3C289.5,372.8,287.5,375.1,283.9,375.9z"/>
	<path class="st11" d="M339.4,312.8c-4,0.4-7.5,0.8-12.3,1.2c4.8-5.5,9.1-5.8,13.9-3.1C341.4,312.8,341,313.6,339.4,312.8z"/>
	<path class="st20" d="M374.2,319.8l-1.6-1.6c4-3.5,8.3-1.2,12.7-0.8C385.3,317.5,374.2,319.8,374.2,319.8z"/>
	<path class="st21" d="M304.5,319.8l-1.6,1.6c-2.4-1.9-5.9-0.8-7.9-3.5c-0.4-0.4-0.8-0.8-0.4-1.2c0-0.4,0.4-0.4,0.4-0.4
		C298.6,316.7,301.8,317.5,304.5,319.8z"/>
	<path class="st11" d="M339.4,312.8l1.6-1.6c2,1.2,4.4,1.6,5.5,4.7C343.7,315.5,341.4,315.1,339.4,312.8z"/>
	<path class="st22" d="M439.2,414.1l-1.6-1.9c1.2-1.9,2.4-4.7,5.1-4.7C442,410.2,440.8,412.1,439.2,414.1z"/>
	<path class="st23" d="M247.5,420.7c0-0.4,0-1.2,0-1.6c2-0.8,4-2.7,7.1-0.8C251.9,419.5,249.9,420.3,247.5,420.7z"/>
	<path class="st24" d="M287.1,318.3h-6.3v-1.6l6.3-0.4c0.4,0.4,0.8,0.8,0.4,1.2C287.5,317.9,287.1,318.3,287.1,318.3z"/>
	<path class="st25" d="M353.6,319.4c-1.6,1.2-2,1.6-2,1.6c-0.8-0.8-1.6-1.2-2-2.3c-0.4-0.8,0-1.6,1.2-1.2
		C351.7,318.3,352.5,318.6,353.6,319.4z"/>
	<path class="st26" d="M287.1,318.3c0-0.4,0-1.2,0-1.6h7.9v1.6C292.2,318.3,289.9,318.3,287.1,318.3z"/>
	<path class="st23" d="M418.6,419.1c0,0.4,0,1.2,0,1.6L413,418C415.4,417.2,417,417.2,418.6,419.1z"/>
	<path class="st27" d="M350.5,438.2c-11.9-8.6-23.4-3.1-34.9,1.6v-1.9c2.4-2.3,4.8-4.3,7.5-6.2c2.8-1.6,5.9-3.5,8.7-5.1
		c7.1-1.9,11.5,3.9,17,7C350.5,435.1,351.3,436.3,350.5,438.2z"/>
	<path class="st28" d="M336.2,400c0.8,8.6-1.6,17.5,1.6,26.1c-2.4,1.6-4.4,1.6-6.7,0c3.2-5.1,1.2-10.5,1.6-15.6
		c1.2-4.7,1.2-9.3,0-13.6l-0.4-5.1c1.2-1.2,2.4-1.2,3.6,0C334.2,394.2,336.6,396.9,336.2,400z"/>
	<path class="st29" d="M331.5,426.1h6.7c4.8,1.2,9.1,3.5,12.7,7c0.4,1.6,0,2.3-1.6,1.9c-5.5-3.1-10.3-8.2-17-7
		c-1.6,0.8-2-0.4-1.6-1.9C330.3,426.1,330.7,426.1,331.5,426.1z"/>
	<path class="st30" d="M328.3,371.6c4.4-1.9,7.5-1.2,11.1-1.2C335,374.3,335,374.3,328.3,371.6z"/>
	<path class="st31" d="M329.9,381.4c-0.4,1.6-0.4,3.9-2.8,3.1c-1.6,0-2-1.6-2-3.1c0.4-1.9,0.8-3.5,2.8-3.1
		C329.9,378.2,329.5,380.2,329.9,381.4z"/>
	<path class="st32" d="M339.4,378.2c2,0.4,2.4,2.3,2.8,3.5c0.4,1.6,0,3.1-1.6,3.1c-2,0-2.4-1.9-2.4-3.5
		C337.8,380.2,337.8,378.6,339.4,378.2z"/>
	<path class="st33" d="M336.2,391.5h-3.6c-0.8,0-2,0-2.8-0.4s-0.8-0.8-0.8-1.2c0.4-0.4,0.4-0.4,0.8-0.4c2.8-1.9,5.5-2.7,8.3-0.4
		c0.8,0.8,2,1.2,0,1.6C337.8,391.5,337,391.1,336.2,391.5z"/>
	<path class="st34" d="M329.9,426.1l1.6,1.9c-2.8,1.6-5.5,3.1-8.3,5.1c-0.8-0.4-1.6-0.8-1.6-1.6
		C323.9,428.5,327.1,427.7,329.9,426.1z"/>
	<path class="st35" d="M321.6,431.2l1.6,1.6c-2.8,1.6-4,5.5-7.9,5.1C316,433.9,319.2,432.8,321.6,431.2z"/>
	<path class="st36" d="M333,396.5c2.4,4.7,2.4,9.3,0,13.6V396.5z"/>
	<path class="st37" d="M293,421.1c1.2,0.4,1.6,1.2,1.6,2.3c0,1.6-0.8,2.3-2,1.6c-0.8-0.4-1.6-1.2-1.6-2.3
		C290.7,421.5,291.9,421.1,293,421.1z"/>
	<path class="st38" d="M373,425.8c-2-0.4-2-1.6-2-2.3c0-0.8,1.2-1.6,1.2-1.6c0.8,0.4,2,1.2,2,1.9C374.6,424.2,373.4,425,373,425.8z"
		/>
	<path class="st39" d="M329.9,389.5c0,0.4,0,1.2,0,1.6c-2,0-4-0.8-5.5-2.3C327.1,387.2,328.3,389.1,329.9,389.5z"/>
	<path class="st40" d="M348.9,434.7l1.6-1.9c1.6,1.2,4.4,1.9,3.6,4.7c0,0.8-2,1.9-3.2,0.4C350.5,438.2,348.9,434.7,348.9,434.7z"/>
	<path class="st41" d="M365.9,463.1c-1.6-1.9-2-3.9-2-6.6C366.7,458.1,366.3,460.4,365.9,463.1z"/>
	<path class="st42" d="M264.1,365.8c-4,0-6.7-2.7-6.7-6.6c0-4.3,2.4-7,6.3-7.4c4-0.4,6.3,2.7,6.7,7
		C270.5,362.7,268.1,365.4,264.1,365.8z"/>
	<path class="st43" d="M404.7,351.4c4,1.2,6.3,3.1,6.3,7.8s-2.8,7-6.7,6.6c-4-0.4-6.3-3.1-5.9-7.4
		C398.4,354.1,401.2,351.8,404.7,351.4z"/>
</g>
</svg>
