<svg xmlns="http://www.w3.org/2000/svg" width="83.737" height="83" viewBox="0 0 81.3 81.9"><path d="M14 0h53.4c7.6-.1 13.9 6.1 14 13.8v54.3c-.1 7.7-6.3 13.9-13.9 13.8H14C6.3 82 .1 75.8 0 68.1V13.8C.1 6.1 6.3-.1 14 0z" fill="#f1b52a"/><path d="M7.5 60.6h6.9c.9 0 1.6-.7 1.6-1.6v-6.8c0-.9-.8-1.6-1.6-1.6H13c2.2-11.4 11.1-20.3 22.5-22.3v1.3c0 .9.7 1.6 1.6 1.6H44c.9 0 1.6-.7 1.6-1.6v-1.3C57 30.3 66 39.2 68.1 50.6h-1.3c-.9 0-1.6.7-1.6 1.6V59c0 .9.7 1.6 1.6 1.6h6.9c.9 0 1.6-.7 1.6-1.6v-6.8c0-.9-.8-1.6-1.6-1.6h-2.2c-1.7-9.9-8-18.4-17-22.8h11.3c.9 1.2 2.6 1.5 3.9.6 1.2-.9 1.5-2.6.7-3.8v-.1c-.9-1.2-2.6-1.5-3.8-.6l-.6.6H45.7v-1.8c0-.9-.7-1.6-1.6-1.6h-6.9c-.9 0-1.6.7-1.6 1.6v1.8H15.4c-.9-1.2-2.6-1.5-3.9-.6-1.2.9-1.5 2.6-.7 3.8v.1c.9 1.2 2.6 1.5 3.9.6l.6-.6h11.3c-9 4.4-15.3 12.9-17 22.8H7.5c-.9 0-1.6.7-1.6 1.6V59c0 .9.7 1.6 1.6 1.6zm64.6-3.2h-3.6v-3.5h3.6v3.5zM38.9 24.5h3.6V28h-3.6v-3.5zM9.2 53.9h3.6v3.5H9.2v-3.5z" fill="#0d0f0f"/></svg>