<?xml version="1.0" encoding="utf-8"?>
<!-- Generator: Adobe Illustrator 21.1.0, SVG Export Plug-In . SVG Version: 6.00 Build 0)  -->
<svg version="1.1" id="Слой_1" xmlns="http://www.w3.org/2000/svg" xmlns:xlink="http://www.w3.org/1999/xlink" x="0px" y="0px"
	 viewBox="0 0 83.7 83" style="enable-background:new 0 0 83.7 83;" xml:space="preserve">
<style type="text/css">
	.st0{fill:#FFFFFF;}
</style>
<path d="M14.9,0H69c7.7-0.1,14.1,6.2,14.2,14v55c-0.1,7.8-6.4,14.1-14.1,14H14.9C7.1,83.1,0.8,76.8,0.7,69V14
	C0.8,6.2,7.1-0.1,14.9,0z"/>
<path class="st0" d="M8.3,61.4h7c0.9,0,1.6-0.7,1.6-1.6v-6.9c0-0.9-0.8-1.6-1.6-1.6h-1.4c2.2-11.6,11.2-20.6,22.8-22.6V30
	c0,0.9,0.7,1.6,1.6,1.6h7c0.9,0,1.6-0.7,1.6-1.6v-1.3c11.6,2,20.7,11,22.8,22.6h-1.3c-0.9,0-1.6,0.7-1.6,1.6v6.9
	c0,0.9,0.7,1.6,1.6,1.6h7c0.9,0,1.6-0.7,1.6-1.6v-6.9c0-0.9-0.8-1.6-1.6-1.6h-2.2c-1.7-10-8.1-18.6-17.2-23.1h11.5
	c0.9,1.2,2.6,1.5,4,0.6c1.2-0.9,1.5-2.6,0.7-3.9v-0.1c-0.9-1.2-2.6-1.5-3.9-0.6l-0.6,0.6H47V23c0-0.9-0.7-1.6-1.6-1.6h-7
	c-0.9,0-1.6,0.7-1.6,1.6v1.8H16.3c-0.9-1.2-2.6-1.5-4-0.6c-1.2,0.9-1.5,2.6-0.7,3.9v0.1c0.9,1.2,2.6,1.5,4,0.6l0.6-0.6h11.5
	c-9.1,4.5-15.5,13.1-17.2,23.1H8.3c-0.9,0-1.6,0.7-1.6,1.6v6.9C6.7,60.7,7.4,61.4,8.3,61.4z M73.7,58.2h-3.6v-3.5h3.6V58.2z
	 M40.1,24.8h3.6v3.5h-3.6V24.8z M10,54.6h3.6v3.5H10V54.6z"/>
</svg>
