<svg width="57" height="56" viewBox="0 0 57 56" fill="none" xmlns="http://www.w3.org/2000/svg">
<g id="strong muscle - emoji_u1f4aa">
<path id="Vector" d="M31.8802 50.7828C27.241 50.7828 20.3814 50.6506 14.4123 49.511C6.44045 47.9902 5.84548 44.8593 5.91936 41.7828C5.98158 39.1652 7.1793 30.4025 8.36146 26.8165C10.1503 21.3947 12.884 16.004 14.5484 13.686C16.831 10.5083 22.6174 5.40158 28.4349 5.22656H28.4893C29.2593 5.22656 30.0253 5.73218 30.4842 6.54506L32.7591 10.5589C33.3035 11.5235 33.2918 12.7097 32.728 13.6587C32.2652 14.4366 30.9197 14.6466 30.9081 14.6505L29.8387 14.8061L30.5581 15.619C30.5542 15.619 30.7953 16.0001 30.2275 16.8247C29.722 17.5598 28.7382 17.9137 27.2255 17.9137C25.8061 17.9137 24.1884 17.5909 22.8896 17.3342C22.8118 17.3186 22.7301 17.3109 22.6485 17.3109C22.1663 17.3109 21.6685 17.5792 21.2175 18.0848C20.6341 18.7344 18.7948 21.3752 19.5414 28.0689C19.9109 31.3904 18.8104 34.3813 18.7987 34.4124L18.3359 35.6493L19.5609 35.1592C19.5725 35.1514 21.4391 34.4202 24.0056 34.4202H24.2778L24.4528 34.2102C24.5073 34.1441 29.8737 27.8005 36.8383 27.8005C41.3881 27.8005 45.7434 29.6441 48.4888 32.7322C50.4254 34.9103 51.3314 37.4889 51.0359 39.9898C49.8926 49.7055 40.727 50.7556 36.8383 50.7556C36.2939 50.7556 35.6561 50.7595 34.9445 50.7673C34.0384 50.775 33.0079 50.7828 31.8802 50.7828Z" fill="url(#paint0_linear_780_9990)"/>
<path id="Vector_2" d="M28.4865 5.81525C29.0387 5.81525 29.622 6.21586 29.9759 6.83816L32.2507 10.852C32.6941 11.6338 32.6824 12.5983 32.2274 13.3684C32.0058 13.7418 31.2552 14.0141 30.8275 14.0802L28.677 14.3835L30.0148 15.8926C30.0109 15.9704 29.9681 16.1688 29.7425 16.4955C29.3576 17.0517 28.5098 17.3356 27.2188 17.3356C25.8577 17.3356 24.2712 17.0205 22.9996 16.7677C22.8829 16.7444 22.7624 16.7327 22.6457 16.7327C22.1907 16.7327 21.4946 16.9 20.7791 17.7012C19.1187 19.5564 18.4381 23.4575 18.9553 28.1364C19.3053 31.2984 18.2554 34.1844 18.2437 34.2116L17.326 36.6658L19.7681 35.7051C19.7797 35.6934 21.5569 35.005 23.999 35.005H24.5473L24.8972 34.585C24.9478 34.5227 30.1547 28.3853 36.8355 28.3853C41.2219 28.3853 45.4139 30.155 48.0505 33.1226C49.8743 35.1761 50.7298 37.5914 50.4537 39.9251C50.0298 43.5189 48.4316 46.2181 45.6978 47.9566C42.8046 49.7885 39.2815 50.1736 36.8316 50.1736C36.2872 50.1736 35.6495 50.1775 34.9339 50.1852C34.0279 50.193 32.9974 50.2008 31.8774 50.2008C27.2616 50.2008 20.4369 50.0686 14.5183 48.9406C11.0302 48.2756 8.76698 47.2682 7.58871 45.8641C6.57376 44.6546 6.46876 43.196 6.49987 41.7998C6.56209 39.2094 7.74425 30.5439 8.91475 27.0046C10.6219 21.8317 13.3595 16.3477 15.0239 14.0335C17.2404 10.9453 22.8479 5.98638 28.4515 5.81914L28.4865 5.81525ZM28.4865 4.64844H28.4165C22.2685 4.83124 16.3227 10.2141 14.075 13.349C12.3601 15.7409 9.58749 21.2444 7.80647 26.6351C6.63209 30.1977 5.39938 38.9916 5.33327 41.7686C5.25161 45.1641 6.05267 48.5089 14.3006 50.0841C20.1686 51.2043 26.9271 51.3676 31.8774 51.3676C33.8879 51.3676 35.5989 51.3404 36.8316 51.3404C43.4424 51.3404 50.5937 48.6995 51.6086 40.0612C52.3864 33.4493 45.3867 27.2185 36.8316 27.2185C29.5014 27.2185 23.999 33.8382 23.999 33.8382C21.2769 33.8382 19.3325 34.6161 19.3325 34.6161C19.3325 34.6161 20.4991 31.5046 20.1103 28.0041C19.3364 21.0266 21.4324 17.8956 22.6418 17.8956C22.6846 17.8956 22.7274 17.8995 22.7701 17.9073C24.1156 18.1757 25.7489 18.4985 27.2188 18.4985C28.6887 18.4985 29.9953 18.1757 30.6992 17.1567C31.5741 15.8926 30.9869 15.2314 30.9869 15.2314C30.9869 15.2314 32.6085 15.002 33.2268 13.9596C33.8996 12.8278 33.9151 11.4198 33.2657 10.2725L30.9869 6.25864C30.4697 5.34464 29.5326 4.64844 28.4865 4.64844Z" fill="#EDA600"/>
<path id="Vector_3" d="M28.201 10.3115C27.225 10.1288 26.0623 10.0899 25.1562 10.5487C24.0324 11.1204 23.6396 12.602 24.2929 13.6791C25.2729 15.2851 27.9211 15.4407 29.5971 15.3746C30.3437 15.3435 30.3476 14.1769 29.5971 14.208C28.3877 14.2546 26.8789 14.1924 25.825 13.5508C25.0706 13.088 24.814 12.0303 25.7434 11.5598C26.3422 11.2526 27.2405 11.3187 27.8861 11.4392C28.6249 11.5715 28.9399 10.4476 28.201 10.3115Z" fill="#EDA600"/>
<path id="Vector_4" d="M17.8516 35.2844C15.985 38.0026 15.5029 40.7364 16.1639 43.9562C16.3156 44.6911 17.4394 44.38 17.2878 43.6451C16.6889 40.7208 17.1633 38.3409 18.8588 35.8716C19.2865 35.2533 18.2755 34.67 17.8516 35.2844Z" fill="#EDA600"/>
<path id="Vector_5" d="M22.3613 16.6822C21.498 16.5577 20.2653 15.5117 19.752 14.4073C19.5964 14.0729 19.6625 13.5984 19.052 13.5634C18.2082 13.5168 18.8265 15.2122 19.1142 15.6283C19.9036 16.7599 20.973 17.3938 22.373 17.4949C23.1235 17.5493 23.1313 16.7911 22.3613 16.6822Z" fill="#EDA600"/>
<path id="Vector_6" d="M24.5966 39.0497C25.5765 43.0978 29.2474 46.1154 33.2956 46.6637C37.2037 47.1926 43.7678 46.2865 45.6927 42.1062C46.0038 41.4295 45.0005 40.8346 44.6855 41.519C42.9239 45.3493 36.6359 46.0726 33.105 45.466C29.648 44.871 26.5603 42.2112 25.7243 38.7425C25.5454 38.0114 24.4216 38.3186 24.5966 39.0497Z" fill="#EDA600"/>
</g>
<defs>
<linearGradient id="paint0_linear_780_9990" x1="28.5029" y1="47.7219" x2="28.5029" y2="10.4228" gradientUnits="userSpaceOnUse">
<stop stop-color="#FFB300"/>
<stop offset="0.4007" stop-color="#FFCA28"/>
</linearGradient>
</defs>
</svg>
