<svg width="64" height="64" viewBox="0 0 64 64" fill="none" xmlns="http://www.w3.org/2000/svg">
<path opacity="0.42" d="M50.7005 36.7682C54.8412 36.7682 58.1979 33.4115 58.1979 29.2708C58.1979 25.1301 54.8412 21.7734 50.7005 21.7734C46.5598 21.7734 43.2031 25.1301 43.2031 29.2708C43.2031 33.4115 46.5598 36.7682 50.7005 36.7682Z" fill="#4DD0E1"/>
<path d="M49.8795 24.0683C50.195 24.726 49.1906 25.5615 48.7995 26.0815C47.7818 27.437 48.3107 28.4903 47.5507 29.7258C46.9774 30.6546 45.1597 31.2946 44.8175 29.0236C44.6042 27.6014 45.493 25.9926 46.0974 25.3349C48.1018 23.1572 49.6173 23.5261 49.8795 24.0683Z" fill="white"/>
<path d="M50.6992 37.4335C46.1972 37.4335 42.5352 33.7715 42.5352 29.2695C42.5352 24.7675 46.1972 21.1055 50.6992 21.1055C55.2012 21.1055 58.8632 24.7675 58.8632 29.2695C58.8632 33.7715 55.1967 37.4335 50.6992 37.4335ZM50.5436 22.261C46.6772 22.261 43.5307 25.4075 43.5307 29.2739C43.5307 33.1404 46.6772 36.2869 50.5436 36.2869C54.4101 36.2869 57.5566 33.1404 57.5566 29.2739C57.5566 25.4075 54.4145 22.261 50.5436 22.261Z" fill="#4DC6E1"/>
<path opacity="0.42" d="M43.2406 57.5711C48.5555 57.5711 52.864 53.2625 52.864 47.9477C52.864 42.6328 48.5555 38.3242 43.2406 38.3242C37.9257 38.3242 33.6172 42.6328 33.6172 47.9477C33.6172 53.2625 37.9257 57.5711 43.2406 57.5711Z" fill="#4DD0E1"/>
<path d="M43.2429 58.4604C37.4466 58.4604 32.7305 53.7443 32.7305 47.948C32.7305 42.1517 37.4466 37.4355 43.2429 37.4355C49.0392 37.4355 53.7553 42.1517 53.7553 47.948C53.7553 53.7443 49.0392 58.4604 43.2429 58.4604ZM43.5096 38.7202C38.389 38.7202 34.224 42.8851 34.224 48.0058C34.224 53.1264 38.389 57.2914 43.5096 57.2914C48.6302 57.2914 52.7952 53.1264 52.7952 48.0058C52.7952 42.8851 48.6302 38.7202 43.5096 38.7202Z" fill="#4DC6E1"/>
<path opacity="0.7" d="M40.9077 40.587C42.8631 40.4537 43.5386 41.8492 43.0542 42.9558C42.432 44.3779 40.9832 43.8713 39.7077 45.2534C38.8278 46.2089 36.9479 47.2444 36.6857 45.1334C36.4546 43.2669 38.5211 40.7514 40.9077 40.587Z" fill="white"/>
<path d="M46.5562 43.1196C47.7339 43.1151 47.8761 41.7908 47.245 41.0841C46.5162 39.9953 44.0763 40.1108 44.6541 41.9063C44.9074 42.6974 45.3696 43.124 46.5562 43.1196Z" fill="white"/>
<path opacity="0.42" d="M22.6453 40.1129C32.0648 40.1129 39.7008 32.4769 39.7008 23.0574C39.7008 13.638 32.0648 6.00195 22.6453 6.00195C13.2258 6.00195 5.58984 13.638 5.58984 23.0574C5.58984 32.4769 13.2258 40.1129 22.6453 40.1129Z" fill="#4DD0E1"/>
<path opacity="0.7" d="M20.6941 10.1083C22.6451 10.7793 23.1606 12.5215 22.5606 14.0103C22.0095 15.3791 19.9385 15.9968 18.6408 16.7035C16.6632 17.7745 15.2277 19.1656 14.1566 21.1432C13.1211 23.0542 10.3302 23.8275 9.94796 21.0499C9.65019 18.8767 11.0012 15.7835 12.2678 14.1969C13.3878 12.797 14.9255 11.5482 16.5343 10.7482C17.6676 10.1882 19.463 9.68605 20.6941 10.1083Z" fill="white"/>
<path d="M29.7785 11.0925C30.5785 11.768 30.6718 13.0079 29.5652 13.3946C29.0719 13.5324 28.5564 13.3101 28.0453 13.2746C27.0054 13.2035 26.5743 13.5724 25.6854 13.1946C24.361 12.6257 23.8144 11.4791 24.4455 10.537C24.7566 10.0748 25.3477 9.83921 25.8721 9.737C27.2942 9.46145 28.7786 10.0881 29.7785 11.0925Z" fill="white"/>
<path d="M22.8673 41.0016C13.0927 41.0016 5.14062 33.0495 5.14062 23.275C5.14062 13.5004 13.0927 5.55273 22.8673 5.55273C32.6418 5.55273 40.5939 13.5048 40.5939 23.2794C40.5939 33.054 32.6374 41.0016 22.8673 41.0016ZM23.1429 7.42853C14.2262 7.42853 6.97641 14.6783 6.97641 23.595C6.97641 32.5117 14.2307 39.7615 23.1429 39.7615C32.0551 39.7615 39.3093 32.5072 39.3093 23.595C39.3093 14.6828 32.0551 7.42853 23.1429 7.42853Z" fill="#4DC6E1"/>
<path d="M50.5025 50.2139C49.4182 49.845 49.6759 51.5161 47.5338 53.0226C45.2495 54.6314 43.8673 54.2448 43.7873 55.1559C43.7029 56.1291 46.0806 56.1247 48.556 54.2804C50.7025 52.6893 51.6003 50.5872 50.5025 50.2139Z" fill="white"/>
<path d="M56.6119 30.1623C56.8696 28.798 56.5452 25.9314 55.1631 26.8469C54.6075 27.2158 55.483 28.7935 55.2164 30.149C54.8608 31.9667 54.1853 32.9177 52.5943 34.051C52.2299 34.3088 52.4254 34.7887 53.1143 34.5399C54.932 33.8866 56.1674 32.5355 56.6119 30.1623Z" fill="white"/>
<path d="M35.5714 26.003C34.1537 25.5897 34.207 27.114 32.7138 29.545C31.7183 31.1627 29.6206 33.2648 26.2075 34.1048C24.1987 34.5981 23.2965 35.0203 23.2387 35.758C23.1365 37.0157 24.8475 37.3535 27.3318 36.7046C33.9182 34.9936 38.5801 26.8785 35.5714 26.003Z" fill="white"/>
</svg>
