<svg width="21" height="20" viewBox="0 0 21 20" fill="none" xmlns="http://www.w3.org/2000/svg">
<path d="M0.96875 5.25V17.7566C0.96875 18.2766 1.45214 18.625 2.02222 19.0251C2.61062 19.4385 2.93566 19.4001 3.21736 19.4001L19.196 19.5035C19.8244 19.5035 20.0345 19.0751 20.0345 18.6133V5.25H0.96875Z" fill="#BDBDBD"/>
<path d="M17.12 18.7727C16.59 18.8377 16.0599 18.8643 15.5298 18.911C14.9998 18.9443 14.4697 18.9743 13.9396 18.9926C13.4096 19.0193 12.8795 19.0243 12.3494 19.0393L10.7592 19.0543L9.16903 19.0393C8.63897 19.0243 8.1089 19.0176 7.57884 18.9926C7.04877 18.9743 6.5187 18.9443 5.98864 18.911C5.45857 18.8643 4.9285 18.836 4.39844 18.7727V18.7393L10.7576 18.7227L17.1167 18.7393V18.7727H17.12Z" fill="#757575"/>
<path opacity="0.29" d="M20.0362 18.6117L18.6562 17.1932V5.25L20.0362 6.08677V18.6117Z" fill="url(#paint0_linear_803_6436)"/>
<path d="M20.035 6.2044L18.9583 5.52943L17.2734 1.66797C17.2734 1.66797 17.3734 1.66797 18.1801 1.66797C19.7883 1.66797 20.035 2.59625 20.035 2.9129V6.2044Z" fill="#C62828"/>
<path d="M1.46094 5.38867V17.4118C1.46094 17.8619 1.82598 18.2253 2.27437 18.2253H18.0847C18.5347 18.2253 18.9548 17.8902 18.9548 17.4402V16.5667V5.38867H1.46094Z" fill="#FAFAFA"/>
<path d="M6.91513 6.84766V8.86791H2.53125V17.0773H11.224V15.032H17.6815V6.84766H6.91513Z" fill="#B3E5FC"/>
<path fill-rule="evenodd" clip-rule="evenodd" d="M2.69791 6.77148V17.1611H2.53125V6.77148H2.69791Z" fill="#1E88E5"/>
<path fill-rule="evenodd" clip-rule="evenodd" d="M4.84635 6.77148V17.1611H4.67969V6.77148H4.84635Z" fill="#1E88E5"/>
<path fill-rule="evenodd" clip-rule="evenodd" d="M7.00259 6.77148V17.1611H6.83594V6.77148H7.00259Z" fill="#1E88E5"/>
<path fill-rule="evenodd" clip-rule="evenodd" d="M9.15884 6.77148V17.1611H8.99219V6.77148H9.15884Z" fill="#1E88E5"/>
<path fill-rule="evenodd" clip-rule="evenodd" d="M11.3073 6.77148V17.1611H11.1406V6.77148H11.3073Z" fill="#1E88E5"/>
<path fill-rule="evenodd" clip-rule="evenodd" d="M13.4557 6.77148V17.1611H13.2891V6.77148H13.4557Z" fill="#1E88E5"/>
<path fill-rule="evenodd" clip-rule="evenodd" d="M15.612 6.77148V17.1611H15.4453V6.77148H15.612Z" fill="#1E88E5"/>
<path fill-rule="evenodd" clip-rule="evenodd" d="M17.7682 6.77148V17.1611H17.6016V6.77148H17.7682Z" fill="#1E88E5"/>
<path fill-rule="evenodd" clip-rule="evenodd" d="M2.53125 16.9941H17.7648V17.1608H2.53125V16.9941Z" fill="#1E88E5"/>
<path fill-rule="evenodd" clip-rule="evenodd" d="M2.53125 14.9492H17.7648V15.1159H2.53125V14.9492Z" fill="#1E88E5"/>
<path fill-rule="evenodd" clip-rule="evenodd" d="M2.53125 12.9062H17.7648V13.0729H2.53125V12.9062Z" fill="#1E88E5"/>
<path fill-rule="evenodd" clip-rule="evenodd" d="M2.53125 10.8594H17.7648V11.026H2.53125V10.8594Z" fill="#1E88E5"/>
<path fill-rule="evenodd" clip-rule="evenodd" d="M2.53125 8.81641H17.7648V8.98306H2.53125V8.81641Z" fill="#1E88E5"/>
<path fill-rule="evenodd" clip-rule="evenodd" d="M2.53125 6.77148H17.7648V6.93814H2.53125V6.77148Z" fill="#1E88E5"/>
<path d="M17.1162 15.7422C17.2322 15.7422 17.3262 15.6482 17.3262 15.5323C17.3262 15.4163 17.2322 15.3223 17.1162 15.3223C17.0003 15.3223 16.9062 15.4163 16.9062 15.5323C16.9062 15.6482 17.0003 15.7422 17.1162 15.7422Z" fill="#1E88E5"/>
<path d="M14.9522 15.7422C15.0681 15.7422 15.1622 15.6482 15.1622 15.5323C15.1622 15.4163 15.0681 15.3223 14.9522 15.3223C14.8362 15.3223 14.7422 15.4163 14.7422 15.5323C14.7422 15.6482 14.8362 15.7422 14.9522 15.7422Z" fill="#1E88E5"/>
<path d="M12.7881 15.7422C12.9041 15.7422 12.9981 15.6482 12.9981 15.5323C12.9981 15.4163 12.9041 15.3223 12.7881 15.3223C12.6721 15.3223 12.5781 15.4163 12.5781 15.5323C12.5781 15.6482 12.6721 15.7422 12.7881 15.7422Z" fill="#1E88E5"/>
<path d="M10.6241 15.7422C10.74 15.7422 10.834 15.6482 10.834 15.5323C10.834 15.4163 10.74 15.3223 10.6241 15.3223C10.5081 15.3223 10.4141 15.4163 10.4141 15.5323C10.4141 15.6482 10.5081 15.7422 10.6241 15.7422Z" fill="#1E88E5"/>
<path d="M8.45999 15.7422C8.57596 15.7422 8.66998 15.6482 8.66998 15.5323C8.66998 15.4163 8.57596 15.3223 8.45999 15.3223C8.34401 15.3223 8.25 15.4163 8.25 15.5323C8.25 15.6482 8.34401 15.7422 8.45999 15.7422Z" fill="#1E88E5"/>
<path d="M6.29593 15.7422C6.4119 15.7422 6.50592 15.6482 6.50592 15.5323C6.50592 15.4163 6.4119 15.3223 6.29593 15.3223C6.17995 15.3223 6.08594 15.4163 6.08594 15.5323C6.08594 15.6482 6.17995 15.7422 6.29593 15.7422Z" fill="#1E88E5"/>
<path d="M4.13186 15.7422C4.24784 15.7422 4.34185 15.6482 4.34185 15.5323C4.34185 15.4163 4.24784 15.3223 4.13186 15.3223C4.01589 15.3223 3.92188 15.4163 3.92188 15.5323C3.92188 15.6482 4.01589 15.7422 4.13186 15.7422Z" fill="#1E88E5"/>
<path d="M17.1162 13.6993C17.2322 13.6993 17.3262 13.6053 17.3262 13.4893C17.3262 13.3733 17.2322 13.2793 17.1162 13.2793C17.0003 13.2793 16.9062 13.3733 16.9062 13.4893C16.9062 13.6053 17.0003 13.6993 17.1162 13.6993Z" fill="#1E88E5"/>
<path d="M14.9522 13.6993C15.0681 13.6993 15.1622 13.6053 15.1622 13.4893C15.1622 13.3733 15.0681 13.2793 14.9522 13.2793C14.8362 13.2793 14.7422 13.3733 14.7422 13.4893C14.7422 13.6053 14.8362 13.6993 14.9522 13.6993Z" fill="#1E88E5"/>
<path d="M12.7881 13.6993C12.9041 13.6993 12.9981 13.6053 12.9981 13.4893C12.9981 13.3733 12.9041 13.2793 12.7881 13.2793C12.6721 13.2793 12.5781 13.3733 12.5781 13.4893C12.5781 13.6053 12.6721 13.6993 12.7881 13.6993Z" fill="#1E88E5"/>
<path d="M10.6241 13.6993C10.74 13.6993 10.834 13.6053 10.834 13.4893C10.834 13.3733 10.74 13.2793 10.6241 13.2793C10.5081 13.2793 10.4141 13.3733 10.4141 13.4893C10.4141 13.6053 10.5081 13.6993 10.6241 13.6993Z" fill="#1E88E5"/>
<path d="M8.45999 13.6993C8.57596 13.6993 8.66998 13.6053 8.66998 13.4893C8.66998 13.3733 8.57596 13.2793 8.45999 13.2793C8.34401 13.2793 8.25 13.3733 8.25 13.4893C8.25 13.6053 8.34401 13.6993 8.45999 13.6993Z" fill="#1E88E5"/>
<path d="M6.29593 13.6993C6.4119 13.6993 6.50592 13.6053 6.50592 13.4893C6.50592 13.3733 6.4119 13.2793 6.29593 13.2793C6.17995 13.2793 6.08594 13.3733 6.08594 13.4893C6.08594 13.6053 6.17995 13.6993 6.29593 13.6993Z" fill="#1E88E5"/>
<path d="M4.13186 13.6993C4.24784 13.6993 4.34185 13.6053 4.34185 13.4893C4.34185 13.3733 4.24784 13.2793 4.13186 13.2793C4.01589 13.2793 3.92188 13.3733 3.92188 13.4893C3.92188 13.6053 4.01589 13.6993 4.13186 13.6993Z" fill="#1E88E5"/>
<path d="M17.1162 11.6524C17.2322 11.6524 17.3262 11.5584 17.3262 11.4424C17.3262 11.3264 17.2322 11.2324 17.1162 11.2324C17.0003 11.2324 16.9062 11.3264 16.9062 11.4424C16.9062 11.5584 17.0003 11.6524 17.1162 11.6524Z" fill="#1E88E5"/>
<path d="M14.9522 11.6524C15.0681 11.6524 15.1622 11.5584 15.1622 11.4424C15.1622 11.3264 15.0681 11.2324 14.9522 11.2324C14.8362 11.2324 14.7422 11.3264 14.7422 11.4424C14.7422 11.5584 14.8362 11.6524 14.9522 11.6524Z" fill="#1E88E5"/>
<path d="M12.7881 11.6524C12.9041 11.6524 12.9981 11.5584 12.9981 11.4424C12.9981 11.3264 12.9041 11.2324 12.7881 11.2324C12.6721 11.2324 12.5781 11.3264 12.5781 11.4424C12.5781 11.5584 12.6721 11.6524 12.7881 11.6524Z" fill="#1E88E5"/>
<path d="M10.6241 11.6524C10.74 11.6524 10.834 11.5584 10.834 11.4424C10.834 11.3264 10.74 11.2324 10.6241 11.2324C10.5081 11.2324 10.4141 11.3264 10.4141 11.4424C10.4141 11.5584 10.5081 11.6524 10.6241 11.6524Z" fill="#1E88E5"/>
<path d="M8.45999 11.6524C8.57596 11.6524 8.66998 11.5584 8.66998 11.4424C8.66998 11.3264 8.57596 11.2324 8.45999 11.2324C8.34401 11.2324 8.25 11.3264 8.25 11.4424C8.25 11.5584 8.34401 11.6524 8.45999 11.6524Z" fill="#1E88E5"/>
<path d="M6.29593 11.6524C6.4119 11.6524 6.50592 11.5584 6.50592 11.4424C6.50592 11.3264 6.4119 11.2324 6.29593 11.2324C6.17995 11.2324 6.08594 11.3264 6.08594 11.4424C6.08594 11.5584 6.17995 11.6524 6.29593 11.6524Z" fill="#1E88E5"/>
<path d="M4.13186 11.6524C4.24784 11.6524 4.34185 11.5584 4.34185 11.4424C4.34185 11.3264 4.24784 11.2324 4.13186 11.2324C4.01589 11.2324 3.92188 11.3264 3.92188 11.4424C3.92188 11.5584 4.01589 11.6524 4.13186 11.6524Z" fill="#1E88E5"/>
<path d="M17.1162 9.60943C17.2322 9.60943 17.3262 9.51542 17.3262 9.39944C17.3262 9.28347 17.2322 9.18945 17.1162 9.18945C17.0003 9.18945 16.9062 9.28347 16.9062 9.39944C16.9062 9.51542 17.0003 9.60943 17.1162 9.60943Z" fill="#1E88E5"/>
<path d="M14.9522 9.60943C15.0681 9.60943 15.1622 9.51542 15.1622 9.39944C15.1622 9.28347 15.0681 9.18945 14.9522 9.18945C14.8362 9.18945 14.7422 9.28347 14.7422 9.39944C14.7422 9.51542 14.8362 9.60943 14.9522 9.60943Z" fill="#1E88E5"/>
<path d="M12.7881 9.60943C12.9041 9.60943 12.9981 9.51542 12.9981 9.39944C12.9981 9.28347 12.9041 9.18945 12.7881 9.18945C12.6721 9.18945 12.5781 9.28347 12.5781 9.39944C12.5781 9.51542 12.6721 9.60943 12.7881 9.60943Z" fill="#1E88E5"/>
<path d="M10.6241 9.60943C10.74 9.60943 10.834 9.51542 10.834 9.39944C10.834 9.28347 10.74 9.18945 10.6241 9.18945C10.5081 9.18945 10.4141 9.28347 10.4141 9.39944C10.4141 9.51542 10.5081 9.60943 10.6241 9.60943Z" fill="#1E88E5"/>
<path d="M8.45999 9.60943C8.57596 9.60943 8.66998 9.51542 8.66998 9.39944C8.66998 9.28347 8.57596 9.18945 8.45999 9.18945C8.34401 9.18945 8.25 9.28347 8.25 9.39944C8.25 9.51542 8.34401 9.60943 8.45999 9.60943Z" fill="#1E88E5"/>
<path d="M6.29593 9.60943C6.4119 9.60943 6.50592 9.51542 6.50592 9.39944C6.50592 9.28347 6.4119 9.18945 6.29593 9.18945C6.17995 9.18945 6.08594 9.28347 6.08594 9.39944C6.08594 9.51542 6.17995 9.60943 6.29593 9.60943Z" fill="#1E88E5"/>
<path d="M4.13186 9.60943C4.24784 9.60943 4.34185 9.51542 4.34185 9.39944C4.34185 9.28347 4.24784 9.18945 4.13186 9.18945C4.01589 9.18945 3.92188 9.28347 3.92188 9.39944C3.92188 9.51542 4.01589 9.60943 4.13186 9.60943Z" fill="#1E88E5"/>
<path d="M17.1162 7.56451C17.2322 7.56451 17.3262 7.47049 17.3262 7.35452C17.3262 7.23855 17.2322 7.14453 17.1162 7.14453C17.0003 7.14453 16.9062 7.23855 16.9062 7.35452C16.9062 7.47049 17.0003 7.56451 17.1162 7.56451Z" fill="#1E88E5"/>
<path d="M14.9522 7.56451C15.0681 7.56451 15.1622 7.47049 15.1622 7.35452C15.1622 7.23855 15.0681 7.14453 14.9522 7.14453C14.8362 7.14453 14.7422 7.23855 14.7422 7.35452C14.7422 7.47049 14.8362 7.56451 14.9522 7.56451Z" fill="#1E88E5"/>
<path d="M12.7881 7.56451C12.9041 7.56451 12.9981 7.47049 12.9981 7.35452C12.9981 7.23855 12.9041 7.14453 12.7881 7.14453C12.6721 7.14453 12.5781 7.23855 12.5781 7.35452C12.5781 7.47049 12.6721 7.56451 12.7881 7.56451Z" fill="#1E88E5"/>
<path d="M10.6241 7.56451C10.74 7.56451 10.834 7.47049 10.834 7.35452C10.834 7.23855 10.74 7.14453 10.6241 7.14453C10.5081 7.14453 10.4141 7.23855 10.4141 7.35452C10.4141 7.47049 10.5081 7.56451 10.6241 7.56451Z" fill="#1E88E5"/>
<path d="M8.45999 7.56451C8.57596 7.56451 8.66998 7.47049 8.66998 7.35452C8.66998 7.23855 8.57596 7.14453 8.45999 7.14453C8.34401 7.14453 8.25 7.23855 8.25 7.35452C8.25 7.47049 8.34401 7.56451 8.45999 7.56451Z" fill="#1E88E5"/>
<path d="M6.29593 7.56451C6.4119 7.56451 6.50592 7.47049 6.50592 7.35452C6.50592 7.23855 6.4119 7.14453 6.29593 7.14453C6.17995 7.14453 6.08594 7.23855 6.08594 7.35452C6.08594 7.47049 6.17995 7.56451 6.29593 7.56451Z" fill="#1E88E5"/>
<path d="M4.13186 7.56451C4.24784 7.56451 4.34185 7.47049 4.34185 7.35452C4.34185 7.23855 4.24784 7.14453 4.13186 7.14453C4.01589 7.14453 3.92188 7.23855 3.92188 7.35452C3.92188 7.47049 4.01589 7.56451 4.13186 7.56451Z" fill="#1E88E5"/>
<path d="M18.9577 5.52943H0.96875V2.42626C0.96875 2.00795 1.39714 1.66797 1.9272 1.66797H18.0275C18.5593 1.66797 18.9893 2.00962 18.986 2.43126L18.9577 5.52943Z" fill="#F44336"/>
<path d="M3.01674 3.18393C3.28919 3.18393 3.51005 2.9377 3.51005 2.63396C3.51005 2.33021 3.28919 2.08398 3.01674 2.08398C2.7443 2.08398 2.52344 2.33021 2.52344 2.63396C2.52344 2.9377 2.7443 3.18393 3.01674 3.18393Z" fill="#AF1E1E"/>
<path d="M3.24891 2.17994C3.18058 2.03661 3.13392 1.85829 3.13392 1.66663C3.13392 1.22166 3.36557 0.845009 3.64056 0.845009C3.91554 0.845009 4.1472 1.22166 4.1472 1.66663H4.89383C4.89383 0.755014 4.33219 0.0117188 3.64223 0.0117188C2.95226 0.0117188 2.39062 0.753347 2.39062 1.66663C2.39062 1.99162 2.46229 2.29327 2.58395 2.54992C2.69561 2.78157 2.93393 2.8849 3.14559 2.77324C3.32224 2.67658 3.34557 2.37993 3.24891 2.17994Z" fill="#94D1E0"/>
<path d="M4.89349 1.66605C4.89349 1.10775 4.68183 0.614437 4.36185 0.314453C4.36518 0.324453 4.45685 0.562773 4.32685 0.791095C4.19519 1.02442 3.92188 0.987751 3.92188 0.987751C4.05687 1.13774 4.14686 1.38773 4.14686 1.66605H4.89349Z" fill="#2F7889"/>
<path d="M5.76674 3.18393C6.03919 3.18393 6.26005 2.9377 6.26005 2.63396C6.26005 2.33021 6.03919 2.08398 5.76674 2.08398C5.4943 2.08398 5.27344 2.33021 5.27344 2.63396C5.27344 2.9377 5.4943 3.18393 5.76674 3.18393Z" fill="#AF1E1E"/>
<path d="M5.99891 2.17994C5.93058 2.03661 5.88392 1.85829 5.88392 1.66663C5.88392 1.22166 6.11557 0.845009 6.39056 0.845009C6.66554 0.845009 6.8972 1.22166 6.8972 1.66663H7.64383C7.64383 0.755014 7.08219 0.0117188 6.39223 0.0117188C5.70226 0.0117188 5.14062 0.753347 5.14062 1.66663C5.14062 1.99162 5.21229 2.29327 5.33395 2.54992C5.44561 2.78157 5.68393 2.8849 5.89559 2.77324C6.07224 2.67658 6.09557 2.37993 5.99891 2.17994Z" fill="#94D1E0"/>
<path d="M7.11185 0.314453C7.11518 0.324453 7.20685 0.562774 7.07685 0.791095C6.94519 1.02275 6.67188 0.987751 6.67188 0.987751C6.80687 1.13774 6.89686 1.38773 6.89686 1.66605H7.64516C7.64516 1.10775 7.43183 0.614437 7.11185 0.314453Z" fill="#2F7889"/>
<path d="M8.50893 3.18393C8.78138 3.18393 9.00224 2.9377 9.00224 2.63396C9.00224 2.33021 8.78138 2.08398 8.50893 2.08398C8.23649 2.08398 8.01562 2.33021 8.01562 2.63396C8.01562 2.9377 8.23649 3.18393 8.50893 3.18393Z" fill="#AF1E1E"/>
<path d="M8.7411 2.17994C8.67277 2.03661 8.62611 1.85829 8.62611 1.66663C8.62611 1.22166 8.85776 0.845009 9.13275 0.845009C9.40773 0.845009 9.63939 1.22166 9.63939 1.66663H10.386C10.386 0.755013 9.82438 0.0117188 9.13441 0.0117188C8.44445 0.0117188 7.88281 0.753347 7.88281 1.66663C7.88281 1.99162 7.95448 2.29327 8.07614 2.54992C8.1878 2.78157 8.42612 2.8849 8.63777 2.77324C8.81443 2.67658 8.83776 2.37993 8.7411 2.17994Z" fill="#94D1E0"/>
<path d="M9.85404 0.314453C9.85737 0.324453 9.94903 0.562773 9.81904 0.791095C9.68738 1.02442 9.41406 0.987751 9.41406 0.987751C9.54906 1.13774 9.63905 1.38773 9.63905 1.66605H10.3907C10.3923 1.10775 10.1757 0.614437 9.85404 0.314453Z" fill="#2F7889"/>
<path d="M11.2589 3.18393C11.5314 3.18393 11.7522 2.9377 11.7522 2.63396C11.7522 2.33021 11.5314 2.08398 11.2589 2.08398C10.9865 2.08398 10.7656 2.33021 10.7656 2.63396C10.7656 2.9377 10.9865 3.18393 11.2589 3.18393Z" fill="#AF1E1E"/>
<path d="M11.4911 2.17994C11.4228 2.03661 11.3761 1.85829 11.3761 1.66663C11.3761 1.22166 11.6078 0.845009 11.8827 0.845009C12.1577 0.845009 12.3894 1.22166 12.3894 1.66663H13.136C13.136 0.755013 12.5744 0.0117188 11.8844 0.0117188C11.1944 0.0117188 10.6328 0.753347 10.6328 1.66663C10.6328 1.99162 10.7045 2.29327 10.8261 2.54992C10.9378 2.78157 11.1761 2.8849 11.3878 2.77324C11.5644 2.67658 11.5861 2.37993 11.4911 2.17994Z" fill="#94D1E0"/>
<path d="M12.604 0.314453C12.6074 0.324453 12.699 0.562773 12.569 0.791095C12.4374 1.02442 12.1641 0.987751 12.1641 0.987751C12.2991 1.13774 12.3891 1.38773 12.3891 1.66605H13.1423C13.144 1.10775 12.9257 0.614437 12.604 0.314453Z" fill="#2F7889"/>
<path d="M14.0011 3.18393C14.2736 3.18393 14.4944 2.9377 14.4944 2.63396C14.4944 2.33021 14.2736 2.08398 14.0011 2.08398C13.7287 2.08398 13.5078 2.33021 13.5078 2.63396C13.5078 2.9377 13.7287 3.18393 14.0011 3.18393Z" fill="#AF1E1E"/>
<path d="M14.2333 2.17994C14.165 2.03661 14.1183 1.85829 14.1183 1.66663C14.1183 1.22166 14.3499 0.845009 14.6249 0.845009C14.8999 0.845009 15.1316 1.22166 15.1316 1.66663H15.8782C15.8782 0.755013 15.3166 0.0117188 14.6266 0.0117188C13.9366 0.0117188 13.375 0.753347 13.375 1.66663C13.375 1.99162 13.4467 2.29327 13.5683 2.54992C13.68 2.78157 13.9183 2.8849 14.13 2.77324C14.3066 2.67658 14.3299 2.37993 14.2333 2.17994Z" fill="#94D1E0"/>
<path d="M15.3462 0.314453C15.3496 0.324453 15.4412 0.562773 15.3112 0.791095C15.1796 1.02442 14.9062 0.987751 14.9062 0.987751C15.0412 1.13774 15.1312 1.38773 15.1312 1.66605H15.8879C15.8879 1.10775 15.6662 0.614437 15.3462 0.314453Z" fill="#2F7889"/>
<path d="M16.7511 3.18393C17.0236 3.18393 17.2444 2.9377 17.2444 2.63396C17.2444 2.33021 17.0236 2.08398 16.7511 2.08398C16.4787 2.08398 16.2578 2.33021 16.2578 2.63396C16.2578 2.9377 16.4787 3.18393 16.7511 3.18393Z" fill="#AF1E1E"/>
<path d="M16.9833 2.17994C16.915 2.03661 16.8683 1.85829 16.8683 1.66663C16.8683 1.22166 17.0999 0.845009 17.3749 0.845009C17.6499 0.845009 17.8816 1.22166 17.8816 1.66663H18.6282C18.6282 0.755014 18.0666 0.0117188 17.3766 0.0117188C16.6866 0.0117188 16.125 0.753347 16.125 1.66663C16.125 1.99162 16.1967 2.29327 16.3183 2.54992C16.43 2.78157 16.6683 2.8849 16.88 2.77324C17.0566 2.67658 17.0799 2.37993 16.9833 2.17994Z" fill="#94D1E0"/>
<path d="M18.6395 1.69633C18.6145 1.02637 18.3979 0.596392 18.0962 0.316406C18.0996 0.326406 18.1912 0.564727 18.0612 0.793048C17.9296 1.02637 17.6562 0.989704 17.6562 0.989704C17.7912 1.1397 17.8579 1.38968 17.8579 1.668H18.1129C18.3245 1.66467 18.6395 1.69633 18.6395 1.69633Z" fill="#2F7889"/>
<defs>
<linearGradient id="paint0_linear_803_6436" x1="19.3462" y1="10.7726" x2="19.3462" y2="17.8936" gradientUnits="userSpaceOnUse">
<stop offset="0.3374" stop-color="#616161"/>
<stop offset="1" stop-color="#616161" stop-opacity="0"/>
</linearGradient>
</defs>
</svg>
