<svg width="64" height="65" viewBox="0 0 64 65" fill="none" xmlns="http://www.w3.org/2000/svg">
<path d="M6.58594 19.834V53.1848C6.58594 54.5717 7.87499 55.5007 9.39518 56.5675C10.9643 57.6698 11.831 57.5676 12.5822 57.5676L55.192 57.8432C56.8678 57.8432 57.4278 56.7008 57.4278 55.4696V19.834H6.58594Z" fill="#BDBDBD"/>
<path d="M49.6508 55.8931C48.2373 56.0664 46.8238 56.1375 45.4103 56.262C43.9968 56.3508 42.5833 56.4308 41.1697 56.4797C39.7562 56.5508 38.3427 56.5642 36.9292 56.6042L32.6887 56.6442L28.4482 56.6042C27.0346 56.5642 25.6211 56.5464 24.2076 56.4797C22.7941 56.4308 21.3806 56.3508 19.9671 56.262C18.5536 56.1375 17.1401 56.062 15.7266 55.8931V55.8042L32.6842 55.7598L49.6419 55.8042V55.8931H49.6508Z" fill="#757575"/>
<path opacity="0.29" d="M57.422 55.4651L53.7422 51.6824V19.834L57.422 22.0654V55.4651Z" fill="url(#paint0_linear_782_32534)"/>
<path d="M57.4344 22.3725L54.5634 20.5726L50.0703 10.2754C50.0703 10.2754 50.337 10.2754 52.488 10.2754C56.7766 10.2754 57.4344 12.7508 57.4344 13.5952V22.3725Z" fill="#C62828"/>
<path d="M7.89844 20.2051V52.2669C7.89844 53.467 8.87189 54.436 10.0676 54.436H52.2284C53.4286 54.436 54.5487 53.5426 54.5487 52.3424V50.0133V20.2051H7.89844Z" fill="#FAFAFA"/>
<path d="M22.4325 24.0938V29.4811H10.7422V51.3727H33.9229V45.9187H51.1428V24.0938H22.4325Z" fill="#B3E5FC"/>
<path fill-rule="evenodd" clip-rule="evenodd" d="M11.1866 23.8867V51.5924H10.7422V23.8867H11.1866Z" fill="#1E88E5"/>
<path fill-rule="evenodd" clip-rule="evenodd" d="M16.921 23.8867V51.5924H16.4766V23.8867H16.921Z" fill="#1E88E5"/>
<path fill-rule="evenodd" clip-rule="evenodd" d="M22.6554 23.8867V51.5924H22.2109V23.8867H22.6554Z" fill="#1E88E5"/>
<path fill-rule="evenodd" clip-rule="evenodd" d="M28.3975 23.8867V51.5924H27.9531V23.8867H28.3975Z" fill="#1E88E5"/>
<path fill-rule="evenodd" clip-rule="evenodd" d="M34.1554 23.8867V51.5924H33.7109V23.8867H34.1554Z" fill="#1E88E5"/>
<path fill-rule="evenodd" clip-rule="evenodd" d="M39.8897 23.8867V51.5924H39.4453V23.8867H39.8897Z" fill="#1E88E5"/>
<path fill-rule="evenodd" clip-rule="evenodd" d="M45.6241 23.8867V51.5924H45.1797V23.8867H45.6241Z" fill="#1E88E5"/>
<path fill-rule="evenodd" clip-rule="evenodd" d="M51.3663 23.8867V51.5924H50.9219V23.8867H51.3663Z" fill="#1E88E5"/>
<path fill-rule="evenodd" clip-rule="evenodd" d="M10.7422 51.1445H51.365V51.589H10.7422V51.1445Z" fill="#1E88E5"/>
<path fill-rule="evenodd" clip-rule="evenodd" d="M10.7422 45.6953H51.365V46.1397H10.7422V45.6953Z" fill="#1E88E5"/>
<path fill-rule="evenodd" clip-rule="evenodd" d="M10.7422 40.2441H51.365V40.6886H10.7422V40.2441Z" fill="#1E88E5"/>
<path fill-rule="evenodd" clip-rule="evenodd" d="M10.7422 34.7871H51.365V35.2315H10.7422V34.7871Z" fill="#1E88E5"/>
<path fill-rule="evenodd" clip-rule="evenodd" d="M10.7422 29.3438H51.365V29.7882H10.7422V29.3438Z" fill="#1E88E5"/>
<path fill-rule="evenodd" clip-rule="evenodd" d="M10.7422 23.8867H51.365V24.3311H10.7422V23.8867Z" fill="#1E88E5"/>
<path d="M49.6303 47.8113C49.9395 47.8113 50.1903 47.5606 50.1903 47.2514C50.1903 46.9421 49.9395 46.6914 49.6303 46.6914C49.321 46.6914 49.0703 46.9421 49.0703 47.2514C49.0703 47.5606 49.321 47.8113 49.6303 47.8113Z" fill="#1E88E5"/>
<path d="M43.8725 47.8113C44.1817 47.8113 44.4324 47.5606 44.4324 47.2514C44.4324 46.9421 44.1817 46.6914 43.8725 46.6914C43.5632 46.6914 43.3125 46.9421 43.3125 47.2514C43.3125 47.5606 43.5632 47.8113 43.8725 47.8113Z" fill="#1E88E5"/>
<path d="M38.1147 47.8113C38.4239 47.8113 38.6746 47.5606 38.6746 47.2514C38.6746 46.9421 38.4239 46.6914 38.1147 46.6914C37.8054 46.6914 37.5547 46.9421 37.5547 47.2514C37.5547 47.5606 37.8054 47.8113 38.1147 47.8113Z" fill="#1E88E5"/>
<path d="M32.3256 47.8113C32.6349 47.8113 32.8856 47.5606 32.8856 47.2514C32.8856 46.9421 32.6349 46.6914 32.3256 46.6914C32.0163 46.6914 31.7656 46.9421 31.7656 47.2514C31.7656 47.5606 32.0163 47.8113 32.3256 47.8113Z" fill="#1E88E5"/>
<path d="M26.5678 47.8113C26.877 47.8113 27.1278 47.5606 27.1278 47.2514C27.1278 46.9421 26.877 46.6914 26.5678 46.6914C26.2585 46.6914 26.0078 46.9421 26.0078 47.2514C26.0078 47.5606 26.2585 47.8113 26.5678 47.8113Z" fill="#1E88E5"/>
<path d="M20.7787 47.8113C21.088 47.8113 21.3387 47.5606 21.3387 47.2514C21.3387 46.9421 21.088 46.6914 20.7787 46.6914C20.4695 46.6914 20.2188 46.9421 20.2188 47.2514C20.2188 47.5606 20.4695 47.8113 20.7787 47.8113Z" fill="#1E88E5"/>
<path d="M15.0209 47.8113C15.3302 47.8113 15.5809 47.5606 15.5809 47.2514C15.5809 46.9421 15.3302 46.6914 15.0209 46.6914C14.7116 46.6914 14.4609 46.9421 14.4609 47.2514C14.4609 47.5606 14.7116 47.8113 15.0209 47.8113Z" fill="#1E88E5"/>
<path d="M49.6303 42.3621C49.9395 42.3621 50.1903 42.1114 50.1903 41.8022C50.1903 41.4929 49.9395 41.2422 49.6303 41.2422C49.321 41.2422 49.0703 41.4929 49.0703 41.8022C49.0703 42.1114 49.321 42.3621 49.6303 42.3621Z" fill="#1E88E5"/>
<path d="M43.8725 42.3621C44.1817 42.3621 44.4324 42.1114 44.4324 41.8022C44.4324 41.4929 44.1817 41.2422 43.8725 41.2422C43.5632 41.2422 43.3125 41.4929 43.3125 41.8022C43.3125 42.1114 43.5632 42.3621 43.8725 42.3621Z" fill="#1E88E5"/>
<path d="M38.1147 42.3621C38.4239 42.3621 38.6746 42.1114 38.6746 41.8022C38.6746 41.4929 38.4239 41.2422 38.1147 41.2422C37.8054 41.2422 37.5547 41.4929 37.5547 41.8022C37.5547 42.1114 37.8054 42.3621 38.1147 42.3621Z" fill="#1E88E5"/>
<path d="M32.3256 42.3621C32.6349 42.3621 32.8856 42.1114 32.8856 41.8022C32.8856 41.4929 32.6349 41.2422 32.3256 41.2422C32.0163 41.2422 31.7656 41.4929 31.7656 41.8022C31.7656 42.1114 32.0163 42.3621 32.3256 42.3621Z" fill="#1E88E5"/>
<path d="M26.5678 42.3621C26.877 42.3621 27.1278 42.1114 27.1278 41.8022C27.1278 41.4929 26.877 41.2422 26.5678 41.2422C26.2585 41.2422 26.0078 41.4929 26.0078 41.8022C26.0078 42.1114 26.2585 42.3621 26.5678 42.3621Z" fill="#1E88E5"/>
<path d="M20.7787 42.3621C21.088 42.3621 21.3387 42.1114 21.3387 41.8022C21.3387 41.4929 21.088 41.2422 20.7787 41.2422C20.4695 41.2422 20.2188 41.4929 20.2188 41.8022C20.2188 42.1114 20.4695 42.3621 20.7787 42.3621Z" fill="#1E88E5"/>
<path d="M15.0209 42.3621C15.3302 42.3621 15.5809 42.1114 15.5809 41.8022C15.5809 41.4929 15.3302 41.2422 15.0209 41.2422C14.7116 41.2422 14.4609 41.4929 14.4609 41.8022C14.4609 42.1114 14.7116 42.3621 15.0209 42.3621Z" fill="#1E88E5"/>
<path d="M49.6303 36.911C49.9395 36.911 50.1903 36.6602 50.1903 36.351C50.1903 36.0417 49.9395 35.791 49.6303 35.791C49.321 35.791 49.0703 36.0417 49.0703 36.351C49.0703 36.6602 49.321 36.911 49.6303 36.911Z" fill="#1E88E5"/>
<path d="M43.8725 36.911C44.1817 36.911 44.4324 36.6602 44.4324 36.351C44.4324 36.0417 44.1817 35.791 43.8725 35.791C43.5632 35.791 43.3125 36.0417 43.3125 36.351C43.3125 36.6602 43.5632 36.911 43.8725 36.911Z" fill="#1E88E5"/>
<path d="M38.1147 36.911C38.4239 36.911 38.6746 36.6602 38.6746 36.351C38.6746 36.0417 38.4239 35.791 38.1147 35.791C37.8054 35.791 37.5547 36.0417 37.5547 36.351C37.5547 36.6602 37.8054 36.911 38.1147 36.911Z" fill="#1E88E5"/>
<path d="M32.3256 36.911C32.6349 36.911 32.8856 36.6602 32.8856 36.351C32.8856 36.0417 32.6349 35.791 32.3256 35.791C32.0163 35.791 31.7656 36.0417 31.7656 36.351C31.7656 36.6602 32.0163 36.911 32.3256 36.911Z" fill="#1E88E5"/>
<path d="M26.5678 36.911C26.877 36.911 27.1278 36.6602 27.1278 36.351C27.1278 36.0417 26.877 35.791 26.5678 35.791C26.2585 35.791 26.0078 36.0417 26.0078 36.351C26.0078 36.6602 26.2585 36.911 26.5678 36.911Z" fill="#1E88E5"/>
<path d="M20.7787 36.911C21.088 36.911 21.3387 36.6602 21.3387 36.351C21.3387 36.0417 21.088 35.791 20.7787 35.791C20.4695 35.791 20.2188 36.0417 20.2188 36.351C20.2188 36.6602 20.4695 36.911 20.7787 36.911Z" fill="#1E88E5"/>
<path d="M15.0209 36.911C15.3302 36.911 15.5809 36.6602 15.5809 36.351C15.5809 36.0417 15.3302 35.791 15.0209 35.791C14.7116 35.791 14.4609 36.0417 14.4609 36.351C14.4609 36.6602 14.7116 36.911 15.0209 36.911Z" fill="#1E88E5"/>
<path d="M49.6303 31.4598C49.9395 31.4598 50.1903 31.2091 50.1903 30.8998C50.1903 30.5906 49.9395 30.3398 49.6303 30.3398C49.321 30.3398 49.0703 30.5906 49.0703 30.8998C49.0703 31.2091 49.321 31.4598 49.6303 31.4598Z" fill="#1E88E5"/>
<path d="M43.8725 31.4598C44.1817 31.4598 44.4324 31.2091 44.4324 30.8998C44.4324 30.5906 44.1817 30.3398 43.8725 30.3398C43.5632 30.3398 43.3125 30.5906 43.3125 30.8998C43.3125 31.2091 43.5632 31.4598 43.8725 31.4598Z" fill="#1E88E5"/>
<path d="M38.1147 31.4598C38.4239 31.4598 38.6746 31.2091 38.6746 30.8998C38.6746 30.5906 38.4239 30.3398 38.1147 30.3398C37.8054 30.3398 37.5547 30.5906 37.5547 30.8998C37.5547 31.2091 37.8054 31.4598 38.1147 31.4598Z" fill="#1E88E5"/>
<path d="M32.3256 31.4598C32.6349 31.4598 32.8856 31.2091 32.8856 30.8998C32.8856 30.5906 32.6349 30.3398 32.3256 30.3398C32.0163 30.3398 31.7656 30.5906 31.7656 30.8998C31.7656 31.2091 32.0163 31.4598 32.3256 31.4598Z" fill="#1E88E5"/>
<path d="M26.5678 31.4598C26.877 31.4598 27.1278 31.2091 27.1278 30.8998C27.1278 30.5906 26.877 30.3398 26.5678 30.3398C26.2585 30.3398 26.0078 30.5906 26.0078 30.8998C26.0078 31.2091 26.2585 31.4598 26.5678 31.4598Z" fill="#1E88E5"/>
<path d="M20.7787 31.4598C21.088 31.4598 21.3387 31.2091 21.3387 30.8998C21.3387 30.5906 21.088 30.3398 20.7787 30.3398C20.4695 30.3398 20.2188 30.5906 20.2188 30.8998C20.2188 31.2091 20.4695 31.4598 20.7787 31.4598Z" fill="#1E88E5"/>
<path d="M15.0209 31.4598C15.3302 31.4598 15.5809 31.2091 15.5809 30.8998C15.5809 30.5906 15.3302 30.3398 15.0209 30.3398C14.7116 30.3398 14.4609 30.5906 14.4609 30.8998C14.4609 31.2091 14.7116 31.4598 15.0209 31.4598Z" fill="#1E88E5"/>
<path d="M49.6303 26.0028C49.9395 26.0028 50.1903 25.752 50.1903 25.4428C50.1903 25.1335 49.9395 24.8828 49.6303 24.8828C49.321 24.8828 49.0703 25.1335 49.0703 25.4428C49.0703 25.752 49.321 26.0028 49.6303 26.0028Z" fill="#1E88E5"/>
<path d="M43.8725 26.0028C44.1817 26.0028 44.4324 25.752 44.4324 25.4428C44.4324 25.1335 44.1817 24.8828 43.8725 24.8828C43.5632 24.8828 43.3125 25.1335 43.3125 25.4428C43.3125 25.752 43.5632 26.0028 43.8725 26.0028Z" fill="#1E88E5"/>
<path d="M38.1147 26.0028C38.4239 26.0028 38.6746 25.752 38.6746 25.4428C38.6746 25.1335 38.4239 24.8828 38.1147 24.8828C37.8054 24.8828 37.5547 25.1335 37.5547 25.4428C37.5547 25.752 37.8054 26.0028 38.1147 26.0028Z" fill="#1E88E5"/>
<path d="M32.3256 26.0028C32.6349 26.0028 32.8856 25.752 32.8856 25.4428C32.8856 25.1335 32.6349 24.8828 32.3256 24.8828C32.0163 24.8828 31.7656 25.1335 31.7656 25.4428C31.7656 25.752 32.0163 26.0028 32.3256 26.0028Z" fill="#1E88E5"/>
<path d="M26.5678 26.0028C26.877 26.0028 27.1278 25.752 27.1278 25.4428C27.1278 25.1335 26.877 24.8828 26.5678 24.8828C26.2585 24.8828 26.0078 25.1335 26.0078 25.4428C26.0078 25.752 26.2585 26.0028 26.5678 26.0028Z" fill="#1E88E5"/>
<path d="M20.7787 26.0028C21.088 26.0028 21.3387 25.752 21.3387 25.4428C21.3387 25.1335 21.088 24.8828 20.7787 24.8828C20.4695 24.8828 20.2188 25.1335 20.2188 25.4428C20.2188 25.752 20.4695 26.0028 20.7787 26.0028Z" fill="#1E88E5"/>
<path d="M15.0209 26.0028C15.3302 26.0028 15.5809 25.752 15.5809 25.4428C15.5809 25.1335 15.3302 24.8828 15.0209 24.8828C14.7116 24.8828 14.4609 25.1335 14.4609 25.4428C14.4609 25.752 14.7116 26.0028 15.0209 26.0028Z" fill="#1E88E5"/>
<path d="M54.5564 20.5726H6.58594V12.2975C6.58594 11.182 7.7283 10.2754 9.14181 10.2754H52.0761C53.494 10.2754 54.6408 11.1865 54.6319 12.3108L54.5564 20.5726Z" fill="#F44336"/>
<path d="M12.0655 14.3219C12.792 14.3219 13.381 13.6652 13.381 12.8553C13.381 12.0453 12.792 11.3887 12.0655 11.3887C11.339 11.3887 10.75 12.0453 10.75 12.8553C10.75 13.6652 11.339 14.3219 12.0655 14.3219Z" fill="#AF1E1E"/>
<path d="M12.6716 11.6472C12.4894 11.265 12.3649 10.7894 12.3649 10.2783C12.3649 9.09173 12.9827 8.08734 13.716 8.08734C14.4493 8.08734 15.067 9.09173 15.067 10.2783H17.058C17.058 7.84735 15.5603 5.86523 13.7204 5.86523C11.8805 5.86523 10.3828 7.84291 10.3828 10.2783C10.3828 11.145 10.5739 11.9494 10.8983 12.6338C11.1961 13.2515 11.8316 13.5271 12.396 13.2293C12.8671 12.9715 12.9293 12.1805 12.6716 11.6472Z" fill="#94D1E0"/>
<path d="M17.0597 10.2781C17.0597 8.78927 16.4953 7.47379 15.642 6.67383C15.6509 6.70049 15.8953 7.33602 15.5487 7.94487C15.1976 8.56706 14.4688 8.46929 14.4688 8.46929C14.8287 8.86927 15.0687 9.5359 15.0687 10.2781H17.0597Z" fill="#2F7889"/>
<path d="M19.378 14.3219C20.1045 14.3219 20.6935 13.6652 20.6935 12.8553C20.6935 12.0453 20.1045 11.3887 19.378 11.3887C18.6515 11.3887 18.0625 12.0453 18.0625 12.8553C18.0625 13.6652 18.6515 14.3219 19.378 14.3219Z" fill="#AF1E1E"/>
<path d="M19.9841 11.6472C19.8019 11.265 19.6774 10.7894 19.6774 10.2783C19.6774 9.09173 20.2952 8.08734 21.0285 8.08734C21.7618 8.08734 22.3795 9.09173 22.3795 10.2783H24.3705C24.3705 7.84735 22.8728 5.86523 21.0329 5.86523C19.193 5.86523 17.6953 7.84291 17.6953 10.2783C17.6953 11.145 17.8864 11.9494 18.2108 12.6338C18.5086 13.2515 19.1441 13.5271 19.7085 13.2293C20.1796 12.9715 20.2418 12.1805 19.9841 11.6472Z" fill="#94D1E0"/>
<path d="M22.9545 6.67383C22.9634 6.70049 23.2078 7.33602 22.8612 7.94487C22.5101 8.56262 21.7812 8.46929 21.7812 8.46929C22.1412 8.86927 22.3812 9.5359 22.3812 10.2781H24.3767C24.3767 8.78927 23.8078 7.47379 22.9545 6.67383Z" fill="#2F7889"/>
<path d="M26.7217 14.3219C27.4483 14.3219 28.0372 13.6652 28.0372 12.8553C28.0372 12.0453 27.4483 11.3887 26.7217 11.3887C25.9952 11.3887 25.4062 12.0453 25.4062 12.8553C25.4062 13.6652 25.9952 14.3219 26.7217 14.3219Z" fill="#AF1E1E"/>
<path d="M27.3278 11.6472C27.1456 11.265 27.0212 10.7894 27.0212 10.2783C27.0212 9.09173 27.6389 8.08734 28.3722 8.08734C29.1055 8.08734 29.7233 9.09173 29.7233 10.2783H31.7143C31.7143 7.84735 30.2166 5.86523 28.3767 5.86523C26.5368 5.86523 25.0391 7.84291 25.0391 10.2783C25.0391 11.145 25.2302 11.9494 25.5546 12.6338C25.8524 13.2515 26.4879 13.5271 27.0523 13.2293C27.5234 12.9715 27.5856 12.1805 27.3278 11.6472Z" fill="#94D1E0"/>
<path d="M30.2983 6.67383C30.3072 6.70049 30.5516 7.33602 30.2049 7.94487C29.8539 8.56706 29.125 8.46929 29.125 8.46929C29.485 8.86927 29.725 9.5359 29.725 10.2781H31.7293C31.7338 8.78927 31.156 7.47379 30.2983 6.67383Z" fill="#2F7889"/>
<path d="M34.0342 14.3219C34.7608 14.3219 35.3497 13.6652 35.3497 12.8553C35.3497 12.0453 34.7608 11.3887 34.0342 11.3887C33.3077 11.3887 32.7188 12.0453 32.7188 12.8553C32.7188 13.6652 33.3077 14.3219 34.0342 14.3219Z" fill="#AF1E1E"/>
<path d="M34.6403 11.6472C34.4581 11.265 34.3337 10.7894 34.3337 10.2783C34.3337 9.09173 34.9514 8.08734 35.6847 8.08734C36.418 8.08734 37.0358 9.09173 37.0358 10.2783H39.0268C39.0268 7.84735 37.5291 5.86523 35.6892 5.86523C33.8493 5.86523 32.3516 7.84291 32.3516 10.2783C32.3516 11.145 32.5427 11.9494 32.8671 12.6338C33.1649 13.2515 33.8004 13.5271 34.3648 13.2293C34.8359 12.9715 34.8937 12.1805 34.6403 11.6472Z" fill="#94D1E0"/>
<path d="M37.6108 6.67383C37.6197 6.70049 37.8641 7.33602 37.5174 7.94487C37.1664 8.56706 36.4375 8.46929 36.4375 8.46929C36.7975 8.86927 37.0375 9.5359 37.0375 10.2781H39.0463C39.0507 8.78927 38.4685 7.47379 37.6108 6.67383Z" fill="#2F7889"/>
<path d="M41.3545 14.3219C42.0811 14.3219 42.67 13.6652 42.67 12.8553C42.67 12.0453 42.0811 11.3887 41.3545 11.3887C40.628 11.3887 40.0391 12.0453 40.0391 12.8553C40.0391 13.6652 40.628 14.3219 41.3545 14.3219Z" fill="#AF1E1E"/>
<path d="M41.9606 11.6472C41.7784 11.265 41.654 10.7894 41.654 10.2783C41.654 9.09173 42.2717 8.08734 43.005 8.08734C43.7383 8.08734 44.3561 9.09173 44.3561 10.2783H46.3471C46.3471 7.84735 44.8494 5.86523 43.0095 5.86523C41.1696 5.86523 39.6719 7.84291 39.6719 10.2783C39.6719 11.145 39.863 11.9494 40.1874 12.6338C40.4852 13.2515 41.1207 13.5271 41.6851 13.2293C42.1562 12.9715 42.2184 12.1805 41.9606 11.6472Z" fill="#94D1E0"/>
<path d="M44.9311 6.67383C44.94 6.70049 45.1844 7.33602 44.8378 7.94487C44.4867 8.56706 43.7578 8.46929 43.7578 8.46929C44.1178 8.86927 44.3578 9.5359 44.3578 10.2781H46.3755C46.3755 8.78927 45.7844 7.47379 44.9311 6.67383Z" fill="#2F7889"/>
<path d="M48.6905 14.3219C49.417 14.3219 50.006 13.6652 50.006 12.8553C50.006 12.0453 49.417 11.3887 48.6905 11.3887C47.964 11.3887 47.375 12.0453 47.375 12.8553C47.375 13.6652 47.964 14.3219 48.6905 14.3219Z" fill="#AF1E1E"/>
<path d="M49.2966 11.6472C49.1144 11.265 48.9899 10.7894 48.9899 10.2783C48.9899 9.09173 49.6077 8.08734 50.341 8.08734C51.0743 8.08734 51.692 9.09173 51.692 10.2783H53.683C53.683 7.84735 52.1853 5.86523 50.3454 5.86523C48.5055 5.86523 47.0078 7.84291 47.0078 10.2783C47.0078 11.145 47.1989 11.9494 47.5233 12.6338C47.8211 13.2515 48.4566 13.5271 49.021 13.2293C49.4921 12.9715 49.5543 12.1805 49.2966 11.6472Z" fill="#94D1E0"/>
<path d="M53.7158 10.3595C53.6492 8.57292 53.0714 7.42632 52.267 6.67969C52.2759 6.70635 52.5203 7.34188 52.1737 7.95073C51.8226 8.57292 51.0938 8.47515 51.0938 8.47515C51.4537 8.87513 51.6315 9.54176 51.6315 10.2839H52.3115C52.8759 10.2751 53.7158 10.3595 53.7158 10.3595Z" fill="#2F7889"/>
<defs>
<linearGradient id="paint0_linear_782_32534" x1="55.582" y1="34.5608" x2="55.582" y2="53.5503" gradientUnits="userSpaceOnUse">
<stop offset="0.3374" stop-color="#616161"/>
<stop offset="1" stop-color="#616161" stop-opacity="0"/>
</linearGradient>
</defs>
</svg>
