<svg width="56" height="56" viewBox="0 0 56 56" fill="none" xmlns="http://www.w3.org/2000/svg">
<path d="M11.2191 32.2764C11.0597 32.3309 4.41392 34.3647 4.41392 34.3647C4.41392 34.3647 3.96672 32.2998 4.37504 30.1999C4.80668 27.9756 5.37054 26.6534 5.37054 26.6534C5.37054 26.6534 5.98495 25.1563 7.88652 23.9274C9.48477 22.893 13.1479 21.7964 13.9918 21.2598C14.5517 20.9059 15.4967 20.2682 16.9316 18.6894C18.3665 17.1106 19.502 15.4579 22.0374 14.2835C24.5729 13.1091 25.895 13.2919 28.6482 13.1091C31.4014 12.9264 34.3762 13.0002 36.62 13.1091C38.8638 13.218 40.6215 14.2485 41.2125 14.614C41.7997 14.9796 43.2696 16.2317 44.0396 17.0367C44.8096 17.8455 45.7273 19.0549 46.4273 19.646C47.1233 20.2332 48.2277 20.9332 49.1804 21.4815C50.1371 22.0336 50.7243 22.5081 50.907 22.9864C51.0898 23.4647 51.0859 23.488 51.0859 23.488L50.4287 30.2932L11.2191 32.2764Z" fill="#F92612"/>
<path d="M4.42188 34.361C4.42188 34.361 5.42904 32.5411 7.81281 30.6356C9.8427 29.014 11.6704 28.1118 14.5091 27.6958C17.0095 27.3302 22.0221 27.4469 30.3788 27.4858C38.7356 27.5208 44.6814 27.5324 45.4436 27.4974C46.2058 27.4624 47.2168 26.8091 48.4184 26.0469C49.6162 25.2848 50.0945 26.4047 50.0945 26.4047L51.4399 30.3634C51.4399 30.3634 51.4905 34.9287 51.4049 36.0331C51.3466 36.7642 50.3511 38.0319 49.8417 38.2496C49.3323 38.4674 40.1394 38.6113 37.4174 38.6113C34.6914 38.6113 11.4565 38.5413 9.11552 38.3585C8.02668 38.273 6.57232 37.7052 5.88013 37.013C4.60464 35.7414 4.42188 34.361 4.42188 34.361Z" fill="#D70617"/>
<path d="M10.0398 37.4763C10.0748 39.6229 11.7858 42.7105 15.5112 42.7338C19.2365 42.7571 21.1692 39.9028 21.0525 36.9786C20.932 34.0076 18.6221 31.9077 15.2973 32.001C12.1863 32.0944 9.99313 34.5054 10.0398 37.4763Z" fill="#4E433D"/>
<path d="M12.6411 37.2959C12.6605 38.4275 13.5783 40.0569 15.5809 40.0685C17.5836 40.0802 18.5519 38.6608 18.4897 37.1209C18.4236 35.5538 17.1442 34.3872 15.4643 34.4105C13.7921 34.4377 12.6139 35.7288 12.6411 37.2959Z" fill="#C8C8C8"/>
<path d="M37.532 37.6543C37.567 39.7853 39.2391 42.8496 42.8867 42.8729C46.5343 42.8962 48.4242 40.0653 48.3114 37.1643C48.1948 34.2128 45.9354 32.1323 42.6806 32.2257C39.6358 32.3151 37.4853 34.7067 37.532 37.6543Z" fill="#4E433D"/>
<path d="M39.9847 37.4854C40.0042 38.617 40.9219 40.2463 42.9246 40.258C44.9272 40.2697 45.8955 38.8503 45.8333 37.3104C45.7672 35.7432 44.4878 34.5766 42.8079 34.6C41.1397 34.6272 39.9614 35.9182 39.9847 37.4854Z" fill="#C8C8C8"/>
<path d="M5.96107 26.647C5.96107 26.647 9.06813 26.2581 9.28978 26.4137C9.56588 26.6081 8.34483 28.7119 8.02207 29.1358C7.86263 29.3457 5.125 30.6679 5.125 30.6679L5.13278 28.7663L5.96107 26.647Z" fill="#FFFEFF"/>
<path d="M4.25 31.1317L5.45549 30.5018C5.45549 30.5018 5.66937 29.3002 5.80159 28.7285C6.01546 27.7836 6.54044 26.5664 6.54044 26.5664L5.36217 26.6753C5.36217 26.6753 4.97719 27.3325 4.62332 28.8063C4.24611 30.3968 4.25 31.1317 4.25 31.1317Z" fill="#D5CCC2"/>
<path d="M50.2602 24.1777C50.1474 24.3372 48.1953 25.9471 48.1953 26.196C48.1953 26.4448 50.4196 29.6608 50.4196 29.6608L50.9407 29.9758C50.9407 29.9758 51.1896 25.9004 51.1896 25.811C51.1896 25.7293 50.2602 24.1777 50.2602 24.1777Z" fill="#FFFEFF"/>
<path d="M51.4439 30.9642C51.4439 30.9642 51.6267 28.036 51.6033 26.4533C51.58 24.7306 51.09 23.4668 51.09 23.4668L50.2656 24.1862C50.2656 24.1862 50.5456 25.7106 50.5456 26.71C50.5456 27.7094 50.4328 29.6576 50.4328 29.6576L51.4439 30.9642Z" fill="#D5CCC2"/>
<path d="M15.557 24.342C15.6426 25.1819 16.572 25.1625 19.2279 25.1625C21.3473 25.1625 42.7156 25.3608 43.225 25.1353C43.4739 25.0264 43.8161 24.5636 44.24 23.9492C44.8777 23.0315 45.1732 22.596 45.1149 22.2538C45.0021 21.5849 41.5295 17.2024 39.3558 15.9035C37.8509 15.0052 34.6116 15.0014 31.9323 14.9703C29.5057 14.943 24.9015 14.8847 22.7005 16.2963C19.4224 18.4001 15.4443 23.2415 15.557 24.342Z" fill="#546D81"/>
<path d="M33.4734 16.7601C33.4462 16.8107 33.3956 23.6898 33.4384 23.717C33.664 23.857 42.2774 23.7481 42.3629 23.6353C42.4485 23.5225 43.3779 22.6204 43.3507 22.3948C43.3235 22.1693 40.4186 18.58 38.4237 17.3629C37.5488 16.8223 33.5201 16.6824 33.4734 16.7601Z" fill="#AFE3FB"/>
<path d="M18.427 23.495C18.5981 23.7089 21.9773 23.6467 25.1194 23.635C28.3353 23.6233 31.3607 23.7789 31.4618 23.635C31.5085 23.5689 31.6679 16.7559 31.5357 16.6354C31.4385 16.5459 30.6063 16.6081 29.5486 16.6198C27.7832 16.6393 25.2127 16.9154 23.595 17.8214C20.8146 19.373 18.0887 23.0711 18.427 23.495Z" fill="#AFE3FB"/>
<path d="M17.5998 26.0584C17.8526 26.7273 19.1941 27.0189 20.0574 26.9412C21.3329 26.8245 22.099 26.0818 22.2351 24.5535C22.3945 22.7997 21.5935 21.9948 21.0374 21.8898C20.4463 21.777 17.5765 24.8296 17.5765 24.8296C17.5765 24.8296 17.3898 25.5024 17.5998 26.0584Z" fill="#AF0F21"/>
<path d="M19.4289 25.6868C20.3738 25.5857 21.0505 24.7146 21.3771 24.0185C21.6999 23.3225 21.941 22.2725 21.2138 21.9536C20.3116 21.5609 19.4989 22.0236 18.9428 22.6497C18.4528 23.2019 17.504 24.458 17.574 24.8274C17.644 25.2007 18.1301 25.8268 19.4289 25.6868Z" fill="#F92612"/>
</svg>
