<svg width="56" height="56" viewBox="0 0 56 56" fill="none" xmlns="http://www.w3.org/2000/svg">
<path d="M42.576 19.8673L45.125 17.3184L43.1122 15.3056L40.5633 17.8545L42.576 19.8673Z" fill="#607D8B"/>
<path d="M44.4654 11.9079C44.6287 11.7445 44.8659 11.6862 45.0837 11.7601C45.4647 11.8884 46.1258 12.2579 47.1563 13.2884C48.1868 14.3189 48.5562 14.9799 48.6846 15.361C48.7585 15.5788 48.6962 15.816 48.5368 15.9793L46.4564 18.0598C46.1453 18.3709 45.8108 18.1259 45.5736 17.8887L42.4666 14.7077C42.1555 14.2955 42.1477 14.2255 42.3849 13.9883L44.4654 11.9079Z" fill="#B0BEC5"/>
<path d="M46.2489 18.1906C46.4478 17.9916 45.7141 16.9354 44.6101 15.8313C43.506 14.7273 42.4498 13.9936 42.2508 14.1925C42.0519 14.3915 42.7856 15.4477 43.8896 16.5518C44.9937 17.6558 46.0499 18.3895 46.2489 18.1906Z" fill="#607D8B"/>
<path d="M44.5668 14.6827C44.4307 14.7721 44.1041 14.5777 44.2985 14.2666C44.5435 13.8777 45.2979 13.1817 45.6984 12.8822C45.9084 12.7228 46.2895 12.9794 45.9707 13.345C45.7062 13.6444 44.6991 14.5933 44.5668 14.6827Z" fill="#FBE9E7"/>
<path d="M43.8441 13.995C43.5913 14.2128 42.8836 14.0961 43.2686 13.6684C43.7819 13.0967 44.303 12.6184 44.5985 12.3501C44.9563 12.0312 45.4346 12.389 45.0807 12.7507C44.7541 13.089 44.1435 13.7384 43.8441 13.995Z" fill="#FBE9E7"/>
<path d="M29.6758 14.0646L29.6758 9.77148L26.2887 9.77148L26.2887 14.0646L29.6758 14.0646Z" fill="#607D8B"/>
<path d="M24.5703 5.77236C24.5703 5.50015 24.722 5.24738 24.967 5.12683C25.3908 4.91296 26.2619 4.66797 27.9962 4.66797C29.7306 4.66797 30.6017 4.91296 31.0294 5.12683C31.2744 5.24738 31.4261 5.50015 31.4261 5.77236V9.27606C31.4261 9.80103 30.9361 9.87492 30.5394 9.87492L25.2508 9.8127C24.6403 9.72715 24.5781 9.67271 24.5781 9.27606V5.77236H24.5703Z" fill="#B0BEC5"/>
<path d="M27.9965 10.1586C29.8543 10.1586 31.3602 9.88698 31.3602 9.55195C31.3602 9.21691 29.8543 8.94531 27.9965 8.94531C26.1388 8.94531 24.6328 9.21691 24.6328 9.55195C24.6328 9.88698 26.1388 10.1586 27.9965 10.1586Z" fill="#607D8B"/>
<path d="M26.9949 8.01689C26.956 8.20355 26.5166 8.32021 26.4194 7.89246C26.2988 7.35971 26.3494 6.13866 26.4311 5.55147C26.4738 5.24037 27.0105 5.13538 27.0494 5.71479C27.0805 6.18532 27.0338 7.83024 26.9949 8.01689Z" fill="#FBE9E7"/>
<path d="M25.8018 8.05318C25.7707 8.44982 25.0785 8.94758 25.0435 8.25928C24.9969 7.34933 25.028 6.50548 25.0552 6.03106C25.0863 5.46331 25.7902 5.35832 25.7979 5.96106C25.8018 6.52492 25.8368 7.58265 25.8018 8.05318Z" fill="#FBE9E7"/>
<path d="M29.1076 8.01689C29.1465 8.20355 29.5859 8.32021 29.6831 7.89246C29.8036 7.35971 29.7531 6.13866 29.6714 5.55147C29.6287 5.24037 29.092 5.13538 29.0531 5.71479C29.022 6.18532 29.0687 7.83024 29.1076 8.01689Z" fill="#78909C"/>
<path d="M30.2498 8.05318C30.2809 8.44982 30.9731 8.94758 31.0081 8.25928C31.0547 7.34933 31.0236 6.50548 30.9964 6.03106C30.9653 5.46331 30.2615 5.35832 30.2537 5.96106C30.2498 6.52492 30.2148 7.58265 30.2498 8.05318Z" fill="#607D8B"/>
<path d="M28.0039 51.3398C38.946 51.3398 47.8164 42.4695 47.8164 31.5273C47.8164 20.5852 38.946 11.7148 28.0039 11.7148C17.0618 11.7148 8.19141 20.5852 8.19141 31.5273C8.19141 42.4695 17.0618 51.3398 28.0039 51.3398Z" fill="#B0BEC5"/>
<path d="M28.0013 47.4207C36.7804 47.4207 43.8972 40.3039 43.8972 31.5248C43.8972 22.7457 36.7804 15.6289 28.0013 15.6289C19.2223 15.6289 12.1055 22.7457 12.1055 31.5248C12.1055 40.3039 19.2223 47.4207 28.0013 47.4207Z" fill="#FAFAFA"/>
<path d="M27.9974 19.8699C27.6824 19.8699 27.4258 19.6133 27.4258 19.2983V17.5873C27.4258 17.2723 27.6824 17.0156 27.9974 17.0156C28.3124 17.0156 28.5691 17.2723 28.5691 17.5873V19.2983C28.5691 19.6172 28.3124 19.8699 27.9974 19.8699Z" fill="#B2947C"/>
<path d="M27.9974 46.1551C27.6824 46.1551 27.4258 45.8984 27.4258 45.5834V43.8724C27.4258 43.5574 27.6824 43.3008 27.9974 43.3008C28.3124 43.3008 28.5691 43.5574 28.5691 43.8724V45.5834C28.5691 45.8984 28.3124 46.1551 27.9974 46.1551Z" fill="#B2947C"/>
<path d="M41.9975 32.1589H40.2865C39.9715 32.1589 39.7148 31.9022 39.7148 31.5873C39.7148 31.2723 39.9715 31.0156 40.2865 31.0156H41.9975C42.3125 31.0156 42.5691 31.2723 42.5691 31.5873C42.5691 31.9022 42.3125 32.1589 41.9975 32.1589Z" fill="#B2947C"/>
<path d="M15.7084 32.1589H13.9974C13.6824 32.1589 13.4258 31.9022 13.4258 31.5873C13.4258 31.2723 13.6824 31.0156 13.9974 31.0156H15.7084C16.0234 31.0156 16.2801 31.2723 16.2801 31.5873C16.2801 31.9022 16.0234 32.1589 15.7084 32.1589Z" fill="#B2947C"/>
<path d="M27.9974 19.8699C27.6824 19.8699 27.4258 19.6133 27.4258 19.2983V17.5873C27.4258 17.2723 27.6824 17.0156 27.9974 17.0156C28.3124 17.0156 28.5691 17.2723 28.5691 17.5873V19.2983C28.5691 19.6172 28.3124 19.8699 27.9974 19.8699Z" fill="#B2947C"/>
<path d="M27.9974 46.1551C27.6824 46.1551 27.4258 45.8984 27.4258 45.5834V43.8724C27.4258 43.5574 27.6824 43.3008 27.9974 43.3008C28.3124 43.3008 28.5691 43.5574 28.5691 43.8724V45.5834C28.5691 45.8984 28.3124 46.1551 27.9974 46.1551Z" fill="#B2947C"/>
<path d="M21.3591 21.2297L20.5036 19.7481C20.3441 19.4759 20.4375 19.1259 20.7135 18.9665C20.9858 18.807 21.3357 18.9003 21.4952 19.1764L22.3507 20.658C22.5101 20.9302 22.4168 21.2802 22.1407 21.4397C21.8685 21.5952 21.5185 21.5019 21.3591 21.2297Z" fill="#B2947C"/>
<path d="M34.5067 43.9964L33.6512 42.5148C33.4917 42.2426 33.5889 41.8926 33.8611 41.7332C34.1333 41.5737 34.4833 41.671 34.6428 41.9432L35.4983 43.4248C35.6577 43.697 35.5605 44.047 35.2883 44.2064C35.0122 44.3658 34.6622 44.2725 34.5067 43.9964Z" fill="#B2947C"/>
<path d="M21.3591 21.2297L20.5036 19.7481C20.3441 19.4759 20.4375 19.1259 20.7135 18.9665C20.9858 18.807 21.3357 18.9003 21.4952 19.1764L22.3507 20.658C22.5101 20.9302 22.4168 21.2802 22.1407 21.4397C21.8685 21.5952 21.5185 21.5019 21.3591 21.2297Z" fill="#B2947C"/>
<path d="M34.5067 43.9964L33.6512 42.5148C33.4917 42.2426 33.5889 41.8926 33.8611 41.7332C34.1333 41.5737 34.4833 41.671 34.6428 41.9432L35.4983 43.4248C35.6577 43.697 35.5605 44.047 35.2883 44.2064C35.0122 44.3658 34.6622 44.2725 34.5067 43.9964Z" fill="#B2947C"/>
<path d="M17.0637 25.938L15.5821 25.0824C15.3099 24.923 15.2165 24.5769 15.3721 24.3008C15.5315 24.0286 15.8776 23.9353 16.1537 24.0908L17.6353 24.9463C17.9075 25.1058 18.0008 25.4519 17.8453 25.728C17.6858 26.0041 17.3359 26.0974 17.0637 25.938Z" fill="#B2947C"/>
<path d="M39.8254 39.0825L38.3438 38.227C38.0716 38.0675 37.9782 37.7214 38.1338 37.4453C38.2932 37.1731 38.6393 37.0798 38.9154 37.2354L40.397 38.0909C40.6692 38.2503 40.7625 38.5964 40.607 38.8725C40.4476 39.1447 40.0976 39.238 39.8254 39.0825Z" fill="#B2947C"/>
<path d="M33.8477 21.4429C33.5755 21.2835 33.4822 20.9374 33.6377 20.6613L34.4932 19.1797C34.6527 18.9075 34.9987 18.8142 35.2748 18.9697C35.547 19.1292 35.6404 19.4753 35.4848 19.7514L34.6293 21.233C34.4699 21.5052 34.1199 21.5985 33.8477 21.4429Z" fill="#B2947C"/>
<path d="M20.711 44.2027C20.4388 44.0433 20.3454 43.6972 20.501 43.4211L21.3565 41.9395C21.5159 41.6673 21.862 41.574 22.1381 41.7295C22.4103 41.8889 22.5037 42.235 22.3481 42.5111L21.4926 43.9927C21.3332 44.2688 20.9832 44.3621 20.711 44.2027Z" fill="#B2947C"/>
<path d="M38.1364 25.7297C37.9769 25.4575 38.0703 25.1075 38.3464 24.9481L39.828 24.0926C40.1002 23.9331 40.4501 24.0303 40.6096 24.3025C40.769 24.5748 40.6718 24.9247 40.3996 25.0842L38.918 25.9397C38.6419 26.0952 38.2919 26.0019 38.1364 25.7297Z" fill="#B2947C"/>
<path d="M15.3738 38.8742C15.2144 38.602 15.3116 38.252 15.5838 38.0926L17.0654 37.2371C17.3376 37.0777 17.6876 37.1749 17.847 37.4471C18.0064 37.7193 17.9092 38.0693 17.637 38.2287L16.1554 39.0842C15.8793 39.2398 15.5294 39.1464 15.3738 38.8742Z" fill="#B2947C"/>
<path opacity="0.42" d="M28.0062 28.7488C30.1088 28.7488 31.8133 27.0443 31.8133 24.9418C31.8133 22.8392 30.1088 21.1348 28.0062 21.1348C25.9037 21.1348 24.1992 22.8392 24.1992 24.9418C24.1992 27.0443 25.9037 28.7488 28.0062 28.7488Z" fill="#82AEC0"/>
<path d="M28.5902 18.1329C28.5902 18.1329 28.6563 16.8613 27.9914 16.8613C27.3264 16.8613 27.3925 18.1329 27.3925 18.1329L26.9414 31.58H29.0802L28.5902 18.1329Z" fill="#563428"/>
<path d="M28.0084 33.1652C28.8911 33.1652 29.6067 32.4497 29.6067 31.567C29.6067 30.6843 28.8911 29.9688 28.0084 29.9688C27.1257 29.9688 26.4102 30.6843 26.4102 31.567C26.4102 32.4497 27.1257 33.1652 28.0084 33.1652Z" fill="#563428"/>
<path opacity="0.64" d="M23.3502 15.3254C21.2305 15.9399 18.259 16.8811 15.0853 20.6771C11.9466 24.4304 11.2971 28.7904 11.0987 31.8008C11.0987 31.8008 9.28625 34.0683 9.20068 33.6443C8.51615 30.3578 9.89688 23.0147 13.5062 19.1331C17.7067 14.6136 23.1713 13.0112 25.1432 12.7117C25.4855 12.6611 23.9959 15.1387 23.3502 15.3254Z" fill="#ECEFF1"/>
</svg>
