<svg width="57" height="56" viewBox="0 0 57 56" fill="none" xmlns="http://www.w3.org/2000/svg">
<path d="M24.3675 5.21243C24.3675 5.21243 23.3642 5.09577 22.2404 5.94739C20.8171 7.02844 20.9649 7.53397 20.9649 7.53397C20.9649 7.53397 18.0639 7.91895 14.8169 10.4349C11.5698 12.9509 9.40769 17.5823 8.24887 19.8611C7.09004 22.1399 5.50346 25.2741 5.30902 26.1258C5.11459 26.9774 5.15347 27.5568 5.42568 29.0267C5.69789 30.4966 7.01226 35.097 7.31947 36.4113C7.63057 37.7257 8.4783 39.8528 8.55607 40.3933C8.63385 40.9339 10.2632 41.1166 12.1492 40.7044C13.7358 40.3583 15.2407 39.3901 15.3963 38.8495C15.5518 38.309 14.2763 34.5603 13.658 32.896C13.0397 31.2355 12.6547 29.4156 12.6547 29.4156C12.6547 29.4156 13.5453 27.9457 14.3152 26.5146C15.0852 25.0836 16.7106 22.4937 16.7106 22.4937C16.7106 22.4937 16.8273 24.0414 16.8273 25.7408C16.8273 27.4401 16.2868 29.6061 16.7106 30.7261C17.1345 31.846 17.9084 33.662 17.9084 33.662C17.9084 33.662 17.0567 37.333 16.0146 40.6189C14.9724 43.9048 14.3152 45.7986 14.3152 45.7986C14.3152 45.7986 14.778 46.1836 15.3574 46.4558C15.9368 46.728 16.4384 46.8797 16.4384 46.8797L16.2051 48.1163C16.2051 48.1163 20.3427 50.8617 28.8822 51.0522C37.4257 51.2467 43.6476 48.4235 43.8809 47.7663C44.1142 47.1091 41.291 37.4846 41.0966 36.7497C40.9021 36.0147 40.0544 32.8065 40.0544 32.8065C40.0544 32.8065 41.2521 31.8032 41.3688 29.4039C41.4854 27.0046 41.1743 22.5248 41.4854 22.4471C41.7965 22.3693 44.6936 28.9801 44.6936 28.9801C44.6936 28.9801 44.4603 32.1882 43.7642 34.6225C43.0681 37.0569 42.6832 38.449 42.9126 38.8729C43.1459 39.2967 44.1881 40.1872 46.393 40.6111C48.5978 41.035 50.2194 40.9572 50.4139 40.3C50.6083 39.6428 51.5727 34.0392 51.8449 30.3255C52.1171 26.6119 51.5338 24.6831 50.9544 23.1354C50.375 21.5877 48.3256 18.3795 47.6296 16.4468C46.9335 14.5142 45.658 11.1893 44.6936 10.6488C43.7292 10.1083 41.4854 8.94945 39.6694 8.40504C37.8534 7.86451 36.2279 7.36287 36.2279 7.36287C36.2279 7.36287 35.9091 6.36737 34.2642 5.63629C33.222 5.17354 32.5648 5.36409 32.5648 5.36409L28.6995 6.13793L24.3675 5.21243Z" fill="#C9C9C9"/>
<path d="M14.4013 12.3941C14.4013 12.3941 12.2237 14.2101 10.2871 17.9588C8.35055 21.7075 7.95002 23.7646 7.26172 24.6123C6.57342 25.4601 5.93179 26.4672 6.41399 28.886C6.89619 31.3048 9.15551 39.6538 9.15551 39.6538C9.15551 39.6538 11.0921 39.331 12.0992 39.0082C13.1064 38.6855 14.3158 38.2422 14.238 37.8805C14.1564 37.5189 11.8193 29.3721 11.8193 29.3721C11.8193 29.3721 9.1594 27.9994 9.4005 27.7194C9.6416 27.4355 12.142 27.7583 12.142 27.7583C12.142 27.7583 14.0358 24.6551 14.6036 23.644C15.1674 22.6369 15.6924 21.9914 15.6535 21.5053C15.6146 21.0231 14.483 17.8771 14.8058 17.5544C15.1285 17.2316 17.1856 20.1365 17.6678 20.7003C18.15 21.2642 18.2745 21.548 18.2745 21.548C18.2745 21.548 17.5901 28.886 18.0334 29.4926C18.4767 30.0993 19.1222 30.0565 19.1222 30.0565C19.1222 30.0565 21.9843 26.0628 23.5592 23.4029C25.1341 20.7431 26.0207 18.8882 26.0207 18.8882C26.0207 18.8882 23.4814 15.1939 22.1437 12.4446C21.0277 10.1464 20.7282 8.4043 20.7282 8.4043C20.7282 8.4043 19.235 8.92927 18.1073 9.61368C16.9795 10.2981 16.0501 10.9864 16.0501 10.9864C16.0501 10.9864 17.8662 15.5828 17.2984 16.1078C16.7384 16.6289 14.4013 12.3941 14.4013 12.3941Z" fill="#FEFEFE"/>
<path d="M26.6988 18.2732C26.6988 18.2732 27.8148 16.3406 27.7332 16.0684C27.6515 15.7962 25.1939 12.9458 24.2178 10.9197C22.4757 7.29549 23.2379 6.125 23.2379 6.125C23.2379 6.125 22.7207 6.2611 22.1762 6.9144C21.6318 7.5677 21.4141 8.19378 21.4141 8.19378C21.4141 8.19378 21.7952 10.1809 22.8568 12.3624C24.4356 15.5978 26.6988 18.2732 26.6988 18.2732Z" fill="#FEFEFE"/>
<path d="M32.4215 6.23063C32.4215 6.23063 33.0475 6.01286 33.347 5.98564C33.6464 5.95842 34.4047 6.37451 34.8713 6.77504C35.3419 7.17947 35.7696 7.91832 35.7696 7.91832C35.7696 7.91832 34.7858 11.3092 31.9315 16.664C29.0733 22.0187 26.3551 26.759 25.0252 28.8667C23.6952 30.9743 22.5286 32.4715 22.5286 32.4715C22.5286 32.4715 21.8365 32.7476 21.5837 32.0009C21.3348 31.2504 21.0859 29.8388 21.0859 29.8388L25.414 23.3486L28.77 16.9712L31.7915 10.4537L32.4215 6.23063Z" fill="#FEFEFE"/>
<path d="M36.5476 8.3789C36.7965 8.32445 38.0642 8.6511 39.783 9.31607C41.5018 9.98103 43.0845 10.7588 43.1389 11.1476C43.1933 11.5365 41.5562 16.3079 42.0851 16.5296C42.6139 16.7512 44.5544 12.7031 44.8577 12.7031C45.161 12.7031 45.9932 14.0914 46.4093 15.2541C46.8254 16.4168 46.9926 17.4745 47.3815 18.2212C47.7703 18.9678 50.7646 23.1015 50.8191 28.0401C50.8735 32.9787 49.7108 38.664 49.5708 38.9945C49.4308 39.3289 47.9881 39.5234 46.7398 39.2162C45.4916 38.9128 43.7728 38.4384 43.9089 37.8862C44.0489 37.3301 44.7138 35.2225 45.0444 33.9742C45.3788 32.7259 45.4877 31.2832 45.6277 31.0616C45.7677 30.8399 48.5131 29.7589 48.4586 29.3428C48.4042 28.9267 46.2382 29.0084 45.8532 28.5106C45.4643 28.0129 42.4156 21.5499 42.3845 21.1066C42.3573 20.6632 43.8272 18.4428 43.3839 18.1395C42.9406 17.8362 39.4719 22.1332 39.4174 22.4093C39.363 22.6854 40.028 24.1553 40.0552 26.4029C40.0824 28.6506 40.444 30.175 38.8886 31.0344C37.337 31.8938 34.4788 32.201 32.5384 31.7266C30.5979 31.2521 30.0418 30.4511 30.0418 30.4511C30.0418 30.4511 28.7119 31.1705 26.9075 31.6993C25.1032 32.2282 23.7344 32.341 23.7344 32.341C23.7344 32.341 28.3619 25.7108 31.9356 18.5478C35.5832 11.2487 36.5476 8.3789 36.5476 8.3789Z" fill="#FEFEFE"/>
<path d="M20.0592 38.2523C19.3787 38.365 19.2193 40.3988 18.8615 42.0865C18.531 43.6497 17.6094 47.0368 17.6094 47.0368C17.6094 47.0368 18.6827 47.5384 20.9614 48.0751C23.2402 48.6117 23.2402 48.6117 23.2402 48.6117L25.4529 39.5277C25.4529 39.5277 23.9168 39.1583 22.4702 38.7578C21.3658 38.4545 20.6659 38.1511 20.0592 38.2523Z" fill="#FEFEFE"/>
<path d="M28.9844 40.6876C28.6695 40.6682 27.7362 42.9042 27.2384 45.0935C26.7407 47.2828 26.4062 49.1377 26.4062 49.1377C26.4062 49.1377 27.5417 49.3866 28.65 49.4411C29.7583 49.4955 30.9093 49.2855 30.9093 49.2855C30.9093 49.2855 30.781 46.4429 30.5438 44.8913C30.2949 43.2386 29.4822 40.7148 28.9844 40.6876Z" fill="#FEFEFE"/>
<path d="M33.1406 39.219C33.1406 39.219 34.525 39.1373 36.3838 38.7485C38.2387 38.3596 39.0436 37.753 39.5142 38.1107C39.9847 38.4724 40.5952 41.2956 41.0658 43.1816C41.5363 45.0637 42.0924 46.9497 41.8124 47.2258C41.5363 47.5019 38.4331 48.1941 37.6282 48.443C36.8232 48.6918 34.665 45.2853 34.6378 45.0637C34.6067 44.842 33.1406 39.219 33.1406 39.219Z" fill="#FEFEFE"/>
<path d="M18.3342 35.6504C18.3342 35.7398 17.1871 39.9357 16.8332 41.2812C16.4793 42.6267 15.3594 46.4609 15.3594 46.4609C15.3594 46.4609 15.7482 46.6243 15.9505 46.6904C16.1527 46.7565 16.4443 46.8848 16.4443 46.8848C16.4443 46.8848 17.8715 41.3006 18.1826 40.0874C18.4937 38.8741 18.9097 37.1709 19.0886 36.642C19.2675 36.1131 19.3958 35.6932 19.3958 35.6932L18.3342 35.6504Z" fill="#9A9A9A"/>
<path d="M18.8008 33.1308C18.8008 33.1308 18.8902 32.4036 19.0224 32.1353C19.1547 31.867 23.8561 25.1357 25.7304 21.6903C27.7681 17.9455 28.6664 15.7562 28.6664 15.7562C28.6664 15.7562 26.5976 13.3607 25.4621 11.4708C24.3266 9.58094 23.8755 7.66382 23.965 6.85498C24.0544 6.04613 24.7155 5.26839 24.7155 5.26839C24.7155 5.26839 25.9443 4.81731 28.7597 4.72787C31.6373 4.63843 33.1656 5.41616 33.1656 5.41616C33.1656 5.41616 34.0328 6.96775 32.5978 10.4209C30.6496 15.0951 29.0008 18.3616 26.9359 21.9858C24.871 25.6101 20.1229 33.5275 20.1229 33.5275L18.8008 33.1308Z" fill="#9A9A9A"/>
<path d="M9.11533 39.7186C9.23587 40.1697 10.0525 40.4225 11.9696 39.8819C13.8867 39.3414 14.5478 38.5326 14.4273 38.1437C14.3067 37.7548 13.6768 37.9026 11.6391 38.5326C9.6053 39.1625 8.99867 39.2753 9.11533 39.7186Z" fill="#9A9A9A"/>
<path d="M43.7383 38.235C43.7383 38.7833 44.7882 39.6116 46.4642 39.9732C48.1403 40.3349 49.4896 40.0043 49.5791 39.4638C49.6685 38.9233 48.3814 38.8338 46.8531 38.5033C45.3288 38.1728 43.7383 37.6361 43.7383 38.235Z" fill="#9A9A9A"/>
<path d="M16.8928 32.3675C16.3639 32.5698 16.6167 33.4292 16.5778 34.1758C16.5389 34.9224 16.5778 35.3968 16.8539 35.7507C17.13 36.1046 20.867 37.9128 28.9283 37.835C36.9895 37.7573 40.8238 36.2134 41.0376 35.9529C41.3371 35.5913 41.3332 34.6813 41.3409 33.9152C41.3565 32.8808 41.2165 31.9748 40.676 32.1459C40.3182 32.2587 37.0712 33.5108 33.6064 33.8647C30.1454 34.2186 25.2535 34.0436 22.8308 33.7091C18.5844 33.1142 17.4061 32.1692 16.8928 32.3675Z" fill="#434343"/>
<path d="M30.3172 34.0386C30.3172 34.0386 29.8545 33.4164 29.0728 33.4319C28.4195 33.4436 27.9101 34.0619 27.9101 34.0619C27.9101 34.0619 24.6242 37.3362 23.2359 40.6921C22.186 43.2314 21.2605 46.0974 20.4477 47.7928C19.6389 49.4883 18.8106 50.5966 19.1217 51.176C19.4289 51.7554 22.9404 52.4087 23.5587 51.9848C24.177 51.561 25.1375 46.9062 25.8141 44.5263C26.6657 41.5359 27.5951 39.8133 28.2446 38.88C28.3845 38.6778 28.6684 38.9033 29.1078 39.02C29.2556 39.0589 29.7456 38.7516 29.8156 38.8605C30.2939 39.5994 30.9627 40.8321 31.6938 42.8037C33.1948 46.8634 33.5837 51.7515 33.8909 51.9809C34.1981 52.2143 35.3531 52.2998 36.4302 52.1326C37.4257 51.9809 38.5962 51.631 38.7868 51.246C38.9773 50.861 37.0913 45.8096 35.0459 41.5671C33.0043 37.3284 30.3172 34.0386 30.3172 34.0386Z" fill="#434343"/>
<path d="M26.8391 34.0078L27.9396 34.0272C27.9396 34.0272 26.4113 35.8005 26.5046 36.2943C26.598 36.7882 28.5073 38.5264 29.1373 38.4487C29.7672 38.3709 31.5016 36.5549 31.4627 36.1932C31.4238 35.8316 30.3272 34.035 30.3272 34.035L31.4277 34.0039C31.4277 34.0039 32.6799 35.6216 32.6215 36.3838C32.5632 37.146 30.2417 39.4014 29.1373 39.4403C28.029 39.4792 25.5441 37.4376 25.4741 36.2905C25.4197 35.3416 26.8935 33.9495 26.8391 34.0078Z" fill="#606568"/>
</svg>
