<svg width="57" height="56" viewBox="0 0 57 56" fill="none" xmlns="http://www.w3.org/2000/svg">
<path d="M26.1293 24.1934C26.1293 23.6567 26.0398 23.369 24.4533 23.1162C23.2361 22.9218 7.97302 23.6684 7.05529 23.7267C5.28205 23.8434 4.59375 24.5628 4.6093 25.8694C4.62097 27.0088 5.92757 27.9848 6.23866 28.4554C6.54976 28.9259 6.52643 29.3653 6.14145 29.8592C5.84591 30.2403 4.59375 30.7614 4.59375 32.1963C4.59375 33.9579 5.7448 34.8445 7.05529 34.9611C9.11629 35.14 18.5541 35.3033 20.9807 35.4744C22.1512 35.5561 22.8667 36.0772 24.0372 36.1627C24.5738 36.1627 26.1293 34.8678 26.1293 34.3312C26.1293 33.7984 26.1293 24.73 26.1293 24.1934Z" fill="#92CBEB"/>
<path d="M51.2887 27.3779C51.2887 15.9996 44.398 15.4396 44.398 15.4396C44.4018 15.3307 44.7596 8.71219 38.1761 7.28504C32.8175 6.12233 29.3993 8.27666 27.6883 10.2132C24.4801 8.5372 19.872 9.04273 17.7527 12.5581C16.6366 14.413 16.7766 17.2595 17.5116 19.2933C18.2504 21.3426 19.7165 22.6103 21.167 24.2319C25.3473 28.9139 23.8618 30.6988 21.6997 33.5998C20.362 35.3925 17.4066 40.7588 21.9486 45.7286C25.1451 49.2245 32.168 47.2685 32.168 47.2685C32.6852 47.424 37.2933 50.9977 42.4147 47.6068C47.8822 43.9864 45.7473 37.1968 45.7473 37.1968C45.7473 37.1968 51.2887 34.4475 51.2887 27.3779Z" fill="#D5EBF5"/>
<path d="M30.7218 36.8358C31.029 36.7463 31.0446 36.3186 30.7374 36.2175C29.3763 35.7742 26.9187 34.732 25.4643 32.6554C24.0527 30.6411 23.2011 25.8464 26.1215 23.6842C30.4146 20.4994 29.7263 16.8829 28.6453 15.5413C27.5176 14.1414 24.4999 14.4136 24.5466 16.8596C24.5544 17.3107 24.6866 17.754 24.8771 18.1623C25.3749 19.2356 26.1487 20.8455 25.0716 21.8993C24.5583 22.401 23.8077 22.5526 23.1039 22.4165C21.4395 22.0938 20.1757 20.795 19.5108 19.2861C17.5897 14.9192 19.2191 12.2865 21.5095 10.0077C21.6301 9.8872 21.5056 9.6811 21.3423 9.73554C18.4764 10.6727 17.0609 13.0098 16.9481 15.623C16.8664 17.544 17.2514 19.4728 18.2703 21.1022C19.0558 22.3582 20.3779 23.4393 21.2568 24.6292C21.9412 25.5547 23.3217 26.698 23.1039 27.9696C22.8939 29.1984 21.9645 30.2833 21.2257 31.2244C19.1219 33.9037 18.0369 37.528 18.9002 40.8217C20.4985 46.9191 25.2466 47.6735 26.8176 47.7552C26.942 47.763 26.9848 47.5841 26.872 47.5413C25.2699 46.9347 24.3249 46.3086 23.9477 46.0014C20.9846 43.571 20.2885 39.3595 21.6767 35.7781C21.7779 35.5136 21.9412 35.2725 22.1667 35.0975C23.1389 34.3431 23.8583 35.7858 25.4954 36.5986C27.3892 37.5357 29.5124 37.1819 30.7218 36.8358Z" fill="#92CBEB"/>
<path d="M43.7052 16.9643C44.8912 15.8055 44.2846 11.7224 42.5503 9.82079C42.0603 9.28415 41.1659 9.69635 41.232 10.4196C41.337 11.6329 41.5431 13.4023 40.8353 15.2261C40.427 16.2799 40.7926 17.186 41.4692 17.4971C41.7997 17.6487 42.7369 17.9131 43.7052 16.9643Z" fill="#92CBEB"/>
<path d="M50.9714 29.7468C51.1386 29.0196 51.2319 28.339 51.2747 27.7207C51.2941 27.4252 50.8819 27.3435 50.7925 27.6235C50.287 29.2412 49.1865 31.3567 46.7988 32.6244C46.0172 33.0405 45.1539 33.2893 44.3606 33.6821C43.3379 34.1915 41.9535 34.6815 41.9769 36.0464C42.0119 37.9247 44.9867 38.0763 47.2344 36.2331C49.2526 34.5726 50.4464 32.0255 50.9714 29.7468Z" fill="#61BFE8"/>
<path d="M43.3192 46.9624C43.537 46.7913 43.3503 46.4569 43.0898 46.5463C40.6593 47.3629 37.8751 47.1335 35.6352 45.8697C35.1491 45.5936 33.9319 44.707 32.6603 44.6097C31.8554 44.5475 31.136 45.1736 31.1904 45.9786C31.2254 46.523 31.5443 47.0207 31.9487 47.3863C33.0375 48.3701 34.6786 48.7862 36.1018 48.9534C37.8789 49.1634 39.7688 48.8717 41.4332 48.1173C42.1993 47.7712 42.8331 47.3474 43.3192 46.9624Z" fill="#61BFE8"/>
<path d="M10.7049 19.9383C12.132 19.3589 13.4581 18.4217 14.2358 17.0918C15.0135 15.7657 15.1613 14.0119 14.368 12.6937C13.5747 11.3754 11.7548 10.691 10.3782 11.3793C9.35552 11.8926 9.07553 12.8686 9.58106 14.0236C9.99326 14.9646 10.7127 15.128 10.5727 16.3529C10.3938 17.9317 8.44168 19.285 7.51617 19.6738C6.73065 20.0005 5.36184 20.9921 7.06897 20.8716C8.27057 20.7938 9.59273 20.3894 10.7049 19.9383Z" fill="#92CBEB"/>
<path d="M14.8864 42.3718C15.2753 43.3556 15.8275 45.8988 13.5487 46.2177C11.721 46.4743 10.6633 44.4756 10.2511 42.714C9.6989 40.3574 7.66123 39.1325 6.72795 38.2537C6.5374 38.0748 6.65018 37.7559 6.91461 37.7365C8.60229 37.6081 13.0509 37.7442 14.8864 42.3718Z" fill="#61BFE8"/>
<path d="M30.8483 9.11009C30.335 9.52618 29.8256 10.0978 29.3668 10.5722C29.2034 10.7394 28.4257 11.7661 27.6752 11.1166C27.3135 10.8017 27.6635 10.0356 27.7802 9.82172C28.2313 8.99731 29.6195 7.49628 32.5127 6.88187C33.4693 6.67966 36.2381 6.72243 36.2381 6.99853C36.2381 7.37184 33.0143 7.34074 30.8483 9.11009Z" fill="#92CBEB"/>
<path d="M16.9333 26.541H4.76562C4.94839 26.9765 5.26727 27.3732 5.57058 27.7076H16.9333C17.2561 27.7076 17.5166 27.4471 17.5166 27.1243C17.5166 26.8016 17.2561 26.541 16.9333 26.541Z" fill="#039BE5"/>
<path d="M20.316 29.9863H6.00955C5.62068 30.3324 4.84294 30.6513 4.66406 31.6079H20.316C20.8527 31.6079 21.2882 31.1685 21.2882 30.6318C21.2882 30.0952 20.8527 29.9863 20.316 29.9863Z" fill="#039BE5"/>
</svg>
