<svg width="25" height="24" viewBox="0 0 25 24" fill="none" xmlns="http://www.w3.org/2000/svg">
<path d="M16.0893 21.6132C14.6511 21.6015 12.4929 21.5449 10.3696 21.3448C8.90805 21.2065 7.39813 20.9881 6.25153 20.338C5.92821 20.1547 5.5749 20.1097 5.26158 20.0713C5.12825 20.0547 5.00326 20.0397 4.8966 20.0147C4.08331 19.823 3.515 19.1196 3.51167 18.3045L3.5 12.8454C3.49834 12.0903 4.03664 11.4586 4.7816 11.3419C4.79494 11.3402 4.8066 11.3369 4.81993 11.3336C4.9116 11.3036 7.10148 10.5902 8.7514 9.29999C9.52802 8.69325 10.193 7.75813 10.5313 6.79968C10.868 5.84456 10.8663 4.80276 10.8646 3.96599C10.8646 3.42592 10.863 2.75417 11.0096 2.65583C11.3663 2.4208 11.7596 2.30078 12.1779 2.30078C13.4645 2.30078 14.7777 3.47593 14.8294 4.67274C14.8661 5.50285 14.5878 6.48297 14.3194 7.42976C14.0028 8.55156 13.7278 9.52002 13.9761 10.1784C14.0128 10.2768 14.1061 10.3401 14.2094 10.3401C14.2128 10.3401 15.4244 10.2984 15.4244 10.2984H15.436C16.796 10.2984 17.9026 11.4053 17.9043 12.7638L17.9126 19.7996C17.9126 20.2847 17.7259 20.7398 17.3826 21.0815C17.041 21.4232 16.586 21.6132 16.101 21.6132H16.0893Z" fill="url(#paint0_radial_803_8422)"/>
<path d="M12.1779 2.55084C13.3211 2.55084 14.5327 3.62765 14.5794 4.68278C14.6144 5.47288 14.3428 6.433 14.0794 7.36144C13.7495 8.52492 13.4661 9.53005 13.7428 10.2651C13.8161 10.4602 14.0028 10.5885 14.2111 10.5885H14.2294L15.4294 10.5468H15.4394C16.661 10.5468 17.6559 11.5403 17.6576 12.7638L17.6659 19.7997C17.6659 20.2164 17.5043 20.6098 17.2093 20.9048C16.9143 21.1998 16.5226 21.3632 16.1043 21.3632H16.091C14.6577 21.3515 12.5062 21.2949 10.393 21.0965C8.9597 20.9615 7.47978 20.7481 6.37484 20.1214C6.00819 19.913 5.61155 19.8647 5.29323 19.8247C5.16657 19.8097 5.04824 19.7947 4.95491 19.7713C4.25495 19.6063 3.76498 19.0029 3.76331 18.3045L3.74998 12.8455C3.74831 12.2154 4.19829 11.687 4.81992 11.5903C4.84492 11.587 4.87159 11.5803 4.89492 11.572C4.98825 11.542 7.21813 10.8135 8.90304 9.49671C9.71466 8.86163 10.4113 7.88484 10.7646 6.88305C11.1163 5.88793 11.1146 4.82279 11.1129 3.96602C11.1129 3.5593 11.1113 3.00923 11.1813 2.84255C11.4879 2.64752 11.8229 2.55084 12.1779 2.55084ZM12.1779 2.05078C11.7362 2.05078 11.2896 2.1708 10.8713 2.4475C10.3313 2.80421 10.9163 4.95114 10.2946 6.7147C9.92132 7.77316 9.20969 8.62327 8.59639 9.10166C6.96314 10.3785 4.74326 11.0952 4.74326 11.0952C3.88164 11.2303 3.24834 11.9737 3.25 12.8471L3.26334 18.3061C3.26667 19.2463 3.92497 20.0414 4.83992 20.2581C5.2099 20.3447 5.71487 20.3214 6.12819 20.5564C7.23313 21.1832 8.64972 21.4332 10.3463 21.5932C12.4462 21.7916 14.5794 21.8499 16.0877 21.8633H16.1043C17.2426 21.8633 18.1676 20.9398 18.1659 19.7997L18.1576 12.7638C18.1559 11.2619 16.9376 10.0484 15.4394 10.0484H15.4194L14.2128 10.0901C13.7961 8.98331 15.161 6.493 15.081 4.66111C15.0227 3.35928 13.6345 2.05078 12.1779 2.05078Z" fill="#EDA600"/>
<path d="M12.8507 11.7489C13.164 12.5824 13.1673 13.8825 12.8507 14.6859C12.3923 15.8461 11.2707 16.8612 9.97581 17.0396C9.65916 17.0829 9.84748 17.3746 10.1625 17.3313C11.5641 17.1379 13.4606 16.5695 13.9539 15.311C15.3072 11.8523 13.7239 10.0404 13.0173 10.5804C12.6773 10.8438 12.674 11.2772 12.8507 11.7489Z" fill="#EDA600"/>
<path d="M16.2125 12.9853C14.8193 12.9853 13.1443 12.727 13.0727 11.4921C13.0527 11.1387 13.1593 10.8421 13.3993 10.5871C14.031 9.91714 15.5825 9.54883 17.7691 9.54883C18.5624 9.54883 19.1407 9.60049 19.1474 9.60049C19.154 9.60049 19.1624 9.60216 19.169 9.60216H19.184C19.2074 9.60049 19.229 9.60049 19.2524 9.60049C19.9606 9.60049 20.5523 10.2388 20.6006 11.0537C20.6506 11.897 20.0956 12.617 19.364 12.6587C19.3523 12.6587 19.339 12.6603 19.3273 12.6637C19.3123 12.6653 17.7691 12.9853 16.2125 12.9853Z" fill="url(#paint1_radial_803_8422)"/>
<path d="M17.7713 9.7988C18.5512 9.7988 19.1212 9.8488 19.1262 9.8488C19.1412 9.85047 19.1562 9.85047 19.1712 9.85047C19.1812 9.85047 19.1912 9.85047 19.1995 9.8488C19.2179 9.84713 19.2362 9.84713 19.2529 9.84713C19.8278 9.84713 20.3111 10.3821 20.3511 11.0637C20.3711 11.4171 20.2711 11.752 20.0695 12.0087C19.8812 12.2487 19.6245 12.3887 19.3495 12.4053C19.3245 12.407 19.2995 12.4103 19.2762 12.4153C19.2612 12.4187 17.7396 12.7336 16.213 12.7336C15.3264 12.7336 14.6231 12.6303 14.1248 12.427C13.4398 12.147 13.3382 11.7504 13.3232 11.477C13.3065 11.1921 13.3898 10.9637 13.5832 10.7571C14.1581 10.1488 15.6847 9.7988 17.7713 9.7988ZM17.7713 9.29883C15.868 9.29883 12.7115 9.58715 12.8232 11.507C12.9049 12.8936 14.5781 13.2353 16.213 13.2353C17.8146 13.2353 19.3795 12.907 19.3795 12.907C20.2495 12.8553 20.9094 12.0187 20.8511 11.0371C20.7961 10.0871 20.0895 9.34883 19.2545 9.34883C19.2262 9.34883 19.1995 9.34883 19.1712 9.35049C19.1712 9.35049 18.5862 9.29883 17.7713 9.29883Z" fill="#EDA600"/>
<path d="M17.2582 16.1579C15.44 16.1579 13.2734 15.8529 13.2734 14.3963C13.2734 12.9397 15.44 12.6348 17.2582 12.6348C18.7998 12.6348 20.2047 12.8598 20.2181 12.8614C20.2314 12.8631 20.2447 12.8648 20.2581 12.8648C20.993 12.8648 21.5047 13.6414 21.5047 14.338C21.5047 15.073 20.9597 15.9263 20.2581 15.9263C20.2447 15.9263 20.2314 15.9279 20.2181 15.9296C20.2031 15.9329 18.7981 16.1579 17.2582 16.1579Z" fill="url(#paint2_radial_803_8422)"/>
<path d="M17.2582 12.8867C18.7781 12.8867 20.1647 13.1083 20.1781 13.11C20.2047 13.115 20.2314 13.1167 20.2581 13.1167C20.828 13.1167 21.2547 13.7633 21.2547 14.3399C21.2547 14.9416 20.7947 15.6782 20.2581 15.6782C20.2314 15.6782 20.2047 15.6799 20.1781 15.6849C20.1647 15.6865 18.7765 15.9082 17.2582 15.9082C16.1199 15.9082 15.215 15.7882 14.5667 15.5499C13.6317 15.2066 13.5234 14.7266 13.5234 14.3966C13.5234 14.065 13.6317 13.5867 14.5667 13.2433C15.2133 13.0067 16.1199 12.8867 17.2582 12.8867ZM17.2582 12.3867C15.27 12.3867 13.0234 12.7517 13.0234 14.3983C13.0234 16.0449 15.2683 16.4098 17.2582 16.4098C18.8398 16.4098 20.2581 16.1799 20.2581 16.1799C21.118 16.1799 21.7546 15.1949 21.7546 14.3416C21.7546 13.4883 21.118 12.6184 20.2581 12.6184C20.2581 12.6167 18.8381 12.3867 17.2582 12.3867Z" fill="#EDA600"/>
<path d="M18.6426 21.6999C17.941 21.6999 14.3862 21.6449 13.3096 20.5666C13.1212 20.3783 13.0312 20.1749 13.0312 19.945C13.0346 19.07 14.5328 18.5684 17.141 18.5684C18.071 18.5684 18.7909 18.635 18.7993 18.635C18.8059 18.635 18.8143 18.6367 18.8209 18.6367C19.2109 18.6384 19.5792 18.7967 19.8542 19.085C20.1325 19.375 20.2842 19.7616 20.2842 20.1716C20.2809 21.0132 19.6226 21.6965 18.8159 21.6965C18.8043 21.6999 18.746 21.6999 18.6426 21.6999Z" fill="url(#paint3_radial_803_8422)"/>
<path d="M17.141 18.8183C18.056 18.8183 18.7676 18.8833 18.7743 18.885C18.7893 18.8867 18.8043 18.8867 18.8193 18.8867C19.1409 18.8883 19.4442 19.02 19.6726 19.2583C19.9059 19.5016 20.0342 19.8266 20.0325 20.1716C20.0309 20.8749 19.4842 21.4482 18.8093 21.4482H18.8076H18.7976C18.7943 21.4482 18.7376 21.4499 18.6393 21.4499C15.6144 21.4499 13.9712 20.8782 13.4829 20.3899C13.2979 20.2049 13.2779 20.0483 13.2779 19.9466C13.2829 19.25 14.7612 18.8183 17.141 18.8183ZM17.141 18.3184C15.3545 18.3184 12.7846 18.5583 12.7813 19.9433C12.7746 21.8532 17.6643 21.9482 18.641 21.9482C18.7493 21.9482 18.8093 21.9465 18.8093 21.9465H18.8143C19.7609 21.9465 20.5292 21.1532 20.5325 20.1716C20.5359 19.1883 19.7692 18.3884 18.8209 18.385C18.8209 18.3867 18.0926 18.3184 17.141 18.3184Z" fill="#EDA600"/>
<path d="M18.0205 19.0519C16.5222 19.0519 13.0391 18.8819 13.0391 17.307C13.0391 15.9838 15.5506 15.7871 17.0489 15.7871C18.3738 15.7871 19.5154 15.9338 19.5271 15.9354C19.5371 15.9371 19.5487 15.9371 19.5587 15.9371C20.2537 15.9371 21.0636 16.2804 21.0636 17.2487C21.0636 18.1653 20.347 18.9986 19.5587 18.9986H19.5387C19.5321 19.0003 18.8904 19.0519 18.0205 19.0519Z" fill="url(#paint4_radial_803_8422)"/>
<path d="M17.0488 15.5391V16.039C18.3538 16.039 19.4837 16.184 19.4937 16.1857C19.5154 16.189 19.537 16.189 19.5587 16.189C20.1653 16.189 20.8136 16.4673 20.8136 17.2506C20.8136 18.0223 20.2037 18.7506 19.5587 18.7506C19.5454 18.7506 19.532 18.7506 19.517 18.7522C19.5104 18.7522 18.8787 18.8039 18.0188 18.8039C17.1105 18.8039 15.8122 18.7456 14.784 18.4722C13.7923 18.2073 13.289 17.8156 13.289 17.3106C13.289 17.1556 13.289 16.684 14.3456 16.3524C15.0039 16.1457 15.9122 16.0407 17.0472 16.0407L17.0488 15.5391ZM17.0488 15.5391C15.1223 15.5391 12.7891 15.8424 12.7891 17.309C12.7891 19.0372 16.0222 19.3039 18.0205 19.3039C18.9137 19.3039 19.5587 19.2505 19.5587 19.2505C20.4987 19.2505 21.3136 18.2789 21.3136 17.2506C21.3136 16.2224 20.4987 15.6891 19.5587 15.6891C19.5587 15.6891 18.4038 15.5391 17.0488 15.5391Z" fill="#EDA600"/>
<path d="M6.46755 20.4838L5.66925 17.334L5.33594 20.1672L6.46755 20.4838Z" fill="#EDA600"/>
<defs>
<radialGradient id="paint0_radial_803_8422" cx="0" cy="0" r="1" gradientUnits="userSpaceOnUse" gradientTransform="translate(10.4645 6.5665) rotate(90.1249) scale(14.5083 11.4204)">
<stop offset="0.6" stop-color="#FFCA28"/>
<stop offset="1" stop-color="#FFB300"/>
</radialGradient>
<radialGradient id="paint1_radial_803_8422" cx="0" cy="0" r="1" gradientUnits="userSpaceOnUse" gradientTransform="translate(18.9911 11.1216) rotate(176.727) scale(4.71169 2.30551)">
<stop offset="0.5993" stop-color="#FFCA28"/>
<stop offset="1" stop-color="#FFB300"/>
</radialGradient>
<radialGradient id="paint2_radial_803_8422" cx="0" cy="0" r="1" gradientUnits="userSpaceOnUse" gradientTransform="translate(19.736 14.3525) rotate(-179.936) scale(5.30276 2.12649)">
<stop offset="0.5993" stop-color="#FFCA28"/>
<stop offset="1" stop-color="#FFB300"/>
</radialGradient>
<radialGradient id="paint3_radial_803_8422" cx="0" cy="0" r="1" gradientUnits="userSpaceOnUse" gradientTransform="translate(18.7015 20.101) rotate(-179.726) scale(4.4533 2.3185)">
<stop offset="0.5993" stop-color="#FFCA28"/>
<stop offset="1" stop-color="#FFB300"/>
</radialGradient>
<radialGradient id="paint4_radial_803_8422" cx="0" cy="0" r="1" gradientUnits="userSpaceOnUse" gradientTransform="translate(19.3365 17.3798) rotate(-179.934) scale(5.07372 2.11038)">
<stop offset="0.5993" stop-color="#FFCA28"/>
<stop offset="1" stop-color="#FFB300"/>
</radialGradient>
</defs>
</svg>
