<svg width="65" height="64" viewBox="0 0 65 64" fill="none" xmlns="http://www.w3.org/2000/svg">
<path d="M41.9036 57.6306C38.0683 57.5995 32.313 57.4484 26.6511 56.915C22.7535 56.5461 18.7271 55.9638 15.6694 54.2302C14.8073 53.7413 13.8651 53.6212 13.0296 53.519C12.674 53.4746 12.3407 53.4346 12.0563 53.3679C9.88752 52.8567 8.37204 50.9809 8.36315 48.8073L8.33204 34.2499C8.3276 32.2363 9.76308 30.5517 11.7496 30.2405C11.7852 30.2361 11.8163 30.2272 11.8519 30.2183C12.0963 30.1383 17.936 28.2358 22.3358 24.7954C24.4068 23.1774 26.18 20.6838 27.0822 18.1279C27.9799 15.5809 27.9755 12.8028 27.971 10.5714C27.971 9.13123 27.9666 7.3399 28.3577 7.07764C29.3087 6.4509 30.3576 6.13086 31.4731 6.13086C34.904 6.13086 38.406 9.26459 38.5438 12.4561C38.6416 14.6697 37.8994 17.2834 37.1839 19.8081C36.3395 22.7996 35.6062 25.3822 36.2684 27.1379C36.3661 27.4002 36.615 27.5691 36.8906 27.5691C36.8994 27.5691 40.1304 27.458 40.1304 27.458H40.1615C43.788 27.458 46.7389 30.4095 46.7434 34.0321L46.7656 52.7945C46.7656 54.088 46.2678 55.3015 45.3523 56.2127C44.4413 57.1239 43.228 57.6306 41.9347 57.6306H41.9036Z" fill="url(#paint0_radial_782_37205)"/>
<path d="M31.4717 6.80225C34.5204 6.80225 37.7514 9.67372 37.8758 12.4874C37.9692 14.5943 37.2447 17.1547 36.5426 19.6305C35.6626 22.7331 34.9071 25.4135 35.6448 27.3737C35.8404 27.8938 36.3381 28.236 36.8937 28.236H36.9425L40.1424 28.1249H40.169C43.4266 28.1249 46.0798 30.7741 46.0843 34.0368L46.1065 52.7991C46.1065 53.9104 45.6754 54.9594 44.8888 55.7461C44.1022 56.5329 43.0578 56.9685 41.9423 56.9685H41.9067C38.0847 56.9374 32.3472 56.7863 26.712 56.2573C22.8899 55.8973 18.9435 55.3283 15.997 53.657C15.0192 53.1014 13.9615 52.9725 13.1127 52.8658C12.7749 52.8258 12.4594 52.7858 12.2105 52.7235C10.3439 52.2835 9.03733 50.6744 9.03289 48.8119L8.99733 34.2546C8.99289 32.5744 10.1928 31.1653 11.8505 30.9075C11.9172 30.8986 11.9883 30.8808 12.0505 30.8586C12.2994 30.7786 18.2457 28.8361 22.7388 25.3246C24.9032 23.631 26.7608 21.0262 27.703 18.3548C28.6408 15.7011 28.6363 12.8608 28.6319 10.5761C28.6319 9.49147 28.6274 8.02463 28.8141 7.58013C29.6318 7.06006 30.5251 6.80225 31.4717 6.80225ZM31.4717 5.46875C30.294 5.46875 29.1029 5.78879 27.9875 6.52666C26.5475 7.47789 28.1074 13.2031 26.4498 17.9059C25.4543 20.7284 23.5566 22.9954 21.9211 24.2711C17.5658 27.676 11.6461 29.5873 11.6461 29.5873C9.34843 29.9474 7.65963 31.9298 7.66407 34.259L7.69963 48.8164C7.70851 51.3234 9.46398 53.4436 11.9038 54.0215C12.8905 54.2526 14.2371 54.1904 15.3392 54.8171C18.2857 56.4885 22.0633 57.1552 26.5875 57.5819C32.1872 58.1109 37.8758 58.2665 41.8978 58.302H41.9423C44.9777 58.302 47.4442 55.8395 47.4398 52.7991L47.4175 34.0368C47.4131 30.0318 44.1644 26.7959 40.169 26.7959H40.1157L36.8981 26.907C35.787 23.9555 39.4269 17.3147 39.2135 12.4296C39.058 8.95808 35.356 5.46875 31.4717 5.46875Z" fill="#EDA600"/>
<path d="M33.2775 31.3298C34.113 33.5523 34.1219 37.0194 33.2775 39.1619C32.0554 42.2556 29.0644 44.9626 25.6113 45.4382C24.7669 45.5538 25.2691 46.3317 26.109 46.2161C29.8466 45.7005 34.9041 44.1847 36.2196 40.8287C39.8283 31.6054 35.6063 26.7737 33.722 28.2138C32.8153 28.9161 32.8065 30.0718 33.2775 31.3298Z" fill="#EDA600"/>
<path d="M42.2308 34.6249C38.5154 34.6249 34.049 33.936 33.8579 30.6429C33.8045 29.7007 34.089 28.9096 34.7289 28.2297C36.4133 26.4431 40.5509 25.4609 46.3817 25.4609C48.4971 25.4609 50.0392 25.5987 50.057 25.5987C50.0748 25.5987 50.097 25.6032 50.1148 25.6032H50.1548C50.217 25.5987 50.2748 25.5987 50.337 25.5987C52.2258 25.5987 53.8035 27.3008 53.9324 29.4741C54.0657 31.7228 52.5858 33.6427 50.6348 33.7538C50.6037 33.7538 50.5681 33.7583 50.537 33.7672C50.497 33.7716 46.3817 34.6249 42.2308 34.6249Z" fill="url(#paint1_radial_782_37205)"/>
<path d="M46.3861 26.1301C48.466 26.1301 49.986 26.2635 49.9993 26.2635C50.0393 26.2679 50.0793 26.2679 50.1193 26.2679C50.146 26.2679 50.1726 26.2679 50.1948 26.2635C50.2437 26.259 50.2926 26.259 50.3371 26.259C51.8703 26.259 53.1591 27.6856 53.2658 29.5033C53.3191 30.4455 53.0525 31.3388 52.5147 32.0232C52.0125 32.6631 51.3281 33.0364 50.5948 33.0809C50.5282 33.0853 50.4615 33.0942 50.3993 33.1075C50.3593 33.1164 46.3017 33.9564 42.2308 33.9564C39.8665 33.9564 37.991 33.6809 36.6622 33.1387C34.8356 32.392 34.5645 31.3343 34.5245 30.6055C34.4801 29.8455 34.7023 29.2366 35.2178 28.6856C36.7511 27.0634 40.822 26.1301 46.3861 26.1301ZM46.3861 24.7969C41.3109 24.7969 32.8935 25.5657 33.1913 30.6855C33.4091 34.383 37.871 35.2941 42.2308 35.2941C46.5017 35.2941 50.6748 34.4186 50.6748 34.4186C52.9947 34.2808 54.7546 32.0498 54.5991 29.4322C54.4524 26.899 52.568 24.9302 50.3415 24.9302C50.2659 24.9302 50.1948 24.9302 50.1193 24.9346C50.1193 24.9346 48.5594 24.7969 46.3861 24.7969Z" fill="#EDA600"/>
<path d="M45.0245 43.0884C40.1759 43.0884 34.3984 42.2751 34.3984 38.3909C34.3984 34.5066 40.1759 33.6934 45.0245 33.6934C49.1354 33.6934 52.8819 34.2933 52.9175 34.2978C52.953 34.3022 52.9886 34.3067 53.0241 34.3067C54.984 34.3067 56.3484 36.3777 56.3484 38.2353C56.3484 40.1952 54.8951 42.4707 53.0241 42.4707C52.9886 42.4707 52.953 42.4751 52.9175 42.4796C52.8775 42.4885 49.131 43.0884 45.0245 43.0884Z" fill="url(#paint2_radial_782_37205)"/>
<path d="M45.0232 34.3645C49.0763 34.3645 52.7739 34.9556 52.8095 34.96C52.8806 34.9734 52.9517 34.9778 53.0228 34.9778C54.5427 34.9778 55.6804 36.7022 55.6804 38.2399C55.6804 39.8442 54.4538 41.8086 53.0228 41.8086C52.9517 41.8086 52.8806 41.813 52.8095 41.8263C52.7739 41.8308 49.0719 42.4219 45.0232 42.4219C41.9878 42.4219 39.5746 42.1019 37.8458 41.4664C35.3526 40.5509 35.0637 39.2709 35.0637 38.391C35.0637 37.5066 35.3526 36.2311 37.8458 35.3156C39.5702 34.6845 41.9878 34.3645 45.0232 34.3645ZM45.0232 33.0312C39.7213 33.0312 33.7305 34.0045 33.7305 38.3954C33.7305 42.7863 39.7168 43.7596 45.0232 43.7596C49.2408 43.7596 53.0228 43.1463 53.0228 43.1463C55.316 43.1463 57.0137 40.5197 57.0137 38.2443C57.0137 35.9689 55.316 33.649 53.0228 33.649C53.0228 33.6446 49.2363 33.0312 45.0232 33.0312Z" fill="#EDA600"/>
<path d="M48.7215 57.8663C46.8505 57.8663 37.371 57.7196 34.5 54.8442C33.9978 54.342 33.7578 53.7998 33.7578 53.1865C33.7667 50.8533 37.762 49.5156 44.7172 49.5156C47.1971 49.5156 49.117 49.6934 49.1392 49.6934C49.157 49.6934 49.1792 49.6978 49.197 49.6978C50.2369 49.7023 51.2191 50.1245 51.9524 50.8933C52.6946 51.6666 53.099 52.6977 53.099 53.791C53.0901 56.0353 51.3347 57.8574 49.1837 57.8574C49.1526 57.8663 48.997 57.8663 48.7215 57.8663Z" fill="url(#paint3_radial_782_37205)"/>
<path d="M44.712 50.1809C47.1519 50.1809 49.0496 50.3542 49.0673 50.3587C49.1073 50.3631 49.1473 50.3631 49.1873 50.3631C50.0451 50.3676 50.8539 50.7187 51.4628 51.3542C52.085 52.003 52.4272 52.8697 52.4227 53.7896C52.4183 55.6651 50.9606 57.1939 49.1607 57.1939H49.1562H49.1296C49.1207 57.1939 48.9696 57.1983 48.7074 57.1983C40.6411 57.1983 36.2591 55.674 34.957 54.3718C34.4637 53.8785 34.4103 53.4607 34.4103 53.1896C34.4237 51.332 38.3657 50.1809 44.712 50.1809ZM44.712 48.8477C39.9478 48.8477 33.0948 49.4876 33.086 53.1808C33.0682 58.2738 46.1075 58.5271 48.7118 58.5271C49.0007 58.5271 49.1607 58.5227 49.1607 58.5227H49.174C51.6983 58.5227 53.7471 56.4073 53.756 53.7896C53.7649 51.1675 51.7205 49.0343 49.1918 49.0254C49.1918 49.0299 47.2497 48.8477 44.712 48.8477Z" fill="#EDA600"/>
<path d="M47.0533 50.8097C43.0579 50.8097 33.7695 50.3564 33.7695 46.1566C33.7695 42.6279 40.467 42.1035 44.4623 42.1035C47.9955 42.1035 51.0397 42.4946 51.0708 42.4991C51.0975 42.5035 51.1286 42.5035 51.1553 42.5035C53.0085 42.5035 55.1684 43.419 55.1684 46.0011C55.1684 48.4454 53.2574 50.6675 51.1553 50.6675H51.102C51.0842 50.672 49.3732 50.8097 47.0533 50.8097Z" fill="url(#paint4_radial_782_37205)"/>
<path d="M44.461 41.4414V42.7747C47.9408 42.7747 50.954 43.1613 50.9806 43.1658C51.0384 43.1747 51.0962 43.1746 51.1539 43.1746C52.7716 43.1746 54.5004 43.9168 54.5004 46.0056C54.5004 48.0633 52.8739 50.0054 51.1539 50.0054C51.1184 50.0054 51.0828 50.0054 51.0428 50.0098C51.0251 50.0098 49.3407 50.1476 47.0475 50.1476C44.6254 50.1476 41.1634 49.9921 38.4213 49.2632C35.777 48.5566 34.4348 47.5122 34.4348 46.1656C34.4348 45.7523 34.4348 44.4946 37.2525 43.6102C39.0079 43.0591 41.43 42.7791 44.4565 42.7791L44.461 41.4414ZM44.461 41.4414C39.3235 41.4414 33.1016 42.2503 33.1016 46.1612C33.1016 50.7698 41.7233 51.4809 47.0519 51.4809C49.434 51.4809 51.1539 51.3387 51.1539 51.3387C53.6605 51.3387 55.8337 48.7477 55.8337 46.0056C55.8337 43.2635 53.6605 41.8414 51.1539 41.8414C51.1539 41.8414 48.0741 41.4414 44.461 41.4414Z" fill="#EDA600"/>
<path d="M16.2364 54.6222L14.1076 46.2227L13.2188 53.7778L16.2364 54.6222Z" fill="#EDA600"/>
<defs>
<radialGradient id="paint0_radial_782_37205" cx="0" cy="0" r="1" gradientUnits="userSpaceOnUse" gradientTransform="translate(26.904 17.5061) rotate(90.1249) scale(38.6889 30.4544)">
<stop offset="0.6" stop-color="#FFCA28"/>
<stop offset="1" stop-color="#FFB300"/>
</radialGradient>
<radialGradient id="paint1_radial_782_37205" cx="0" cy="0" r="1" gradientUnits="userSpaceOnUse" gradientTransform="translate(49.6403 29.655) rotate(176.727) scale(12.5645 6.14801)">
<stop offset="0.5993" stop-color="#FFCA28"/>
<stop offset="1" stop-color="#FFB300"/>
</radialGradient>
<radialGradient id="paint2_radial_782_37205" cx="0" cy="0" r="1" gradientUnits="userSpaceOnUse" gradientTransform="translate(51.6319 38.2739) rotate(-179.936) scale(14.1407 5.67063)">
<stop offset="0.5993" stop-color="#FFCA28"/>
<stop offset="1" stop-color="#FFB300"/>
</radialGradient>
<radialGradient id="paint3_radial_782_37205" cx="0" cy="0" r="1" gradientUnits="userSpaceOnUse" gradientTransform="translate(48.8784 53.6025) rotate(-179.726) scale(11.8755 6.18267)">
<stop offset="0.5993" stop-color="#FFCA28"/>
<stop offset="1" stop-color="#FFB300"/>
</radialGradient>
<radialGradient id="paint4_radial_782_37205" cx="0" cy="0" r="1" gradientUnits="userSpaceOnUse" gradientTransform="translate(50.5626 46.3507) rotate(-179.934) scale(13.5299 5.62769)">
<stop offset="0.5993" stop-color="#FFCA28"/>
<stop offset="1" stop-color="#FFB300"/>
</radialGradient>
</defs>
</svg>
