<svg width="57" height="56" viewBox="0 0 57 56" fill="none" xmlns="http://www.w3.org/2000/svg">
<path d="M5.33594 21.7581L12.1334 11.4492L17.3986 17.465L5.33594 21.7581Z" fill="#E1F5FE"/>
<path d="M20.9323 29.6598L5.33594 21.758L17.4008 17.4648L20.9323 29.6598Z" fill="#81D4FA"/>
<path d="M28.6328 19.8603L17.3906 17.4648L20.9216 29.6598L28.6328 19.8603Z" fill="#64B5F6"/>
<path d="M51.9611 21.7581L45.1637 11.4492L39.8984 17.465L51.9611 21.7581Z" fill="#0288D1"/>
<path d="M36.3516 29.6598L51.948 21.758L39.8831 17.4648L36.3516 29.6598Z" fill="#81D4FA"/>
<path d="M28.6484 19.8603L39.8906 17.4648L36.3597 29.6598L28.6484 19.8603Z" fill="#E1F5FE"/>
<path d="M36.36 29.6589L28.6488 19.8594L20.9375 29.6589H36.36Z" fill="#B2EBF2"/>
<path d="M20.5067 7.02539H36.7954L45.1614 11.4468L39.8952 17.4626L28.651 19.8581L17.4068 17.4626L12.1406 11.4468L20.5067 7.02539Z" fill="#B3E5FC"/>
<path d="M28.645 48.7248L5.33594 21.7598L20.9323 29.663L28.645 48.7248Z" fill="#1E88E5"/>
<path d="M28.6484 48.7248L51.9575 21.7598L36.3611 29.663L28.6484 48.7248Z" fill="#B3E5FC"/>
<path d="M36.36 29.6602L28.6488 48.722L20.9375 29.6602H36.36Z" fill="#E1F5FE"/>
</svg>
