<svg width="23" height="23" viewBox="0 0 23 23" fill="none" xmlns="http://www.w3.org/2000/svg">
<path d="M17.0755 14.1114C16.8758 13.7489 17.1298 13.3799 17.5642 12.9232C18.2525 12.1981 19.0016 10.5163 18.3053 8.80894C18.31 8.79936 18.1679 8.51187 18.1727 8.50229L17.8868 8.48792C17.7958 8.47514 14.651 8.46875 11.503 8.46875C8.35508 8.46875 5.21032 8.47514 5.11928 8.48792C5.11928 8.48792 4.69604 8.79936 4.69923 8.80894C4.00448 10.5163 4.75194 12.1965 5.44031 12.9232C5.87313 13.3799 6.12708 13.7489 5.92903 14.1114C5.73578 14.4644 5.16081 14.5155 5.16081 14.5155C5.16081 14.5155 5.29337 14.8765 5.6128 15.0713C5.90827 15.2518 6.27242 15.2933 6.52317 15.2997C6.52317 15.2997 7.50541 16.6589 10.0736 16.6589H11.503H12.9325C15.5007 16.6589 16.4829 15.2997 16.4829 15.2997C16.7337 15.2933 17.0978 15.2518 17.3933 15.0713C17.7127 14.8765 17.8453 14.5155 17.8453 14.5155C17.8453 14.5155 17.2687 14.4644 17.0755 14.1114Z" fill="#543930"/>
<path d="M11.5 16.6577V15.15L16.063 14.7891L16.4783 15.3001C16.4783 15.3001 15.496 16.6593 12.9278 16.6593L11.5 16.6577Z" fill="url(#paint0_radial_845_11655)"/>
<path d="M16.4662 14.6411C15.7826 13.6029 17.2983 13.2148 17.2983 13.2148L17.2999 13.2164C17.0363 13.5439 16.9166 13.8297 17.0715 14.1124C17.2647 14.4654 17.8397 14.5165 17.8397 14.5165C17.8397 14.5165 17.0571 15.2129 16.4662 14.6411Z" fill="url(#paint1_radial_845_11655)"/>
<path d="M18.3086 8.80814C18.9874 10.4612 18.2735 12.1637 17.6043 12.8824C17.5132 12.9815 17.1235 13.3632 17.0341 13.6682C17.0341 13.6682 15.5104 11.5424 15.0553 10.2935C14.9642 10.0411 14.8796 9.7824 14.8684 9.51408C14.8604 9.31284 14.8907 9.07327 15.0073 8.90237C15.1495 8.69315 18.2272 8.63086 18.2272 8.63086C18.2272 8.63405 18.3086 8.80814 18.3086 8.80814Z" fill="url(#paint2_radial_845_11655)"/>
<path d="M4.69615 8.80814C4.01736 10.4612 4.73128 12.1637 5.40048 12.8824C5.49312 12.9815 5.88122 13.3632 5.97066 13.6682C5.97066 13.6682 7.49433 11.5424 7.94952 10.2935C8.04215 10.0411 8.1252 9.7824 8.13638 9.51408C8.14437 9.31284 8.11402 9.07327 7.99743 8.90237C7.85528 8.69315 7.68918 8.74905 7.44801 8.74905C6.98804 8.74905 4.97405 8.63086 4.81753 8.63086C4.81753 8.63405 4.69615 8.80814 4.69615 8.80814Z" fill="url(#paint3_radial_845_11655)"/>
<path d="M11.5017 16.6574V15.1497L6.93869 14.7871L6.52344 15.2982C6.52344 15.2982 7.50568 16.6574 10.0739 16.6574H11.5017Z" fill="url(#paint4_radial_845_11655)"/>
<path d="M6.5376 14.6411C7.22118 13.6029 5.70549 13.2148 5.70549 13.2148L5.7039 13.2164C5.96742 13.5439 6.08721 13.8297 5.93229 14.1124C5.73903 14.4654 5.16406 14.5165 5.16406 14.5165C5.16406 14.5165 5.94666 15.2129 6.5376 14.6411Z" fill="url(#paint5_radial_845_11655)"/>
<path d="M19.6699 21.0851C19.6284 19.9208 18.6845 18.3747 17.4627 17.7327C15.8575 16.8878 13.8004 16.6131 11.4958 16.6131C10.0743 16.6131 8.94353 17.0315 7.60672 16.6115C6.89759 16.3879 6.40727 16.0222 6.17409 15.305L5.96327 14.6582L2.10938 15.6165C2.10938 15.6165 2.91114 19.1126 3.31841 21.0851H19.6699Z" fill="url(#paint6_linear_845_11655)"/>
<path d="M11.4971 15.666H10.0469V17.26C10.0469 17.9803 10.6378 18.5648 11.3661 18.5648H11.6296C12.3579 18.5648 12.9489 17.9803 12.9489 17.26V15.666H11.4971Z" fill="#E59600"/>
<path d="M15.8624 9.33008H7.13241C6.1917 9.33008 5.42188 10.151 5.42188 11.1524C5.42188 12.1538 6.1917 12.9747 7.13241 12.9747H15.8608C16.8015 12.9747 17.5713 12.1538 17.5713 11.1524C17.5713 10.151 16.8031 9.33008 15.8624 9.33008Z" fill="#E59600"/>
<path d="M11.502 3.04492C8.72302 3.04492 6.14844 6.01719 6.14844 10.2959C6.14844 14.5507 8.80128 16.6541 11.502 16.6541C14.2028 16.6541 16.8556 14.5491 16.8556 10.2943C16.8556 6.01719 14.2811 3.04492 11.502 3.04492Z" fill="#FFCA28"/>
<path d="M8.87333 11.4826C9.30819 11.4826 9.66072 11.1179 9.66072 10.6681C9.66072 10.2182 9.30819 9.85352 8.87333 9.85352C8.43846 9.85352 8.08594 10.2182 8.08594 10.6681C8.08594 11.1179 8.43846 11.4826 8.87333 11.4826Z" fill="#404040"/>
<path d="M14.1233 11.4826C14.5582 11.4826 14.9107 11.1179 14.9107 10.6681C14.9107 10.2182 14.5582 9.85352 14.1233 9.85352C13.6885 9.85352 13.3359 10.2182 13.3359 10.6681C13.3359 11.1179 13.6885 11.4826 14.1233 11.4826Z" fill="#404040"/>
<path d="M10.0641 9.23464C9.91552 9.0382 9.57374 8.75391 8.90933 8.75391C8.24492 8.75391 7.90153 9.03979 7.7546 9.23464C7.68911 9.32089 7.70508 9.42151 7.7514 9.4822C7.79293 9.5381 7.9175 9.59081 8.05486 9.54449C8.19221 9.49817 8.46053 9.35922 8.90933 9.35603C9.35812 9.35922 9.62644 9.49817 9.76379 9.54449C9.90115 9.59081 10.0257 9.5397 10.0673 9.4822C10.112 9.42151 10.1279 9.32089 10.0641 9.23464Z" fill="#6D4C41"/>
<path d="M15.2516 9.23464C15.103 9.0382 14.7612 8.75391 14.0968 8.75391C13.4324 8.75391 13.089 9.03979 12.9421 9.23464C12.8766 9.32089 12.8926 9.42151 12.9389 9.4822C12.9804 9.5381 13.105 9.59081 13.2424 9.54449C13.3797 9.49817 13.648 9.35922 14.0968 9.35603C14.5456 9.35922 14.8139 9.49817 14.9513 9.54449C15.0886 9.59081 15.2132 9.5397 15.2548 9.4822C15.3011 9.42151 15.317 9.32089 15.2516 9.23464Z" fill="#6D4C41"/>
<path d="M12.8462 13.4384C12.3383 13.7403 10.6693 13.7403 10.1614 13.4384C9.86911 13.2643 9.57044 13.5311 9.69182 13.7962C9.81161 14.0565 10.7204 14.6618 11.5078 14.6618C12.2952 14.6618 13.1927 14.0565 13.3125 13.7962C13.4323 13.5311 13.1384 13.2643 12.8462 13.4384Z" fill="#795548"/>
<path d="M12.1184 12.1456C12.1008 12.1392 12.0848 12.1344 12.0673 12.1328H10.9365C10.9189 12.1344 10.9014 12.1392 10.8854 12.1456C10.7832 12.1871 10.7273 12.2925 10.7752 12.4059C10.8231 12.5193 11.0483 12.8356 11.5019 12.8356C11.9555 12.8356 12.1807 12.5177 12.2286 12.4059C12.2765 12.2925 12.2206 12.1871 12.1184 12.1456Z" fill="#E59600"/>
<path d="M18.0196 5.38634C17.6395 4.79699 16.7802 4.0096 15.996 3.9569C15.8826 3.20465 15.0873 2.56739 14.3095 2.32143C12.2092 1.65383 10.8213 2.40129 10.0755 2.80376C9.92053 2.88682 8.91912 3.43623 8.23235 3.04174C7.80272 2.79578 7.82189 2.12818 7.82189 2.12818C7.82189 2.12818 6.45155 2.64565 6.89236 4.08786C6.42439 4.10703 5.8079 4.30348 5.4709 4.9599C5.07002 5.7393 5.19779 6.39253 5.3032 6.70557C4.89434 7.04576 4.37527 7.77246 4.70747 8.71317C4.95662 9.4223 5.99476 9.74812 5.99476 9.74812C5.89894 11.0242 6.12413 11.81 6.24551 12.1279C6.26628 12.1838 6.34613 12.179 6.36211 12.1215C6.52981 11.489 7.10797 9.28654 7.06006 8.90163C7.06006 8.90163 8.8776 8.54388 10.6281 7.27415C10.9842 7.01541 11.3691 6.79501 11.778 6.6337C13.9629 5.77125 14.3925 7.24221 14.3925 7.24221C14.3925 7.24221 15.9018 6.95313 16.3203 9.03899C16.4768 9.81999 16.5726 11.0705 16.6541 11.9458C16.6605 12.0081 16.7435 12.0208 16.7691 11.9633C16.9272 11.6168 17.2418 10.9268 17.3265 10.2257C17.3568 9.9781 18.0292 9.65229 18.3343 8.59019C18.7431 7.17193 18.2943 5.81117 18.0196 5.38634Z" fill="#543930"/>
<path d="M17.3242 10.2285C17.3545 9.9809 18.0269 9.65509 18.332 8.59299C18.3639 8.47959 18.3927 8.3646 18.4182 8.24961C18.6738 6.96072 18.2745 5.77724 18.0222 5.38594C17.6708 4.84132 16.9089 4.1274 16.1791 3.98206C16.1152 3.97407 16.0529 3.96608 15.9938 3.96289C15.9938 3.96289 16.0401 4.30468 15.8964 4.57779C15.7111 4.93076 15.3438 5.0154 15.3438 5.0154C17.2236 6.92398 17.0607 8.52112 17.3242 10.2285Z" fill="url(#paint7_radial_845_11655)"/>
<path d="M10.5422 2.56173C10.3665 2.64638 10.21 2.72943 10.0759 2.8029C9.92094 2.88595 8.91953 3.43536 8.23276 3.04087C7.80952 2.79811 7.8207 2.15127 7.8223 2.12891C7.62106 2.37806 6.99658 4.16526 8.73266 4.28344C9.48172 4.33455 9.95448 3.68292 10.2372 3.13031C10.3378 2.93227 10.4991 2.63999 10.5422 2.56173Z" fill="url(#paint8_radial_845_11655)"/>
<path d="M14.0917 2.25554C15.256 2.57177 15.815 3.16431 15.9923 3.95809C16.0434 4.19127 16.0738 6.36178 11.9643 3.8942C10.4359 2.97745 10.8671 2.40248 11.0492 2.33699C11.7583 2.08305 12.7869 1.90257 14.0917 2.25554Z" fill="url(#paint9_radial_845_11655)"/>
<path d="M7.81705 2.13015C7.81545 2.13174 7.81226 2.13174 7.80747 2.13334C7.80747 2.13334 7.80747 2.13334 7.80587 2.13334C7.65574 2.19563 6.47865 2.73546 6.89231 4.08664L8.13169 4.28628C7.05042 3.17308 7.82184 2.12695 7.82184 2.12695C7.82184 2.12695 7.82024 2.13015 7.81705 2.13015Z" fill="url(#paint10_radial_845_11655)"/>
<path d="M7.65604 4.20892L6.89101 4.08594C6.86066 4.08594 6.75845 4.09552 6.70255 4.10351C6.26813 4.1642 5.75544 4.3862 5.46956 4.95797C5.16291 5.57287 5.16131 6.10152 5.23637 6.45289C5.25714 6.57108 5.30345 6.70365 5.30345 6.70365C5.30345 6.70365 5.68996 6.34429 6.59554 6.32033L7.65604 4.20892Z" fill="url(#paint11_radial_845_11655)"/>
<path d="M5.26918 6.73592C4.88427 7.07132 4.362 7.81878 4.72296 8.74512C4.99447 9.44467 5.99907 9.74812 5.99907 9.74812C5.99907 9.75132 6.20031 9.81041 6.30412 9.81041L6.59959 6.32227C6.11566 6.32227 5.6493 6.4676 5.34424 6.67523C5.34424 6.68002 5.26598 6.72954 5.26918 6.73592Z" fill="url(#paint12_radial_845_11655)"/>
<path d="M8.36242 6.29657C7.99507 6.30136 7.29872 6.85876 7.02082 7.21652C6.56723 7.79788 6.24621 9.0101 4.75129 8.54374C4.48457 8.46229 3.41927 8.28341 3.2356 8.1764C3.11103 8.10453 2.78042 7.51518 2.98964 6.30934C3.0679 5.85097 3.25477 4.74255 3.25477 4.74255L3.5183 3.00646C3.55184 2.71419 3.75467 2.52573 4.03098 2.5944C4.25298 2.6503 4.31527 2.84995 4.2993 3.11028L4.23701 4.15481V4.16119C4.23701 4.20751 4.27055 4.24904 4.31846 4.25862C4.37117 4.2682 4.42228 4.23466 4.43346 4.18196C4.51012 3.83218 4.77524 2.61676 4.83434 2.40115C4.90461 2.1488 5.03717 1.94756 5.31987 2.00985C5.60256 2.07054 5.64728 2.36442 5.59937 2.596C5.55305 2.82599 5.25119 4.42792 5.25119 4.42792C5.24001 4.48382 5.27036 4.53652 5.32306 4.5493C5.32306 4.5493 5.32306 4.5493 5.32466 4.5493C5.37417 4.56048 5.42528 4.52694 5.43965 4.47423L6.09767 2.31011C6.17593 2.02582 6.4187 1.85173 6.67903 1.96833C6.88666 2.06256 6.93298 2.30213 6.86749 2.5401L6.31009 4.74894C6.3037 4.7745 6.31648 4.80165 6.34044 4.80963H6.34204C6.3644 4.81602 6.38995 4.80324 6.39794 4.77929L7.14859 2.96654C7.23803 2.73815 7.43608 2.57843 7.65648 2.63593C7.93758 2.7062 8.02063 2.99209 7.91522 3.2652C7.91522 3.2652 7.1981 5.22489 6.97131 5.82861C6.96811 5.83979 6.96332 5.85097 6.96013 5.86055C6.95853 5.86374 6.95693 5.86534 6.95693 5.86694C6.93777 5.91964 6.96332 5.97075 7.00645 5.99151C7.01922 5.9979 7.0336 6.0011 7.04797 6.0011C7.06394 6.0011 7.07991 5.99631 7.09589 5.98992C7.11026 5.98193 7.12463 5.97554 7.13741 5.96596C7.1422 5.96277 7.14699 5.95957 7.15179 5.95638C7.37858 5.81583 7.59419 5.50758 7.94556 5.46126C8.32888 5.41016 8.57643 5.5539 8.65789 5.72C8.72816 5.85895 8.73136 6.29018 8.36242 6.29657Z" fill="url(#paint13_linear_845_11655)"/>
<path d="M5.93257 14.5414C5.85591 14.2315 5.82716 13.9121 5.84633 13.5943L5.94694 8.93384C5.95493 8.80607 5.88785 8.69108 5.78244 8.63358C5.74411 8.60963 5.70099 8.59206 5.65467 8.58567L3.10404 7.99473C2.93953 7.97397 2.78621 8.08257 2.75107 8.24388C2.75107 8.24388 2.09145 13.1822 2.04354 13.5751C1.99563 13.968 1.87424 14.4424 2.00201 15.0413L2.11701 15.6083L6.23603 15.4981L5.93257 14.5414Z" fill="url(#paint14_linear_845_11655)"/>
<path d="M7.00296 5.99209C6.50466 6.01445 6.00635 6.07354 5.57353 6.29554C5.35632 6.40894 5.16466 6.56546 5.00175 6.75232C4.87079 6.90086 4.76537 7.06856 4.66955 7.24903C4.66635 7.25702 4.65837 7.26181 4.65198 7.26181C4.6408 7.26181 4.63441 7.25382 4.63281 7.24424V7.24264C4.63281 7.23785 4.77655 6.84176 4.89474 6.66927C5.04328 6.44887 5.2509 6.2652 5.48728 6.13423C5.72206 6.00327 5.9792 5.91862 6.23953 5.87549C6.4823 5.83237 6.72666 5.81959 6.96783 5.82918C6.96463 5.84036 6.95984 5.85154 6.95665 5.86112C6.95505 5.86431 6.95345 5.86591 6.95345 5.86751C6.93429 5.92021 6.95984 5.97132 7.00296 5.99209Z" fill="#EDA600"/>
<defs>
<radialGradient id="paint0_radial_845_11655" cx="0" cy="0" r="1" gradientUnits="userSpaceOnUse" gradientTransform="translate(13.8309 14.4786) scale(3.74034 1.83725)">
<stop offset="0.7275" stop-color="#6D4C41" stop-opacity="0"/>
<stop offset="1" stop-color="#6D4C41"/>
</radialGradient>
<radialGradient id="paint1_radial_845_11655" cx="0" cy="0" r="1" gradientUnits="userSpaceOnUse" gradientTransform="translate(17.5127 13.9226) rotate(154.924) scale(1.10531 0.81998)">
<stop offset="0.6628" stop-color="#6D4C41"/>
<stop offset="1" stop-color="#6D4C41" stop-opacity="0"/>
</radialGradient>
<radialGradient id="paint2_radial_845_11655" cx="0" cy="0" r="1" gradientUnits="userSpaceOnUse" gradientTransform="translate(14.6506 10.7962) rotate(-94.2783) scale(4.8551 4.04642)">
<stop offset="0.7247" stop-color="#6D4C41" stop-opacity="0"/>
<stop offset="1" stop-color="#6D4C41"/>
</radialGradient>
<radialGradient id="paint3_radial_845_11655" cx="0" cy="0" r="1" gradientUnits="userSpaceOnUse" gradientTransform="translate(8.35357 10.7961) rotate(-85.7217) scale(4.8551 4.04642)">
<stop offset="0.7247" stop-color="#6D4C41" stop-opacity="0"/>
<stop offset="1" stop-color="#6D4C41"/>
</radialGradient>
<radialGradient id="paint4_radial_845_11655" cx="0" cy="0" r="1" gradientUnits="userSpaceOnUse" gradientTransform="translate(9.1716 14.4782) rotate(180) scale(3.74034 1.83725)">
<stop offset="0.7275" stop-color="#6D4C41" stop-opacity="0"/>
<stop offset="1" stop-color="#6D4C41"/>
</radialGradient>
<radialGradient id="paint5_radial_845_11655" cx="0" cy="0" r="1" gradientUnits="userSpaceOnUse" gradientTransform="translate(5.49062 13.9228) rotate(25.0761) scale(1.10531 0.81998)">
<stop offset="0.6628" stop-color="#6D4C41"/>
<stop offset="1" stop-color="#6D4C41" stop-opacity="0"/>
</radialGradient>
<linearGradient id="paint6_linear_845_11655" x1="10.8903" y1="14.7222" x2="10.8903" y2="19.9825" gradientUnits="userSpaceOnUse">
<stop stop-color="#F78C1F"/>
<stop offset="0.4936" stop-color="#F37F20"/>
<stop offset="1" stop-color="#ED6D23"/>
</linearGradient>
<radialGradient id="paint7_radial_845_11655" cx="0" cy="0" r="1" gradientUnits="userSpaceOnUse" gradientTransform="translate(14.4502 8.2443) rotate(72.9337) scale(5.65077 4.24248)">
<stop offset="0.6985" stop-color="#6D4C41" stop-opacity="0"/>
<stop offset="1" stop-color="#6D4C41"/>
</radialGradient>
<radialGradient id="paint8_radial_845_11655" cx="0" cy="0" r="1" gradientUnits="userSpaceOnUse" gradientTransform="translate(9.00627 2.05324) rotate(28.3598) scale(1.48081 1.77861)">
<stop offset="0.58" stop-color="#6D4C41"/>
<stop offset="1" stop-color="#6D4C41" stop-opacity="0"/>
</radialGradient>
<radialGradient id="paint9_radial_845_11655" cx="0" cy="0" r="1" gradientUnits="userSpaceOnUse" gradientTransform="translate(12.2922 4.75951) rotate(-157.095) scale(4.63668 2.63329)">
<stop offset="0.6985" stop-color="#6D4C41" stop-opacity="0"/>
<stop offset="1" stop-color="#6D4C41"/>
</radialGradient>
<radialGradient id="paint10_radial_845_11655" cx="0" cy="0" r="1" gradientUnits="userSpaceOnUse" gradientTransform="translate(8.38477 3.41285) scale(1.36963 1.67135)">
<stop offset="0.7016" stop-color="#6D4C41" stop-opacity="0"/>
<stop offset="1" stop-color="#6D4C41"/>
</radialGradient>
<radialGradient id="paint11_radial_845_11655" cx="0" cy="0" r="1" gradientUnits="userSpaceOnUse" gradientTransform="translate(8.15243 5.82257) rotate(-164.908) scale(2.55727 2.40874)">
<stop offset="0.6605" stop-color="#6D4C41" stop-opacity="0"/>
<stop offset="1" stop-color="#6D4C41"/>
</radialGradient>
<radialGradient id="paint12_radial_845_11655" cx="0" cy="0" r="1" gradientUnits="userSpaceOnUse" gradientTransform="translate(7.50297 8.29906) rotate(7.83526) scale(2.69043 3.78955)">
<stop offset="0.5981" stop-color="#6D4C41" stop-opacity="0"/>
<stop offset="1" stop-color="#6D4C41"/>
</radialGradient>
<linearGradient id="paint13_linear_845_11655" x1="6.4811" y1="2.86668" x2="5.20941" y2="8.34472" gradientUnits="userSpaceOnUse">
<stop offset="0.5" stop-color="#FFCA28"/>
<stop offset="1" stop-color="#FFB300"/>
</linearGradient>
<linearGradient id="paint14_linear_845_11655" x1="4.08768" y1="14.5243" x2="4.08768" y2="26.1832" gradientUnits="userSpaceOnUse">
<stop offset="0.0015" stop-color="#F78C1F"/>
<stop offset="0.4943" stop-color="#F37F20"/>
<stop offset="1" stop-color="#ED6D23"/>
</linearGradient>
</defs>
</svg>
