<svg width="57" height="57" viewBox="0 0 57 57" fill="none" xmlns="http://www.w3.org/2000/svg">
<path d="M34.2406 40.9397L32.6812 34.9473L27.8281 36.911C27.8281 36.911 28.9247 40.1192 29.3564 41.5852C29.7141 42.7985 30.3169 44.039 32.2846 45.0034L40.933 48.6043L41.1663 45.6061L34.2406 40.9397Z" fill="url(#paint0_linear_782_46674)"/>
<path d="M38.8448 44.0371C37.6277 45.7054 37.9271 47.358 37.9271 47.358L41.2364 48.8357L41.6486 45.6276L38.8448 44.0371Z" fill="#E0E0E0"/>
<path d="M43.3516 44.5371C43.266 44.2882 42.8344 44.0549 42.325 44.1716L41.4539 44.4204C40.8589 44.7276 40.7189 45.101 40.7189 45.101C40.5478 47.1036 40.9406 48.6008 40.9406 48.6008L42.7216 50.6695C43.161 51.1867 43.8727 51.3851 44.5182 51.1712L45.0159 51.004C45.2337 50.9301 45.4631 50.5451 45.3543 50.1135L43.3516 44.5371Z" fill="#4568AD"/>
<path d="M27.4177 35.9975C27.3244 36.6275 29.0587 40.6017 29.0587 40.6017C31.8508 40.3917 34.7751 37.7513 34.7751 37.7513C34.7751 37.7513 33.2507 36.0247 33.3907 32.8555L27.4177 35.9975Z" fill="#616161"/>
<path d="M20.9359 45.8386L24.2451 45.8114C24.2451 45.8114 23.1407 39.7684 22.8491 38.6679L30.5487 36.1247L28.8571 30.8633L20.0142 34.8609C18.8943 35.3664 17.7705 36.7546 18.3927 39.0801C18.7543 40.4139 20.9359 45.8386 20.9359 45.8386Z" fill="url(#paint1_linear_782_46674)"/>
<path d="M23.7926 43.1324C21.6189 42.9497 20.2578 44.1357 20.2578 44.1357L21.4244 47.6355L24.4381 46.5389L23.7926 43.1324Z" fill="#E0E0E0"/>
<path d="M24.7464 48.4741C24.9953 48.3924 25.2364 47.9647 25.1236 47.4552L24.8825 46.5803C24.6803 45.9426 24.0387 45.3709 24.0387 45.3709C22.0243 45.1648 20.6866 46.522 20.6866 46.522L18.6217 47.7663C18.0968 48.2019 17.8907 48.9096 18.1006 49.559L18.264 50.0607C18.334 50.2784 18.7189 50.5118 19.1506 50.4106L24.7464 48.4741Z" fill="#4568AD"/>
<path d="M22.12 48.3656C20.4129 49.0305 19.219 49.5438 18.7252 49.9327C18.208 50.2866 18.6591 50.5316 19.1646 50.3916L23.9477 48.9527C24.8537 48.6455 25.1843 48.2528 25.1454 47.8173C25.1065 47.3856 23.7221 47.7395 22.12 48.3656Z" fill="#294B7C"/>
<path d="M21.875 34.0175C23.9204 34.4258 26.4053 38.5361 26.4053 38.5361C26.4053 38.5361 30.3757 36.7356 31.795 35.8957C34.4082 34.3519 33.6888 31.3109 32.8528 29.8216L31.7911 27.5039L24.2627 29.421L24.1615 31.0465L24.4726 32.672L21.875 34.0175Z" fill="#7C7C7C"/>
<path opacity="0.2" d="M24.4746 32.6734C28.3788 29.9319 33.2513 30.698 33.2513 30.698C32.6525 29.0648 31.5092 26.9688 31.5092 26.9688C31.5092 26.9688 24.1907 28.9014 24.0507 29.9047C23.9068 30.908 24.4746 32.6734 24.4746 32.6734Z" fill="black"/>
<path d="M26.518 24.9309L24.6631 22.1621L16.6602 30.6667C16.6602 30.6667 16.6602 31.2655 17.3523 31.6738C18.0445 32.0821 18.7289 31.7827 18.7289 31.7827L26.518 24.9309Z" fill="url(#paint2_linear_782_46674)"/>
<path d="M16.6189 31.607C16.6189 31.607 16.02 32.5908 15.8178 33.843C15.7362 34.3602 15.915 34.8229 15.9811 34.9085C16.195 35.1846 16.5761 35.2468 16.7006 35.0174C16.8056 34.8191 16.5411 34.4885 16.5411 34.2941C16.545 34.0608 16.6772 33.8741 16.6772 33.8741C16.7589 34.1152 17.315 34.6246 17.4977 34.5741C18.0149 34.4263 17.2139 33.7808 17.2489 33.353C17.3422 32.2409 17.7661 31.5137 17.7661 31.5137L16.6189 31.607Z" fill="#EDA600"/>
<path d="M19.0907 31.0045C19.1685 31.7084 19.0285 31.6423 18.8846 32.5328C18.7991 33.0811 19.0752 33.2911 19.0596 33.6838C19.0518 33.9172 18.7874 34.1738 18.5191 34.0183C17.9241 33.6722 18.1924 32.2684 17.0725 32.5872C16.252 32.8206 15.8787 34.6249 15.1904 35.2004C14.5176 35.7643 13.9577 35.3015 14.1288 35.0916C14.1288 35.0916 14.4943 34.4305 14.9259 33.7188C15.4431 32.8633 15.6259 31.2768 17.1114 30.2812L19.0907 31.0045Z" fill="url(#paint3_linear_782_46674)"/>
<path d="M27.4659 19.182C24.4717 21.663 22.5195 24.144 22.5195 24.144C24.18 24.2528 25.6655 26.6638 25.6655 26.6638C25.6655 26.6638 29.7175 17.3154 27.4659 19.182Z" fill="#008F76"/>
<path d="M30.748 9.77101C29.9002 7.94333 27.0693 6.99449 25.1133 7.46891C22.9239 8.00166 21.8468 9.68935 21.6834 11.7387C21.6251 12.4814 21.7029 13.2125 21.8662 13.7219C21.8856 13.7841 22.0412 14.2274 22.0606 14.3674C22.1851 14.908 21.1662 15.5302 21.0885 16.1446C21.0301 16.6034 21.9984 16.8212 22.0801 16.899C22.4806 17.2762 22.0412 19.1894 24.6544 19.2594C25.5643 19.2827 25.7393 19.1738 25.7393 19.1738L25.9221 22.1409L30.2697 18.9366C30.2697 18.9366 29.4647 17.6612 30.1024 16.3779C30.9268 14.7058 31.829 12.1003 30.748 9.77101Z" fill="#FFCA28"/>
<path d="M22.4251 17.9628C22.7868 17.955 23.1367 17.8461 23.4245 17.5972C23.7395 17.325 23.4906 17.0645 23.1212 17.2589C22.8995 17.3756 22.5768 17.4495 22.2773 17.4145L22.4251 17.9628Z" fill="#795548"/>
<path d="M23.7677 15.278C24.0304 15.2499 24.2085 14.9017 24.1656 14.5002C24.1227 14.0988 23.875 13.7961 23.6123 13.8242C23.3496 13.8522 23.1715 14.2004 23.2144 14.6019C23.2574 15.0034 23.5051 15.306 23.7677 15.278Z" fill="#404040"/>
<path d="M23.234 13.538C22.7985 13.7518 22.639 13.4718 22.7479 13.1996C22.8296 13.0013 23.0823 12.803 23.6345 12.8108C24.1556 12.8224 24.4162 13.0752 24.5834 13.2269C24.7506 13.3785 24.7661 13.5574 24.6534 13.5924C24.4939 13.6468 23.7706 13.2735 23.234 13.538Z" fill="#6D4C41"/>
<path d="M40.1514 14.0098C42.6556 14.0098 44.6856 11.9798 44.6856 9.47561C44.6856 6.97144 42.6556 4.94141 40.1514 4.94141C37.6472 4.94141 35.6172 6.97144 35.6172 9.47561C35.6172 11.9798 37.6472 14.0098 40.1514 14.0098Z" fill="url(#paint4_radial_782_46674)"/>
<path d="M30.4161 18.7239C28.2501 19.7544 30.175 22.2937 30.175 22.2937C30.175 22.2937 34.3554 21.5937 36.0547 21.1932C38.4696 20.6332 38.8351 19.801 39.4223 19.0699C39.8928 18.4828 42.2299 15.0257 42.2299 15.0257L42.0977 13.8008L39.9551 14.2674L36.3464 17.5806C36.3464 17.5767 32.3099 17.8256 30.4161 18.7239Z" fill="url(#paint5_linear_782_46674)"/>
<path d="M40.0094 14.4461C39.9549 13.3456 41.3548 12.7856 41.3548 12.7856C41.3548 12.7856 40.8843 11.6151 40.7015 11.2457C40.5227 10.8763 40.6471 10.6196 40.7171 10.5807C40.9426 10.4524 41.1721 10.5768 41.2421 10.6585C41.5415 11.0201 41.9926 11.6501 41.9926 11.6501C42.187 11.5723 41.8837 10.5613 41.732 9.88075C41.6426 9.48021 42.117 9.04468 42.4592 9.75631C42.7431 10.3435 43.1086 11.4479 43.1086 11.4479C43.1747 10.9968 43.0931 10.2891 43.0036 9.39855C42.9609 8.98246 43.132 8.79581 43.4042 8.77247C43.6064 8.75303 43.7814 8.80747 43.9214 9.63965C43.9642 9.88853 44.0341 11.2923 44.0341 11.2923C44.4269 11.0901 44.5241 10.0052 44.5552 9.30522C44.5747 8.81136 45.228 8.68692 45.3135 9.42966C45.4885 10.9385 44.7069 12.2256 44.3491 12.8284C44.1625 13.1434 42.1015 15.0955 42.1015 15.0955L40.0094 14.4461Z" fill="url(#paint6_linear_782_46674)"/>
<path d="M34.5004 29.1312C31.0939 25.9075 32.696 23.131 32.696 23.131C32.696 23.131 32.7271 22.6566 34.4965 22.2988C34.4965 22.2988 34.2476 20.2573 35.2664 17.543C35.2664 17.543 31.3739 17.5819 29.7639 18.1107C28.7995 18.4257 27.2402 18.6396 25.7741 20.2728C24.9342 21.2061 24.3548 22.1005 23.7637 24.9937C23.1065 28.2174 24.4831 32.6777 24.4831 32.6777C27.4541 29.2946 34.5004 29.1312 34.5004 29.1312Z" fill="url(#paint7_radial_782_46674)"/>
<path d="M30.7885 8.91713C29.7697 7.81664 27.9926 7.16723 26.336 7.19833C25.2238 7.22167 24.17 7.49776 23.2873 7.99552C23.2717 8.00329 21.5918 8.97546 21.2613 9.83875C20.9074 10.7643 21.3235 11.262 21.4207 11.3514C21.4985 11.4214 21.6035 11.4409 21.6968 11.4448L21.7007 11.4526C21.7007 11.4526 21.7162 11.4487 21.7435 11.4448C21.8329 11.4409 21.9029 11.4214 21.9029 11.4214C22.5484 11.3242 24.6094 11.0404 25.671 11.1765C25.8382 11.1998 26.0288 11.2348 26.1143 11.3826C26.1532 11.4448 26.2116 11.8648 26.2193 11.9386C26.3593 12.8836 26.3282 13.4863 26.6626 14.0619C26.7171 14.1552 26.9193 14.268 26.9193 14.268L27.2615 13.638C27.4793 13.2763 27.6815 12.9653 28.0003 13.0041C28.9492 13.113 28.9453 14.7852 27.8837 15.2635C27.8837 15.2635 28.187 16.4884 29.3886 16.6867C29.513 16.7062 29.6258 16.7178 29.723 16.7178C29.7658 16.7178 29.8086 16.7139 29.8514 16.7023C30.2713 16.6867 30.5708 16.5623 30.6369 16.1579C30.7846 15.2868 30.9907 14.8979 31.2124 14.4857C31.4729 13.9996 31.7451 13.498 31.8696 12.2342C32.0057 10.9704 31.6285 9.8232 30.7885 8.91713Z" fill="#543930"/>
<path d="M30.7885 8.91713C29.7697 7.81664 27.9926 7.16723 26.336 7.19833C25.2238 7.22167 24.17 7.49776 23.2873 7.99552C23.2717 8.00329 21.5918 8.97546 21.2613 9.83875C20.9074 10.7643 21.3235 11.262 21.4207 11.3514C21.4985 11.4214 21.6035 11.4409 21.6968 11.4448L21.7007 11.4526C21.7007 11.4526 21.7162 11.4487 21.7435 11.4448C21.8329 11.4409 21.9029 11.4214 21.9029 11.4214C22.5484 11.3242 24.6094 11.0404 25.671 11.1765C25.8382 11.1998 26.0288 11.2348 26.1143 11.3826C26.1532 11.4448 26.2116 11.8648 26.2193 11.9386C26.3593 12.8836 26.3282 13.4863 26.6626 14.0619C26.7171 14.1552 26.9193 14.268 26.9193 14.268L27.2615 13.638C27.4793 13.2763 27.6815 12.9653 28.0003 13.0041C28.9492 13.113 28.9453 14.7852 27.8837 15.2635C27.8837 15.2635 28.187 16.4884 29.3886 16.6867C29.513 16.7062 29.6258 16.7178 29.723 16.7178C29.7658 16.7178 29.8086 16.7139 29.8514 16.7023C30.2713 16.6867 30.5708 16.5623 30.6369 16.1579C30.7846 15.2868 30.9907 14.8979 31.2124 14.4857C31.4729 13.9996 31.7451 13.498 31.8696 12.2342C32.0057 10.9704 31.6285 9.8232 30.7885 8.91713Z" fill="url(#paint8_radial_782_46674)"/>
<defs>
<linearGradient id="paint0_linear_782_46674" x1="39.1173" y1="46.658" x2="31.195" y2="38.9548" gradientUnits="userSpaceOnUse">
<stop offset="0.5979" stop-color="#FFCA28"/>
<stop offset="1" stop-color="#FFB300"/>
</linearGradient>
<linearGradient id="paint1_linear_782_46674" x1="19.3863" y1="43.0304" x2="25.6082" y2="36.5655" gradientUnits="userSpaceOnUse">
<stop offset="0.5979" stop-color="#FFCA28"/>
<stop offset="1" stop-color="#FFB300"/>
</linearGradient>
<linearGradient id="paint2_linear_782_46674" x1="16.38" y1="28.3854" x2="23.4769" y2="26.5059" gradientUnits="userSpaceOnUse">
<stop offset="0.5979" stop-color="#FFCA28"/>
<stop offset="1" stop-color="#FFB300"/>
</linearGradient>
<linearGradient id="paint3_linear_782_46674" x1="15.8388" y1="32.3565" x2="17.7163" y2="34.2843" gradientUnits="userSpaceOnUse">
<stop offset="0.5979" stop-color="#FFCA28"/>
<stop offset="1" stop-color="#FFB300"/>
</linearGradient>
<radialGradient id="paint4_radial_782_46674" cx="0" cy="0" r="1" gradientUnits="userSpaceOnUse" gradientTransform="translate(39.1129 7.7057) rotate(9.26452) scale(4.54199)">
<stop stop-color="#CED7DB"/>
<stop offset="0.3026" stop-color="#BFCBD0"/>
<stop offset="0.8798" stop-color="#99ABB4"/>
<stop offset="1" stop-color="#90A4AE"/>
</radialGradient>
<linearGradient id="paint5_linear_782_46674" x1="44.0872" y1="13.2648" x2="32.638" y2="20.5994" gradientUnits="userSpaceOnUse">
<stop offset="0.5979" stop-color="#FFCA28"/>
<stop offset="1" stop-color="#FFB300"/>
</linearGradient>
<linearGradient id="paint6_linear_782_46674" x1="44.3304" y1="9.77548" x2="35.0817" y2="19.7422" gradientUnits="userSpaceOnUse">
<stop offset="0.5979" stop-color="#FFCA28"/>
<stop offset="1" stop-color="#FFB300"/>
</linearGradient>
<radialGradient id="paint7_radial_782_46674" cx="0" cy="0" r="1" gradientUnits="userSpaceOnUse" gradientTransform="translate(26.8139 22.141) rotate(19.4931) scale(7.55259 7.55259)">
<stop stop-color="#00BFA5"/>
<stop offset="1" stop-color="#009E89"/>
</radialGradient>
<radialGradient id="paint8_radial_782_46674" cx="0" cy="0" r="1" gradientUnits="userSpaceOnUse" gradientTransform="translate(26.5141 11.9564) scale(5.08313)">
<stop offset="0.5264" stop-color="#6D4C41" stop-opacity="0"/>
<stop offset="1" stop-color="#6D4C41"/>
</radialGradient>
</defs>
</svg>
