<svg width="65" height="64" viewBox="0 0 65 64" fill="none" xmlns="http://www.w3.org/2000/svg">
<path d="M32.4991 56.3462C20.0997 56.3462 6.72266 48.5689 6.72266 31.5032C6.72266 14.4375 20.0997 6.66016 32.4991 6.66016C39.3876 6.66016 45.7428 8.92669 50.4537 13.0598C55.5645 17.5929 58.2755 23.9925 58.2755 31.5032C58.2755 39.0139 55.5645 45.369 50.4537 49.9021C45.7428 54.0352 39.3431 56.3462 32.4991 56.3462Z" fill="url(#paint0_radial_782_37097)"/>
<path d="M53.7836 16.7344C56.1523 20.5564 57.3878 25.1072 57.3878 30.1692C57.3878 37.6798 54.6768 44.035 49.566 48.5681C44.8552 52.7012 38.4555 55.0122 31.6114 55.0122C23.5852 55.0122 15.1678 51.7457 10.1992 44.8172C14.9812 52.6656 23.9763 56.3454 32.5003 56.3454C39.3443 56.3454 45.744 54.0345 50.4549 49.9014C55.5657 45.3683 58.2767 39.0131 58.2767 31.5024C58.2767 25.8405 56.7345 20.8097 53.7836 16.7344Z" fill="#EB8F00"/>
<path d="M32.6702 45.2453C27.5549 45.2453 23.9018 42.5788 22.8041 40.9167C22.3907 40.3789 22.3063 39.659 22.5818 39.0412C22.7907 38.6457 23.204 38.4012 23.6529 38.4146C23.8173 38.4146 23.9818 38.4412 24.1373 38.4901C26.9061 39.3256 29.7815 39.7434 32.6702 39.7256C35.5589 39.7434 38.4388 39.3256 41.2031 38.4901C41.3586 38.4412 41.5231 38.4146 41.6875 38.4146C42.1364 38.4012 42.5497 38.6457 42.7585 39.0412C43.0341 39.659 42.9496 40.3789 42.5363 40.9167C41.4386 42.5877 37.7855 45.2453 32.6702 45.2453Z" fill="#422B0D"/>
<path d="M59.3366 23.7377C59.3366 23.7377 57.4433 23.7777 57.4433 25.2931C57.4433 29.0351 57.4878 37.0658 47.6661 37.0658C39.8176 37.0658 36.0711 33.0127 35.4401 28.5374C35.1823 26.6753 34.5512 24.6487 32.6535 24.6487C30.7559 24.6487 30.1426 26.6619 29.8848 28.5374C29.2537 33.0127 25.5072 37.0658 17.6588 37.0658C7.85485 37.0658 7.88151 29.0351 7.88151 25.2931C7.88151 23.7777 5.98828 23.7377 5.98828 23.7377V20.0312C9.03256 19.6312 12.0991 19.4446 15.1656 19.4712C20.7119 19.4712 22.9207 19.4712 27.3338 19.9157C29.9426 20.1734 32.6669 20.2045 32.6669 20.2045C32.6669 20.2045 35.3778 20.1734 37.9999 19.9157C42.413 19.4712 44.6218 19.4712 50.1682 19.4712C53.2347 19.4446 56.2967 19.6357 59.3366 20.0312V23.7377Z" fill="#422B0D"/>
<path d="M13.6185 26.6631C13.574 27.3741 13.2896 28.0319 12.5919 28.1652C12.5119 28.1785 12.4363 28.1874 12.3563 28.1874C11.7297 28.183 11.1919 27.7297 11.0942 27.1075C10.8231 25.8809 11.1208 24.5965 11.903 23.6143C12.623 22.7433 13.6985 22.2411 14.8273 22.2455C15.4984 22.1833 16.0939 22.6766 16.1561 23.3477C16.1561 23.361 16.1606 23.3744 16.1606 23.3921C16.1606 24.2276 15.4939 24.5832 14.8273 24.8143C14.0984 25.1431 13.6274 25.8631 13.6185 26.6631Z" fill="#896024"/>
<path d="M41.8695 26.6631C41.8296 27.3741 41.5407 28.0319 40.8474 28.1652C40.7674 28.1785 40.6874 28.1874 40.6074 28.1874C39.9763 28.1874 39.4386 27.7297 39.3364 27.1075C39.0653 25.8809 39.363 24.5965 40.1452 23.6143C40.8696 22.7433 41.9407 22.2411 43.0739 22.2455C43.745 22.1833 44.3405 22.6766 44.4027 23.3477C44.4027 23.361 44.4072 23.3744 44.4072 23.3921C44.4072 24.2276 43.7406 24.5832 43.0739 24.8143C42.3495 25.1431 41.8784 25.8631 41.8695 26.6631Z" fill="#896024"/>
<defs>
<radialGradient id="paint0_radial_782_37097" cx="0" cy="0" r="1" gradientUnits="userSpaceOnUse" gradientTransform="translate(32.4991 31.5031) scale(25.3141 25.314)">
<stop offset="0.5" stop-color="#FDE030"/>
<stop offset="0.92" stop-color="#F7C02B"/>
<stop offset="1" stop-color="#F4A223"/>
</radialGradient>
</defs>
</svg>
