<svg width="50" height="50" viewBox="0 0 50 50" fill="none" xmlns="http://www.w3.org/2000/svg">
<path d="M11.8911 24.4206C11.1342 23.8581 10.4259 23.2019 9.78011 22.4554C9.45027 22.0908 8.79753 21.4902 8.15173 21.5457C8.01979 21.5561 7.84966 21.6013 7.68647 21.7228C7.24552 21.1534 6.22822 19.6257 5.7213 18.2785C5.51645 17.8515 5.15883 17.782 4.91231 17.8515C4.47484 17.9799 4.1936 18.5355 4.25957 19.15C4.47484 21.1985 6.07892 23.6949 6.67958 24.2817L6.66917 24.2886C7.84966 25.7261 7.96076 27.8232 7.96076 27.844C7.96771 28.0072 8.08923 28.1426 8.24894 28.1704L11.5509 28.7224C11.5717 28.7259 11.589 28.7259 11.6099 28.7259C11.7557 28.7259 11.8911 28.6322 11.9362 28.4898C12.155 27.8475 12.6619 26.3198 12.6688 25.9726C12.6897 24.9587 12.0474 24.5143 11.8911 24.4206Z" fill="url(#paint0_linear_949_21495)"/>
<path d="M45.1572 17.8606C44.9107 17.7842 44.5426 17.8537 44.3204 18.3154C43.8239 19.6348 42.8066 21.159 42.3657 21.7284C42.2025 21.6069 42.0324 21.5653 41.9004 21.5514C41.2546 21.4958 40.6019 22.0965 40.2686 22.4645C39.6262 23.2041 38.9179 23.8638 38.161 24.4227C38.0048 24.5165 37.3625 24.9574 37.3833 25.9782C37.3903 26.3254 37.8972 27.8566 38.1159 28.4954C38.1645 28.6378 38.2965 28.7315 38.4423 28.7315C38.4631 28.7315 38.4805 28.7315 38.5013 28.7281L41.8032 28.176C41.9803 28.1482 42.1053 27.9885 42.0914 27.808C42.0914 27.7906 41.9733 25.9366 43.3795 24.2978L43.3691 24.2908C43.9698 23.7075 45.5218 21.1556 45.7926 19.1626C45.8759 18.555 45.6016 17.9925 45.1572 17.8606Z" fill="url(#paint1_linear_949_21495)"/>
<path d="M42.9278 27.2599C42.9209 26.9822 42.7021 26.7565 42.4244 26.7357L37.9767 26.4753C37.9628 26.4753 37.9524 26.4753 37.9385 26.4753C37.6677 26.4753 37.435 26.6801 37.4038 26.9544L36.4733 33.5409C35.022 32.2979 33.0186 31.3847 30.2653 31.3847C29.3591 31.3847 20.6894 31.3431 19.7797 31.3431C17.0264 31.3431 15.023 32.2562 13.5717 33.4992L12.6447 26.9127C12.6134 26.6384 12.3808 26.4336 12.1065 26.4336C12.0926 26.4336 12.0822 26.4336 12.0683 26.4336L7.62064 26.694C7.34287 26.7148 7.12761 26.9405 7.11719 27.2183L7.079 41.2939C7.03039 43.7625 9.0164 45.7867 11.485 45.7867C13.1933 45.7867 14.5612 44.5055 14.7696 42.9015L14.78 42.9084V45.8284H15.3008H15.8216H34.2165H34.7373H35.2581V42.9501L35.272 42.9431C35.4803 44.5472 36.8483 45.8284 38.5565 45.8284C41.0251 45.8284 43.0111 43.8007 42.9625 41.3356L42.9278 27.2599Z" fill="url(#paint2_linear_949_21495)"/>
<path d="M37.1796 45.5172C36.9747 45.427 36.7838 45.3159 36.6067 45.1805C36.3602 44.9964 36.138 44.7777 35.9505 44.5347C35.5963 44.0798 35.3637 43.5312 35.2873 42.941L35.2804 42.9445L35.1484 39.2363C35.1484 39.2363 35.3672 42.4132 37.1796 45.5172Z" fill="#009984"/>
<path d="M14.9174 39.2363L14.7855 42.9132V42.9167C14.6362 44.0382 13.9175 44.9999 12.9141 45.4721C14.6987 42.382 14.9174 39.2363 14.9174 39.2363Z" fill="#009984"/>
<path d="M21.8516 29.9688V33.4338C21.8516 34.9997 23.1084 36.2705 25.0042 36.2705C26.8999 36.2705 28.1568 34.9997 28.1568 33.4338V29.9688H21.8516Z" fill="#E59600"/>
<path d="M32.8063 17.9725L15.5433 20.0731C13.6823 20.2988 12.356 22.1077 12.599 24.0903C12.8386 26.0728 14.5607 27.5102 16.4218 27.2846L33.6847 25.184C35.5457 24.9583 36.8721 23.1494 36.629 21.1668C36.3895 19.1843 34.6673 17.7469 32.8063 17.9725Z" fill="#E59600"/>
<path d="M22.651 6.58801C17.1513 7.25812 12.7765 13.7543 13.8077 22.2156C14.832 30.6284 20.5817 34.1525 25.9251 33.5032C31.2686 32.854 36.0079 28.0556 34.9837 19.6394C33.9525 11.178 28.1472 5.92138 22.651 6.58801Z" fill="#FFCA28"/>
<path d="M27.4501 29.063C27.5265 30.0282 26.6828 30.2955 25.6203 30.3789C24.5579 30.4622 23.6829 30.3059 23.6065 29.365C23.5302 28.372 24.3426 27.6915 25.4016 27.6082C26.464 27.5248 27.3702 28.0526 27.4501 29.063Z" fill="#795548"/>
<path d="M26.0801 24.4416C26.0454 24.4312 26.0107 24.4277 25.9759 24.4277L23.7399 24.6986C23.7052 24.7055 23.674 24.7194 23.6427 24.7367C23.4483 24.8444 23.365 25.0666 23.4865 25.2784C23.608 25.4902 24.1288 26.0631 25.0281 25.9554C25.9239 25.8478 26.2919 25.1638 26.3613 24.9312C26.4273 24.6951 26.2919 24.5006 26.0801 24.4416Z" fill="#E59600"/>
<path d="M19.48 23.9693C20.3348 23.8666 20.9416 23.0656 20.8352 22.1803C20.7289 21.295 19.9496 20.6605 19.0948 20.7632C18.2399 20.866 17.6331 21.6669 17.7395 22.5523C17.8459 23.4376 18.6251 24.072 19.48 23.9693Z" fill="#404040"/>
<path d="M29.8081 22.7232C30.663 22.6205 31.2697 21.8195 31.1634 20.9342C31.057 20.0489 30.2777 19.4144 29.4229 19.5171C28.568 19.6199 27.9612 20.4208 28.0676 21.3062C28.174 22.1915 28.9532 22.8259 29.8081 22.7232Z" fill="#404040"/>
<path d="M31.1728 18.4023C30.2354 18.1246 29.2979 18.0794 28.3743 18.4544C28.0723 18.5759 27.7424 18.871 27.4091 18.9023C27.1695 18.9266 26.9369 18.7669 26.8744 18.5308C26.8189 18.3155 26.9265 18.135 27.0445 17.9614C27.7216 16.9718 29.0444 16.5378 30.1972 16.7635C30.711 16.8642 31.2735 17.1003 31.6346 17.4961C31.9748 17.8711 31.7596 18.562 31.1728 18.4023Z" fill="#6D4C41"/>
<path d="M16.5199 19.4095C17.0823 18.3574 18.3948 17.8714 19.5371 17.9929C20.0544 18.0484 20.5683 18.2359 20.9849 18.5553C21.3009 18.7984 21.7071 19.2984 21.1967 19.6108C20.8738 19.8053 20.3599 19.5379 20.0336 19.4824C19.5648 19.406 19.0822 19.4164 18.6204 19.5171C18.1482 19.6178 17.7281 19.8053 17.315 20.0483C16.8775 20.2983 16.2456 19.9511 16.5199 19.4095Z" fill="#6D4C41"/>
<path d="M22.4182 4.31253C22.4148 4.31253 22.4148 4.31253 22.4113 4.31253C22.4078 4.31253 22.4078 4.31253 22.4043 4.31253C7.92941 6.11799 12.8666 22.3081 12.8666 22.3081C12.8666 22.3081 13.7208 23.9365 14.1062 24.6552C14.1617 24.7594 14.318 24.7281 14.3284 24.6101C14.4742 23.19 15.002 18.1521 15.3839 16.5931C15.6096 15.6765 16.4602 15.055 17.4046 15.114C18.8559 15.2008 21.1544 15.2529 23.6508 14.9543C23.6612 14.9543 23.6682 14.9509 23.6786 14.9509C23.689 14.9509 23.6959 14.9474 23.7064 14.9474C26.2028 14.6488 28.4249 14.062 29.8137 13.635C30.7164 13.3572 31.6886 13.7599 32.126 14.6002C32.8621 16.0202 34.5495 20.7665 35.0287 22.131C35.0669 22.2421 35.2266 22.2352 35.2578 22.1206L35.9175 19.5617C35.921 19.5617 36.914 2.66332 22.4182 4.31253Z" fill="#543930"/>
<path d="M35.9147 19.5617C35.9147 19.5617 36.9112 2.66332 22.4154 4.31253C22.4119 4.31253 22.4119 4.31253 22.4119 4.31253C22.4085 4.31253 22.4085 4.31253 22.4085 4.31253C22.1828 4.34031 21.964 4.37156 21.7488 4.40628C21.3182 4.47572 20.9085 4.55905 20.5127 4.65279C20.5093 4.65279 20.5058 4.65627 20.5023 4.65627C20.4745 4.66321 20.4468 4.67015 20.419 4.6771C8.39878 7.66999 12.8673 22.3081 12.8673 22.3081L14.1068 24.6413C14.1624 24.7455 14.3151 24.7142 14.329 24.5996C14.4749 23.1657 15.0026 18.1486 15.3845 16.5931C15.6102 15.6765 16.4609 15.055 17.4053 15.114C18.8566 15.2008 21.1551 15.2529 23.6515 14.9543C23.6619 14.9543 23.6688 14.9509 23.6792 14.9509C23.6896 14.9509 23.6966 14.9474 23.707 14.9474C26.2034 14.6488 28.4255 14.062 29.8143 13.635C30.717 13.3572 31.6892 13.7599 32.1267 14.6002C32.8662 16.0272 34.5641 20.8082 35.0363 22.1484C35.0745 22.2595 35.2307 22.2526 35.2619 22.138C35.4633 21.3533 35.9147 19.5617 35.9147 19.5617Z" fill="url(#paint3_radial_949_21495)"/>
<defs>
<linearGradient id="paint0_linear_949_21495" x1="8.46011" y1="28.7881" x2="8.46011" y2="17.504" gradientUnits="userSpaceOnUse">
<stop offset="0.5" stop-color="#FFCA28"/>
<stop offset="1" stop-color="#FFB300"/>
</linearGradient>
<linearGradient id="paint1_linear_949_21495" x1="41.5957" y1="28.7903" x2="41.5957" y2="17.5061" gradientUnits="userSpaceOnUse">
<stop offset="0.5" stop-color="#FFCA28"/>
<stop offset="1" stop-color="#FFB300"/>
</linearGradient>
<linearGradient id="paint2_linear_949_21495" x1="25.0216" y1="31.7455" x2="25.0216" y2="46.5895" gradientUnits="userSpaceOnUse">
<stop stop-color="#00BFA5"/>
<stop offset="0.4701" stop-color="#00B29A"/>
<stop offset="1" stop-color="#009E89"/>
</linearGradient>
<radialGradient id="paint3_radial_949_21495" cx="0" cy="0" r="1" gradientUnits="userSpaceOnUse" gradientTransform="translate(24.0452 18.0439) rotate(-6.79954) scale(12.2314 13.7995)">
<stop offset="0.7945" stop-color="#6D4C41" stop-opacity="0"/>
<stop offset="1" stop-color="#6D4C41"/>
</radialGradient>
</defs>
</svg>
