<svg width="64" height="65" viewBox="0 0 64 65" fill="none" xmlns="http://www.w3.org/2000/svg">
<path d="M35.5276 27.6076C35.5276 27.6076 33.9588 32.9095 33.3055 34.4205L31.3545 39.318C31.0434 40.0069 31.3189 40.9091 31.9722 41.2868C32.7233 41.7179 33.8121 41.3935 34.1721 40.6069L39.7452 28.8697L39.2963 27.332L35.5276 27.6076Z" fill="url(#paint0_linear_782_32838)"/>
<path d="M50.4573 37.2207V58.5884H47.9463L44.4487 41.6071C44.4309 41.5005 44.342 41.4249 44.2443 41.4249C44.1465 41.4249 44.0576 41.5005 44.0398 41.6071L40.5422 58.5884H38.0312V37.2207H50.4573Z" fill="#7C7C7C"/>
<path d="M49.1527 59.1621H51.1304C51.4948 59.1532 51.7571 58.7355 51.6504 58.3711C51.3215 57.26 50.3216 56.4512 49.1527 56.4512C47.9617 56.4512 46.9484 57.2956 46.6373 58.4333C46.5395 58.7977 46.8106 59.1577 47.1751 59.1577C47.1751 59.1621 49.1527 59.1621 49.1527 59.1621Z" fill="#424242"/>
<path d="M39.342 59.1621H37.3643C36.9999 59.1532 36.7377 58.7355 36.8443 58.3711C37.1732 57.26 38.1731 56.4512 39.342 56.4512C40.533 56.4512 41.5463 57.2956 41.8574 58.4333C41.9552 58.7977 41.6841 59.1577 41.3196 59.1577C41.3196 59.1621 39.342 59.1621 39.342 59.1621Z" fill="#424242"/>
<path d="M48.0156 28.0909L52.3265 27.8242C52.3265 27.8242 54.3264 32.2684 54.993 33.7483C54.993 33.7483 56.8774 36.5571 57.7351 37.8237C58.5706 38.677 58.7839 38.9881 59.0862 40.1302C59.4195 41.3879 59.2639 42.0768 59.1039 42.379C58.9484 42.6856 58.104 43.4722 57.584 42.9923C57.0329 42.4812 57.0729 40.6724 56.5574 40.7968C56.2907 40.8635 56.6285 41.4013 56.6596 41.9346C56.6907 42.4679 56.2819 42.5612 55.993 42.4145C55.8463 42.339 55.1708 41.2102 55.1708 41.2102L54.8819 39.3391L48.1578 29.9041L48.0156 28.0909Z" fill="url(#paint1_linear_782_32838)"/>
<path d="M33.0411 35.0859L32.25 37.0681L32.89 38.2947L34.6277 39.659L36.2587 36.2192L33.0411 35.0859Z" fill="url(#paint2_linear_782_32838)"/>
<path d="M39.5211 24.0063C40.5966 23.7219 42.4765 23.5352 44.2542 23.5352C46.0319 23.5308 47.894 23.7219 48.9695 24.0063C52.3249 24.8996 53.1559 26.4773 54.1559 29.1838L50.4761 30.606V38.73H38.0323V30.606L34.3125 29.1838C35.3124 26.4773 36.1657 24.8996 39.5211 24.0063Z" fill="url(#paint3_linear_782_32838)"/>
<path d="M44.2455 22.1562H42.0234V24.5117C42.0234 25.5783 42.9301 26.4405 44.0411 26.4405H44.45C45.5655 26.4405 46.4676 25.5783 46.4676 24.5117V22.1562H44.2455Z" fill="#E59600"/>
<path d="M38.699 19.0008C37.6502 19.0008 36.7969 18.0808 36.7969 16.9564C36.7969 15.8321 37.6502 14.9121 38.699 14.9121H49.5784C50.6273 14.9121 51.4805 15.8321 51.4805 16.9564C51.4805 18.0808 50.6273 19.0008 49.5784 19.0008H38.699Z" fill="#E59600"/>
<path d="M44.1629 23.3847C41.0608 23.3847 37.7188 20.9759 37.7188 15.6873C37.7188 11.452 40.1808 6.87891 44.1629 6.87891C48.1449 6.87891 50.607 11.4475 50.607 15.6873C50.607 20.9759 47.2649 23.3847 44.1629 23.3847Z" fill="#FFCA28"/>
<path d="M48.9117 14.7466C48.9117 14.7466 48.885 14.711 48.8361 14.6444C48.8228 14.631 48.8139 14.6132 48.7961 14.5955C48.7739 14.5732 48.7517 14.5555 48.725 14.5288C48.6984 14.5066 48.6717 14.4799 48.6406 14.4533C48.6095 14.4266 48.5784 14.4088 48.5473 14.3866C48.5161 14.3644 48.4806 14.3421 48.4406 14.3199C48.4006 14.2977 48.365 14.2799 48.3206 14.2577C48.2806 14.2355 48.2362 14.2177 48.1873 14.1999C48.1384 14.1822 48.0984 14.1644 48.0451 14.1466C47.9473 14.1199 47.8451 14.0888 47.7429 14.0755C47.6362 14.0533 47.5295 14.0533 47.4184 14.0488C47.3073 14.0533 47.2007 14.0577 47.094 14.0755C46.9873 14.0888 46.8851 14.1199 46.7918 14.1466C46.7429 14.1644 46.6985 14.1822 46.6496 14.1999C46.6007 14.2177 46.5607 14.2355 46.5162 14.2577C46.4763 14.2799 46.4363 14.3021 46.3963 14.3199C46.3607 14.3421 46.3251 14.3644 46.2896 14.3866L46.1963 14.4533C46.1696 14.4755 46.1429 14.5021 46.1207 14.5199C46.0985 14.5421 46.0763 14.5599 46.0541 14.5821C46.0363 14.6044 46.0185 14.6221 46.0052 14.6399C45.9474 14.711 45.9163 14.7555 45.9163 14.7555C45.8185 14.8977 45.8496 15.0932 45.9874 15.191C46.0718 15.2532 46.1785 15.2621 46.2718 15.231L46.3296 15.2132C46.3296 15.2132 46.3651 15.1999 46.4229 15.1732C46.4363 15.1688 46.454 15.1599 46.4718 15.151C46.4896 15.1465 46.5074 15.1377 46.5296 15.1288C46.5696 15.111 46.614 15.0932 46.6718 15.0799C46.6985 15.071 46.7207 15.0621 46.7473 15.0532C46.774 15.0488 46.8007 15.0399 46.8318 15.031C46.8451 15.0266 46.8585 15.0221 46.8762 15.0177C46.8896 15.0132 46.9073 15.0132 46.9207 15.0088C46.9518 15.0043 46.9829 14.9954 47.014 14.991C47.0762 14.9821 47.1473 14.9688 47.214 14.9688C47.2807 14.9599 47.3518 14.9643 47.4184 14.9599C47.4851 14.9643 47.5562 14.9599 47.6229 14.9688C47.6895 14.9732 47.7562 14.9866 47.8228 14.991C47.854 14.9954 47.8851 15.0043 47.9162 15.0088C47.9295 15.0132 47.9473 15.0132 47.9606 15.0177C47.9739 15.0221 47.9873 15.0266 48.0051 15.031C48.0317 15.0399 48.0628 15.0443 48.0895 15.0532C48.1162 15.0621 48.1428 15.071 48.1651 15.0799C48.1917 15.0888 48.2139 15.0932 48.2362 15.1021C48.2584 15.111 48.2762 15.1154 48.2939 15.1199C48.3117 15.1243 48.3295 15.1332 48.3473 15.1377C48.365 15.1465 48.3873 15.1554 48.405 15.1643C48.4761 15.1999 48.5206 15.2177 48.5206 15.2177C48.685 15.2843 48.8761 15.2088 48.9428 15.0443C48.9828 14.9466 48.9695 14.831 48.9117 14.7466Z" fill="#6D4C41"/>
<path d="M39.7429 15.2235C39.7429 15.2235 39.7829 15.2057 39.8584 15.1702C39.8762 15.1613 39.894 15.148 39.9162 15.1435C39.934 15.1391 39.9518 15.1346 39.9695 15.1257C39.9873 15.1213 40.0051 15.1124 40.0273 15.108C40.0495 15.0991 40.0718 15.0946 40.0984 15.0857C40.1251 15.0769 40.1473 15.068 40.174 15.0591C40.2006 15.0502 40.2273 15.0457 40.2584 15.0369C40.2718 15.0324 40.2851 15.028 40.3029 15.0235C40.3162 15.0191 40.334 15.0191 40.3473 15.0146C40.3784 15.0102 40.4095 15.0013 40.4406 14.9969C40.5028 14.988 40.574 14.9746 40.6406 14.9746C40.7073 14.9657 40.7784 14.9657 40.8451 14.9657C40.9117 14.9702 40.9828 14.9657 41.0495 14.9746C41.1162 14.9791 41.1828 14.9924 41.2495 14.9969C41.2806 15.0013 41.3117 15.0102 41.3428 15.0146C41.3561 15.0191 41.3739 15.0191 41.3872 15.0235C41.4006 15.028 41.4139 15.0324 41.4317 15.0369C41.4584 15.0457 41.4895 15.0502 41.5161 15.0591C41.5428 15.068 41.5695 15.0769 41.5917 15.0857C41.6406 15.0991 41.6895 15.1169 41.7339 15.1346C41.7561 15.1435 41.7739 15.1524 41.7917 15.1568C41.8094 15.1657 41.8228 15.1702 41.8406 15.1791C41.8983 15.2057 41.9339 15.2191 41.9339 15.2191L41.9872 15.2368C42.1517 15.2946 42.3294 15.2102 42.3872 15.0457C42.4228 14.9435 42.4005 14.8413 42.3472 14.7613C42.3472 14.7613 42.3161 14.7213 42.2583 14.6458C42.245 14.628 42.2272 14.6102 42.2094 14.588C42.1917 14.5702 42.1694 14.548 42.1428 14.5258C42.1205 14.5036 42.0939 14.4813 42.0672 14.4591C42.0405 14.4369 42.0094 14.4147 41.9739 14.3924C41.9428 14.3702 41.9072 14.348 41.8672 14.3258C41.8272 14.3036 41.7917 14.2858 41.7472 14.2636C41.7072 14.2413 41.6628 14.2236 41.6139 14.2058C41.565 14.188 41.525 14.1702 41.4717 14.1525C41.3739 14.1258 41.2717 14.0947 41.1695 14.0814C41.0628 14.0591 40.9562 14.0591 40.8451 14.0547C40.7339 14.0591 40.6273 14.0636 40.5206 14.0814C40.414 14.0947 40.3117 14.1258 40.2184 14.1525C40.1695 14.1702 40.1251 14.188 40.0762 14.2058C40.0318 14.2236 39.9873 14.2413 39.9429 14.2636C39.9029 14.2858 39.8629 14.308 39.8229 14.3258C39.7873 14.348 39.7518 14.3702 39.7162 14.3924L39.6229 14.4591C39.5918 14.4858 39.5651 14.508 39.5385 14.5347C39.5118 14.5569 39.4896 14.5791 39.4673 14.6013C39.4496 14.6191 39.4362 14.6369 39.4274 14.6502C39.3785 14.7124 39.3518 14.7524 39.3518 14.7524C39.254 14.8991 39.2896 15.0991 39.4362 15.1968C39.5296 15.2591 39.6496 15.2635 39.7429 15.2235Z" fill="#6D4C41"/>
<path d="M47.404 17.5745C47.9465 17.5745 48.3862 17.1189 48.3862 16.5568C48.3862 15.9947 47.9465 15.5391 47.404 15.5391C46.8616 15.5391 46.4219 15.9947 46.4219 16.5568C46.4219 17.1189 46.8616 17.5745 47.404 17.5745Z" fill="#404040"/>
<path d="M40.865 17.5745C41.4074 17.5745 41.8472 17.1189 41.8472 16.5568C41.8472 15.9947 41.4074 15.5391 40.865 15.5391C40.3225 15.5391 39.8828 15.9947 39.8828 16.5568C39.8828 17.1189 40.3225 17.5745 40.865 17.5745Z" fill="#404040"/>
<path d="M42.5596 20.0325C43.1951 20.4103 45.2706 20.4103 45.9061 20.0325C46.2705 19.8148 46.6438 20.1481 46.4927 20.4769C46.3416 20.8058 45.2128 21.5569 44.2306 21.5569C43.2485 21.5569 42.133 20.8014 41.9819 20.4769C41.8263 20.1481 42.1952 19.8192 42.5596 20.0325Z" fill="#795548"/>
<path d="M43.4628 18.4357C43.485 18.4269 43.5028 18.4224 43.525 18.418H44.9338C44.9561 18.4224 44.9738 18.4269 44.9961 18.4357C45.1249 18.4846 45.1961 18.618 45.1338 18.7602C45.0761 18.9024 44.7916 19.2979 44.2317 19.2979C43.6717 19.2979 43.3873 18.9024 43.3295 18.7602C43.2628 18.6224 43.3384 18.4891 43.4628 18.4357Z" fill="#E59600"/>
<path d="M44.2449 5.83984C44.2404 5.83984 44.2449 5.83984 44.2449 5.83984C44.2404 5.83984 44.2404 5.83984 44.2404 5.83984C35.5876 5.88429 37.3608 15.7682 37.3608 15.7682C37.3608 15.7682 38.3341 17.4792 38.3296 17.4437C38.2985 16.0615 38.8496 13.6172 39.2451 12.5773C39.4407 12.0528 39.9873 11.7462 40.5384 11.8484C41.3873 11.9995 42.7383 12.1906 44.2271 12.1906C44.2316 12.1906 44.236 12.1906 44.2449 12.1906C44.2493 12.1906 44.2538 12.1906 44.2627 12.1906C45.7515 12.1906 47.1025 11.9995 47.9514 11.8484C48.5024 11.7462 49.0491 12.0528 49.2446 12.5773C49.6357 13.6172 50.1912 16.0615 50.1601 17.4437C50.1601 17.4792 51.129 15.7682 51.129 15.7682C51.129 15.7682 52.8978 5.88429 44.2449 5.83984Z" fill="#543930"/>
<path d="M51.1283 15.7682C51.1283 15.7682 52.9015 5.88429 44.2486 5.83984C44.2486 5.83984 44.2486 5.83984 44.2442 5.83984C44.2442 5.83984 44.2442 5.83984 44.2397 5.83984C44.1064 5.83984 43.9731 5.84429 43.8442 5.84873C43.5864 5.86206 43.3376 5.87984 43.0976 5.90651C43.0976 5.90651 43.0931 5.90651 43.0887 5.90651C43.0709 5.91095 43.0576 5.91095 43.0398 5.91095C35.7602 6.8309 37.3601 15.7682 37.3601 15.7682C37.3601 15.7682 38.3334 17.4792 38.3289 17.4437C38.2978 16.0615 38.8489 13.6172 39.2444 12.5773C39.44 12.0528 39.9866 11.7462 40.5377 11.8484C41.3866 11.9995 42.7376 12.1906 44.2264 12.1906C44.2309 12.1906 44.2353 12.1906 44.2442 12.1906C44.2486 12.1906 44.2531 12.1906 44.262 12.1906C45.7508 12.1906 47.1018 11.9995 47.9507 11.8484C48.5017 11.7462 49.0484 12.0528 49.2439 12.5773C49.635 13.6172 50.1905 16.0615 50.1594 17.4437C50.155 17.4792 51.1283 15.7682 51.1283 15.7682Z" fill="url(#paint4_radial_782_32838)"/>
<path d="M13.5547 37.2168V58.5845H16.0657L19.5633 41.6032C19.581 41.4966 19.6699 41.421 19.7677 41.421C19.8655 41.421 19.9543 41.4966 19.9721 41.6032L23.4697 58.5845H25.9807V37.2168H13.5547Z" fill="#7C7C7C"/>
<path d="M14.8654 59.1582H12.8877C12.5233 59.1493 12.2611 58.7316 12.3678 58.3672C12.6966 57.2561 13.6966 56.4473 14.8654 56.4473C16.0565 56.4473 17.0697 57.2917 17.3808 58.4294C17.4786 58.7938 17.2075 59.1538 16.8431 59.1538C16.8431 59.1582 14.8654 59.1582 14.8654 59.1582Z" fill="#424242"/>
<path d="M24.6762 59.1582H26.6539C27.0183 59.1493 27.2805 58.7316 27.1738 58.3672C26.845 57.2561 25.845 56.4473 24.6762 56.4473C23.4851 56.4473 22.4719 57.2917 22.1608 58.4294C22.063 58.7938 22.3341 59.1538 22.6985 59.1538C22.6985 59.1582 24.6762 59.1582 24.6762 59.1582Z" fill="#424242"/>
<path d="M15.971 28.085L11.6601 27.8184C11.6601 27.8184 9.66021 32.2626 8.99358 33.7425C8.99358 33.7425 7.10923 36.5512 6.2515 37.8178C5.41599 38.6711 5.20267 38.9822 4.90046 40.1244C4.56715 41.3821 4.72269 42.0709 4.88268 42.3731C5.04268 42.6753 5.88263 43.4664 6.4026 42.9864C6.95369 42.4753 6.91369 40.6665 7.42922 40.791C7.69587 40.8576 7.35811 41.3954 7.327 41.9287C7.29589 42.462 7.70476 42.5553 7.99363 42.4087C8.14029 42.3331 8.81581 41.2043 8.81581 41.2043L9.10468 39.3333L15.8288 29.8938L15.971 28.085Z" fill="url(#paint5_linear_782_32838)"/>
<path d="M24.3906 29.5858L30.6792 40.0341C30.6792 40.0341 29.9992 41.1985 30.5059 42.2162C31.2169 42.7273 31.5369 41.2074 31.8125 41.1674C32.3413 41.0874 33.1813 43.1939 33.7412 43.1939C34.8123 43.6561 35.31 42.2251 35.3278 41.3807C35.7322 39.9097 32.9413 38.3631 32.9413 38.3631C32.1947 37.0298 30.8658 34.0078 30.8658 34.0078C30.3281 32.4745 28.7237 27.8748 28.7237 27.8748L24.4084 27.7637L24.3906 29.5858Z" fill="url(#paint6_linear_782_32838)"/>
<path d="M19.8411 5.82422C11.7615 5.82422 11.8281 13.2949 11.8281 13.4149C11.8281 18.2547 12.197 25.0898 14.1347 27.7786C14.9035 28.8452 16.3879 28.903 16.3879 28.903L19.7299 28.8985L23.072 28.903C23.072 28.903 24.5564 28.8452 25.3252 27.7786C27.2629 25.0898 27.6318 18.2547 27.6318 13.4149C27.6318 13.2949 27.9206 5.82422 19.8411 5.82422Z" fill="#543930"/>
<path d="M19.8411 5.82422C11.7615 5.82422 11.8281 13.2949 11.8281 13.4149C11.8281 18.2547 12.197 25.0898 14.1347 27.7786C14.9035 28.8452 16.3879 28.903 16.3879 28.903L19.7299 28.8985L23.072 28.903C23.072 28.903 24.5564 28.8452 25.3252 27.7786C27.2629 25.0898 27.6318 18.2547 27.6318 13.4149C27.6318 13.2949 27.9206 5.82422 19.8411 5.82422Z" fill="url(#paint7_radial_782_32838)"/>
<path d="M24.4707 23.9966C23.3952 23.7121 21.5153 23.5255 19.7376 23.5255C17.96 23.521 16.0978 23.7121 15.0223 23.9966C11.667 24.8898 10.8359 26.4675 9.83594 29.174L13.5157 30.5962V38.7202H25.9595V30.5962L29.6793 29.174C28.6749 26.4675 27.8217 24.8898 24.4707 23.9966Z" fill="url(#paint8_linear_782_32838)"/>
<path d="M19.7422 22.1445H21.9643V24.5C21.9643 25.5666 21.0621 26.4287 19.9422 26.4287H19.5377C18.4222 26.4287 17.5156 25.5666 17.5156 24.5V22.1445H19.7422Z" fill="#E59600"/>
<path d="M19.7473 7.76758C23.1382 7.76758 26.2758 10.2874 26.2758 15.6338C26.2758 19.9269 23.6182 22.469 21.3028 23.2867C20.7517 23.4823 20.2184 23.58 19.7473 23.58C19.2762 23.58 18.7473 23.4823 18.2007 23.2912C15.8853 22.4779 13.2188 19.9358 13.2188 15.6338C13.2187 10.2874 16.3564 7.76758 19.7473 7.76758Z" fill="#FFCA28"/>
<path d="M18.092 20.0392C18.7142 20.408 20.7452 20.408 21.3674 20.0392C21.7229 19.8258 22.0873 20.1503 21.9407 20.4747C21.794 20.7947 20.6874 21.5324 19.7275 21.5324C18.7675 21.5324 17.6742 20.7947 17.5276 20.4747C17.3765 20.1503 17.7365 19.8258 18.092 20.0392Z" fill="#795548"/>
<path d="M18.9591 18.4436C18.9813 18.4347 18.9991 18.4302 19.0213 18.4258H20.399C20.4212 18.4302 20.4434 18.4347 20.4612 18.4436C20.5856 18.4924 20.6567 18.6213 20.5945 18.7635C20.5323 18.9058 20.2612 19.288 19.7101 19.288C19.159 19.288 18.8835 18.9013 18.8257 18.7635C18.768 18.6258 18.8346 18.4969 18.9591 18.4436Z" fill="#E59600"/>
<path d="M22.9053 17.6277C23.4354 17.6277 23.8652 17.182 23.8652 16.6322C23.8652 16.0824 23.4354 15.6367 22.9053 15.6367C22.3751 15.6367 21.9453 16.0824 21.9453 16.6322C21.9453 17.182 22.3751 17.6277 22.9053 17.6277Z" fill="#404040"/>
<path d="M16.5146 17.6277C17.0448 17.6277 17.4746 17.182 17.4746 16.6322C17.4746 16.0824 17.0448 15.6367 16.5146 15.6367C15.9845 15.6367 15.5547 16.0824 15.5547 16.6322C15.5547 17.182 15.9845 17.6277 16.5146 17.6277Z" fill="#404040"/>
<path d="M21.508 14.8533C21.6902 14.6133 22.1124 14.2578 22.9346 14.2578C23.7568 14.2578 24.179 14.6089 24.3612 14.8533C24.4412 14.96 24.4234 15.0844 24.3656 15.16C24.3123 15.2311 24.1612 15.2933 23.9923 15.2355C23.8234 15.1778 23.4901 15.0089 22.939 15.0044C22.3835 15.0089 22.0546 15.1778 21.8858 15.2355C21.7169 15.2933 21.5613 15.2311 21.5124 15.16C21.4458 15.08 21.4236 14.96 21.508 14.8533Z" fill="#6D4C41"/>
<path d="M15.0948 14.8533C15.277 14.6133 15.6992 14.2578 16.5214 14.2578C17.3391 14.2578 17.7658 14.6089 17.948 14.8533C18.028 14.96 18.0102 15.0844 17.9524 15.16C17.8991 15.2311 17.748 15.2933 17.5791 15.2355C17.4103 15.1778 17.0769 15.0089 16.5259 15.0044C15.9703 15.0089 15.6415 15.1778 15.4726 15.2355C15.2948 15.2889 15.1393 15.2266 15.0904 15.1555C15.0326 15.08 15.0104 14.96 15.0948 14.8533Z" fill="#6D4C41"/>
<path d="M19.8489 5.82422C11.7693 5.82422 11.836 13.2949 11.836 13.4149C11.836 14.9437 11.8715 16.6725 11.9826 18.4058L13.307 18.4013C13.2981 17.828 13.6981 14.2682 14.898 14.0015C19.3022 13.0105 21.7954 10.6728 21.7954 10.6728C22.4443 12.0861 24.4708 13.4682 25.1997 13.9927C25.7997 14.4237 25.9819 17.6458 25.9685 18.4013H27.4885C27.4885 18.3924 27.4929 18.3791 27.4929 18.3702C27.604 16.6458 27.6396 14.9304 27.6396 13.4105C27.6396 13.2949 27.9284 5.82422 19.8489 5.82422Z" fill="#543930"/>
<path d="M19.8489 5.82422C11.7693 5.82422 11.836 13.2949 11.836 13.4149C11.836 14.9437 11.8715 16.6725 11.9826 18.4058L13.307 18.4013C13.2981 17.828 13.6981 14.2682 14.898 14.0015C19.3022 13.0105 21.7954 10.6728 21.7954 10.6728C22.4443 12.0861 24.4708 13.4682 25.1997 13.9927C25.7997 14.4237 25.9819 17.6458 25.9685 18.4013H27.4885C27.4885 18.3924 27.4929 18.3791 27.4929 18.3702C27.604 16.6458 27.6396 14.9304 27.6396 13.4105C27.6396 13.2949 27.9284 5.82422 19.8489 5.82422Z" fill="url(#paint9_radial_782_32838)"/>
<path d="M33.4781 42.4377C33.407 42.4066 33.3359 42.3888 33.2559 42.3888C33.2381 42.3888 33.2248 42.3933 33.207 42.3977L33.2292 42.3533C33.3537 42.0777 33.247 41.7489 32.9848 41.6156C32.9137 41.58 32.8381 41.5622 32.7581 41.5622C32.727 41.5622 32.6959 41.5711 32.6648 41.5756C32.7759 41.3089 32.6782 40.9934 32.4293 40.86C32.3537 40.82 32.2737 40.7978 32.1893 40.7978C32.0737 40.7978 31.9626 40.8423 31.8737 40.9134C31.8426 40.7489 31.7449 40.5934 31.5804 40.5089C31.5049 40.4689 31.4249 40.4512 31.3449 40.4512C31.1405 40.4512 30.9582 40.5712 30.8694 40.7623L30.4605 41.6333C30.3316 41.9089 30.4383 42.2511 30.7183 42.3933C30.7938 42.4333 30.8738 42.4511 30.9582 42.4511C31.0427 42.4511 31.1182 42.4244 31.1893 42.3888C31.1938 42.4333 31.1893 42.4777 31.2027 42.5177C31.2471 42.6599 31.336 42.7755 31.4604 42.8422C31.536 42.8821 31.616 42.9044 31.7004 42.9044C31.7938 42.9044 31.8782 42.8777 31.9537 42.8333C31.9804 43.0066 32.0737 43.171 32.2337 43.251C32.3048 43.2866 32.3804 43.3043 32.4604 43.3043C32.5315 43.3043 32.5982 43.2866 32.6559 43.2555C32.6915 43.4243 32.7893 43.5754 32.9448 43.651C33.0159 43.6821 33.087 43.6999 33.167 43.6999C33.3759 43.6999 33.567 43.571 33.6514 43.371L33.7314 43.1844C33.8648 42.9044 33.7448 42.5666 33.4781 42.4377Z" fill="#FFCA28"/>
<path d="M33.5764 42.4029C33.8164 41.6119 32.9275 41.4208 32.9275 41.4208C33.052 40.9719 32.3409 40.4564 31.9009 40.7141C31.2432 40.0564 30.781 40.6563 30.7188 41.0741C30.7188 41.0741 31.0476 40.5719 31.3898 40.7319C31.6209 40.8386 31.6165 41.0608 31.5454 41.2741C31.4343 41.6074 31.3409 41.9452 31.3409 41.9452C31.3409 41.9452 31.5898 41.523 31.8031 41.2519C31.8742 41.1585 32.1009 40.9719 32.3409 41.1052C32.5809 41.2341 32.5853 41.5319 32.5498 41.6385C32.4342 42.0029 32.1365 42.4918 32.1365 42.4918C32.1365 42.4918 32.3587 42.2651 32.5453 42.0518C32.692 41.8829 32.8164 41.7763 33.0386 41.8785C33.2786 41.9896 33.2653 42.2607 33.1942 42.3985C33.0475 42.6918 32.8564 43.0429 32.8564 43.0429C32.8564 43.0429 33.2031 42.514 33.563 42.8118C33.7897 43.0029 33.5897 43.4695 33.6164 43.4429C34.2563 42.794 33.5764 42.4029 33.5764 42.4029Z" fill="#EDA600"/>
<defs>
<linearGradient id="paint0_linear_782_32838" x1="37.7539" y1="28.6711" x2="31.9774" y2="39.5018" gradientUnits="userSpaceOnUse">
<stop stop-color="#FFB300"/>
<stop offset="0.4016" stop-color="#FFCA28"/>
</linearGradient>
<linearGradient id="paint1_linear_782_32838" x1="49.6282" y1="27.8207" x2="58.2761" y2="42.5316" gradientUnits="userSpaceOnUse">
<stop stop-color="#FFB300"/>
<stop offset="0.4007" stop-color="#FFCA28"/>
</linearGradient>
<linearGradient id="paint2_linear_782_32838" x1="33.2612" y1="38.3066" x2="34.7834" y2="35.8191" gradientUnits="userSpaceOnUse">
<stop stop-color="#FFB300"/>
<stop offset="1" stop-color="#FFCA28" stop-opacity="0"/>
</linearGradient>
<linearGradient id="paint3_linear_782_32838" x1="44.2346" y1="23.537" x2="44.2346" y2="38.73" gradientUnits="userSpaceOnUse">
<stop stop-color="#00BFA5"/>
<stop offset="0.7047" stop-color="#00B29A"/>
<stop offset="1" stop-color="#00AB94"/>
</linearGradient>
<radialGradient id="paint4_radial_782_32838" cx="0" cy="0" r="1" gradientUnits="userSpaceOnUse" gradientTransform="translate(44.245 14.1557) scale(7.27166 8.20387)">
<stop offset="0.7945" stop-color="#6D4C41" stop-opacity="0"/>
<stop offset="1" stop-color="#6D4C41"/>
</radialGradient>
<linearGradient id="paint5_linear_782_32838" x1="14.3599" y1="27.815" x2="5.71191" y2="42.526" gradientUnits="userSpaceOnUse">
<stop stop-color="#FFB300"/>
<stop offset="0.3967" stop-color="#FFCA28"/>
</linearGradient>
<linearGradient id="paint6_linear_782_32838" x1="26.2415" y1="27.5455" x2="33.6315" y2="43.0638" gradientUnits="userSpaceOnUse">
<stop stop-color="#FFB300"/>
<stop offset="0.4009" stop-color="#FFCA28"/>
</linearGradient>
<radialGradient id="paint7_radial_782_32838" cx="0" cy="0" r="1" gradientUnits="userSpaceOnUse" gradientTransform="translate(19.7292 16.771) scale(9.36475 11.145)">
<stop offset="0.7936" stop-color="#6D4C41" stop-opacity="0"/>
<stop offset="1" stop-color="#6D4C41"/>
</radialGradient>
<linearGradient id="paint8_linear_782_32838" x1="19.7536" y1="23.5272" x2="19.7536" y2="38.7202" gradientUnits="userSpaceOnUse">
<stop stop-color="#651FFF"/>
<stop offset="0.7047" stop-color="#5914F2"/>
<stop offset="1" stop-color="#530EEB"/>
</linearGradient>
<radialGradient id="paint9_radial_782_32838" cx="0" cy="0" r="1" gradientUnits="userSpaceOnUse" gradientTransform="translate(19.8026 17.565) scale(9.80966 11.904)">
<stop offset="0.7945" stop-color="#6D4C41" stop-opacity="0"/>
<stop offset="1" stop-color="#6D4C41"/>
</radialGradient>
</defs>
</svg>
