<svg width="57" height="56" viewBox="0 0 57 56" fill="none" xmlns="http://www.w3.org/2000/svg">
<path d="M45.9821 43.013C45.3521 41.8619 46.1571 40.6953 47.5298 39.2487C49.7075 36.9505 52.0795 31.6269 49.8786 26.2178C49.8902 26.1867 49.443 25.2767 49.4586 25.2456L48.5486 25.1989C48.257 25.1562 38.2981 25.1367 28.3275 25.1367C18.3569 25.1367 8.39796 25.1562 8.10631 25.1989C8.10631 25.1989 6.76472 26.1867 6.77638 26.2139C4.57539 31.623 6.94749 36.9466 9.12515 39.2449C10.4979 40.6914 11.3028 41.8619 10.6728 43.0091C10.0623 44.1251 8.23853 44.2885 8.23853 44.2885C8.23853 44.2885 8.65851 45.4317 9.67345 46.0462C10.6106 46.6139 11.7617 46.75 12.5589 46.7695C12.5589 46.7695 15.6698 51.0742 23.8049 51.0742H28.3314H32.8578C40.9929 51.0742 44.1039 46.7695 44.1039 46.7695C44.901 46.75 46.0521 46.6178 46.9893 46.0462C48.0042 45.4317 48.4242 44.2885 48.4242 44.2885C48.4242 44.2885 46.5965 44.129 45.9821 43.013Z" fill="#312D2D"/>
<path d="M28.3203 51.0826V46.3034L42.7784 45.1602L44.0928 46.7778C44.0928 46.7778 40.9819 51.0826 32.8467 51.0826H28.3203Z" fill="url(#paint0_radial_782_39690)"/>
<path d="M44.0612 44.6984C41.8952 41.4085 46.6977 40.1836 46.6977 40.1836L46.7016 40.1875C45.8655 41.2258 45.4883 42.1318 45.9783 43.0223C46.5888 44.1384 48.4126 44.3017 48.4126 44.3017C48.4126 44.3017 45.9316 46.5105 44.0612 44.6984Z" fill="url(#paint1_radial_782_39690)"/>
<path d="M49.8886 26.2201C52.039 31.4582 49.7758 36.8518 47.6564 39.1267C47.3648 39.4378 46.1321 40.651 45.8521 41.6154C45.8521 41.6154 41.0224 34.8841 39.5835 30.9254C39.2919 30.1283 39.0275 29.3039 38.9925 28.4561C38.9652 27.8184 39.0663 27.0601 39.4319 26.5196C39.883 25.8546 49.6319 25.6602 49.6319 25.6602C49.6319 25.6679 49.8886 26.2201 49.8886 26.2201Z" fill="url(#paint2_radial_782_39690)"/>
<path d="M6.77709 26.2201C4.63054 31.4582 6.88987 36.8518 9.0092 39.1267C9.30085 39.4378 10.5336 40.651 10.8135 41.6154C10.8135 41.6154 15.6433 34.8841 17.0821 30.9254C17.3738 30.1283 17.6382 29.3039 17.6732 28.4561C17.7004 27.8184 17.5993 27.0601 17.2338 26.5196C16.7827 25.8546 16.2577 26.0335 15.4955 26.0335C14.0373 26.0335 7.65983 25.6602 7.16596 25.6602C7.16596 25.6679 6.77709 26.2201 6.77709 26.2201Z" fill="url(#paint3_radial_782_39690)"/>
<path d="M28.3428 51.0826V46.3034L13.8847 45.1602L12.5703 46.7778C12.5703 46.7778 15.6813 51.0826 23.8164 51.0826H28.3428Z" fill="url(#paint4_radial_782_39690)"/>
<path d="M12.6053 44.6984C14.7713 41.4085 9.96882 40.1836 9.96882 40.1836L9.96493 40.1875C10.801 41.2258 11.1782 42.1318 10.6882 43.0223C10.0777 44.1384 8.25391 44.3017 8.25391 44.3017C8.25391 44.3017 10.7349 46.5105 12.6053 44.6984Z" fill="url(#paint5_radial_782_39690)"/>
<path d="M42.1514 28.1348H38.4221H18.2321H14.5029C11.5202 28.1348 9.08203 30.7324 9.08203 33.9095C9.08203 37.0865 11.5202 39.6841 14.5029 39.6841H18.2321H38.426H42.1553C45.1379 39.6841 47.5761 37.0865 47.5761 33.9095C47.5761 30.7324 45.134 28.1348 42.1514 28.1348Z" fill="#EDC391"/>
<path d="M28.3257 8.2168C19.5218 8.2168 11.3672 17.6313 11.3672 31.1833C11.3672 44.6615 19.7706 51.3228 28.3257 51.3228C36.8808 51.3228 45.2843 44.6615 45.2843 31.1833C45.2843 17.6352 37.1297 8.2168 28.3257 8.2168Z" fill="#F9DDBD"/>
<path d="M30.2816 37.0545C30.2271 37.0312 30.1727 37.0195 30.1182 37.0117H26.5407C26.4862 37.0195 26.4318 37.0312 26.3773 37.0545C26.0546 37.1867 25.8757 37.5211 26.0274 37.8789C26.1829 38.2367 26.8945 39.2399 28.3295 39.2399C29.7644 39.2399 30.476 38.2367 30.6316 37.8789C30.7871 37.5211 30.6082 37.1867 30.2816 37.0545Z" fill="#DBA689"/>
<path d="M32.59 41.1025C30.98 42.0591 25.6953 42.0591 24.0854 41.1025C23.1599 40.5503 22.2149 41.3941 22.5999 42.2341C22.9771 43.0585 25.8586 44.9795 28.3513 44.9795C30.8439 44.9795 33.6866 43.0623 34.0677 42.2341C34.4487 41.3941 33.5155 40.5541 32.59 41.1025Z" fill="#444444"/>
<path d="M20.1217 34.9067C21.479 34.9067 22.5794 33.7663 22.5794 32.3596C22.5794 30.9529 21.479 29.8125 20.1217 29.8125C18.7644 29.8125 17.6641 30.9529 17.6641 32.3596C17.6641 33.7663 18.7644 34.9067 20.1217 34.9067Z" fill="#312D2D"/>
<path d="M36.528 34.9067C37.8853 34.9067 38.9856 33.7663 38.9856 32.3596C38.9856 30.9529 37.8853 29.8125 36.528 29.8125C35.1706 29.8125 34.0703 30.9529 34.0703 32.3596C34.0703 33.7663 35.1706 34.9067 36.528 34.9067Z" fill="#312D2D"/>
<path d="M23.7803 27.7841C23.3136 27.1658 22.2287 26.2637 20.1288 26.2637C18.0289 26.2637 16.944 27.1658 16.4773 27.7841C16.2712 28.0602 16.3218 28.3752 16.4657 28.5658C16.5979 28.7447 16.9906 28.908 17.4262 28.7602C17.8617 28.6124 18.7094 28.173 20.1288 28.1652C21.5482 28.1769 22.3998 28.6124 22.8314 28.7602C23.2631 28.908 23.6597 28.7447 23.7919 28.5658C23.9358 28.3752 23.9864 28.0602 23.7803 27.7841Z" fill="#454140"/>
<path d="M40.1982 27.7841C39.7316 27.1658 38.6467 26.2637 36.5468 26.2637C34.4469 26.2637 33.3619 27.1658 32.8953 27.7841C32.6892 28.0602 32.7397 28.3752 32.8836 28.5658C33.0158 28.7447 33.4086 28.908 33.8441 28.7602C34.2797 28.6124 35.1274 28.173 36.5468 28.1652C37.9661 28.1769 38.8178 28.6124 39.2494 28.7602C39.6849 28.908 40.0777 28.7447 40.2099 28.5658C40.3499 28.3752 40.4043 28.0602 40.1982 27.7841Z" fill="#454140"/>
<path d="M48.5996 15.3179C47.363 13.4474 44.5982 10.9431 42.1133 10.7798C41.7167 8.39211 39.1579 6.37 36.6847 5.58449C29.9923 3.46515 25.6331 5.84114 23.296 7.11663C22.8099 7.38106 19.6678 9.12319 17.4707 7.87492C16.0941 7.09329 16.1214 4.97396 16.1214 4.97396C16.1214 4.97396 11.8088 6.61499 13.2826 11.1959C11.801 11.2581 9.85668 11.8803 8.83007 13.9607C7.60513 16.4378 8.04067 18.5105 8.39454 19.5021C7.11905 20.5831 5.51691 22.8891 6.61741 25.8795C7.4457 28.1311 10.7511 29.1654 10.7511 29.1654C10.5178 33.2175 11.2722 35.714 11.6727 36.7212C11.7427 36.8961 11.9955 36.8806 12.0382 36.6978C12.536 34.6913 14.247 27.6955 14.0759 26.4745C14.0759 26.4745 19.8156 25.3351 25.2909 21.3064C26.4069 20.4859 27.6124 19.786 28.8957 19.2765C35.7709 16.5389 37.2097 21.2092 37.2097 21.2092C37.2097 21.2092 41.9733 20.2954 43.4121 26.9139C43.9527 29.3949 44.3182 33.3652 44.6254 36.1417C44.6487 36.3362 44.9132 36.379 44.9909 36.1962C45.4731 35.0957 46.4336 32.9064 46.6631 30.6782C46.7447 29.8926 48.8602 28.8544 49.7662 25.4868C50.9873 20.9876 49.4901 16.6672 48.5996 15.3179Z" fill="#312D2D"/>
<path d="M46.654 30.6972C46.7356 29.9117 48.8511 28.8734 49.7571 25.5058C49.8544 25.1481 49.936 24.7825 50.0099 24.417C50.7488 20.3222 49.4227 16.5658 48.5983 15.3214C47.455 13.5948 45.0052 11.3277 42.6797 10.865C42.4775 10.8377 42.2792 10.8144 42.0926 10.8027C42.0926 10.8027 42.2598 11.8877 41.8203 12.7549C41.2526 13.8787 40.0977 14.1431 40.0977 14.1431C46.1601 20.2056 45.7285 25.2764 46.654 30.6972Z" fill="url(#paint6_radial_782_39690)"/>
<path d="M24.763 6.34731C24.2108 6.61563 23.7208 6.88395 23.297 7.11338C22.8109 7.37781 19.6688 9.11994 17.4717 7.87168C16.1184 7.10172 16.1184 5.04849 16.1223 4.97461C15.5001 5.7679 13.618 11.4415 19.1205 11.8187C21.4926 11.982 22.9586 9.91324 23.8219 8.15944C24.1369 7.52558 24.6308 6.59619 24.763 6.34731Z" fill="url(#paint7_radial_782_39690)"/>
<path d="M35.9992 5.37785C39.7012 6.38113 41.5095 8.26325 42.1122 10.7831C42.2911 11.522 42.5011 18.4127 29.3457 10.5809C24.4537 7.66828 25.7875 5.84449 26.3631 5.63839C28.599 4.82566 31.85 4.25402 35.9992 5.37785Z" fill="url(#paint8_radial_782_39690)"/>
<path d="M16.104 4.97653C16.0962 4.98042 16.0884 4.9843 16.0728 4.98819H16.069C15.5984 5.18652 11.8964 6.89754 13.2808 11.1868L17.22 11.8206C13.7357 8.29357 16.1195 4.96875 16.1195 4.96875C16.1195 4.96875 16.1117 4.97264 16.104 4.97653Z" fill="url(#paint9_radial_782_39690)"/>
<path d="M15.7221 11.5842L13.2878 11.1914C13.1944 11.1914 12.8678 11.2225 12.6928 11.2458C11.324 11.4364 9.70627 12.1441 8.83521 13.9601C7.89415 15.9123 7.92137 17.5883 8.17413 18.7082C8.24802 19.0854 8.39968 19.5054 8.39968 19.5054C8.39968 19.5054 9.60517 18.3621 12.4711 18.2882L15.7221 11.5842Z" fill="url(#paint10_radial_782_39690)"/>
<path d="M8.2786 19.5995C7.08089 20.665 5.46319 23.0371 6.65702 25.977C7.55531 28.1974 10.7518 29.1618 10.7518 29.1618C10.7518 29.1734 11.3895 29.3601 11.7201 29.3601L12.4667 18.2812C10.9346 18.2812 9.46465 18.7401 8.51192 19.4012C8.5197 19.4245 8.27471 19.584 8.2786 19.5995Z" fill="url(#paint11_radial_782_39690)"/>
<defs>
<radialGradient id="paint0_radial_782_39690" cx="0" cy="0" r="1" gradientUnits="userSpaceOnUse" gradientTransform="translate(35.7021 44.1822) scale(11.8483 5.81989)">
<stop offset="0.7275" stop-color="#454140" stop-opacity="0"/>
<stop offset="1" stop-color="#454140"/>
</radialGradient>
<radialGradient id="paint1_radial_782_39690" cx="0" cy="0" r="1" gradientUnits="userSpaceOnUse" gradientTransform="translate(47.3758 42.4243) rotate(154.924) scale(3.50131 2.59747)">
<stop offset="0.6628" stop-color="#454140"/>
<stop offset="1" stop-color="#454140" stop-opacity="0"/>
</radialGradient>
<radialGradient id="paint2_radial_782_39690" cx="0" cy="0" r="1" gradientUnits="userSpaceOnUse" gradientTransform="translate(38.2997 32.5177) rotate(-94.2783) scale(15.3796 12.8179)">
<stop offset="0.7247" stop-color="#454140" stop-opacity="0"/>
<stop offset="1" stop-color="#454140"/>
</radialGradient>
<radialGradient id="paint3_radial_782_39690" cx="0" cy="0" r="1" gradientUnits="userSpaceOnUse" gradientTransform="translate(18.3658 32.5175) rotate(-85.7217) scale(15.3796 12.8179)">
<stop offset="0.7247" stop-color="#454140" stop-opacity="0"/>
<stop offset="1" stop-color="#454140"/>
</radialGradient>
<radialGradient id="paint4_radial_782_39690" cx="0" cy="0" r="1" gradientUnits="userSpaceOnUse" gradientTransform="translate(20.9605 44.1822) rotate(180) scale(11.8483 5.81989)">
<stop offset="0.7275" stop-color="#454140" stop-opacity="0"/>
<stop offset="1" stop-color="#454140"/>
</radialGradient>
<radialGradient id="paint5_radial_782_39690" cx="0" cy="0" r="1" gradientUnits="userSpaceOnUse" gradientTransform="translate(9.29115 42.4247) rotate(25.0761) scale(3.50131 2.59747)">
<stop offset="0.6628" stop-color="#454140"/>
<stop offset="1" stop-color="#454140" stop-opacity="0"/>
</radialGradient>
<radialGradient id="paint6_radial_782_39690" cx="0" cy="0" r="1" gradientUnits="userSpaceOnUse" gradientTransform="translate(37.4461 24.3966) rotate(72.0851) scale(18.0273 13.3759)">
<stop offset="0.6985" stop-color="#454140" stop-opacity="0"/>
<stop offset="1" stop-color="#454140"/>
</radialGradient>
<radialGradient id="paint7_radial_782_39690" cx="0" cy="0" r="1" gradientUnits="userSpaceOnUse" gradientTransform="translate(19.87 4.7342) rotate(28.2026) scale(4.72679 5.60459)">
<stop offset="0.58" stop-color="#454140"/>
<stop offset="1" stop-color="#454140" stop-opacity="0"/>
</radialGradient>
<radialGradient id="paint8_radial_782_39690" cx="0" cy="0" r="1" gradientUnits="userSpaceOnUse" gradientTransform="translate(30.4354 13.3219) rotate(-157.19) scale(14.7831 8.30813)">
<stop offset="0.6985" stop-color="#454140" stop-opacity="0"/>
<stop offset="1" stop-color="#454140"/>
</radialGradient>
<radialGradient id="paint9_radial_782_39690" cx="0" cy="0" r="1" gradientUnits="userSpaceOnUse" gradientTransform="translate(17.9692 9.04835) scale(4.3386 5.30741)">
<stop offset="0.7016" stop-color="#454140" stop-opacity="0"/>
<stop offset="1" stop-color="#454140"/>
</radialGradient>
<radialGradient id="paint10_radial_782_39690" cx="0" cy="0" r="1" gradientUnits="userSpaceOnUse" gradientTransform="translate(17.3791 16.7072) rotate(-164.942) scale(8.13737 7.61509)">
<stop offset="0.6605" stop-color="#454140" stop-opacity="0"/>
<stop offset="1" stop-color="#454140"/>
</radialGradient>
<radialGradient id="paint11_radial_782_39690" cx="0" cy="0" r="1" gradientUnits="userSpaceOnUse" gradientTransform="translate(15.4455 24.5646) rotate(7.83354) scale(8.54317 12.0046)">
<stop offset="0.5981" stop-color="#454140" stop-opacity="0"/>
<stop offset="1" stop-color="#454140"/>
</radialGradient>
</defs>
</svg>
