<svg width="40" height="31" viewBox="0 0 40 31" fill="none" xmlns="http://www.w3.org/2000/svg">
<g id="Group">
<g id="Group_2">
<g id="Group_3">
<g id="Group_4">
<path id="Vector" d="M10.026 29.6717C4.88291 29.6717 0.703125 23.3142 0.703125 15.4999C0.703125 7.68559 4.88624 1.32812 10.026 1.32812C15.1657 1.32812 19.3488 7.68559 19.3488 15.4999C19.3488 23.3142 15.1657 29.6717 10.026 29.6717Z" fill="#FAFAFA"/>
<path id="Vector_2" d="M10.0364 1.99366C12.2462 1.99366 14.3628 3.32716 15.9927 5.75079C17.7326 8.33445 18.6926 11.7982 18.6926 15.4987C18.6926 19.1991 17.7326 22.6629 15.9927 25.2466C14.3628 27.6702 12.2462 29.0037 10.0364 29.0037C7.82647 29.0037 5.70991 27.6702 4.08 25.2466C2.33676 22.6629 1.38014 19.1991 1.38014 15.4987C1.38014 11.7982 2.34009 8.33445 4.08 5.75079C5.70991 3.32716 7.82313 1.99366 10.0364 1.99366ZM10.0364 0.660156C4.51997 0.660156 0.046875 7.30432 0.046875 15.4987C0.046875 23.693 4.51997 30.3372 10.0364 30.3372C15.5527 30.3372 20.0258 23.693 20.0258 15.4987C20.0258 7.30432 15.5527 0.660156 10.0364 0.660156Z" fill="#B0BEC5"/>
</g>
<path id="Vector_3" d="M7.20118 14.113C6.30122 13.2664 6.50121 11.5865 7.65449 10.3599C7.71448 10.2965 7.77448 10.2365 7.83781 10.1799C7.3245 9.88989 6.7612 9.72656 6.1679 9.72656C3.77136 9.72656 1.82812 12.3698 1.82812 15.6263C1.82812 18.8827 3.77136 21.5259 6.1679 21.5259C8.56444 21.5259 10.5077 18.8827 10.5077 15.6263C10.5077 15.0429 10.4443 14.4763 10.3277 13.943C9.24774 14.7196 7.9578 14.823 7.20118 14.113Z" fill="url(#paint0_linear_839_5556)"/>
</g>
</g>
<g id="Group_5">
<g id="Group_6">
<path id="Vector_4" d="M29.9348 30.3372C35.4518 30.3372 39.9243 23.6938 39.9243 15.4987C39.9243 7.30359 35.4518 0.660156 29.9348 0.660156C24.4178 0.660156 19.9453 7.30359 19.9453 15.4987C19.9453 23.6938 24.4178 30.3372 29.9348 30.3372Z" fill="#EEEEEE"/>
<g id="Group_7">
<path id="Vector_5" d="M29.9244 29.6717C24.7847 29.6717 20.6016 23.3142 20.6016 15.4999C20.6016 7.68559 24.7847 1.32812 29.9244 1.32812C35.0641 1.32812 39.2472 7.68559 39.2472 15.4999C39.2472 23.3142 35.0675 29.6717 29.9244 29.6717Z" fill="#FAFAFA"/>
<path id="Vector_6" d="M29.9348 1.99366C32.1447 1.99366 34.2612 3.32716 35.8911 5.75079C37.6311 8.33445 38.591 11.7982 38.591 15.4987C38.591 19.1991 37.6311 22.6629 35.8911 25.2466C34.2612 27.6702 32.1447 29.0037 29.9348 29.0037C27.7249 29.0037 25.6084 27.6702 23.9784 25.2466C22.2385 22.6629 21.2786 19.1991 21.2786 15.4987C21.2786 11.7982 22.2385 8.33445 23.9784 5.75079C25.6084 3.32716 27.7249 1.99366 29.9348 1.99366ZM29.9348 0.660156C24.4184 0.660156 19.9453 7.30432 19.9453 15.4987C19.9453 23.693 24.4184 30.3372 29.9348 30.3372C35.4512 30.3372 39.9243 23.693 39.9243 15.4987C39.9243 7.30432 35.4512 0.660156 29.9348 0.660156Z" fill="#B0BEC5"/>
</g>
<path id="Vector_7" d="M27.0918 14.113C26.1918 13.2664 26.3918 11.5865 27.5451 10.3599C27.6051 10.2965 27.6651 10.2365 27.7284 10.1799C27.2151 9.88989 26.6518 9.72656 26.0585 9.72656C23.662 9.72656 21.7188 12.3698 21.7188 15.6262C21.7188 18.8827 23.662 21.5259 26.0585 21.5259C28.4551 21.5259 30.3983 18.8827 30.3983 15.6262C30.3983 15.0429 30.335 14.4763 30.2183 13.943C29.1417 14.7196 27.8484 14.823 27.0918 14.113Z" fill="url(#paint1_linear_839_5556)"/>
</g>
</g>
</g>
<defs>
<linearGradient id="paint0_linear_839_5556" x1="6.16566" y1="9.7252" x2="6.16566" y2="21.5269" gradientUnits="userSpaceOnUse">
<stop stop-color="#424242"/>
<stop offset="1" stop-color="#212121"/>
</linearGradient>
<linearGradient id="paint1_linear_839_5556" x1="26.0583" y1="9.7252" x2="26.0583" y2="21.5269" gradientUnits="userSpaceOnUse">
<stop stop-color="#424242"/>
<stop offset="1" stop-color="#212121"/>
</linearGradient>
</defs>
</svg>
