<svg width="32" height="41" viewBox="0 0 32 41" fill="none" xmlns="http://www.w3.org/2000/svg">
<path d="M6.52025 12.7435C6.33023 14.7705 6.19688 18.3576 7.39369 19.8844C7.39369 19.8844 6.83029 15.9439 11.8809 11C13.9145 9.00973 14.3846 6.30273 13.6745 4.27247C13.2711 3.12233 12.5343 2.17221 11.8943 1.50879C11.5209 1.11874 11.8076 0.475328 12.351 0.498664C15.6381 0.64535 20.9654 1.5588 23.229 7.23951C24.2225 9.73316 24.2958 12.3101 23.8224 14.9305C23.5224 16.604 22.4556 20.3245 24.8892 20.7812C26.6261 21.1079 27.4662 19.7277 27.8429 18.7343C27.9996 18.3209 28.543 18.2176 28.8364 18.5476C31.7701 21.8847 32.0201 25.8152 31.4134 29.1989C30.2399 35.7398 23.6157 40.5004 17.0349 40.5004C8.81387 40.5004 2.26972 35.7964 0.572838 27.282C-0.110581 23.8449 0.23613 17.0441 5.53679 12.2435C5.93018 11.8834 6.57359 12.2035 6.52025 12.7435Z" fill="url(#paint0_radial_845_1688)"/>
<path d="M20.0436 24.9783C17.0132 21.0778 18.37 16.6272 19.1135 14.8537C19.2135 14.6203 18.9468 14.4003 18.7368 14.5436C17.4333 15.4304 14.7629 17.5173 13.5194 20.4544C11.8359 24.4249 11.9559 26.3684 12.9527 28.7421C13.5528 30.1723 12.856 30.4756 12.506 30.529C12.1659 30.5823 11.8526 30.3556 11.6025 30.1189C10.8858 29.4355 10.369 28.5454 10.1223 27.5853C10.069 27.3786 9.79897 27.3219 9.67562 27.4919C8.74217 28.7821 8.25877 30.8523 8.23544 32.3159C8.16209 36.8398 11.8992 40.5069 16.4198 40.5069C22.1172 40.5069 26.2677 34.2061 22.9939 28.9388C22.0438 27.4052 21.1504 26.4018 20.0436 24.9783Z" fill="url(#paint1_radial_845_1688)"/>
<defs>
<radialGradient id="paint0_radial_845_1688" cx="0" cy="0" r="1" gradientUnits="userSpaceOnUse" gradientTransform="translate(15.4067 40.604) rotate(-179.751) scale(23.5322 38.6116)">
<stop offset="0.3144" stop-color="#FF9800"/>
<stop offset="0.6616" stop-color="#FF6D00"/>
<stop offset="0.9715" stop-color="#F44336"/>
</radialGradient>
<radialGradient id="paint1_radial_845_1688" cx="0" cy="0" r="1" gradientUnits="userSpaceOnUse" gradientTransform="translate(16.7331 17.1903) rotate(90.5787) scale(24.6219 18.5298)">
<stop offset="0.2141" stop-color="#FFF176"/>
<stop offset="0.3275" stop-color="#FFF27D"/>
<stop offset="0.4868" stop-color="#FFF48F"/>
<stop offset="0.6722" stop-color="#FFF7AD"/>
<stop offset="0.7931" stop-color="#FFF9C4"/>
<stop offset="0.8221" stop-color="#FFF8BD" stop-opacity="0.804"/>
<stop offset="0.8627" stop-color="#FFF6AB" stop-opacity="0.529"/>
<stop offset="0.9101" stop-color="#FFF38D" stop-opacity="0.2088"/>
<stop offset="0.9409" stop-color="#FFF176" stop-opacity="0"/>
</radialGradient>
</defs>
</svg>
