<svg width="32" height="32" viewBox="0 0 32 32" fill="none" xmlns="http://www.w3.org/2000/svg">
<path d="M9.68537 10.8316C9.55869 12.1829 9.46979 14.5743 10.2677 15.5922C10.2677 15.5922 9.89207 12.9652 13.2592 9.66926C14.6149 8.34243 14.9283 6.53776 14.4549 5.18425C14.1859 4.41749 13.6948 3.78408 13.268 3.3418C13.0191 3.08177 13.2103 2.65282 13.5725 2.66838C15.7639 2.76617 19.3155 3.37514 20.8245 7.16228C21.4868 8.82471 21.5357 10.5427 21.2201 12.2896C21.0201 13.4053 20.3089 15.8856 21.9313 16.1901C23.0893 16.4079 23.6493 15.4878 23.9005 14.8255C24.0049 14.5499 24.3672 14.481 24.5628 14.701C26.5186 16.9257 26.6853 19.5461 26.2808 21.8019C25.4985 26.1624 21.0824 29.3362 16.6951 29.3362C11.2145 29.3362 6.85169 26.2002 5.72043 20.524C5.26482 18.2326 5.49596 13.6987 9.02974 10.4983C9.29199 10.2582 9.72093 10.4716 9.68537 10.8316Z" fill="url(#paint0_radial_781_16035)"/>
<path d="M18.6931 18.9849C16.6729 16.3845 17.5774 13.4175 18.073 12.2351C18.1397 12.0795 17.9619 11.9329 17.8219 12.0284C16.9529 12.6196 15.1727 14.0109 14.3437 15.9689C13.2213 18.6159 13.3013 19.9116 13.9659 21.4941C14.3659 22.4475 13.9014 22.6498 13.668 22.6853C13.4413 22.7209 13.2324 22.5698 13.0657 22.412C12.5879 21.9563 12.2434 21.3629 12.079 20.7229C12.0434 20.5851 11.8634 20.5473 11.7811 20.6606C11.1588 21.5207 10.8366 22.9009 10.821 23.8766C10.7721 26.8925 13.2635 29.3373 16.2773 29.3373C20.0755 29.3373 22.8425 25.1367 20.66 21.6252C20.0266 20.6028 19.431 19.9339 18.6931 18.9849Z" fill="url(#paint1_radial_781_16035)"/>
<defs>
<radialGradient id="paint0_radial_781_16035" cx="0" cy="0" r="1" gradientUnits="userSpaceOnUse" gradientTransform="translate(15.6097 29.4053) rotate(-179.751) scale(15.6881 25.7411)">
<stop offset="0.3144" stop-color="#FF9800"/>
<stop offset="0.6616" stop-color="#FF6D00"/>
<stop offset="0.9715" stop-color="#F44336"/>
</radialGradient>
<radialGradient id="paint1_radial_781_16035" cx="0" cy="0" r="1" gradientUnits="userSpaceOnUse" gradientTransform="translate(16.4861 13.7928) rotate(90.5787) scale(16.4146 12.3532)">
<stop offset="0.2141" stop-color="#FFF176"/>
<stop offset="0.3275" stop-color="#FFF27D"/>
<stop offset="0.4868" stop-color="#FFF48F"/>
<stop offset="0.6722" stop-color="#FFF7AD"/>
<stop offset="0.7931" stop-color="#FFF9C4"/>
<stop offset="0.8221" stop-color="#FFF8BD" stop-opacity="0.804"/>
<stop offset="0.8627" stop-color="#FFF6AB" stop-opacity="0.529"/>
<stop offset="0.9101" stop-color="#FFF38D" stop-opacity="0.2088"/>
<stop offset="0.9409" stop-color="#FFF176" stop-opacity="0"/>
</radialGradient>
</defs>
</svg>
