<svg width="64" height="65" viewBox="0 0 64 65" fill="none" xmlns="http://www.w3.org/2000/svg">
<path d="M10.8511 18.1582C10.8511 18.1582 7.9841 18.3849 7.60183 19.0294C7.21511 19.6739 7.19289 20.6652 7.19289 21.7542C7.19289 22.8477 7.14844 25.3547 7.14844 25.3547L7.83297 26.826C7.83297 26.826 7.96187 45.5794 7.96187 46.1617C7.96187 46.7396 7.96187 47.4463 8.79753 47.8953C9.63319 48.3442 30.8714 58.6033 31.5337 58.8789C32.5338 59.2923 33.0094 59.1367 33.0094 59.1367L56.608 19.6695C56.608 19.6695 56.5324 18.5894 55.55 18.3316C54.9855 18.1893 10.8511 18.1582 10.8511 18.1582Z" fill="#F5B03E"/>
<path d="M32.7487 31.1368C32.3886 32.128 32.5531 42.3782 32.6153 49.8325C32.6776 57.2823 32.4242 58.8247 32.6153 59.0825C32.8065 59.3403 33.3265 59.0914 34.7978 58.438C37.5315 57.229 50.662 50.7304 51.6266 50.1525C52.5912 49.5747 54.947 48.379 55.3337 47.7344C55.7204 47.0899 55.9294 41.0936 56.0583 36.2797C56.1872 31.4613 56.3161 27.6075 56.3161 27.6075L56.8939 25.8739C56.8939 25.8739 56.7695 21.1889 56.7472 20.6733C56.7072 19.8198 56.6139 19.3798 56.3961 19.4864C56.0849 19.6331 53.489 21.7623 46.6171 25.1049C42.301 27.1985 32.9976 30.4523 32.7487 31.1368Z" fill="#E07F14"/>
<path d="M32.8017 9.03901C30.877 8.95011 25.6097 11.9949 20.5335 13.6618C15.4573 15.3287 7.79415 18.6802 7.72747 18.8758C7.66524 19.0669 10.8123 20.476 12.8214 21.4406C15.2084 22.5829 24.3207 26.899 25.9875 27.6058C27.6589 28.3125 31.6416 29.9661 32.2817 29.9172C33.1795 29.855 41.6606 26.5123 45.9634 24.4587C50.2661 22.4051 55.6446 19.2225 55.7157 18.4491C55.7468 18.1024 47.8036 15.1376 43.8431 13.3462C36.1977 9.88356 34.2108 9.10569 32.8017 9.03901Z" fill="#FDD717"/>
<path d="M7.16056 26.1768C7.22723 27.0123 7.68507 27.31 8.84966 27.8167C10.0143 28.3233 32.0303 39.7583 32.5371 39.7583C33.0438 39.7583 33.1949 37.945 32.6393 37.9939C32.337 38.0206 25.105 34.5852 18.3486 31.1543C12.6146 28.2478 7.125 25.3457 7.125 25.3457L7.16056 26.1768Z" fill="#E37D14"/>
<path d="M56.9055 25.832C56.9055 25.832 33.3959 37.787 33.1647 37.9025C32.9336 38.0181 32.5647 37.9781 32.5647 37.9781L32.5469 39.7602C32.5469 39.7602 32.7647 39.8091 33.0092 39.7335C33.1514 39.6891 56.2254 27.7475 56.3276 27.7119C56.4299 27.6764 56.8744 27.4097 56.9677 26.8453C57.0477 26.392 56.9055 25.832 56.9055 25.832Z" fill="#BA5E0D"/>
<path d="M16.3905 47.3595L20.9911 54.2048L23.0046 54.8937C23.0046 54.8937 23.1691 47.4261 23.2358 41.8921C23.3291 33.8066 23.2936 26.4324 23.4091 26.0146C23.6003 25.3078 32.5481 22.4052 32.5481 22.4052C32.5481 22.4052 42.656 25.5745 42.976 26.2812C43.1183 26.5924 43.0071 31.8286 42.976 37.9316C42.936 45.6392 42.9494 54.5381 42.9494 54.5381C42.9494 54.5381 43.9939 54.5337 44.1184 54.147C44.2473 53.7603 44.7629 50.7777 44.7629 50.7777L48.6834 24.6455L50.6748 22.0763L47.91 16.8134L36.5663 11.2305L32.6681 12.1061L28.4498 11.4616L15.0703 21.0762L16.6305 24.241L20.4577 26.1923L16.3905 47.3595Z" fill="#AF0F1B"/>
<path d="M21.9272 25.4334C22.0739 25.5935 21.8339 54.3526 21.5361 54.4193C21.3006 54.4771 15.9453 52.0857 15.9453 51.8412C15.9453 51.5967 16.3764 24.1133 16.3764 24.1133C16.3764 24.1133 21.4917 24.9445 21.9272 25.4334Z" fill="#FF2A23"/>
<path d="M44.1355 26.0069C43.8911 26.5448 44.0333 54.2594 44.0333 54.2594C44.0333 54.2594 45.2555 53.5837 46.8287 52.8281C48.3931 52.0769 49.5175 51.6101 49.6152 51.219C49.713 50.8278 49.8863 23.4199 49.8863 23.4199L44.1355 26.0069Z" fill="#DC0D28"/>
<path d="M32.5422 10.3926C31.0623 10.3926 29.4268 10.8148 28.9513 12.0547C28.4758 13.2946 28.3691 15.139 28.3691 16.5167C28.3691 17.8366 28.1558 21.2142 32.2222 21.1609C36.2887 21.1076 36.4087 19.601 36.4709 16.2767C36.5242 13.5035 36.1554 12.1569 35.7865 11.5792C35.4576 11.0592 34.3644 10.3926 32.5422 10.3926Z" fill="#FF2A23"/>
<path d="M30.2052 17.2539C31.1296 17.3072 31.5251 15.2762 32.2362 14.1652C32.9473 13.0586 33.6895 12.3164 33.4228 11.7386C33.2051 11.2587 31.2718 11.1031 30.2274 12.5564C29.4941 13.583 29.3653 17.205 30.2052 17.2539Z" fill="#FCC9D2"/>
<path d="M36.1406 11.3543C36.1406 11.3543 37.4517 12.6878 37.7939 15.3015C38.1361 17.9151 37.7405 19.9465 37.7405 19.9465C37.7405 19.9465 44.2558 19.7509 46.5045 20.1821C48.7222 20.6133 49.4955 21.5912 49.4955 22.3024C49.4955 23.0136 48.0378 23.587 46.5579 23.4803C45.0779 23.3736 44.078 23.2936 43.8913 23.667C43.7047 24.0403 43.9713 24.6182 46.029 24.7738C48.0867 24.9338 50.4643 24.6404 51.2021 22.0801C51.9398 19.5198 51.9665 15.0837 51.7042 11.8877C51.442 8.69175 50.8643 6.86486 49.4333 6.17144C47.9267 5.4469 44.1535 5.32689 40.5893 7.33158C37.025 9.33628 36.1406 11.3543 36.1406 11.3543Z" fill="#FF2A23"/>
<path d="M43.5221 8.31153C43.0599 7.716 41.5711 7.73378 40.7756 8.65373C39.9312 9.63146 39.7446 13.3513 40.8289 13.5646C42.0555 13.8046 41.8333 11.7958 42.7311 10.5559C43.611 9.34259 43.971 8.89372 43.5221 8.31153Z" fill="#FCC9D2"/>
<path d="M28.6026 11.4806C28.6026 11.4806 23.6117 5.66211 17.9098 5.75101C14.4789 5.80435 13.6078 7.78237 13.4212 8.60026C13.2345 9.41814 11.8124 17.5525 13.71 21.9575C15.6077 26.3625 19.5453 25.2201 20.163 25.0779C20.9541 24.8912 22.6385 24.3133 22.4785 23.7044C22.3185 23.0954 16.7232 25.2868 16.6699 22.7798C16.6166 20.2728 20.6297 20.0061 22.4785 19.9528C24.3273 19.8995 27.496 20.3217 27.496 20.3217C27.496 20.3217 26.9405 17.2858 27.3093 15.1211C27.6782 12.9564 28.6026 11.4806 28.6026 11.4806Z" fill="#FF2A23"/>
<path d="M16.3941 7.86717C15.6831 8.60491 15.3897 12.858 15.8386 14.969C16.2875 17.08 16.683 17.9778 17.6074 17.7955C18.3807 17.64 18.8473 13.498 19.2162 12.0403C19.6117 10.4848 20.5895 8.83156 20.1939 8.10716C19.5895 6.9961 17.1363 7.09832 16.3941 7.86717Z" fill="#FCC9D2"/>
</svg>
