<svg width="23" height="23" viewBox="0 0 23 23" fill="none" xmlns="http://www.w3.org/2000/svg">
<path d="M3.89706 6.3457C3.89706 6.3457 2.86672 6.42717 2.72934 6.6588C2.59037 6.89042 2.58238 7.24665 2.58238 7.63802C2.58238 8.03098 2.56641 8.93193 2.56641 8.93193L2.81241 9.46068C2.81241 9.46068 2.85873 16.2002 2.85873 16.4095C2.85873 16.6171 2.85873 16.8711 3.15905 17.0325C3.45937 17.1938 11.0918 20.8807 11.3299 20.9797C11.6893 21.1283 11.8602 21.0723 11.8602 21.0723L20.3409 6.88883C20.3409 6.88883 20.3138 6.50065 19.9607 6.408C19.7579 6.35688 3.89706 6.3457 3.89706 6.3457Z" fill="#F5B03E"/>
<path d="M11.7684 11.0089C11.6391 11.3651 11.6982 15.0488 11.7205 17.7277C11.7429 20.405 11.6518 20.9593 11.7205 21.0519C11.7892 21.1446 11.9761 21.0551 12.5049 20.8203C13.4873 20.3858 18.2061 18.0503 18.5527 17.8427C18.8993 17.635 19.746 17.2053 19.8849 16.9737C20.0239 16.7421 20.099 14.5871 20.1453 12.8571C20.1917 11.1255 20.238 9.74055 20.238 9.74055L20.4456 9.11756C20.4456 9.11756 20.4009 7.43388 20.3929 7.24857C20.3785 6.94187 20.345 6.78372 20.2667 6.82206C20.1549 6.87478 19.222 7.63994 16.7524 8.8412C15.2013 9.59359 11.8579 10.7629 11.7684 11.0089Z" fill="#E07F14"/>
<path d="M11.7926 3.06904C11.101 3.0371 9.20801 4.13133 7.38375 4.73036C5.55949 5.3294 2.80554 6.53385 2.78158 6.60414C2.75921 6.67283 3.89019 7.17921 4.61222 7.52585C5.47004 7.93639 8.74475 9.48749 9.34379 9.74148C9.94442 9.99547 11.3757 10.5897 11.6057 10.5721C11.9284 10.5498 14.9763 9.34851 16.5226 8.6105C18.0689 7.8725 20.0018 6.72874 20.0273 6.45079C20.0385 6.32619 17.1839 5.26071 15.7606 4.61695C13.0131 3.37255 12.299 3.09301 11.7926 3.06904Z" fill="#FDD717"/>
<path d="M2.57528 9.22835C2.59924 9.52861 2.76378 9.63562 3.1823 9.8177C3.60082 9.99977 11.5129 14.1092 11.695 14.1092C11.8771 14.1092 11.9314 13.4576 11.7317 13.4751C11.6231 13.4847 9.02407 12.2501 6.59599 11.0171C4.53532 9.97262 2.5625 8.92969 2.5625 8.92969L2.57528 9.22835Z" fill="#E37D14"/>
<path d="M20.4492 9.10352C20.4492 9.10352 12.0004 13.3998 11.9174 13.4413C11.8343 13.4829 11.7017 13.4685 11.7017 13.4685L11.6953 14.1089C11.6953 14.1089 11.7736 14.1265 11.8614 14.0994C11.9126 14.0834 20.2048 9.79188 20.2415 9.77911C20.2783 9.76633 20.438 9.6705 20.4715 9.46766C20.5003 9.30475 20.4492 9.10352 20.4492 9.10352Z" fill="#BA5E0D"/>
<path d="M5.8885 16.8393L7.54183 19.2994L8.26546 19.547C8.26546 19.547 8.32457 16.8633 8.34853 14.8745C8.38207 11.9688 8.36929 9.31866 8.41083 9.1685C8.47952 8.91451 11.6951 7.87139 11.6951 7.87139C11.6951 7.87139 15.3277 9.01035 15.4427 9.26434C15.4938 9.37616 15.4539 11.2579 15.4427 13.4512C15.4283 16.2211 15.4331 19.4192 15.4331 19.4192C15.4331 19.4192 15.8085 19.4176 15.8532 19.2786C15.8995 19.1396 16.0848 18.0677 16.0848 18.0677L17.4938 8.67649L18.2094 7.75318L17.2158 5.86183L13.1392 3.85547L11.7383 4.17016L10.2223 3.93853L5.41406 7.39376L5.97476 8.53113L7.35014 9.23239L5.8885 16.8393Z" fill="#AF0F1B"/>
<path d="M7.88412 8.96076C7.93683 9.01827 7.85058 19.3536 7.74357 19.3776C7.65893 19.3983 5.73438 18.5389 5.73438 18.4511C5.73438 18.3632 5.8893 8.48633 5.8893 8.48633C5.8893 8.48633 7.7276 8.78505 7.88412 8.96076Z" fill="#FF2A23"/>
<path d="M15.8601 9.16798C15.7723 9.36127 15.8234 19.3212 15.8234 19.3212C15.8234 19.3212 16.2626 19.0784 16.828 18.8068C17.3902 18.5369 17.7942 18.3691 17.8294 18.2286C17.8645 18.088 17.9268 8.23828 17.9268 8.23828L15.8601 9.16798Z" fill="#DC0D28"/>
<path d="M11.6996 3.55469C11.1678 3.55469 10.58 3.70642 10.4091 4.15202C10.2382 4.59762 10.1999 5.26043 10.1999 5.75555C10.1999 6.2299 10.1232 7.44372 11.5846 7.42456C13.046 7.40539 13.0891 6.86396 13.1115 5.6693C13.1307 4.67268 12.9981 4.18875 12.8655 3.98112C12.7473 3.79426 12.3545 3.55469 11.6996 3.55469Z" fill="#FF2A23"/>
<path d="M10.853 6.01962C11.1852 6.03879 11.3274 5.30889 11.5829 4.90961C11.8385 4.51192 12.1052 4.2452 12.0094 4.03757C11.9311 3.86508 11.2364 3.80918 10.861 4.33145C10.5975 4.70038 10.5512 6.00205 10.853 6.01962Z" fill="#FCC9D2"/>
<path d="M12.9922 3.90104C12.9922 3.90104 13.4633 4.38027 13.5863 5.31955C13.7093 6.25884 13.5672 6.98886 13.5672 6.98886C13.5672 6.98886 15.9086 6.91857 16.7167 7.07352C17.5137 7.22847 17.7916 7.57991 17.7916 7.8355C17.7916 8.09108 17.2677 8.29715 16.7359 8.25881C16.204 8.22047 15.8447 8.19172 15.7776 8.3259C15.7105 8.46009 15.8063 8.66775 16.5458 8.72366C17.2853 8.78117 18.1398 8.67574 18.4049 7.75562C18.67 6.83551 18.6796 5.24128 18.5854 4.09273C18.4911 2.94419 18.2835 2.28765 17.7692 2.03845C17.2278 1.77807 15.8718 1.73494 14.5909 2.45537C13.31 3.17581 12.9922 3.90104 12.9922 3.90104Z" fill="#FF2A23"/>
<path d="M15.6439 2.80776C15.4778 2.59374 14.9428 2.60013 14.6569 2.93074C14.3535 3.28211 14.2864 4.61891 14.6761 4.69557C15.1169 4.78182 15.037 4.05991 15.3597 3.61431C15.6759 3.17829 15.8053 3.01698 15.6439 2.80776Z" fill="#FCC9D2"/>
<path d="M10.2847 3.94616C10.2847 3.94616 8.49108 1.85513 6.44196 1.88708C5.20897 1.90625 4.89593 2.6171 4.82885 2.91103C4.76177 3.20495 4.25068 6.12824 4.93266 7.71129C5.61464 9.29433 7.0297 8.88379 7.2517 8.83268C7.536 8.76558 8.14131 8.55792 8.08381 8.33907C8.02632 8.12023 6.01552 8.90776 5.99635 8.00681C5.97719 7.10586 7.4194 7.01002 8.08381 6.99085C8.74822 6.97168 9.88698 7.12343 9.88698 7.12343C9.88698 7.12343 9.68734 6.03239 9.8199 5.25445C9.95246 4.4765 10.2847 3.94616 10.2847 3.94616Z" fill="#FF2A23"/>
<path d="M5.88969 2.64611C5.63414 2.91124 5.52873 4.4397 5.69004 5.19834C5.85136 5.95698 5.9935 6.2796 6.32571 6.21412C6.60361 6.15822 6.77131 4.66969 6.90387 4.14583C7.04601 3.58683 7.39739 2.99269 7.25524 2.73236C7.03803 2.33307 6.15641 2.36981 5.88969 2.64611Z" fill="#FCC9D2"/>
</svg>
