<svg width="57" height="56" viewBox="0 0 57 56" fill="none" xmlns="http://www.w3.org/2000/svg">
<g clip-path="url(#clip0_780_9978)">
<path d="M45.2779 37.4893C44.8356 36.7497 42.2195 37.624 39.1575 34.3617C36.0956 31.0993 32.0764 22.8224 23.5611 22.1589C15.4121 21.523 13.1865 28.3449 11.8525 27.8127C10.5254 27.2805 9.69255 25.6528 9.55777 24.8545C9.42299 24.0562 9.06012 22.5598 8.89423 22.3939C8.72835 22.228 7.06606 21.8928 6.19863 22.8915C5.33466 23.8868 5.66642 24.8891 5.79775 25.1517C5.93253 25.4178 7.69158 26.1816 8.69034 27.7125C9.68909 29.2435 10.0209 30.3079 10.0209 30.771C10.0209 31.2341 9.25365 37.9869 14.3753 42.7768C19.4969 47.5666 26.7474 49.0942 34.6268 45.735C41.8946 42.642 45.6788 38.1528 45.2779 37.4893Z" fill="#8BC12D"/>
<path d="M30.4228 35.5903C27.4992 34.0905 24.5478 31.858 21.7278 31.0009C18.9182 30.1473 14.899 29.736 14.9473 31.5884C14.9957 33.4546 19.319 32.2485 23.8566 34.5881C28.3977 36.9312 30.3503 37.8125 32.3754 38.2272C34.4006 38.6419 37.2793 38.1546 37.1342 37.6155C36.9718 37.0038 34.2347 37.5429 30.4228 35.5903Z" fill="#599724"/>
<path d="M27.5605 17.1932C27.8437 16.7197 29.5189 17.2795 31.4795 15.1905C33.4402 13.1015 36.0138 7.80162 41.4664 7.37674C46.6845 6.96956 48.1096 11.3379 48.9638 10.9971C49.8135 10.6563 50.3468 9.614 50.4331 9.10281C50.5195 8.59163 50.7518 7.63344 50.858 7.52722C50.9642 7.421 52.0287 7.20635 52.5841 7.84588C53.1373 8.4832 52.9249 9.12494 52.8408 9.29312C52.7545 9.46352 51.6281 9.95257 50.9886 10.9329C50.3491 11.9132 50.1366 12.5948 50.1366 12.8913C50.1366 13.1879 50.6279 17.5119 47.3483 20.579C44.0688 23.6461 39.4261 24.6242 34.3807 22.4732C29.7269 20.4927 27.3038 17.6181 27.5605 17.1932Z" fill="#8BC12D"/>
<path d="M37.0772 15.9777C38.9493 15.0173 40.8391 13.5877 42.6449 13.0389C44.444 12.4923 47.0176 12.229 46.9866 13.4151C46.9556 14.6101 44.1873 13.8378 41.2817 15.3359C38.374 16.8363 37.1237 17.4006 35.8269 17.6661C34.5301 17.9317 32.6868 17.6196 32.7797 17.2744C32.8837 16.8827 34.6363 17.228 37.0772 15.9777Z" fill="#599724"/>
</g>
<defs>
<clipPath id="clip0_780_9978">
<rect width="56" height="56" fill="white" transform="translate(0.335938)"/>
</clipPath>
</defs>
</svg>
