<svg width="48" height="48" viewBox="0 0 48 48" fill="none" xmlns="http://www.w3.org/2000/svg">
<path d="M28.6378 21.5022C25.468 21.5022 18.9183 16.2025 18.5217 15.8792C17.7551 15.1092 16.1285 13.116 17.0951 10.9061C17.3018 10.4294 17.7517 10.1895 18.425 10.1895C19.2417 10.1895 20.2983 10.5594 21.2482 11.1794L29.7444 17.7424C30.2244 18.1057 30.4511 18.6123 30.4144 19.2523C30.3811 19.8556 30.1077 20.5422 29.6578 21.1355C29.4378 21.3822 29.1045 21.5022 28.6378 21.5022Z" fill="url(#paint0_radial_782_49547)"/>
<path d="M18.4382 10.6855C19.1582 10.6855 20.1048 11.0188 20.9714 11.5821L29.4576 18.1418C29.7976 18.3984 29.9509 18.7517 29.9243 19.2217C29.8976 19.7217 29.6643 20.3017 29.281 20.815C29.221 20.8783 29.0643 21.0016 28.6443 21.0016C26.1111 21.0016 20.7681 17.0652 18.8682 15.5086C18.1682 14.7986 16.725 13.0187 17.5616 11.1055C17.6216 10.9788 17.7516 10.6855 18.4382 10.6855ZM18.4382 9.68555C17.6282 9.68555 16.9649 9.98886 16.6516 10.7022C15.7483 12.7654 16.7816 14.8286 18.1982 16.2485C18.1982 16.2485 25.1778 22.0016 28.6477 22.0016C29.2343 22.0016 29.7209 21.8349 30.0576 21.4516C31.0509 20.1383 31.3742 18.3384 30.0609 17.3451L21.5514 10.7655C20.5414 10.1022 19.3915 9.68555 18.4382 9.68555Z" fill="#EDA600"/>
<path d="M34.8256 32.4071C31.7257 32.3738 30.7258 25.6496 30.6025 23.056C30.5958 22.9059 30.5225 22.7693 30.4025 22.6792C28.9726 21.6024 27.3726 17.9487 26.3527 14.8849C26.3227 14.7983 26.3027 14.7549 26.2994 14.7516C26.236 14.6382 26.1327 14.5516 26.006 14.5116C23.7162 13.8081 20.223 10.9611 18.8264 9.31424C18.0565 8.40746 17.5632 6.48388 18.0798 5.37041C18.3298 4.83034 18.7764 4.57031 19.4464 4.57031C20.293 4.57031 21.4596 5.0037 22.8229 5.82714C23.2029 6.10384 29.7158 10.8578 31.4224 12.748C33.159 14.6716 35.3022 18.9588 35.3222 19.0021C38.0721 24.8095 37.6688 30.0402 37.5321 31.227C36.3922 31.7737 35.1089 32.3471 34.8256 32.4071Z" fill="url(#paint1_radial_782_49547)"/>
<path d="M19.4545 5.06458C19.9778 5.06458 20.9411 5.26794 22.5543 6.23806C23.0776 6.61811 29.4106 11.2454 31.0605 13.0756C32.7171 14.9091 34.7737 19.003 34.8803 19.2097C37.3935 24.527 37.2136 29.3609 37.0736 30.8878C36.117 31.3412 35.1037 31.7913 34.7737 31.8946C32.3271 31.7612 31.2505 25.8838 31.1105 23.0235C31.0972 22.7268 30.9506 22.4501 30.7139 22.2701C29.8773 21.64 28.3574 19.283 26.8374 14.7191C26.8108 14.6391 26.7908 14.5824 26.7474 14.5024C26.6208 14.2724 26.4141 14.1024 26.1641 14.0257C25.1609 13.7157 23.7976 12.9289 22.321 11.8054C21.1044 10.8786 19.8845 9.7685 19.2178 8.98173C18.4812 8.11496 18.1479 6.42475 18.5412 5.57131C18.6579 5.32128 18.8579 5.06458 19.4545 5.06458ZM19.4545 4.06445C16.638 4.06445 17.0779 8.01161 18.4545 9.63182C19.7811 11.1953 23.3543 14.2091 25.8708 14.9858C25.8842 15.0092 27.934 21.4333 30.1106 23.0735C30.1106 23.0735 30.5772 32.9014 34.857 32.9014C35.2303 32.9014 38.0035 31.5546 38.0035 31.5546C38.0035 31.5546 39.0035 25.5805 35.7803 18.7763C35.7803 18.7763 33.6104 14.4091 31.8038 12.4088C29.9973 10.4086 23.1076 5.40795 23.1076 5.40795C21.5244 4.44783 20.3311 4.06445 19.4545 4.06445Z" fill="#EDA600"/>
<path d="M19.7578 43.4371C19.0046 43.4304 17.098 42.3536 16.8347 42.1236C16.8213 42.1103 16.7947 42.0903 16.7813 42.0803C16.7513 42.0603 13.7648 39.9233 12.2582 37.8231C10.7783 35.7628 10.3017 31.7257 10.2983 31.6856C10.1084 30.3655 10.2517 28.6919 11.9883 28.1152C12.2649 28.0219 12.5449 27.9752 12.8249 27.9752C14.1315 27.9752 15.1581 28.972 15.6914 29.9154C15.8914 30.4188 17.9479 35.3261 21.8644 35.3261C22.5244 35.3261 23.2043 35.1828 23.8843 34.896C26.2808 33.8926 27.2141 32.109 27.5741 30.7889C28.1707 28.6053 27.6008 26.2316 26.7608 25.1082C25.8742 23.918 24.3343 23.2079 22.6477 23.2079C21.9977 23.2079 21.3711 23.3146 20.8411 23.5213C20.0312 23.8347 19.3012 24.3981 18.5946 24.9415C17.9013 25.4749 17.1846 26.0283 16.3814 26.3616C15.7481 26.625 15.1481 26.7517 14.5448 26.7517C13.5648 26.7517 12.5982 26.4083 11.5883 25.7049C11.1416 25.3949 10.9216 24.9981 10.935 24.5281C10.9516 23.8813 11.415 23.1746 12.1182 22.7345C14.4248 21.1243 17.9079 18.704 18.2379 18.5007C19.3445 17.9839 21.0911 17.5605 22.1377 17.5605C22.4644 17.5605 22.6477 17.6006 22.7444 17.6306L29.9273 19.9642C31.4539 20.4742 33.7404 24.0147 34.8404 25.7182L35.1437 26.185C35.1637 26.215 35.1837 26.2416 35.207 26.265C35.2337 26.2916 37.9802 29.0787 37.4336 31.4856C37.2003 32.5124 36.2903 34.806 34.8037 38.1131C33.3571 41.3335 30.014 43.4171 26.2908 43.4204L19.7578 43.4371Z" fill="url(#paint2_radial_782_49547)"/>
<path d="M22.1318 18.0626C22.4217 18.0626 22.5484 18.0993 22.5884 18.1093L29.758 20.4396C31.1213 20.893 33.4278 24.4668 34.4144 25.9903C34.5244 26.1603 34.6244 26.317 34.7178 26.4603C34.7544 26.517 34.7978 26.5737 34.8478 26.6204C35.5677 27.3405 37.3443 29.5941 36.9376 31.3743C36.781 32.0677 36.201 33.7646 34.3378 37.9084C32.9712 40.9488 29.808 42.9157 26.2782 42.9224L19.7519 42.9324C19.2286 42.9291 17.5287 42.0356 17.152 41.7389C17.122 41.7122 17.092 41.6856 17.0587 41.6656C17.0287 41.6456 14.1122 39.5586 12.6523 37.5251C11.2523 35.5715 10.789 31.661 10.7824 31.621C10.7824 31.611 10.779 31.601 10.779 31.591C10.5457 29.9674 11.0023 28.954 12.1323 28.5806C12.3589 28.5039 12.5856 28.4673 12.8122 28.4673C13.8922 28.4673 14.7621 29.314 15.2255 30.1275C15.5088 30.8242 17.6853 35.8182 21.8518 35.8182C22.5784 35.8182 23.325 35.6615 24.065 35.3515C26.6482 34.2713 27.6515 32.3411 28.0414 30.9142C28.6847 28.5506 28.0781 26.0503 27.1482 24.8035C26.1682 23.49 24.4783 22.7032 22.6351 22.7032C21.9251 22.7032 21.2385 22.8232 20.6518 23.0499C19.7719 23.39 19.0153 23.9734 18.2786 24.5401C17.582 25.0802 16.922 25.5869 16.1787 25.8969C15.6088 26.1336 15.0688 26.2503 14.5355 26.2503C13.6622 26.2503 12.7889 25.9369 11.8656 25.2935C11.5623 25.0802 11.4157 24.8335 11.4257 24.5368C11.4357 24.06 11.819 23.5033 12.3756 23.1533C12.3889 23.1433 12.4023 23.1366 12.4156 23.1266C14.5488 21.6364 18.0153 19.2261 18.4686 18.9361C19.5086 18.4627 21.1718 18.0626 22.1318 18.0626ZM22.1318 17.0625C20.9285 17.0625 19.0986 17.5392 18.002 18.056C17.8853 18.096 11.8423 22.3132 11.8423 22.3132C10.4057 23.2166 9.79574 25.0702 11.2957 26.117C12.4156 26.9004 13.4855 27.2538 14.5388 27.2538C15.2188 27.2538 15.8921 27.1038 16.5654 26.8271C18.2753 26.117 19.5086 24.5701 21.0118 23.99C21.4785 23.81 22.0418 23.71 22.6351 23.71C23.965 23.71 25.4482 24.2034 26.3482 25.4069C27.6481 27.1471 28.3281 32.4878 23.6783 34.4347C23.0284 34.708 22.4184 34.8247 21.8518 34.8247C18.1053 34.8247 16.1321 29.7007 16.1321 29.7007C15.4621 28.4906 14.2422 27.4738 12.8156 27.4738C12.4956 27.4738 12.1623 27.5238 11.8223 27.6372C9.97573 28.2472 9.53908 29.9641 9.7924 31.7377C9.7924 31.7377 10.269 35.9182 11.8423 38.1118C13.4155 40.3054 16.4821 42.4823 16.4821 42.4823C16.7354 42.7257 18.8119 43.9292 19.7452 43.9359L26.2815 43.9259C30.1913 43.9192 33.7245 41.7156 35.2511 38.3218C36.4277 35.7015 37.6209 32.8778 37.9143 31.5976C38.5309 28.8906 35.5544 25.9136 35.5544 25.9136C34.4011 24.1467 31.9179 20.1062 30.0747 19.4928L22.8984 17.1592C22.6984 17.0925 22.4351 17.0625 22.1318 17.0625Z" fill="#EDA600"/>
<defs>
<radialGradient id="paint0_radial_782_49547" cx="0" cy="0" r="1" gradientUnits="userSpaceOnUse" gradientTransform="translate(14.9889 11.1904) scale(6.26934)">
<stop offset="0.2793" stop-color="#FFCA28"/>
<stop offset="0.7972" stop-color="#FFB300"/>
</radialGradient>
<radialGradient id="paint1_radial_782_49547" cx="0" cy="0" r="1" gradientUnits="userSpaceOnUse" gradientTransform="translate(23.1202 10.9661) scale(12.0727 12.0748)">
<stop stop-color="#FFCA28"/>
<stop offset="1" stop-color="#FFB300"/>
</radialGradient>
<radialGradient id="paint2_radial_782_49547" cx="0" cy="0" r="1" gradientUnits="userSpaceOnUse" gradientTransform="translate(20.3507 22.8545) scale(20.8083 19.6118)">
<stop offset="0.242" stop-color="#FFCA28"/>
<stop offset="0.7972" stop-color="#FFB300"/>
</radialGradient>
</defs>
</svg>
