<svg width="21" height="21" viewBox="0 0 21 21" fill="none" xmlns="http://www.w3.org/2000/svg">
<g id="Group">
<path id="Vector" d="M0.937652 4.75206C0.779507 6.29996 1.30666 10.4245 5.94078 15.0586C10.5749 19.6928 14.6994 20.2199 16.2473 20.0618C17.7952 19.9036 18.816 18.9484 19.4885 18.2088C19.5253 18.1672 19.5796 18.1033 19.6355 18.0235C20.0236 17.4723 20.2185 16.9915 18.292 15.065C16.2362 13.0091 15.2442 13.6545 14.8065 13.9436C14.8065 13.9436 14.1723 14.4564 13.8656 14.6481C13.6659 14.7727 13.463 14.8542 13.1787 14.8542C12.6404 14.8558 11.6803 15.1593 9.0238 12.5858C8.91837 12.4804 8.81933 12.3782 8.72189 12.2775C8.62125 12.1817 8.51902 12.0826 8.41359 11.9756C5.83854 9.31909 6.14205 8.36064 6.14365 7.82071C6.14365 7.53637 6.22512 7.3335 6.34972 7.13382C6.54141 6.82871 7.05418 6.19294 7.05418 6.19294C7.34331 5.75524 7.98867 4.76324 5.93279 2.70736C4.0079 0.782464 3.52548 0.97735 2.97436 1.36552C2.89449 1.42143 2.8306 1.47415 2.78906 1.51249C2.05106 2.1834 1.0942 3.20575 0.937652 4.75206Z" fill="#424242"/>
<path id="Vector_2" d="M17.8392 15.3966C19.8469 17.4106 19.2879 18.428 19.2879 18.428C19.7031 18.2635 21.1645 17.1599 18.6202 14.6172C16.076 12.0746 14.9692 13.5312 14.8047 13.9464C14.8047 13.9448 15.8253 13.3874 17.8392 15.3966Z" fill="#616161"/>
<path id="Vector_3" d="M17.0428 18.4206C17.3702 18.1779 17.6466 17.8712 17.9724 17.6253C18.0842 17.5406 18.2295 17.4608 18.3573 17.5167C18.4771 17.5678 18.5825 17.7802 18.5521 18.0134C18.4515 18.8056 17.4341 19.2512 16.9135 19.355C16.2347 19.4907 15.3658 19.4061 15.3994 19.1905C15.4249 19.0212 15.7683 19.0292 16.2251 18.8551C16.5142 18.7449 16.7937 18.6059 17.0428 18.4206Z" fill="#616161"/>
<path id="Vector_4" d="M18.673 15.8565C19.1665 16.5129 19.347 16.7237 19.4987 16.7988C19.7303 16.9122 19.8661 16.762 19.8853 16.6183C19.8996 16.5097 19.8709 16.4011 19.8326 16.2989C19.6792 15.8772 19.3917 15.4077 19.0308 15.1298C18.8567 14.9956 18.6539 14.9956 18.5341 15.2064C18.4111 15.4268 18.5389 15.6776 18.673 15.8565Z" fill="#757575"/>
<path id="Vector_5" d="M3.25191 8.27089C3.65446 9.23893 4.64965 11.306 7.17038 13.8267C9.69111 16.3475 11.7582 17.3427 12.7262 17.7452C13.0441 17.8778 13.3716 17.5919 13.2885 17.2564C13.1352 16.6302 13.1032 15.6941 13.8029 14.7452C13.8268 14.7133 13.8428 14.6813 13.8604 14.6478C13.8604 14.6478 13.5042 14.8603 13.1751 14.8555C12.6559 14.8475 11.4898 15.0408 8.72308 12.274C5.95634 9.50729 6.14803 8.34118 6.14004 7.82201C6.13525 7.49294 6.34771 7.13672 6.34771 7.13672C6.31576 7.15269 6.28222 7.17026 6.25027 7.19423C5.3014 7.8923 4.36531 7.86195 3.73912 7.7086C3.40526 7.62713 3.11932 7.953 3.25191 8.27089Z" fill="#616161"/>
<path id="Vector_6" d="M5.60168 3.15928C3.58769 1.15008 2.57031 1.71068 2.57031 1.71068C2.73482 1.29542 3.83844 -0.165962 6.38108 2.37828C8.92373 4.92252 7.46714 6.02934 7.05188 6.19384C7.05348 6.19384 7.61088 5.17327 5.60168 3.15928Z" fill="#616161"/>
<path id="Vector_7" d="M1.82374 5.84762C1.64486 5.26306 1.70874 4.46609 1.90839 3.83682C2.20226 2.91048 2.66383 2.70604 2.88743 2.71722C3.16534 2.7316 3.4097 2.92485 3.35859 3.30337C3.32026 3.58128 3.08228 3.83203 2.84591 4.10833C2.43544 4.58907 2.31406 5.22633 2.14955 5.81887C2.08088 6.07121 1.88443 6.04406 1.82374 5.84762Z" fill="#616161"/>
<path id="Vector_8" d="M3.56351 1.19395C3.48685 1.31374 3.48525 1.43672 3.58427 1.53734C3.67691 1.63157 4.08418 1.74017 4.45631 1.90149C4.83803 2.06759 5.05204 2.28959 5.24849 2.28959C5.37147 2.28959 5.50403 2.24966 5.57111 2.14585C5.635 2.04683 5.62541 1.91426 5.57431 1.80885C5.5232 1.70344 5.43695 1.61879 5.34592 1.54373C4.97698 1.23548 3.94363 0.599817 3.56351 1.19395Z" fill="#757575"/>
</g>
</svg>
