<svg width="65" height="64" viewBox="0 0 65 64" fill="none" xmlns="http://www.w3.org/2000/svg">
<path d="M38.8676 46.2157L37.0854 39.3672L31.5391 41.6115C31.5391 41.6115 32.7923 45.278 33.2856 46.9535C33.6945 48.34 34.3834 49.7578 36.6321 50.8599L46.5161 54.9753L46.7827 51.5488L38.8676 46.2157Z" fill="url(#paint0_linear_845_9301)"/>
<path d="M44.1251 49.7578C42.7341 51.6644 43.0763 53.5532 43.0763 53.5532L46.8583 55.242L47.3294 51.5755L44.1251 49.7578Z" fill="#E0E0E0"/>
<path d="M49.2768 50.3262C49.179 50.0417 48.6857 49.7751 48.1035 49.9084L47.108 50.1928C46.4281 50.5439 46.2681 50.9706 46.2681 50.9706C46.0725 53.2593 46.5214 54.9704 46.5214 54.9704L48.5569 57.3347C49.059 57.9258 49.8723 58.1524 50.6101 57.908L51.1789 57.7169C51.4278 57.6324 51.69 57.1925 51.5656 56.6992L49.2768 50.3262Z" fill="#4568AD"/>
<path d="M31.0667 40.5714C30.96 41.2914 32.9421 45.8333 32.9421 45.8333C36.1331 45.5933 39.4751 42.5757 39.4751 42.5757C39.4751 42.5757 37.733 40.6025 37.893 36.9805L31.0667 40.5714Z" fill="#616161"/>
<path d="M23.6566 51.8197L27.4386 51.7886C27.4386 51.7886 26.1765 44.8823 25.8432 43.6246L34.6427 40.7181L32.7095 34.7051L22.6033 39.2737C21.3234 39.8515 20.039 41.4381 20.7501 44.0957C21.1634 45.6201 23.6566 51.8197 23.6566 51.8197Z" fill="url(#paint1_linear_845_9301)"/>
<path d="M26.9226 48.727C24.4383 48.5181 22.8828 49.8736 22.8828 49.8736L24.2161 53.8734L27.6603 52.6201L26.9226 48.727Z" fill="#E0E0E0"/>
<path d="M28.016 54.8286C28.3004 54.7353 28.576 54.2464 28.4471 53.6643L28.1715 52.6643C27.9404 51.9355 27.2071 51.2822 27.2071 51.2822C24.905 51.0466 23.3762 52.5976 23.3762 52.5976L21.0164 54.0198C20.4164 54.5175 20.1808 55.3264 20.4208 56.0686L20.6075 56.6419C20.6875 56.8908 21.1275 57.1574 21.6208 57.0419L28.016 54.8286Z" fill="#4568AD"/>
<path d="M25.0166 54.7035C23.0656 55.4635 21.7012 56.0501 21.1368 56.4945C20.5457 56.8989 21.0613 57.1789 21.639 57.0189L27.1054 55.3746C28.1409 55.0235 28.5186 54.5746 28.4742 54.0769C28.4298 53.5836 26.8476 53.988 25.0166 54.7035Z" fill="#294B7C"/>
<path d="M24.7422 38.3034C27.0798 38.7701 29.9197 43.4676 29.9197 43.4676C29.9197 43.4676 34.4572 41.4099 36.0794 40.45C39.0659 38.6856 38.2437 35.2103 37.2882 33.5081L36.0749 30.8594L27.4709 33.0504L27.3554 34.9081L27.7109 36.7657L24.7422 38.3034Z" fill="#7C7C7C"/>
<path opacity="0.2" d="M27.7142 36.7716C32.1762 33.6384 37.7448 34.514 37.7448 34.514C37.0604 32.6474 35.7538 30.252 35.7538 30.252C35.7538 30.252 27.3898 32.4607 27.2298 33.6073C27.0654 34.7539 27.7142 36.7716 27.7142 36.7716Z" fill="black"/>
<path d="M30.0395 27.9182L27.9196 24.7539L18.7734 34.4734C18.7734 34.4734 18.7734 35.1578 19.5645 35.6244C20.3556 36.0911 21.1378 35.7489 21.1378 35.7489L30.0395 27.9182Z" fill="url(#paint2_linear_845_9301)"/>
<path d="M18.7363 35.5539C18.7363 35.5539 18.0519 36.6783 17.8208 38.1093C17.7275 38.7004 17.9319 39.2293 18.0075 39.3271C18.2519 39.6426 18.6874 39.7137 18.8297 39.4515C18.9496 39.2248 18.6474 38.8471 18.6474 38.6249C18.6519 38.3582 18.803 38.1449 18.803 38.1449C18.8963 38.4204 19.5318 39.0026 19.7407 38.9449C20.3318 38.776 19.4163 38.0382 19.4563 37.5494C19.5629 36.2783 20.0474 35.4473 20.0474 35.4473L18.7363 35.5539Z" fill="#EDA600"/>
<path d="M21.5501 34.8637C21.639 35.6681 21.479 35.5926 21.3146 36.6103C21.2168 37.2369 21.5323 37.4769 21.5146 37.9258C21.5057 38.1924 21.2035 38.4858 20.8968 38.308C20.2168 37.9125 20.5235 36.3081 19.2436 36.6725C18.3058 36.9392 17.8792 39.0013 17.0926 39.659C16.3237 40.3034 15.6838 39.7746 15.8793 39.5346C15.8793 39.5346 16.2971 38.7791 16.7904 37.9658C17.3814 36.9881 17.5903 35.1748 19.288 34.0371L21.5501 34.8637Z" fill="url(#paint3_linear_845_9301)"/>
<path d="M31.1218 21.3539C27.6997 24.1893 25.4688 27.0247 25.4688 27.0247C27.3664 27.1492 29.0641 29.9046 29.0641 29.9046C29.0641 29.9046 33.695 19.2207 31.1218 21.3539Z" fill="#008F76"/>
<path d="M34.8782 10.5996C33.9094 8.51085 30.674 7.42646 28.4386 7.96865C25.9365 8.57751 24.7055 10.5063 24.5188 12.8484C24.4521 13.6972 24.541 14.5328 24.7277 15.1149C24.7499 15.1861 24.9277 15.6927 24.9499 15.8527C25.0921 16.4704 23.9277 17.1815 23.8388 17.8837C23.7722 18.4081 24.8788 18.657 24.9721 18.7459C25.4299 19.177 24.9277 21.3635 27.9142 21.4435C28.9541 21.4702 29.1541 21.3457 29.1541 21.3457L29.363 24.7367L34.3316 21.0746C34.3316 21.0746 33.4117 19.6169 34.1405 18.1503C35.0827 16.2393 36.1137 13.2617 34.8782 10.5996Z" fill="#FFCA28"/>
<path d="M25.3642 19.9577C25.7775 19.9488 26.1775 19.8244 26.5064 19.54C26.8663 19.2289 26.5819 18.9311 26.1597 19.1533C25.9064 19.2866 25.5375 19.3711 25.1953 19.3311L25.3642 19.9577Z" fill="#795548"/>
<path d="M26.9008 16.8905C27.201 16.8584 27.4046 16.4605 27.3555 16.0016C27.3065 15.5428 27.0234 15.1969 26.7232 15.229C26.423 15.2611 26.2195 15.659 26.2685 16.1179C26.3176 16.5767 26.6007 16.9226 26.9008 16.8905Z" fill="#404040"/>
<path d="M26.2964 14.9016C25.7987 15.1461 25.6165 14.8261 25.7409 14.515C25.8343 14.2883 26.1231 14.0617 26.7542 14.0706C27.3497 14.0839 27.6475 14.3728 27.8386 14.5461C28.0297 14.7194 28.0475 14.9239 27.9186 14.9639C27.7364 15.0261 26.9098 14.5994 26.2964 14.9016Z" fill="#6D4C41"/>
<path d="M45.6273 15.444C48.4892 15.444 50.8092 13.1239 50.8092 10.262C50.8092 7.40012 48.4892 5.08008 45.6273 5.08008C42.7654 5.08008 40.4453 7.40012 40.4453 10.262C40.4453 13.1239 42.7654 15.444 45.6273 15.444Z" fill="url(#paint4_radial_845_9301)"/>
<path d="M34.489 20.8295C32.0135 22.0072 34.2134 24.9093 34.2134 24.9093C34.2134 24.9093 38.991 24.1093 40.9331 23.6516C43.6929 23.0116 44.1107 22.0605 44.7818 21.225C45.3195 20.554 47.9905 16.6031 47.9905 16.6031L47.8394 15.2031L45.3906 15.7364L41.2664 19.5229C41.2664 19.5185 36.6533 19.8029 34.489 20.8295Z" fill="url(#paint5_linear_845_9301)"/>
<path d="M45.4705 15.9406C45.4083 14.6829 47.0082 14.0429 47.0082 14.0429C47.0082 14.0429 46.4705 12.7052 46.2616 12.283C46.0572 11.8608 46.1994 11.5675 46.2794 11.523C46.5371 11.3764 46.7993 11.5186 46.8793 11.6119C47.2215 12.0252 47.7371 12.7452 47.7371 12.7452C47.9593 12.6563 47.6126 11.5008 47.4393 10.7231C47.3371 10.2653 47.8793 9.76758 48.2704 10.5809C48.5948 11.2519 49.0126 12.5141 49.0126 12.5141C49.0881 11.9986 48.9948 11.1897 48.8926 10.172C48.8437 9.69648 49.0392 9.48315 49.3503 9.45649C49.5814 9.43427 49.7814 9.49649 49.9414 10.4475C49.9903 10.732 50.0703 12.3363 50.0703 12.3363C50.5191 12.1052 50.6302 10.8653 50.6658 10.0653C50.688 9.50093 51.4346 9.35872 51.5324 10.2076C51.7324 11.9319 50.8391 13.4029 50.4303 14.0918C50.2169 14.4518 47.8615 16.6828 47.8615 16.6828L45.4705 15.9406Z" fill="url(#paint6_linear_845_9301)"/>
<path d="M39.1611 32.7223C35.268 29.038 37.099 25.8648 37.099 25.8648C37.099 25.8648 37.1346 25.3227 39.1567 24.9138C39.1567 24.9138 38.8722 22.5806 40.0366 19.4785C40.0366 19.4785 35.588 19.523 33.7481 20.1274C32.6459 20.4874 30.8638 20.7318 29.1883 22.5983C28.2284 23.665 27.5662 24.6871 26.8907 27.9936C26.1396 31.6779 27.7128 36.7754 27.7128 36.7754C31.1082 32.9089 39.1611 32.7223 39.1611 32.7223Z" fill="url(#paint7_radial_845_9301)"/>
<path d="M34.9235 9.61791C33.7591 8.3602 31.7281 7.61801 29.8349 7.65357C28.5638 7.68023 27.3595 7.99577 26.3506 8.56463C26.3328 8.57352 24.4129 9.68457 24.0352 10.6712C23.6308 11.7289 24.1063 12.2978 24.2174 12.4C24.3063 12.48 24.4263 12.5022 24.5329 12.5066L24.5374 12.5155C24.5374 12.5155 24.5552 12.5111 24.5863 12.5066C24.6885 12.5022 24.7685 12.48 24.7685 12.48C25.5062 12.3689 27.8617 12.0444 29.0749 12.2C29.266 12.2267 29.4838 12.2667 29.5816 12.4355C29.626 12.5066 29.6927 12.9866 29.7016 13.0711C29.8615 14.151 29.826 14.8399 30.2082 15.4976C30.2704 15.6043 30.5015 15.7331 30.5015 15.7331L30.8926 15.0132C31.1415 14.5999 31.3726 14.2443 31.737 14.2888C32.8214 14.4132 32.8169 16.3242 31.6037 16.8709C31.6037 16.8709 31.9503 18.2708 33.3236 18.4974C33.4658 18.5197 33.5947 18.533 33.7058 18.533C33.7547 18.533 33.8036 18.5285 33.8524 18.5152C34.3324 18.4974 34.6746 18.3552 34.7502 17.893C34.9191 16.8975 35.1546 16.4531 35.4079 15.982C35.7057 15.4265 36.0168 14.8532 36.159 13.4088C36.3145 11.9644 35.8835 10.6534 34.9235 9.61791Z" fill="#543930"/>
<path d="M34.9235 9.61791C33.7591 8.3602 31.7281 7.61801 29.8349 7.65357C28.5638 7.68023 27.3595 7.99577 26.3506 8.56463C26.3328 8.57352 24.4129 9.68457 24.0352 10.6712C23.6308 11.7289 24.1063 12.2978 24.2174 12.4C24.3063 12.48 24.4263 12.5022 24.5329 12.5066L24.5374 12.5155C24.5374 12.5155 24.5552 12.5111 24.5863 12.5066C24.6885 12.5022 24.7685 12.48 24.7685 12.48C25.5062 12.3689 27.8617 12.0444 29.0749 12.2C29.266 12.2267 29.4838 12.2667 29.5816 12.4355C29.626 12.5066 29.6927 12.9866 29.7016 13.0711C29.8615 14.151 29.826 14.8399 30.2082 15.4976C30.2704 15.6043 30.5015 15.7331 30.5015 15.7331L30.8926 15.0132C31.1415 14.5999 31.3726 14.2443 31.737 14.2888C32.8214 14.4132 32.8169 16.3242 31.6037 16.8709C31.6037 16.8709 31.9503 18.2708 33.3236 18.4974C33.4658 18.5197 33.5947 18.533 33.7058 18.533C33.7547 18.533 33.8036 18.5285 33.8524 18.5152C34.3324 18.4974 34.6746 18.3552 34.7502 17.893C34.9191 16.8975 35.1546 16.4531 35.4079 15.982C35.7057 15.4265 36.0168 14.8532 36.159 13.4088C36.3145 11.9644 35.8835 10.6534 34.9235 9.61791Z" fill="url(#paint8_radial_845_9301)"/>
<defs>
<linearGradient id="paint0_linear_845_9301" x1="44.441" y1="52.7509" x2="35.387" y2="43.9472" gradientUnits="userSpaceOnUse">
<stop offset="0.5979" stop-color="#FFCA28"/>
<stop offset="1" stop-color="#FFB300"/>
</linearGradient>
<linearGradient id="paint1_linear_845_9301" x1="21.8857" y1="48.6104" x2="28.9965" y2="41.2219" gradientUnits="userSpaceOnUse">
<stop offset="0.5979" stop-color="#FFCA28"/>
<stop offset="1" stop-color="#FFB300"/>
</linearGradient>
<linearGradient id="paint2_linear_845_9301" x1="18.4533" y1="31.8663" x2="26.564" y2="29.7183" gradientUnits="userSpaceOnUse">
<stop offset="0.5979" stop-color="#FFCA28"/>
<stop offset="1" stop-color="#FFB300"/>
</linearGradient>
<linearGradient id="paint3_linear_845_9301" x1="17.8336" y1="36.4089" x2="19.9794" y2="38.6121" gradientUnits="userSpaceOnUse">
<stop offset="0.5979" stop-color="#FFCA28"/>
<stop offset="1" stop-color="#FFB300"/>
</linearGradient>
<radialGradient id="paint4_radial_845_9301" cx="0" cy="0" r="1" gradientUnits="userSpaceOnUse" gradientTransform="translate(44.4404 8.23927) rotate(9.26452) scale(5.19085 5.19085)">
<stop stop-color="#CED7DB"/>
<stop offset="0.3026" stop-color="#BFCBD0"/>
<stop offset="0.8798" stop-color="#99ABB4"/>
<stop offset="1" stop-color="#90A4AE"/>
</radialGradient>
<linearGradient id="paint5_linear_845_9301" x1="50.113" y1="14.5906" x2="37.0283" y2="22.9729" gradientUnits="userSpaceOnUse">
<stop offset="0.5979" stop-color="#FFCA28"/>
<stop offset="1" stop-color="#FFB300"/>
</linearGradient>
<linearGradient id="paint6_linear_845_9301" x1="50.4088" y1="10.6028" x2="39.8389" y2="21.9933" gradientUnits="userSpaceOnUse">
<stop offset="0.5979" stop-color="#FFCA28"/>
<stop offset="1" stop-color="#FFB300"/>
</linearGradient>
<radialGradient id="paint7_radial_845_9301" cx="0" cy="0" r="1" gradientUnits="userSpaceOnUse" gradientTransform="translate(30.3766 24.7334) rotate(19.4931) scale(8.63154 8.63153)">
<stop stop-color="#00BFA5"/>
<stop offset="1" stop-color="#009E89"/>
</radialGradient>
<radialGradient id="paint8_radial_845_9301" cx="0" cy="0" r="1" gradientUnits="userSpaceOnUse" gradientTransform="translate(30.0384 13.0913) scale(5.80929)">
<stop offset="0.5264" stop-color="#6D4C41" stop-opacity="0"/>
<stop offset="1" stop-color="#6D4C41"/>
</radialGradient>
</defs>
</svg>
