<svg width="56" height="56" viewBox="0 0 56 56" fill="none" xmlns="http://www.w3.org/2000/svg">
<path d="M37.1158 36.8624C36.4237 36.1157 35.5176 35.1436 34.7243 34.3036C33.1844 32.682 31.3023 31.4688 31.3023 31.4688L28.1719 34.8286C28.1719 34.8286 29.389 37.0685 30.9406 38.4023C31.6989 39.0556 32.6477 39.7205 33.4216 40.2338C33.3049 40.6188 33.1883 41.1205 33.1377 41.7193C32.99 43.5781 33.2777 46.028 33.2894 46.3002C33.336 47.7234 33.3516 48.7773 33.3516 48.7773L35.817 48.7695L37.8703 39.6622C38.0958 38.6628 37.8158 37.6129 37.1158 36.8624Z" fill="url(#paint0_linear_780_9920)"/>
<path d="M24.703 31.4688C24.703 31.4688 22.8209 32.682 21.2849 34.3075C20.4916 35.1474 19.5855 36.1196 18.8934 36.8662C18.1934 37.6168 17.9134 38.6667 18.1389 39.6661L20.1922 48.7734L22.6576 48.7812C22.6576 48.7812 22.6732 47.7273 22.7198 46.3041C22.7276 46.0319 23.0192 43.582 22.8715 41.7232C22.8248 41.1244 22.7043 40.6227 22.5876 40.2377C23.3615 39.7244 24.3103 39.0595 25.0686 38.4062C26.6202 37.0723 27.8373 34.8325 27.8373 34.8325L24.703 31.4688Z" fill="url(#paint1_linear_780_9920)"/>
<path d="M19.5625 46.3027L20.1886 48.772L22.654 48.7798L22.7084 46.3027H19.5625Z" fill="#E0E0E0"/>
<path d="M23.4802 49.7506C23.4763 49.004 22.8347 48.1562 22.8347 48.1562H19.8209L17.4955 48.9768C16.8966 49.214 16.5 49.7895 16.5 50.435V50.9328C16.5 51.1505 16.675 51.3294 16.8928 51.3294L23.033 51.31C23.2819 51.31 23.4841 51.1078 23.4841 50.855L23.4802 49.7506Z" fill="#4568AD"/>
<path d="M33.2969 46.3027L33.363 48.7798L35.8245 48.772L36.4467 46.3027H33.2969Z" fill="#E0E0E0"/>
<path d="M38.4847 48.9768L36.1631 48.1562H33.1494C33.1494 48.1562 32.5039 49.004 32.5039 49.7545L32.5 50.8589C32.5 51.1078 32.7022 51.31 32.9511 51.3139L39.0874 51.3294C39.3052 51.3294 39.4802 51.1544 39.4802 50.9328V50.435C39.4802 49.7895 39.0835 49.214 38.4847 48.9768Z" fill="#4568AD"/>
<path d="M32.2262 19.096C32.0746 18.8238 32.269 18.5438 32.5918 18.2016C33.109 17.6572 33.6728 16.3895 33.1517 15.1024C33.1556 15.0946 33.0506 14.8768 33.0506 14.8729L32.8329 14.8613C32.7629 14.8496 30.3947 14.8457 28.0264 14.8457C25.6582 14.8457 23.29 14.8496 23.22 14.8613C23.22 14.8613 22.9012 15.0946 22.9051 15.1024C22.3801 16.3895 22.9439 17.6533 23.465 18.2016C23.7917 18.5438 23.9822 18.8238 23.8306 19.096C23.6867 19.3605 23.2511 19.3994 23.2511 19.3994C23.2511 19.3994 23.3523 19.6716 23.5933 19.8193C23.815 19.9554 24.0911 19.9865 24.2778 19.9904C24.2778 19.9904 25.0166 21.0132 26.9493 21.0132H28.0264H29.1036C31.0363 21.0132 31.7751 19.9904 31.7751 19.9904C31.9657 19.9865 32.2379 19.9554 32.4595 19.8193C32.7006 19.6716 32.8018 19.3994 32.8018 19.3994C32.8018 19.3994 32.3701 19.3644 32.2262 19.096Z" fill="#543930"/>
<path d="M28.0156 21.0112V19.8757L31.4532 19.6035L31.7643 19.9885C31.7643 19.9885 31.0255 21.0112 29.0928 21.0112H28.0156Z" fill="url(#paint2_radial_780_9920)"/>
<path d="M31.7735 19.4971C31.2602 18.7155 32.3996 18.4238 32.3996 18.4238C32.2013 18.6688 32.1118 18.8866 32.2285 19.0966C32.3724 19.361 32.8079 19.3999 32.8079 19.3999C32.8079 19.3999 32.2168 19.9249 31.7735 19.4971Z" fill="url(#paint3_radial_780_9920)"/>
<path d="M33.1577 15.1069C33.6671 16.3513 33.1305 17.6346 32.6288 18.1751C32.5588 18.249 32.2672 18.5367 32.2011 18.7662C32.2011 18.7662 31.0539 17.164 30.7117 16.2269C30.6417 16.0363 30.5795 15.8419 30.5717 15.6397C30.5639 15.488 30.5873 15.3091 30.6767 15.1808C30.7856 15.0214 33.1032 14.9786 33.1032 14.9786C33.0994 14.9747 33.1577 15.1069 33.1577 15.1069Z" fill="url(#paint4_radial_780_9920)"/>
<path d="M22.901 15.1049C22.3916 16.3493 22.9282 17.6325 23.4299 18.173C23.4999 18.2469 23.7915 18.5347 23.8576 18.7641C23.8576 18.7641 25.0048 17.162 25.347 16.2248C25.417 16.0343 25.4792 15.8398 25.487 15.6376C25.4947 15.486 25.4714 15.3071 25.382 15.1788C25.2731 15.0193 25.1487 15.0621 24.9698 15.0621C24.6237 15.0621 23.1071 14.9727 22.9904 14.9727C22.9943 14.9727 22.901 15.1049 22.901 15.1049Z" fill="url(#paint5_radial_780_9920)"/>
<path d="M28.0221 21.0112V19.8757L24.5845 19.6035L24.2734 19.9885C24.2734 19.9885 25.0123 21.0112 26.945 21.0112H28.0221Z" fill="url(#paint6_radial_780_9920)"/>
<path d="M24.2922 19.4971C24.8094 18.7155 23.6661 18.4238 23.6661 18.4238C23.8644 18.6688 23.9539 18.8866 23.8372 19.0966C23.6933 19.361 23.2578 19.3999 23.2578 19.3999C23.2578 19.3999 23.845 19.9249 24.2922 19.4971Z" fill="url(#paint7_radial_780_9920)"/>
<path d="M40.5389 12.1014L38.7734 11.2109C37.3618 12.5953 36.693 13.7814 36.063 15.8462C34.7292 16.4801 33.5782 17.6428 32.8315 18.8444C32.0382 19.9371 31.5405 20.5438 30.9689 21.6287C30.5372 22.4531 30.8483 23.3709 31.6299 23.9425C31.9994 24.2147 32.2988 24.3314 32.5904 24.3314C32.9171 24.3314 33.2282 24.1797 33.6093 23.923C34.4142 23.4642 35.5069 22.2509 36.2069 21.3487L36.1875 21.3371C37.078 20.2288 37.9763 18.6655 38.4235 17.1878C39.6756 15.8812 40.5389 14.1663 40.5389 12.1014Z" fill="url(#paint8_linear_780_9920)"/>
<path d="M25.031 21.6326C24.4594 20.5477 23.9616 19.941 23.1683 18.8483C22.4217 17.6467 21.2706 16.484 19.9368 15.8501C19.303 13.7775 18.6341 12.5953 17.2225 11.2109L15.4609 12.1053C15.4609 14.1702 16.3242 15.8812 17.5764 17.1917C18.0236 18.6655 18.918 20.2327 19.8124 21.341L19.7929 21.3526C20.4929 22.2548 21.5856 23.4681 22.3906 23.9269C22.7717 24.1836 23.0828 24.3352 23.4094 24.3352C23.7011 24.3352 24.0005 24.2147 24.3699 23.9464C25.1476 23.3747 25.4626 22.4531 25.031 21.6326Z" fill="url(#paint9_linear_780_9920)"/>
<path d="M32.8317 18.8476C32.1356 19.8043 31.669 20.3914 31.179 21.2508C30.7007 21.1264 30.1601 21.0564 29.5613 21.0564H26.3842C25.797 21.0564 25.2721 21.1264 24.8054 21.247C24.3155 20.3876 23.8488 19.8004 23.1527 18.8438L19.7812 21.352C20.4812 22.2541 21.99 23.9263 21.99 23.9263C22.3128 25.5051 24.1716 31.7814 24.1716 31.7814H32.0539L34.0644 23.8951C34.0644 23.8951 35.5226 22.2308 36.2071 21.3558L32.8317 18.8476Z" fill="url(#paint10_linear_780_9920)"/>
<path d="M26.6406 21.3275C26.6406 21.9731 27.1889 22.498 27.8656 22.498H28.1105C28.7872 22.498 29.3355 21.9731 29.3355 21.3275V19.9004H26.6406V21.3275Z" fill="#E59600"/>
<path d="M24.6982 18.1183C24.0954 18.1183 23.6016 17.5894 23.6016 16.94C23.6016 16.2906 24.0915 15.7617 24.6982 15.7617H31.2778C31.8806 15.7617 32.3744 16.2906 32.3744 16.94C32.3744 17.5894 31.8845 18.1183 31.2778 18.1183H24.6982Z" fill="#E59600"/>
<path d="M28.0053 10.8711C25.921 10.8711 23.9922 13.0993 23.9922 16.3036C23.9922 19.4923 25.9793 21.0672 28.0053 21.0672C30.0313 21.0672 32.0184 19.4923 32.0184 16.3036C32.0184 13.0993 30.0896 10.8711 28.0053 10.8711Z" fill="#FFCA28"/>
<path d="M28.4632 17.6874C28.4515 17.6836 28.4359 17.6797 28.4243 17.6758H27.5726C27.561 17.6758 27.5454 17.6797 27.5338 17.6874C27.456 17.7186 27.4132 17.8002 27.4521 17.8858C27.4871 17.9713 27.6582 18.2085 28.0004 18.2085C28.3426 18.2085 28.5098 17.9713 28.5487 17.8858C28.5837 17.8002 28.5409 17.7186 28.4632 17.6874Z" fill="#E59600"/>
<path d="M29.0148 18.6536C28.6298 18.8831 27.3738 18.8831 26.9927 18.6536C26.771 18.5214 26.5455 18.7236 26.6388 18.922C26.7283 19.1203 27.4166 19.5753 28.0076 19.5753C28.5987 19.5753 29.2792 19.1203 29.3687 18.922C29.4581 18.7236 29.2365 18.5214 29.0148 18.6536Z" fill="#795548"/>
<path d="M26.0599 17.182C26.382 17.182 26.6432 16.9104 26.6432 16.5754C26.6432 16.2403 26.382 15.9688 26.0599 15.9688C25.7377 15.9688 25.4766 16.2403 25.4766 16.5754C25.4766 16.9104 25.7377 17.182 26.0599 17.182Z" fill="#404040"/>
<path d="M29.9739 17.182C30.2961 17.182 30.5572 16.9104 30.5572 16.5754C30.5572 16.2403 30.2961 15.9688 29.9739 15.9688C29.6518 15.9688 29.3906 16.2403 29.3906 16.5754C29.3906 16.9104 29.6518 17.182 29.9739 17.182Z" fill="#404040"/>
<path d="M26.9233 15.4847C26.8106 15.3369 26.5539 15.123 26.0561 15.123C25.5545 15.123 25.2979 15.3369 25.189 15.4847C25.1384 15.5508 25.154 15.6247 25.1851 15.6714C25.2162 15.7141 25.3095 15.753 25.4145 15.718C25.5195 15.683 25.7178 15.578 26.0561 15.5741C26.3945 15.578 26.5967 15.6791 26.6978 15.718C26.8028 15.753 26.8961 15.7141 26.9272 15.6714C26.9622 15.6247 26.9739 15.5508 26.9233 15.4847Z" fill="#6D4C41"/>
<path d="M30.8374 15.4847C30.7246 15.3369 30.468 15.123 29.9702 15.123C29.4686 15.123 29.2119 15.3369 29.103 15.4847C29.0525 15.5508 29.068 15.6247 29.0991 15.6714C29.1303 15.7141 29.2236 15.753 29.3286 15.718C29.4336 15.683 29.6319 15.578 29.9702 15.5741C30.3085 15.578 30.5107 15.6791 30.6118 15.718C30.7168 15.753 30.8102 15.7141 30.8413 15.6714C30.8763 15.6247 30.8879 15.5508 30.8374 15.4847Z" fill="#6D4C41"/>
<path d="M32.8463 12.5194C32.5546 12.0761 31.8936 11.4811 31.3064 11.4422C31.213 10.8744 30.6025 10.3923 30.0153 10.2095C28.4249 9.70395 27.3905 10.2717 26.8305 10.575C26.7138 10.6372 25.9672 11.0533 25.4461 10.7539C25.1195 10.5672 25.1234 10.0656 25.1234 10.0656C25.1234 10.0656 24.0968 10.4545 24.4467 11.5433C24.0968 11.5589 23.634 11.7066 23.389 12.2005C23.0974 12.7877 23.2024 13.2815 23.284 13.5188C22.9807 13.7754 22.5996 14.3237 22.8602 15.0353C23.0585 15.572 23.844 15.817 23.844 15.817C23.7896 16.7814 23.9684 17.3724 24.0618 17.6135C24.0773 17.6563 24.1395 17.6524 24.1473 17.6096C24.2679 17.1313 24.6723 15.4709 24.6334 15.1792C24.6334 15.1792 25.9983 14.907 27.2971 13.9504C27.5616 13.756 27.8493 13.5887 28.1527 13.4682C29.7859 12.8188 30.1281 13.9271 30.1281 13.9271C30.1281 13.9271 31.2597 13.7093 31.6019 15.2842C31.7302 15.8753 31.8197 16.8164 31.8897 17.4774C31.8936 17.5241 31.9597 17.5358 31.9752 17.4891C32.088 17.2286 32.3174 16.7075 32.3719 16.1786C32.3913 15.992 32.893 15.747 33.1107 14.9459C33.414 13.8648 33.0563 12.8382 32.8463 12.5194Z" fill="#543930"/>
<path d="M32.3797 16.1681C32.3991 15.9814 32.9008 15.7364 33.1185 14.9354C33.1419 14.8498 33.1613 14.7643 33.1769 14.6748C33.3518 13.7026 33.0369 12.8083 32.8424 12.5127C32.5702 12.1005 31.9869 11.5639 31.4347 11.4511C31.3881 11.4433 31.3414 11.4394 31.2947 11.4355C31.2947 11.4355 31.3336 11.6922 31.2286 11.8983C31.0925 12.1666 30.8203 12.2288 30.8203 12.2288C32.2591 13.6754 32.158 14.8809 32.3797 16.1681Z" fill="url(#paint11_radial_780_9920)"/>
<path d="M27.1889 10.3891C27.0567 10.4514 26.94 10.5175 26.8389 10.5719C26.7223 10.6341 25.9756 11.0502 25.4546 10.7508C25.1318 10.568 25.1318 10.0781 25.1318 10.0625C24.984 10.253 24.5368 11.5985 25.8434 11.688C26.4073 11.7269 26.7573 11.233 26.9634 10.8169C27.0373 10.6691 27.1578 10.4475 27.1889 10.3891Z" fill="url(#paint12_radial_780_9920)"/>
<path d="M29.8455 10.155C30.7244 10.3922 31.156 10.8394 31.2999 11.4383C31.3427 11.6133 31.3932 13.2504 28.2667 11.3916C27.104 10.6994 27.4229 10.2639 27.559 10.2172C28.0878 10.0267 28.8617 9.89059 29.8455 10.155Z" fill="url(#paint13_radial_780_9920)"/>
<path d="M25.1201 10.0642C25.1162 10.0642 25.1162 10.0642 25.1123 10.0681C24.9995 10.1148 24.1207 10.5231 24.4473 11.5419L25.3845 11.6936C24.5601 10.8536 25.124 10.0603 25.1201 10.0642C25.124 10.0642 25.124 10.0603 25.1201 10.0642Z" fill="url(#paint14_radial_780_9920)"/>
<path d="M25.0169 11.6324L24.4375 11.5391C24.4142 11.5391 24.3364 11.5468 24.2975 11.5507C23.9709 11.5974 23.5898 11.7646 23.3798 12.1963C23.1581 12.659 23.162 13.0595 23.2242 13.324C23.2398 13.4134 23.2787 13.5145 23.2787 13.5145C23.2787 13.5145 23.5664 13.2423 24.247 13.2268L25.0169 11.6324Z" fill="url(#paint15_radial_780_9920)"/>
<path d="M23.258 13.5376C22.9741 13.7904 22.5891 14.3543 22.873 15.0542C23.0869 15.5831 23.8451 15.8125 23.8451 15.8125C23.8451 15.8164 23.9968 15.8592 24.0746 15.8592L24.2535 13.2227C23.8879 13.2227 23.5379 13.3315 23.3124 13.4871C23.3163 13.4949 23.258 13.5338 23.258 13.5376Z" fill="url(#paint16_radial_780_9920)"/>
<path d="M18.7698 9.7811C18.4198 9.57499 16.7594 9.31445 15.6122 9.31445C14.9822 9.31445 14.5117 9.39612 14.5117 9.60999L14.5078 10.9438C14.5039 12.2854 15.3789 13.382 16.8255 13.3859H16.8294C19.4503 13.3859 19.6564 10.2983 18.7698 9.7811Z" fill="url(#paint17_radial_780_9920)"/>
<path d="M18.6819 11.2043C18.6663 11.2549 18.5302 11.3054 18.3824 11.3443H18.3786C18.2075 11.3871 18.0052 11.4727 17.628 11.5776C17.1031 11.7254 17.0603 12.4293 17.0603 12.4293C16.9631 12.0637 17.212 11.4221 17.558 11.2743V11.2704C17.7214 11.1927 17.9041 11.1499 18.0986 11.1188C18.1297 11.1149 18.2075 11.111 18.3047 11.1149H18.3086C18.4836 11.1188 18.7013 11.1421 18.6819 11.2043Z" fill="#EDA600"/>
<path d="M51.3361 10.3062C51.3361 10.8428 51.0522 11.2783 50.6983 11.2783H5.30962C4.95964 11.2783 4.67188 10.8428 4.67188 10.3062C4.67188 9.76952 4.95964 9.33398 5.30962 9.33398H50.6944C51.0483 9.33398 51.3361 9.76952 51.3361 10.3062Z" fill="url(#paint18_linear_780_9920)"/>
<path d="M11.2551 15.9415C12.5422 15.9415 13.5883 14.8955 13.5883 13.6083V7.05587C13.5883 5.76871 12.5422 4.72266 11.2551 4.72266C9.96793 4.72266 8.92188 5.76871 8.92188 7.05587V13.6083C8.92188 14.8955 9.96404 15.9415 11.2551 15.9415Z" fill="url(#paint19_radial_780_9920)"/>
<path d="M44.7551 15.9415C43.4679 15.9415 42.4219 14.8955 42.4219 13.6083V7.05587C42.4219 5.76871 43.4679 4.72266 44.7551 4.72266C46.0422 4.72266 47.0883 5.76871 47.0883 7.05587V13.6083C47.0883 14.8955 46.0461 15.9415 44.7551 15.9415Z" fill="url(#paint20_radial_780_9920)"/>
<path d="M7.0086 13.6962C7.868 13.6962 8.56407 13.0001 8.56407 12.1407V8.52032C8.56407 7.66092 7.868 6.96484 7.0086 6.96484C6.1492 6.96484 5.45312 7.66092 5.45312 8.52032V12.1407C5.45312 13.0001 6.1492 13.6962 7.0086 13.6962Z" fill="url(#paint21_radial_780_9920)"/>
<path d="M49.0086 13.6962C48.1492 13.6962 47.4531 13.0001 47.4531 12.1407V8.52032C47.4531 7.66092 48.1492 6.96484 49.0086 6.96484C49.868 6.96484 50.5641 7.66092 50.5641 8.52032V12.1407C50.5641 13.0001 49.868 13.6962 49.0086 13.6962Z" fill="url(#paint22_radial_780_9920)"/>
<path d="M18.1345 11.2783H14.5064L14.1953 9.33398H18.1345V11.2783Z" fill="#646464"/>
<path d="M19.1432 8.95888L19.0305 9.56163L19.0071 9.69384L18.9527 9.98549L18.9216 10.1566C18.8555 10.5066 18.5483 10.7516 18.2061 10.7516C18.1633 10.7516 18.1166 10.7477 18.0738 10.7399C17.895 10.7088 17.7433 10.6155 17.6383 10.4755C17.51 10.5921 17.3428 10.6582 17.16 10.6582C17.0511 10.6582 16.7089 10.5066 16.6506 10.4482C16.635 10.4327 16.6195 10.4171 16.6078 10.3977C16.5923 10.4094 16.5767 10.4249 16.5611 10.4366C16.5534 10.4405 16.3317 10.5727 16.1062 10.5688C15.8962 10.5649 15.6862 10.4366 15.624 10.3744C15.5618 10.4638 15.4762 10.5416 15.3751 10.596C15.3051 10.6388 15.2273 10.666 15.1418 10.6777C15.1029 10.6855 15.064 10.6893 15.0251 10.6893C14.8696 10.6893 14.7179 10.6388 14.5935 10.5455C14.4301 10.4288 14.3252 10.2577 14.2979 10.0633L14.2474 9.73273V9.72884L14.1813 9.30497C14.1502 9.11054 14.1968 8.91611 14.3135 8.75667C14.4301 8.59335 14.6012 8.48835 14.7957 8.46113C14.8423 8.45335 14.889 8.44946 14.9357 8.45335C14.9473 8.45335 14.9629 8.45335 14.9746 8.45724C15.099 8.46502 15.2234 8.50779 15.3323 8.58557C15.3479 8.59723 15.3595 8.6089 15.3712 8.61668C15.3945 8.52724 15.4412 8.44169 15.4995 8.37169C15.5151 8.34836 15.5306 8.32891 15.5501 8.30947C15.5734 8.28225 15.5929 8.27058 15.6006 8.26281C15.6045 8.26281 15.6045 8.25892 15.6045 8.25892C15.7212 8.15781 15.8728 8.09559 16.0401 8.08782C16.0945 8.08393 16.1489 8.08782 16.1995 8.09559C16.2384 8.10337 16.2734 8.11504 16.3084 8.1267C16.4095 8.15781 16.4989 8.20837 16.5767 8.27836C16.6 8.24725 16.6273 8.21614 16.6545 8.18892C16.6934 8.15004 16.7361 8.11504 16.7789 8.08782C16.8022 8.07226 16.8295 8.0606 16.8528 8.04504C16.95 7.99838 17.0589 7.97505 17.1717 7.97893C17.2961 7.97893 17.4167 8.01004 17.5255 8.07226C17.545 8.08004 17.5605 8.09171 17.5761 8.10337C17.615 8.13059 17.65 8.1617 17.685 8.1967C17.7472 8.25892 17.7977 8.3328 17.8327 8.41058C17.8794 8.34058 17.9416 8.27447 18.0155 8.22392C18.0311 8.21225 18.0505 8.20059 18.07 8.19281C18.1477 8.15004 18.2294 8.11893 18.3149 8.10726C18.3966 8.09559 18.4783 8.09559 18.5599 8.11115C18.7544 8.14615 18.9177 8.25503 19.0305 8.41447C19.1393 8.57779 19.1782 8.76834 19.1432 8.95888Z" fill="url(#paint23_linear_780_9920)"/>
<path d="M32.4415 31.9341L32.1693 31.1719H24.0148L23.867 31.9496L20.3672 35.0256L24.2714 39.0815C24.2714 39.0815 26.9118 36.8766 27.1491 36.6666C27.4096 36.4333 27.7246 36.406 27.9151 36.4022C28.1057 36.406 28.4207 36.4333 28.6812 36.6666C28.9184 36.8805 31.5588 39.0815 31.5588 39.0815L35.6108 35.0256L32.4415 31.9341Z" fill="#7C7C7C"/>
<path d="M19.068 9.3812C18.9319 9.73118 18.1931 9.39675 17.9131 9.25287C17.8703 8.91067 17.8276 8.68513 17.8276 8.68513C17.8276 8.68513 17.8276 8.68513 17.8276 8.68901C17.8392 8.88345 17.6448 9.02344 17.462 8.95344C17.2559 8.87178 17.0187 8.80567 16.8476 8.81345C16.7815 8.81734 16.7271 8.82901 16.6765 8.84456C16.6298 8.6929 16.6026 8.5918 16.6026 8.5918C16.6026 8.5918 16.6026 8.60735 16.6026 8.63457C16.5948 8.76679 16.5326 8.89123 16.4237 8.96511C15.9999 9.24121 15.891 9.76229 16.3926 10.3184C16.2215 10.435 15.9532 10.4273 15.8015 10.2717C15.6071 10.0773 15.5255 9.45897 15.4127 9.00011C15.4477 9.32676 15.5449 9.91006 15.4982 10.1356C15.4399 10.4078 15.1677 10.5789 14.8955 10.5128C14.6583 10.4545 14.3783 10.2639 14.2422 9.73896L14.2927 10.0695C14.32 10.2639 14.425 10.435 14.5883 10.5517C14.7127 10.645 14.8644 10.6956 15.0199 10.6956C15.0588 10.6956 15.0977 10.6917 15.1366 10.6839C15.2105 10.6722 15.2766 10.6489 15.3388 10.6178C15.3427 10.6139 15.3505 10.6139 15.3544 10.61C15.3582 10.6061 15.366 10.6061 15.3699 10.6022C15.5332 10.5128 15.6149 10.3884 15.6188 10.3806C15.6382 10.4117 15.8404 10.5789 16.0854 10.5789C16.4237 10.5789 16.556 10.4428 16.556 10.4428C16.5871 10.4623 16.6182 10.4778 16.6493 10.4895C16.6726 10.4973 17.5826 10.8045 17.5476 11.1506C17.5437 11.1933 17.5476 11.2361 17.5515 11.2789V11.2944C17.5515 11.2944 17.5515 11.2944 17.5515 11.2983C17.5631 11.3994 17.5865 11.4966 17.6215 11.5861L17.6253 11.5822C17.7187 11.5083 17.9442 11.5705 17.9637 11.4383C18.0375 10.9367 18.0181 10.3378 17.9714 9.82451L18.9514 9.98783L19.068 9.3812Z" fill="#EDA600"/>
<path d="M19.2461 10.6452C19.0556 9.59913 17.7917 9.1636 17.3173 8.99639C17.259 8.97694 16.3918 8.77084 16.2868 9.5408C16.2402 9.87523 16.4929 10.2408 16.8157 10.3652C17.6984 10.7035 17.6945 10.8902 17.6945 11.0146C17.6906 11.3374 17.8695 11.9479 18.1495 12.1307C18.2078 12.1696 18.2739 12.1929 18.3362 12.1929C18.375 12.1929 18.4139 12.1851 18.4528 12.1696C19.0011 11.9401 19.355 11.2557 19.2461 10.6452Z" fill="url(#paint24_linear_780_9920)"/>
<path d="M37.2721 9.7811C37.6221 9.57499 39.2825 9.31445 40.4297 9.31445C41.0597 9.31445 41.5302 9.39612 41.5302 9.60999L41.5341 10.9438C41.538 12.2854 40.663 13.382 39.2164 13.3859H39.2125C36.5916 13.3859 36.3816 10.2983 37.2721 9.7811Z" fill="url(#paint25_radial_780_9920)"/>
<path d="M37.3606 11.2043C37.3761 11.2549 37.5123 11.3054 37.66 11.3443H37.6639C37.835 11.3871 38.0372 11.4727 38.4144 11.5776C38.9394 11.7254 38.9822 12.4293 38.9822 12.4293C39.0794 12.0637 38.8305 11.4221 38.4844 11.2743V11.2704C38.3211 11.1927 38.1383 11.1499 37.9439 11.1188C37.9128 11.1149 37.835 11.111 37.7378 11.1149H37.7339C37.5589 11.1188 37.3411 11.1421 37.3606 11.2043Z" fill="#EDA600"/>
<path d="M37.9141 9.33398H41.8533L41.5422 11.2783H37.9141V9.33398Z" fill="#646464"/>
<path d="M36.9109 8.95888L37.0237 9.56163L37.047 9.69384L37.1015 9.98549L37.1326 10.1566C37.1987 10.5066 37.5059 10.7516 37.8481 10.7516C37.8909 10.7516 37.9375 10.7477 37.9803 10.7399C38.1592 10.7088 38.3108 10.6155 38.4158 10.4755C38.5442 10.5921 38.7114 10.6582 38.8942 10.6582C39.003 10.6582 39.3452 10.5066 39.4036 10.4482C39.4191 10.4327 39.4347 10.4171 39.4463 10.3977C39.4619 10.4094 39.4775 10.4249 39.493 10.4366C39.5008 10.4405 39.7224 10.5727 39.948 10.5688C40.158 10.5649 40.3641 10.4366 40.4302 10.3744C40.4924 10.4638 40.5779 10.5416 40.6791 10.596C40.7491 10.6388 40.8268 10.666 40.9124 10.6777C40.9513 10.6855 40.9902 10.6893 41.029 10.6893C41.1846 10.6893 41.3362 10.6388 41.4607 10.5455C41.624 10.4288 41.729 10.2577 41.7562 10.0633L41.8068 9.73273V9.72884L41.8729 9.30497C41.904 9.11054 41.8573 8.91611 41.7407 8.75667C41.624 8.59335 41.4529 8.48835 41.2585 8.46113C41.2118 8.45335 41.1651 8.44946 41.1185 8.45335C41.1068 8.45335 41.0913 8.45335 41.0796 8.45724C40.9552 8.46502 40.8307 8.50779 40.7218 8.58557C40.7063 8.59723 40.6946 8.6089 40.6829 8.61668C40.6596 8.52724 40.6129 8.44169 40.5546 8.37169C40.5391 8.34836 40.5235 8.32891 40.5041 8.30947C40.4807 8.28225 40.4613 8.27058 40.4535 8.26281C40.4496 8.26281 40.4496 8.25892 40.4496 8.25892C40.333 8.15781 40.1813 8.09559 40.0141 8.08782C39.9596 8.08393 39.9052 8.08782 39.8547 8.09559C39.8158 8.10337 39.7808 8.11504 39.7458 8.1267C39.6447 8.15781 39.5552 8.20837 39.4775 8.27836C39.4541 8.24725 39.4269 8.21614 39.3997 8.18892C39.3608 8.15004 39.318 8.11504 39.2752 8.08782C39.2519 8.07226 39.2247 8.0606 39.2014 8.04504C39.1041 7.99838 38.9953 7.97505 38.8825 7.97893C38.758 7.97893 38.6375 8.01004 38.5286 8.07226C38.5092 8.08004 38.4936 8.09171 38.4781 8.10337C38.4392 8.13059 38.4042 8.1617 38.3692 8.1967C38.307 8.25892 38.2564 8.3328 38.2214 8.41058C38.1747 8.34058 38.1125 8.27447 38.0386 8.22392C38.0231 8.21225 38.0036 8.20059 37.9842 8.19281C37.9064 8.15004 37.8248 8.11893 37.7392 8.10726C37.6575 8.09559 37.5759 8.09559 37.4942 8.11115C37.2998 8.14615 37.1365 8.25503 37.0237 8.41447C36.9148 8.57779 36.8759 8.76834 36.9109 8.95888Z" fill="url(#paint26_linear_780_9920)"/>
<path d="M36.9688 9.3812C37.1049 9.73118 37.8437 9.39675 38.1237 9.25287C38.1665 8.91067 38.2092 8.68513 38.2092 8.68513C38.2092 8.68513 38.2092 8.68513 38.2092 8.68901C38.1976 8.88345 38.392 9.02344 38.5748 8.95344C38.7809 8.87178 39.0181 8.80567 39.1892 8.81345C39.2553 8.81734 39.3097 8.82901 39.3603 8.84456C39.407 8.6929 39.4342 8.5918 39.4342 8.5918C39.4342 8.5918 39.4342 8.60735 39.4342 8.63457C39.442 8.76679 39.5042 8.89123 39.6131 8.96511C40.0369 9.24121 40.1458 9.76229 39.6442 10.3184C39.8153 10.435 40.0836 10.4273 40.2352 10.2717C40.4297 10.0773 40.5113 9.45897 40.6241 9.00011C40.5891 9.32676 40.4919 9.91006 40.5386 10.1356C40.593 10.4078 40.8691 10.5789 41.1413 10.5128C41.3785 10.4545 41.6585 10.2639 41.7946 9.73896L41.7441 10.0695C41.7168 10.2639 41.6118 10.435 41.4485 10.5517C41.3241 10.645 41.1724 10.6956 41.0169 10.6956C40.978 10.6956 40.9391 10.6917 40.9002 10.6839C40.8263 10.6722 40.7602 10.6489 40.698 10.6178C40.6941 10.6139 40.6863 10.6139 40.6824 10.61C40.6786 10.6061 40.6708 10.6061 40.6669 10.6022C40.5036 10.5128 40.4219 10.3884 40.418 10.3806C40.3986 10.4117 40.1964 10.5789 39.9514 10.5789C39.6131 10.5789 39.4808 10.4428 39.4808 10.4428C39.4497 10.4623 39.4186 10.4778 39.3875 10.4895C39.3603 10.4973 38.4581 10.8045 38.4892 11.1506C38.4931 11.1933 38.4892 11.2361 38.4853 11.2789V11.2944C38.4853 11.2944 38.4853 11.2944 38.4853 11.2983C38.4737 11.3994 38.4503 11.4966 38.4153 11.5861L38.4115 11.5822C38.3181 11.5083 38.0926 11.5705 38.0731 11.4383C37.9993 10.9367 38.0187 10.3378 38.0654 9.82451L37.0854 9.98783L36.9688 9.3812Z" fill="#EDA600"/>
<path d="M36.7931 10.6452C36.9837 9.59913 38.2475 9.1636 38.7219 8.99639C38.7802 8.97694 39.6474 8.77084 39.7524 9.5408C39.7991 9.87523 39.5463 10.2408 39.2235 10.3652C38.3408 10.7035 38.3447 10.8902 38.3447 11.0146C38.3486 11.3374 38.1697 11.9479 37.8897 12.1307C37.8314 12.1696 37.7653 12.1929 37.7031 12.1929C37.6642 12.1929 37.6253 12.1851 37.5864 12.1696C37.0381 11.9401 36.6842 11.2557 36.7931 10.6452Z" fill="url(#paint27_linear_780_9920)"/>
<defs>
<linearGradient id="paint0_linear_780_9920" x1="33.0593" y1="31.6433" x2="33.0593" y2="46.5475" gradientUnits="userSpaceOnUse">
<stop stop-color="#FFB300"/>
<stop offset="0.5" stop-color="#FFCA28"/>
</linearGradient>
<linearGradient id="paint1_linear_780_9920" x1="22.9499" y1="31.6433" x2="22.9499" y2="46.5475" gradientUnits="userSpaceOnUse">
<stop stop-color="#FFB300"/>
<stop offset="0.5" stop-color="#FFCA28"/>
</linearGradient>
<radialGradient id="paint2_radial_780_9920" cx="0" cy="0" r="1" gradientUnits="userSpaceOnUse" gradientTransform="translate(29.7712 19.3723) scale(2.81622 1.38333)">
<stop offset="0.7275" stop-color="#6D4C41" stop-opacity="0"/>
<stop offset="1" stop-color="#6D4C41"/>
</radialGradient>
<radialGradient id="paint3_radial_780_9920" cx="0" cy="0" r="1" gradientUnits="userSpaceOnUse" gradientTransform="translate(32.5636 18.9551) rotate(154.924) scale(0.832213 0.617384)">
<stop offset="0.6628" stop-color="#6D4C41"/>
<stop offset="1" stop-color="#6D4C41" stop-opacity="0"/>
</radialGradient>
<radialGradient id="paint4_radial_780_9920" cx="0" cy="0" r="1" gradientUnits="userSpaceOnUse" gradientTransform="translate(30.4059 16.6024) rotate(-94.2783) scale(3.65558 3.0467)">
<stop offset="0.7247" stop-color="#6D4C41" stop-opacity="0"/>
<stop offset="1" stop-color="#6D4C41"/>
</radialGradient>
<radialGradient id="paint5_radial_780_9920" cx="0" cy="0" r="1" gradientUnits="userSpaceOnUse" gradientTransform="translate(25.6559 16.6002) rotate(-85.7217) scale(3.65558 3.0467)">
<stop offset="0.7247" stop-color="#6D4C41" stop-opacity="0"/>
<stop offset="1" stop-color="#6D4C41"/>
</radialGradient>
<radialGradient id="paint6_radial_780_9920" cx="0" cy="0" r="1" gradientUnits="userSpaceOnUse" gradientTransform="translate(26.2692 19.3723) rotate(180) scale(2.81622 1.38333)">
<stop offset="0.7275" stop-color="#6D4C41" stop-opacity="0"/>
<stop offset="1" stop-color="#6D4C41"/>
</radialGradient>
<radialGradient id="paint7_radial_780_9920" cx="0" cy="0" r="1" gradientUnits="userSpaceOnUse" gradientTransform="translate(23.5018 18.9554) rotate(25.0761) scale(0.832214 0.617384)">
<stop offset="0.6628" stop-color="#6D4C41"/>
<stop offset="1" stop-color="#6D4C41" stop-opacity="0"/>
</radialGradient>
<linearGradient id="paint8_linear_780_9920" x1="34.4769" y1="20.0872" x2="39.4689" y2="11.9119" gradientUnits="userSpaceOnUse">
<stop stop-color="#FFB300"/>
<stop offset="0.5" stop-color="#FFCA28"/>
</linearGradient>
<linearGradient id="paint9_linear_780_9920" x1="21.4719" y1="20.0176" x2="16.4437" y2="11.9508" gradientUnits="userSpaceOnUse">
<stop stop-color="#FFB300"/>
<stop offset="0.5" stop-color="#FFCA28"/>
</linearGradient>
<linearGradient id="paint10_linear_780_9920" x1="27.9942" y1="21.0498" x2="27.9942" y2="30.9647" gradientUnits="userSpaceOnUse">
<stop stop-color="#F78C1F"/>
<stop offset="0.4936" stop-color="#F37F20"/>
<stop offset="1" stop-color="#ED6D23"/>
</linearGradient>
<radialGradient id="paint11_radial_780_9920" cx="0" cy="0" r="1" gradientUnits="userSpaceOnUse" gradientTransform="translate(30.1888 14.6724) rotate(72.0851) scale(4.28492 3.1793)">
<stop offset="0.6985" stop-color="#6D4C41" stop-opacity="0"/>
<stop offset="1" stop-color="#6D4C41"/>
</radialGradient>
<radialGradient id="paint12_radial_780_9920" cx="0" cy="0" r="1" gradientUnits="userSpaceOnUse" gradientTransform="translate(26.0246 10.0051) rotate(28.2026) scale(1.1235 1.33215)">
<stop offset="0.58" stop-color="#6D4C41"/>
<stop offset="1" stop-color="#6D4C41" stop-opacity="0"/>
</radialGradient>
<radialGradient id="paint13_radial_780_9920" cx="0" cy="0" r="1" gradientUnits="userSpaceOnUse" gradientTransform="translate(28.5252 12.0428) rotate(-157.19) scale(3.51377 1.97475)">
<stop offset="0.6985" stop-color="#6D4C41" stop-opacity="0"/>
<stop offset="1" stop-color="#6D4C41"/>
</radialGradient>
<radialGradient id="paint14_radial_780_9920" cx="0" cy="0" r="1" gradientUnits="userSpaceOnUse" gradientTransform="translate(25.5652 11.0313) scale(1.03124 1.26152)">
<stop offset="0.7016" stop-color="#6D4C41" stop-opacity="0"/>
<stop offset="1" stop-color="#6D4C41"/>
</radialGradient>
<radialGradient id="paint15_radial_780_9920" cx="0" cy="0" r="1" gradientUnits="userSpaceOnUse" gradientTransform="translate(25.4089 12.849) rotate(-164.942) scale(1.93415 1.81001)">
<stop offset="0.6605" stop-color="#6D4C41" stop-opacity="0"/>
<stop offset="1" stop-color="#6D4C41"/>
</radialGradient>
<radialGradient id="paint16_radial_780_9920" cx="0" cy="0" r="1" gradientUnits="userSpaceOnUse" gradientTransform="translate(24.9622 14.7156) rotate(7.83355) scale(2.03062 2.85335)">
<stop offset="0.5981" stop-color="#6D4C41" stop-opacity="0"/>
<stop offset="1" stop-color="#6D4C41"/>
</radialGradient>
<radialGradient id="paint17_radial_780_9920" cx="0" cy="0" r="1" gradientUnits="userSpaceOnUse" gradientTransform="translate(16.8762 11.3513) scale(2.20772)">
<stop stop-color="#FFB300"/>
<stop offset="0.5" stop-color="#FFCA28"/>
</radialGradient>
<linearGradient id="paint18_linear_780_9920" x1="28.004" y1="9.09246" x2="28.004" y2="11.4483" gradientUnits="userSpaceOnUse">
<stop stop-color="#BDBDBD"/>
<stop offset="1" stop-color="#757575"/>
</linearGradient>
<radialGradient id="paint19_radial_780_9920" cx="0" cy="0" r="1" gradientUnits="userSpaceOnUse" gradientTransform="translate(11.2346 6.48843) rotate(90) scale(8.5365 4.80036)">
<stop offset="0.3956" stop-color="#9E9E9E"/>
<stop offset="0.7899" stop-color="#646464"/>
</radialGradient>
<radialGradient id="paint20_radial_780_9920" cx="0" cy="0" r="1" gradientUnits="userSpaceOnUse" gradientTransform="translate(44.7763 6.52209) rotate(90) scale(8.5365 4.80036)">
<stop offset="0.3956" stop-color="#9E9E9E"/>
<stop offset="0.7899" stop-color="#646464"/>
</radialGradient>
<radialGradient id="paint21_radial_780_9920" cx="0" cy="0" r="1" gradientUnits="userSpaceOnUse" gradientTransform="translate(7.09511 8.10904) scale(1.83681 3.17712)">
<stop offset="0.4406" stop-color="#9E9E9E"/>
<stop offset="0.9854" stop-color="#646464"/>
</radialGradient>
<radialGradient id="paint22_radial_780_9920" cx="0" cy="0" r="1" gradientUnits="userSpaceOnUse" gradientTransform="translate(48.8892 8.10904) rotate(180) scale(1.83681 3.17712)">
<stop offset="0.4406" stop-color="#9E9E9E"/>
<stop offset="0.9854" stop-color="#646464"/>
</radialGradient>
<linearGradient id="paint23_linear_780_9920" x1="16.646" y1="9.5757" x2="16.6867" y2="8.28703" gradientUnits="userSpaceOnUse">
<stop stop-color="#FFB300"/>
<stop offset="0.5" stop-color="#FFCA28"/>
</linearGradient>
<linearGradient id="paint24_linear_780_9920" x1="16.7175" y1="11.0154" x2="18.7784" y2="9.98357" gradientUnits="userSpaceOnUse">
<stop stop-color="#FFB300"/>
<stop offset="0.4693" stop-color="#FFCA28"/>
</linearGradient>
<radialGradient id="paint25_radial_780_9920" cx="0" cy="0" r="1" gradientUnits="userSpaceOnUse" gradientTransform="translate(39.1657 11.3513) rotate(180) scale(2.20772)">
<stop stop-color="#FFB300"/>
<stop offset="0.5" stop-color="#FFCA28"/>
</radialGradient>
<linearGradient id="paint26_linear_780_9920" x1="39.4082" y1="9.5757" x2="39.3675" y2="8.28703" gradientUnits="userSpaceOnUse">
<stop stop-color="#FFB300"/>
<stop offset="0.5" stop-color="#FFCA28"/>
</linearGradient>
<linearGradient id="paint27_linear_780_9920" x1="39.3217" y1="11.0154" x2="37.2608" y2="9.98357" gradientUnits="userSpaceOnUse">
<stop stop-color="#FFB300"/>
<stop offset="0.4693" stop-color="#FFCA28"/>
</linearGradient>
</defs>
</svg>
