<svg width="57" height="56" viewBox="0 0 57 56" fill="none" xmlns="http://www.w3.org/2000/svg">
<path d="M29.9142 5.92381L35.1484 17.8621C35.5489 18.7759 36.4161 19.402 37.4116 19.4914L50.1626 20.6347C51.6053 20.8447 52.1808 22.614 51.1348 23.6329L41.5297 31.7019C40.752 32.3552 40.3981 33.3818 40.612 34.3734L43.404 47.4433C43.649 48.8782 42.1441 49.9748 40.8531 49.2943L29.7237 42.7769C28.8681 42.2752 27.8104 42.2752 26.9549 42.7769L15.8255 49.2904C14.5383 49.967 13.0295 48.8743 13.2745 47.4394L16.0666 34.3695C16.2766 33.3779 15.9266 32.3513 15.1489 31.698L5.53993 23.6368C4.49777 22.6218 5.07329 20.8486 6.5121 20.6386L19.2631 19.4953C20.2586 19.4059 21.1258 18.7798 21.5263 17.866L26.7605 5.9277C27.4099 4.6211 29.2687 4.6211 29.9142 5.92381Z" fill="#FDD835"/>
<path d="M29.5435 18.5793L28.6569 9.78305C28.6219 9.29308 28.5208 8.45312 29.3063 8.45312C29.9285 8.45312 30.2668 9.74806 30.2668 9.74806L32.9266 16.8099C33.9299 19.497 33.5177 20.4186 32.5494 20.963C31.4373 21.5852 29.7963 21.0991 29.5435 18.5793Z" fill="#FFFF8D"/>
<path d="M40.4942 30.9212L48.1238 24.9676C48.501 24.6526 49.1815 24.151 48.6371 23.5794C48.2055 23.1283 47.0389 23.7777 47.0389 23.7777L40.362 26.387C38.371 27.0753 37.0489 28.0941 36.9322 29.3774C36.7805 31.0884 38.3166 32.4067 40.4942 30.9212Z" fill="#F4B400"/>
</svg>
