<svg width="47" height="45" viewBox="0 0 47 45" fill="none" xmlns="http://www.w3.org/2000/svg">
<g id="Group">
<g id="Group_2">
<path id="Vector" d="M46.407 21.7648L40.99 20.0188C37.5252 18.8755 35.4953 16.0718 34.5426 12.5486L32.1588 0.937029C32.0966 0.707597 31.945 0.400391 31.4783 0.400391C31.0856 0.400391 30.86 0.707597 30.7978 0.937029L28.414 12.5525C27.4574 16.0757 25.4314 18.8794 21.9666 20.0227L16.5497 21.7687C15.7836 22.0176 15.7719 23.0986 16.5341 23.3592L21.9899 25.2374C25.4431 26.3846 27.4574 29.1844 28.414 32.692L30.8017 44.1753C30.8639 44.4047 30.9922 44.8169 31.4822 44.8169C31.9994 44.8169 32.1005 44.4047 32.1627 44.1753L34.5504 32.692C35.507 29.1805 37.5213 26.3807 40.9745 25.2374L46.4303 23.3592C47.1847 23.0948 47.1731 22.0137 46.407 21.7648Z" fill="#FDD835"/>
<path id="Vector_2" d="M46.9163 22.2494C46.8308 22.0355 46.6636 21.8488 46.403 21.7633L40.9861 20.0173C37.5213 18.874 35.4914 16.0703 34.5386 12.5471L32.1549 0.935497C32.1199 0.803282 31.9954 0.562184 31.8516 0.492188L32.6215 12.1466C33.1932 17.4663 33.6831 19.9706 37.9296 20.7017C41.5772 21.3316 45.7964 22.0549 46.9163 22.2494Z" fill="#FFEE58"/>
<path id="Vector_3" d="M46.938 22.8594L37.543 25.0137C34.2337 25.8537 32.4099 27.7708 32.4099 32.7872L31.4883 44.8188C31.8033 44.7877 32.0599 44.6166 32.1688 44.1771L34.5565 32.6939C35.5131 29.1824 37.5274 26.3825 40.9806 25.2393L46.4364 23.361C46.693 23.2677 46.8564 23.0771 46.938 22.8594Z" fill="#F4B400"/>
</g>
<g id="Group_3">
<path id="Vector_4" d="M15.3787 31.8672C12.1394 30.7978 11.8439 29.5923 11.2995 27.5585L9.94231 22.7988C9.86064 22.4916 9.05957 22.4916 8.97402 22.7988L8.05241 27.1969C7.5041 29.2229 6.3375 30.8328 4.34649 31.49L1.17332 32.8666C0.733903 33.0104 0.726126 33.6326 1.16555 33.7804L4.36204 34.912C6.34527 35.5692 7.5041 37.1791 8.05629 39.1973L8.97791 43.4049C9.06346 43.7121 9.86064 43.7121 9.94231 43.4049L11.0234 39.2168C11.5717 37.1869 12.4116 35.5731 15.1065 34.912L18.1085 33.7804C18.548 33.6287 18.5441 33.0066 18.1008 32.8627L15.3787 31.8672Z" fill="#FDD835"/>
<path id="Vector_5" d="M10.1927 27.4879C10.5233 30.5444 10.6905 31.3921 13.1676 32.026L18.3279 33.0331C18.2734 32.9593 18.1957 32.897 18.0907 32.8659L15.3686 31.8665C12.526 30.8944 11.7404 29.6578 11.2077 27.1846C10.6749 24.7114 10.1072 23.0976 10.1072 23.0976C9.90887 22.5648 9.625 22.592 9.625 22.592L10.1927 27.4879Z" fill="#FFEE58"/>
<path id="Vector_6" d="M10.2906 38.1556C10.2906 35.2741 11.8656 33.8469 14.3699 33.8469L18.2663 33.6875C18.2663 33.6875 18.0408 33.9869 17.648 34.0803L15.1048 34.9085C12.9466 35.7757 11.9628 36.2113 11.2939 39.1628C11.2939 39.1628 10.4306 42.5965 10.2673 42.9581C10.0418 43.4636 9.77344 43.5686 9.77344 43.5686L10.2906 38.1556Z" fill="#F4B400"/>
</g>
<path id="Vector_7" d="M22.3461 9.05602C22.5638 8.98213 22.5561 8.67104 22.3344 8.60882L19.3323 7.79997C18.7024 7.62887 18.2124 7.14278 18.0335 6.51671L16.8514 1.63641C16.793 1.3992 16.4547 1.3992 16.3964 1.6403L15.2842 6.50115C15.1131 7.14667 14.6076 7.64443 13.9621 7.81164L10.9795 8.58549C10.7578 8.64382 10.7422 8.95491 10.96 9.03269L14.106 10.1215C14.6698 10.316 15.1053 10.7748 15.2764 11.3465L16.4003 15.8534C16.4586 16.0868 16.793 16.0906 16.8514 15.8534L18.0141 11.3309C18.1891 10.7593 18.6285 10.3043 19.1962 10.1137L22.3461 9.05602Z" fill="#F4B400"/>
<path id="Vector (Stroke)" fill-rule="evenodd" clip-rule="evenodd" d="M16.2066 1.59371C16.312 1.15793 16.9316 1.15096 17.0394 1.58911L17.0395 1.58976L18.2207 6.46611C18.3818 7.02519 18.8197 7.45854 19.3823 7.61142C19.3824 7.61143 19.3823 7.6114 19.3823 7.61142L22.3861 8.42074C22.7927 8.53486 22.8056 9.10429 22.4077 9.23927L22.4072 9.23947L19.2573 10.2972C18.751 10.4671 18.3581 10.8726 18.2005 11.3828L17.0394 15.899C17.0393 15.8994 17.0392 15.8997 17.0391 15.9001C16.9298 16.3403 16.3165 16.3223 16.2108 15.8997L15.0881 11.3971C14.9338 10.8866 14.5442 10.4777 14.0418 10.3045L10.8938 9.21493C10.4933 9.07191 10.5254 8.50283 10.9292 8.39658L10.9298 8.39641L13.9124 7.62257C14.4897 7.47304 14.9409 7.02898 15.0946 6.45359L16.2066 1.59371ZM16.5848 1.68431L15.4722 6.54689L15.4714 6.5501C15.2821 7.26422 14.7228 7.81432 14.0101 7.99897C14.0101 7.99898 14.0101 7.99897 14.0101 7.99897L11.0281 8.77265C11.028 8.77267 11.0282 8.77263 11.0281 8.77265C11.0153 8.77607 11.0096 8.78141 11.0065 8.78556C11.0023 8.79099 10.9988 8.79945 10.9984 8.80989C10.9979 8.82031 11.0006 8.82871 11.0039 8.83409C11.0064 8.83803 11.0112 8.84379 11.024 8.84848C11.0242 8.84856 11.0244 8.84863 11.0246 8.84871L14.1685 9.93683C14.7924 10.152 15.2731 10.6591 15.4619 11.2898L15.4632 11.2942L16.5881 15.8054C16.5916 15.8193 16.597 15.8244 16.6008 15.8272C16.6062 15.8311 16.615 15.8345 16.626 15.8346C16.6369 15.8346 16.645 15.8313 16.6495 15.8281C16.6524 15.826 16.658 15.8212 16.6617 15.8061L16.6622 15.8042L17.8261 11.2773L17.8273 11.2731C18.0205 10.642 18.5058 10.1392 19.1336 9.92854L22.2828 8.87102C22.2828 8.871 22.2827 8.87104 22.2828 8.87102C22.2957 8.86662 22.3009 8.86085 22.3036 8.85664C22.3072 8.85109 22.3101 8.84256 22.3098 8.83216C22.3096 8.82176 22.3063 8.81349 22.3025 8.80826C22.2996 8.80439 22.2945 8.79906 22.2817 8.79535C22.2815 8.79528 22.2813 8.79521 22.281 8.79515L19.2809 7.98684L19.2806 7.98674C18.5846 7.79771 18.0433 7.26048 17.8458 6.56925L17.8447 6.56545L16.6617 1.68197C16.6617 1.68188 16.6618 1.68205 16.6617 1.68197C16.6581 1.66741 16.6524 1.66211 16.649 1.65961C16.6439 1.65592 16.6352 1.6525 16.624 1.65255C16.6129 1.6526 16.6041 1.65609 16.5987 1.66007C16.5949 1.66285 16.5887 1.66858 16.5848 1.68431Z" fill="#F4B400"/>
</g>
</svg>
