<svg width="65" height="64" viewBox="0 0 65 64" fill="none" xmlns="http://www.w3.org/2000/svg">
<path d="M33.9084 9.48524C32.7929 7.6809 30.2642 6.27653 28.1709 6.62317C25.8244 7.00982 24.5667 8.69862 24.2334 10.8407C24.1134 11.6185 24.1356 12.3918 24.2689 12.9384C24.2867 13.0051 24.4156 13.4806 24.4245 13.6317C24.5134 14.2094 23.3934 14.7827 23.2645 15.4183C23.1668 15.8982 24.1667 16.2049 24.2467 16.2893C24.6378 16.7204 24.02 18.7692 26.7621 18.9736C27.8154 19.0536 27.611 18.987 27.9221 19.107C28.4065 19.2936 28.362 20.5824 28.362 20.5824C28.362 20.5824 28.6331 22.7068 30.4464 22.1424C32.5174 21.5024 32.5974 20.0358 32.5974 20.0358C32.5974 20.0358 31.8285 17.9915 33.064 15.8671C34.0462 14.1694 34.6284 10.6452 33.9084 9.48524Z" fill="#FFCA28"/>
<path d="M24.5174 17.4345C24.8996 17.4567 25.2729 17.3678 25.5973 17.1278C25.9484 16.8656 25.7084 16.5768 25.304 16.7456C25.0595 16.8479 24.7173 16.9012 24.4062 16.8434L24.5174 17.4345Z" fill="#795548"/>
<path d="M26.1444 14.7234C26.4216 14.7146 26.6355 14.3615 26.622 13.9346C26.6085 13.5078 26.3729 13.1688 26.0957 13.1775C25.8185 13.1863 25.6047 13.5394 25.6181 13.9663C25.6316 14.3931 25.8672 14.7321 26.1444 14.7234Z" fill="#404040"/>
<path d="M25.7266 12.8083C25.2288 12.9238 25.131 12.5949 25.3088 12.3461C25.4377 12.1594 25.7443 12.0172 26.3087 12.1594C26.8421 12.2927 27.0465 12.6172 27.1843 12.8127C27.322 13.0082 27.2909 13.1949 27.1665 13.2082C26.9976 13.2171 26.3399 12.666 25.7266 12.8083Z" fill="#6D4C41"/>
<path d="M41.9438 51.8547L35.6908 44.7217C35.2997 44.2773 35.0686 43.7173 35.0331 43.1262L34.4198 33.1445L27.5312 33.9045L29.7 44.2017C30.0511 45.8683 30.9888 47.3527 32.3399 48.3882L39.6684 53.9879L41.9438 51.8547Z" fill="#616161"/>
<path d="M34.3412 31.5L26.5283 32.2155L24.515 41.2773C24.1462 42.9483 24.0173 44.6682 24.1373 46.3748L24.8617 56.7031H27.826L29.137 45.5793C29.137 45.5793 31.3636 39.6596 31.4347 39.624C33.2435 38.7663 34.8078 37.4375 34.7278 35.2554C34.6878 34.0021 34.4834 32.7399 34.3412 31.5Z" fill="#7C7C7C"/>
<path d="M32.8931 36.2256H27.6045C26.5956 36.2256 25.7734 35.2567 25.7734 34.0657L26.7289 24.0662C26.9245 22.2396 27.8533 20.4708 28.7866 19.8042C29.6621 19.1776 30.9287 19.0754 30.9287 19.0754C31.6087 19.022 32.6175 19.1865 33.2619 20.1286C33.6486 20.6931 33.9375 21.7952 33.9997 22.7418L34.7196 34.0657C34.7196 35.2612 33.9019 36.2256 32.8931 36.2256Z" fill="url(#paint0_linear_845_4741)"/>
<path d="M33.7454 30.3495L32.7455 24.2031L29.6479 24.7053L30.6034 30.5672L29.0168 34.9403C28.9146 35.1403 27.4791 35.7892 27.3902 35.8336C27.1147 35.9669 26.9236 36.2292 26.7813 36.7491C26.6969 37.0691 26.4836 37.9846 26.9325 38.1446C26.7813 38.5668 26.8791 39.0957 26.9947 39.2201C27.2613 39.509 27.5858 39.3801 27.5858 39.3801C27.5858 39.3801 27.6302 39.749 27.9235 39.8512C28.2879 39.9801 28.5413 39.7801 28.5413 39.7801C28.6701 39.8779 28.8257 39.9312 28.9901 39.9312C29.1857 39.9312 29.359 39.8556 29.4923 39.7579C29.5768 39.7934 29.8079 39.9312 30.1012 39.7223C30.2878 39.589 30.8745 38.8201 31.0567 38.3268C31.1811 37.9891 31.1633 36.2914 31.3189 35.9936C31.4744 35.6959 33.6032 31.4605 33.6032 31.4605H33.5988C33.7899 31.1094 33.8343 30.7139 33.7454 30.3495Z" fill="url(#paint1_linear_845_4741)"/>
<path d="M30.2212 38.5316C30.119 38.265 30.0523 38.2472 29.8656 38.2961C29.6123 38.3628 29.3368 38.3539 29.1812 38.0428C29.1457 37.9672 29.0923 37.9406 29.0123 37.9672C28.7412 38.0561 28.4035 38.0606 28.2879 37.6517C28.2435 37.5006 28.1813 37.4828 28.0168 37.4828C27.9635 37.4828 27.808 37.5495 27.648 37.3806C27.4702 37.1895 27.7102 36.8073 27.4835 36.7717C27.4169 36.7628 27.0969 36.7984 26.9991 36.4562C26.9369 36.234 27.1947 35.9673 27.1991 35.9629C27.0213 36.1184 26.8836 36.3629 26.7813 36.754C26.6969 37.0739 26.4836 37.9894 26.9325 38.1494C26.7813 38.5716 26.8791 39.1005 26.9947 39.2249C27.2613 39.5138 27.5858 39.3849 27.5858 39.3849C27.5858 39.3849 27.6302 39.7538 27.9235 39.856C28.2879 39.9849 28.5413 39.7849 28.5413 39.7849C28.6701 39.8827 28.8257 39.936 28.9901 39.936C29.1857 39.936 29.359 39.8605 29.4923 39.7627C29.5768 39.7982 29.8079 39.936 30.1012 39.7271C30.2567 39.616 30.6967 39.0516 30.9411 38.5805C30.7234 38.7539 30.2967 38.7316 30.2212 38.5316Z" fill="url(#paint2_linear_845_4741)"/>
<path d="M28.3183 58.6541C28.5982 58.6541 28.8293 58.4274 28.8293 58.143V56.8986C28.8293 56.0542 27.9716 55.0898 27.9716 55.0898H24.8696L22.0786 56.0098C21.4031 56.2764 20.9542 56.9253 20.9498 57.6497L20.9453 58.2097C20.9453 58.4541 21.1453 58.6541 21.3897 58.6541H28.3183Z" fill="#4568AD"/>
<path d="M43.8994 53.2598C44.0994 53.0598 44.0994 52.7398 43.8994 52.5398L43.0194 51.6599C42.4195 51.0599 41.1351 50.9844 41.1351 50.9844L38.9441 53.1754L37.6242 55.8019C37.3353 56.4685 37.4775 57.2418 37.9886 57.7618L38.3841 58.1618C38.5575 58.3351 38.8419 58.3351 39.0152 58.1618L43.8994 53.2598Z" fill="#325599"/>
<path d="M29.9951 38.8379C30.0262 39.0557 29.9685 39.2201 29.8885 39.3801C29.7996 39.5312 29.6929 39.669 29.4929 39.7623C29.4618 39.5445 29.5196 39.3801 29.5996 39.2201C29.684 39.069 29.7951 38.9312 29.9951 38.8379Z" fill="#EDA600"/>
<path d="M29.0983 38.4336C29.1294 38.7136 29.0672 38.9625 28.9783 39.198C28.8805 39.4291 28.7649 39.6558 28.5472 39.838C28.5161 39.5535 28.5783 39.3091 28.6672 39.0736C28.7649 38.8469 28.8849 38.6203 29.0983 38.4336Z" fill="#EDA600"/>
<path d="M28.0295 37.9902C28.0828 38.2658 28.0384 38.5146 27.9717 38.7546C27.8962 38.9902 27.794 39.2213 27.594 39.4213C27.5406 39.1457 27.5851 38.8969 27.6517 38.6569C27.7317 38.4213 27.834 38.1902 28.0295 37.9902Z" fill="#EDA600"/>
<path d="M27.9628 36.3887C27.8251 36.5087 27.6917 36.6331 27.5806 36.7664C27.4606 36.8998 27.4029 37.0198 27.3629 37.1931C27.2606 37.5219 27.1584 37.8642 26.9184 38.1797C26.8473 37.793 26.9184 37.4286 27.0651 37.082C27.1406 36.9131 27.2873 36.7175 27.4473 36.6198C27.6117 36.5087 27.7851 36.4331 27.9628 36.3887Z" fill="#EDA600"/>
<path d="M29.1195 27.1093L33.9637 26.2294L33.1815 21.923C32.9371 20.5852 31.6571 19.6964 30.3194 19.9408C28.9817 20.1853 28.0929 21.4652 28.3373 22.8029L29.1195 27.1093Z" fill="#04A287"/>
<path d="M34.1441 8.24497C33.1219 6.9917 31.2554 6.17397 29.4732 6.09842C28.2778 6.04953 27.1267 6.27174 26.1445 6.75172C26.1268 6.76061 24.2557 7.68945 23.8424 8.60051C23.398 9.57379 23.8113 10.1338 23.9135 10.236C24.0735 10.3915 24.4291 10.3426 24.4291 10.3426C25.1313 10.2804 27.3622 10.116 28.5 10.3338C28.6777 10.3693 28.8777 10.4226 28.9622 10.5826C28.9977 10.6537 29.0333 11.107 29.0377 11.187C29.1266 12.2092 29.051 12.8581 29.371 13.498C29.4244 13.6002 29.6332 13.7336 29.6332 13.7336L30.0421 13.0803C30.2999 12.707 30.5354 12.3825 30.8776 12.4448C31.8909 12.627 31.7753 14.4224 30.6021 14.8668C30.6021 14.8668 30.8332 16.2712 32.1264 16.4979C33.2597 16.6979 33.4064 16.4445 33.5041 16.0179C33.7219 15.0935 33.9708 14.6891 34.2374 14.2624C34.553 13.7558 34.8774 13.2358 35.0952 11.8848C35.3129 10.5337 34.9841 9.27158 34.1441 8.24497Z" fill="#543930"/>
<path d="M34.1441 8.24497C33.1219 6.9917 31.2554 6.17397 29.4732 6.09842C28.2778 6.04953 27.1267 6.27174 26.1445 6.75172C26.1268 6.76061 24.2557 7.68945 23.8424 8.60051C23.398 9.57379 23.8113 10.1338 23.9135 10.236C24.0735 10.3915 24.4291 10.3426 24.4291 10.3426C25.1313 10.2804 27.3622 10.116 28.5 10.3338C28.6777 10.3693 28.8777 10.4226 28.9622 10.5826C28.9977 10.6537 29.0333 11.107 29.0377 11.187C29.1266 12.2092 29.051 12.8581 29.371 13.498C29.4244 13.6002 29.6332 13.7336 29.6332 13.7336L30.0421 13.0803C30.2999 12.707 30.5354 12.3825 30.8776 12.4448C31.8909 12.627 31.7753 14.4224 30.6021 14.8668C30.6021 14.8668 30.8332 16.2712 32.1264 16.4979C33.2597 16.6979 33.4064 16.4445 33.5041 16.0179C33.7219 15.0935 33.9708 14.6891 34.2374 14.2624C34.553 13.7558 34.8774 13.2358 35.0952 11.8848C35.3129 10.5337 34.9841 9.27158 34.1441 8.24497Z" fill="url(#paint3_radial_845_4741)"/>
<defs>
<linearGradient id="paint0_linear_845_4741" x1="27.1078" y1="25.9374" x2="34.774" y2="31.2704" gradientUnits="userSpaceOnUse">
<stop stop-color="#00BFA5"/>
<stop offset="0.4701" stop-color="#00B29A"/>
<stop offset="1" stop-color="#009E89"/>
</linearGradient>
<linearGradient id="paint1_linear_845_4741" x1="30.3673" y1="34.8349" x2="28.9477" y2="26.5133" gradientUnits="userSpaceOnUse">
<stop offset="0.4606" stop-color="#FFCA28"/>
<stop offset="0.9996" stop-color="#FFB300"/>
</linearGradient>
<linearGradient id="paint2_linear_845_4741" x1="27.7562" y1="40.514" x2="28.7551" y2="37.9131" gradientUnits="userSpaceOnUse">
<stop offset="0.4561" stop-color="#FFCA28"/>
<stop offset="1" stop-color="#FFB300"/>
</linearGradient>
<radialGradient id="paint3_radial_845_4741" cx="0" cy="0" r="1" gradientUnits="userSpaceOnUse" gradientTransform="translate(29.1386 12.7372) rotate(6.66733) scale(7.2054 7.10672)">
<stop offset="0.5264" stop-color="#6D4C41" stop-opacity="0"/>
<stop offset="1" stop-color="#6D4C41"/>
</radialGradient>
</defs>
</svg>
