<svg width="65" height="64" viewBox="0 0 65 64" fill="none" xmlns="http://www.w3.org/2000/svg">
<path d="M37.2116 44.3027H33.9095L34.2784 56.6532L30.2653 57.0798C29.6253 57.2309 29.2031 57.462 29.2031 57.8442C29.2031 58.2264 29.7187 58.5242 30.2653 58.5242H35.5628C36.2605 58.5242 36.8205 57.9242 36.8205 57.2221V57.1909L37.2116 44.3027Z" fill="url(#paint0_linear_782_34056)"/>
<path d="M58.444 42.57C58.2707 42.4855 57.2707 42.0811 56.9818 41.97C56.8752 41.93 56.9019 41.7656 57.0352 41.8011L57.9196 42.0011C58.1373 42.05 58.3196 42.0233 58.3996 41.8367C58.5018 41.6011 58.3684 41.3967 58.124 41.3256L56.6796 40.8501C56.6796 40.8501 55.7597 40.5301 55.3775 40.4012C55.1686 40.3301 54.822 40.2901 54.462 40.4723L50.0711 38.2057C49.9467 38.1391 49.8178 38.0813 49.6756 38.0502L42.2226 36.2592C41.3293 36.0681 40.4183 36.6458 40.2316 37.548C40.045 38.4502 40.5961 39.339 41.4671 39.5257L48.9112 40.9078L53.3243 42.6366C53.3687 43.3033 53.8354 43.601 54.0087 43.8366C54.2487 44.1521 54.622 44.8543 54.582 45.152C54.5553 45.3431 54.8708 45.4898 54.9997 45.4498C55.1553 45.4009 55.2753 45.1965 55.2664 44.8987C55.2619 44.7298 55.2264 44.3165 55.0753 44.1254C55.0131 44.0454 55.0797 43.9432 55.1553 43.9654C55.1597 43.9654 55.1597 43.9654 55.1642 43.9654C55.6086 44.2276 57.1952 45.2543 57.1952 45.2543C57.4129 45.3876 57.6707 45.352 57.7729 45.112C57.8529 44.9254 57.7463 44.7254 57.564 44.6187C57.564 44.6187 56.5908 43.8988 56.293 43.6632C56.2308 43.6143 56.2619 43.4899 56.373 43.5388C56.4841 43.5877 58.0662 44.3432 58.0662 44.3432C58.2573 44.4321 58.4484 44.4276 58.5595 44.2543C58.6973 44.041 58.5729 43.801 58.3418 43.6943L56.5819 42.8144C56.4974 42.7655 56.5241 42.6055 56.6441 42.6544C56.6441 42.6544 57.9685 43.1433 58.1596 43.2144C58.3507 43.2899 58.6084 43.2899 58.7018 43.0455C58.804 42.8099 58.6529 42.6677 58.444 42.57Z" fill="url(#paint1_linear_782_34056)"/>
<path d="M42.1166 35.8828C41.8944 35.8206 41.6411 35.6739 41.4189 35.354L38.1124 30.5098L29.8906 36.0206L33.2993 41.0159C33.5571 41.3714 33.5393 41.9092 33.5482 42.318L33.6415 46.0423H37.4413L37.4947 42.3891C37.4947 42.3891 38.148 41.9625 39.1346 41.1581C40.1212 40.3537 41.0589 39.6959 41.0589 39.6959L44.9121 40.5092L45.6942 36.745L42.1166 35.8828Z" fill="url(#paint2_linear_782_34056)"/>
<path d="M42.0573 6.37276C42.0662 5.94167 41.7462 5.90611 41.1907 5.85723L36.9065 5.47947C36.1865 5.41725 35.5466 5.95945 35.4843 6.69718L35.311 8.34154H35.2977L34.0266 18.2166L31.0312 28.3049L36.2265 29.6693L38.4664 19.2787L39.133 9.34593L39.5552 9.20372C39.7819 9.22594 40.4663 9.42148 40.6307 9.09706C40.7596 8.83929 40.5774 8.70597 40.5063 8.68375C40.5819 8.70597 40.8752 8.7593 40.9729 8.52375C41.0974 8.2171 40.7774 8.09267 40.7774 8.09267C40.7774 8.09267 41.1952 8.19488 41.3196 7.90156C41.4574 7.58158 41.0485 7.44826 41.0485 7.44826C41.0485 7.44826 41.5596 7.5638 41.644 7.25271C41.7151 6.99939 41.5685 6.8794 41.4307 6.82607C41.7418 6.86162 42.0484 6.74163 42.0573 6.37276Z" fill="url(#paint3_linear_782_34056)"/>
<path d="M20.3371 25.9895C20.3371 25.9895 11.7731 22.8253 10.942 22.3364C10.111 21.8475 9.61765 21.5631 9.61765 21.5631C8.95102 21.2654 8.38216 21.572 8.0844 22.2431L6.44448 26.2384C6.21783 26.7584 6.14672 27.0606 6.52448 27.2606C6.84446 27.4339 7.09778 27.3584 7.21777 27.0562C7.19555 27.2073 7.26666 27.2517 7.51998 27.3139C7.82663 27.3895 7.98218 26.9362 7.98218 26.9362C7.98218 26.9362 7.89774 27.305 8.23994 27.3361C8.55548 27.3628 8.67548 26.9051 8.67548 26.9051C8.67548 26.9051 8.60437 27.2784 8.93324 27.3139C9.18211 27.3406 9.28433 26.9539 9.30211 26.8695C9.28878 26.9451 9.24878 27.2428 9.53321 27.2473C9.89319 27.2561 9.96874 26.5051 10.0621 26.2918L10.2221 25.9229L19.2394 30.336L19.2483 30.3138C19.3194 30.3449 19.3816 30.3804 19.4571 30.4026V30.4071L29.3722 33.9091L30.9143 28.7138C30.9054 28.7138 20.3504 25.994 20.3371 25.9895Z" fill="url(#paint4_linear_782_34056)"/>
<path d="M38.078 39.8327C38.6291 39.3571 39.4601 39.4238 39.9268 39.9838L40.709 40.9171L38.7135 42.6459L37.9313 41.7126C37.4603 41.1526 37.5269 40.3082 38.078 39.8327Z" fill="#E59600"/>
<path d="M40.2134 47.7602L40.9378 47.1958L44.8665 44.1471L45.5909 43.5827C46.1731 43.1338 46.262 42.2494 45.7909 41.6228C45.3198 40.9962 44.4621 40.8495 43.8799 41.3028L43.1555 41.8672L39.2268 44.9159L38.5024 45.4804C37.9202 45.9292 37.8313 46.8136 38.3024 47.4403C38.7735 48.0669 39.6312 48.2135 40.2134 47.7602Z" fill="#E59600"/>
<path d="M38.4378 30.9609L36.9535 28.7743L38.0379 24.0368L32.1448 22.4902L30.5671 28.0766L25.4696 26.6367L23.6875 32.5297L28.6783 34.2229L30.1983 36.4717L38.4378 30.9609Z" fill="#7C7C7C"/>
<path d="M39.4916 41.2864C37.7939 42.6064 37.1984 45.0951 39.2828 47.775C40.9538 49.926 43.2781 50.166 44.758 49.6771C45.1091 49.5616 45.4158 49.4016 45.6513 49.2193C45.8869 49.0371 46.1135 48.7794 46.3135 48.4727C47.1579 47.1617 47.5045 44.8507 45.8291 42.6952C43.7447 40.0065 41.1893 39.9665 39.4916 41.2864Z" fill="#FFCA28"/>
<path d="M40.2136 43.9118C40.3824 43.4851 41.4002 42.6941 41.8535 42.6363C42.1157 42.6052 42.169 42.2985 41.969 42.1963C41.7735 42.0941 40.9291 42.1563 40.4491 42.5296C39.9691 42.9029 39.7069 43.6985 39.7558 43.9162C39.8136 44.1384 40.1202 44.1562 40.2136 43.9118Z" fill="#795548"/>
<path d="M41.2999 44.3703C41.3133 44.3659 41.3266 44.3614 41.3355 44.3525L42.0243 43.8148C42.0332 43.8059 42.0421 43.797 42.051 43.7837C42.0954 43.7081 42.0777 43.6193 41.9932 43.5704C41.9088 43.5259 41.6243 43.437 41.3444 43.6504C41.0688 43.8637 41.0822 44.1659 41.1044 44.2592C41.131 44.357 41.2199 44.397 41.2999 44.3703Z" fill="#E59600"/>
<path d="M44.3645 44.2326C44.6301 44.0263 44.672 43.6359 44.4582 43.3607C44.2443 43.0854 43.8557 43.0295 43.5902 43.2358C43.3246 43.4421 43.2827 43.8325 43.4965 44.1077C43.7104 44.383 44.099 44.4389 44.3645 44.2326Z" fill="#404040"/>
<path d="M41.1536 46.7306C41.4191 46.5243 41.4611 46.134 41.2472 45.8587C41.0334 45.5835 40.6448 45.5276 40.3792 45.7339C40.1137 45.9402 40.0718 46.3305 40.2856 46.6058C40.4994 46.881 40.888 46.9369 41.1536 46.7306Z" fill="#404040"/>
<path d="M43.9637 45.1839C44.1504 45.2328 44.497 45.2461 44.9104 44.9261C45.3237 44.6061 45.3948 44.2639 45.3948 44.0728C45.3948 43.9884 45.337 43.9351 45.2792 43.9173C45.2259 43.9039 45.1237 43.9306 45.0615 44.0239C44.9992 44.1173 44.9015 44.335 44.6215 44.5528C44.3415 44.7661 44.1104 44.8106 44.0037 44.8461C43.8971 44.8817 43.8438 44.975 43.8438 45.0283C43.8438 45.095 43.8837 45.1617 43.9637 45.1839Z" fill="#6D4C41"/>
<path d="M40.7528 47.6819C40.9395 47.7308 41.2861 47.7441 41.6994 47.4242C42.1127 47.1042 42.1838 46.762 42.1838 46.5709C42.1838 46.4864 42.1261 46.4331 42.0683 46.4153C42.015 46.402 41.9127 46.4287 41.8505 46.522C41.7883 46.6153 41.6905 46.8331 41.4105 47.0509C41.1306 47.2642 40.8995 47.3086 40.7928 47.3442C40.6861 47.3797 40.6328 47.4731 40.6328 47.5264C40.6328 47.5886 40.6684 47.6597 40.7528 47.6819Z" fill="#6D4C41"/>
<path d="M46.4314 50.2491C46.4314 50.2446 46.4314 50.2446 46.4314 50.2491C46.4314 50.2446 46.4359 50.2446 46.4314 50.2491C50.8534 46.7959 46.027 42.4317 46.027 42.4317C46.027 42.4317 45.4226 42.0628 45.156 41.9028C45.116 41.8806 45.0715 41.9206 45.0893 41.9606C45.3204 42.4584 46.1426 44.2227 46.3248 44.8138C46.4314 45.1605 46.2715 45.5338 45.9515 45.7026C45.4582 45.9604 44.6893 46.3959 43.9249 46.987C43.9205 46.987 43.9205 46.9915 43.916 46.9915C43.9116 46.9915 43.9116 46.9959 43.9071 46.9959C43.1427 47.587 42.525 48.2181 42.1517 48.6314C41.9072 48.9025 41.5073 48.9603 41.2006 48.7692C40.6762 48.4447 39.1874 47.2137 38.7563 46.8581C38.7207 46.827 38.6719 46.8626 38.6807 46.907L38.9696 47.8803C38.9696 47.8803 41.9783 53.6489 46.4314 50.2491Z" fill="#543930"/>
<path d="M38.9752 47.8817C38.9752 47.8817 41.9795 53.6503 46.4371 50.246C46.5037 50.1927 46.5704 50.1394 46.6371 50.0861C46.766 49.9794 46.8859 49.8683 46.9971 49.7616C46.9971 49.7616 46.9971 49.7616 47.0015 49.7572C47.0104 49.7483 47.0148 49.7394 47.0237 49.735C50.3924 46.3796 46.0327 42.4331 46.0327 42.4331L45.1616 41.9087C45.1216 41.8865 45.0772 41.9265 45.0949 41.9665C45.3305 42.4687 46.1438 44.2286 46.326 44.8152C46.4326 45.1619 46.2726 45.5352 45.9527 45.7041C45.4594 45.9618 44.6905 46.3974 43.9261 46.9884C43.9217 46.9884 43.9217 46.9929 43.9172 46.9929C43.9128 46.9929 43.9128 46.9973 43.9083 46.9973C43.1439 47.5884 42.5262 48.2195 42.1529 48.6328C41.9084 48.9039 41.5085 48.9617 41.2018 48.7706C40.6774 48.4461 39.1708 47.2062 38.753 46.8551C38.7175 46.8284 38.6686 46.8596 38.6819 46.904C38.7708 47.2062 38.9752 47.8817 38.9752 47.8817Z" fill="url(#paint5_radial_782_34056)"/>
<defs>
<linearGradient id="paint0_linear_782_34056" x1="33.208" y1="46.0703" x2="33.208" y2="57.73" gradientUnits="userSpaceOnUse">
<stop stop-color="#FFB300"/>
<stop offset="0.5" stop-color="#FFCA28"/>
</linearGradient>
<linearGradient id="paint1_linear_782_34056" x1="45.2319" y1="38.6433" x2="57.7583" y2="43.9143" gradientUnits="userSpaceOnUse">
<stop stop-color="#FFB300"/>
<stop offset="0.5" stop-color="#FFCA28"/>
</linearGradient>
<linearGradient id="paint2_linear_782_34056" x1="39.5895" y1="41.275" x2="34.0013" y2="33.2514" gradientUnits="userSpaceOnUse">
<stop stop-color="#00BFA5"/>
<stop offset="0.4701" stop-color="#00B29A"/>
<stop offset="1" stop-color="#009E89"/>
</linearGradient>
<linearGradient id="paint3_linear_782_34056" x1="35.3536" y1="23.116" x2="38.7643" y2="6.55875" gradientUnits="userSpaceOnUse">
<stop stop-color="#FFB300"/>
<stop offset="0.5" stop-color="#FFCA28"/>
</linearGradient>
<linearGradient id="paint4_linear_782_34056" x1="24.3546" y1="29.821" x2="7.92134" y2="24.3639" gradientUnits="userSpaceOnUse">
<stop stop-color="#FFB300"/>
<stop offset="0.5" stop-color="#FFCA28"/>
</linearGradient>
<radialGradient id="paint5_radial_782_34056" cx="0" cy="0" r="1" gradientUnits="userSpaceOnUse" gradientTransform="translate(43.2309 45.9547) rotate(142.308) scale(4.69589 5.29817)">
<stop offset="0.7945" stop-color="#6D4C41" stop-opacity="0"/>
<stop offset="1" stop-color="#6D4C41"/>
</radialGradient>
</defs>
</svg>
