<svg width="65" height="64" viewBox="0 0 65 64" fill="none" xmlns="http://www.w3.org/2000/svg">
<path d="M42.917 42.1309C42.1259 41.2776 41.0904 40.1666 40.1838 39.2066C38.4239 37.3534 36.2729 35.9668 36.2729 35.9668L32.6953 39.8066C32.6953 39.8066 34.0864 42.3665 35.8596 43.8908C36.7262 44.6375 37.8106 45.3974 38.695 45.984C38.5617 46.424 38.4283 46.9973 38.3706 47.6817C38.2017 49.8061 38.5306 52.6059 38.5439 52.917C38.5972 54.5436 38.615 55.748 38.615 55.748L41.4326 55.7391L43.7792 45.3307C44.0369 44.1886 43.717 42.9886 42.917 42.1309Z" fill="url(#paint0_linear_845_5849)"/>
<path d="M28.7142 35.9668C28.7142 35.9668 26.5632 37.3534 24.8077 39.2111C23.9011 40.171 22.8656 41.2821 22.0745 42.1354C21.2746 42.9931 20.9546 44.193 21.2124 45.3352L23.5589 55.7435L26.3765 55.7524C26.3765 55.7524 26.3943 54.548 26.4476 52.9215C26.4565 52.6104 26.7899 49.8105 26.621 47.6862C26.5676 47.0018 26.4299 46.4285 26.2965 45.9885C27.1809 45.4019 28.2653 44.6419 29.132 43.8953C30.9052 42.3709 32.2962 39.811 32.2962 39.811L28.7142 35.9668Z" fill="url(#paint1_linear_845_5849)"/>
<path d="M22.8516 52.918L23.5671 55.74L26.3847 55.7489L26.4469 52.918H22.8516Z" fill="#E0E0E0"/>
<path d="M27.3524 56.8592C27.3479 56.0059 26.6146 55.0371 26.6146 55.0371H23.1704L20.5127 55.9748C19.8283 56.2459 19.375 56.9037 19.375 57.6414V58.2103C19.375 58.4592 19.575 58.6636 19.8239 58.6636L26.8413 58.6414C27.1257 58.6414 27.3568 58.4103 27.3568 58.1214L27.3524 56.8592Z" fill="#4568AD"/>
<path d="M38.5469 52.918L38.6224 55.7489L41.4356 55.74L42.1467 52.918H38.5469Z" fill="#E0E0E0"/>
<path d="M44.4803 55.9748L41.8271 55.0371H38.3828C38.3828 55.0371 37.6451 56.0059 37.6451 56.8637L37.6406 58.1258C37.6406 58.4103 37.8717 58.6414 38.1562 58.6458L45.1691 58.6636C45.418 58.6636 45.618 58.4636 45.618 58.2103V57.6414C45.618 56.9037 45.1647 56.2459 44.4803 55.9748Z" fill="#4568AD"/>
<path d="M46.8324 13.8302L44.8147 12.8125C43.2015 14.3946 42.4371 15.7501 41.7171 18.11C40.1928 18.8344 38.8773 20.1632 38.024 21.5365C37.1174 22.7853 36.5485 23.4786 35.8952 24.7185C35.4019 25.6607 35.7574 26.7095 36.6507 27.3628C37.0729 27.6739 37.4151 27.8073 37.7484 27.8073C38.1218 27.8073 38.4773 27.6339 38.9128 27.3406C39.8328 26.8162 41.0816 25.4296 41.8816 24.3986L41.8593 24.3852C42.8771 23.1186 43.9037 21.3321 44.4148 19.6433C45.8458 18.15 46.8324 16.1901 46.8324 13.8302Z" fill="url(#paint2_linear_845_5849)"/>
<path d="M29.1013 24.723C28.448 23.483 27.8791 22.7898 26.9725 21.5409C26.1192 20.1677 24.8037 18.8388 23.2793 18.1144C22.5549 15.7457 21.7905 14.3946 20.1773 12.8125L18.1641 13.8347C18.1641 16.1945 19.1507 18.15 20.5817 19.6477C21.0928 21.332 22.115 23.1231 23.1371 24.3897L23.1149 24.403C23.9149 25.4341 25.1637 26.8206 26.0836 27.3451C26.5192 27.6384 26.8747 27.8117 27.248 27.8117C27.5813 27.8117 27.9235 27.6739 28.3457 27.3673C29.2346 26.714 29.5946 25.6607 29.1013 24.723Z" fill="url(#paint3_linear_845_5849)"/>
<path d="M38.0241 21.5376C37.2286 22.6309 36.6953 23.302 36.1354 24.2842C35.5887 24.142 34.971 24.062 34.2866 24.062H30.6556C29.9846 24.062 29.3846 24.142 28.8513 24.2797C28.2913 23.2976 27.758 22.6265 26.9625 21.5332L23.1094 24.3997C23.9093 25.4308 25.6337 27.3418 25.6337 27.3418C26.0026 29.1461 28.1269 36.3191 28.1269 36.3191H37.1353L39.433 27.3062C39.433 27.3062 41.0995 25.4041 41.8817 24.4042L38.0241 21.5376Z" fill="url(#paint4_linear_845_5849)"/>
<path d="M30.9531 24.3713C30.9531 25.109 31.5798 25.709 32.3531 25.709H32.633C33.4063 25.709 34.033 25.109 34.033 24.3713V22.7402H30.9531V24.3713Z" fill="#E59600"/>
<path d="M28.7376 20.7108C28.0488 20.7108 27.4844 20.1064 27.4844 19.3642C27.4844 18.622 28.0443 18.0176 28.7376 18.0176H36.2572C36.9461 18.0176 37.5105 18.622 37.5105 19.3642C37.5105 20.1064 36.9505 20.7108 36.2572 20.7108H28.7376Z" fill="#E59600"/>
<path d="M32.5005 12.4219C30.1184 12.4219 27.9141 14.9684 27.9141 18.6304C27.9141 22.2747 30.1851 24.0746 32.5005 24.0746C34.8159 24.0746 37.0869 22.2747 37.0869 18.6304C37.0869 14.9684 34.8826 12.4219 32.5005 12.4219Z" fill="#FFCA28"/>
<path d="M33.0237 20.2165C33.0104 20.212 32.9926 20.2076 32.9793 20.2031H32.006C31.9927 20.2031 31.9749 20.2076 31.9616 20.2165C31.8727 20.252 31.8238 20.3453 31.8682 20.4431C31.9082 20.5409 32.1038 20.812 32.4949 20.812C32.886 20.812 33.0771 20.5409 33.1215 20.4431C33.1615 20.3453 33.1126 20.252 33.0237 20.2165Z" fill="#E59600"/>
<path d="M33.6542 21.3198C33.2142 21.582 31.7787 21.582 31.3432 21.3198C31.0899 21.1687 30.8321 21.3998 30.9388 21.6265C31.041 21.8531 31.8276 22.3731 32.5031 22.3731C33.1787 22.3731 33.9564 21.8531 34.0586 21.6265C34.1608 21.3998 33.9075 21.1687 33.6542 21.3198Z" fill="#795548"/>
<path d="M30.2682 19.6346C30.6364 19.6346 30.9348 19.3242 30.9348 18.9413C30.9348 18.5584 30.6364 18.248 30.2682 18.248C29.9 18.248 29.6016 18.5584 29.6016 18.9413C29.6016 19.3242 29.9 19.6346 30.2682 19.6346Z" fill="#404040"/>
<path d="M34.7291 19.6346C35.0973 19.6346 35.3958 19.3242 35.3958 18.9413C35.3958 18.5584 35.0973 18.248 34.7291 18.248C34.361 18.248 34.0625 18.5584 34.0625 18.9413C34.0625 19.3242 34.361 19.6346 34.7291 19.6346Z" fill="#404040"/>
<path d="M29.2578 17.7635C29.6889 17.1547 30.6977 17.1325 31.2043 17.6524C31.2932 17.7413 31.3866 17.8613 31.3199 17.9902C31.2443 18.1369 31.0977 18.1102 30.9732 18.0613C30.6444 17.928 30.3066 17.8702 29.9555 17.9413C29.8044 17.9724 29.6711 18.0346 29.5289 18.088C29.3289 18.1546 29.1333 17.9502 29.2578 17.7635Z" fill="#6D4C41"/>
<path d="M35.479 18.0878C35.1768 17.9589 34.8746 17.8789 34.5413 17.9189C34.3902 17.9367 34.2435 17.9767 34.1013 18.03C33.9902 18.0745 33.8702 18.1456 33.7547 18.0656C33.4258 17.8389 34.0124 17.4656 34.1813 17.3901C34.5546 17.2301 34.9991 17.2434 35.359 17.4301C35.5013 17.5056 35.6568 17.6123 35.7412 17.7545C35.8479 17.9367 35.6879 18.1722 35.479 18.0878Z" fill="#6D4C41"/>
<path d="M32.4991 11.5723C32.4947 11.5723 32.4947 11.5723 32.4947 11.5723C26.3484 11.6034 27.6061 18.6252 27.6061 18.6252C27.6061 18.6252 27.8816 19.3496 28.006 19.6696C28.0238 19.7141 28.0905 19.7096 28.1038 19.6607C28.2371 19.0741 28.7082 16.9898 28.9482 16.3587C29.0904 15.9854 29.4771 15.7676 29.8682 15.8387C30.4726 15.9498 31.4281 16.0831 32.4903 16.0831C32.4947 16.0831 32.4991 16.0831 32.5036 16.0831C32.508 16.0831 32.5125 16.0831 32.5169 16.0831C33.5746 16.0831 34.5346 15.9498 35.139 15.8387C35.5301 15.7676 35.9167 15.9854 36.059 16.3587C36.2945 16.9898 36.7656 19.0608 36.8989 19.6563C36.9078 19.7052 36.9789 19.7096 36.9967 19.6652L37.4011 18.6297C37.3878 18.6297 38.6499 11.6078 32.4991 11.5723Z" fill="#543930"/>
<path d="M37.3887 18.6311C37.3887 18.6311 38.6465 11.6092 32.5001 11.5781C32.5001 11.5781 32.5001 11.5781 32.4957 11.5781C32.4957 11.5781 32.4957 11.5781 32.4912 11.5781C32.3935 11.5781 32.3001 11.5826 32.2112 11.5826C32.029 11.5915 31.8513 11.6048 31.6824 11.6226H31.6779C31.6646 11.6226 31.6557 11.627 31.6424 11.627C26.4649 12.2803 27.607 18.6266 27.607 18.6266L28.0115 19.6666C28.0292 19.711 28.0959 19.7066 28.1048 19.6621C28.2381 19.0711 28.7092 16.9956 28.9447 16.3645C29.087 15.9912 29.4736 15.7735 29.8647 15.8446C30.4691 15.9557 31.4246 16.089 32.4868 16.089C32.4912 16.089 32.4957 16.089 32.5001 16.089C32.5046 16.089 32.509 16.089 32.5134 16.089C33.5712 16.089 34.5311 15.9557 35.1355 15.8446C35.5266 15.7735 35.9133 15.9912 36.0555 16.3645C36.2955 16.9956 36.7666 19.0844 36.8954 19.6666C36.9043 19.7155 36.971 19.7199 36.9888 19.6755C37.1132 19.3555 37.3887 18.6311 37.3887 18.6311Z" fill="url(#paint5_radial_845_5849)"/>
<path d="M21.949 11.1817C21.549 10.9462 19.6513 10.6484 18.3403 10.6484C17.6203 10.6484 17.0826 10.7418 17.0826 10.9862L17.0781 12.5106C17.0737 14.0438 18.0736 15.2971 19.7269 15.3015H19.7313C22.7267 15.3015 22.9623 11.7728 21.949 11.1817Z" fill="url(#paint6_radial_845_5849)"/>
<path d="M21.8384 12.8091C21.8207 12.8669 21.6651 12.9247 21.4962 12.9691H21.4918C21.2962 13.018 21.0651 13.1158 20.6341 13.2358C20.0341 13.4047 19.9852 14.2091 19.9852 14.2091C19.8741 13.7913 20.1585 13.058 20.5541 12.8891V12.8847C20.7407 12.7958 20.9496 12.7469 21.1718 12.7114C21.2074 12.7069 21.2962 12.7025 21.4073 12.7069H21.4118C21.6118 12.7114 21.8607 12.738 21.8384 12.8091Z" fill="#EDA600"/>
<path d="M59.1665 11.7771C59.1665 12.3904 58.842 12.8881 58.4376 12.8881H6.56479C6.16481 12.8881 5.83594 12.3904 5.83594 11.7771C5.83594 11.1638 6.16481 10.666 6.56479 10.666H58.4332C58.8376 10.666 59.1665 11.1638 59.1665 11.7771Z" fill="url(#paint7_linear_845_5849)"/>
<path d="M13.354 18.2161C14.8251 18.2161 16.0206 17.0206 16.0206 15.5496V8.06106C16.0206 6.59002 14.8251 5.39453 13.354 5.39453C11.883 5.39453 10.6875 6.59002 10.6875 8.06106V15.5496C10.6875 17.0206 11.8785 18.2161 13.354 18.2161Z" fill="url(#paint8_radial_845_5849)"/>
<path d="M51.6431 18.2161C50.1721 18.2161 48.9766 17.0206 48.9766 15.5496V8.06106C48.9766 6.59002 50.1721 5.39453 51.6431 5.39453C53.1141 5.39453 54.3096 6.59002 54.3096 8.06106V15.5496C54.3096 17.0206 53.1186 18.2161 51.6431 18.2161Z" fill="url(#paint9_radial_845_5849)"/>
<path d="M8.50425 15.6519C9.48642 15.6519 10.2819 14.8564 10.2819 13.8742V9.73667C10.2819 8.7545 9.48642 7.95898 8.50425 7.95898C7.52208 7.95898 6.72656 8.7545 6.72656 9.73667V13.8742C6.72656 14.8564 7.52208 15.6519 8.50425 15.6519Z" fill="url(#paint10_radial_845_5849)"/>
<path d="M56.4964 15.6519C55.5143 15.6519 54.7188 14.8564 54.7188 13.8742V9.73667C54.7188 8.7545 55.5143 7.95898 56.4964 7.95898C57.4786 7.95898 58.2741 8.7545 58.2741 9.73667V13.8742C58.2741 14.8564 57.4786 15.6519 56.4964 15.6519Z" fill="url(#paint11_radial_845_5849)"/>
<path d="M21.2129 12.8881H17.0665L16.7109 10.666H21.2129V12.8881Z" fill="#646464"/>
<path d="M22.3769 10.2396L22.248 10.9284L22.2213 11.0795L22.1591 11.4128L22.1235 11.6084C22.048 12.0084 21.6969 12.2883 21.3058 12.2883C21.2569 12.2883 21.2036 12.2839 21.1547 12.275C20.9503 12.2395 20.7769 12.1328 20.657 11.9728C20.5103 12.1061 20.3192 12.1817 20.1103 12.1817C19.9859 12.1817 19.5948 12.0084 19.5281 11.9417C19.5103 11.9239 19.4926 11.9061 19.4792 11.8839C19.4615 11.8972 19.4437 11.915 19.4259 11.9284C19.417 11.9328 19.1637 12.0839 18.9059 12.0795C18.6659 12.075 18.426 11.9284 18.3549 11.8573C18.2837 11.9595 18.186 12.0484 18.0704 12.1106C17.9904 12.1595 17.9015 12.1906 17.8038 12.2039C17.7593 12.2128 17.7149 12.2172 17.6704 12.2172C17.4927 12.2172 17.3194 12.1595 17.1771 12.0528C16.9905 11.9195 16.8705 11.7239 16.8394 11.5017L16.7816 11.124V11.1195L16.7061 10.6351C16.6705 10.4129 16.7238 10.1907 16.8572 10.0085C16.9905 9.8218 17.186 9.70181 17.4082 9.6707C17.4616 9.66181 17.5149 9.65737 17.5682 9.66181C17.5816 9.66181 17.5993 9.66181 17.6127 9.66626C17.7549 9.67514 17.8971 9.72403 18.0215 9.81291C18.0393 9.82625 18.0526 9.83958 18.066 9.84847C18.0926 9.74625 18.146 9.64848 18.2126 9.56848C18.2304 9.54182 18.2482 9.5196 18.2704 9.49738C18.2971 9.46627 18.3193 9.45293 18.3282 9.44405C18.3326 9.44405 18.3326 9.4396 18.3326 9.4396C18.466 9.32405 18.6393 9.25294 18.8304 9.24406C18.8926 9.23961 18.9548 9.24406 19.0126 9.25294C19.057 9.26183 19.097 9.27517 19.137 9.2885C19.2526 9.32405 19.3548 9.38183 19.4437 9.46182C19.4703 9.42627 19.5015 9.39072 19.5326 9.35961C19.577 9.31516 19.6259 9.27517 19.6748 9.24406C19.7014 9.22628 19.7326 9.21295 19.7592 9.19517C19.8703 9.14184 19.9948 9.11517 20.1236 9.11962C20.2659 9.11962 20.4036 9.15517 20.5281 9.22628C20.5503 9.23517 20.5681 9.2485 20.5858 9.26183C20.6303 9.29294 20.6703 9.3285 20.7103 9.36849C20.7814 9.4396 20.8392 9.52404 20.8792 9.61293C20.9325 9.53293 21.0036 9.45738 21.088 9.3996C21.1058 9.38627 21.128 9.37294 21.1503 9.36405C21.2391 9.31516 21.3325 9.27961 21.4302 9.26628C21.5236 9.25294 21.6169 9.25294 21.7102 9.27072C21.9324 9.31072 22.1191 9.43516 22.248 9.61737C22.3724 9.80403 22.4169 10.0218 22.3769 10.2396Z" fill="url(#paint12_linear_845_5849)"/>
<path d="M37.5883 36.4961L37.2772 35.625H27.9577L27.7889 36.5138L23.7891 40.0292L28.251 44.6645C28.251 44.6645 31.2687 42.1447 31.5398 41.9047C31.8375 41.638 32.1975 41.6069 32.4153 41.6025C32.633 41.6069 32.993 41.638 33.2908 41.9047C33.5619 42.1491 36.5795 44.6645 36.5795 44.6645L41.2104 40.0292L37.5883 36.4961Z" fill="#7C7C7C"/>
<path d="M22.2887 10.7205C22.1332 11.1205 21.2888 10.7383 20.9688 10.5739C20.9199 10.1828 20.871 9.92502 20.871 9.92502C20.871 9.92502 20.871 9.92502 20.871 9.92946C20.8843 10.1517 20.6621 10.3117 20.4532 10.2317C20.2177 10.1383 19.9466 10.0628 19.7511 10.0717C19.6755 10.0761 19.6133 10.0895 19.5555 10.1072C19.5022 9.93391 19.4711 9.81836 19.4711 9.81836C19.4711 9.81836 19.4711 9.83614 19.4711 9.86725C19.4622 10.0183 19.3911 10.1606 19.2666 10.245C18.7822 10.5605 18.6578 11.1561 19.2311 11.7916C19.0355 11.9249 18.7289 11.916 18.5556 11.7383C18.3334 11.516 18.24 10.8094 18.1111 10.285C18.1511 10.6583 18.2622 11.3249 18.2089 11.5827C18.1423 11.8938 17.8312 12.0894 17.5201 12.0138C17.249 11.9471 16.929 11.7294 16.7734 11.1294L16.8312 11.5072C16.8623 11.7294 16.9823 11.9249 17.169 12.0582C17.3112 12.1649 17.4845 12.2227 17.6623 12.2227C17.7067 12.2227 17.7512 12.2182 17.7956 12.2093C17.88 12.196 17.9556 12.1693 18.0267 12.1338C18.0311 12.1293 18.04 12.1293 18.0445 12.1249C18.0489 12.1205 18.0578 12.1205 18.0623 12.116C18.2489 12.0138 18.3422 11.8716 18.3467 11.8627C18.3689 11.8982 18.6 12.0894 18.88 12.0894C19.2666 12.0894 19.4177 11.9338 19.4177 11.9338C19.4533 11.956 19.4888 11.9738 19.5244 11.9871C19.5511 11.996 20.591 12.3471 20.551 12.7426C20.5466 12.7915 20.551 12.8404 20.5555 12.8893V12.9071C20.5555 12.9071 20.5555 12.9071 20.5555 12.9115C20.5688 13.0271 20.5955 13.1382 20.6355 13.2404L20.6399 13.236C20.7466 13.1515 21.0043 13.2226 21.0265 13.0715C21.111 12.4982 21.0888 11.8138 21.0354 11.2272L22.1554 11.4138L22.2887 10.7205Z" fill="#EDA600"/>
<path d="M22.5056 12.1676C22.2878 10.9721 20.8435 10.4744 20.3013 10.2833C20.2346 10.261 19.2435 10.0255 19.1236 10.9054C19.0702 11.2876 19.3591 11.7054 19.728 11.8476C20.7368 12.2343 20.7324 12.4476 20.7324 12.5898C20.7279 12.9587 20.9323 13.6564 21.2523 13.8653C21.319 13.9097 21.3945 13.9364 21.4656 13.9364C21.5101 13.9364 21.5545 13.9275 21.599 13.9097C22.2256 13.6475 22.63 12.8653 22.5056 12.1676Z" fill="url(#paint13_linear_845_5849)"/>
<path d="M43.1056 11.1817C43.5056 10.9462 45.4032 10.6484 46.7143 10.6484C47.4342 10.6484 47.972 10.7418 47.972 10.9862L47.9764 12.5106C47.9809 14.0438 46.9809 15.2971 45.3277 15.3015H45.3232C42.3278 15.3015 42.0879 11.7728 43.1056 11.1817Z" fill="url(#paint14_radial_845_5849)"/>
<path d="M43.2123 12.8091C43.2301 12.8669 43.3857 12.9247 43.5545 12.9691H43.559C43.7545 13.018 43.9856 13.1158 44.4167 13.2358C45.0167 13.4047 45.0656 14.2091 45.0656 14.2091C45.1767 13.7913 44.8922 13.058 44.4967 12.8891V12.8847C44.31 12.7958 44.1012 12.7469 43.879 12.7114C43.8434 12.7069 43.7545 12.7025 43.6434 12.7069H43.639C43.439 12.7114 43.1901 12.738 43.2123 12.8091Z" fill="#EDA600"/>
<path d="M43.8359 10.666H48.3379L47.9824 12.8881H43.8359V10.666Z" fill="#646464"/>
<path d="M42.6783 10.2396L42.8072 10.9284L42.8339 11.0795L42.8961 11.4128L42.9317 11.6084C43.0072 12.0084 43.3583 12.2883 43.7494 12.2883C43.7983 12.2883 43.8516 12.2839 43.9005 12.275C44.1049 12.2395 44.2782 12.1328 44.3982 11.9728C44.5449 12.1061 44.736 12.1817 44.9449 12.1817C45.0693 12.1817 45.4604 12.0084 45.5271 11.9417C45.5448 11.9239 45.5626 11.9061 45.576 11.8839C45.5937 11.8972 45.6115 11.915 45.6293 11.9284C45.6382 11.9328 45.8915 12.0839 46.1493 12.0795C46.3892 12.075 46.6248 11.9284 46.7003 11.8573C46.7714 11.9595 46.8692 12.0484 46.9848 12.1106C47.0648 12.1595 47.1537 12.1906 47.2514 12.2039C47.2959 12.2128 47.3403 12.2172 47.3847 12.2172C47.5625 12.2172 47.7358 12.1595 47.8781 12.0528C48.0647 11.9195 48.1847 11.7239 48.2158 11.5017L48.2736 11.124V11.1195L48.3491 10.6351C48.3847 10.4129 48.3314 10.1907 48.198 10.0085C48.0647 9.8218 47.8692 9.70181 47.647 9.6707C47.5936 9.66181 47.5403 9.65737 47.487 9.66181C47.4736 9.66181 47.4559 9.66181 47.4425 9.66626C47.3003 9.67514 47.1581 9.72403 47.0337 9.81291C47.0159 9.82625 47.0025 9.83958 46.9892 9.84847C46.9625 9.74625 46.9092 9.64848 46.8426 9.56848C46.8248 9.54182 46.807 9.5196 46.7848 9.49738C46.7581 9.46627 46.7359 9.45293 46.727 9.44405C46.7226 9.44405 46.7226 9.4396 46.7226 9.4396C46.5892 9.32405 46.4159 9.25294 46.2248 9.24406C46.1626 9.23961 46.1004 9.24406 46.0426 9.25294C45.9982 9.26183 45.9582 9.27517 45.9182 9.2885C45.8026 9.32405 45.7004 9.38183 45.6115 9.46182C45.5848 9.42627 45.5537 9.39072 45.5226 9.35961C45.4782 9.31516 45.4293 9.27517 45.3804 9.24406C45.3537 9.22628 45.3226 9.21295 45.296 9.19517C45.1849 9.14184 45.0604 9.11517 44.9315 9.11962C44.7893 9.11962 44.6516 9.15517 44.5271 9.22628C44.5049 9.23517 44.4871 9.2485 44.4693 9.26183C44.4249 9.29294 44.3849 9.3285 44.3449 9.36849C44.2738 9.4396 44.216 9.52404 44.176 9.61293C44.1227 9.53293 44.0516 9.45738 43.9672 9.3996C43.9494 9.38627 43.9272 9.37294 43.9049 9.36405C43.8161 9.31516 43.7227 9.27961 43.6249 9.26628C43.5316 9.25294 43.4383 9.25294 43.345 9.27072C43.1228 9.31072 42.9361 9.43516 42.8072 9.61737C42.6828 9.80403 42.6383 10.0218 42.6783 10.2396Z" fill="url(#paint15_linear_845_5849)"/>
<path d="M42.7578 10.7205C42.9134 11.1205 43.7578 10.7383 44.0777 10.5739C44.1266 10.1828 44.1755 9.92502 44.1755 9.92502C44.1755 9.92502 44.1755 9.92502 44.1755 9.92946C44.1622 10.1517 44.3844 10.3117 44.5933 10.2317C44.8288 10.1383 45.0999 10.0628 45.2955 10.0717C45.371 10.0761 45.4332 10.0895 45.491 10.1072C45.5443 9.93391 45.5754 9.81836 45.5754 9.81836C45.5754 9.81836 45.5754 9.83614 45.5754 9.86725C45.5843 10.0183 45.6554 10.1606 45.7799 10.245C46.2643 10.5605 46.3887 11.1561 45.8154 11.7916C46.011 11.9249 46.3176 11.916 46.4909 11.7383C46.7132 11.516 46.8065 10.8094 46.9354 10.285C46.8954 10.6583 46.7843 11.3249 46.8376 11.5827C46.8998 11.8938 47.2154 12.0894 47.5265 12.0138C47.7975 11.9471 48.1175 11.7294 48.2731 11.1294L48.2153 11.5072C48.1842 11.7294 48.0642 11.9249 47.8775 12.0582C47.7353 12.1649 47.562 12.2227 47.3842 12.2227C47.3398 12.2227 47.2954 12.2182 47.2509 12.2093C47.1665 12.196 47.0909 12.1693 47.0198 12.1338C47.0154 12.1293 47.0065 12.1293 47.002 12.1249C46.9976 12.1205 46.9887 12.1205 46.9843 12.116C46.7976 12.0138 46.7043 11.8716 46.6998 11.8627C46.6776 11.8982 46.4465 12.0894 46.1665 12.0894C45.7799 12.0894 45.6288 11.9338 45.6288 11.9338C45.5932 11.956 45.5577 11.9738 45.5221 11.9871C45.491 11.996 44.4599 12.3471 44.4955 12.7426C44.4999 12.7915 44.4955 12.8404 44.4911 12.8893V12.9071C44.4911 12.9071 44.4911 12.9071 44.4911 12.9115C44.4777 13.0271 44.4511 13.1382 44.4111 13.2404L44.4066 13.236C44.3 13.1515 44.0422 13.2226 44.02 13.0715C43.9355 12.4982 43.9578 11.8138 44.0111 11.2272L42.8911 11.4138L42.7578 10.7205Z" fill="#EDA600"/>
<path d="M42.5459 12.1676C42.7637 10.9721 44.2081 10.4744 44.7503 10.2833C44.8169 10.261 45.808 10.0255 45.928 10.9054C45.9813 11.2876 45.6924 11.7054 45.3236 11.8476C44.3147 12.2343 44.3192 12.4476 44.3192 12.5898C44.3236 12.9587 44.1192 13.6564 43.7992 13.8653C43.7325 13.9097 43.657 13.9364 43.5859 13.9364C43.5414 13.9364 43.497 13.9275 43.4525 13.9097C42.8259 13.6475 42.4215 12.8653 42.5459 12.1676Z" fill="url(#paint16_linear_845_5849)"/>
<defs>
<linearGradient id="paint0_linear_845_5849" x1="38.2809" y1="36.1663" x2="38.2809" y2="53.1997" gradientUnits="userSpaceOnUse">
<stop stop-color="#FFB300"/>
<stop offset="0.5" stop-color="#FFCA28"/>
</linearGradient>
<linearGradient id="paint1_linear_845_5849" x1="26.7106" y1="36.1663" x2="26.7106" y2="53.1997" gradientUnits="userSpaceOnUse">
<stop stop-color="#FFB300"/>
<stop offset="0.5" stop-color="#FFCA28"/>
</linearGradient>
<linearGradient id="paint2_linear_845_5849" x1="39.9044" y1="22.9569" x2="45.6095" y2="13.6137" gradientUnits="userSpaceOnUse">
<stop stop-color="#FFB300"/>
<stop offset="0.5" stop-color="#FFCA28"/>
</linearGradient>
<linearGradient id="paint3_linear_845_5849" x1="25.0337" y1="22.8772" x2="19.2872" y2="13.6581" gradientUnits="userSpaceOnUse">
<stop stop-color="#FFB300"/>
<stop offset="0.5" stop-color="#FFCA28"/>
</linearGradient>
<linearGradient id="paint4_linear_845_5849" x1="32.4955" y1="24.0544" x2="32.4955" y2="35.3857" gradientUnits="userSpaceOnUse">
<stop stop-color="#00BFA5"/>
<stop offset="0.7047" stop-color="#00B29A"/>
<stop offset="1" stop-color="#00AB94"/>
</linearGradient>
<radialGradient id="paint5_radial_845_5849" cx="0" cy="0" r="1" gradientUnits="userSpaceOnUse" gradientTransform="translate(32.5 17.4027) scale(5.15413 5.81489)">
<stop offset="0.7945" stop-color="#6D4C41" stop-opacity="0"/>
<stop offset="1" stop-color="#6D4C41"/>
</radialGradient>
<radialGradient id="paint6_radial_845_5849" cx="0" cy="0" r="1" gradientUnits="userSpaceOnUse" gradientTransform="translate(19.7848 12.9763) scale(2.52311)">
<stop stop-color="#FFB300"/>
<stop offset="0.5" stop-color="#FFCA28"/>
</radialGradient>
<linearGradient id="paint7_linear_845_5849" x1="32.5012" y1="10.39" x2="32.5012" y2="13.0824" gradientUnits="userSpaceOnUse">
<stop stop-color="#BDBDBD"/>
<stop offset="1" stop-color="#757575"/>
</linearGradient>
<radialGradient id="paint8_radial_845_5849" cx="0" cy="0" r="1" gradientUnits="userSpaceOnUse" gradientTransform="translate(13.3306 7.41256) rotate(90) scale(9.756 5.48613)">
<stop offset="0.3956" stop-color="#9E9E9E"/>
<stop offset="0.7899" stop-color="#646464"/>
</radialGradient>
<radialGradient id="paint9_radial_845_5849" cx="0" cy="0" r="1" gradientUnits="userSpaceOnUse" gradientTransform="translate(51.6674 7.45102) rotate(90) scale(9.756 5.48613)">
<stop offset="0.3956" stop-color="#9E9E9E"/>
<stop offset="0.7899" stop-color="#646464"/>
</radialGradient>
<radialGradient id="paint10_radial_845_5849" cx="0" cy="0" r="1" gradientUnits="userSpaceOnUse" gradientTransform="translate(8.60312 9.26664) scale(2.09921 3.631)">
<stop offset="0.4406" stop-color="#9E9E9E"/>
<stop offset="0.9854" stop-color="#646464"/>
</radialGradient>
<radialGradient id="paint11_radial_845_5849" cx="0" cy="0" r="1" gradientUnits="userSpaceOnUse" gradientTransform="translate(56.36 9.26664) rotate(180) scale(2.09921 3.631)">
<stop offset="0.4406" stop-color="#9E9E9E"/>
<stop offset="0.9854" stop-color="#646464"/>
</radialGradient>
<linearGradient id="paint12_linear_845_5849" x1="19.5228" y1="10.9445" x2="19.5694" y2="9.47173" gradientUnits="userSpaceOnUse">
<stop stop-color="#FFB300"/>
<stop offset="0.5" stop-color="#FFCA28"/>
</linearGradient>
<linearGradient id="paint13_linear_845_5849" x1="19.6158" y1="12.5906" x2="21.9711" y2="11.4115" gradientUnits="userSpaceOnUse">
<stop stop-color="#FFB300"/>
<stop offset="0.4693" stop-color="#FFCA28"/>
</linearGradient>
<radialGradient id="paint14_radial_845_5849" cx="0" cy="0" r="1" gradientUnits="userSpaceOnUse" gradientTransform="translate(45.2698 12.9763) rotate(180) scale(2.52311)">
<stop stop-color="#FFB300"/>
<stop offset="0.5" stop-color="#FFCA28"/>
</radialGradient>
<linearGradient id="paint15_linear_845_5849" x1="45.5324" y1="10.9445" x2="45.4858" y2="9.47173" gradientUnits="userSpaceOnUse">
<stop stop-color="#FFB300"/>
<stop offset="0.5" stop-color="#FFCA28"/>
</linearGradient>
<linearGradient id="paint16_linear_845_5849" x1="45.4357" y1="12.5906" x2="43.0804" y2="11.4115" gradientUnits="userSpaceOnUse">
<stop stop-color="#FFB300"/>
<stop offset="0.4693" stop-color="#FFCA28"/>
</linearGradient>
</defs>
</svg>
