<svg width="64" height="65" viewBox="0 0 64 65" fill="none" xmlns="http://www.w3.org/2000/svg">
<g id="sun - emoji_u2600">
<path id="Vector" d="M20.1756 22.697C15.8602 28.2434 15.9358 38.0962 21.451 42.9804C27.7129 48.5223 36.5258 48.4645 42.0677 43.367C48.7118 37.2518 48.3296 27.0745 42.4544 21.3104C36.548 15.5151 25.993 15.2129 20.1756 22.697Z" fill="#FCC11A"/>
<path id="Vector_2" d="M27.0997 20.7985C25.3931 20.043 23.5266 22.1007 22.7133 23.5051C21.9 24.9139 21.1445 27.6737 22.8777 28.3804C24.611 29.0826 25.8553 27.8915 27.1042 25.8338C28.3441 23.7762 29.0507 21.6652 27.0997 20.7985Z" fill="#FEE269"/>
<path id="Vector_3" d="M31.554 13.0602C31.1407 13.8335 31.2785 14.4291 32.1007 14.6246C32.9228 14.8202 38.0381 15.6512 38.4692 15.6779C39.0958 15.7179 39.3269 15.2468 39.2514 14.7002C39.1714 14.1535 37.9226 6.49615 37.807 5.79396C37.6915 5.09178 36.9493 4.38959 36.2427 5.32732C35.536 6.26505 31.8651 12.4781 31.554 13.0602Z" fill="#FFA722"/>
<path id="Vector_4" d="M44.7878 18.3805C43.9834 18.6294 44.0056 19.1227 44.4367 19.7493C44.8678 20.376 47.8365 24.9046 48.1076 25.2201C48.3832 25.5312 48.8498 25.6112 49.2409 25.1402C49.632 24.6735 54.5117 17.8294 54.8673 17.4028C55.4539 16.7006 55.1028 15.9584 54.2051 16.1895C53.5207 16.3717 45.2945 18.225 44.7878 18.3805Z" fill="#FFA722"/>
<path id="Vector_5" d="M50.9423 31.5477C50.3645 31.2188 49.6134 31.3121 49.4179 32.0543C49.2224 32.7965 48.3646 38.1873 48.2846 38.6584C48.2046 39.1295 48.5602 39.5961 49.1424 39.4806C49.7245 39.365 57.7863 38.1695 58.3241 38.0362C59.2618 37.8007 59.5729 36.8629 58.5996 36.1608C57.9686 35.703 51.4889 31.8588 50.9423 31.5477Z" fill="#FFA722"/>
<path id="Vector_6" d="M44.4885 44.323C45.1107 43.9897 45.6618 44.243 45.8173 44.9496C45.9728 45.6518 47.6928 52.8425 47.9683 54.1714C48.1061 54.838 47.3417 55.3846 46.7195 54.9935C46.0928 54.6024 39.3021 49.8694 38.8666 49.4827C38.2399 48.9361 38.6755 48.3672 38.9821 48.0783C39.6043 47.4873 43.9018 44.6385 44.4885 44.323Z" fill="#FFA722"/>
<path id="Vector_7" d="M25.576 48.2654C24.7893 48.1898 24.5583 48.892 24.6782 49.5142C24.7938 50.1408 25.9671 58.0649 26.0471 58.6559C26.1626 59.5137 27.0648 59.8692 27.647 59.007C28.2292 58.1449 32.2467 51.7185 32.5712 51.1141C33.1578 50.0208 32.7267 49.7853 32.1401 49.5142C31.5579 49.2431 26.3982 48.3454 25.576 48.2654Z" fill="#FFA722"/>
<path id="Vector_8" d="M14.3148 39.1641C14.8615 38.2664 15.5637 38.5019 16.0748 39.3596C16.4214 39.9463 19.3546 43.8927 19.6301 44.3194C19.9057 44.7505 20.0212 45.5682 19.1635 45.7637C18.2969 45.9637 11.3061 47.7992 10.2128 47.9947C9.11956 48.1903 8.49293 47.3325 9.19512 46.3948C9.60398 45.8437 14.0038 39.6752 14.3148 39.1641Z" fill="#FFA722"/>
<path id="Vector_9" d="M12.84 32.3673C13.84 32.8117 14.3111 32.6517 14.52 31.9362C14.7955 30.9985 15.6132 26.7009 15.6532 25.7232C15.6799 25.0877 15.4177 24.4744 14.44 24.6299C13.4622 24.7855 6.43149 25.7676 5.53376 26.0787C4.48937 26.4431 4.56492 27.5898 5.25822 27.9542C6.0804 28.3853 12.1334 32.0562 12.84 32.3673Z" fill="#FFA722"/>
<path id="Vector_10" d="M24.9832 15.958C25.5477 15.5092 25.3743 14.8647 24.8677 14.5137C24.3611 14.1626 18.0858 9.62502 17.2903 9.00283C16.5881 8.45619 15.726 8.65174 15.9615 9.90056C16.1304 10.7983 18.1303 18.6557 18.268 19.1978C18.4236 19.8245 18.8947 20.1356 19.4413 19.7445C19.9791 19.3578 24.3966 16.4291 24.9832 15.958Z" fill="#FFA722"/>
</g>
</svg>
