<svg width="23" height="23" viewBox="0 0 23 23" fill="none" xmlns="http://www.w3.org/2000/svg">
<path d="M13.625 11.652L15.1646 11.4316C15.1646 11.4316 15.409 14.6163 15.5943 14.9917C15.7795 15.367 17.7967 17.6764 17.7967 17.6764L17.3719 18.5964L14.6344 16.0042C14.3405 15.7263 14.1505 15.3574 14.093 14.9565L13.625 11.652Z" fill="url(#paint0_linear_845_5970)"/>
<path d="M9.30454 11.652L7.7649 11.4316C7.7649 11.4316 7.52053 14.6163 7.33527 14.9917C7.15 15.3686 5.13281 17.6764 5.13281 17.6764L5.55765 18.5964L8.29355 16.0042C8.58742 15.7263 8.77748 15.3574 8.83498 14.9565L9.30454 11.652Z" fill="url(#paint1_linear_845_5970)"/>
<path d="M15.4281 12.381L15.2955 10.8733C15.2779 10.6672 14.909 8.99023 11.539 8.99023C8.16907 8.99023 7.73145 10.6321 7.71069 10.8717L7.57812 12.3794L9.03791 12.5087V16.9568H14.0178V12.5055L15.4281 12.381Z" fill="url(#paint2_linear_845_5970)"/>
<path d="M15.2287 19.1147C14.165 19.2983 13.2435 19.5778 12.2069 19.8861C11.7405 20.025 11.2502 20.1688 10.712 20.3125C9.66427 20.592 8.43447 20.8715 6.84692 21.1047C5.9062 21.2436 4.91917 21.1047 4.41927 20.7964C4.04714 20.5664 3.71972 20.1113 3.84909 19.7248C3.99124 19.2967 4.41607 18.8208 5.015 18.5349C5.26256 18.4167 5.53088 18.3049 5.80718 18.2027C6.49555 17.9455 7.22704 17.7363 7.77486 17.5926C8.29712 17.4568 8.65488 17.3818 8.65488 17.3818C9.30971 17.238 9.91342 17.2348 10.3926 17.4409C11.2263 17.797 15.521 19.0651 15.2287 19.1147Z" fill="url(#paint3_linear_845_5970)"/>
<path d="M6.74369 17.9112L5.96588 18.6667L5.2903 19.1298C5.27432 19.1426 5.25356 19.149 5.2328 19.1474L5.0619 19.1314C4.96448 19.1841 4.85747 19.2129 4.74887 19.2129C4.69935 19.2129 4.64665 19.2065 4.59714 19.1969C4.48374 19.1714 4.38152 19.1171 4.29688 19.0388C4.48214 18.8567 4.71053 18.6938 4.97246 18.566C5.49792 18.3105 6.11921 18.0821 6.69897 17.8984L6.74369 17.9112Z" fill="url(#paint4_linear_845_5970)"/>
<path d="M18.5643 20.7954C18.0644 21.1037 17.0806 21.2298 16.1367 21.1037C14.3367 20.8641 12.1199 20.1326 10.5307 19.358C9.62835 18.9188 8.84575 18.3933 8.39376 18.133C8.07593 17.9493 7.82358 17.8471 7.4243 17.8902C7.26778 17.9078 7.21667 17.919 7.10646 17.9142C6.88287 17.9046 7.08091 17.5484 7.08091 17.5484C7.18952 17.2961 7.55207 17.007 7.90823 17.1348C8.26439 17.2625 8.69242 17.5197 8.69242 17.5197C9.50537 17.772 9.5421 17.2673 10.018 17.435C10.256 17.5181 10.3103 17.8024 10.3167 17.9621C10.3247 18.1346 10.5866 18.2943 10.7591 18.3182L11.8755 18.4508L12.0288 18.4684L12.4281 18.5163L13.642 17.6538L13.8097 17.5341L14.2489 17.2226C14.2489 17.2226 14.3686 17.2625 14.5699 17.3328C14.6322 17.3536 14.7025 17.3791 14.7807 17.4063C15.1097 17.5213 15.5601 17.681 16.0424 17.8599C16.0968 17.8806 16.1527 17.9014 16.2086 17.9222C16.833 18.1569 17.4942 18.4189 18.0021 18.6536C18.6043 18.9315 18.9924 19.2957 19.1361 19.7237C19.2639 20.1102 18.9365 20.5654 18.5643 20.7954Z" fill="url(#paint5_linear_845_5970)"/>
<path d="M14.0309 17.0302L14.0069 16.4824C14.0069 16.4824 13.3505 16.7827 11.5633 16.7827C9.77611 16.7827 9.02865 16.4824 9.02865 16.4824V17.0302L7.85156 17.733L11.5122 19.402L15.3757 17.7186L14.0309 17.0302Z" fill="#7C7C7C"/>
<path d="M12.2044 19.8853C11.7381 20.0242 11.2477 20.168 10.7095 20.3117C10.4939 20.2159 10.2863 20.1185 10.085 20.021C9.29923 19.6361 8.57892 19.1969 8.05505 18.8759L8.01513 18.8535C7.81389 18.729 7.6398 18.622 7.49446 18.5373C7.20218 18.368 7.08559 18.3393 6.93227 18.3393C6.89234 18.3393 6.85241 18.3425 6.80929 18.3488L6.69589 18.36C6.61444 18.3696 6.52021 18.3824 6.40202 18.3824C6.37167 18.3824 6.34292 18.3808 6.30938 18.3792C6.11932 18.3712 5.94524 18.3105 5.80469 18.2019C6.49305 17.9448 7.22454 17.7355 7.77236 17.5918C7.83944 17.6237 7.90652 17.6621 7.9768 17.702C8.12373 17.7882 8.30581 17.8984 8.51024 18.0246C9.02931 18.3425 9.73844 18.7785 10.5083 19.1538C11.0146 19.4014 11.572 19.6425 12.1629 19.8693L12.2044 19.8853Z" fill="url(#paint6_linear_845_5970)"/>
<path d="M6.44531 19.3243C6.45809 19.1614 6.55871 19.0176 6.6785 18.917C6.79828 18.8116 6.93883 18.7397 7.08736 18.6854C7.15923 18.6599 7.24708 18.6391 7.31895 18.6311L7.54095 18.6008C7.68948 18.5832 7.83802 18.564 7.98655 18.5497C8.28362 18.5177 8.58228 18.5001 8.88095 18.4906C9.17961 18.481 9.47828 18.481 9.78014 18.5017C9.82486 18.5049 9.8584 18.5433 9.8552 18.588C9.85201 18.6311 9.81687 18.6646 9.77375 18.6631H9.77055C9.47828 18.6583 9.18121 18.6678 8.88734 18.679C8.59187 18.6918 8.29799 18.7142 8.00412 18.7365C7.85718 18.7493 7.71025 18.7637 7.56331 18.7796L7.3429 18.8068C7.26624 18.8148 7.20874 18.8244 7.13847 18.8435C7.00591 18.8819 6.87494 18.9426 6.75995 19.0192C6.64495 19.0975 6.54753 19.1997 6.50441 19.3323V19.3339C6.49962 19.3498 6.48205 19.3578 6.46608 19.353C6.4533 19.3498 6.44531 19.337 6.44531 19.3243Z" fill="#EDA600"/>
<path d="M18.5643 20.7954C18.0644 21.1037 17.0806 21.2298 16.1367 21.1037C14.8158 20.928 13.2714 20.4872 11.9138 19.9585C11.4219 19.7669 10.954 19.564 10.5307 19.358C9.62835 18.9188 8.84575 18.3933 8.39376 18.133C8.07593 17.9493 7.82358 17.8471 7.4243 17.8902C7.26778 17.9078 7.21667 17.919 7.10646 17.9142C6.88287 17.9046 7.08091 17.5484 7.08091 17.5484C7.18952 17.2961 7.55207 17.007 7.90823 17.1348C8.26439 17.2625 8.69242 17.5197 8.69242 17.5197C9.50537 17.772 9.5421 17.2673 10.018 17.435C10.256 17.5181 10.3103 17.8024 10.3167 17.9621C10.3247 18.1346 10.5866 18.2943 10.7591 18.3182C10.7591 18.3182 11.2143 18.3997 11.7094 18.4652H11.711L11.7925 18.4748C11.8276 18.4796 11.8627 18.4843 11.8979 18.4875C12.0161 18.5019 12.1327 18.5131 12.2429 18.5227L12.2732 18.5259H12.2812C12.2828 18.5275 12.2844 18.5275 12.286 18.5259C12.286 18.5259 12.286 18.5259 12.2876 18.5259C12.4074 18.5355 12.5192 18.5402 12.615 18.5402C12.7667 18.5402 12.9137 18.5355 13.0574 18.5259C13.5525 18.4955 14.0093 18.4205 14.4517 18.3566C14.5763 18.3374 14.6993 18.3198 14.8222 18.3039C14.8238 18.3039 14.8238 18.3039 14.8238 18.3039C15.263 18.248 15.6943 18.2176 16.1447 18.2687C16.9943 18.3662 18.0373 18.6552 19.0499 19.5305C19.0834 19.5928 19.1137 19.6582 19.1361 19.7237C19.2639 20.1102 18.9365 20.5654 18.5643 20.7954Z" fill="url(#paint7_linear_845_5970)"/>
<path d="M16.4867 18.6012C16.204 18.499 15.3847 18.3887 14.9119 18.3328C14.9119 18.3328 15.292 18.1013 15.8973 18.1715C16.2743 18.2163 15.9101 17.5566 15.9101 17.5566C15.9101 17.5566 14.9758 18.0661 14.658 18.2498C14.6436 18.2578 14.6116 18.2754 14.5701 18.2961C14.5637 18.2993 14.5573 18.3025 14.551 18.3057C14.5206 18.3217 14.4871 18.3392 14.4535 18.3584C14.3625 18.4047 14.2667 18.4542 14.2188 18.4814C14.3258 18.4846 14.4312 18.4894 14.5382 18.4942C15.5923 18.5469 16.6161 18.6874 17.0952 19.0947C17.1096 19.1059 17.1335 19.1011 17.1287 19.0851C17.0808 18.9382 16.886 18.7465 16.4867 18.6012Z" fill="#EDA600"/>
<path d="M15.9424 18.0295C15.8338 18.0343 15.7827 18.0231 15.6246 18.004C15.2269 17.9624 14.9745 18.0647 14.6567 18.2483C14.6423 18.2563 14.6104 18.2739 14.5689 18.2947C14.5625 18.2978 14.5561 18.301 14.5497 18.3042C14.5193 18.3202 14.4858 18.3378 14.4523 18.3569C14.3612 18.4033 14.2654 18.4528 14.2175 18.4799C14.2079 18.4847 14.1983 18.4895 14.1935 18.4927C14.1935 18.4927 13.6058 18.4911 13.3598 18.5135C13.3103 18.5182 13.264 18.5214 13.2225 18.5246C13.01 18.5406 12.8791 18.5406 12.6156 18.5406C12.5197 18.5406 12.4079 18.5358 12.2881 18.5262C12.2865 18.5262 12.2865 18.5262 12.2865 18.5262H12.2738L12.2434 18.523C12.1332 18.5135 12.0166 18.5023 11.8984 18.4879L11.908 18.4863H11.9096L12.2386 18.44L12.2913 18.432C12.4015 18.4176 12.5469 18.3474 12.6411 18.2531C12.6427 18.2515 12.6443 18.2499 12.6443 18.2483C12.6571 18.2372 12.6667 18.226 12.6762 18.2132C12.7082 18.1717 12.7289 18.1254 12.7321 18.0758C12.7321 18.0679 12.7337 18.0599 12.7353 18.0519C12.7465 17.889 12.8056 17.627 13.0324 17.5488C13.5084 17.3827 13.5435 17.8858 14.3564 17.635C14.3564 17.635 14.7845 17.3779 15.1406 17.2501C15.4968 17.1224 15.8609 17.4098 15.9679 17.6622C15.9679 17.6622 15.9951 17.7101 16.0175 17.7692C16.0558 17.8746 16.0861 18.0231 15.9424 18.0295Z" fill="url(#paint8_linear_845_5970)"/>
<path d="M19.8696 17.2753C19.8696 17.2498 19.8568 17.2242 19.8344 17.2098C19.8121 17.1955 19.7865 17.1907 19.761 17.2003C19.7514 17.2035 19.5454 17.2769 19.4511 17.4766C19.4463 17.4861 19.4431 17.4973 19.4431 17.5085L19.4288 17.8966C19.4096 17.9238 19.3809 17.9621 19.3489 18.0068L19.2946 17.5213L19.3074 16.8665C19.3074 16.8441 19.2994 16.8217 19.2834 16.8058C19.2675 16.7898 19.2435 16.7818 19.2227 16.7834C19.2179 16.7834 19.1588 16.7882 19.087 16.8122C19.0806 16.8122 19.0758 16.8122 19.0694 16.8122C19.0646 16.8122 19.0598 16.8137 19.0534 16.8137C19.0423 16.8137 19.0327 16.8153 19.0215 16.8169C19.0103 16.8185 18.9975 16.8201 18.9864 16.8233C18.9768 16.8249 18.9688 16.8281 18.9592 16.8297C18.948 16.8329 18.9384 16.8361 18.9273 16.8409C18.9193 16.8441 18.9113 16.8473 18.9033 16.8521C18.8937 16.8569 18.8857 16.8617 18.8762 16.8681C18.8682 16.8728 18.8618 16.8776 18.8538 16.8824C18.8458 16.8888 18.8378 16.8952 18.8314 16.9016C18.825 16.908 18.8171 16.9144 18.8107 16.9208C18.8043 16.9271 18.7979 16.9335 18.7915 16.9399C18.7851 16.9479 18.7771 16.9559 18.7707 16.9639C18.766 16.9703 18.7612 16.9767 18.7564 16.9814C18.7484 16.991 18.7404 17.0022 18.734 17.0118C18.7308 17.015 18.7292 17.0198 18.726 17.023C18.6286 17.1651 18.5551 17.336 18.4082 17.3919C18.3826 17.4015 18.3555 17.4095 18.3267 17.4159C18.06 17.4718 17.7118 17.368 17.5106 17.5995L17.5122 17.6027C17.5058 17.6091 17.4978 17.6155 17.4914 17.6235C17.4371 17.689 17.2215 17.566 17.2215 17.566L16.8174 17.8487L16.7711 17.8056L16.6306 17.673L16.4453 17.7177L17.2295 18.4668L17.9099 18.9252C17.9259 18.9379 17.9466 18.9443 17.9674 18.9411L18.1367 18.9236C18.2341 18.9763 18.3427 19.0034 18.4513 19.0034C18.5024 19.0034 18.5535 18.997 18.603 18.9859C18.7356 18.9555 18.8538 18.8836 18.9416 18.7798L18.9624 18.7559L18.9959 18.7686C19.0039 18.7718 19.0119 18.7734 19.0199 18.775C19.178 18.7862 19.3633 18.7016 19.4735 18.5674L19.8584 18.0835C19.8696 18.0691 19.876 18.0499 19.876 18.0324L19.8696 17.2753Z" fill="url(#paint9_linear_845_5970)"/>
<path d="M19.3047 16.8118C19.3047 16.8118 19.3047 16.8389 19.3047 16.8405L19.3015 16.9459C19.2153 16.9427 19.1146 16.9587 19.0476 17.0034C18.9757 17.0465 18.9469 17.1168 18.9469 17.219L18.9278 17.8419L18.9166 18.155C18.923 18.2109 18.8895 18.2779 18.8543 18.3115L18.7569 18.4329L18.3672 18.9216L18.7233 18.4089L18.8144 18.2795C18.8479 18.2364 18.8607 18.2045 18.8559 18.1534L18.8463 17.8403L18.8256 17.2142C18.8224 17.1647 18.8256 17.0945 18.8479 17.0354C18.8687 16.9779 18.9565 16.7974 19.2616 16.7734C19.2839 16.775 19.3015 16.7878 19.3047 16.8118Z" fill="#EDA600"/>
<path d="M19.8729 17.2111V17.2223L19.8713 17.3277C19.8138 17.3261 19.7452 17.3405 19.6909 17.3692C19.6366 17.398 19.595 17.4427 19.5727 17.5002C19.5631 17.5289 19.5567 17.5625 19.5535 17.596L19.5423 17.7126C19.5312 17.7909 19.5216 17.8643 19.4944 17.949L19.4928 17.9554L19.488 17.9617L19.3938 18.0735L19.0312 18.6405L19.3331 18.0336L19.3347 18.0304L19.413 17.917C19.4257 17.8531 19.4305 17.7765 19.4337 17.703V17.5912C19.4353 17.5481 19.4401 17.5034 19.4513 17.4602C19.4769 17.3708 19.5407 17.2909 19.6174 17.243C19.6797 17.2079 19.742 17.1823 19.8107 17.1712C19.8154 17.1696 19.8218 17.168 19.8282 17.168H19.8298C19.8522 17.1696 19.8697 17.1871 19.8729 17.2111Z" fill="#EDA600"/>
<path d="M17.4453 18.0383C17.4453 18.0383 18.041 17.4521 18.8412 17.5144C18.8412 17.5144 18.5026 17.4984 18.5617 18.0862C18.5617 18.0862 18.3253 17.8482 17.9947 18.4679C17.9931 18.4695 17.8031 17.9632 17.4453 18.0383Z" fill="url(#paint10_linear_845_5970)"/>
<path d="M18.8675 17.6256C18.8195 17.616 18.7557 17.6224 18.7157 17.6464C18.6742 17.6703 18.6486 17.7166 18.6391 17.7773C18.6295 17.8396 18.6263 17.9163 18.6199 17.985L18.6119 18.0904C18.6071 18.1255 18.6103 18.1591 18.5991 18.2054C18.5864 18.2501 18.556 18.2836 18.5353 18.3076L18.4682 18.3906L18.3324 18.5551L18.0625 18.8857L18.3005 18.5312L18.4203 18.3539L18.4794 18.2645C18.5001 18.2325 18.5177 18.2102 18.5209 18.1846C18.5257 18.1622 18.5209 18.1239 18.5209 18.0872L18.5193 17.9802C18.5193 17.9067 18.5145 17.8396 18.5177 17.7614C18.5209 17.6815 18.556 17.5857 18.6343 17.5282C18.7141 17.4723 18.7988 17.4579 18.8914 17.4643L18.8675 17.6256Z" fill="#EDA600"/>
<path d="M18.5221 18.1665C18.4853 18.1489 18.4278 18.1378 18.3847 18.1473C18.3384 18.1537 18.2969 18.1825 18.2633 18.2224L18.0206 18.5227L17.9631 18.5945L17.9343 18.5083C17.8768 18.3326 17.7538 18.1585 17.5766 18.0803C17.3977 17.9988 17.1837 18.0307 17 18.109C17.1773 18.018 17.3913 17.9637 17.5941 18.0355C17.6932 18.0707 17.7826 18.133 17.8545 18.2096C17.9263 18.2879 17.9838 18.3757 18.0254 18.4779L17.9391 18.4636L18.1579 18.1441C18.201 18.0835 18.2681 18.026 18.3496 18.0068C18.431 17.986 18.5077 17.9908 18.5892 18.0212L18.5221 18.1665Z" fill="#EDA600"/>
<path d="M3.13139 17.2167C3.13139 17.1912 3.14417 17.1656 3.16653 17.1512C3.18729 17.1369 3.21444 17.1321 3.23999 17.1417C3.24958 17.1449 3.45561 17.2183 3.54984 17.418C3.55463 17.4276 3.55782 17.4387 3.55782 17.4499L3.5722 17.838C3.59136 17.8652 3.62011 17.9035 3.65206 17.9482L3.70636 17.4627L3.69358 16.8079C3.69358 16.7855 3.70157 16.7631 3.71914 16.7472C3.73511 16.7312 3.75906 16.7232 3.77983 16.7248C3.78462 16.7248 3.84371 16.7296 3.91558 16.7536C3.92197 16.7536 3.92676 16.7536 3.93315 16.7536C3.93794 16.7536 3.94273 16.7552 3.94912 16.7552C3.9603 16.7552 3.96989 16.7568 3.98107 16.7583C3.99384 16.7599 4.00502 16.7615 4.0162 16.7647C4.02579 16.7663 4.03377 16.7695 4.04335 16.7711C4.05453 16.7743 4.06412 16.7775 4.0753 16.7823C4.08328 16.7855 4.09127 16.7887 4.09925 16.7935C4.10884 16.7983 4.11682 16.8031 4.12641 16.8095C4.13439 16.8142 4.14078 16.819 4.14877 16.8238C4.15675 16.8302 4.16474 16.8366 4.17272 16.843C4.18071 16.8494 4.1871 16.8558 4.19349 16.8622C4.19987 16.8686 4.20626 16.8749 4.21265 16.8813C4.22064 16.8893 4.22703 16.8973 4.23341 16.9053C4.23821 16.9117 4.243 16.9181 4.24779 16.9229C4.25577 16.9324 4.26376 16.9436 4.27015 16.9532C4.27334 16.9564 4.27494 16.9612 4.27813 16.9644C4.37556 17.1065 4.44903 17.2774 4.59596 17.3333C4.62152 17.3429 4.64867 17.3509 4.67742 17.3573C4.94414 17.4132 5.29232 17.3094 5.49356 17.5409L5.49196 17.5441C5.49835 17.5505 5.50633 17.5569 5.51272 17.5649C5.56702 17.6304 5.78264 17.5074 5.78264 17.5074L6.18512 17.7901L6.22984 17.747L6.37038 17.6144L6.55565 17.6591L5.77146 18.4082L5.09108 18.8666C5.07511 18.8793 5.05434 18.8857 5.03358 18.8825L4.86428 18.865C4.76686 18.9177 4.65825 18.9448 4.54965 18.9448C4.49854 18.9448 4.44743 18.9384 4.39792 18.9273C4.26536 18.8969 4.14717 18.825 4.05933 18.7212L4.03856 18.6973L4.00502 18.7101C3.99704 18.7132 3.98905 18.7148 3.98107 18.7164C3.82455 18.7276 3.63768 18.643 3.52748 18.5088L3.14257 18.0249C3.13139 18.0105 3.125 17.9913 3.125 17.9738L3.13139 17.2167Z" fill="url(#paint11_linear_845_5970)"/>
<path d="M3.13281 17.1525V17.1637L3.13441 17.2691C3.19191 17.2675 3.26058 17.2819 3.31489 17.3106C3.36919 17.3394 3.41071 17.3841 3.43307 17.4416C3.44266 17.4703 3.44905 17.5039 3.45224 17.5374L3.46342 17.654C3.4746 17.7323 3.48418 17.8057 3.51133 17.8904L3.51293 17.8968L3.51772 17.9032L3.61195 18.015L3.9745 18.5819L3.67265 17.975L3.67105 17.9718L3.59279 17.8584C3.58001 17.7945 3.57522 17.7179 3.57203 17.6444V17.5326C3.57043 17.4895 3.56564 17.4448 3.55446 17.4017C3.5289 17.3122 3.46502 17.2324 3.38676 17.1844C3.32447 17.1493 3.26218 17.1237 3.1935 17.1126C3.18871 17.111 3.18232 17.1094 3.17594 17.1094H3.17434C3.15198 17.111 3.13441 17.1285 3.13281 17.1525Z" fill="#EDA600"/>
<path d="M5.55996 17.9797C5.55996 17.9797 4.96423 17.3935 4.16406 17.4558C4.16406 17.4558 4.50266 17.4398 4.44356 18.0276C4.44356 18.0276 4.67994 17.7896 5.01055 18.4093C5.01055 18.4109 5.2022 17.9046 5.55996 17.9797Z" fill="url(#paint12_linear_845_5970)"/>
<path d="M4.13333 17.5631C4.18125 17.5535 4.24513 17.5599 4.28506 17.5839C4.32659 17.6078 4.35214 17.6541 4.36172 17.7148C4.37131 17.7771 4.3745 17.8538 4.38089 17.9225L4.38887 18.0279C4.39367 18.063 4.39047 18.0966 4.40165 18.1429C4.41443 18.1876 4.44477 18.2211 4.46554 18.2451L4.53262 18.3281L4.66837 18.4926L4.93829 18.8232L4.70032 18.4687L4.58053 18.2914L4.52144 18.202C4.50067 18.17 4.48311 18.1477 4.47991 18.1221C4.47512 18.0997 4.47991 18.0614 4.47991 18.0247L4.48151 17.9177C4.48151 17.8442 4.4863 17.7771 4.48311 17.6989C4.47991 17.619 4.44477 17.5232 4.36651 17.4657C4.28666 17.4098 4.20201 17.3954 4.10938 17.4018L4.13333 17.5631Z" fill="#EDA600"/>
<path d="M4.47493 18.106C4.51166 18.0884 4.56916 18.0772 4.61228 18.0868C4.6586 18.0932 4.70012 18.1219 4.73366 18.1619L4.97643 18.4621L5.03393 18.534L5.06267 18.4477C5.12017 18.2721 5.24315 18.098 5.42043 18.0197C5.59931 17.9383 5.81333 17.9702 5.997 18.0485C5.81972 17.9574 5.6057 17.9031 5.40286 17.975C5.30384 18.0101 5.2144 18.0724 5.14253 18.1491C5.07066 18.2273 5.01316 18.3152 4.97004 18.4174L5.05628 18.403L4.83748 18.0836C4.79435 18.0229 4.72727 17.9654 4.64582 17.9462C4.56437 17.9255 4.4877 17.9303 4.40625 17.9606L4.47493 18.106Z" fill="#EDA600"/>
<path d="M3.69531 16.759C3.69531 16.759 3.69531 16.7862 3.69531 16.7878L3.69851 16.8932C3.78475 16.89 3.88537 16.906 3.95245 16.9507C4.02432 16.9938 4.05307 17.0641 4.05307 17.1663L4.07224 17.7892L4.08342 18.1022C4.07703 18.1581 4.11057 18.2252 4.14571 18.2587L4.24313 18.3801L4.63283 18.8689L4.27667 18.3562L4.18563 18.2268C4.15209 18.1837 4.13932 18.1517 4.14411 18.1006L4.15369 17.7876L4.17445 17.1615C4.17765 17.112 4.17445 17.0417 4.15209 16.9826C4.13133 16.9251 4.04349 16.7447 3.73844 16.7207C3.71608 16.7223 3.69851 16.7367 3.69531 16.759Z" fill="#EDA600"/>
<path d="M11.4962 8.41602H10.7344V9.22257C10.7344 9.58672 11.0442 9.88378 11.4259 9.88378H11.5649C11.9466 9.88378 12.2564 9.58831 12.2564 9.22257V8.41602H11.4962Z" fill="#E59600"/>
<path d="M13.5962 5.39648H13.0308H9.97225H9.40687C8.95488 5.39648 8.58594 5.79098 8.58594 6.27172C8.58594 6.75245 8.95488 7.14695 9.40687 7.14695H9.97225H13.0324H13.5978C14.0497 7.14695 14.4187 6.75245 14.4187 6.27172C14.4187 5.79098 14.0481 5.39648 13.5962 5.39648Z" fill="#E59600"/>
<path d="M11.4995 2.37891C10.1659 2.37891 8.92969 3.80515 8.92969 5.85907C8.92969 7.90021 10.2026 8.9096 11.4995 8.9096C12.7964 8.9096 14.0693 7.90021 14.0693 5.85907C14.0693 3.80515 12.8331 2.37891 11.4995 2.37891Z" fill="#FFCA28"/>
<path d="M10.8226 5.42439C10.7475 5.31099 10.5766 5.14648 10.2428 5.14648C9.90901 5.14648 9.73652 5.31099 9.66305 5.42439C9.62951 5.4739 9.6375 5.53299 9.66145 5.56813C9.68222 5.60007 9.7445 5.63042 9.81318 5.60486C9.88186 5.57931 10.0176 5.49785 10.2428 5.49626C10.468 5.49785 10.6038 5.57771 10.6724 5.60486C10.7411 5.63201 10.8034 5.60167 10.8242 5.56813C10.8481 5.53299 10.8561 5.4739 10.8226 5.42439Z" fill="#6D4C41"/>
<path d="M13.346 5.42439C13.2709 5.31099 13.1001 5.14648 12.7662 5.14648C12.4324 5.14648 12.26 5.31099 12.1865 5.42439C12.1529 5.4739 12.1609 5.53299 12.1849 5.56813C12.2057 5.60007 12.2679 5.63042 12.3366 5.60486C12.4053 5.57931 12.5411 5.49785 12.7662 5.49626C12.9914 5.49785 13.1256 5.57771 13.1959 5.60486C13.2662 5.63201 13.3268 5.60167 13.3476 5.56813C13.3716 5.53299 13.378 5.4739 13.346 5.42439Z" fill="#6D4C41"/>
<path d="M11.7931 6.74858C11.7851 6.74538 11.7771 6.74378 11.7691 6.74219H11.2261C11.2181 6.74378 11.2102 6.74538 11.2022 6.74858C11.1527 6.76774 11.1255 6.81885 11.1495 6.87315C11.1734 6.92746 11.2804 7.07918 11.4976 7.07918C11.7148 7.07918 11.8235 6.92746 11.8458 6.87315C11.8698 6.81885 11.8426 6.76774 11.7931 6.74858Z" fill="#E59600"/>
<path d="M12.1331 7.36846C11.892 7.51221 11.1014 7.51221 10.8602 7.36846C10.7213 7.28541 10.5807 7.41159 10.6382 7.53776C10.6941 7.66234 11.1269 7.94823 11.4991 7.94823C11.8728 7.94823 12.2976 7.66074 12.3551 7.53776C12.411 7.41159 12.2721 7.28541 12.1331 7.36846Z" fill="#795548"/>
<path d="M10.2473 6.15318C10.0892 6.15318 9.94864 6.11484 9.84961 6.05415C9.80809 6.0286 9.78253 6.04297 9.79052 6.09248C9.81927 6.28254 10.0125 6.42948 10.2473 6.42948C10.4821 6.42948 10.6753 6.28254 10.7041 6.09248C10.7121 6.04297 10.6865 6.027 10.645 6.05415C10.5476 6.11484 10.4054 6.15318 10.2473 6.15318Z" fill="#404040"/>
<path d="M12.7473 6.15318C12.5892 6.15318 12.4486 6.11484 12.3496 6.05415C12.3081 6.0286 12.2825 6.04297 12.2905 6.09248C12.3193 6.28254 12.5125 6.42948 12.7473 6.42948C12.9821 6.42948 13.1753 6.28254 13.2041 6.09248C13.2121 6.04297 13.1865 6.027 13.145 6.05415C13.046 6.11484 12.9038 6.15318 12.7473 6.15318Z" fill="#404040"/>
<path d="M11.5015 1.83984C11.4999 1.83984 11.5015 1.83984 11.5015 1.83984C11.4999 1.83984 11.4999 1.83984 11.4983 1.83984C8.0277 1.85901 8.74002 5.82151 8.74002 5.82151C8.74002 5.82151 8.89494 6.23038 8.96681 6.41085C8.9764 6.43641 9.01473 6.43481 9.02112 6.40606C9.09458 6.07386 9.36131 4.89996 9.49706 4.5422C9.57692 4.33138 9.79413 4.2084 10.0161 4.24992C10.3563 4.31221 10.8978 4.38728 11.4951 4.38728C11.4967 4.38728 11.4999 4.38728 11.5015 4.38728C11.5031 4.38728 11.5063 4.38728 11.5079 4.38728C12.1052 4.38728 12.6466 4.31062 12.9868 4.24992C13.2088 4.21 13.426 4.33138 13.5059 4.5422C13.64 4.89836 13.9052 6.06587 13.9802 6.40287C13.9866 6.43002 14.0249 6.43321 14.0345 6.40606L14.2629 5.81991C14.2613 5.82151 14.9721 1.85901 11.5015 1.83984Z" fill="#543930"/>
<path d="M14.2625 5.82151C14.2625 5.82151 14.9732 1.85741 11.5026 1.83984C11.5026 1.83984 11.5026 1.83984 11.501 1.83984H11.4994C11.4451 1.83984 11.3924 1.84144 11.3413 1.84304C11.2375 1.84783 11.1385 1.85582 11.0426 1.867C11.041 1.867 11.041 1.867 11.0394 1.867C11.033 1.86859 11.0267 1.86859 11.0187 1.87019C8.0975 2.23753 8.73955 5.82151 8.73955 5.82151L8.96635 6.40766C8.97593 6.43321 9.01426 6.43161 9.02065 6.40446C9.09572 6.06906 9.36084 4.89996 9.495 4.5438C9.57486 4.33298 9.79207 4.21159 10.0141 4.25152C10.3543 4.31381 10.8957 4.38888 11.493 4.38888C11.4946 4.38888 11.4978 4.38888 11.4994 4.38888C11.501 4.38888 11.5042 4.38888 11.5058 4.38888C12.1031 4.38888 12.6446 4.31221 12.9847 4.25152C13.2067 4.21159 13.424 4.33298 13.5038 4.5438C13.638 4.90156 13.9047 6.07865 13.9782 6.40926C13.9846 6.43641 14.0213 6.4396 14.0309 6.41405C14.1043 6.23197 14.2625 5.82151 14.2625 5.82151Z" fill="url(#paint13_radial_845_5970)"/>
<defs>
<linearGradient id="paint0_linear_845_5970" x1="15.7101" y1="11.4326" x2="15.7101" y2="18.5977" gradientUnits="userSpaceOnUse">
<stop stop-color="#FFB300"/>
<stop offset="0.5" stop-color="#FFCA28"/>
</linearGradient>
<linearGradient id="paint1_linear_845_5970" x1="7.22003" y1="11.4326" x2="7.22003" y2="18.5977" gradientUnits="userSpaceOnUse">
<stop stop-color="#FFB300"/>
<stop offset="0.5" stop-color="#FFCA28"/>
</linearGradient>
<linearGradient id="paint2_linear_845_5970" x1="11.5024" y1="8.95433" x2="11.5024" y2="16.6928" gradientUnits="userSpaceOnUse">
<stop stop-color="#00BFA5"/>
<stop offset="0.7047" stop-color="#00B29A"/>
<stop offset="1" stop-color="#00AB94"/>
</linearGradient>
<linearGradient id="paint3_linear_845_5970" x1="9.53163" y1="20.6704" x2="9.53163" y2="16.7911" gradientUnits="userSpaceOnUse">
<stop stop-color="#FFB300"/>
<stop offset="0.3773" stop-color="#FFCA28"/>
</linearGradient>
<linearGradient id="paint4_linear_845_5970" x1="5.50453" y1="18.4575" x2="6.30695" y2="19.4478" gradientUnits="userSpaceOnUse">
<stop stop-color="#FFB300"/>
<stop offset="0.5" stop-color="#FFCA28" stop-opacity="0"/>
</linearGradient>
<linearGradient id="paint5_linear_845_5970" x1="7" y1="19.1278" x2="19.1643" y2="19.1278" gradientUnits="userSpaceOnUse">
<stop offset="0.7779" stop-color="#FFCA28"/>
<stop offset="1" stop-color="#FFB300"/>
</linearGradient>
<linearGradient id="paint6_linear_845_5970" x1="9.02389" y1="19.0073" x2="8.53651" y2="19.9217" gradientUnits="userSpaceOnUse">
<stop stop-color="#FFB300"/>
<stop offset="0.5" stop-color="#FFCA28" stop-opacity="0"/>
</linearGradient>
<linearGradient id="paint7_linear_845_5970" x1="18.9119" y1="20.2816" x2="7.65628" y2="17.8859" gradientUnits="userSpaceOnUse">
<stop stop-color="#FFB300"/>
<stop offset="0.3379" stop-color="#FFCA28"/>
</linearGradient>
<linearGradient id="paint8_linear_845_5970" x1="14.0243" y1="18.5237" x2="13.7312" y2="16.5989" gradientUnits="userSpaceOnUse">
<stop offset="0.078" stop-color="#FFB300"/>
<stop offset="0.6927" stop-color="#FFCA28"/>
</linearGradient>
<linearGradient id="paint9_linear_845_5970" x1="19.3807" y1="18.4082" x2="17.7383" y2="17.278" gradientUnits="userSpaceOnUse">
<stop stop-color="#FFB300"/>
<stop offset="0.5" stop-color="#FFCA28"/>
</linearGradient>
<linearGradient id="paint10_linear_845_5970" x1="18.3613" y1="18.1284" x2="18.1014" y2="17.7103" gradientUnits="userSpaceOnUse">
<stop stop-color="#FFB300"/>
<stop offset="1" stop-color="#FFCA28" stop-opacity="0"/>
</linearGradient>
<linearGradient id="paint11_linear_845_5970" x1="3.5121" y1="18.1531" x2="5.86275" y2="17.234" gradientUnits="userSpaceOnUse">
<stop stop-color="#FFB300"/>
<stop offset="0.5" stop-color="#FFCA28"/>
</linearGradient>
<linearGradient id="paint12_linear_845_5970" x1="4.61846" y1="18.0202" x2="4.97443" y2="17.5795" gradientUnits="userSpaceOnUse">
<stop stop-color="#FFB300"/>
<stop offset="1" stop-color="#FFCA28" stop-opacity="0"/>
</linearGradient>
<radialGradient id="paint13_radial_845_5970" cx="0" cy="0" r="1" gradientUnits="userSpaceOnUse" gradientTransform="translate(11.501 5.12904) scale(2.90925 3.28222)">
<stop offset="0.7945" stop-color="#6D4C41" stop-opacity="0"/>
<stop offset="1" stop-color="#6D4C41"/>
</radialGradient>
</defs>
</svg>
