<svg width="56" height="56" viewBox="0 0 56 56" fill="none" xmlns="http://www.w3.org/2000/svg">
<path d="M28.1175 4.47852C20.3284 4.47852 20.3906 11.6804 20.3906 11.7931C20.3906 16.4557 20.7484 23.047 22.615 25.6368C23.3538 26.6635 24.7849 26.7218 24.7849 26.7218L28.0086 26.7179L31.2323 26.7218C31.2323 26.7218 32.6633 26.6635 33.4022 25.6368C35.2687 23.0431 35.6265 16.4557 35.6265 11.7931C35.6265 11.6804 35.9065 4.47852 28.1175 4.47852Z" fill="#543930"/>
<path d="M28.1175 4.47852C20.3284 4.47852 20.3906 11.6804 20.3906 11.7931C20.3906 16.4557 20.7484 23.047 22.615 25.6368C23.3538 26.6635 24.7849 26.7218 24.7849 26.7218L28.0086 26.7179L31.2323 26.7218C31.2323 26.7218 32.6633 26.6635 33.4022 25.6368C35.2687 23.0431 35.6265 16.4557 35.6265 11.7931C35.6265 11.6804 35.9065 4.47852 28.1175 4.47852Z" fill="url(#paint0_radial_780_10112)"/>
<path d="M33.1719 28.3726L36.9206 27.8359C36.9206 27.8359 37.5155 35.59 37.9666 36.5038C38.4177 37.4177 43.3291 43.0407 43.3291 43.0407L42.2947 45.2806L35.6295 38.9692C34.914 38.2926 34.4513 37.3943 34.3113 36.4183L33.1719 28.3726Z" fill="url(#paint1_linear_780_10112)"/>
<path d="M22.6494 28.3726L18.9007 27.8359C18.9007 27.8359 18.3058 35.59 17.8547 36.5038C17.4036 37.4215 12.4922 43.0407 12.4922 43.0407L13.5266 45.2806L20.1879 38.9692C20.9034 38.2926 21.3662 37.3943 21.5062 36.4183L22.6494 28.3726Z" fill="url(#paint2_linear_780_10112)"/>
<path d="M37.5582 30.1424L37.2354 26.4715C37.1927 25.9698 36.2944 21.8867 28.0892 21.8867C19.8841 21.8867 18.8186 25.8843 18.7681 26.4676L18.4453 30.1385L21.9996 30.4535V41.2835H34.1245V30.4457L37.5582 30.1424Z" fill="url(#paint3_linear_780_10112)"/>
<path d="M37.0816 46.5429C34.4918 46.9901 32.248 47.6706 29.7242 48.4211C28.5887 48.7595 27.3949 49.1094 26.0844 49.4594C23.5335 50.1399 20.5392 50.8205 16.6738 51.3882C14.3834 51.7265 11.9802 51.3882 10.763 50.6377C9.85695 50.0777 9.05977 48.9694 9.37476 48.0284C9.72085 46.9862 10.7552 45.8274 12.2135 45.1313C12.8162 44.8436 13.4695 44.5713 14.1423 44.3225C15.8183 43.6964 17.5993 43.187 18.9331 42.837C20.2047 42.5065 21.0758 42.3237 21.0758 42.3237C22.6702 41.9737 24.1401 41.9659 25.3067 42.4676C27.3366 43.3347 37.7933 46.4224 37.0816 46.5429Z" fill="url(#paint4_linear_780_10112)"/>
<path d="M16.4106 43.6112L14.5168 45.4505L12.8719 46.5783C12.833 46.6094 12.7824 46.6249 12.7319 46.621L12.3158 46.5821C12.0786 46.7105 11.8181 46.7805 11.5536 46.7805C11.4331 46.7805 11.3047 46.7649 11.1842 46.7416C10.9081 46.6794 10.6592 46.5471 10.4531 46.3566C10.9042 45.9133 11.4603 45.5166 12.098 45.2055C13.3774 44.5834 14.8901 44.0273 16.3017 43.5801L16.4106 43.6112Z" fill="url(#paint5_linear_780_10112)"/>
<path d="M45.1957 50.6354C43.9785 51.386 41.5831 51.6932 39.2849 51.386C34.9024 50.8027 29.5049 49.0216 25.6356 47.1356C23.4385 46.0662 21.5331 44.7869 20.4326 44.153C19.6587 43.7058 19.0443 43.4569 18.0721 43.5619C17.691 43.6047 17.5666 43.6319 17.2983 43.6203C16.7539 43.5969 17.2361 42.7297 17.2361 42.7297C17.5005 42.1153 18.3832 41.4115 19.2504 41.7226C20.1176 42.0337 21.1597 42.6597 21.1597 42.6597C23.1391 43.2742 23.2285 42.0453 24.3874 42.4536C24.9668 42.6559 25.099 43.348 25.1145 43.7369C25.134 44.1569 25.7717 44.5458 26.1917 44.6041L28.9099 44.9269L29.2832 44.9696L30.2554 45.0863L33.2108 42.9864L33.6191 42.6947L34.6885 41.9365C34.6885 41.9365 34.9801 42.0337 35.4701 42.2048C35.6218 42.2553 35.7929 42.3175 35.9834 42.3837C36.7845 42.6636 37.8811 43.0525 39.0555 43.488C39.1877 43.5386 39.3238 43.5891 39.4599 43.6397C40.9804 44.2113 42.5903 44.8491 43.8269 45.4207C45.2929 46.0973 46.2379 46.984 46.5878 48.0261C46.8989 48.9672 46.1018 50.0755 45.1957 50.6354Z" fill="url(#paint6_linear_780_10112)"/>
<path d="M34.1781 41.4627L34.1198 40.1289C34.1198 40.1289 32.5216 40.86 28.1701 40.86C23.8187 40.86 21.9988 40.1289 21.9988 40.1289V41.4627L19.1328 43.1737L28.0457 47.2374L37.4524 43.1387L34.1781 41.4627Z" fill="#7C7C7C"/>
<path d="M29.7226 48.4162C28.5871 48.7545 27.3933 49.1045 26.0828 49.4545C25.5578 49.2211 25.0523 48.9839 24.5623 48.7467C22.6491 47.8095 20.8953 46.7402 19.6198 45.9585L19.5226 45.9041C19.0326 45.6008 18.6087 45.3402 18.2549 45.1341C17.5432 44.7219 17.2593 44.6519 16.886 44.6519C16.7888 44.6519 16.6916 44.6597 16.5866 44.6753L16.3105 44.7025C16.1122 44.7258 15.8828 44.7569 15.595 44.7569C15.5211 44.7569 15.4511 44.753 15.3694 44.7492C14.9067 44.7297 14.4828 44.5819 14.1406 44.3175C15.8166 43.6914 17.5977 43.182 18.9315 42.832C19.0948 42.9098 19.2581 43.0031 19.4292 43.1003C19.787 43.3103 20.2303 43.5787 20.7281 43.8859C21.9919 44.6597 23.7185 45.7213 25.5928 46.6352C26.8255 47.2379 28.1827 47.8251 29.6215 48.3773L29.7226 48.4162Z" fill="url(#paint7_linear_780_10112)"/>
<path d="M15.7031 47.0469C15.7342 46.6503 15.9792 46.3003 16.2709 46.0553C16.5625 45.7986 16.9047 45.6236 17.2664 45.4914C17.4414 45.4292 17.6552 45.3787 17.8302 45.3592L18.3708 45.2853C18.7324 45.2426 19.0941 45.1959 19.4557 45.1609C20.179 45.0831 20.9062 45.0403 21.6334 45.017C22.3606 44.9937 23.0877 44.9937 23.8227 45.0442C23.9316 45.052 24.0132 45.1453 24.0055 45.2542C23.9977 45.3592 23.9121 45.4409 23.8071 45.437H23.7994C23.0877 45.4253 22.3644 45.4487 21.6489 45.4759C20.9295 45.507 20.214 45.5614 19.4985 45.6159C19.1407 45.647 18.783 45.682 18.4252 45.7209L17.8886 45.787C17.7019 45.8064 17.5619 45.8297 17.3908 45.8764C17.0681 45.9697 16.7492 46.1175 16.4692 46.3042C16.1892 46.4947 15.952 46.7436 15.847 47.0664V47.0702C15.8353 47.1091 15.7926 47.1286 15.7537 47.1169C15.7226 47.1091 15.7031 47.078 15.7031 47.0469Z" fill="#EDA600"/>
<path d="M45.1957 50.6354C43.9785 51.386 41.5831 51.6932 39.2849 51.386C36.069 50.9582 32.3086 49.8849 29.0032 48.5978C27.8055 48.1311 26.6661 47.6373 25.6356 47.1356C23.4385 46.0662 21.5331 44.7869 20.4326 44.153C19.6587 43.7058 19.0443 43.4569 18.0721 43.5619C17.691 43.6047 17.5666 43.6319 17.2983 43.6203C16.7539 43.5969 17.2361 42.7297 17.2361 42.7297C17.5005 42.1153 18.3832 41.4115 19.2504 41.7226C20.1176 42.0337 21.1597 42.6597 21.1597 42.6597C23.1391 43.2742 23.2285 42.0453 24.3874 42.4536C24.9668 42.6559 25.099 43.348 25.1145 43.7369C25.134 44.1569 25.7717 44.5458 26.1917 44.6041C26.1917 44.6041 27.3 44.8024 28.5055 44.9619H28.5094L28.7077 44.9852C28.7932 44.9968 28.8788 45.0085 28.9643 45.0163C29.2521 45.0513 29.536 45.0785 29.8043 45.1018L29.8782 45.1096H29.8976C29.9015 45.1135 29.9054 45.1135 29.9093 45.1096C29.9093 45.1096 29.9093 45.1096 29.9132 45.1096C30.2048 45.133 30.477 45.1446 30.7104 45.1446C31.0798 45.1446 31.4375 45.133 31.7875 45.1096C32.993 45.0357 34.1052 44.853 35.1823 44.6974C35.4857 44.6508 35.7851 44.608 36.0845 44.5691C36.0884 44.5691 36.0884 44.5691 36.0884 44.5691C37.1578 44.433 38.2077 44.3591 39.3043 44.4835C41.3731 44.7208 43.9124 45.4246 46.3779 47.5556C46.4595 47.7073 46.5334 47.8667 46.5878 48.0261C46.8989 48.9672 46.1018 50.0755 45.1957 50.6354Z" fill="url(#paint8_linear_780_10112)"/>
<path d="M40.1313 45.2912C39.443 45.0424 37.4481 44.7741 36.2971 44.6379C36.2971 44.6379 37.2226 44.0741 38.6964 44.2452C39.6141 44.3541 38.7275 42.748 38.7275 42.748C38.7275 42.748 36.4526 43.9885 35.6788 44.4357C35.6438 44.4552 35.566 44.498 35.4649 44.5485C35.4493 44.5563 35.4338 44.5641 35.4182 44.5718C35.3443 44.6107 35.2627 44.6535 35.181 44.7002C34.9594 44.8129 34.726 44.9335 34.6094 44.9996C34.8699 45.0074 35.1266 45.019 35.3871 45.0307C37.9536 45.159 40.4463 45.5012 41.6129 46.4929C41.6479 46.5201 41.7062 46.5084 41.6946 46.4695C41.5779 46.1118 41.1035 45.6451 40.1313 45.2912Z" fill="#EDA600"/>
<path d="M38.8227 43.8998C38.5583 43.9115 38.4338 43.8843 38.0489 43.8376C37.0806 43.7365 36.4662 43.9854 35.6923 44.4326C35.6573 44.452 35.5795 44.4948 35.4784 44.5454C35.4629 44.5531 35.4473 44.5609 35.4318 44.5687C35.3579 44.6076 35.2762 44.6504 35.1946 44.697C34.9729 44.8098 34.7396 44.9303 34.6229 44.9965C34.5996 45.0081 34.5763 45.0198 34.5646 45.0276C34.5646 45.0276 33.1336 45.0237 32.5347 45.0781C32.4142 45.0898 32.3014 45.0976 32.2003 45.1053C31.6831 45.1442 31.3642 45.1442 30.7226 45.1442C30.4893 45.1442 30.2171 45.1326 29.9254 45.1092C29.9215 45.1092 29.9215 45.1092 29.9215 45.1092H29.8904L29.8165 45.1015C29.5482 45.0781 29.2643 45.0509 28.9766 45.0159L28.9999 45.012H29.0038L29.8049 44.8992L29.9332 44.8798C30.2015 44.8448 30.5554 44.6737 30.7848 44.4443C30.7887 44.4404 30.7926 44.4365 30.7926 44.4326C30.8237 44.4054 30.847 44.3782 30.8703 44.347C30.9481 44.2459 30.9987 44.1332 31.0065 44.0126C31.0065 43.9932 31.0103 43.9737 31.0142 43.9543C31.0415 43.5576 31.1853 42.9199 31.7375 42.7294C32.8964 42.3249 32.9819 43.5499 34.9612 42.9393C34.9612 42.9393 36.0034 42.3133 36.8706 42.0022C37.7378 41.6911 38.6244 42.391 38.8849 43.0054C38.8849 43.0054 38.951 43.1221 39.0055 43.266C39.0988 43.5226 39.1727 43.8843 38.8227 43.8998Z" fill="url(#paint9_linear_780_10112)"/>
<path d="M48.3686 42.0634C48.3686 42.0012 48.3375 41.939 48.283 41.904C48.2286 41.869 48.1664 41.8573 48.1042 41.8807C48.0808 41.8884 47.5792 42.0673 47.3498 42.5534C47.3381 42.5767 47.3303 42.604 47.3303 42.6312L47.2953 43.5761C47.2486 43.6422 47.1787 43.7356 47.1009 43.8445L46.9687 42.6623L46.9998 41.0679C46.9998 41.0135 46.9803 40.9591 46.9414 40.9202C46.9026 40.8813 46.8442 40.8618 46.7937 40.8657C46.782 40.8657 46.6381 40.8774 46.4631 40.9357C46.4476 40.9357 46.4359 40.9357 46.4204 40.9357C46.4087 40.9357 46.397 40.9396 46.3815 40.9396C46.3543 40.9396 46.3309 40.9435 46.3037 40.9474C46.2765 40.9513 46.2454 40.9552 46.2181 40.9629C46.1948 40.9668 46.1754 40.9746 46.152 40.9785C46.1248 40.9863 46.1015 40.994 46.0743 41.0057C46.0548 41.0135 46.0354 41.0213 46.0159 41.0329C45.9926 41.0446 45.9732 41.0563 45.9498 41.0718C45.9304 41.0835 45.9148 41.0952 45.8954 41.1068C45.8759 41.1224 45.8565 41.1379 45.8409 41.1535C45.8254 41.169 45.8059 41.1846 45.7904 41.2001C45.7748 41.2157 45.7593 41.2313 45.7437 41.2468C45.7282 41.2663 45.7087 41.2857 45.6932 41.3051C45.6815 41.3207 45.6698 41.3363 45.6582 41.3479C45.6387 41.3713 45.6193 41.3985 45.6037 41.4218C45.596 41.4296 45.5921 41.4412 45.5843 41.449C45.3471 41.7951 45.1682 42.2112 44.8104 42.3473C44.7482 42.3706 44.6821 42.3901 44.6121 42.4056C43.9627 42.5417 43.115 42.289 42.625 42.8528L42.6289 42.8606C42.6133 42.8762 42.5939 42.8917 42.5783 42.9112C42.4461 43.0706 41.9212 42.7712 41.9212 42.7712L40.9373 43.4595L40.8245 43.3545L40.4823 43.0317L40.0312 43.1406L41.9406 44.9644L43.5972 46.0804C43.6361 46.1116 43.6866 46.1271 43.7372 46.1193L44.1494 46.0766C44.3866 46.2049 44.651 46.271 44.9154 46.271C45.0399 46.271 45.1643 46.2554 45.2849 46.2282C45.6076 46.1543 45.8954 45.9793 46.1093 45.7266L46.1598 45.6682L46.2415 45.6994C46.2609 45.7071 46.2804 45.711 46.2998 45.7149C46.6848 45.7421 47.1359 45.536 47.4042 45.2094L48.3414 44.0311C48.3686 43.9961 48.3841 43.9494 48.3841 43.9067L48.3686 42.0634Z" fill="url(#paint10_linear_780_10112)"/>
<path d="M47.0014 40.9332C47.0014 40.9332 47.0014 40.9993 47.0014 41.0032L46.9936 41.2598C46.7836 41.252 46.5387 41.2909 46.3753 41.3998C46.2003 41.5048 46.1303 41.6759 46.1303 41.9248L46.0837 43.4414L46.0565 44.2036C46.072 44.3397 45.9903 44.503 45.9048 44.5846L45.6676 44.8802L44.7188 46.0701L45.5859 44.8219L45.8076 44.5069C45.8892 44.4019 45.9204 44.3241 45.9087 44.1997L45.8854 43.4375L45.8348 41.9131C45.827 41.7926 45.8348 41.6215 45.8892 41.4776C45.9398 41.3376 46.1537 40.8982 46.8964 40.8398C46.9509 40.8437 46.9936 40.8748 47.0014 40.9332Z" fill="#EDA600"/>
<path d="M48.3775 41.9058V41.933L48.3736 42.1896C48.2336 42.1858 48.0664 42.2208 47.9342 42.2908C47.8019 42.3608 47.7008 42.4696 47.6464 42.6096C47.6231 42.6796 47.6075 42.7613 47.5997 42.8429L47.5725 43.1268C47.5453 43.3174 47.522 43.4962 47.4558 43.7023L47.452 43.7179L47.4403 43.7335L47.2109 44.0057L46.3281 45.3861L47.0631 43.9084L47.067 43.9007L47.2575 43.6246C47.2886 43.469 47.3003 43.2824 47.3081 43.1035V42.8313C47.312 42.7263 47.3236 42.6174 47.3508 42.5124C47.4131 42.2946 47.5686 42.1002 47.7553 41.9835C47.9069 41.898 48.0586 41.8358 48.2258 41.8086C48.2375 41.8047 48.253 41.8008 48.2686 41.8008H48.2725C48.3269 41.8047 48.3697 41.8474 48.3775 41.9058Z" fill="#EDA600"/>
<path d="M42.4609 43.9176C42.4609 43.9176 43.9114 42.4905 45.8596 42.6421C45.8596 42.6421 45.0352 42.6033 45.1791 44.0343C45.1791 44.0343 44.6036 43.4549 43.7986 44.9637C43.7948 44.9676 43.332 43.7349 42.4609 43.9176Z" fill="url(#paint11_linear_780_10112)"/>
<path d="M45.9286 42.9138C45.812 42.8904 45.6564 42.906 45.5592 42.9643C45.4581 43.0226 45.3959 43.1354 45.3726 43.2832C45.3492 43.4348 45.3415 43.6215 45.3259 43.7887L45.3065 44.0454C45.2948 44.1309 45.3026 44.2126 45.2753 44.3254C45.2442 44.4342 45.1704 44.5159 45.1198 44.5742L44.9565 44.7764L44.6259 45.177L43.9688 45.9819L44.5482 45.1186L44.8398 44.687L44.9837 44.4692C45.0342 44.3915 45.077 44.337 45.0848 44.2748C45.0965 44.2204 45.0848 44.127 45.0848 44.0376L45.0809 43.777C45.0809 43.5982 45.0692 43.4348 45.077 43.2443C45.0848 43.0499 45.1704 42.8165 45.3609 42.6765C45.5553 42.5404 45.7614 42.5054 45.987 42.521L45.9286 42.9138Z" fill="#EDA600"/>
<path d="M45.0965 44.2302C45.0071 44.1874 44.8671 44.1602 44.7621 44.1836C44.6493 44.1991 44.5482 44.2691 44.4666 44.3663L43.8755 45.0974L43.7355 45.2724L43.6655 45.0624C43.5255 44.6346 43.2261 44.2108 42.7944 44.0202C42.3589 43.8219 41.8378 43.8997 41.3906 44.0902C41.8223 43.8686 42.3434 43.7364 42.8372 43.9113C43.0783 43.9969 43.2961 44.1486 43.4711 44.3352C43.6461 44.5258 43.7861 44.7396 43.8872 44.9885L43.6772 44.9535L44.2099 44.1758C44.3149 44.028 44.4782 43.888 44.6766 43.8414C44.8749 43.7908 45.0615 43.8025 45.2599 43.8764L45.0965 44.2302Z" fill="#EDA600"/>
<path d="M7.61712 41.917C7.61712 41.8547 7.64823 41.7925 7.70267 41.7575C7.75322 41.7225 7.81933 41.7109 7.88155 41.7342C7.90488 41.742 8.40652 41.9208 8.63595 42.4069C8.64762 42.4303 8.6554 42.4575 8.6554 42.4847L8.69039 43.4297C8.73706 43.4958 8.80705 43.5891 8.88483 43.698L9.01704 42.5158L8.98593 40.9215C8.98593 40.867 9.00538 40.8126 9.04815 40.7737C9.08704 40.7348 9.14537 40.7153 9.19592 40.7192C9.20759 40.7192 9.35147 40.7309 9.52646 40.7892C9.54202 40.7892 9.55368 40.7892 9.56924 40.7892C9.5809 40.7892 9.59257 40.7931 9.60812 40.7931C9.63534 40.7931 9.65868 40.797 9.6859 40.8009C9.71701 40.8048 9.74423 40.8087 9.77145 40.8165C9.79478 40.8203 9.81422 40.8281 9.83756 40.832C9.86478 40.8398 9.88811 40.8476 9.91533 40.8592C9.93477 40.867 9.95422 40.8748 9.97366 40.8865C9.99699 40.8981 10.0164 40.9098 10.0398 40.9253C10.0592 40.937 10.0748 40.9487 10.0942 40.9603C10.1137 40.9759 10.1331 40.9914 10.1525 41.007C10.172 41.0226 10.1875 41.0381 10.2031 41.0537C10.2186 41.0692 10.2342 41.0848 10.2498 41.1003C10.2692 41.1198 10.2848 41.1392 10.3003 41.1587C10.312 41.1742 10.3236 41.1898 10.3353 41.2014C10.3548 41.2248 10.3742 41.252 10.3897 41.2753C10.3975 41.2831 10.4014 41.2948 10.4092 41.3025C10.6464 41.6486 10.8253 42.0647 11.183 42.2008C11.2453 42.2242 11.3114 42.2436 11.3814 42.2592C12.0308 42.3953 12.8785 42.1425 13.3685 42.7064L13.3646 42.7141C13.3801 42.7297 13.3996 42.7452 13.4151 42.7647C13.5474 42.9241 14.0723 42.6247 14.0723 42.6247L15.0523 43.313L15.1612 43.208L15.5034 42.8852L15.9545 42.9941L14.0451 44.8179L12.3885 45.934C12.3496 45.9651 12.2991 45.9806 12.2485 45.9729L11.8363 45.9301C11.5991 46.0584 11.3347 46.1245 11.0703 46.1245C10.9458 46.1245 10.8214 46.109 10.7008 46.0817C10.3781 46.0078 10.0903 45.8329 9.87644 45.5801L9.82589 45.5218L9.74423 45.5529C9.72478 45.5606 9.70534 45.5645 9.6859 45.5684C9.30481 45.5956 8.84983 45.3895 8.58151 45.0629L7.64434 43.8846C7.61712 43.8496 7.60156 43.803 7.60156 43.7602L7.61712 41.917Z" fill="url(#paint12_linear_780_10112)"/>
<path d="M7.60156 41.7651V41.7924L7.60545 42.049C7.74544 42.0451 7.91266 42.0801 8.04487 42.1501C8.17709 42.2201 8.27819 42.329 8.33264 42.469C8.35597 42.539 8.37152 42.6207 8.3793 42.7023L8.40652 42.9862C8.43374 43.1767 8.45707 43.3556 8.52318 43.5617L8.52707 43.5773L8.53874 43.5928L8.76817 43.865L9.6509 45.2455L8.91594 43.7678L8.91205 43.76L8.7215 43.4839C8.69039 43.3284 8.67873 43.1417 8.67095 42.9629V42.6907C8.66706 42.5857 8.6554 42.4768 8.62817 42.3718C8.56596 42.154 8.41041 41.9596 8.21986 41.8429C8.0682 41.7574 7.91655 41.6952 7.74933 41.6679C7.73767 41.664 7.72211 41.6602 7.70656 41.6602H7.70267C7.64823 41.664 7.60545 41.7068 7.60156 41.7651Z" fill="#EDA600"/>
<path d="M13.5315 43.7809C13.5315 43.7809 12.081 42.3538 10.1328 42.5054C10.1328 42.5054 10.9572 42.4665 10.8133 43.8976C10.8133 43.8976 11.3889 43.3182 12.1938 44.827C12.1938 44.8309 12.6605 43.5981 13.5315 43.7809Z" fill="url(#paint13_linear_780_10112)"/>
<path d="M10.0661 42.7673C10.1828 42.7439 10.3384 42.7595 10.4356 42.8178C10.5367 42.8762 10.5989 42.9889 10.6222 43.1367C10.6456 43.2884 10.6533 43.475 10.6689 43.6422L10.6883 43.8989C10.7 43.9844 10.6922 44.0661 10.7194 44.1789C10.7506 44.2877 10.8244 44.3694 10.875 44.4277L11.0383 44.63L11.3689 45.0305L12.026 45.8354L11.4466 44.9722L11.155 44.5405L11.0111 44.3227C10.9605 44.245 10.9178 44.1905 10.91 44.1283C10.8983 44.0739 10.91 43.9805 10.91 43.8911L10.9139 43.6306C10.9139 43.4517 10.9255 43.2884 10.9178 43.0978C10.91 42.9034 10.8244 42.6701 10.6339 42.5301C10.4395 42.394 10.2334 42.359 10.0078 42.3745L10.0661 42.7673Z" fill="#EDA600"/>
<path d="M10.9094 44.0857C10.9988 44.0429 11.1388 44.0157 11.2438 44.039C11.3566 44.0546 11.4577 44.1246 11.5394 44.2218L12.1304 44.9529L12.2704 45.1279L12.3404 44.9179C12.4804 44.4901 12.7799 44.0662 13.2115 43.8757C13.647 43.6774 14.1681 43.7552 14.6153 43.9457C14.1837 43.724 13.6626 43.5918 13.1687 43.7668C12.9276 43.8524 12.7099 44.004 12.5349 44.1907C12.3599 44.3812 12.2199 44.5951 12.1149 44.844L12.3249 44.809L11.7921 44.0312C11.6871 43.8835 11.5238 43.7435 11.3255 43.6968C11.1272 43.6463 10.9405 43.6579 10.7422 43.7318L10.9094 44.0857Z" fill="#EDA600"/>
<path d="M8.99219 40.8062C8.99219 40.8062 8.99219 40.8723 8.99219 40.8762L8.99997 41.1329C9.20995 41.1251 9.45494 41.164 9.61827 41.2729C9.79326 41.3779 9.86325 41.549 9.86325 41.7978L9.90992 43.3144L9.93714 44.0766C9.92158 44.2127 10.0032 44.376 10.0888 44.4577L10.326 44.7532L11.2748 45.9432L10.4077 44.6949L10.186 44.3799C10.1044 44.2749 10.0732 44.1972 10.0849 44.0727L10.1082 43.3105L10.1588 41.7862C10.1666 41.6656 10.1588 41.4945 10.1044 41.3506C10.0538 41.2106 9.83992 40.7712 9.09718 40.7129C9.04274 40.7168 8.99996 40.7518 8.99219 40.8062Z" fill="#EDA600"/>
<path d="M28.0033 20.502H26.1484V22.4657C26.1484 23.3524 26.9028 24.0757 27.8361 24.0757H28.1744C29.1038 24.0757 29.8621 23.3562 29.8621 22.4657V20.502H28.0033Z" fill="#E59600"/>
<path d="M27.995 6.50781C24.7285 6.50781 21.7031 8.93435 21.7031 14.0869C21.7031 18.2244 24.2658 20.6704 26.494 21.4598C27.0267 21.6465 27.54 21.7437 27.995 21.7437C28.4461 21.7437 28.9555 21.6503 29.4844 21.4637C31.7165 20.6782 34.2869 18.2283 34.2869 14.0869C34.2869 8.93824 31.2615 6.50781 27.995 6.50781Z" fill="#FFCA28"/>
<path d="M29.5735 17.9253C28.9746 18.2792 27.0147 18.2792 26.4198 17.9253C26.0776 17.7192 25.7276 18.0342 25.8676 18.3453C26.0076 18.6525 27.077 19.3642 28.0025 19.3642C28.928 19.3642 29.9818 18.6525 30.1218 18.3453C30.2618 18.0342 29.9157 17.7231 29.5735 17.9253Z" fill="#795548"/>
<path d="M28.7175 16.3984C28.6981 16.3906 28.6787 16.3867 28.6592 16.3828H27.3332C27.3137 16.3867 27.2943 16.3906 27.2748 16.3984C27.1543 16.445 27.0882 16.5734 27.1465 16.7056C27.2048 16.8378 27.4693 17.2111 27.9981 17.2111C28.5309 17.2111 28.7953 16.8378 28.8498 16.7056C28.9042 16.5695 28.8381 16.445 28.7175 16.3984Z" fill="#E59600"/>
<path d="M24.8997 14.9136C24.5109 14.9136 24.1609 14.8202 23.9159 14.6686C23.8109 14.6025 23.7526 14.6414 23.7681 14.7658C23.8381 15.2363 24.3203 15.6019 24.8997 15.6019C25.4791 15.6019 25.9574 15.2363 26.0313 14.7658C26.0508 14.6452 25.9886 14.6064 25.8836 14.6686C25.6386 14.8163 25.2886 14.9136 24.8997 14.9136Z" fill="#404040"/>
<path d="M31.0961 14.9136C30.7072 14.9136 30.3572 14.8202 30.1122 14.6686C30.0073 14.6025 29.945 14.6414 29.9645 14.7658C30.0345 15.2363 30.5167 15.6019 31.0961 15.6019C31.6755 15.6019 32.1538 15.2363 32.2277 14.7658C32.2471 14.6452 32.1849 14.6064 32.0799 14.6686C31.8388 14.8163 31.4888 14.9136 31.0961 14.9136Z" fill="#404040"/>
<path d="M26.2815 12.9252C26.1065 12.6918 25.6982 12.3535 24.9088 12.3535C24.1194 12.3535 23.7111 12.6918 23.5361 12.9252C23.4583 13.0263 23.4777 13.1468 23.5322 13.2207C23.5827 13.2868 23.7305 13.349 23.8938 13.2946C24.0572 13.2401 24.376 13.0729 24.9088 13.069C25.4415 13.0729 25.7604 13.2362 25.9237 13.2946C26.087 13.3529 26.2348 13.2868 26.2854 13.2207C26.3398 13.1468 26.3593 13.0263 26.2815 12.9252Z" fill="#6D4C41"/>
<path d="M32.4534 12.9252C32.2784 12.6918 31.8701 12.3535 31.0807 12.3535C30.2912 12.3535 29.8829 12.6918 29.7079 12.9252C29.6302 13.0263 29.6496 13.1468 29.7041 13.2207C29.7546 13.2868 29.9024 13.349 30.0657 13.2946C30.229 13.2401 30.5479 13.0729 31.0807 13.069C31.6134 13.0729 31.9323 13.2362 32.0956 13.2946C32.2589 13.3529 32.4067 13.2868 32.4572 13.2207C32.5117 13.1468 32.5311 13.0263 32.4534 12.9252Z" fill="#6D4C41"/>
<path d="M28.1175 4.47852C20.3284 4.47852 20.3906 11.6804 20.3906 11.7931C20.3906 13.2669 20.4256 14.9313 20.5345 16.6034L21.81 16.5995C21.7983 16.0473 22.1872 12.6175 23.346 12.357C27.5925 11.4043 29.9957 9.14882 29.9957 9.14882C30.6218 10.5138 32.5739 11.8437 33.2738 12.3492C33.8494 12.7653 34.0244 15.8724 34.0166 16.5995H35.4787C35.4787 16.5879 35.4826 16.5801 35.4826 16.5684C35.5876 14.908 35.6226 13.2514 35.6226 11.7892C35.6265 11.6804 35.9065 4.47852 28.1175 4.47852Z" fill="#543930"/>
<path d="M28.1175 4.47852C20.3284 4.47852 20.3906 11.6804 20.3906 11.7931C20.3906 13.2669 20.4256 14.9313 20.5345 16.6034L21.81 16.5995C21.7983 16.0473 22.1872 12.6175 23.346 12.357C27.5925 11.4043 29.9957 9.14882 29.9957 9.14882C30.6218 10.5138 32.5739 11.8437 33.2738 12.3492C33.8494 12.7653 34.0244 15.8724 34.0166 16.5995H35.4787C35.4787 16.5879 35.4826 16.5801 35.4826 16.5684C35.5876 14.908 35.6226 13.2514 35.6226 11.7892C35.6265 11.6804 35.9065 4.47852 28.1175 4.47852Z" fill="url(#paint14_radial_780_10112)"/>
<defs>
<radialGradient id="paint0_radial_780_10112" cx="0" cy="0" r="1" gradientUnits="userSpaceOnUse" gradientTransform="translate(28.0085 15.0309) scale(9.02688 10.7429)">
<stop offset="0.7936" stop-color="#6D4C41" stop-opacity="0"/>
<stop offset="1" stop-color="#6D4C41"/>
</radialGradient>
<linearGradient id="paint1_linear_780_10112" x1="38.2487" y1="27.8383" x2="38.2487" y2="45.2837" gradientUnits="userSpaceOnUse">
<stop stop-color="#FFB300"/>
<stop offset="0.5" stop-color="#FFCA28"/>
</linearGradient>
<linearGradient id="paint2_linear_780_10112" x1="17.5741" y1="27.8383" x2="17.5741" y2="45.2837" gradientUnits="userSpaceOnUse">
<stop stop-color="#FFB300"/>
<stop offset="0.5" stop-color="#FFCA28"/>
</linearGradient>
<linearGradient id="paint3_linear_780_10112" x1="28" y1="21.7993" x2="28" y2="40.6408" gradientUnits="userSpaceOnUse">
<stop stop-color="#651FFF"/>
<stop offset="0.7047" stop-color="#5914F2"/>
<stop offset="1" stop-color="#530EEB"/>
</linearGradient>
<linearGradient id="paint4_linear_780_10112" x1="23.2105" y1="50.3309" x2="23.2105" y2="40.8856" gradientUnits="userSpaceOnUse">
<stop stop-color="#FFB300"/>
<stop offset="0.3773" stop-color="#FFCA28"/>
</linearGradient>
<linearGradient id="paint5_linear_780_10112" x1="13.3935" y1="44.9413" x2="15.3472" y2="47.3525" gradientUnits="userSpaceOnUse">
<stop stop-color="#FFB300"/>
<stop offset="0.5" stop-color="#FFCA28" stop-opacity="0"/>
</linearGradient>
<linearGradient id="paint6_linear_780_10112" x1="17.0391" y1="46.5752" x2="46.6564" y2="46.5752" gradientUnits="userSpaceOnUse">
<stop offset="0.7779" stop-color="#FFCA28"/>
<stop offset="1" stop-color="#FFB300"/>
</linearGradient>
<linearGradient id="paint7_linear_780_10112" x1="21.9787" y1="46.2785" x2="20.792" y2="48.5048" gradientUnits="userSpaceOnUse">
<stop stop-color="#FFB300"/>
<stop offset="0.5" stop-color="#FFCA28" stop-opacity="0"/>
</linearGradient>
<linearGradient id="paint8_linear_780_10112" x1="46.0419" y1="49.3845" x2="18.637" y2="43.5513" gradientUnits="userSpaceOnUse">
<stop stop-color="#FFB300"/>
<stop offset="0.3379" stop-color="#FFCA28"/>
</linearGradient>
<linearGradient id="paint9_linear_780_10112" x1="34.1527" y1="45.1032" x2="33.439" y2="40.4166" gradientUnits="userSpaceOnUse">
<stop offset="0.078" stop-color="#FFB300"/>
<stop offset="0.6927" stop-color="#FFCA28"/>
</linearGradient>
<linearGradient id="paint10_linear_780_10112" x1="47.1783" y1="44.8216" x2="43.1794" y2="42.07" gradientUnits="userSpaceOnUse">
<stop stop-color="#FFB300"/>
<stop offset="0.5" stop-color="#FFCA28"/>
</linearGradient>
<linearGradient id="paint11_linear_780_10112" x1="44.6912" y1="44.1372" x2="44.0584" y2="43.1191" gradientUnits="userSpaceOnUse">
<stop stop-color="#FFB300"/>
<stop offset="1" stop-color="#FFCA28" stop-opacity="0"/>
</linearGradient>
<linearGradient id="paint12_linear_780_10112" x1="8.54406" y1="44.1969" x2="14.2674" y2="41.959" gradientUnits="userSpaceOnUse">
<stop stop-color="#FFB300"/>
<stop offset="0.5" stop-color="#FFCA28"/>
</linearGradient>
<linearGradient id="paint13_linear_780_10112" x1="11.2392" y1="43.8796" x2="12.1059" y2="42.8065" gradientUnits="userSpaceOnUse">
<stop stop-color="#FFB300"/>
<stop offset="1" stop-color="#FFCA28" stop-opacity="0"/>
</linearGradient>
<radialGradient id="paint14_radial_780_10112" cx="0" cy="0" r="1" gradientUnits="userSpaceOnUse" gradientTransform="translate(28.0719 15.7963) scale(9.45534 11.474)">
<stop offset="0.7945" stop-color="#6D4C41" stop-opacity="0"/>
<stop offset="1" stop-color="#6D4C41"/>
</radialGradient>
</defs>
</svg>
