<svg width="1063" height="570" viewBox="0 0 1063 570" fill="none" xmlns="http://www.w3.org/2000/svg">
<path d="M87.637 122.425C235.241 456.052 434.053 553.146 459 569.084H1063V208.584C567 294.584 364.691 213.855 123.305 84.2567L167.956 36.4751L0 0L43.0963 169.563L87.637 122.425Z" fill="#C94D35"/>
<path d="M536.426 569L587.062 496.524C581.52 498.336 575.72 499.235 569.888 499.183C532.873 499.183 508 470.783 508 431.142C508 391.207 535.241 356 588.54 356C636.215 356 667.895 385.583 667.895 431.142C667.895 457.175 660.788 477.292 645.098 500.074L597.722 569H536.426ZM559.821 430.55C559.821 446.824 570.181 461.317 589.119 461.317C607.478 461.317 618.137 447.416 618.137 430.55C618.137 413.111 607.478 399.491 589.119 399.491C571.366 399.491 559.821 413.093 559.821 430.55Z" fill="white"/>
<path d="M642.735 526.898H652.815L660.795 544.436L668.774 526.898H678.854L684.003 559.284H673.125L670.513 542.406L662.895 559.29H658.688L651.076 542.406L648.464 559.29H637.58L642.735 526.898Z" fill="white"/>
<path d="M714.535 526.898H726.143V559.284H714.535V555.734C711.855 559.427 707.647 560.374 704.456 560.374C702.254 560.392 700.074 559.942 698.06 559.054C696.046 558.166 694.244 556.86 692.774 555.224C691.246 553.654 690.051 551.794 689.257 549.754C688.464 547.713 688.089 545.534 688.154 543.347C688.154 537.262 690.548 532.983 693.141 530.374C696.291 527.393 700.479 525.755 704.817 525.808C706.643 525.778 708.455 526.137 710.131 526.862C711.807 527.587 713.308 528.661 714.535 530.012V526.898ZM702.349 537.766C700.907 539.156 700.073 541.059 700.03 543.06C700.037 544.046 700.24 545.021 700.626 545.929C701.012 546.836 701.574 547.658 702.28 548.348C703.702 549.674 705.554 550.446 707.498 550.521C709.468 550.493 711.347 549.684 712.721 548.273C713.426 547.602 713.983 546.792 714.357 545.895C714.732 544.997 714.915 544.032 714.897 543.06C714.908 542.07 714.713 541.089 714.326 540.178C713.939 539.267 713.367 538.446 712.647 537.766C711.271 536.421 709.422 535.668 707.498 535.668C705.573 535.668 703.724 536.421 702.349 537.766Z" fill="white"/>
<path d="M741.141 547.986C739.04 547.553 737.088 546.579 735.481 545.159C734.178 543.857 732.944 541.609 732.944 538.202C732.87 535.297 733.906 532.473 735.842 530.305C738.386 527.621 742.226 526.898 746.87 526.898H763.988V559.284H752.393V549.002H751.452L744.345 559.29H732.158L741.141 547.986ZM752.362 534.434H748.883C747.724 534.434 746.271 534.509 745.255 535.449C744.909 535.816 744.64 536.249 744.465 536.722C744.291 537.195 744.214 537.699 744.239 538.202C744.208 538.713 744.289 539.224 744.478 539.7C744.666 540.176 744.957 540.604 745.33 540.955C746.334 541.631 747.531 541.961 748.74 541.895H752.362V534.434Z" fill="white"/>
</svg>
