<svg xmlns="http://www.w3.org/2000/svg" width="900" height="195" fill="none" viewBox="0 0 900 195"><path fill="#120F18" fill-rule="evenodd" d="M101.197 44.2 7.211 118.281h100.311v31.7L201.5 75.906H101.197zM0 118.281V80.325L107.522 0v37.957H208.72v75.899l-107.522 80.325v-37.95H0z" clip-rule="evenodd"/><path fill="url(#a)" fill-rule="evenodd" d="M101.197 44.2 7.211 118.281h100.311v31.7L201.5 75.906H101.197zM0 118.281V80.325L107.522 0v37.957H208.72v75.899l-107.522 80.325v-37.95H0z" clip-rule="evenodd"/><path fill="#120F18" d="M560.466 37.497h20.026V138.62h59.164V37.497h20.027V138.62h11.065v17.434H560.401V138.62h.065z"/><path fill="#120F18" fill-rule="evenodd" d="M475.596 159.824c35.846 0 71.746-24.685 71.746-62.807s-35.9-62.807-71.746-62.807c-35.847 0-71.746 24.685-71.746 62.807s35.899 62.807 71.746 62.807m52.361-62.807c0 23.47-23.965 43.442-52.361 43.442s-52.362-19.972-52.362-43.442 23.966-43.441 52.362-43.441 52.361 19.972 52.361 43.441" clip-rule="evenodd"/><path fill="#120F18" d="M313.34 37.59v74.85c0 15.335-12.528 27.102-27.021 27.113v19.992c25.203.01 47-20.443 47-47.105V57.538h38.117v98.488h19.979V37.591zm456.135 118.503v-89.47l-64.011 89.47h-19.746V37.535h19.746v89.469l64.011-89.469h19.746v118.558z"/><path fill="#120F18" fill-rule="evenodd" d="M843.447 37.65c-20.209 0-36.593 16.386-36.593 36.6 0 15.633 9.801 28.978 23.593 34.222l-26.976 47.613h21.305l25.63-45.237h29.647v45.237H900V37.65zm1.39 19.947c-9.174 0-16.611 7.456-16.611 16.652s7.437 16.653 16.611 16.653h35.216V57.597z" clip-rule="evenodd"/><defs><radialGradient id="a" cx="0" cy="0" r="1" gradientTransform="matrix(109.2519 29.96235 -134.1839 489.27558 100.691 102.32)" gradientUnits="userSpaceOnUse"><stop stop-color="#EBADE5"/><stop offset="0.465206" stop-color="#E470D5"/><stop offset="1" stop-color="#7B37F2"/></radialGradient></defs></svg>