<svg id="60b0e5a6-e111-4eef-9483-f15f7ae507f7" data-name="Layer 1" xmlns="http://www.w3.org/2000/svg" viewBox="0 0 62.24 80"><defs><style>.\34 2f0ad67-9248-453b-823e-af1c3e5fd6f4{fill:#f9eebe;}.b519a93f-9612-42cb-89b9-f8ec57bd0d3b{fill:#edc722;}.dbf64f2e-92f2-4b9e-b38e-31bbc0445400{fill:#040700;}.f856216f-1963-44c9-aed9-c40aa5343e24{fill:#fff;}</style></defs><title>bem-01</title><rect class="42f0ad67-9248-453b-823e-af1c3e5fd6f4" y="35.37" width="55.12" height="44.63"/><path class="b519a93f-9612-42cb-89b9-f8ec57bd0d3b" d="M956.3.44H938.43L924.76-26.25H910.33v80h35.33c-4.56-8-4.66-,0,956.3.44Z" transform="translate(-910.33 26.25)"/><path class="dbf64f2e-92f2-4b9e-b38e-31bbc0445400" d="M965.67,25.74a14.13,14.13,0,0,0-6.56-1.3h-29c-9.89,0-15.46-7.38-15.46-10.14a23.65,23.65,0,0,0,6.51,1.08s-6.67-3.8-6.67-18.93c0,0,7,11.28,20,11.28s12.64.33,20.89.33,10.31,6.28,10.31,9.35C965.72,19.09,965.67,25.74,965.67,25.74Z" transform="translate(-910.33 26.25)"/><polygon class="f856216f-1963-44c9-aed9-c40aa5343e24" points="38.23 43.44 38.23 42.31 48.86 42.31 48.86 44.74 43.51 44.74 38.23 43.44"/></svg>