<?xml version="1.0" encoding="utf-8"?>
<!-- Generator: Adobe Illustrator 21.1.0, SVG Export Plug-In . SVG Version: 6.00 Build 0)  -->
<svg version="1.1" id="Слой_1" xmlns="http://www.w3.org/2000/svg" xmlns:xlink="http://www.w3.org/1999/xlink" x="0px" y="0px"
	 viewBox="0 0 500 500" style="enable-background:new 0 0 500 500;" xml:space="preserve">
<style type="text/css">
	.st0{fill:#F4511E;}
</style>
<g id="surface1">
	<path class="st0" d="M467.9,220.9L279.1,32.1c-8-8-18.6-12.1-29.1-12.1s-21.1,4-29.1,12.1l-37.3,37.3l46.2,46.2
		c15.4-9,35.4-7.1,48.5,6.1s15.1,33.2,6.1,48.5l45.4,45.4c15.4-9,35.4-7.1,48.5,6.1c15.6,15.6,15.6,40.9,0,56.6s-40.9,15.6-56.6,0
		c-13.2-13.2-15.1-33.2-6.1-48.5l-45.4-45.4c-3.2,1.9-6.6,3.3-10.2,4.2v122.9c17.2,4.5,30,20,30,38.6c0,22.1-17.9,40-40,40
		s-40-17.9-40-40c0-18.6,12.8-34.1,30-38.6V188.6c-6.7-1.7-13-5-18.3-10.3c-13.2-13.2-15.1-33.2-6.1-48.5l-46.3-46.3L32.1,220.9
		C16,237,16,263,32.1,279.1l188.8,188.8c8,8,18.6,12.1,29.1,12.1s21.1-4,29.1-12.1l188.8-188.8C484,263,484,237,467.9,220.9z"/>
</g>
</svg>
