<?xml version="1.0" encoding="utf-8"?>
<!-- Generator: Adobe Illustrator 21.1.0, SVG Export Plug-In . SVG Version: 6.00 Build 0)  -->
<svg version="1.1" id="Capa_1" xmlns="http://www.w3.org/2000/svg" xmlns:xlink="http://www.w3.org/1999/xlink" x="0px" y="0px"
	 viewBox="0 0 512 512" style="enable-background:new 0 0 512 512;" xml:space="preserve">
<style type="text/css">
	.st0{fill:#006DF0;}
	.st1{fill:#DD512A;}
</style>
<path class="st0" d="M492.7,247H284.2c-5,0-8.7,4.2-8.3,9.2l19,213.4c0.4,5,4.8,10.2,9.6,11.6l75.1,20.8c4.8,1.3,12.7,1.3,17.6,0
	l75.2-20.8c4.8-1.3,9.2-6.5,9.6-11.5l19-213.5C501.4,251.2,497.7,247,492.7,247z M456.5,324C456.5,324.1,456.5,324.1,456.5,324
	c-0.1,0.1-0.1,0.1-0.1,0l-58.8,24.1c-0.8,0.3-1.3,1.2-1.1,2.1c0.2,0.9,1,1.5,1.9,1.5H444c2.4,0,4.8,1,6.4,2.8
	c1.6,1.8,2.4,4.2,2.2,6.6l-7.1,67c-0.4,3.3-2.6,6.1-5.7,7.2l-48.6,17.1c-1.8,0.6-3.8,0.6-5.7,0l-48.3-16.7c-3.1-1.1-5.4-3.9-5.7-7.2
	l-3.2-30.4c-0.2-1.6,0.3-3.2,1.4-4.4c1.1-1.2,2.6-1.9,4.2-1.9h13.4c2.9,0,5.3,2.2,5.6,5.1l2,18.7l33.5,11.6l33.6-11.7l4.1-38.7h-95
	c-2.9,0-5.3-2.2-5.6-5l-1.8-16.4c-0.3-2.5,1.1-4.9,3.5-5.8l60.8-25.1c0.7-0.3,1.1-1,0.9-1.7c-0.1-0.7-0.8-1.3-1.5-1.3h-64
	c-1.9,0-3.5-1.5-3.7-3.4l-1.9-17.6c-0.1-1.1,0.2-2.1,0.9-2.9c0.7-0.8,1.7-1.2,2.8-1.2h134c1.1,0,2.1,0.5,2.8,1.3
	c0.7,0.8,1.1,1.9,0.9,2.9L456.5,324z"/>
<path class="st1" d="M20.3,18.3c-2.6,0-4.5,2.1-4.2,4.6l21.5,241.6c0.2,2.5,2.4,5.2,4.9,5.9l91.4,25.4c2.5,0.7,6.5,0.7,9,0
	l91.7-25.4c2.5-0.7,4.7-3.3,4.9-5.9L261,22.9c0.2-2.5-1.7-4.6-4.2-4.6H20.3z M215.1,73.7c-0.2,2.3-0.6,6.2-0.8,8.8l-0.6,6.3
	c-0.2,2.5-0.6,6.2-0.7,8.1c-0.2,1.9-0.3,3.5-0.4,3.5c0,0-2.1,0-4.7,0h-64.8c-2.6,0-4.7,0-4.7,0s-2.1,0-4.7,0H99.6
	c-2.6,0-4.5,2.1-4.2,4.6l2,22.3c0.2,2.5,2.5,4.6,5.1,4.6h31.3c2.6,0,4.7,0,4.7,0s2.1,0,4.7,0H197c2.6,0,6.5,0,8.8,0
	c2.3,0,4,1.9,3.8,4.1c-0.2,2.3-0.6,6.2-0.8,8.8l-6.4,71.8c-0.2,2.5-0.5,5.8-0.6,7.2c-0.1,1.4-2.2,3.2-4.7,3.8l-54,15
	c-2.5,0.7-4.5,1.2-4.5,1.3c0,0-2.1-0.5-4.5-1.2l-54.1-15c-2.5-0.7-4.7-3.3-4.9-5.9l-3.5-39.1c-0.2-2.5,1.7-4.6,4.2-4.6h4.9
	c2.6,0,6.7,0,9.3,0h7.4c2.6,0,4.8,2.1,5.1,4.6l1.4,15.3c0.2,2.5,2.4,5.2,4.9,5.8l25.3,6.8c2.5,0.7,4.5,1.2,4.5,1.2
	c0,0,2-0.5,4.5-1.2l25.3-6.8c2.5-0.7,4.7-3.3,4.9-5.8l2.7-30.6c0.2-2.5-1.7-4.6-4.2-4.6h-28.5c-2.6,0-4.7,0-4.7,0s-2.1,0-4.7,0H74.3
	c-2.6,0-4.8-2.1-5.1-4.6l-6.7-75.5c-0.2-2.5-0.6-6.5-0.8-8.8c-0.2-2.3,1.7-4.1,4.3-4.1h67.8c2.6,0,4.7,0,4.7,0s2.1,0,4.7,0h67.7
	C213.4,69.5,215.3,71.4,215.1,73.7z"/>
</svg>
