<?xml version="1.0" encoding="utf-8"?>
<!-- Generator: Adobe Illustrator 21.1.0, SVG Export Plug-In . SVG Version: 6.00 Build 0)  -->
<svg version="1.1" id="Слой_1" xmlns="http://www.w3.org/2000/svg" xmlns:xlink="http://www.w3.org/1999/xlink" x="0px" y="0px"
	 viewBox="0 0 500 500" style="enable-background:new 0 0 500 500;" xml:space="preserve">
<style type="text/css">
	.st0{fill:#EDE721;}
	.st1{fill:#193556;}
	.st2{fill:#172C45;}
	.st3{fill:#FEFEFE;}
	.st4{fill:#1C3758;}
	.st5{fill:#FCFCFC;}
	.st6{fill:#C2C7CE;}
	.st7{fill:#1E3959;}
</style>
<g id="surface1">
	<path class="st0" d="M270.3,37H35.1C25.7,37,18,44.7,18,54.2v236.5c0,9.5,7.7,17.2,17.1,17.2h235.1c9.4,0,17.1-7.7,17.1-17.2V54.2
		C287.4,44.7,279.7,37,270.3,37z M165.5,244.6c0,25.8-15,37.6-37,37.6c-19.8,0-34.1-13.4-40-25.8l20.1-12.3
		c3.9,6.9,9.8,12.3,18.3,12.3c8.1,0,12.8-3.2,12.8-15.7v-81.1h25.7V244.6z M221.2,282.2c-22.7,0-35.6-11.5-42.8-25.8l19.2-12.9
		c5.3,8.6,11,16.8,23,16.8c10.1,0,15.5-5.1,15.5-12.1c0-8.4-5.5-11.4-16.7-16.3l-6.1-2.6c-17.6-7.5-29.4-17-29.4-37.1
		c0-18.5,14-32.5,35.9-32.5c15.6,0,26.7,5.4,34.8,19.7l-19,12.3c-4.2-7.6-8.7-10.6-15.8-10.6c-7.2,0-11.7,4.6-11.7,10.6
		c0,7.4,4.6,10.4,15,15l6.1,2.6c20.8,9,32.5,18.1,32.5,38.6C261.7,270.1,244.4,282.2,221.2,282.2z"/>
</g>
<path class="st1" d="M378.8,273.3c2.5,0.6,4.4,2.2,6.6,3.5c26.7,15.4,53.1,30.8,79.8,45.9c4.1,2.5,5.7,4.7,5.7,9.7
	c-0.3,32-0.3,64.4,0,96.4c0,2.2-0.6,3.1-2.5,4.1c-25.4,14.8-50.9,29.2-76.3,44c-3.8,2.2-7.9,4.4-11.6,6.9c-0.3,0.3-0.6,0.6-1.3,0.3
	c-0.9-1.3-0.9-2.5-0.9-4.1v-49.3c0-4.1,0-4.1-4.4-4.4h-4.4c-0.9,0-1.9,0-2.5-0.9c0-1.6,1.3-1.3,2.2-1.3h8.2c1.9,0,2.8-0.9,3.1-2.5
	c0.9-5.7,2.5-11,3.5-16.6c0.6-2.8,0-3.5-2.8-3.1c-0.9,0-1.6,0.6-2.5,0.6c-0.9-0.6-0.6-1.6-0.6-2.5c0.3-2.8,0-19.8,0-21.4v-5.3
	c0.3-2.5,0-18.5,0-20.1v-3.1v-72.2C377.8,275.8,377.5,274.2,378.8,273.3z"/>
<path class="st2" d="M378.5,402.1c0.9,0.6-0.9,10.7-2.2,14.4c-0.6,2.8-2.5,3.5-5.7,2.8c-2.5-0.6-3.8-2.2-3.5-4.7
	c0.3-3.8,1.6-7.2,2.2-11c0-0.9,0.6-2.2-0.9-2.2c-1.3,0-3.1-0.6-3.8,1.3c-0.9,4.7-2.5,9.1-2.8,13.8c-0.3,2.8,0.9,5,3.5,6.6
	c0.6,0.3,0.9,0.6,1.3,1.3c2.5,0.9,5,0.3,7.2,0.3c5,0,5,0,5,5v53.7c-5-2.2-9.7-5.3-14.4-8.2c-16.3-9.4-32.7-18.8-49.3-28.3
	c-8.8-5-17.6-10.1-26.4-15.4c-0.9-0.6-1.3-1.3-1.3-2.2v-1.3V327.9c0-1.9,0.6-3.1,2.2-4.1c28-15.7,55.6-31.7,83.2-47.7
	c1.9-1.3,3.8-2.5,6-3.1v97.4C378.8,374.4,378.5,401.8,378.5,402.1z"/>
<path class="st3" d="M399.5,415.3h-6c-0.6,0-1.6-0.3-1.9,0.6s0.3,1.9,1.3,2.2c0.9,0.6,1.9,0.6,3.1,0.6h8.5c1.3,0,1.6,0.3,1.3,1.6
	c-0.6,4.7-0.6,4.7-5.3,4.7c-3.1,0-6,0.3-9.1-0.3c-5.3-0.9-7.2-3.1-6.9-8.8c0.3-2.8,0.9-5.7,1.9-8.2c2.5-6.6,7.5-7.9,13.8-7.9h0.9
	c5.3,0.6,7.5,2.8,7.2,8.2c-0.3,6.3-0.6,6.6-6.6,6.6C401.4,415.3,400.5,415.3,399.5,415.3z M366.5,425c-4.4-1.3-6-3.8-5.3-8.2
	c0.6-5,1.9-9.7,2.8-14.4c0.3-0.9,0.6-1.3,1.6-1.3c6.3,0,5.3-0.9,4.4,5l-1.9,9.4c-0.3,1.3-0.6,2.8,0.9,3.5c1.9,0.6,3.8,0.6,5.7,0.3
	c0.3,0,0.3-0.6,0.3-0.9c0.9-5,2.2-10.4,3.1-15.4c0.3-1.9,1.6-1.6,2.8-1.6c4.1,0,4.1,0,3.5,4.1l-3.8,17.9c-0.3,1.6-0.9,2.2-2.5,2.2
	C374.4,425,370.6,425,366.5,425z M435.3,411.5c3.1-4.4,6-8.5,8.5-12.6c0.9-1.6,2.2-2.5,4.1-2.2h3.5c0.6,0,1.6-0.3,1.9,0.3
	s-0.3,1.3-0.9,1.6c-3.5,4.7-6.9,9.1-10.4,13.8c-2.5,3.5-5.7,6.3-6,11c0,0.9-0.6,1.3-1.6,1.3h-4.7c-0.9,0-1.6-0.3-1.3-1.3
	c2.2-5-0.3-9.4-1.6-13.8c-0.3-1.6,0-1.9,1.3-1.6h1.9C434.1,408.4,434.1,408.4,435.3,411.5L435.3,411.5z"/>
<path class="st3" d="M422.1,400.5h6c3.8,0,4.7,0.9,5.3,4.4c0.3,1.3,0,1.6-1.3,1.6c-3.8,0-7.5,0.3-11.3,0.3c-1.3,0-1.9,0.3-2.2,1.9
	c-0.9,4.7-1.9,9.4-2.8,13.8c-0.3,1.6-0.9,2.2-2.5,2.2c-4.7,0-4.7,0-3.8-4.7c1.3-6,2.5-11.6,3.8-17.6c0.3-1.6,0.9-2.2,2.2-1.9
	C415.5,400.5,422.1,400.5,422.1,400.5z"/>
<path class="st4" d="M397.3,383.2h-10.4v-0.3C390.4,383.2,393.9,383.2,397.3,383.2z"/>
<path class="st3" d="M355.9,418.4h2.2c0.3,0,0.9,0,0.9,0.3c0.3,1.9-0.6,3.5-1.3,5.3c-0.3,1.3-1.3,0.6-2.2,0.6h-15.4
	c-6,0-9.7-3.1-10.1-8.8c-0.3-7.9,1.6-15.1,8.5-19.5c4.4-2.8,9.4-3.1,14.1-1.3c4.7,1.9,7.2,6.6,6.6,11.9
	C358.7,411.2,357.1,414.6,355.9,418.4z M314.1,434.7c-3.8,0-3.8,0-2.8-3.8c0.3-1.6,0.6-2.8,2.8-2.8c1.3,0.3,1.9-0.9,2.5-2.2
	c0.9-1.9,1.3-4.1,1.6-6.3c0.9-3.5,1.6-6.6,2.2-10.1c0.3-1.6,0.9-1.9,2.2-1.9c5.3,0,5.3,0,4.1,5c-0.9,4.7-1.9,9.7-3.1,14.4
	C321.9,433.2,320,434.7,314.1,434.7z"/>
<path class="st5" d="M325.7,400.5c4.1,0,3.8,0,3.1,3.8c-0.3,1.9-1.3,2.5-3.1,2.2c-5.3-0.3-5,0.9-3.5-4.7
	C322.9,399.6,324.8,401.1,325.7,400.5z"/>
<path class="st6" d="M411.1,347.1"/>
<path class="st7" d="M397,409.9h-1.6c-0.6,0-1.9,0.6-2.2-0.3c-0.3-0.9,0.6-1.6,1.6-2.2c1.6-0.9,3.5-1.3,5.3-0.6
	c0.9,0.3,1.6,1.3,1.3,2.5c-0.3,1.3-1.3,0.6-1.9,0.9C398.9,409.9,397.9,409.9,397,409.9z"/>
<path class="st2" d="M344.5,418.4h-2.8c-1.9,0-3.8-1.3-3.8-3.1c-0.6-4.7,0.3-9.1,3.8-12.6c2.2-1.9,5.7-2.5,8.2-0.9
	c1.9,1.3,2.8,3.5,1.9,6.6c-0.6,3.1-1.6,6-2.5,8.8c-0.3,0.9-0.6,1.6-1.6,1.3C347.7,418.4,344.5,418.4,344.5,418.4z"/>
<g>
	<path class="st3" d="M346.7,336.1c-3.5,5-5,11-5,16.6c0,6,1.6,11.9,4.1,17.3c0,0.3,0.3,0.6,0.3,0.6c0,0.3,0,0.3,0.3,0.6v0.3
		c0,0.3,0.3,0.3,0.3,0.6c0.3,0.3,0.3,0.6,0.6,0.9c0,0.3,0.3,0.3,0.3,0.6c0.3,0.3,0.3,0.6,0.6,0.9l0.3,0.3c0.3,0.3,0.6,0.9,0.9,1.3
		v0.3c0.3,0.3,0.6,0.6,0.6,0.9l0.3,0.3c0.3,0.3,0.6,0.6,0.6,0.9l0.3,0.3c0.3,0.3,0.6,0.9,0.9,1.3l0.9,0.9l0.3,0.3l0.9,0.9l0.3,0.3
		c0.3,0.3,0.6,0.6,1.3,0.9h0.3l0.9,0.9l0.3,0.3c0.3,0.3,0.6,0.3,0.9,0.6l0.3,0.3c0.3,0.3,0.6,0.6,0.9,0.6l0.3,0.3
		c0.3,0.3,0.6,0.3,0.9,0.6l0.3,0.3c0.6,0.3,0.9,0.6,1.6,0.9c0,0,0.3,0,0.3,0.3c0.3,0.3,0.6,0.3,0.9,0.6c0.3,0,0.3,0.3,0.6,0.3
		c0.3,0,0.6,0.3,0.6,0.3h0.6c0.3,0.3,0.9,0.3,1.3,0.6h0.3c0.6,0.3,0.9,0.3,1.6,0.6h0.3c0.3,0.3,0.9,0.3,1.3,0.6
		c0.6,0.3,0.9,0.3,1.6,0.6h0.3c0.6,0,0.9,0.3,1.6,0.3c33.6,6.3,43.3-20.4,43.3-20.4c-8.2,10.7-22.6,13.8-36.4,10.4
		c-0.6,0-0.9-0.3-1.6-0.3h-0.3c-0.6,0-0.9-0.3-1.6-0.6h-0.3c-0.3,0-0.9-0.3-1.3-0.6H376c-0.6-0.3-0.9-0.3-1.3-0.6h-0.3
		c-0.3-0.3-0.9-0.3-1.3-0.6h-0.3c-0.3,0-0.6-0.3-0.9-0.6c-0.3,0-0.3-0.3-0.6-0.3c-0.3-0.3-0.6-0.3-0.9-0.6c0,0-0.3,0-0.3-0.3
		c-0.6-0.3-0.9-0.6-1.6-0.9l-0.3-0.3c-0.3-0.3-0.6-0.3-0.9-0.6c0,0-0.3,0-0.3-0.3c-0.3-0.3-0.6-0.6-0.9-0.6l-0.3-0.3
		c-0.3-0.3-0.6-0.3-0.9-0.6l-0.3-0.3c-0.3-0.3-0.6-0.6-1.3-0.9c-0.3-0.3-0.6-0.6-1.3-0.9l-0.3-0.3l-0.9-0.9l-0.3-0.3l-0.9-0.9
		c-0.3-0.3-0.6-0.6-0.9-1.3l-0.3-0.3c-0.3-0.3-0.6-0.6-0.6-0.9l-0.3-0.3c-0.3-0.3-0.6-0.6-0.9-1.3c-7.5-10.7-10.4-25.1-4.4-37.1
		C351.8,328.9,346.7,336.1,346.7,336.1z"/>
	<path class="st3" d="M368.1,327.9c-5,7.2-4.7,17.3-0.9,24.8c0.6,1.3,1.3,2.5,2.2,3.8c0.6,0.9,1.6,2.5,2.5,3.1
		c0.3,0.3,0.6,0.9,1.3,1.3l0.3,0.3c0.3,0.3,0.6,0.6,1.3,0.9c0.3,0.3,0.9,0.6,1.3,1.3l0.3,0.3c0.3,0.3,0.9,0.6,1.3,0.9
		c0.3,0,0.3,0.3,0.6,0.3c0,0,0.3,0,0.3,0.3c0.3,0.3,0.6,0.3,0.9,0.6c0.3,0.3,0.6,0.3,0.9,0.6c0,0,0.3,0,0.3,0.3
		c0.3,0,0.3,0.3,0.6,0.3c0.3,0.3,0.9,0.3,1.3,0.6h0.3c0.3,0,0.6,0.3,0.9,0.3c0.3,0,0.3,0,0.6,0.3c0.3,0,0.6,0.3,0.9,0.3h0.3
		c0.6,0,0.9,0.3,1.6,0.3c26.1,4.4,32-16,32-16c-5.3,7.9-15.7,11.6-27,8.8c-0.6,0-0.9-0.3-1.6-0.3h-0.3c-0.3,0-0.6-0.3-0.9-0.3
		c0,0-0.3,0-0.3-0.3c-0.3,0-0.6-0.3-1.3-0.3h-0.3c-0.3-0.3-0.9-0.3-1.3-0.6c-0.3,0-0.3-0.3-0.6-0.3c0,0-0.3,0-0.3-0.3
		c-0.3,0-0.6-0.3-0.9-0.6h-0.3c-0.3-0.3-0.6-0.3-0.9-0.6c0,0-0.3,0-0.3-0.3c-0.3,0-0.3-0.3-0.6-0.3c-0.6-0.3-0.9-0.6-1.3-0.9
		l-0.3-0.3c-5-3.8-8.8-9.1-10.7-15.4c-1.9-6.3-1.6-13.2,1.9-19.2C371.9,321.7,368.1,327.9,368.1,327.9z"/>
	<path class="st3" d="M386.3,321.4c-2.8,4.4-3.1,10.1-1.3,14.8c2.2,5.3,6.6,9.1,11.9,11.3c0.3,0,0.3,0,0.6,0.3h0.3
		c0.3,0,0.6,0.3,0.9,0.3c14.4,2.8,18.2-7.5,19.2-9.1c-3.5,5-9.1,6.3-16,4.4c-0.6,0-1.3-0.3-1.6-0.6l-1.9-0.9
		c-1.3-0.6-2.5-1.3-3.5-2.2c-6.3-4.7-10.1-14.1-6-21.7C389.1,317.9,386.3,321.4,386.3,321.4z"/>
</g>
</svg>
