<svg height="512pt" viewBox="0 -25 512.00104 512" width="512pt" xmlns="http://www.w3.org/2000/svg"><path d="m348.769531 455h-185.539062c-7.488281 0-10.714844-9.523438-4.75-14.058594 14.546875-11.046875 24.066406-24.847656 30.285156-38.085937 11.359375-24.125 11.75-46.316407 11.75-46.316407h110.96875s.390625 22.191407 11.75 46.316407c6.21875 13.238281 15.738281 27.039062 30.285156 38.085937 5.964844 4.535156 2.738281 14.058594-4.75 14.058594zm0 0" fill="#abffdb"/><path d="m319.304688 393.488281c-7.519532-20.207031-7.820313-36.945312-7.820313-36.945312h-110.96875s-.300781 16.738281-7.816406 36.945312zm0 0" fill="#92e0c0"/><path d="m504.492188 44.328125v269.019531h-496.992188v-269.019531c0-20.347656 16.476562-36.828125 36.8125-36.828125h423.363281c20.335938 0 36.816407 16.480469 36.816407 36.828125zm0 0" fill="#fff"/><path d="m7.5 291.328125h496.992188v22.019531h-496.992188zm0 0" fill="#e4eaf8"/><path d="m303.335938 7.5v186.136719h-295.835938v-149.308594c0-20.339844 16.484375-36.828125 36.824219-36.828125zm0 0" fill="#ffc850"/><path d="m488.207031 375.484375h-464.414062c-9 0-16.292969-7.292969-16.292969-16.292969v-52.5625h497v52.5625c0 9-7.292969 16.292969-16.292969 16.292969zm0 0" fill="#abffdb"/><path d="m267.171875 341.058594c0 6.167968-5 11.171875-11.171875 11.171875s-11.171875-5.003907-11.171875-11.171875c0-6.171875 5-11.175782 11.171875-11.175782s11.171875 5.003907 11.171875 11.175782zm0 0" fill="#ffc850"/><path d="m130.101562 77.199219v30.785156c0 5.097656 5.359376 8.417969 9.921876 6.152344l31.011718-15.394531c5.085938-2.523438 5.085938-9.777344 0-12.300782l-31.011718-15.394531c-4.5625-2.265625-9.921876 1.054687-9.921876 6.152344zm0 0" fill="#fff"/><path d="m381.492188 89.335938h-31.988282c-3.578125 0-6.480468-2.902344-6.480468-6.484376v-31.988281c0-3.582031 2.902343-6.484375 6.480468-6.484375h31.988282c3.582031 0 6.484374 2.902344 6.484374 6.484375v31.988281c0 3.582032-2.902343 6.484376-6.484374 6.484376zm0 0" fill="#ffc850"/><path d="m381.492188 181.0625h-31.988282c-3.578125 0-6.480468-2.902344-6.480468-6.484375v-31.988281c0-3.578125 2.902343-6.484375 6.480468-6.484375h31.988282c3.582031 0 6.484374 2.90625 6.484374 6.484375v31.988281c0 3.582031-2.902343 6.484375-6.484374 6.484375zm0 0" fill="#ffc850"/><path d="m381.492188 272.792969h-31.988282c-3.578125 0-6.480468-2.902344-6.480468-6.484375v-31.988282c0-3.582031 2.902343-6.484374 6.480468-6.484374h31.988282c3.582031 0 6.484374 2.902343 6.484374 6.484374v31.988282c0 3.582031-2.902343 6.484375-6.484374 6.484375zm0 0" fill="#ffc850"/><path d="m83.691406 367.984375h-59.898437c-4.847657 0-8.792969-3.941406-8.792969-8.789063v-314.871093c0-16.167969 13.152344-29.324219 29.320312-29.324219h181.371094c4.140625 0 7.5-3.359375 7.5-7.5s-3.359375-7.5-7.5-7.5h-181.371094c-24.4375 0-44.320312 19.882812-44.320312 44.324219v314.867187c0 13.121094 10.671875 23.792969 23.792969 23.792969h59.898437c4.140625 0 7.5-3.355469 7.5-7.5 0-4.140625-3.359375-7.5-7.5-7.5zm0 0" fill="#474d54"/><path d="m295.835938 31.25v258c0 4.140625 3.355468 7.5 7.5 7.5 4.140624 0 7.5-3.359375 7.5-7.5v-258c0-4.140625-3.359376-7.5-7.5-7.5-4.144532 0-7.5 3.359375-7.5 7.5zm0 0" fill="#abb0b7"/><path d="m467.679688 0h-211.371094c-4.144532 0-7.5 3.359375-7.5 7.5s3.355468 7.5 7.5 7.5h211.371094c16.167968 0 29.320312 13.15625 29.320312 29.324219v63.949219c0 4.140624 3.355469 7.5 7.5 7.5s7.5-3.359376 7.5-7.5v-63.949219c0-24.441407-19.882812-44.324219-44.320312-44.324219zm0 0" fill="#474d54"/><path d="m504.5 131.390625c-4.144531 0-7.5 3.359375-7.5 7.5v220.300781c0 4.851563-3.945312 8.792969-8.792969 8.792969h-373.898437c-4.144532 0-7.5 3.359375-7.5 7.5 0 4.144531 3.355468 7.5 7.5 7.5h74.003906c-4.972656 16.917969-14.828125 37.164063-34.359375 51.988281-5.320313 4.039063-7.382813 10.742188-5.253906 17.078125 2.136719 6.34375 7.839843 10.441407 14.527343 10.441407h185.546876c6.691406 0 12.394531-4.101563 14.527343-10.441407 2.132813-6.335937.070313-13.039062-5.253906-17.078125-19.546875-14.835937-29.398437-35.121094-34.359375-51.988281h164.519531c13.121094 0 23.792969-10.671875 23.792969-23.792969v-220.300781c0-4.140625-3.355469-7.5-7.5-7.5zm-155.519531 315.53125c.097656.074219.128906.121094.132812.121094.027344.105469-.0625.367187-.148437.425781 0 0-.054688.023438-.191406.023438h-185.546876c-.132812 0-.1875-.019532-.1875-.019532-.089843-.0625-.183593-.324218-.152343-.421875 0 0 .027343-.050781.132812-.128906 24.363281-18.488281 35.640625-43.898437 40.855469-63.9375h104.25c5.199219 19.957031 16.464844 45.425781 40.855469 63.9375zm0 0" fill="#474d54"/><g fill="#abb0b7"><path d="m415.703125 50.308594h15.664063c4.144531 0 7.5-3.359375 7.5-7.5 0-4.144532-3.355469-7.5-7.5-7.5h-15.664063c-4.144531 0-7.5 3.355468-7.5 7.5 0 4.140625 3.355469 7.5 7.5 7.5zm0 0"/><path d="m461.976562 62.417969h-46.273437c-4.144531 0-7.5 3.359375-7.5 7.5 0 4.144531 3.355469 7.5 7.5 7.5h46.273437c4.144532 0 7.5-3.355469 7.5-7.5 0-4.140625-3.355468-7.5-7.5-7.5zm0 0"/><path d="m461.976562 80.8125h-46.273437c-4.144531 0-7.5 3.359375-7.5 7.5 0 4.144531 3.355469 7.5 7.5 7.5h46.273437c4.144532 0 7.5-3.355469 7.5-7.5 0-4.140625-3.355468-7.5-7.5-7.5zm0 0"/><path d="m415.703125 142.035156h15.664063c4.144531 0 7.5-3.355468 7.5-7.5 0-4.140625-3.355469-7.5-7.5-7.5h-15.664063c-4.144531 0-7.5 3.359375-7.5 7.5 0 4.144532 3.355469 7.5 7.5 7.5zm0 0"/><path d="m461.976562 154.148438h-46.273437c-4.144531 0-7.5 3.355468-7.5 7.5 0 4.140624 3.355469 7.5 7.5 7.5h46.273437c4.144532 0 7.5-3.359376 7.5-7.5 0-4.144532-3.355468-7.5-7.5-7.5zm0 0"/><path d="m461.976562 172.542969h-46.273437c-4.144531 0-7.5 3.359375-7.5 7.5s3.355469 7.5 7.5 7.5h46.273437c4.144532 0 7.5-3.359375 7.5-7.5s-3.355468-7.5-7.5-7.5zm0 0"/><path d="m415.703125 233.765625h15.664063c4.144531 0 7.5-3.359375 7.5-7.5 0-4.144531-3.355469-7.5-7.5-7.5h-15.664063c-4.144531 0-7.5 3.355469-7.5 7.5 0 4.140625 3.355469 7.5 7.5 7.5zm0 0"/><path d="m461.976562 245.878906h-46.273437c-4.144531 0-7.5 3.355469-7.5 7.5 0 4.140625 3.355469 7.5 7.5 7.5h46.273437c4.144532 0 7.5-3.359375 7.5-7.5 0-4.144531-3.355468-7.5-7.5-7.5zm0 0"/><path d="m461.976562 264.269531h-46.273437c-4.144531 0-7.5 3.359375-7.5 7.5 0 4.144531 3.355469 7.5 7.5 7.5h46.273437c4.144532 0 7.5-3.355469 7.5-7.5 0-4.140625-3.355468-7.5-7.5-7.5zm0 0"/><path d="m250.871094 234.773438h21.105468c4.144532 0 7.5-3.359376 7.5-7.5 0-4.140626-3.355468-7.5-7.5-7.5h-21.105468c-4.140625 0-7.5 3.359374-7.5 7.5 0 4.140624 3.359375 7.5 7.5 7.5zm0 0"/><path d="m271.976562 258.78125h-21.101562c-4.144531 0-7.5 3.359375-7.5 7.5s3.355469 7.5 7.5 7.5h21.101562c4.144532 0 7.5-3.359375 7.5-7.5s-3.355468-7.5-7.5-7.5zm0 0"/><path d="m192.695312 219.773438h-149.953124c-4.144532 0-7.5 3.359374-7.5 7.5 0 4.140624 3.355468 7.5 7.5 7.5h149.953124c4.144532 0 7.5-3.359376 7.5-7.5 0-4.140626-3.355468-7.5-7.5-7.5zm0 0"/><path d="m73.476562 244.296875h-30.734374c-4.144532 0-7.5 3.355469-7.5 7.5 0 4.140625 3.355468 7.5 7.5 7.5h30.734374c4.144532 0 7.5-3.359375 7.5-7.5 0-4.144531-3.355468-7.5-7.5-7.5zm0 0"/><path d="m73.476562 268.789062h-30.734374c-4.144532 0-7.5 3.359376-7.5 7.5 0 4.144532 3.355468 7.5 7.5 7.5h30.734374c4.144532 0 7.5-3.355468 7.5-7.5 0-4.140624-3.355468-7.5-7.5-7.5zm0 0"/></g></svg>