<svg width="171" height="41" viewBox="0 0 171 41" fill="none" xmlns="http://www.w3.org/2000/svg">
<g clip-path="url(#clip0)">
<path fill-rule="evenodd" clip-rule="evenodd" d="M0 9.12758L1.18507 8.64875L0.842365 8.78849L0 9.12758Z" fill="#18181A"/>
<path fill-rule="evenodd" clip-rule="evenodd" d="M0 32.946L1.17157 33.4034L20.9682 40.6826L21.8959 41.0371L22.9618 40.1999L33.0426 32.1164L33.835 31.4574V11.8543V10.4383L33.2293 9.8864L23.2917 1.03167L22.235 0.0712891L20.8258 0.639787L1.18507 8.64875L0.842365 8.78849L0 9.12758V32.946ZM32.431 11.0326L22.0419 1.77551L1.40394 10.1911V31.9314L21.7611 39.2249L32.431 30.669V11.0326Z" fill="#18181A"/>
<path d="M18.3912 29.827V12.5751H30.1843V14.2582H20.2164V20.0088H28.2188V21.692H20.2164V29.827H18.3912ZM39.31 28.1439C38.0464 26.8816 37.3444 24.9179 37.3444 22.5335V12.5751H39.1696V22.5335C39.1696 26.3205 41.1351 28.4244 44.3641 28.4244C47.5932 28.4244 49.5587 26.3205 49.5587 22.5335V12.5751H51.3838V22.5335C51.3838 24.9179 50.6819 26.8816 49.4183 28.1439C48.1548 29.4062 46.4701 30.1075 44.3641 30.1075C42.2582 30.1075 40.5735 29.4062 39.31 28.1439ZM61.4922 29.827V14.2582H55.5957V12.5751H69.3543V14.2582H63.3173V29.827H61.4922ZM75.2508 28.1439C73.9873 26.8816 73.2853 24.9179 73.2853 22.5335V12.5751H75.1104V22.5335C75.1104 26.3205 77.076 28.4244 80.305 28.4244C83.5341 28.4244 85.4996 26.3205 85.4996 22.5335V12.5751H87.3247V22.5335C87.3247 24.9179 86.6228 26.8816 85.3592 28.1439C84.0957 29.4062 82.4109 30.1075 80.305 30.1075C78.1991 30.1075 76.5144 29.4062 75.2508 28.1439ZM92.5193 29.827V12.5751H100.522C102.347 12.5751 103.751 12.9959 104.874 13.9777C105.997 14.9595 106.418 16.0816 106.418 17.6244C106.418 19.8686 105.155 21.692 102.908 22.3933L108.103 29.827H104.032L98.9774 22.814H96.0292V29.827H92.5193ZM96.0292 19.8686H100.241C101.785 19.8686 102.768 19.1673 102.768 17.7647C102.768 16.5023 101.785 15.6608 100.241 15.6608H96.0292V19.8686ZM112.876 14.8192C114.561 13.1361 116.667 12.1543 119.335 12.1543C121.862 12.1543 123.968 12.9959 125.652 14.8192C127.337 16.5023 128.179 18.6062 128.179 21.1309C128.179 23.6556 127.337 25.7595 125.652 27.4426C123.968 29.1257 121.862 30.1075 119.335 30.1075C116.807 30.1075 114.561 29.266 112.876 27.4426C111.192 25.7595 110.349 23.5153 110.349 21.1309C110.349 18.7465 111.192 16.6426 112.876 14.8192ZM119.335 26.8816C120.879 26.8816 122.142 26.3205 123.125 25.3387C124.108 24.2166 124.67 22.9543 124.67 21.2712C124.67 19.5881 124.108 18.3257 123.125 17.2036C122.142 16.0816 120.879 15.6608 119.335 15.6608C117.79 15.6608 116.527 16.2218 115.544 17.2036C114.561 18.3257 114 19.5881 114 21.2712C114 22.9543 114.561 24.2166 115.544 25.3387C116.527 26.3205 117.79 26.8816 119.335 26.8816ZM134.357 14.8192C136.041 13.1361 138.147 12.1543 140.815 12.1543C143.342 12.1543 145.448 12.9959 147.133 14.8192C148.817 16.5023 149.66 18.6062 149.66 21.1309C149.66 23.6556 148.817 25.7595 147.133 27.4426C145.448 29.1257 143.342 30.1075 140.815 30.1075C138.288 30.1075 136.041 29.266 134.357 27.4426C132.672 25.7595 131.83 23.5153 131.83 21.1309C131.83 18.7465 132.672 16.6426 134.357 14.8192ZM140.815 26.8816C142.359 26.8816 143.623 26.3205 144.606 25.3387C145.588 24.2166 146.15 22.9543 146.15 21.2712C146.15 19.5881 145.588 18.3257 144.606 17.2036C143.623 16.0816 142.359 15.6608 140.815 15.6608C139.271 15.6608 138.007 16.2218 137.024 17.2036C136.041 18.3257 135.48 19.5881 135.48 21.2712C135.48 22.9543 136.041 24.2166 137.024 25.3387C138.007 26.3205 139.271 26.8816 140.815 26.8816ZM153.872 29.827V12.5751H157.381L162.436 19.7283L167.49 12.5751H171V29.827H167.49V18.0452L163.559 23.6556H161.593L157.522 18.0452V29.827H153.872Z" fill="#18181A"/>
</g>
<defs>
<clipPath id="clip0">
<rect width="171" height="41" fill="white"/>
</clipPath>
</defs>
</svg>
