<svg width="458" height="110" viewBox="0 0 458 110" fill="none" xmlns="http://www.w3.org/2000/svg">
<g clip-path="url(#clip0)">
<path fill-rule="evenodd" clip-rule="evenodd" d="M0 24.4883L3.17404 23.2036L2.25616 23.5785L0 24.4883Z" fill="white"/>
<path fill-rule="evenodd" clip-rule="evenodd" d="M0 88.3913L3.13788 89.6185L56.1603 109.148L58.6452 110.099L61.5 107.853L88.5 86.1657L90.6223 84.3976V31.804V28.0048L89 26.5242L62.3837 2.76756L59.5534 0.190918L55.7791 1.71616L3.17404 23.2036L2.25616 23.5785L0 24.4883V88.3913ZM86.8621 29.5994L59.0361 4.76321L3.76026 27.3416V85.6691L58.2841 105.237L86.8621 82.2824V29.5994Z" fill="white"/>
<path d="M49.2593 80.0245V33.7388H80.8455V38.2545H54.1476V53.683H75.5811V58.1987H54.1476V80.0245H49.2593ZM105.287 75.5088C101.903 72.1221 100.023 66.8538 100.023 60.4566V33.7388H104.911V60.4566C104.911 70.6168 110.176 76.2614 118.824 76.2614C127.473 76.2614 132.737 70.6168 132.737 60.4566V33.7388H137.625V60.4566C137.625 66.8538 135.745 72.1221 132.361 75.5088C128.977 78.8956 124.465 80.7771 118.824 80.7771C113.184 80.7771 108.671 78.8956 105.287 75.5088ZM164.699 80.0245V38.2545H148.906V33.7388H185.757V38.2545H169.588V80.0245H164.699ZM201.55 75.5088C198.166 72.1221 196.286 66.8538 196.286 60.4566V33.7388H201.174V60.4566C201.174 70.6168 206.438 76.2614 215.087 76.2614C223.735 76.2614 229 70.6168 229 60.4566V33.7388H233.888V60.4566C233.888 66.8538 232.008 72.1221 228.624 75.5088C225.24 78.8956 220.727 80.7771 215.087 80.7771C209.446 80.7771 204.934 78.8956 201.55 75.5088ZM247.801 80.0245V33.7388H269.235C274.123 33.7388 277.883 34.8677 280.891 37.5019C283.9 40.136 285.028 43.1465 285.028 47.2858C285.028 53.3067 281.644 58.1987 275.627 60.0802L289.54 80.0245H278.635L265.098 61.2092H257.202V80.0245H247.801ZM257.202 53.3067H268.483C272.619 53.3067 275.251 51.4252 275.251 47.6621C275.251 44.2754 272.619 42.0175 268.483 42.0175H257.202V53.3067ZM302.325 39.7597C306.837 35.244 312.478 32.6099 319.622 32.6099C326.391 32.6099 332.031 34.8677 336.543 39.7597C341.056 44.2754 343.312 49.92 343.312 56.6935C343.312 63.467 341.056 69.1116 336.543 73.6273C332.031 78.143 326.391 80.7771 319.622 80.7771C312.854 80.7771 306.837 78.5193 302.325 73.6273C297.813 69.1116 295.556 63.0907 295.556 56.6935C295.556 50.2963 297.813 44.6517 302.325 39.7597ZM319.622 72.1221C323.758 72.1221 327.143 70.6168 329.775 67.9827C332.407 64.9722 333.911 61.5855 333.911 57.0698C333.911 52.5541 332.407 49.1674 329.775 46.1569C327.143 43.1465 323.758 42.0175 319.622 42.0175C315.486 42.0175 312.102 43.5228 309.469 46.1569C306.837 49.1674 305.333 52.5541 305.333 57.0698C305.333 61.5855 306.837 64.9722 309.469 67.9827C312.102 70.6168 315.486 72.1221 319.622 72.1221ZM359.857 39.7597C364.369 35.244 370.01 32.6099 377.154 32.6099C383.923 32.6099 389.563 34.8677 394.075 39.7597C398.588 44.2754 400.844 49.92 400.844 56.6935C400.844 63.467 398.588 69.1116 394.075 73.6273C389.563 78.143 383.923 80.7771 377.154 80.7771C370.386 80.7771 364.369 78.5193 359.857 73.6273C355.345 69.1116 353.089 63.0907 353.089 56.6935C353.089 50.2963 355.345 44.6517 359.857 39.7597ZM377.154 72.1221C381.29 72.1221 384.675 70.6168 387.307 67.9827C389.939 64.9722 391.443 61.5855 391.443 57.0698C391.443 52.5541 389.939 49.1674 387.307 46.1569C384.675 43.1465 381.29 42.0175 377.154 42.0175C373.018 42.0175 369.634 43.5228 367.001 46.1569C364.369 49.1674 362.865 52.5541 362.865 57.0698C362.865 61.5855 364.369 64.9722 367.001 67.9827C369.634 70.6168 373.018 72.1221 377.154 72.1221ZM412.125 80.0245V33.7388H421.525L435.062 52.9304L448.599 33.7388H458V80.0245H448.599V48.4147L438.07 63.467H432.806L421.901 48.4147V80.0245H412.125Z" fill="white"/>
</g>
<defs>
<clipPath id="clip0">
<rect width="458" height="110" fill="white"/>
</clipPath>
</defs>
</svg>
