<?xml version="1.0" encoding="utf-8"?>
<!-- Generator: Adobe Illustrator 21.1.0, SVG Export Plug-In . SVG Version: 6.00 Build 0)  -->
<svg version="1.1" id="Layer_1" xmlns="http://www.w3.org/2000/svg" xmlns:xlink="http://www.w3.org/1999/xlink" x="0px" y="0px"
	 viewBox="0 0 512 512" style="enable-background:new 0 0 512 512;" xml:space="preserve">
<style type="text/css">
	.st0{fill:#FFFFFF;}
</style>
<g>
	<circle class="st0" cx="256" cy="256" r="246.5"/>
</g>
<g id="Logo">
	<g id="yellow">
		<path d="M251.2,178.5c21.1,0,41,9.3,55.5,23.9v0.1c0-7,4.7-12.3,11.3-12.3l1.7,0c10.3,0,12.4,9.7,12.4,12.8l0.1,109.1
			c-0.7,7.1,7.4,10.8,11.9,6.2c17.5-18,38.5-92.5-10.9-135.7c-46-40.3-107.7-33.6-140.5-11c-34.9,24.1-57.2,77.3-35.5,127.3
			c23.6,54.6,91.3,70.8,131.5,54.6c20.4-8.2,29.8,19.3,8.6,28.3c-31.9,13.6-120.9,12.2-162.4-59.7c-28.1-48.6-26.6-134.1,47.9-178.4
			c56.9-33.9,132-24.5,177.3,22.8c47.3,49.4,44.6,142-1.6,178c-20.9,16.3-52,0.4-51.8-23.4l-0.2-7.8c-14.6,14.5-33.9,22.9-55,22.9
			c-41.7,0-78.4-36.7-78.4-78.4C172.8,215.6,209.5,178.5,251.2,178.5L251.2,178.5L251.2,178.5L251.2,178.5z M303.7,254.7
			c-1.6-30.5-24.2-48.9-51.6-48.9h-1c-31.6,0-49.1,24.8-49.1,53.1c0,31.6,21.2,51.6,49,51.6c31,0,51.4-22.7,52.8-49.6L303.7,254.7z"
			/>
	</g>
</g>
</svg>
