<svg width="159" height="56" viewBox="0 0 159 56" fill="none" xmlns="http://www.w3.org/2000/svg"><path d="M6.116 48.641c.408.176.732.444.972.804.248.352.372.756.372 1.212 0 .648-.228 1.2-.684 1.656a2.256 2.256 0 01-1.656.684H1.46v-8.4h3.384c.624 0 1.156.224 1.596.672.44.44.66.968.66 1.584 0 .784-.328 1.38-.984 1.788zM4.844 45.39H2.3v2.928h2.544c.392 0 .724-.14.996-.42.28-.288.42-.636.42-1.044 0-.4-.14-.744-.42-1.032a1.318 1.318 0 00-.996-.432zm.276 6.816c.416 0 .768-.148 1.056-.444.296-.304.444-.672.444-1.104a1.51 1.51 0 00-.444-1.092 1.399 1.399 0 00-1.056-.456H2.3v3.096h2.82zm6.457.935c-.904 0-1.656-.3-2.256-.9-.6-.608-.9-1.356-.9-2.244 0-.888.3-1.632.9-2.232.6-.608 1.352-.912 2.256-.912.592 0 1.124.144 1.596.432.472.28.816.66 1.032 1.14l-.648.372c-.16-.36-.42-.644-.78-.852a2.248 2.248 0 00-1.2-.324c-.664 0-1.224.232-1.68.696-.456.456-.684 1.016-.684 1.68 0 .664.228 1.228.684 1.692.456.456 1.016.684 1.68.684.448 0 .848-.104 1.2-.312a2.32 2.32 0 00.828-.864l.66.384c-.248.48-.612.86-1.092 1.14a3.11 3.11 0 01-1.596.42zm6.539-6.288c.888 0 1.604.316 2.148.948.552.624.828 1.364.828 2.22 0 .088-.008.212-.024.372H15.8c.08.608.336 1.092.768 1.452.44.352.98.528 1.62.528.456 0 .848-.092 1.176-.276.336-.192.588-.44.756-.744l.696.408a2.85 2.85 0 01-1.08 1.008c-.456.248-.976.372-1.56.372-.944 0-1.712-.296-2.304-.888-.592-.592-.888-1.344-.888-2.256 0-.896.292-1.644.876-2.244.584-.6 1.336-.9 2.256-.9zm0 .768c-.624 0-1.148.188-1.572.564-.416.368-.664.848-.744 1.44h4.476c-.08-.632-.324-1.124-.732-1.476a2.118 2.118 0 00-1.428-.528zm12.276 4.609h.84v2.375h-.792v-1.608h-4.896v1.608h-.792V52.23h.732c.408-.536.612-1.292.612-2.268v-2.964h4.296v5.232zm-3.948 0H29.6v-4.465h-2.712v2.196c0 .92-.148 1.676-.444 2.268zm10.906-5.233v6h-.792v-5.232h-2.712v2.676c0 1-.192 1.688-.576 2.064-.376.376-.896.54-1.56.492v-.744c.456.048.792-.06 1.008-.324.224-.264.336-.76.336-1.488v-3.444h4.296zm5.997 0v6h-.791v-2.304h-1.032l-1.849 2.304h-1.008l1.896-2.328a1.997 1.997 0 01-1.188-.6c-.312-.328-.468-.732-.468-1.212 0-.544.193-.988.577-1.332.392-.352.867-.528 1.427-.528h2.436zm-2.436 2.952h1.645v-2.184H40.91c-.336 0-.623.1-.864.3a.994.994 0 00-.347.792c0 .328.115.592.347.792.24.2.529.3.864.3zm12.996-2.952v6h-.791V48.21l-2.1 3.408h-.096l-2.1-3.408v4.788h-.792v-6h.912l2.028 3.288 2.027-3.288h.913zm6.839 0h.792v6h-.792v-1.176c-.552.88-1.36 1.32-2.424 1.32a2.993 2.993 0 01-2.196-.912c-.6-.608-.9-1.352-.9-2.232 0-.88.3-1.624.9-2.232a2.993 2.993 0 012.196-.912c1.064 0 1.872.44 2.424 1.32v-1.176zm-4.044 4.692c.456.456 1.016.684 1.68.684.664 0 1.224-.228 1.68-.684a2.324 2.324 0 00.684-1.692c0-.664-.228-1.224-.684-1.68a2.264 2.264 0 00-1.68-.696c-.664 0-1.224.232-1.68.696-.456.456-.684 1.016-.684 1.68 0 .664.228 1.228.684 1.692zm13.761-4.692h.792v6h-8.04v-6h.792v5.232h2.832v-5.232h.792v5.232h2.832v-5.232zm6.835 0h.672v6h-.792v-4.62l-3.576 4.62h-.672v-6h.792v4.62l3.576-4.62zm6.595 0h.792v6h-.792v-2.616h-3.456v2.616h-.792v-6h.792v2.616h3.456v-2.616zm6.715 0h.791v6h-.791v-2.616H87.15v2.616h-.791v-6h.791v2.616h3.457v-2.616zm7.494 5.244c-.608.6-1.352.9-2.232.9-.88 0-1.628-.3-2.244-.9-.608-.608-.912-1.356-.912-2.244 0-.888.304-1.632.912-2.232.616-.608 1.364-.912 2.244-.912.88 0 1.624.304 2.232.912.616.6.924 1.344.924 2.232 0 .888-.308 1.636-.924 2.244zm-3.912-.552c.456.456 1.016.684 1.68.684.664 0 1.224-.228 1.68-.684a2.324 2.324 0 00.684-1.692c0-.664-.228-1.224-.684-1.68a2.264 2.264 0 00-1.68-.696c-.664 0-1.224.232-1.68.696-.456.456-.684 1.016-.684 1.68 0 .664.228 1.228.684 1.692zm7.122-5.652v-.696h3.12v.696h-3.12zm3.408.96h.672v6h-.792v-4.62l-3.576 4.62h-.672v-6h.792v4.62l3.576-4.62zm9.163 2.916c.656.24.984.708.984 1.404 0 .488-.164.892-.492 1.212-.32.312-.784.468-1.392.468h-2.916v-6h2.676c.584 0 1.036.152 1.356.456.32.296.48.68.48 1.152 0 .6-.232 1.036-.696 1.308zm-1.14-2.148h-1.884v1.824h1.884c.696 0 1.044-.312 1.044-.936 0-.28-.092-.496-.276-.648-.176-.16-.432-.24-.768-.24zm.24 4.464c.352 0 .62-.084.804-.252.192-.168.288-.404.288-.708 0-.28-.096-.5-.288-.66-.184-.168-.452-.252-.804-.252h-2.124v1.872h2.124zm5.52-2.952c.56 0 1.032.176 1.416.528.392.344.588.788.588 1.332s-.196.992-.588 1.344c-.384.344-.856.516-1.416.516h-2.436v-6h.792v2.28h1.644zm2.844-2.28h.792v6h-.792v-6zm-2.844 5.232c.336 0 .62-.1.852-.3a.98.98 0 00.36-.792.98.98 0 00-.36-.792 1.26 1.26 0 00-.852-.3h-1.644v2.184h1.644zm12.569-5.232h.792v6h-8.04v-6h.792v5.232h2.832v-5.232h.792v5.232h2.832v-5.232zm6.835 0h.672v6h-.792v-4.62l-3.576 4.62h-.672v-6h.792v4.62l3.576-4.62zm6.163 2.916c.656.24.984.708.984 1.404 0 .488-.164.892-.492 1.212-.32.312-.784.468-1.392.468h-2.916v-6h2.676c.584 0 1.036.152 1.356.456.32.296.48.68.48 1.152 0 .6-.232 1.036-.696 1.308zm-1.14-2.148h-1.884v1.824h1.884c.696 0 1.044-.312 1.044-.936 0-.28-.092-.496-.276-.648-.176-.16-.432-.24-.768-.24zm.24 4.464c.352 0 .62-.084.804-.252.192-.168.288-.404.288-.708 0-.28-.096-.5-.288-.66-.184-.168-.452-.252-.804-.252h-2.124v1.872h2.124zm7.932.768h-1.056l-3-2.892v2.892h-.792v-6h.792v2.652l2.856-2.652h1.08l-3.096 2.88 3.216 3.12zm5.45-6h.672v6h-.792v-4.62l-3.576 4.62h-.672v-6h.792v4.62l3.576-4.62z" fill="#86898E"/><path d="M58.616 29.936c-4.547 0-7.257-2.86-7.257-7.633 0-4.746 2.914-7.965 7.17-7.965 5.071 0 6.995 3.83 6.995 8.076v.333h-11.6l-.03.167c0 3.136 1.837 5.023 4.81 5.023 2.215 0 3.44-.916 4.168-3.136h2.477c-.758 3.414-3.06 5.135-6.733 5.135zm-.145-13.6c-2.478 0-4.227 1.72-4.547 4.468H62.9c-.233-2.775-1.895-4.468-4.43-4.468zm10.639.583c1.31-1.693 2.739-2.498 5.013-2.498 2.069 0 3.497.777 4.284 2.526 1.312-1.694 2.798-2.554 5.1-2.554 3.265 0 4.868 1.832 4.868 4.802v10.269H85.84v-9.242c0-2.082-.32-3.664-3.09-3.664-2.914 0-3.934 1.887-3.934 4.58v8.353H76.28v-9.436c0-1.943-.379-3.47-2.827-3.47-3.41 0-4.197 2.36-4.197 5.135v7.771H66.72v-14.71h2.39v2.138zm24.132-.111c1.166-1.693 3.002-2.415 5.101-2.415 4.226 0 6.966 3.025 6.966 7.688 0 4.746-2.798 7.827-7.112 7.827-2.127 0-4.11-.75-5.1-2.554v2.137h-2.39V9.231h2.535v7.577zm-.087 5.412c0 3.469 1.865 5.634 4.81 5.634 2.826 0 4.721-2.276 4.721-5.773 0-3.47-1.866-5.662-4.722-5.662-3.527 0-4.81 2.886-4.81 5.8zm38.153 7.243h-3.323V26.3h3.323v3.163zm10.988-12.517c-.262-.027-.378-.027-.67-.027-4.197 0-4.926 3.053-4.926 6.355v6.217h-2.535v-14.71h2.419v3.164c1.078-2.47 2.973-3.497 5.712-3.497v2.498zM155.5 29.463h-2.361V27.16c-1.341 1.86-3.06 2.692-5.334 2.692-3.235 0-5.13-1.748-5.13-4.996V14.781h2.536v9.465c0 2.109.641 3.524 3.235 3.524 3.352 0 4.518-2.275 4.518-5.3v-7.688h2.536v14.681z" fill="#444"/><path d="M111.08 14.227l-5.247 15.237h16.002l5.246-15.237H111.08zm6.5 13.932h-2.332v-9.797h-1.691v-2.22h4.023v12.017z" fill="#00AEF0"/><path d="M25.975 29.204c0-.209-.025-.302-.147-.441a76.945 76.945 0 00-1.122-1.231h-3.658a76.945 76.945 0 00-1.122 1.231c-.122.14-.147.232-.147.441v9.546l3.098-.093 3.098.093v-9.546z" fill="#0E3E8A"/><path d="M24.707 27.509v-.93c0-.301-.244-.533-.561-.533h-2.537c-.317 0-.561.232-.561.534v.929h3.659z" fill="#fff"/><path fill-rule="evenodd" clip-rule="evenodd" d="M20.857 26.58c0-.402.33-.715.751-.715h2.537c.422 0 .751.313.751.715v1.11h-4.039v-1.11zm.751-.353c-.212 0-.37.151-.37.353v.748h3.278v-.748c0-.202-.158-.353-.37-.353h-2.538z" fill="#828282"/><path d="M27.122 38.75c0-.325-.268-.58-.61-.58h-7.268c-.342 0-.61.255-.61.58v.488c0 .325.268.581.61.581h7.293c.341 0 .61-.256.61-.58v-.488h-.025z" fill="#fff"/><path fill-rule="evenodd" clip-rule="evenodd" d="M18.443 38.75c0-.425.354-.761.8-.761h7.269c.38 0 .694.244.777.58h.047v.67c0 .425-.354.76-.8.76h-7.293c-.446 0-.8-.335-.8-.76v-.489zm8.513.181h-.024v-.18c0-.225-.183-.4-.42-.4h-7.269c-.237 0-.42.175-.42.4v.487c0 .225.183.4.42.4h7.293c.237 0 .42-.175.42-.4v-.306z" fill="#7A7A7A"/><path d="M18.779 29.762c.146-.163.195-.256.195-.442v-1.625l-2.756-2.253-1.708.232c-.195.023-.268.07-.439.232-.073.07-6.561 7.224-6.561 7.224l2.39 1.858 2.293 1.997c.024 0 6.513-7.154 6.586-7.223z" fill="#4392C8"/><path d="M18.975 27.695l.634-.72a.522.522 0 00-.049-.744l-1.902-1.579a.565.565 0 00-.78.07l-.635.72 2.732 2.253z" fill="#fff"/><path fill-rule="evenodd" clip-rule="evenodd" d="M16.73 24.607c.267-.315.728-.339 1.047-.096l.003.002 1.907 1.583c.3.254.325.69.07.992l-.002.004-.758.86-3.02-2.49.754-.855zm.807.185c-.169-.127-.388-.104-.511.043l-.003.004-.514.583 2.445 2.016.508-.578c.135-.161.111-.375-.027-.492l-1.898-1.576z" fill="#828282"/><path d="M13.096 37.705a.546.546 0 00-.073-.813L7.51 32.34a.613.613 0 00-.853.07l-.342.371a.546.546 0 00.073.813l5.513 4.553a.613.613 0 00.854-.07l.341-.372z" fill="#fff"/><path fill-rule="evenodd" clip-rule="evenodd" d="M7.635 32.204l5.51 4.55c.35.274.384.763.093 1.072l-.34.368a.81.81 0 01-1.123.089l-5.51-4.55a.722.722 0 01-.092-1.072l.338-.369a.81.81 0 011.124-.088zm-.252.27a.417.417 0 00-.58.05l-.002.003-.345.376a.37.37 0 00.052.551l.002.002 5.517 4.556c.163.14.429.126.58-.05l.002-.002.345-.376a.37.37 0 00-.052-.551l-.002-.002-5.517-4.556z" fill="#7A7A7A"/><path d="M13.488 25.418c.219-.07.292-.139.39-.278.073-.14.683-1.138.854-1.417l-1.196-3.275c-.317-.116-1.439-.534-1.61-.604-.17-.07-.292-.07-.487 0-.098.023-9.464 3.136-9.464 3.136l1.097 2.764.927 2.81s9.39-3.112 9.489-3.136z" fill="#299152"/><path d="M14.73 23.723l.927-.302a.52.52 0 00.342-.673l-.805-2.3c-.098-.278-.415-.418-.708-.325l-.926.302 1.17 3.298z" fill="#fff"/><path fill-rule="evenodd" clip-rule="evenodd" d="M14.427 19.951c.385-.122.814.06.947.44l.805 2.3a.7.7 0 01-.46.902l-1.107.36-1.293-3.641 1.108-.36zm.12.344l-.746.243 1.049 2.955.748-.244a.342.342 0 00.221-.444l-.805-2.3c-.062-.177-.267-.273-.466-.21z" fill="#828282"/><path d="M4.39 29.576c.317-.116.488-.441.366-.743l-2.39-6.55a.614.614 0 00-.781-.349l-.488.163c-.317.116-.488.441-.366.743l2.39 6.55a.614.614 0 00.78.348l.489-.162z" fill="#fff"/><path fill-rule="evenodd" clip-rule="evenodd" d="M1.518 21.764a.807.807 0 011.023.454l.001.003 2.391 6.55c.161.403-.072.826-.476.974l-.003.001-.488.163a.807.807 0 01-1.023-.454l-.001-.002-2.39-6.55c-.162-.404.071-.827.476-.975l.002-.001.488-.163zm.668.582a.422.422 0 00-.534-.242h-.003l-.488.163c-.227.085-.334.31-.254.508l.001.003 2.39 6.55a.422.422 0 00.535.242l.002-.002.488-.162c.227-.084.335-.31.254-.508v-.003l-2.391-6.55z" fill="#7A7A7A"/><path d="M11.755 19.008c.22.07.317.07.488 0a122.75 122.75 0 001.61-.58l1.22-3.252c-.171-.279-.757-1.3-.854-1.417-.098-.163-.171-.21-.39-.302-.074-.046-9.416-3.229-9.416-3.229l-.951 2.81L2.34 15.78c-.024-.024 9.318 3.182 9.415 3.228z" fill="#EDB900"/><path d="M13.852 18.427l.927.325c.293.093.61-.046.708-.325l.853-2.253a.52.52 0 00-.341-.673l-.927-.325-1.22 3.251z" fill="#fff"/><path fill-rule="evenodd" clip-rule="evenodd" d="M14.958 14.943l1.104.387a.7.7 0 01.459.902l-.002.004-.853 2.251c-.134.379-.562.56-.947.438l-.002-.001-1.107-.389 1.348-3.592zm.229.466l-1.092 2.91.747.262c.2.062.403-.034.465-.21l.001-.005.853-2.25a.342.342 0 00-.222-.443l-.003-.001-.75-.263z" fill="#828282"/><path d="M1.925 16.802a.614.614 0 00.78-.349L5.17 9.926c.122-.302-.05-.627-.366-.743l-.488-.162a.614.614 0 00-.78.348L1.07 15.896c-.122.302.049.627.366.743l.488.163z" fill="#fff"/><path fill-rule="evenodd" clip-rule="evenodd" d="M4.38 8.85l.488.163.003.001c.404.148.637.572.476.976l-2.465 6.528a.807.807 0 01-1.023.454l-.488-.163h-.003c-.404-.15-.637-.573-.475-.976l2.464-6.529a.807.807 0 011.023-.453zm-.668.583L1.248 15.96c-.08.199.027.423.254.508l.488.162.002.002a.422.422 0 00.535-.243L4.991 9.86c.08-.198-.027-.423-.254-.508l-.488-.162-.002-.001a.422.422 0 00-.535.243z" fill="#7A7A7A"/><path d="M28.268 12.272c-.17.14-.22.21-.268.395-.025.163-.244 1.3-.317 1.603l2.268 2.694c.341 0 1.561.047 1.707.047a.602.602 0 00.464-.163c.073-.07 7.805-5.993 7.805-5.993l-2.024-2.253-1.878-2.345c.048.023-7.684 5.969-7.757 6.015z" fill="#0C0F06"/><path d="M35.342 5.42a.567.567 0 00-.098.813l4.586 5.412c.22.256.585.279.854.093l.39-.302a.567.567 0 00.097-.813l-4.56-5.412a.637.637 0 00-.854-.093l-.415.302z" fill="#fff"/><path fill-rule="evenodd" clip-rule="evenodd" d="M35.645 4.972c.342-.236.823-.212 1.112.125l.002.001 4.564 5.415.002.004a.743.743 0 01-.13 1.06h-.001l-.394.305-.005.003c-.341.236-.822.212-1.112-.125l-4.59-5.416-.002-.004c-.248-.325-.223-.784.131-1.06l.002-.001.421-.307zm.225.292l-.41.299c-.18.142-.203.376-.065.56l4.582 5.408a.44.44 0 00.592.063l.385-.298c.181-.141.206-.378.067-.563l-4.558-5.407a.44.44 0 00-.593-.062z" fill="#7A7A7A"/><path d="M32.365 17.87c-.22-.023-.317 0-.488.093-.146.093-1.146.72-1.439.906l-.488 3.437c.22.232 1.025 1.115 1.147 1.231.122.14.22.186.439.21.097.023 9.951 1.253 9.951 1.253l.318-2.926.487-2.903c0-.047-9.83-1.301-9.927-1.301z" fill="url(#paint0_linear)"/><path d="M30.439 18.846l-.976-.117a.55.55 0 00-.634.465l-.342 2.392c-.048.302.171.558.488.604l.976.116.488-3.46z" fill="#fff"/><path fill-rule="evenodd" clip-rule="evenodd" d="M29.49 18.55l1.163.138-.538 3.82-1.168-.139c-.409-.06-.712-.398-.647-.809l.342-2.394a.74.74 0 01.848-.616zm-.473.67l-.341 2.394c-.031.191.102.363.326.397l.786.093.437-3.101-.79-.095a.362.362 0 00-.418.312z" fill="#828282"/><path d="M42.465 18.032a.602.602 0 00-.683.488l-.951 6.875c-.05.326.195.604.512.65l.512.07a.602.602 0 00.683-.487l.951-6.875c.049-.326-.195-.604-.512-.65l-.512-.07z" fill="#fff"/><path fill-rule="evenodd" clip-rule="evenodd" d="M41.594 18.493a.791.791 0 01.897-.64l.514.07c.412.06.736.424.672.854l-.952 6.878a.791.791 0 01-.897.64l-.515-.07c-.411-.06-.735-.424-.671-.854l.952-6.878zm.375.053l-.95 6.875c-.034.22.13.413.351.446h.001l.51.07a.414.414 0 00.468-.335l.952-6.875c.033-.22-.13-.413-.352-.445l-.511-.07a.414.414 0 00-.469.334z" fill="#7A7A7A"/><path d="M31.342 24.652c-.146-.162-.244-.209-.439-.232-.17-.023-1.366-.14-1.707-.186l-2.659 2.37c.024.324.049 1.486.073 1.625 0 .186.05.279.195.441.074.07 6.83 6.992 6.83 6.992l2.195-2.068 2.318-1.95c.048 0-6.733-6.922-6.806-6.992z" fill="#192B57"/><path d="M29.22 24.234l-.684-.697c-.22-.209-.56-.232-.78-.023l-1.854 1.65c-.22.208-.244.533-.024.742l.683.697 2.658-2.369z" fill="#fff"/><path fill-rule="evenodd" clip-rule="evenodd" d="M27.624 23.383c.304-.287.764-.242 1.046.026l.002.002.815.832-2.936 2.616-.81-.827c-.302-.29-.255-.729.026-.997l.003-.002 1.854-1.65zm.776.28c-.157-.147-.376-.148-.51-.02l-.003.001-1.853 1.65c-.155.148-.156.357-.023.484l.003.002.555.567 2.381-2.122-.55-.562z" fill="#828282"/><path d="M39.025 30.877a.61.61 0 00-.854-.023l-5.342 4.738a.543.543 0 00-.024.813l.342.348a.61.61 0 00.853.023l5.342-4.738a.543.543 0 00.024-.813l-.341-.348z" fill="#fff"/><path fill-rule="evenodd" clip-rule="evenodd" d="M39.165 30.754l.339.345a.718.718 0 01-.033 1.073l-5.339 4.735a.806.806 0 01-1.125-.031l-.338-.345a.718.718 0 01.033-1.073l5.338-4.735a.806.806 0 011.125.031zm-.28.244a.414.414 0 00-.58-.016l-.002.002-5.346 4.742a.367.367 0 00-.017.55l.002.003.346.353c.15.158.415.172.579.016l.002-.002 5.346-4.743a.368.368 0 00.018-.55l-.003-.002-.346-.353z" fill="#7A7A7A"/><path d="M27.513 11.738c-.049.209-.098.302-.244.418-.122.093-1.049.836-1.317 1.045l-3.586-.557a64.412 64.412 0 00-.902-1.394c-.098-.162-.122-.255-.073-.464.024-.093 1.634-9.43 1.634-9.43l3.049.557 3.073.395c0 .023-1.61 9.337-1.634 9.43z" fill="#D21A1C"/><path d="M25.975 13.201l-.17.93a.548.548 0 01-.635.44l-2.488-.394a.555.555 0 01-.463-.627l.17-.93 3.586.582z" fill="#fff"/><path fill-rule="evenodd" clip-rule="evenodd" d="M22.235 12.412l3.96.641-.204 1.107c-.066.404-.46.653-.852.59l-2.488-.394a.738.738 0 01-.62-.834v-.003l.204-1.107zm.309.418l-.138.75a.373.373 0 00.307.418l2.488.395a.359.359 0 00.415-.29v-.004l.139-.75-3.211-.52z" fill="#828282"/><path d="M30.294 2.494c-.05.325-.366.534-.708.465L22.391 1.82c-.342-.046-.561-.348-.488-.673l.073-.488c.049-.325.366-.534.707-.464l7.196 1.138c.341.046.56.348.488.673l-.073.488z" fill="#fff"/><path fill-rule="evenodd" clip-rule="evenodd" d="M22.643.372c-.236-.048-.447.093-.48.313l-.074.494-.001.006c-.05.224.098.425.329.456h.004l7.2 1.14h.004c.236.048.447-.093.48-.313l.074-.494.002-.006c.05-.224-.098-.425-.33-.456h-.004l-7.2-1.14h-.004zm.075-.356c-.445-.088-.866.188-.93.617l-.073.482c-.091.424.198.822.646.884l7.19 1.138c.445.088.866-.188.93-.617l.072-.482c.092-.424-.197-.822-.646-.884L22.718.016z" fill="#7A7A7A"/><path d="M14.853 13.062c.097.186.17.256.341.349.146.07 1.244.557 1.561.673l3.293-1.44c.098-.302.44-1.417.464-1.58a.533.533 0 00-.05-.464 9116.96 9116.96 0 01-4.195-8.663l-2.78 1.3L10.633 4.4s4.17 8.594 4.22 8.663z" fill="#FA5B15"/><path d="M16.73 14.084l.415.86a.535.535 0 00.732.255l2.293-.999a.545.545 0 00.268-.72l-.415-.86-3.293 1.464z" fill="#fff"/><path fill-rule="evenodd" clip-rule="evenodd" d="M20.116 12.38l.496 1.027v.003a.723.723 0 01-.364.955l-2.287.996a.729.729 0 01-.99-.345l-.492-1.02 3.637-1.616zm-3.134 1.792l.337.699.001.003c.08.182.3.252.466.166l.005-.003 2.3-1.002c.164-.07.257-.284.173-.482l-.334-.691-2.948 1.31z" fill="#828282"/><path d="M9.585 4.863c.146.279.512.418.804.279L17 2.238c.293-.139.44-.487.293-.766l-.22-.441c-.145-.28-.511-.418-.804-.28L9.682 3.656c-.293.14-.439.488-.293.767l.196.441z" fill="#fff"/><path fill-rule="evenodd" clip-rule="evenodd" d="M16.185.589c.397-.188.87.005 1.057.36l.002.004.218.44c.198.379-.005.83-.378 1.008h-.003l-6.61 2.904c-.398.187-.87-.005-1.057-.36l-.003-.006-.195-.442c-.195-.378.008-.826.38-1.004l.003-.001L16.185.589zm.716.521a.435.435 0 00-.55-.196l-.002.001-6.585 2.903c-.21.102-.299.345-.206.523l.003.005.195.44c.107.198.362.282.548.194l.002-.002 6.61-2.903c.21-.101.299-.345.206-.522l-.002-.003-.219-.44z" fill="#7A7A7A"/><path d="M27.683 14.27l-.756.58c-.244.186-.293.511-.098.744l1.586 1.881a.565.565 0 00.78.07l.756-.58-2.268-2.695z" fill="#fff"/><path fill-rule="evenodd" clip-rule="evenodd" d="M27.713 14.015l2.506 2.977-.904.694c-.32.244-.782.22-1.048-.097l-1.585-1.882c-.265-.315-.194-.753.127-.998l.904-.694zm-.058.51l-.609.467c-.167.128-.193.34-.068.488l1.585 1.882c.125.148.345.17.514.042l.608-.467-2.03-2.412z" fill="#828282"/><defs><linearGradient id="paint0_linear" x1="35.478" y1="25.464" x2="36.503" y2="17.182" gradientUnits="userSpaceOnUse"><stop offset=".004" stop-color="#8E8C8C"/><stop offset=".34" stop-color="#fff"/><stop offset=".644" stop-color="#FAFAFA"/><stop offset="1" stop-color="#A19F9F"/></linearGradient></defs></svg>