<svg width="281" height="136" viewBox="0 0 281 136" fill="none" xmlns="http://www.w3.org/2000/svg">
<path d="M79.5716 114.987H93.0577V88.5829H79.4296V32.2249H38.5452L0.5 87.4472V114.987H48.9083V132.732H79.5716V114.987ZM49.3341 63.1721V88.5829H32.0151L48.7663 63.1721H49.3341Z" fill="#F4F9FA"/>
<path d="M139.506 135.572C176.558 135.572 184.649 104.34 184.649 81.9108C184.649 59.4811 176.558 29.3857 139.506 29.3857C102.597 29.3857 94.3631 59.4811 94.3631 81.9108C94.3631 104.34 102.597 135.572 139.506 135.572ZM139.506 58.4874C148.024 58.4874 149.727 71.2638 149.727 81.9108C149.727 92.9836 148.024 106.186 139.506 106.186C131.131 106.186 129.285 92.9836 129.285 81.9108C129.285 71.2638 131.131 58.4874 139.506 58.4874Z" fill="#F4F9FA"/>
<path d="M267.014 114.987H280.5V88.5829H266.872V32.2249H225.987L187.942 87.4472V114.987H236.351V132.732H267.014V114.987ZM236.776 63.1721V88.5829H219.457L236.209 63.1721H236.776Z" fill="#F4F9FA"/>
<mask id="mask0" mask-type="alpha" maskUnits="userSpaceOnUse" x="0" y="29" width="281" height="107">
<path d="M79.5716 114.987H93.0577V88.5829H79.4296V32.2249H38.5452L0.5 87.4472V114.987H48.9083V132.732H79.5716V114.987ZM49.3341 63.1721V88.5829H32.0151L48.7663 63.1721H49.3341Z" fill="#E6E8E7"/>
<path d="M139.506 135.572C176.558 135.572 184.649 104.34 184.649 81.9108C184.649 59.4811 176.558 29.3857 139.506 29.3857C102.597 29.3857 94.3631 59.4811 94.3631 81.9108C94.3631 104.34 102.597 135.572 139.506 135.572ZM139.506 58.4874C148.024 58.4874 149.727 71.2638 149.727 81.9108C149.727 92.9836 148.024 106.186 139.506 106.186C131.131 106.186 129.285 92.9836 129.285 81.9108C129.285 71.2638 131.131 58.4874 139.506 58.4874Z" fill="#E6E8E7"/>
<path d="M267.014 114.987H280.5V88.5829H266.872V32.2249H225.987L187.942 87.4472V114.987H236.351V132.732H267.014V114.987ZM236.776 63.1721V88.5829H219.457L236.209 63.1721H236.776Z" fill="#E6E8E7"/>
</mask>
<g mask="url(#mask0)">
<g clip-path="url(#clip0)">
<path fill-rule="evenodd" clip-rule="evenodd" d="M57.5151 4.25888L73.7996 13.6824L54.4485 24.8752V49.0477L73.7996 60.2549L54.4485 71.4636V95.6141L73.7996 106.844L54.4485 118.028V142.193L64.1324 147.812L73.7996 153.407L54.4485 164.618V188.766L64.1324 194.384L73.7996 199.972L54.4485 211.182V235.347L64.1324 240.957L73.7996 246.545L54.4485 257.754V281.919L73.7996 293.15L54.4485 304.327V328.492L64.1324 334.127L73.7996 339.697L54.4485 350.905V375.056L73.7996 386.278L54.4485 397.47V421.654L64.1324 427.272L73.7996 432.859L54.4485 444.037V468.201L73.7996 479.406L54.4485 490.615V514.797L64.1324 520.401L73.7996 525.986L54.4485 537.196V561.361L73.7996 572.567L54.4485 583.744V607.259H55.1457L74.3354 596.151L93.491 607.259H95.3706L114.544 596.151L133.699 607.259H135.58L154.752 596.151L173.923 607.259H175.788L194.975 596.151L214.132 607.259H216.012L235.186 596.151L254.356 607.259H256.236L275.376 596.151L294.565 607.259H296.445L315.601 596.151L334.789 607.259H336.669L355.81 596.151L375.013 607.259H376.877L396.033 596.151L415.222 607.259H417.103L436.243 596.151L455.43 607.259H457.294L476.466 596.151L495.655 607.259H497.518L516.449 596.278V572.127L503.38 564.545L497.113 560.939L516.449 549.73V525.548L497.097 514.325L516.449 503.179V478.982L497.113 467.761L516.449 456.568V432.418L503.38 424.835L497.113 421.197L516.449 410.004V385.823L497.097 374.632L516.449 363.407V339.258L503.38 331.69L497.113 328.051L516.449 316.859V292.678L497.113 281.464L516.449 270.278V246.122L497.097 234.915L516.449 223.706V199.54L503.38 191.948L497.113 188.335L516.449 177.142V152.968L497.097 141.763L516.449 130.554V106.404L507.638 101.281L497.097 95.182L516.449 83.9899V59.8235L503.38 52.2406L497.113 48.6095L516.449 37.4174V13.2586L507.638 8.13597L500.938 4.25888H499.868L516.14 13.6824L496.562 25.0259L476.985 13.6824L493.283 4.25888H492.237L486.409 7.63194L476.466 13.3895L467.43 8.13597L460.719 4.25888H459.649L475.948 13.6824L456.354 25.0259L436.777 13.6824L453.061 4.25888H452.023L446.185 7.63194L436.243 13.3895L427.205 8.13597L420.505 4.25888H419.429L435.741 13.6824L416.13 25.0259L396.569 13.6824L412.84 4.25888H411.798L405.96 7.63194L396.033 13.3895L386.997 8.13597L380.286 4.25888H379.22L395.532 13.6824L375.922 25.0259L356.36 13.6824L372.632 4.25888H371.59L365.753 7.63194L355.81 13.3895L346.789 8.13597L340.078 4.25888H339.009L355.308 13.6824L335.698 25.0259L316.136 13.6824L332.421 4.25888H331.37L328.053 6.16983L315.601 13.3895L312.864 11.7897L299.848 4.25888H298.782L300.346 5.16408L315.082 13.6824L295.489 25.0259L275.927 13.6824L292.199 4.25888H291.157L285.319 7.63194L275.407 13.3895L266.342 8.13597L259.64 4.25888H258.562L274.874 13.6824L255.264 25.0259L235.702 13.6824L251.974 4.25888H250.93L247.621 6.16983L235.186 13.3895L232.431 11.7897L219.415 4.25888H218.37L219.929 5.16408L234.666 13.6824L215.088 25.0259L195.478 13.6824L211.789 4.25888H210.702L210.004 4.66005L194.975 13.3895L180.693 5.11563L179.211 4.25888H178.157L194.441 13.6824L174.864 25.0259L155.269 13.6824L171.568 4.25888H170.51L162.152 9.10237L154.768 13.3895L148.144 9.54131L138.991 4.25888H137.946L154.217 13.6824L134.656 25.0259L115.045 13.6824L131.357 4.25888H130.29L114.544 13.3895L104.602 7.63194L98.7727 4.25888H97.7267L114.024 13.6824L94.4312 25.0259L74.8364 13.6824L91.1354 4.25888H90.0829L84.2448 7.63194L74.3354 13.3895L64.3912 7.63194L58.5736 4.25888H57.5151ZM516.432 14.1357L496.853 25.4655V48.1622L516.432 36.8264V14.1357ZM476.741 14.1357V36.8264L496.32 48.1622V25.4655L476.741 14.1357ZM476.224 14.1357L456.629 25.4655V48.1622L476.224 36.8264V14.1357ZM436.518 14.1357V36.8264L456.111 48.1622V25.4655L436.518 14.1357ZM435.999 14.1357L416.421 25.4655V48.1622L435.999 36.8264V14.1357ZM396.308 14.1357V36.8264L415.886 48.1622V25.4655L396.308 14.1357ZM395.79 14.1357L376.212 25.4655V48.1622L395.79 36.8264V14.1357ZM356.1 14.1357V36.8264L375.678 48.1622V25.4655L356.1 14.1357ZM355.567 14.1357L335.989 25.4655V48.1622L355.567 36.8264V14.1357ZM315.892 14.1357V36.8264L335.453 48.1622V25.4655L315.892 14.1357ZM315.341 14.1357L295.764 25.4655V48.1622L315.341 36.8264V14.1357ZM275.669 14.1357V36.8264L295.245 48.1622V25.4655L275.669 14.1357ZM275.133 14.1357L255.556 25.4655V48.1622L275.133 36.8264V14.1357ZM235.444 14.1357V36.8264L255.021 48.1622V25.4655L235.444 14.1357ZM234.909 14.1357L215.348 25.4655V48.1622L234.909 36.8264V14.1357ZM195.235 14.1357L195.219 36.8264L214.813 48.1622V25.4655L195.235 14.1357ZM194.716 14.1357L175.123 25.4655V48.1622L194.716 36.8264V14.1357ZM155.027 14.1357V36.8264L174.604 48.1622V25.4655L155.027 14.1357ZM154.491 14.1357L134.898 25.4655V48.1622L154.491 36.8264V14.1357ZM114.802 14.1357V36.8264L134.381 48.1622V25.4655L114.802 14.1357ZM114.268 14.1357L94.69 25.4655V48.1622L114.268 36.8264V14.1357ZM74.5776 14.1357V36.8264L94.1708 48.1622V25.4655L74.5776 14.1357ZM74.0433 14.1357L54.4817 25.4655V48.1622L74.0433 36.8264V14.1357ZM456.889 48.6095L463.156 52.2406L476.466 59.9537L486.409 54.1968L496.061 48.6178L476.466 37.2805L456.889 48.6095ZM416.681 48.6095L422.947 52.2406L436.243 59.9537L446.185 54.1968L455.853 48.6178L436.243 37.2805L416.681 48.6095ZM376.456 48.6095L382.723 52.2406L396.033 59.9537L405.96 54.1968L415.628 48.6178L396.033 37.2805L376.456 48.6095ZM336.248 48.6095L342.514 52.2406L355.81 59.9537L365.753 54.1968L375.419 48.6178L355.81 37.2805L336.248 48.6095ZM296.023 48.6095L298.483 50.055L315.601 59.9537L335.211 48.6178L315.601 37.2805L296.023 48.6095ZM255.815 48.6095L262.097 52.2406L275.407 59.9537L285.319 54.1968L294.986 48.6178L275.376 37.2805L255.815 48.6095ZM215.59 48.6095L218.051 50.055L235.199 59.9537L254.762 48.6178L235.186 37.2805L215.59 48.6095ZM175.382 48.6095L189.388 56.7313L194.975 59.9537L198.199 58.0867L214.554 48.6095L194.975 37.2805L175.382 48.6095ZM154.752 37.2805L135.157 48.6178L154.768 59.9537L174.346 48.6178L154.752 37.2805ZM94.9488 48.6095L104.602 54.1968L114.559 59.9537L134.121 48.6095L114.544 37.2805L94.9488 48.6095ZM54.7572 48.6095L64.3912 54.1968L74.3354 59.9537L84.2448 54.1968L93.9128 48.6095L74.3354 37.2805L54.7572 48.6095ZM496.578 48.9175L476.985 60.2549L496.562 71.5907L516.14 60.2549L496.578 48.9175ZM456.354 48.9175L436.777 60.2549L456.354 71.5907L475.965 60.2549L456.354 48.9175ZM416.13 48.9175L396.569 60.2549L416.13 71.5907L435.757 60.2549L416.13 48.9175ZM375.922 48.9175L356.36 60.2549L375.922 71.5907L395.532 60.2549L375.922 48.9175ZM335.714 48.9175L316.136 60.2549L335.698 71.5907L355.308 60.2549L335.714 48.9175ZM295.489 48.9175L275.91 60.2549L295.489 71.5907L315.082 60.2549L300.346 51.7365L295.489 48.9175ZM255.264 48.9175L235.686 60.2549L255.264 71.5907L274.891 60.2549L255.264 48.9175ZM215.088 48.9175L195.478 60.2549L215.088 71.5907L234.666 60.2549L219.929 51.7365L215.088 48.9175ZM174.864 48.9175L155.269 60.2549L174.864 71.5907L194.458 60.2549L174.864 48.9175ZM134.656 48.9175L115.045 60.2549L134.656 71.5907L154.249 60.2549L134.656 48.9175ZM94.4312 48.9175L74.8364 60.2549L94.4312 71.5907L114.024 60.2549L94.4312 48.9175ZM516.432 60.709L496.853 72.0547V94.7264L516.432 83.3989V60.709ZM476.741 60.709V83.3989L496.32 94.7264V72.0547L476.741 60.709ZM476.224 60.709L456.629 72.0547V94.7264L476.224 83.3989V60.709ZM436.518 60.709V83.3989L456.111 94.7264V72.0547L436.518 60.709ZM435.999 60.709L416.421 72.0547V94.7264L435.999 83.3989V60.709ZM396.308 60.709V83.3989L415.886 94.7264V72.0547L396.308 60.709ZM395.79 60.709L376.212 72.0547V94.7264L395.79 83.3989V60.709ZM356.1 60.709V83.3989L375.678 94.7264V72.0547L356.1 60.709ZM355.567 60.709L335.989 72.0547V94.7264L355.567 83.3989V60.709ZM315.341 60.709L295.764 72.0547V94.7264L315.341 83.3989V60.709ZM275.669 60.709V83.3989L295.245 94.7264V72.0547L275.669 60.709ZM275.133 60.709L255.556 72.0547V94.7264L275.133 83.3989V60.709ZM234.909 60.709L215.348 72.0547V94.7264L234.909 83.3989V60.709ZM195.235 60.709L195.219 83.3989L214.813 94.7264V72.0547L195.235 60.709ZM194.716 60.709L175.123 72.0547V94.7264L194.716 83.3989V60.709ZM155.027 60.709V83.3989L174.604 94.7264V72.0547L155.027 60.709ZM114.268 60.709L94.69 72.0547V94.7264L114.268 83.3989V60.709ZM74.5776 60.709V83.3989L94.1708 94.7264V72.0547L74.5776 60.709ZM315.892 60.7256V83.3989L335.453 94.7264V72.0547L315.892 60.7256ZM235.444 60.7256V83.3989L255.021 94.7264V72.0547L235.444 60.7256ZM154.491 60.7256L134.898 72.0547V94.7264L154.491 83.3989V60.7256ZM114.802 60.7256V83.3989L134.381 94.7264V72.0547L114.802 60.7256ZM74.0433 60.7256L54.4817 72.0547V94.7264L74.0433 83.3989V60.7256ZM456.873 95.182L467.43 101.281L476.466 106.534L496.077 95.182L476.466 83.8378L456.873 95.182ZM416.681 95.182L427.205 101.281L436.243 106.534L455.853 95.182L436.243 83.8378L416.681 95.182ZM376.456 95.182L386.997 101.281L396.033 106.534L415.644 95.182L396.033 83.8378L376.456 95.182ZM336.248 95.182L346.789 101.281L355.81 106.534L375.437 95.182L355.81 83.8378L336.248 95.182ZM296.023 95.182L312.864 104.943L315.601 106.534L322.305 102.653L335.211 95.182L315.601 83.8378L296.023 95.182ZM255.815 95.182L266.342 101.281L275.407 106.534L294.986 95.182L275.376 83.8378L255.815 95.182ZM215.59 95.182L232.431 104.943L235.186 106.534L241.888 102.653L254.778 95.182L235.186 83.8378L215.59 95.182ZM175.365 95.182L180.693 98.2674L194.975 106.534L214.554 95.182L194.975 83.8378L175.365 95.182ZM135.157 95.182L148.144 102.693L154.768 106.534L174.346 95.182L154.752 83.8378L135.157 95.182ZM114.544 83.8378L94.9488 95.182L114.559 106.534L126.559 99.5592L134.121 95.182L114.544 83.8378ZM74.3354 83.8378L54.724 95.182L74.3354 106.534L93.9128 95.182L74.3354 83.8378ZM496.578 95.4832L476.985 106.844L496.578 118.18L516.14 106.844L499.364 97.1065L496.578 95.4832ZM456.354 95.4832L436.777 106.844L456.354 118.18L475.965 106.844L459.156 97.1065L456.354 95.4832ZM416.13 95.4832L396.569 106.844L416.13 118.18L435.757 106.844L418.947 97.1065L416.13 95.4832ZM375.922 95.4832L356.36 106.844L375.922 118.18L395.532 106.844L378.723 97.1065L375.922 95.4832ZM335.714 95.4832L316.136 106.844L335.714 118.18L355.308 106.844L338.498 97.1065L335.714 95.4832ZM295.489 95.4832L275.91 106.844L295.489 118.18L315.082 106.844L297.237 96.498L295.489 95.4832ZM255.264 95.4832L235.686 106.844L255.264 118.18L274.891 106.844L258.082 97.1065L255.264 95.4832ZM215.088 95.4832L195.478 106.844L215.088 118.172L234.666 106.844L216.789 96.498L215.088 95.4832ZM174.879 95.4832L155.269 106.844L174.879 118.18L194.458 106.844L183.883 100.729L174.879 95.4832ZM122.607 102.458L115.045 106.844L134.656 118.172L154.249 106.844L141.246 99.3231L134.656 95.4832L122.607 102.458ZM94.4312 95.4832L74.8364 106.844L94.4312 118.18L114.024 106.844L94.4312 95.4832ZM315.341 107.281L295.764 118.619V141.299L315.341 129.964V107.281ZM234.909 107.281L215.348 118.619V141.299L234.909 129.964V107.281ZM516.432 107.29L496.853 118.619V141.299L516.432 129.964V107.29ZM476.741 107.29V129.964L496.32 141.299V118.619L476.741 107.29ZM476.224 107.29L456.629 118.619V141.299L476.224 129.964V107.29ZM436.518 107.29V129.964L456.111 141.299V118.619L436.518 107.29ZM435.999 107.29L416.421 118.619V141.299L435.999 129.964V107.29ZM396.308 107.29V129.964L415.886 141.299V118.619L396.308 107.29ZM395.79 107.29L376.212 118.619V141.299L395.79 129.964V107.29ZM356.1 107.29V129.964L375.678 141.299V118.619L356.1 107.29ZM355.567 107.29L335.989 118.619V141.299L355.567 129.964V107.29ZM315.892 107.29V129.964L335.453 141.299V118.619L315.892 107.29ZM275.669 107.29V129.964L295.245 141.299V118.619L275.669 107.29ZM275.133 107.29L255.556 118.619V141.299L275.133 129.964V107.29ZM235.444 107.29V129.964L255.021 141.299V118.619L235.444 107.29ZM195.235 107.29L195.219 129.964L214.813 141.299V118.619L195.235 107.29ZM194.716 107.29L175.123 118.619V141.299L194.716 129.964V107.29ZM155.027 107.29V129.964L174.604 141.299V118.619L155.027 107.29ZM154.491 107.29L134.898 118.619V141.299L154.491 129.964V107.29ZM114.802 107.29V129.964L134.381 141.299V118.619L114.802 107.29ZM114.268 107.29L94.69 118.619V141.299L114.268 129.964V107.29ZM74.5776 107.29V129.964L94.1708 141.299V118.619L74.5776 107.29ZM74.0433 107.29L54.4817 118.619V141.299L74.0433 129.964V107.29ZM476.466 130.434L456.873 141.763L476.466 153.099L486.409 147.349L496.077 141.763L476.466 130.434ZM436.243 130.434L416.681 141.763L436.243 153.099L446.185 147.349L455.853 141.763L436.243 130.434ZM396.033 130.434L376.456 141.763L396.033 153.099L405.96 147.349L415.644 141.763L396.033 130.434ZM355.81 130.434L336.248 141.763L355.81 153.099L365.753 147.349L375.437 141.763L355.81 130.434ZM315.601 130.434L296.023 141.763L315.601 153.099L335.211 141.763L315.601 130.434ZM275.407 130.434L255.815 141.763L275.407 153.099L285.319 147.349L294.986 141.763L275.407 130.434ZM235.199 130.434L215.59 141.763L235.186 153.099L254.778 141.763L235.199 130.434ZM194.975 130.434L175.365 141.763L194.975 153.099L197.971 151.353L214.554 141.763L194.975 130.434ZM135.157 141.763L142.429 145.977L154.768 153.099L174.346 141.763L154.768 130.434L135.157 141.763ZM94.9488 141.763L104.602 147.349L114.559 153.099L134.121 141.763L114.544 130.434L94.9488 141.763ZM54.724 141.763L64.3912 147.349L74.3354 153.099L84.2448 147.349L93.9128 141.763L74.3354 130.434L54.724 141.763ZM486.652 147.812L476.985 153.407L496.562 164.736L516.14 153.407L513.825 152.035L496.562 142.062L486.652 147.812ZM446.443 147.812L436.777 153.407L456.354 164.736L475.948 153.407L473.617 152.035L456.354 142.062L446.443 147.812ZM406.236 147.812L396.569 153.407L416.13 164.736L435.741 153.407L433.392 152.035L416.13 142.062L406.236 147.812ZM366.011 147.812L356.36 153.407L375.922 164.736L395.532 153.407L393.168 152.035L375.922 142.062L366.011 147.812ZM332.619 143.866L316.136 153.407L335.698 164.736L355.308 153.407L352.96 152.035L335.698 142.062L332.619 143.866ZM285.578 147.812L275.927 153.407L295.489 164.736L315.082 153.407L295.489 142.062L285.578 147.812ZM252.171 143.866L235.702 153.407L255.264 164.736L274.874 153.407L272.527 152.035L255.264 142.062L252.171 143.866ZM205.145 147.812L195.478 153.407L215.088 164.736L234.666 153.407L215.088 142.062L205.145 147.812ZM158.233 151.693L155.269 153.407L174.864 164.736L194.441 153.407L188.385 149.882L174.864 142.062L158.233 151.693ZM134.656 142.062L115.045 153.407L134.656 164.736L154.217 153.407L145.489 148.349L134.656 142.062ZM77.7995 151.693L74.8364 153.407L94.4312 164.736L114.024 153.407L104.357 147.812L94.4312 142.062L77.7995 151.693ZM315.341 153.846L295.764 165.206V187.88L315.341 176.552V153.846ZM234.909 153.846L215.348 165.206V187.88L234.909 176.552V153.846ZM516.432 153.854L496.853 165.206V187.88L516.432 176.552V153.854ZM476.741 153.854V176.552L496.32 187.88V165.206L476.741 153.854ZM476.224 153.854L456.629 165.206V187.88L476.224 176.552V153.854ZM436.518 153.854V176.552L456.111 187.88V165.206L436.518 153.854ZM435.999 153.854L416.421 165.206V187.88L435.999 176.552V153.854ZM396.308 153.854V176.552L415.886 187.88V165.206L396.308 153.854ZM395.79 153.854L376.212 165.206V187.88L395.79 176.552V153.854ZM356.1 153.854V176.552L375.678 187.88V165.206L356.1 153.854ZM355.567 153.854L335.989 165.206V187.88L355.567 176.552V153.854ZM315.892 153.854V176.552L335.453 187.88V165.206L315.892 153.854ZM275.669 153.854V176.552L295.245 187.88V165.206L275.669 153.854ZM275.133 153.854L255.556 165.206V187.88L275.133 176.552V153.854ZM235.444 153.854V176.552L255.021 187.88V165.206L235.444 153.854ZM195.235 153.854L195.219 176.552L214.813 187.88V165.206L195.235 153.854ZM194.716 153.854L175.123 165.206V187.88L194.716 176.552V153.854ZM155.027 153.854V176.552L174.604 187.888V165.206L155.027 153.854ZM154.491 153.854L134.898 165.206V187.888L154.491 176.552V153.854ZM114.802 153.854V176.552L134.381 187.88V165.206L114.802 153.854ZM114.268 153.854L94.69 165.206V187.88L114.268 176.552V153.854ZM74.5776 153.854V176.552L94.1708 187.88V165.206L74.5776 153.854ZM74.0433 153.854L54.4817 165.206V187.88L74.0433 176.552V153.854ZM255.815 188.335L262.097 191.948L275.407 199.671L285.319 193.938L294.986 188.335L275.376 176.99L255.815 188.335ZM175.382 188.335L189.388 196.448L194.975 199.671L198.199 197.812L214.554 188.335L194.975 176.99L175.382 188.335ZM94.9488 188.335L104.602 193.938L114.559 199.671L134.121 188.335L114.544 176.99L94.9488 188.335ZM54.7572 188.335L64.3912 193.938L74.3354 199.671L84.2448 193.938L93.9128 188.335L74.3354 176.99L54.7572 188.335ZM456.889 188.335L463.156 191.948L476.466 199.671L486.409 193.938L496.061 188.335L476.466 176.998L456.889 188.335ZM416.681 188.335L422.947 191.948L436.243 199.671L446.185 193.938L455.853 188.335L436.243 176.998L416.681 188.335ZM376.456 188.335L382.723 191.948L396.033 199.671L405.96 193.938L415.628 188.335L396.033 176.998L376.456 188.335ZM336.248 188.335L342.514 191.948L355.81 199.671L365.753 193.938L375.419 188.335L355.81 176.998L336.248 188.335ZM296.023 188.335L298.483 189.765L315.601 199.671L335.211 188.335L315.601 176.998L296.023 188.335ZM215.59 188.335L218.051 189.765L235.199 199.671L254.762 188.335L235.186 176.998L215.59 188.335ZM154.752 176.998L135.157 188.335L154.768 199.671L174.346 188.335L154.752 176.998ZM486.652 194.384L476.985 199.972L496.578 211.316L516.14 199.972L496.578 188.635L486.652 194.384ZM446.443 194.384L436.777 199.972L456.354 211.316L475.965 199.972L456.354 188.635L446.443 194.384ZM406.236 194.384L396.569 199.972L416.13 211.316L435.757 199.972L416.13 188.635L406.236 194.384ZM366.011 194.384L356.36 199.972L375.922 211.316L395.532 199.972L375.922 188.635L366.011 194.384ZM332.846 190.316L316.136 199.972L335.714 211.316L355.308 199.972L335.714 188.635L332.846 190.316ZM285.578 194.384L275.91 199.972L295.489 211.316L315.082 199.972L300.346 191.454L295.489 188.635L285.578 194.384ZM252.413 190.316L235.686 199.972L255.264 211.316L274.891 199.972L255.264 188.635L252.413 190.316ZM205.145 194.384L195.478 199.972L215.088 211.316L234.666 199.972L219.929 191.454L215.088 188.635L205.145 194.384ZM158.039 198.389L155.269 199.972L174.879 211.316L194.458 199.972L174.879 188.635L158.039 198.389ZM134.656 188.635L115.045 199.972L134.656 211.316L154.249 199.972L134.656 188.635ZM77.6056 198.389L74.8364 199.972L94.4312 211.316L114.024 199.972L104.357 194.384L94.4312 188.635L77.6056 198.389ZM516.432 200.435L496.853 211.771V234.452L516.432 223.116V200.435ZM476.741 200.435V223.116L496.32 234.452V211.771L476.741 200.435ZM476.224 200.435L456.629 211.771V234.452L476.224 223.116V200.435ZM436.518 200.435V223.116L456.111 234.452V211.771L436.518 200.435ZM435.999 200.435L416.421 211.771V234.452L435.999 223.116V200.435ZM396.308 200.435V223.116L415.886 234.452V211.771L396.308 200.435ZM395.79 200.435L376.212 211.771V234.452L395.79 223.116V200.435ZM356.1 200.435V223.116L375.678 234.452V211.771L356.1 200.435ZM355.567 200.435L335.989 211.771V234.452L355.567 223.116V200.435ZM315.341 200.435L295.764 211.771V234.452L315.341 223.116V200.435ZM275.669 200.435V223.116L295.245 234.452V211.771L275.669 200.435ZM275.133 200.435L255.556 211.771V234.452L275.133 223.116V200.435ZM234.909 200.435L215.348 211.771V234.452L234.909 223.116V200.435ZM195.235 200.435L195.219 223.116L214.813 234.452V211.771L195.235 200.435ZM194.716 200.435L175.123 211.771V234.452L194.716 223.116V200.435ZM155.027 200.435V223.116L174.604 234.452V211.771L155.027 200.435ZM114.268 200.435L94.69 211.771V234.452L114.268 223.116V200.435ZM74.5776 200.435V223.116L94.1708 234.452V211.771L74.5776 200.435ZM315.892 200.444V223.116L335.453 234.452V211.771L315.892 200.444ZM235.444 200.444V223.116L255.021 234.452V211.771L235.444 200.444ZM154.491 200.444L134.898 211.771V234.452L154.491 223.116V200.444ZM114.802 200.444V223.116L134.381 234.452V211.771L114.802 200.444ZM74.0433 200.444L54.4817 211.771V234.452L74.0433 223.116V200.444ZM275.376 223.554L255.815 234.915L275.407 246.252L285.319 240.503L294.986 234.915L275.376 223.554ZM194.975 223.554L175.365 234.915L194.975 246.252L197.971 244.505L214.554 234.915L194.975 223.554ZM94.9488 234.915L104.602 240.503L114.559 246.252L134.121 234.915L114.544 223.554L94.9488 234.915ZM54.724 234.915L64.3912 240.503L74.3354 246.252L84.2448 240.503L93.9128 234.915L74.3354 223.554L54.724 234.915ZM476.466 223.579L456.873 234.915L476.466 246.252L486.409 240.503L496.077 234.915L476.466 223.579ZM436.243 223.579L416.681 234.915L436.243 246.252L446.185 240.503L455.853 234.915L436.243 223.579ZM396.033 223.579L376.456 234.915L396.033 246.252L405.96 240.503L415.644 234.915L396.033 223.579ZM355.81 223.579L336.248 234.915L355.81 246.252L365.753 240.503L375.437 234.915L355.81 223.579ZM315.601 223.579L296.023 234.915L315.601 246.252L335.211 234.915L315.601 223.579ZM235.186 223.579L215.59 234.915L235.186 246.252L254.778 234.915L235.186 223.579ZM135.157 234.915L142.429 239.114L154.768 246.252L174.346 234.915L154.752 223.579L135.157 234.915ZM486.652 240.957L476.985 246.545L496.578 257.89L516.14 246.545L496.578 235.216L486.652 240.957ZM446.443 240.957L436.777 246.545L456.354 257.89L475.948 246.545L456.354 235.216L446.443 240.957ZM406.236 240.957L396.569 246.545L416.13 257.89L435.741 246.545L416.13 235.216L406.236 240.957ZM366.011 240.957L356.36 246.545L375.922 257.89L395.532 246.545L375.922 235.216L366.011 240.957ZM332.619 237.002L316.136 246.545L335.714 257.89L355.308 246.545L335.714 235.216L332.619 237.002ZM285.578 240.957L275.927 246.545L295.489 257.89L315.082 246.536L300.298 237.993L295.489 235.216L285.578 240.957ZM252.171 237.002L235.702 246.545L255.264 257.89L274.874 246.545L255.264 235.216L252.171 237.002ZM205.145 240.957L195.478 246.545L215.088 257.89L234.666 246.536L219.865 237.993L215.088 235.216L205.145 240.957ZM158.233 244.855L155.269 246.536L174.879 257.89L194.441 246.545L174.879 235.216L158.233 244.855ZM134.656 235.216L115.045 246.545L134.656 257.89L154.217 246.545L134.656 235.216ZM77.7995 244.855L74.8364 246.545L94.4312 257.89L114.024 246.545L104.357 240.957L94.4312 235.216L77.7995 244.855ZM516.432 247.007L496.853 258.343V281.034L516.432 269.672V247.007ZM476.741 247.007V269.672L496.32 281.034V258.343L476.741 247.007ZM476.224 247.007L456.629 258.343V281.034L476.224 269.672V247.007ZM436.518 247.007V269.672L456.111 281.034V258.343L436.518 247.007ZM435.999 247.007L416.421 258.343V281.034L435.999 269.672V247.007ZM396.308 247.007V269.672L415.886 281.034V258.343L396.308 247.007ZM395.79 247.007L376.212 258.343V281.034L395.79 269.672V247.007ZM356.1 247.007V269.672L375.678 281.034V258.343L356.1 247.007ZM355.567 247.007L335.989 258.343V281.034L355.567 269.672V247.007ZM315.892 247.007V269.672L335.453 281.034V258.343L315.892 247.007ZM315.341 247.007L295.764 258.343V281.034L315.341 269.672V247.007ZM275.669 247.007V269.672L295.245 281.034V258.343L275.669 247.007ZM275.133 247.007L255.556 258.343V281.034L275.133 269.672V247.007ZM235.444 247.007V269.672L255.021 281.034V258.343L235.444 247.007ZM234.909 247.007L215.348 258.343V281.034L234.909 269.672V247.007ZM195.235 247.007L195.219 269.672L214.813 281.034V258.343L195.235 247.007ZM194.716 247.007L175.123 258.343V281.034L194.716 269.672V247.007ZM155.027 247.007V269.672L174.604 281.034V258.343L155.027 247.007ZM154.491 247.007L134.898 258.343V281.034L154.491 269.672V247.007ZM114.802 247.007V269.672L134.381 281.034V258.343L114.802 247.007ZM114.268 247.007L94.69 258.343V281.034L114.268 269.672V247.007ZM74.5776 247.007V269.672L94.1708 281.034V258.343L74.5776 247.007ZM74.0433 247.007L54.4817 258.343V281.034L74.0433 269.672V247.007ZM476.466 270.143L456.889 281.464L476.466 292.808L496.061 281.464L476.466 270.143ZM436.243 270.143L416.681 281.464L436.243 292.808L455.853 281.464L436.243 270.143ZM396.033 270.143L376.456 281.464L396.033 292.808L415.628 281.464L396.033 270.143ZM355.81 270.143L336.248 281.464L355.81 292.808L375.419 281.464L355.81 270.143ZM315.601 270.143L296.023 281.464L315.601 292.808L335.211 281.464L315.601 270.143ZM275.407 270.143L255.815 281.464L275.407 292.808L294.986 281.464L275.407 270.143ZM235.199 270.143L215.59 281.464L235.186 292.808L254.762 281.464L235.199 270.143ZM194.975 270.143L175.382 281.464L194.975 292.808L214.554 281.464L194.975 270.143ZM135.157 281.464L142.429 285.695L154.768 292.808L167.933 285.191L174.346 281.464L154.768 270.143L135.157 281.464ZM114.544 270.143L94.9488 281.464L114.544 292.808L134.121 281.464L114.544 270.143ZM74.3354 270.143L54.7572 281.464L74.3354 292.808L93.9128 281.464L74.3354 270.143ZM496.578 281.788L476.985 293.15L496.562 304.453L516.14 293.15L496.578 281.788ZM456.354 281.788L436.777 293.15L456.354 304.453L475.948 293.15L456.354 281.788ZM416.13 281.788L396.569 293.15L416.13 304.453L435.741 293.15L416.13 281.788ZM375.922 281.788L356.36 293.15L375.922 304.453L395.532 293.15L375.922 281.788ZM335.714 281.788L316.136 293.15L335.698 304.453L355.308 293.15L335.714 281.788ZM295.489 281.788L275.927 293.15L295.489 304.453L315.082 293.15L300.346 284.614L295.489 281.788ZM255.264 281.788L235.702 293.15L255.264 304.453L274.874 293.15L255.264 281.788ZM215.088 281.788L195.478 293.15L215.088 304.453L234.666 293.15L219.929 284.614L215.088 281.788ZM174.864 281.788L155.269 293.15L174.864 304.453L194.441 293.15L174.864 281.788ZM134.656 281.788L115.045 293.15L134.656 304.453L154.217 293.15L134.656 281.788ZM94.4312 281.788L74.8364 293.15L94.4312 304.453L114.024 293.15L94.4312 281.788ZM516.432 293.572L496.853 304.925V327.614L516.432 316.245V293.572ZM476.741 293.572V316.245L496.32 327.614V304.925L476.741 293.572ZM476.224 293.572L456.629 304.925V327.614L476.224 316.245V293.572ZM436.518 293.572V316.245L456.111 327.614V304.925L436.518 293.572ZM435.999 293.572L416.421 304.925V327.614L435.999 316.245V293.572ZM396.308 293.572V316.245L415.886 327.614V304.925L396.308 293.572ZM395.79 293.572L376.212 304.925V327.614L395.79 316.245V293.572ZM356.1 293.572V316.245L375.678 327.614V304.925L356.1 293.572ZM355.567 293.572L335.989 304.925V327.614L355.567 316.245V293.572ZM315.892 293.572V316.245L335.453 327.614V304.925L315.892 293.572ZM315.341 293.572L295.764 304.925V327.614L315.341 316.245V293.572ZM275.669 293.572V316.245L295.245 327.614V304.925L275.669 293.572ZM275.133 293.572L255.556 304.925V327.614L275.133 316.245V293.572ZM235.444 293.572V316.245L255.021 327.614V304.925L235.444 293.572ZM234.909 293.572L215.348 304.925V327.614L234.909 316.245V293.572ZM195.235 293.572L195.219 316.245L214.813 327.614V304.925L195.235 293.572ZM194.716 293.572L175.123 304.925V327.614L194.716 316.245V293.572ZM155.027 293.572V316.245L174.604 327.614V304.925L155.027 293.572ZM154.491 293.572L134.898 304.925V327.614L154.491 316.245V293.572ZM114.802 293.572V316.245L134.381 327.614V304.925L114.802 293.572ZM114.268 293.572L94.69 304.925V327.614L114.268 316.245V293.572ZM74.5776 293.572V316.245L94.1708 327.614V304.925L74.5776 293.572ZM74.0433 293.572L54.4817 304.925V327.614L74.0433 316.245V293.572ZM456.889 328.051L463.156 331.69L476.466 339.389L486.409 333.64L496.061 328.051L476.466 316.699L456.889 328.051ZM416.681 328.051L422.947 331.69L436.243 339.389L446.185 333.64L455.853 328.051L436.243 316.699L416.681 328.051ZM376.456 328.051L382.723 331.69L396.033 339.389L405.96 333.64L415.628 328.051L396.033 316.699L376.456 328.051ZM336.248 328.051L342.514 331.69L355.81 339.389L365.753 333.64L375.419 328.051L355.81 316.699L336.248 328.051ZM296.023 328.051L298.483 329.481L315.601 339.389L335.211 328.051L315.601 316.699L296.023 328.051ZM255.815 328.051L262.097 331.69L275.407 339.389L285.319 333.64L294.986 328.051L275.407 316.699L255.815 328.051ZM215.59 328.051L218.051 329.481L235.199 339.389L254.762 328.051L235.199 316.699L215.59 328.051ZM175.382 328.051L189.388 336.156L194.975 339.389L198.199 337.522L214.554 328.051L194.975 316.699L175.382 328.051ZM154.768 316.699L135.157 328.069L154.768 339.389L174.346 328.069L154.768 316.699ZM94.9488 328.051L104.602 333.64L114.559 339.389L134.121 328.051L114.544 316.699L94.9488 328.051ZM54.7572 328.051L64.3912 333.64L74.3354 339.389L84.2448 333.64L93.9128 328.051L74.3354 316.699L54.7572 328.051ZM486.652 334.127L476.985 339.697L496.578 351.035L516.14 339.697L496.578 328.361L486.652 334.127ZM446.443 334.127L436.777 339.697L456.354 351.035L475.965 339.697L456.354 328.361L446.443 334.127ZM406.236 334.127L396.569 339.697L416.13 351.035L435.757 339.697L416.13 328.361L406.236 334.127ZM366.011 334.127L356.36 339.697L375.922 351.035L395.532 339.697L375.922 328.361L366.011 334.127ZM332.846 330.017L316.136 339.697L335.714 351.035L355.308 339.697L335.714 328.361L332.846 330.017ZM285.578 334.127L275.91 339.697L295.489 351.035L315.082 339.697L300.346 331.186L295.489 328.361L285.578 334.127ZM252.413 330.017L235.686 339.697L255.264 351.035L274.891 339.697L255.264 328.361L252.413 330.017ZM205.145 334.127L195.478 339.697L215.088 351.035L234.666 339.697L219.929 331.186L215.088 328.361L205.145 334.127ZM158.039 338.105L155.269 339.697L174.879 351.035L194.458 339.697L174.879 328.361L158.039 338.105ZM134.656 328.361L115.045 339.697L134.656 351.035L154.249 339.697L134.656 328.361ZM77.6056 338.105L74.8364 339.697L94.4312 351.035L114.024 339.697L104.357 334.127L94.4312 328.361L77.6056 338.105ZM516.432 340.136L496.853 351.488V374.179L516.432 362.858V340.136ZM476.741 340.136V362.858L496.32 374.179V351.488L476.741 340.136ZM476.224 340.136L456.629 351.488V374.179L476.224 362.858V340.136ZM436.518 340.136V362.858L456.111 374.179V351.488L436.518 340.136ZM435.999 340.136L416.421 351.488V374.179L435.999 362.858V340.136ZM396.308 340.136V362.858L415.886 374.179V351.488L396.308 340.136ZM395.79 340.136L376.212 351.488V374.179L395.79 362.858V340.136ZM356.1 340.136V362.858L375.678 374.179V351.488L356.1 340.136ZM355.567 340.136L335.989 351.488V374.179L355.567 362.858V340.136ZM315.892 340.136V362.858L335.453 374.179V351.488L315.892 340.136ZM315.341 340.136L295.764 351.488V374.179L315.341 362.858V340.136ZM275.669 340.136V362.858L295.245 374.179V351.488L275.669 340.136ZM275.133 340.136L255.556 351.488V374.179L275.133 362.858V340.136ZM235.444 340.136V362.858L255.021 374.179V351.488L235.444 340.136ZM234.909 340.136L215.348 351.488V374.179L234.909 362.858V340.136ZM195.235 340.136L195.219 362.858L214.813 374.179V351.488L195.235 340.136ZM194.716 340.136L175.123 351.488V374.179L194.716 362.858V340.136ZM155.027 340.136V362.858L174.604 374.179V351.488L155.027 340.136ZM154.491 340.136L134.898 351.488V374.179L154.491 362.858V340.136ZM114.802 340.136V362.858L134.381 374.179V351.488L114.802 340.136ZM114.268 340.136L94.69 351.488V374.179L114.268 362.858V340.136ZM74.5776 340.136V362.858L94.1708 374.179V351.488L74.5776 340.136ZM74.0433 340.136L54.4817 351.488V374.179L74.0433 362.858V340.136ZM476.466 363.263L456.873 374.632L476.466 385.953L486.409 380.221L496.077 374.632L476.466 363.263ZM436.243 363.263L416.681 374.632L436.243 385.953L446.185 380.221L455.853 374.632L436.243 363.263ZM396.033 363.263L376.456 374.632L396.033 385.953L405.96 380.221L415.644 374.632L396.033 363.263ZM355.81 363.263L336.248 374.632L355.81 385.953L365.753 380.221L375.437 374.632L355.81 363.263ZM315.601 363.263L296.023 374.632L315.601 385.953L335.211 374.632L315.601 363.263ZM275.376 363.263L255.815 374.632L275.407 385.953L285.319 380.221L294.986 374.632L275.376 363.263ZM235.186 363.263L215.59 374.632L235.186 385.953L254.778 374.632L235.186 363.263ZM194.975 363.263L175.365 374.632L194.975 385.953L197.971 384.232L214.554 374.632L194.975 363.263ZM135.157 374.632L142.429 378.855L154.768 385.953L174.346 374.632L154.752 363.263L135.157 374.632ZM94.9488 374.632L104.602 380.221L114.559 385.953L134.121 374.632L114.544 363.263L94.9488 374.632ZM54.724 374.632L64.3912 380.221L74.3354 385.953L84.2448 380.221L93.9128 374.632L74.3354 363.263L54.724 374.632ZM496.562 374.925L476.985 386.278L496.578 397.615L516.14 386.278L496.562 374.925ZM456.354 374.925L436.777 386.278L456.354 397.615L475.965 386.278L456.354 374.925ZM416.13 374.925L396.569 386.278L416.13 397.615L435.757 386.278L416.13 374.925ZM375.922 374.925L356.36 386.278L375.922 397.615L395.532 386.278L375.922 374.925ZM335.698 374.925L316.136 386.278L335.714 397.615L355.308 386.278L335.698 374.925ZM295.489 374.925L275.91 386.278L295.489 397.615L315.082 386.278L295.489 374.925ZM255.264 374.925L235.686 386.278L255.264 397.615L274.891 386.278L255.264 374.925ZM215.088 374.925L195.478 386.278L215.088 397.582L234.666 386.278L215.088 374.925ZM174.864 374.925L155.269 386.278L174.879 397.615L194.458 386.278L174.864 374.925ZM122.607 381.892L115.045 386.278L134.656 397.582L154.249 386.278L134.656 374.925L122.607 381.892ZM94.4312 374.925L74.8364 386.278L94.4312 397.615L114.024 386.278L94.4312 374.925ZM516.432 386.734L496.853 398.069V420.743L516.432 409.405V386.734ZM476.741 386.734V409.405L496.32 420.743V398.069L476.741 386.734ZM476.224 386.734L456.629 398.069V420.743L476.224 409.405V386.734ZM436.518 386.734V409.405L456.111 420.743V398.069L436.518 386.734ZM435.999 386.734L416.421 398.069V420.743L435.999 409.405V386.734ZM396.308 386.734V409.405L415.886 420.743V398.069L396.308 386.734ZM395.79 386.734L376.212 398.069V420.743L395.79 409.405V386.734ZM356.1 386.734V409.405L375.678 420.743V398.069L356.1 386.734ZM355.567 386.734L335.989 398.069V420.743L355.567 409.405V386.734ZM315.892 386.734V409.405L335.453 420.743V398.069L315.892 386.734ZM315.341 386.734L295.764 398.069V420.743L315.341 409.405V386.734ZM275.669 386.734V409.405L295.245 420.743V398.069L275.669 386.734ZM275.133 386.734L255.556 398.069V420.743L275.133 409.405V386.734ZM235.444 386.734V409.405L255.021 420.743V398.069L235.444 386.734ZM234.909 386.734L215.348 398.069V420.743L234.909 409.405V386.734ZM195.235 386.734L195.219 409.405L214.813 420.743V398.069L195.235 386.734ZM194.716 386.734L175.123 398.069V420.743L194.716 409.405V386.734ZM155.027 386.734V409.405L174.604 420.743V398.069L155.027 386.734ZM154.491 386.734L134.898 398.069V420.743L154.491 409.405V386.734ZM114.802 386.734V409.405L134.381 420.743V398.069L114.802 386.734ZM114.268 386.734L94.69 398.069V420.743L114.268 409.405V386.734ZM74.5776 386.734V409.405L94.1708 420.743V398.069L74.5776 386.734ZM74.0433 386.734L54.4817 398.069V420.743L74.0433 409.405V386.734ZM456.889 421.197L463.156 424.835L476.466 432.549L486.409 426.785L496.061 421.197L476.466 409.86L456.889 421.197ZM416.681 421.197L422.947 424.835L436.243 432.549L446.185 426.785L455.853 421.197L436.243 409.86L416.681 421.197ZM376.456 421.197L382.723 424.835L396.033 432.549L405.96 426.785L415.628 421.197L396.033 409.86L376.456 421.197ZM336.248 421.197L342.514 424.835L355.81 432.549L365.753 426.785L375.419 421.197L355.81 409.86L336.248 421.197ZM296.023 421.197L298.483 422.627L315.601 432.549L335.211 421.197L315.601 409.86L296.023 421.197ZM255.815 421.197L262.097 424.835L275.407 432.549L285.319 426.785L294.986 421.197L275.407 409.86L255.815 421.197ZM215.59 421.197L218.051 422.627L235.199 432.549L254.762 421.197L235.199 409.86L215.59 421.197ZM175.382 421.197L189.388 429.286L194.975 432.549L198.199 430.682L214.554 421.197L194.975 409.86L175.382 421.197ZM154.768 409.86L135.157 421.197L154.768 432.549L174.346 421.197L154.768 409.86ZM94.9488 421.197L104.602 426.785L114.559 432.549L134.121 421.197L114.544 409.86L94.9488 421.197ZM54.7572 421.197L64.3912 426.785L74.3354 432.549L84.2448 426.785L93.9128 421.197L74.3354 409.86L54.7572 421.197ZM486.652 427.272L476.985 432.859L496.562 444.195L516.14 432.859L496.578 421.523L486.652 427.272ZM446.443 427.272L436.777 432.859L456.354 444.195L475.965 432.859L456.354 421.523L446.443 427.272ZM406.236 427.272L396.569 432.859L416.13 444.195L435.757 432.859L416.13 421.523L406.236 427.272ZM366.011 427.272L356.36 432.859L375.922 444.195L395.532 432.859L375.922 421.523L366.011 427.272ZM332.846 423.179L316.136 432.859L335.698 444.195L355.308 432.859L335.714 421.523L332.846 423.179ZM285.578 427.272L275.91 432.859L295.489 444.195L315.082 432.859L300.346 424.315L295.489 421.523L285.578 427.272ZM252.413 423.179L235.686 432.859L255.264 444.195L274.891 432.859L255.264 421.523L252.413 423.179ZM205.145 427.272L195.478 432.859L215.088 444.195L234.666 432.859L219.929 424.315L215.088 421.523L205.145 427.272ZM158.039 431.233L155.269 432.859L174.864 444.195L194.458 432.859L174.879 421.523L158.039 431.233ZM134.656 421.523L115.045 432.859L134.656 444.195L154.249 432.859L134.656 421.523ZM77.6056 431.233L74.8364 432.859L94.4312 444.195L114.024 432.859L104.357 427.272L94.4312 421.523L77.6056 431.233ZM516.432 433.298L496.853 444.634V467.307L516.432 455.986V433.298ZM476.741 433.298V455.986L496.32 467.307V444.634L476.741 433.298ZM476.224 433.298L456.629 444.634V467.307L476.224 455.986V433.298ZM436.518 433.298V455.986L456.111 467.307V444.634L436.518 433.298ZM435.999 433.298L416.421 444.634V467.307L435.999 455.986V433.298ZM396.308 433.298V455.986L415.886 467.307V444.634L396.308 433.298ZM395.79 433.298L376.212 444.634V467.307L395.79 455.986V433.298ZM356.1 433.298V455.986L375.678 467.307V444.634L356.1 433.298ZM355.567 433.298L335.989 444.634V467.307L355.567 455.986V433.298ZM315.892 433.298V455.986L335.453 467.307V444.634L315.892 433.298ZM315.341 433.298L295.764 444.634V467.307L315.341 455.986V433.298ZM275.669 433.298V455.986L295.245 467.307V444.634L275.669 433.298ZM275.133 433.298L255.556 444.634V467.307L275.133 455.986V433.298ZM235.444 433.298V455.986L255.021 467.307V444.634L235.444 433.298ZM234.909 433.298L215.348 444.634V467.307L234.909 455.986V433.298ZM195.235 433.298L195.219 455.986L214.813 467.307V444.634L195.235 433.298ZM194.716 433.298L175.123 444.634V467.307L194.716 455.986V433.298ZM155.027 433.298V455.986L174.604 467.307V444.634L155.027 433.298ZM154.491 433.298L134.898 444.634V467.307L154.491 455.986V433.298ZM114.802 433.298V455.986L134.381 467.307V444.634L114.802 433.298ZM114.268 433.298L94.69 444.634V467.307L114.268 455.986V433.298ZM74.5776 433.298V455.986L94.1708 467.307V444.634L74.5776 433.298ZM74.0433 433.298L54.4817 444.634V467.307L74.0433 455.986V433.298ZM476.466 456.442L456.889 467.761L476.466 479.113L486.409 473.349L496.061 467.761L476.466 456.442ZM436.243 456.442L416.681 467.761L436.243 479.113L446.185 473.349L455.853 467.761L436.243 456.442ZM396.033 456.442L376.456 467.761L396.033 479.113L405.96 473.349L415.628 467.761L396.033 456.442ZM355.81 456.442L336.248 467.761L355.81 479.113L365.753 473.349L375.419 467.761L355.81 456.442ZM315.601 456.442L296.023 467.761L315.601 479.113L335.211 467.761L315.601 456.442ZM275.376 456.442L255.815 467.761L275.407 479.113L285.319 473.349L294.986 467.761L275.376 456.442ZM235.186 456.442L215.59 467.761L235.186 479.113L254.762 467.761L235.186 456.442ZM194.975 456.442L175.382 467.761L194.975 479.113L198.199 477.262L214.554 467.761L194.975 456.442ZM135.157 467.761L142.347 471.919L154.768 479.113L174.346 467.761L154.752 456.442L135.157 467.761ZM94.9488 467.761L104.602 473.349L114.559 479.113L134.121 467.761L114.544 456.442L94.9488 467.761ZM54.7572 467.761L64.3912 473.349L74.3354 479.113L84.2448 473.349L93.9128 467.761L74.3354 456.442L54.7572 467.761ZM496.578 468.07L476.985 479.406L496.578 490.775L516.14 479.406L499.364 469.679L496.578 468.07ZM456.354 468.07L436.777 479.406L456.354 490.775L475.965 479.406L459.156 469.679L456.354 468.07ZM416.13 468.07L396.569 479.406L416.13 490.775L435.757 479.406L418.947 469.679L416.13 468.07ZM375.922 468.07L356.36 479.406L375.922 490.775L395.532 479.406L378.723 469.679L375.922 468.07ZM335.714 468.07L316.136 479.406L335.714 490.775L355.308 479.406L338.498 469.679L335.714 468.07ZM295.489 468.07L275.91 479.406L295.489 490.775L315.082 479.406L297.237 469.076L295.489 468.07ZM255.264 468.07L235.686 479.406L255.264 490.775L274.891 479.406L258.082 469.679L255.264 468.07ZM215.088 468.07L195.478 479.406L215.088 490.775L234.666 479.406L216.789 469.076L215.088 468.07ZM174.879 468.07L155.269 479.406L174.879 490.775L194.458 479.406L183.883 473.299L174.879 468.07ZM122.607 475.053L115.045 479.406L134.656 490.775L154.249 479.406L141.246 471.904L134.656 468.07L122.607 475.053ZM94.4312 468.07L74.8364 479.406L94.4312 490.775L114.024 479.406L94.4312 468.07ZM516.432 479.876L496.853 491.23V513.903L516.432 502.55V479.876ZM476.741 479.876V502.55L496.32 513.903V491.23L476.741 479.876ZM476.224 479.876L456.629 491.23V513.903L476.224 502.55V479.876ZM436.518 479.876V502.55L456.111 513.903V491.23L436.518 479.876ZM435.999 479.876L416.421 491.23V513.903L435.999 502.55V479.876ZM396.308 479.876V502.55L415.886 513.903V491.23L396.308 479.876ZM395.79 479.876L376.212 491.23V513.903L395.79 502.55V479.876ZM356.1 479.876V502.55L375.678 513.903V491.23L356.1 479.876ZM355.567 479.876L335.989 491.23V513.903L355.567 502.55V479.876ZM315.341 479.876L295.764 491.23V513.903L315.341 502.55V479.876ZM275.669 479.876V502.55L295.245 513.903V491.23L275.669 479.876ZM275.133 479.876L255.556 491.23V513.903L275.133 502.55V479.876ZM234.909 479.876L215.348 491.23V513.903L234.909 502.55V479.876ZM195.235 479.876L195.219 502.55L214.813 513.903V491.23L195.235 479.876ZM194.716 479.876L175.123 491.23V513.903L194.716 502.55V479.876ZM155.027 479.876V502.55L174.604 513.903V491.23L155.027 479.876ZM114.268 479.876L94.69 491.23V513.903L114.268 502.55V479.876ZM74.5776 479.876V502.55L94.1708 513.903V491.23L74.5776 479.876ZM315.892 479.894V502.55L335.453 513.903V491.23L315.892 479.894ZM235.444 479.894V502.55L255.021 513.903V491.23L235.444 479.894ZM154.491 479.894L134.898 491.23V513.903L154.491 502.55V479.894ZM114.802 479.894V502.55L134.381 513.903V491.23L114.802 479.894ZM74.0433 479.894L54.4817 491.23V513.903L74.0433 502.55V479.894ZM476.466 503.02L456.873 514.325L476.466 525.679L496.077 514.325L476.466 503.02ZM436.243 503.02L416.681 514.325L436.243 525.679L455.853 514.325L436.243 503.02ZM396.033 503.02L376.456 514.325L396.033 525.679L415.644 514.325L396.033 503.02ZM355.81 503.02L336.248 514.325L355.81 525.679L375.437 514.325L355.81 503.02ZM315.601 503.02L296.023 514.325L315.601 525.679L335.211 514.325L315.601 503.02ZM275.407 503.02L255.815 514.325L275.407 525.679L294.986 514.325L275.407 503.02ZM235.199 503.02L215.59 514.325L235.186 525.679L254.778 514.325L235.199 503.02ZM194.975 503.02L175.365 514.325L194.975 525.679L214.554 514.325L194.975 503.02ZM135.157 514.325L142.429 518.548L154.768 525.679L167.933 518.045L174.346 514.325L154.768 503.02L135.157 514.325ZM114.544 503.02L94.9488 514.325L114.544 525.679L134.121 514.325L114.544 503.02ZM74.3354 503.02L54.724 514.325L74.3354 525.679L93.9128 514.325L74.3354 503.02ZM486.652 520.401L476.985 525.986L496.578 537.323L516.14 525.986L513.825 524.639L496.562 514.666L486.652 520.401ZM446.443 520.401L436.777 525.986L456.354 537.323L475.948 525.986L473.617 524.639L456.354 514.666L446.443 520.401ZM406.236 520.401L396.569 525.986L416.13 537.323L435.741 525.986L433.392 524.639L416.13 514.666L406.236 520.401ZM366.011 520.401L356.36 525.986L375.922 537.323L395.532 525.986L393.168 524.639L375.922 514.666L366.011 520.401ZM332.619 516.469L316.136 525.986L335.714 537.323L355.308 525.986L352.96 524.639L335.698 514.666L332.619 516.469ZM285.578 520.401L275.927 525.986L295.489 537.323L315.082 525.986L295.489 514.666L285.578 520.401ZM252.171 516.469L235.702 525.986L255.264 537.323L274.874 525.986L272.527 524.639L255.264 514.666L252.171 516.469ZM205.145 520.401L195.478 525.986L215.088 537.323L234.666 525.986L215.088 514.666L205.145 520.401ZM158.233 524.297L155.269 525.986L174.879 537.323L194.441 525.986L188.385 522.479L174.864 514.666L158.233 524.297ZM134.656 514.666L115.045 525.986L134.656 537.323L154.217 525.986L145.489 520.919L134.656 514.666ZM77.7995 524.297L74.8364 525.986L94.4312 537.323L114.024 525.986L104.357 520.401L94.4312 514.666L77.7995 524.297ZM516.432 526.442L496.853 537.795V560.484L516.432 549.114V526.442ZM476.741 526.442V549.114L496.32 560.484V537.795L476.741 526.442ZM476.224 526.442L456.629 537.795V560.484L476.224 549.114V526.442ZM436.518 526.442V549.114L456.111 560.484V537.795L436.518 526.442ZM435.999 526.442L416.421 537.795V560.484L435.999 549.114V526.442ZM396.308 526.442V549.114L415.886 560.484V537.795L396.308 526.442ZM395.79 526.442L376.212 537.795V560.484L395.79 549.114V526.442ZM356.1 526.442V549.114L375.678 560.484V537.795L356.1 526.442ZM355.567 526.442L335.989 537.795V560.484L355.567 549.114V526.442ZM315.892 526.442V549.114L335.453 560.484V537.795L315.892 526.442ZM315.341 526.442L295.764 537.795V560.484L315.341 549.114V526.442ZM275.669 526.442V549.114L295.245 560.484V537.795L275.669 526.442ZM275.133 526.442L255.556 537.795V560.484L275.133 549.114V526.442ZM235.444 526.442V549.114L255.021 560.484V537.795L235.444 526.442ZM234.909 526.442L215.348 537.795V560.484L234.909 549.114V526.442ZM195.235 526.442L195.219 549.114L214.813 560.484V537.795L195.235 526.442ZM194.716 526.442L175.123 537.795V560.484L194.716 549.114V526.442ZM155.027 526.442V549.114L174.604 560.484V537.795L155.027 526.442ZM154.491 526.442L134.898 537.795V560.484L154.491 549.114V526.442ZM114.802 526.442V549.114L134.381 560.484V537.795L114.802 526.442ZM114.268 526.442L94.69 537.795V560.484L114.268 549.114V526.442ZM74.5776 526.442V549.114L94.1708 560.484V537.795L74.5776 526.442ZM74.0433 526.442L54.4817 537.795V560.484L74.0433 549.114V526.442ZM456.889 560.939L463.156 564.545L476.466 572.258L486.409 566.509L496.061 560.939L476.466 549.57L456.889 560.939ZM416.681 560.939L422.947 564.545L436.243 572.258L446.185 566.509L455.853 560.939L436.243 549.57L416.681 560.939ZM376.456 560.939L382.723 564.545L396.033 572.258L405.96 566.509L415.628 560.939L396.033 549.57L376.456 560.939ZM336.248 560.939L342.514 564.545L355.81 572.258L365.753 566.509L375.419 560.939L355.81 549.57L336.248 560.939ZM296.023 560.939L298.483 562.351L315.601 572.258L335.211 560.939L315.601 549.57L296.023 560.939ZM255.815 560.939L262.097 564.545L275.407 572.258L285.319 566.509L294.986 560.939L275.376 549.57L255.815 560.939ZM215.59 560.939L218.051 562.351L235.199 572.258L254.762 560.939L235.186 549.57L215.59 560.939ZM175.382 560.939L189.388 569.027L194.975 572.258L198.199 570.391L214.554 560.939L194.975 549.57L175.382 560.939ZM154.752 549.57L135.157 560.939L154.768 572.258L174.346 560.939L154.752 549.57ZM94.9488 560.939L104.602 566.509L114.559 572.258L134.121 560.939L114.544 549.57L94.9488 560.939ZM54.7572 560.939L64.3912 566.509L74.3354 572.258L84.2448 566.509L93.9128 560.939L74.3354 549.57L54.7572 560.939ZM496.578 561.231L476.985 572.567L496.562 583.904L516.14 572.567L496.578 561.231ZM456.354 561.231L436.777 572.567L456.354 583.904L475.965 572.567L456.354 561.231ZM416.13 561.231L396.569 572.567L416.13 583.904L435.757 572.567L416.13 561.231ZM375.922 561.231L356.36 572.567L375.922 583.904L395.532 572.567L375.922 561.231ZM335.714 561.231L316.136 572.567L335.698 583.904L355.308 572.567L335.714 561.231ZM295.489 561.231L275.91 572.567L295.489 583.904L315.082 572.567L300.346 564.04L295.489 561.231ZM255.264 561.231L235.686 572.567L255.264 583.904L274.891 572.567L255.264 561.231ZM215.088 561.231L195.478 572.567L215.088 583.904L234.666 572.567L219.929 564.04L215.088 561.231ZM174.864 561.231L155.269 572.567L174.864 583.904L194.458 572.567L174.864 561.231ZM134.656 561.231L115.045 572.567L134.656 583.904L154.249 572.567L134.656 561.231ZM94.4312 561.231L74.8364 572.567L94.4312 583.904L114.024 572.567L94.4312 561.231ZM516.432 573.007L496.853 584.359V607.033L516.432 595.695V573.007ZM476.741 573.007V595.695L496.32 607.033V584.359L476.741 573.007ZM476.224 573.007L456.629 584.359V607.033L476.224 595.695V573.007ZM436.518 573.007V595.695L456.111 607.033V584.359L436.518 573.007ZM435.999 573.007L416.421 584.359V607.033L435.999 595.695V573.007ZM396.308 573.007V595.695L415.886 607.033V584.359L396.308 573.007ZM395.79 573.007L376.212 584.359V607.033L395.79 595.695V573.007ZM356.1 573.007V595.695L375.678 607.033V584.359L356.1 573.007ZM355.567 573.007L335.989 584.359V607.033L355.567 595.695V573.007ZM315.892 573.007V595.695L335.453 607.033V584.359L315.892 573.007ZM315.341 573.007L295.764 584.359V607.033L315.341 595.695V573.007ZM275.669 573.007V595.695L295.245 607.033V584.359L275.669 573.007ZM275.133 573.007L255.556 584.359V607.033L275.133 595.695V573.007ZM235.444 573.007V595.695L255.021 607.033V584.359L235.444 573.007ZM234.909 573.007L215.348 584.359V607.033L234.909 595.695V573.007ZM195.235 573.007L195.219 595.695L214.813 607.033V584.359L195.235 573.007ZM194.716 573.007L175.123 584.359V607.033L194.716 595.695V573.007ZM155.027 573.007V595.695L174.604 607.033V584.359L155.027 573.007ZM154.491 573.007L134.898 584.359V607.033L154.491 595.695V573.007ZM114.802 573.007V595.695L134.381 607.033V584.359L114.802 573.007ZM114.268 573.007L94.69 584.359V607.033L114.268 595.695V573.007ZM74.5776 573.007V595.695L94.1708 607.033V584.359L74.5776 573.007ZM74.0433 573.007L54.4817 584.359V607.033L74.0433 595.695V573.007Z" fill="#D9EAED"/>
<path fill-rule="evenodd" clip-rule="evenodd" d="M-30.4284 4.25888L-36.2787 7.63194L-36.5515 7.78977V8.40078L-29.3842 4.25888H-30.4284ZM-22.7814 4.25888L-6.43386 13.6824L-26.0869 25.0259L-36.5515 18.9708V19.5639L-26.3312 25.4655V48.1622L-36.5515 42.2575V42.867L-26.5906 48.6178L-36.2787 54.1968L-36.5515 54.3546V54.9694L-26.0869 48.9175L-6.41799 60.2549L-26.0869 71.5907L-36.5515 65.5397V66.1448L-26.3312 72.0547V94.7264L-36.5515 88.8259V89.423L-26.5739 95.182L-36.5515 100.945V101.548L-26.0869 95.4832L-23.2641 97.1065L-6.41799 106.844L-26.0869 118.18L-36.5515 112.129V112.718L-26.3312 118.619V141.299L-36.5515 135.394V136.011L-26.5739 141.763L-36.2787 147.349L-36.5515 147.507V148.129L-36.0027 147.812L-26.0869 142.062L-8.78785 152.035L-6.43386 153.407L-26.0869 164.736L-36.5515 158.689V159.293L-26.3312 165.206V187.88L-36.5515 181.979V182.584L-26.5906 188.335L-36.2787 193.938L-36.5515 194.096V194.701L-36.0027 194.384L-26.0869 188.635L-6.41799 199.972L-26.0869 211.316L-36.5515 205.261V205.866L-26.3312 211.771V234.452L-36.5515 228.547V229.16L-26.5739 234.915L-36.2787 240.503L-36.5515 240.66V241.273L-36.0027 240.957L-26.0869 235.216L-6.43386 246.545L-26.0869 257.89L-36.5515 251.834V252.438L-26.3312 258.343V281.034L-36.5515 275.115V275.721L-26.5906 281.464L-36.5515 287.219V287.853L-26.0869 281.788L-6.43386 293.15L-26.0869 304.453L-36.5515 298.419V299.011L-26.3312 304.925V327.614L-36.5515 321.692V322.293L-26.5906 328.051L-36.2787 333.64L-36.5515 333.798V334.442L-36.0027 334.127L-26.0869 328.361L-6.41799 339.697L-26.0869 351.035L-36.5515 344.983V345.575L-26.3312 351.488V374.179L-36.5515 368.282V368.861L-26.5739 374.632L-36.2787 380.221L-36.5515 380.378V380.985L-26.0869 374.925L-6.41799 386.278L-26.0869 397.615L-36.5515 391.563V392.164L-26.3312 398.069V420.743L-36.5515 414.837V415.446L-26.5906 421.197L-36.2787 426.785L-36.5515 426.943V427.589L-36.0027 427.272L-26.0869 421.523L-6.41799 432.859L-26.0869 444.195L-36.5515 438.144V438.729L-26.3312 444.634V467.307L-36.5515 461.41V462.019L-26.5906 467.761L-36.2787 473.349L-36.5515 473.507V474.121L-26.0869 468.07L-23.2641 469.679L-6.41799 479.406L-26.0869 490.775L-36.5515 484.706V485.316L-26.3312 491.23V513.903L-36.5515 507.989V508.586L-26.5739 514.325L-36.5515 520.089V520.717L-36.0027 520.401L-26.0869 514.666L-8.78785 524.639L-6.43386 525.986L-26.0869 537.323L-36.5515 531.272V531.881L-26.3312 537.795V560.484L-36.5515 554.561V555.172L-26.5906 560.939L-36.2787 566.509L-36.5515 566.667V567.282L-26.0869 561.231L-6.41799 572.567L-26.0869 583.904L-36.5515 577.852V578.446L-26.3312 584.359V607.033L-36.5515 601.127V601.74L-26.9974 607.259H-25.1122L-5.93024 596.151L13.2979 607.259H15.1664L34.3794 596.151L53.6098 607.259H55.4775L74.4485 596.278V572.127L61.3515 564.545L55.0715 560.939L74.4485 549.73V525.548L55.0548 514.325L74.4485 503.179V478.982L55.0715 467.761L74.4485 456.568V432.418L61.3515 424.835L55.0715 421.197L74.4485 410.004V385.823L55.0548 374.632L74.4485 363.407V339.258L61.3515 331.69L55.0715 328.051L74.4485 316.859V292.678L55.0715 281.464L74.4485 270.278V246.122L55.0548 234.915L74.4485 223.706V199.54L61.3515 191.948L55.0715 188.335L74.4485 177.142V152.968L55.0548 141.763L74.4485 130.554V106.404L65.6194 101.281L55.0548 95.182L74.4485 83.9899V59.8235L61.3515 52.2406L55.0715 48.6095L74.4485 37.4174V13.2586L65.6194 8.13597L58.9041 4.25888H57.8326L74.1393 13.6824L54.5187 25.0259L34.8996 13.6824L51.2327 4.25888H50.1847L44.3435 7.63194L34.3794 13.3895L25.3242 8.13597L18.5987 4.25888H17.5263L33.8607 13.6824L14.2234 25.0259L-5.39562 13.6824L10.9236 4.25888H9.8835L4.03317 7.63194L-5.93024 13.3895L-14.9877 8.13597L-21.7026 4.25888H-22.7814ZM54.8106 25.4655L74.4319 14.1357V36.8264L54.8106 48.1622V25.4655ZM34.6546 36.8264V14.1357L54.276 25.4655V48.1622L34.6546 36.8264ZM14.4994 25.4655L34.1367 14.1357V36.8264L14.4994 48.1622V25.4655ZM-5.655 36.8264V14.1357L13.9807 25.4655V48.1622L-5.655 36.8264ZM-25.7958 25.4655L-6.17524 14.1357V36.8264L-25.7958 48.1622V25.4655ZM21.0404 52.2406L14.7603 48.6095L34.3794 37.2805L54.0166 48.6178L44.3435 54.1968L34.3794 59.9537L21.0404 52.2406ZM-19.2556 52.2406L-25.5349 48.6095L-5.93024 37.2805L13.7213 48.6178L4.03317 54.1968L-5.93024 59.9537L-19.2556 52.2406ZM34.8996 60.2549L54.5353 48.9175L74.1393 60.2549L54.5187 71.5907L34.8996 60.2549ZM-5.39562 60.2549L14.2234 48.9175L33.8773 60.2549L14.2234 71.5907L-5.39562 60.2549ZM54.8106 72.0547L74.4319 60.709V83.3989L54.8106 94.7264V72.0547ZM34.6546 83.3989V60.709L54.276 72.0547V94.7264L34.6546 83.3989ZM14.4994 72.0547L34.1367 60.709V83.3989L14.4994 94.7264V72.0547ZM-5.655 83.3989V60.709L13.9807 72.0547V94.7264L-5.655 83.3989ZM-25.7958 72.0547L-6.17524 60.709V83.3989L-25.7958 94.7264V72.0547ZM25.3242 101.281L14.7437 95.182L34.3794 83.8378L54.0332 95.182L34.3794 106.534L25.3242 101.281ZM-14.9877 101.281L-25.5349 95.182L-5.93024 83.8378L13.7213 95.182L-5.93024 106.534L-14.9877 101.281ZM34.8996 106.844L54.5353 95.4832L57.3271 97.1065L74.1393 106.844L54.5353 118.18L34.8996 106.844ZM-5.39562 106.844L14.2234 95.4832L17.0319 97.1065L33.8773 106.844L14.2234 118.18L-5.39562 106.844ZM54.8106 118.619L74.4319 107.29V129.964L54.8106 141.299V118.619ZM34.6546 129.964V107.29L54.276 118.619V141.299L34.6546 129.964ZM14.4994 118.619L34.1367 107.29V129.964L14.4994 141.299V118.619ZM-5.655 129.964V107.29L13.9807 118.619V141.299L-5.655 129.964ZM-25.7958 118.619L-6.17524 107.29V129.964L-25.7958 141.299V118.619ZM14.7437 141.763L34.3794 130.434L54.0332 141.763L44.3435 147.349L34.3794 153.099L14.7437 141.763ZM-25.5349 141.763L-5.93024 130.434L13.7213 141.763L4.03317 147.349L-5.93024 153.099L-25.5349 141.763ZM34.8996 153.407L44.5878 147.812L54.5187 142.062L71.8193 152.035L74.1393 153.407L54.5187 164.736L34.8996 153.407ZM-5.39562 153.407L4.29177 147.812L14.2234 142.062L31.524 152.035L33.8607 153.407L14.2234 164.736L-5.39562 153.407ZM54.8106 165.206L74.4319 153.854V176.552L54.8106 187.88V165.206ZM34.6546 176.552V153.854L54.276 165.206V187.88L34.6546 176.552ZM14.4994 165.206L34.1367 153.854V176.552L14.4994 187.88V165.206ZM-5.655 176.552V153.854L13.9807 165.206V187.88L-5.655 176.552ZM-25.7958 165.206L-6.17524 153.854V176.552L-25.7958 187.88V165.206ZM21.0404 191.948L14.7603 188.335L34.3794 176.998L54.0166 188.335L44.3435 193.938L34.3794 199.671L21.0404 191.948ZM-19.2556 191.948L-25.5349 188.335L-5.93024 176.998L13.7213 188.335L4.03317 193.938L-5.93024 199.671L-19.2556 191.948ZM34.8996 199.972L44.5878 194.384L54.5353 188.635L74.1393 199.972L54.5353 211.316L34.8996 199.972ZM-5.39562 199.972L4.29177 194.384L14.2234 188.635L33.8773 199.972L14.2234 211.316L-5.39562 199.972ZM54.8106 211.771L74.4319 200.435V223.116L54.8106 234.452V211.771ZM34.6546 223.116V200.435L54.276 211.771V234.452L34.6546 223.116ZM14.4994 211.771L34.1367 200.435V223.116L14.4994 234.452V211.771ZM-5.655 223.116V200.435L13.9807 211.771V234.452L-5.655 223.116ZM-25.7958 211.771L-6.17524 200.435V223.116L-25.7958 234.452V211.771ZM14.7437 234.915L34.3794 223.579L54.0332 234.915L44.3435 240.503L34.3794 246.252L14.7437 234.915ZM-25.5349 234.915L-5.93024 223.579L13.7213 234.915L4.03317 240.503L-5.93024 246.252L-25.5349 234.915ZM34.8996 246.545L44.5878 240.957L54.5353 235.216L74.1393 246.545L54.5353 257.89L34.8996 246.545ZM-5.39562 246.545L4.29177 240.957L14.2234 235.216L33.8607 246.545L14.2234 257.89L-5.39562 246.545ZM54.8106 258.343L74.4319 247.007V269.672L54.8106 281.034V258.343ZM34.6546 269.672V247.007L54.276 258.343V281.034L34.6546 269.672ZM14.4994 258.343L34.1367 247.007V269.672L14.4994 281.034V258.343ZM-5.655 269.672V247.007L13.9807 258.343V281.034L-5.655 269.672ZM-25.7958 258.343L-6.17524 247.007V269.672L-25.7958 281.034V258.343ZM14.7603 281.464L34.3794 270.143L54.0166 281.464L34.3794 292.808L14.7603 281.464ZM-25.5349 281.464L-5.93024 270.143L13.7213 281.464L-5.93024 292.808L-25.5349 281.464ZM34.8996 293.15L54.5353 281.788L74.1393 293.15L54.5187 304.453L34.8996 293.15ZM-5.39562 293.15L14.2234 281.788L33.8607 293.15L14.2234 304.453L-5.39562 293.15ZM54.8106 304.925L74.4319 293.572V316.245L54.8106 327.614V304.925ZM34.6546 316.245V293.572L54.276 304.925V327.614L34.6546 316.245ZM14.4994 304.925L34.1367 293.572V316.245L14.4994 327.614V304.925ZM-5.655 316.245V293.572L13.9807 304.925V327.614L-5.655 316.245ZM-25.7958 304.925L-6.17524 293.572V316.245L-25.7958 327.614V304.925ZM21.0404 331.69L14.7603 328.051L34.3794 316.699L54.0166 328.051L44.3435 333.64L34.3794 339.389L21.0404 331.69ZM-19.2556 331.69L-25.5349 328.051L-5.93024 316.699L13.7213 328.051L4.03317 333.64L-5.93024 339.389L-19.2556 331.69ZM34.8996 339.697L44.5878 334.127L54.5353 328.361L74.1393 339.697L54.5353 351.035L34.8996 339.697ZM-5.39562 339.697L4.29177 334.127L14.2234 328.361L33.8773 339.697L14.2234 351.035L-5.39562 339.697ZM54.8106 351.488L74.4319 340.136V362.858L54.8106 374.179V351.488ZM34.6546 362.858V340.136L54.276 351.488V374.179L34.6546 362.858ZM14.4994 351.488L34.1367 340.136V362.858L14.4994 374.179V351.488ZM-5.655 362.858V340.136L13.9807 351.488V374.179L-5.655 362.858ZM-25.7958 351.488L-6.17524 340.136V362.858L-25.7958 374.179V351.488ZM14.7437 374.632L34.3794 363.263L54.0332 374.632L44.3435 380.221L34.3794 385.953L14.7437 374.632ZM-25.5349 374.632L-5.93024 363.263L13.7213 374.632L4.03317 380.221L-5.93024 385.953L-25.5349 374.632ZM34.8996 386.278L54.5187 374.925L74.1393 386.278L54.5353 397.615L34.8996 386.278ZM-5.39562 386.278L14.2234 374.925L33.8773 386.278L14.2234 397.615L-5.39562 386.278ZM54.8106 398.069L74.4319 386.734V409.405L54.8106 420.743V398.069ZM34.6546 409.405V386.734L54.276 398.069V420.743L34.6546 409.405ZM14.4994 398.069L34.1367 386.734V409.405L14.4994 420.743V398.069ZM-5.655 409.405V386.734L13.9807 398.069V420.743L-5.655 409.405ZM-25.7958 398.069L-6.17524 386.734V409.405L-25.7958 420.743V398.069ZM21.0404 424.835L14.7603 421.197L34.3794 409.86L54.0166 421.197L44.3435 426.785L34.3794 432.549L21.0404 424.835ZM-19.2556 424.835L-25.5349 421.197L-5.93024 409.86L13.7213 421.197L4.03317 426.785L-5.93024 432.549L-19.2556 424.835ZM34.8996 432.859L44.5878 427.272L54.5353 421.523L74.1393 432.859L54.5187 444.195L34.8996 432.859ZM-5.39562 432.859L4.29177 427.272L14.2234 421.523L33.8773 432.859L14.2234 444.195L-5.39562 432.859ZM54.8106 444.634L74.4319 433.298V455.986L54.8106 467.307V444.634ZM34.6546 455.986V433.298L54.276 444.634V467.307L34.6546 455.986ZM14.4994 444.634L34.1367 433.298V455.986L14.4994 467.307V444.634ZM-5.655 455.986V433.298L13.9807 444.634V467.307L-5.655 455.986ZM-25.7958 444.634L-6.17524 433.298V455.986L-25.7958 467.307V444.634ZM14.7603 467.761L34.3794 456.442L54.0166 467.761L44.3435 473.349L34.3794 479.113L14.7603 467.761ZM-25.5349 467.761L-5.93024 456.442L13.7213 467.761L4.03317 473.349L-5.93024 479.113L-25.5349 467.761ZM34.8996 479.406L54.5353 468.07L57.3271 469.679L74.1393 479.406L54.5353 490.775L34.8996 479.406ZM-5.39562 479.406L14.2234 468.07L17.0319 469.679L33.8773 479.406L14.2234 490.775L-5.39562 479.406ZM54.8106 491.23L74.4319 479.876V502.55L54.8106 513.903V491.23ZM34.6546 502.55V479.876L54.276 491.23V513.903L34.6546 502.55ZM14.4994 491.23L34.1367 479.876V502.55L14.4994 513.903V491.23ZM-5.655 502.55V479.876L13.9807 491.23V513.903L-5.655 502.55ZM-25.7958 491.23L-6.17524 479.876V502.55L-25.7958 513.903V491.23ZM14.7437 514.325L34.3794 503.02L54.0332 514.325L34.3794 525.679L14.7437 514.325ZM-25.5349 514.325L-5.93024 503.02L13.7213 514.325L-5.93024 525.679L-25.5349 514.325ZM34.8996 525.986L44.5878 520.401L54.5187 514.666L71.8193 524.639L74.1393 525.986L54.5353 537.323L34.8996 525.986ZM-5.39562 525.986L4.29177 520.401L14.2234 514.666L31.524 524.639L33.8607 525.986L14.2234 537.323L-5.39562 525.986ZM54.8106 537.795L74.4319 526.442V549.114L54.8106 560.484V537.795ZM34.6546 549.114V526.442L54.276 537.795V560.484L34.6546 549.114ZM14.4994 537.795L34.1367 526.442V549.114L14.4994 560.484V537.795ZM-5.655 549.114V526.442L13.9807 537.795V560.484L-5.655 549.114ZM-25.7958 537.795L-6.17524 526.442V549.114L-25.7958 560.484V537.795ZM21.0404 564.545L14.7603 560.939L34.3794 549.57L54.0166 560.939L44.3435 566.509L34.3794 572.258L21.0404 564.545ZM-19.2556 564.545L-25.5349 560.939L-5.93024 549.57L13.7213 560.939L4.03317 566.509L-5.93024 572.258L-19.2556 564.545ZM34.8996 572.567L54.5353 561.231L74.1393 572.567L54.5187 583.904L34.8996 572.567ZM-5.39562 572.567L14.2234 561.231L33.8773 572.567L14.2234 583.904L-5.39562 572.567ZM54.8106 584.359L74.4319 573.007V595.695L54.8106 607.033V584.359ZM34.6546 595.695V573.007L54.276 584.359V607.033L34.6546 595.695ZM14.4994 584.359L34.1367 573.007V595.695L14.4994 607.033V584.359ZM-5.655 595.695V573.007L13.9807 584.359V607.033L-5.655 595.695ZM-25.7958 584.359L-6.17524 573.007V595.695L-25.7958 607.033V584.359Z" fill="#D9EAED"/>
<circle cx="34.4485" cy="107.259" r="2.5" stroke="#CBE8ED"/>
<path d="M-3.55145 84.2589L32.4485 105.759" stroke="#CBE8ED"/>
<circle cx="214.948" cy="118.259" r="2.5" stroke="#CBE8ED"/>
<circle cx="255.448" cy="118.259" r="2.5" stroke="#CBE8ED"/>
<path d="M214.948 120.759V138.759" stroke="#CBE8ED"/>
<circle cx="234.948" cy="106.759" r="2.5" stroke="#CBE8ED"/>
<circle cx="234.948" cy="130.259" r="2.5" stroke="#CBE8ED"/>
<path d="M217.448 117.259L232.448 108.259" stroke="#CBE8ED"/>
<path d="M217.448 140.259L232.948 131.259" stroke="#CBE8ED"/>
<circle cx="114.448" cy="130.259" r="2.5" stroke="#CBE8ED"/>
<path d="M116.448 131.259L131.948 140.259" stroke="#CBE8ED"/>
<path d="M237.448 107.759L252.948 117.259" stroke="#CBE8ED"/>
<path d="M237.448 131.259L272.948 152.259" stroke="#CBE8ED"/>
<circle cx="34.4485" cy="37.2589" r="2.5" stroke="#CBE8ED"/>
<path d="M34.4485 15.7589V34.7586" stroke="#CBE8ED"/>
<path d="M275.448 16.2589V35.2589" stroke="#CBE8ED"/>
<circle cx="94.4485" cy="95.2589" r="2.5" stroke="#CBE8ED"/>
<circle cx="94.4485" cy="71.7589" r="2.5" stroke="#CBE8ED"/>
<path d="M94.4485 73.7589V92.7586" stroke="#CBE8ED"/>
<circle cx="114.448" cy="37.2589" r="2.5" stroke="#CBE8ED"/>
<circle cx="255.448" cy="48.2589" r="2.5" stroke="#CBE8ED"/>
<circle cx="174.448" cy="95.2589" r="2.5" stroke="#CBE8ED"/>
<circle cx="275.448" cy="37.2589" r="2.5" stroke="#CBE8ED"/>
<circle cx="194.948" cy="83.2589" r="2.5" stroke="#CBE8ED"/>
<path d="M257.448 47.2589L272.948 38.2589" stroke="#CBE8ED"/>
<path d="M176.448 94.2589L192.448 84.7589" stroke="#CBE8ED"/>
<path d="M257.448 49.7589L292.948 70.2589" stroke="#CBE8ED"/>
<path d="M114.448 15.7589V34.2589" stroke="#CBE8ED"/>
<path d="M116.448 35.2589L132.448 26.2589" stroke="#CBE8ED"/>
</g>
</g>
<path fill-rule="evenodd" clip-rule="evenodd" d="M170.847 0.0612628C170.913 0.0285953 170.972 0 171.023 0H171.418C172.217 0.472846 172.334 1.04716 171.814 1.63943C171.117 2.41156 170.393 3.20833 169.646 4.03058C165.329 8.7803 160.239 14.3802 155.068 20.9923C149.53 28.0677 144.841 35.9321 143.009 41.9811C141.785 45.9744 141.596 48.3352 141.596 50.9949V105.902C140.486 106.177 139.867 106.231 138.769 106.15V45.7825C138.769 45.7825 138.836 36.4257 139.606 30.9345C140.596 23.828 143.686 17.993 148.02 13.7588C153.105 8.80115 161.804 2.69418 170.668 0.135293C170.734 0.116511 170.793 0.087567 170.847 0.0612628ZM107.538 14.739V13.8867C107.538 13.6564 107.971 13.4862 108.406 13.4862C108.441 13.4862 108.441 13.4862 108.477 13.4953C112.356 13.7053 119.22 15.3006 124.621 17.5428C128.877 19.3026 130.463 20.8369 132.242 23C133.643 24.6778 134.762 26.8682 135.369 30.3857L136.639 41.1683C129.052 33.1902 123.865 28.67 121.379 26.5342C116.334 22.1624 112.272 18.7789 108.948 16.0099C108.533 15.664 108.129 15.3276 107.736 15.0002C107.727 14.9919 107.717 14.9837 107.708 14.9756C107.62 14.9005 107.538 14.83 107.538 14.739Z" fill="#7AC30F"/>
<defs>
<clipPath id="clip0">
<rect width="1022.11" height="766.583" fill="white" transform="translate(-36.5515 4.25888)"/>
</clipPath>
</defs>
</svg>
