<svg width="32" height="39" viewBox="0 0 32 39" fill="none" xmlns="http://www.w3.org/2000/svg">
<path fill-rule="evenodd" clip-rule="evenodd" d="M1.41098 15.4065C1.41098 17.9863 2.23833 20.6426 3.29466 23.0314C4.36739 25.4573 5.77646 27.8282 7.15728 29.895C9.91843 34.0277 12.7273 37.1813 12.9914 37.4754C14.596 39.2626 17.4005 39.2667 19.0088 37.4755C19.2725 37.1819 22.0816 34.0281 24.8431 29.895C26.2239 27.8282 27.6329 25.4573 28.7057 23.0314C29.762 20.6426 30.5894 17.9863 30.5894 15.4065C30.5894 7.35939 24.0473 0.817383 16.0002 0.817383C7.95303 0.817383 1.41114 7.35947 1.41098 15.4065Z" fill="#07150A" fill-opacity="0.15"/>
<path fill-rule="evenodd" clip-rule="evenodd" d="M2.41098 15.4065C2.41098 17.7873 3.17864 20.2964 4.20923 22.627C5.25079 24.9824 6.62691 27.3011 7.98878 29.3394C10.7122 33.4157 13.4858 36.5293 13.7355 36.8073C14.9433 38.1526 17.0544 38.1555 18.2648 36.8074C18.5143 36.5295 21.288 33.4159 24.0116 29.3394C25.3734 27.3011 26.7495 24.9824 27.7911 22.627C28.8217 20.2964 29.5894 17.7873 29.5894 15.4065C29.5894 7.91168 23.495 1.81738 16.0002 1.81738C8.50533 1.81738 2.41113 7.91174 2.41098 15.4065Z" fill="white"/>
<path d="M16.0002 3.81738C22.3905 3.81738 27.5894 9.01626 27.5894 15.4065C27.5894 23.337 17.2182 34.9794 16.7766 35.4712C16.3619 35.9331 15.6377 35.9323 15.2237 35.4712C14.7822 34.9794 4.41098 23.337 4.41098 15.4065C4.41111 9.01626 9.60992 3.81738 16.0002 3.81738ZM16.0002 21.2373C19.2153 21.2373 21.8309 18.6216 21.8309 15.4065C21.8309 12.1914 19.2152 9.57576 16.0002 9.57576C12.7851 9.57576 10.1695 12.1914 10.1695 15.4066C10.1695 18.6217 12.7851 21.2373 16.0002 21.2373Z" fill="#2C382F"/>
</svg>
