<svg width="107" height="115" viewBox="0 0 107 115" fill="none" xmlns="http://www.w3.org/2000/svg">
<circle cx="2" cy="49" r="2" fill="#7AC30F"/>
<circle cx="10" cy="49" r="2" fill="#7AC30F"/>
<circle cx="18" cy="58" r="3" fill="#7AC30F"/>
<circle cx="26" cy="58" r="3.5" fill="#7AC30F"/>
<circle cx="26" cy="66" r="3.5" fill="#7AC30F"/>
<circle cx="33.5" cy="33.5" r="2.5" fill="#7AC30F"/>
<circle cx="33.5" cy="41.5" r="2.5" fill="#7AC30F"/>
<circle cx="33.5" cy="49.5" r="2.5" fill="#7AC30F"/>
<circle cx="32.5" cy="65.5" r="2.5" fill="#7AC30F"/>
<circle cx="32.5" cy="73.5" r="3.5" fill="#7AC30F"/>
<circle cx="32.5" cy="81" r="2" fill="#7AC30F"/>
<circle cx="40" cy="18" r="3" fill="#7AC30F"/>
<circle cx="40.5" cy="25.5" r="3.5" fill="#7AC30F"/>
<circle cx="40.5" cy="33.5" r="3.5" fill="#7AC30F"/>
<circle cx="40.5" cy="41.5" r="3.5" fill="#7AC30F"/>
<circle cx="40.5" cy="49.5" r="3.5" fill="#7AC30F"/>
<circle cx="40.5" cy="57.5" r="3.5" fill="#7AC30F"/>
<circle cx="40.5" cy="65.5" r="3.5" fill="#7AC30F"/>
<circle cx="40.5" cy="74" r="2.5" fill="#7AC30F"/>
<circle cx="40.5" cy="81" r="2" fill="#7AC30F"/>
<circle cx="40.5" cy="89" r="2" fill="#7AC30F"/>
<circle cx="40.5" cy="97" r="2" fill="#7AC30F"/>
<circle cx="40.5" cy="105" r="2" fill="#7AC30F"/>
<circle cx="40.5" cy="113" r="2" fill="#7AC30F"/>
<circle cx="48" cy="2" r="2" fill="#7AC30F"/>
<circle cx="48" cy="10" r="3" fill="#7AC30F"/>
<circle cx="48" cy="18" r="3" fill="#7AC30F"/>
<circle cx="48" cy="26" r="3" fill="#7AC30F"/>
<circle cx="48" cy="34" r="3" fill="#7AC30F"/>
<circle cx="48" cy="42" r="3" fill="#7AC30F"/>
<circle cx="48" cy="50" r="3" fill="#7AC30F"/>
<circle cx="48" cy="58" r="3" fill="#7AC30F"/>
<circle cx="47" cy="65" r="2" fill="#7AC30F"/>
<circle cx="54" cy="50" r="2" fill="#7AC30F"/>
<circle cx="18" cy="49" r="2" fill="#7AC30F"/>
<circle cx="65" cy="57.5" r="2" fill="#7AC30F"/>
<circle cx="97" cy="65.5" r="2" fill="#7AC30F"/>
<circle cx="73.5" cy="57.5" r="2.5" fill="#7AC30F"/>
<circle cx="81" cy="57.5" r="2" fill="#7AC30F"/>
<circle cx="89" cy="57.5" r="2" fill="#7AC30F"/>
<circle cx="97" cy="57.5" r="2" fill="#7AC30F"/>
<circle cx="105" cy="65.5" r="2" fill="#7AC30F"/>
<circle cx="49.5" cy="81.5" r="2.5" fill="#7AC30F"/>
<circle cx="49.5" cy="89" r="2.5" fill="#7AC30F"/>
<circle cx="49" cy="97" r="2" fill="#7AC30F"/>
<circle cx="54.5" cy="25.5" r="2.5" fill="#7AC30F"/>
<circle cx="54.5" cy="33.5" r="2.5" fill="#7AC30F"/>
<circle cx="54.5" cy="41.5" r="2.5" fill="#7AC30F"/>
<circle cx="56.5" cy="65.5" r="2.5" fill="#7AC30F"/>
<circle cx="56.5" cy="73.5" r="3.5" fill="#7AC30F"/>
<circle cx="56.5" cy="81.5" r="2.5" fill="#7AC30F"/>
<circle cx="64.5" cy="65.5" r="3.5" fill="#7AC30F"/>
<circle cx="64.5" cy="73.5" r="2.5" fill="#7AC30F"/>
<circle cx="73.5" cy="65.5" r="2.5" fill="#7AC30F"/>
</svg>
