<svg width="26" height="30" viewBox="0 0 26 30" fill="none" xmlns="http://www.w3.org/2000/svg">
<path fill-rule="evenodd" clip-rule="evenodd" d="M25.2631 0.0239944C25.2897 0.0111961 25.3129 0 25.333 0H25.4907C25.8104 0.188507 25.8571 0.417591 25.6493 0.653639C25.3671 0.965466 25.074 1.28734 24.7713 1.61961C23.0476 3.51218 21.0166 5.74208 18.9535 8.37438C16.7393 11.1971 14.8641 14.3346 14.1318 16.7479C13.8278 17.7378 13.6835 18.4766 13.6178 19.1487L13.567 20.5242V29.9951L12.4364 30V19.1495V18.2638C12.4364 18.2638 12.4634 14.5313 12.7712 12.3409C13.1671 9.50544 14.4022 7.17815 16.1357 5.48893C18.1683 3.5108 21.6468 1.07491 25.1916 0.0532722C25.2177 0.0459118 25.2415 0.0344238 25.2631 0.0239944ZM0 5.52352V5.85833C0 5.89359 0.0325944 5.92128 0.0673866 5.95084L0.079502 5.96119L0.564363 6.35727C1.89813 7.44646 3.5277 8.77722 5.55164 10.4965C6.54911 11.3366 8.62969 13.1144 11.6729 16.2514L11.1631 12.0116C10.9197 10.6276 10.471 9.76665 9.90911 9.10686C9.19522 8.2561 8.55962 7.65287 6.85237 6.96071C4.68572 6.07921 1.93264 5.4518 0.376611 5.36943C0.369657 5.36758 0.366138 5.36666 0.362601 5.3662L0.356941 5.36581C0.356941 5.36581 0.351974 5.36574 0.348336 5.36574C0.173758 5.36574 0 5.43254 0 5.52352Z" fill="#7AC30F"/>
</svg>
