<svg width="100" height="55" viewBox="0 0 100 55" fill="none" xmlns="http://www.w3.org/2000/svg">
<path fill-rule="evenodd" clip-rule="evenodd" d="M33.0885 1.01734C33.1093 1.00722 33.1275 0.998352 33.1433 0.998352H33.266C33.5142 1.14494 33.5506 1.323 33.3892 1.50662C33.1726 1.74599 32.9476 1.99299 32.7154 2.24789C31.374 3.72044 29.7925 5.45658 28.1856 7.50654C26.4648 9.70012 25.0076 12.1383 24.4386 14.0137C24.2021 14.7834 24.09 15.3575 24.0389 15.8798C31.1211 15.9073 39.6565 16.6751 44.1517 18.3861C44.4207 18.5514 44.6767 18.742 44.8331 18.9173C45.0846 19.2086 45.1539 19.4112 45.1539 19.6173C45.1539 19.9287 44.99 20.2382 44.6803 20.5341C41.3384 18.2443 33.3566 16.9798 23.9994 16.9486V20.3929C28.1243 20.4019 32.9363 20.6 36.1585 21.3314C36.205 21.3488 36.2595 21.3728 36.303 21.3942C36.6617 21.5553 37.129 21.8055 37.129 22.1241C37.129 22.3996 36.9262 22.6446 36.5587 22.855C34.0971 21.6426 28.6381 21.4272 23.9994 21.4194V29.1367C24.0634 29.136 24.1274 29.1357 24.1914 29.1357C27.0394 29.1357 29.5677 29.3302 31.1513 29.9089C31.497 30.0987 31.6881 30.3177 31.6834 30.5548C31.6787 30.7746 31.5565 30.9729 31.3181 31.1437C30.6998 30.3343 27.2453 29.9356 24.133 29.9356C24.0883 29.9356 24.0438 29.9358 23.9994 29.9361V41.2689H23.1209V40.6986C22.8594 39.1889 21.9262 38.1733 20.8263 37.2699C20.2415 36.7912 19.5607 36.3177 18.9454 35.8899C18.3549 35.4792 17.8247 35.1106 17.4978 34.8195C16.7766 34.1735 16.4133 33.6718 16.1778 33.2019C16.4505 33.3196 16.7341 33.4328 17.0223 33.5385C17.3089 33.647 17.6205 33.7435 17.9522 33.8396C18.3231 34.294 19.0221 34.8044 19.7991 35.3717L19.7991 35.3717C21.0302 36.2707 22.457 37.3125 23.0845 38.5009C23.0967 38.5239 23.1089 38.5472 23.1209 38.5707V29.963C20.3665 30.113 18.2839 30.8568 17.5368 31.5934C17.1604 31.5043 16.8045 31.407 16.4606 31.3029L16.2797 31.2216C17.1461 30.2137 20.0128 29.3346 23.1209 29.1651V21.4251C21.4689 21.4565 19.5245 21.6104 17.7558 21.856C15.7623 22.1378 13.2 22.6711 11.7276 23.5496H11.7186C11.3005 23.4588 10.8898 23.3959 10.4917 23.335L10.4917 23.335L10.4916 23.335C10.2471 23.2975 10.0074 23.2608 9.7735 23.2188C11.8601 21.4982 17.9777 20.4694 23.1209 20.3967V16.9493C13.6907 16.9958 5.68291 18.2995 2.45316 20.6437C2.08978 20.318 1.89867 19.9788 1.89867 19.6349C1.89867 19.2835 2.25086 18.8645 2.7293 18.5426C7.07493 16.7339 15.8292 15.9177 23.1209 15.8804V15.1922C23.1209 15.1922 23.1417 12.2913 23.381 10.5889C23.6887 8.38569 24.6487 6.57668 25.9957 5.26395C27.5755 3.72695 30.2786 1.83363 33.0331 1.0403C33.0534 1.03447 33.0718 1.0255 33.0885 1.01734ZM13.4561 5.29076V5.5512C13.4561 5.57902 13.4817 5.60056 13.5091 5.62354L13.5179 5.63103L13.8958 5.93969L13.896 5.93987C14.9321 6.78606 16.1981 7.82001 17.7707 9.15594C18.5456 9.80867 20.1625 11.1901 22.5275 13.6283L22.1313 10.333C21.9422 9.25803 21.5935 8.58862 21.1567 8.07585C20.6022 7.41478 20.1079 6.94589 18.7813 6.40809C17.0977 5.72283 14.958 5.23532 13.7489 5.17112C13.7443 5.16998 13.7416 5.1693 13.7392 5.1689C13.7359 5.16834 13.7332 5.16833 13.7268 5.16833C13.5911 5.16833 13.4561 5.22034 13.4561 5.29076Z" fill="#07150A"/>
<path fill-rule="evenodd" clip-rule="evenodd" d="M66.6752 49.7749H65.7825C64.9111 49.7749 64.7382 49.8761 64.7382 50.4445C64.7382 50.9918 64.8897 51.1287 65.7534 51.1287C66.6681 51.1287 66.8551 50.9918 66.8551 50.4445C66.8551 50.1494 66.7832 49.9403 66.6752 49.7749ZM64.8679 52.6265C64.7671 52.7992 64.659 53.0443 64.659 53.2243C64.659 53.6563 64.8968 53.7717 65.8831 53.7717C66.9418 53.7717 67.1432 53.6129 67.1432 53.2384C67.1432 52.7847 67.0137 52.6914 65.9188 52.6914C65.4656 52.6914 65.1054 52.6698 64.8679 52.6265ZM63.9029 53.4183C63.9029 53.0151 64.198 52.7344 64.5655 52.5545C64.2267 52.4322 64.1768 52.252 64.1768 52.0433C64.1768 51.8129 64.3493 51.6254 64.5725 51.4961C64.1261 51.3303 63.9823 50.9992 63.9823 50.4518C63.9823 49.487 64.6087 49.2204 65.7607 49.2204H67.9716C68.0146 49.2204 68.0506 49.2493 68.0506 49.2855V49.7101C68.0506 49.7462 68.0146 49.7749 67.9716 49.7749H67.1072C67.3955 49.9839 67.5969 50.2646 67.5969 50.5888C67.5969 51.3522 66.9705 51.6615 65.811 51.6615C65.4442 51.6615 65.12 51.6472 64.8679 51.5895C64.8176 51.6543 64.8028 51.7478 64.8028 51.8056C64.8028 52.072 64.9254 52.1585 66.0415 52.1585C67.4385 52.1585 67.9354 52.3601 67.9354 53.1883C67.9354 54.0233 67.3307 54.3332 65.8472 54.3332C64.443 54.3332 63.9029 54.0882 63.9029 53.4183ZM36.1326 52.1367C36.4493 52.2807 36.9319 52.3531 37.2916 52.3531C38.2495 52.3531 38.3936 52.2447 38.3936 51.0423C38.3936 49.8541 38.2495 49.7392 37.2916 49.7392C36.9319 49.7392 36.4493 49.8111 36.1326 49.9553V52.1367ZM35.4124 49.2855C35.4124 49.2493 35.4484 49.2204 35.4914 49.2204H36.0532C36.0964 49.2204 36.1326 49.2493 36.1326 49.2855V49.6093C36.3772 49.343 37.0254 49.1196 37.5078 49.1196C38.7103 49.1196 39.1856 49.5589 39.1856 51.0423C39.1856 52.5258 38.7103 52.972 37.5007 52.972C37.0254 52.972 36.3772 52.7487 36.1326 52.4753V54.1892C36.1326 54.2254 36.0964 54.2541 36.0532 54.2541H35.4914C35.4484 54.2541 35.4124 54.2254 35.4124 54.1892V49.2855ZM25.9589 52.2088C25.6349 52.31 25.2606 52.3531 24.8788 52.3531C23.9714 52.3531 23.7268 52.2591 23.7268 51.0423C23.7268 49.8761 23.9213 49.7392 24.8212 49.7392C25.2028 49.7392 25.6349 49.7822 25.9589 49.8832C25.9875 49.8903 26.038 49.8761 26.0453 49.8398L26.1318 49.343C26.1461 49.2996 26.1318 49.2637 26.0885 49.2493C25.7284 49.163 25.2317 49.1197 24.8212 49.1197C23.4098 49.1197 22.9345 49.5519 22.9345 51.0352C22.9345 52.5185 23.4025 52.972 24.8212 52.972C25.2317 52.972 25.7284 52.9219 26.0885 52.8425C26.1318 52.8282 26.1461 52.7922 26.1318 52.7488L26.0453 52.252C26.038 52.2159 25.9875 52.2015 25.9589 52.2088ZM45.1438 39.1342C45.458 38.8091 45.6722 38.3704 45.6722 37.8927V33.9565C45.6722 33.542 45.4794 33.0861 45.153 32.7411C44.8288 32.4007 44.3297 32.1866 43.8403 32.1866C43.3519 32.1866 42.8762 32.3945 42.5547 32.7223C42.2252 33.0572 42.0112 33.542 42.0112 33.9529V37.8927C42.0112 38.3638 42.2656 38.8479 42.5753 39.1537C42.8961 39.4663 43.3545 39.6656 43.867 39.6656C44.3864 39.6656 44.8453 39.4413 45.1438 39.1342ZM49.1864 32.4492V39.4002C49.1864 40.3765 48.3959 41.1221 47.4059 41.1221H40.3006C39.3114 41.1221 38.4967 40.3517 38.4967 39.3959V32.4471C38.4967 31.5656 39.2344 30.7252 40.3006 30.7252H47.4059C48.4258 30.7252 49.1864 31.4905 49.1864 32.4492ZM17.0223 33.5998C18.768 34.2364 21.5289 34.7242 23.9949 34.7242C29.9276 34.7242 32.9794 33.493 32.9794 31.7009C32.9794 30.8202 32.1182 30.1981 30.838 29.805C31.3225 30.0156 31.5887 30.2749 31.583 30.5568C31.5712 31.6739 28.3615 32.1755 23.8984 32.1755C22.3873 32.1755 20.3979 32.0264 19.1035 31.8222C16.1397 31.3627 14.0536 30.4624 12.7644 29.2719C11.845 28.4163 11.2419 27.774 10.9762 26.7746C14.6504 27.414 19.0108 27.7738 23.6816 27.7738C25.304 27.7738 27.5226 27.694 27.6904 27.6829C34.6469 27.3715 39.9447 26.1097 39.8353 23.7122C39.787 22.5942 38.3833 21.7885 36.048 21.3091C35.9378 21.2851 35.7745 21.2509 35.7745 21.2509C35.7745 21.2509 36.0063 21.3241 36.1619 21.3906C36.5199 21.5541 36.9871 21.8026 36.9871 22.1232C36.9871 23.2848 33.4235 23.8335 28.4144 24.0375C28.0129 24.0533 24.846 24.1415 23.6324 24.1415C11.774 24.1415 2.02122 22.1073 2.02122 19.6349C2.02122 19.2281 2.49019 18.729 3.08171 18.4037C1.17178 19.1099 0 20.0056 0 21.0968C0 23.3734 3.68424 25.2837 9.37813 26.4699C10.0525 29.3905 12.9822 32.1166 17.0223 33.5998ZM45.6758 19.0862C45.1511 18.7846 44.4633 18.4872 43.6751 18.2135C44.0718 18.4056 44.4817 18.6862 44.7034 18.9387C44.9585 19.2281 45.0402 19.4318 45.0402 19.6394C45.0402 20.3375 44.208 21.0005 42.8899 21.5918V24.9573C42.8899 24.9573 42.8764 25.0927 42.9896 25.0703C45.6726 24.0218 47.277 22.7654 47.277 21.0968C47.277 20.3653 46.7532 19.7051 45.6758 19.0862ZM82.7206 34.7494V35.9968H79.2062V33.9678C79.2062 33.3853 79.4283 32.9684 79.7236 32.6883C80.0789 32.3561 80.4754 32.1866 80.9638 32.1866C81.4498 32.1866 81.887 32.3703 82.2429 32.7448C82.5729 33.1009 82.7206 33.5542 82.7206 33.9638V34.7494ZM84.5191 30.7252H77.4066C76.3275 30.7252 75.6915 31.5701 75.6915 32.4492V39.4002C75.6915 40.3423 76.3791 41.1221 77.4066 41.1221H86.0884V39.6579H80.8459C79.8717 39.6579 79.2062 38.9489 79.2062 38.0042V37.4613H86.2353V32.4582C86.2353 31.4607 85.5057 30.7252 84.5191 30.7252ZM65.2946 27.6499H68.809V30.7252H72.3234V32.1896H68.809V38.0042C68.809 38.8907 69.4983 39.6579 70.4791 39.6579H72.3234V41.1221H67.036C66.0271 41.1221 65.2946 40.3703 65.2946 39.4002V27.6499ZM95.2137 32.1866L100 32.1819V30.7252H91.8076C90.8501 30.7252 90.0424 31.4543 90.0424 32.4398V39.4051C90.0424 40.1886 90.6369 41.1221 91.8076 41.1221H100V39.6579H95.2435C94.3868 39.6579 93.5569 38.9981 93.5569 38.0021V33.873C93.5569 32.7854 94.4144 32.1866 95.2137 32.1866ZM27.7443 51.0423C27.7443 52.2591 27.8954 52.3672 28.9109 52.3672C29.9261 52.3672 30.0702 52.2591 30.0702 51.0423C30.0702 49.8614 29.9261 49.7247 28.9109 49.7247C27.8954 49.7247 27.7443 49.8614 27.7443 51.0423ZM26.9523 51.0278C26.9523 49.5376 27.4706 49.1197 28.9109 49.1197C30.3437 49.1197 30.8622 49.5376 30.8622 51.0278C30.8622 52.5258 30.3582 52.972 28.9109 52.972C27.4636 52.972 26.9523 52.5258 26.9523 51.0278ZM34.7358 49.2707C34.7501 49.2347 34.7214 49.1915 34.6782 49.1844C34.5198 49.1412 34.311 49.1196 34.0805 49.1196C33.5549 49.1196 33.1517 49.336 32.7917 49.6092L32.5756 49.1556C32.5612 49.1269 32.5107 49.1123 32.4748 49.1269L31.9635 49.307C31.9275 49.3287 31.9059 49.3646 31.9275 49.4006L32.1291 49.8182V52.8063C32.1291 52.8424 32.158 52.8714 32.201 52.8714H32.7628C32.806 52.8714 32.842 52.8424 32.842 52.8063V49.9552C33.1733 49.8397 33.5262 49.7678 33.8861 49.7678C34.138 49.7678 34.3687 49.8038 34.5487 49.8541C34.5847 49.8614 34.6352 49.8397 34.6422 49.8038L34.7358 49.2707ZM42.2669 52.3672C41.2516 52.3672 41.1005 52.2591 41.1005 51.0423C41.1005 49.8614 41.2516 49.7247 42.2669 49.7247C43.2821 49.7247 43.4262 49.8614 43.4262 51.0423C43.4262 52.2591 43.2821 52.3672 42.2669 52.3672ZM42.2669 49.1197C40.8268 49.1197 40.3083 49.5376 40.3083 51.0278C40.3083 52.5258 40.8196 52.972 42.2669 52.972C43.7142 52.972 44.2184 52.5258 44.2184 51.0278C44.2184 49.5376 43.6999 49.1197 42.2669 49.1197ZM48.0344 49.1844C48.0776 49.1915 48.1063 49.2347 48.092 49.2707L47.9984 49.8038C47.991 49.8397 47.9407 49.8614 47.9047 49.8541C47.7247 49.8038 47.4945 49.7678 47.2421 49.7678C46.8822 49.7678 46.5293 49.8397 46.1982 49.9552V52.8063C46.1982 52.8424 46.1623 52.8714 46.1188 52.8714H45.557C45.514 52.8714 45.4851 52.8424 45.4851 52.8063V49.8182L45.2838 49.4006C45.2619 49.3646 45.2838 49.3287 45.3197 49.307L45.8312 49.1269C45.8671 49.1123 45.9174 49.1269 45.9316 49.1556L46.1479 49.6092C46.5079 49.336 46.9111 49.1196 47.4367 49.1196C47.6669 49.1196 47.8758 49.1412 48.0344 49.1844ZM50.3958 52.3672C49.5678 52.3672 49.4165 52.252 49.4165 51.7479C49.4165 51.2441 49.5678 51.1216 50.3958 51.1216C50.7559 51.1216 51.224 51.1938 51.548 51.3376V52.1586C51.224 52.3024 50.7559 52.3672 50.3958 52.3672ZM52.2681 52.3242V50.625C52.2681 49.4367 51.6633 49.1197 50.4172 49.1197C49.9205 49.1197 49.4383 49.163 49.0349 49.2493C48.9917 49.2637 48.9701 49.2996 48.9917 49.343L49.0709 49.8038C49.0779 49.8398 49.1357 49.8541 49.1573 49.847C49.4886 49.7533 50.0142 49.703 50.3742 49.703C51.2886 49.703 51.548 49.8614 51.548 50.632V51.0352C51.3535 50.8191 50.7414 50.5601 50.259 50.5601C49.0349 50.5601 48.646 50.9055 48.646 51.7627C48.646 52.6193 49.0349 52.972 50.259 52.972C50.7414 52.972 51.3607 52.6914 51.555 52.4753L51.7641 52.9287C51.7785 52.9578 51.8288 52.9797 51.8647 52.965L52.3978 52.7847C52.4338 52.7706 52.4552 52.7345 52.4338 52.6985L52.2681 52.3242ZM54.5501 49.2204H55.9471C55.9906 49.2204 56.0267 49.2493 56.0267 49.2855V49.7392C56.0267 49.7749 55.9906 49.8038 55.9471 49.8038H54.5501V51.5968C54.5501 52.2666 54.7012 52.3383 55.2775 52.3383C55.4936 52.3383 55.7385 52.31 55.9328 52.252C55.9906 52.2377 56.012 52.2666 56.0195 52.2951L56.1128 52.7847C56.1201 52.8282 56.1057 52.8569 56.0552 52.8714C55.796 52.9287 55.4361 52.972 55.1119 52.972C54.2047 52.972 53.8302 52.7128 53.8302 51.6329V49.8038H53.2181C53.1751 49.8038 53.1389 49.7749 53.1389 49.7392V49.2855C53.1389 49.2493 53.1751 49.2204 53.2181 49.2204H53.8302V48.5005C53.8302 48.4645 53.8445 48.4357 53.8877 48.4213L54.4638 48.2557C54.4711 48.2557 54.4782 48.2484 54.4927 48.2484C54.5214 48.2484 54.5501 48.2702 54.5501 48.2989V49.2204ZM58.8197 49.6887C59.655 49.6887 59.8495 49.8182 59.8784 50.625H57.7469C57.7901 49.8182 58.0063 49.6887 58.8197 49.6887ZM60.2818 52.2666C60.2744 52.2306 60.2241 52.2159 60.1952 52.2232C59.8714 52.31 59.4031 52.382 59.0145 52.382C57.9633 52.382 57.754 52.2881 57.7399 51.1433H60.4834C60.5335 51.1433 60.6056 51.1071 60.6056 51.0496C60.6056 49.4798 60.1592 49.1197 58.8486 49.1197C57.5092 49.1197 56.9694 49.5661 56.9694 51.0352C56.9694 52.5258 57.4661 52.972 58.9638 52.972C59.3742 52.972 59.972 52.9144 60.3321 52.8355C60.3754 52.8209 60.3897 52.7847 60.3754 52.7417L60.2818 52.2666ZM71.6579 49.2707C71.6722 49.2347 71.6431 49.1915 71.5999 49.1844C71.4415 49.1412 71.2327 49.1196 71.0022 49.1196C70.477 49.1196 70.0736 49.336 69.7134 49.6092L69.4975 49.1556C69.4831 49.1269 69.4326 49.1123 69.3967 49.1269L68.8854 49.307C68.8495 49.3287 68.8278 49.3646 68.8495 49.4006L69.0511 49.8182V52.8063C69.0511 52.8424 69.0797 52.8714 69.123 52.8714H69.6847C69.7278 52.8714 69.7637 52.8424 69.7637 52.8063V49.9552C70.095 49.8397 70.4481 49.7678 70.8079 49.7678C71.0602 49.7678 71.2905 49.8038 71.4704 49.8541C71.5066 49.8614 71.5569 49.8397 71.564 49.8038L71.6579 49.2707ZM73.0184 51.0423C73.0184 52.2591 73.1694 52.3672 74.1845 52.3672C75.2002 52.3672 75.344 52.2591 75.344 51.0423C75.344 49.8614 75.2002 49.7247 74.1845 49.7247C73.1694 49.7247 73.0184 49.8614 73.0184 51.0423ZM72.2261 51.0278C72.2261 49.5376 72.7446 49.1197 74.1845 49.1197C75.6179 49.1197 76.1364 49.5376 76.1364 51.0278C76.1364 52.5258 75.6322 52.972 74.1845 52.972C72.7374 52.972 72.2261 52.5258 72.2261 51.0278ZM81.0464 52.7847C81.0828 52.7706 81.1042 52.7345 81.0828 52.6985L80.9169 52.3242V49.2855C80.9169 49.2493 80.881 49.2204 80.8377 49.2204H80.2762C80.2329 49.2204 80.197 49.2493 80.197 49.2855V52.1368C79.873 52.2807 79.4482 52.3242 79.0878 52.3242C78.1519 52.3242 77.9865 52.2447 77.9865 51.1792V49.2855C77.9865 49.2493 77.9501 49.2204 77.9071 49.2204H77.3453C77.3021 49.2204 77.2661 49.2493 77.2661 49.2855V51.2657C77.2661 52.6411 77.7198 52.972 78.7856 52.972C79.3906 52.972 79.9449 52.7201 80.2041 52.4826L80.4129 52.936C80.4275 52.9649 80.478 52.9797 80.5139 52.965L81.0464 52.7847ZM82.9472 52.1367C83.264 52.2807 83.7465 52.3531 84.1065 52.3531C85.0642 52.3531 85.2082 52.2447 85.2082 51.0423C85.2082 49.8541 85.0642 49.7392 84.1065 49.7392C83.7465 49.7392 83.264 49.8111 82.9472 49.9553V52.1367ZM82.2269 49.2855C82.2269 49.2493 82.2628 49.2204 82.3065 49.2204H82.868C82.9113 49.2204 82.9472 49.2493 82.9472 49.2855V49.6093C83.192 49.343 83.8401 49.1196 84.3224 49.1196C85.5252 49.1196 86.0005 49.5589 86.0005 51.0423C86.0005 52.5258 85.5252 52.972 84.3154 52.972C83.8401 52.972 83.192 52.7487 82.9472 52.4753V54.1892C82.9472 54.2254 82.9113 54.2541 82.868 54.2541H82.3065C82.2628 54.2541 82.2269 54.2254 82.2269 54.1892V49.2855ZM59.8521 35.1183C60.8896 35.1183 61.6338 36.0488 61.6338 36.9417V39.4002C61.6338 40.3089 60.8802 41.1221 59.8455 41.1221H52.7011V39.6579H56.5782C57.3943 39.6579 58.0675 39.0146 58.0675 38.1951C58.0675 37.2798 57.3164 36.7292 56.5748 36.7292H54.5148C53.5616 36.7292 52.7011 35.9016 52.7011 34.9058V32.4471C52.7011 31.4458 53.5749 30.7252 54.5148 30.7252H61.6338V32.1819L57.7968 32.1725C57.0082 32.1725 56.2949 32.803 56.2949 33.6597C56.2949 34.4986 57.002 35.1183 57.791 35.1183H59.8521Z" fill="#07150A"/>
<path d="M43.8512 23.3072C43.8512 24.2525 43.4333 25.0157 42.9186 25.0157C42.3977 25.0157 41.9851 24.2525 41.9851 23.3072C41.9851 22.3622 42.3977 21.6009 42.9186 21.6009C43.4333 21.6009 43.8512 22.3622 43.8512 23.3072Z" fill="#00674C"/>
</svg>
