<svg width="100" height="54" viewBox="0 0 100 54" fill="none" xmlns="http://www.w3.org/2000/svg">
<path fill-rule="evenodd" clip-rule="evenodd" d="M33.7973 0.0189056C33.8183 0.0087471 33.8368 -0.000141144 33.8527 -0.000141144H33.9779C34.2317 0.14949 34.2688 0.331333 34.1038 0.5187C33.8798 0.76622 33.6471 1.02172 33.4069 1.28547C32.0386 2.78773 30.4265 4.55777 28.7889 6.64722C27.0313 8.88783 25.5428 11.3783 24.9615 13.2939C24.7202 14.0796 24.6057 14.6661 24.5535 15.1996C31.7871 15.2277 40.5056 16.0121 45.0968 17.7595C45.3716 17.928 45.6328 18.1232 45.7929 18.3021C46.0495 18.5994 46.1205 18.807 46.1205 19.0171C46.1205 19.3352 45.9529 19.6514 45.6367 19.9536C42.2233 17.615 34.0709 16.3233 24.5132 16.2914V19.8092C28.7267 19.8183 33.6414 20.0205 36.9325 20.7678C36.9797 20.7857 37.0356 20.8101 37.0802 20.8319C37.4464 20.9968 37.924 21.2522 37.924 21.5778C37.924 21.8592 37.7164 22.1093 37.3414 22.324C34.8273 21.086 29.2512 20.8661 24.5132 20.8581V28.7404C24.5785 28.7397 24.6438 28.7394 24.7091 28.7394C27.6182 28.7394 30.2007 28.9381 31.8181 29.5289C32.171 29.7234 32.3662 29.9469 32.3616 30.1892C32.3571 30.4137 32.2315 30.6163 31.9885 30.7907C31.3568 29.9638 27.8287 29.5565 24.6496 29.5565C24.604 29.5565 24.5585 29.5567 24.5132 29.557V41.1318H23.6157V40.5485C23.3482 39.0074 22.3954 37.9704 21.2721 37.0479C20.6744 36.5583 19.9783 36.0743 19.3495 35.6369C18.7469 35.2179 18.206 34.8418 17.8724 34.5447C17.1356 33.885 16.7645 33.3724 16.5241 32.8926C16.8025 33.0129 17.0924 33.1284 17.3868 33.2364C17.6792 33.347 17.9977 33.4456 18.3366 33.5441C18.7154 34.0081 19.4292 34.5294 20.2227 35.1087C21.4802 36.0269 22.9377 37.0911 23.5787 38.3051C23.5911 38.3285 23.6035 38.3522 23.6157 38.3761V29.5844C20.8024 29.7377 18.6754 30.4974 17.9121 31.2497C17.5276 31.1589 17.164 31.0594 16.813 30.9533L16.6282 30.87C17.5129 29.8408 20.4411 28.9426 23.6157 28.7694V20.864C21.9285 20.896 19.9422 21.0531 18.1358 21.3039C16.0998 21.5914 13.4825 22.1366 11.9786 23.0338H11.9692C11.5426 22.9412 11.1235 22.877 10.7173 22.8147L10.7172 22.8147C10.4671 22.7764 10.2219 22.7388 9.98263 22.6958C12.114 20.9384 18.3627 19.8873 23.6157 19.8131V16.2922C13.9835 16.3397 5.80424 17.6713 2.50585 20.0655C2.13436 19.7331 1.93951 19.3866 1.93951 19.035C1.93951 18.6762 2.29896 18.2481 2.78755 17.9196C7.22636 16.0721 16.1678 15.2384 23.6157 15.2002V14.4972C23.6157 14.4972 23.6372 11.5344 23.8815 9.79572C24.1957 7.54502 25.1762 5.69769 26.5522 4.35683C28.1656 2.78664 30.9267 0.8531 33.7405 0.0421448C33.7612 0.0363045 33.7801 0.0271835 33.7973 0.0189056ZM13.7441 4.38428V4.65005C13.7441 4.67804 13.7699 4.70002 13.7976 4.72348L13.8072 4.73169L14.1921 5.04609C15.2508 5.91066 16.5443 6.96698 18.1508 8.33171C18.9426 8.99856 20.5941 10.4097 23.0097 12.8998L22.6051 9.53432C22.4118 8.4358 22.0556 7.75237 21.6097 7.22864C21.043 6.55333 20.5385 6.0745 19.1833 5.52509C17.4635 4.82538 15.2782 4.32735 14.043 4.26197L14.043 4.26196C14.0375 4.2605 14.0347 4.25977 14.0319 4.25941C14.0305 4.25923 14.0291 4.25914 14.0274 4.25909C14.0256 4.25904 14.0235 4.25904 14.0206 4.25904C13.882 4.25904 13.7441 4.31207 13.7441 4.38428Z" fill="#07150A"/>
<path fill-rule="evenodd" clip-rule="evenodd" d="M24.5086 34.4473C21.9896 34.4473 19.1699 33.9492 17.3867 33.2987C13.26 31.7841 10.2677 28.9995 9.5788 26.0164C3.76305 24.8049 0 22.8538 0 20.5284C0 19.414 1.19675 18.4989 3.14786 17.7774C2.54347 18.1099 2.06431 18.6196 2.06431 19.035C2.06431 21.5606 12.0261 23.6382 24.1384 23.6382C25.3777 23.6382 28.6124 23.5481 29.0226 23.5322C34.1388 23.3237 37.7789 22.7632 37.7789 21.5769C37.7789 21.249 37.3017 20.9952 36.936 20.8287C36.777 20.7604 36.5405 20.6856 36.5405 20.6856C36.5405 20.6856 36.707 20.7207 36.8196 20.7454C39.2049 21.235 40.6388 22.0576 40.688 23.1997C40.7999 25.6485 35.3889 26.9374 28.2832 27.2555C28.1115 27.2669 25.8458 27.3482 24.1884 27.3482C19.4177 27.3482 14.9639 26.9807 11.2111 26.3277C11.4827 27.3482 12.0985 28.0042 13.0378 28.8786C14.3546 30.0942 16.4853 31.0138 19.5128 31.4835C20.8344 31.6917 22.8665 31.8443 24.4101 31.8443C28.9684 31.8443 32.247 31.3319 32.2591 30.1908C32.2652 29.9032 31.993 29.6378 31.4979 29.4228C32.8055 29.8242 33.6851 30.4598 33.6851 31.3593C33.6851 33.19 30.5682 34.4473 24.5086 34.4473ZM44.61 17.5832C45.4148 17.863 46.1177 18.1668 46.6535 18.4745C47.754 19.1069 48.2891 19.7812 48.2891 20.5284C48.2891 22.233 46.6502 23.5159 43.91 24.5871C43.7945 24.6096 43.8078 24.4716 43.8078 24.4716V21.0339C45.1539 20.4299 46.0042 19.7529 46.0042 19.0399C46.0042 18.8275 45.9206 18.6196 45.6604 18.3239C45.434 18.0663 45.0153 17.7794 44.61 17.5832Z" fill="#07150A"/>
<path d="M44.79 22.7858C44.79 23.7516 44.3629 24.531 43.8372 24.531C43.305 24.531 42.8838 23.7516 42.8838 22.7858C42.8838 21.821 43.305 21.0435 43.8372 21.0435C44.3629 21.0435 44.79 21.821 44.79 22.7858Z" fill="#00694E"/>
<path fill-rule="evenodd" clip-rule="evenodd" d="M28.7567 51.1117C29.1148 51.1117 29.3956 50.9898 29.5989 50.7451C29.8022 50.5008 29.9037 50.2068 29.9037 49.8629C29.9037 49.5194 29.8022 49.2267 29.5989 48.9847C29.3956 48.7426 29.1148 48.6216 28.7567 48.6216C28.4177 48.6216 28.1396 48.7449 27.922 48.9918C27.704 49.2387 27.5951 49.5318 27.5951 49.8704C27.5951 50.2091 27.704 50.5008 27.922 50.7451C28.1396 50.9898 28.4177 51.1117 28.7567 51.1117ZM26.9562 53.3335V48.1496H27.6243V48.687H27.6458C27.7619 48.4983 27.9291 48.3458 28.1468 48.2297C28.3647 48.1135 28.6116 48.0553 28.8875 48.0553C29.3907 48.0553 29.8032 48.2283 30.1252 48.5745C30.4469 48.9206 30.6079 49.35 30.6079 49.8629C30.6079 50.3811 30.4482 50.8141 30.1288 51.1628C29.8093 51.5112 29.3907 51.6852 28.8728 51.6852C28.6259 51.6852 28.3937 51.6309 28.1757 51.5219C27.9581 51.413 27.7863 51.2643 27.6605 51.0756H27.6387V53.3335H26.9562ZM23.6165 51.591V48.1497H25.9615V48.7089H24.299V51.591H23.6165ZM31.5081 53.2828C31.6487 53.3166 31.7986 53.3335 31.9583 53.3335C32.2778 53.3335 32.5256 53.2574 32.7026 53.1048C32.8792 52.9526 33.0279 52.7187 33.1489 52.4045L34.819 48.1496H34.0929L33.1418 50.8505H33.1271L32.0598 48.1496H31.2977L32.7716 51.5912L32.5536 52.1647C32.4762 52.368 32.3916 52.5141 32.2996 52.6039C32.2075 52.6933 32.0793 52.7382 31.9147 52.7382C31.8035 52.7382 31.6896 52.7187 31.5735 52.6803L31.5081 53.2828ZM35.7409 51.591V48.1497H38.7902V51.591H38.1077V48.7089H36.4233V51.591H35.7409ZM40.2274 48.1497V51.591H40.9098V48.7089H42.5942V51.591H43.2767V48.1497H40.2274ZM45.8613 51.1408C46.171 51.1408 46.4143 51.0478 46.5909 50.8614C46.7676 50.675 46.856 50.432 46.856 50.1318V49.9503H46.6888C45.6677 49.9503 45.157 50.1679 45.157 50.6038C45.157 50.7925 45.2247 50.9291 45.3603 51.0137C45.4957 51.0986 45.6629 51.1408 45.8613 51.1408ZM45.7087 51.6779C45.5637 51.6779 45.4209 51.6587 45.2803 51.62C45.1401 51.5813 45.0071 51.5234 44.8812 51.4456C44.7553 51.3685 44.6535 51.2583 44.5761 51.1155C44.499 50.9727 44.4599 50.8071 44.4599 50.6181C44.4599 50.4197 44.5071 50.2466 44.6014 50.0989C44.6961 49.9516 44.8158 49.8377 44.9609 49.758C45.1063 49.678 45.2914 49.6152 45.5165 49.569C45.7416 49.5232 45.9543 49.4929 46.1554 49.4783C46.3561 49.464 46.5896 49.4565 46.856 49.4565V49.3621C46.856 49.1152 46.7796 48.9279 46.627 48.7994C46.4748 48.6712 46.2679 48.6071 46.0064 48.6071C45.6193 48.6071 45.2924 48.7405 45.0263 49.0063L44.6632 48.5707C45.0214 48.2272 45.4911 48.0554 46.0718 48.0554C46.546 48.0554 46.9042 48.18 47.1462 48.4292C47.3882 48.6787 47.5092 49.004 47.5092 49.4057V50.9086C47.5092 51.2085 47.5261 51.4362 47.5603 51.591H46.9432C46.9042 51.4264 46.885 51.2622 46.885 51.0973H46.8632C46.6065 51.4847 46.2217 51.6779 45.7087 51.6779ZM50.9941 48.1497V51.591H51.6766V49.9066H51.6984L53.2809 51.591H54.2031L52.4605 49.7833L54.0577 48.1497H53.1502L51.6984 49.7251H51.6766V48.1497H50.9941ZM55.7239 50.745C55.9295 50.9893 56.2092 51.1116 56.5625 51.1116C56.9158 51.1116 57.1952 50.9893 57.4011 50.745C57.6067 50.5007 57.7095 50.2066 57.7095 49.8628C57.7095 49.5193 57.6067 49.2265 57.4011 48.9845C57.1952 48.7425 56.9158 48.6214 56.5625 48.6214C56.2092 48.6214 55.9295 48.7425 55.7239 48.9845C55.5183 49.2265 55.4155 49.5193 55.4155 49.8628C55.4155 50.2066 55.5183 50.5007 55.7239 50.745ZM57.8874 51.1698C57.5319 51.5133 57.0901 51.6851 56.5625 51.6851C56.0349 51.6851 55.5944 51.5133 55.2411 51.1698C54.8879 50.8263 54.7112 50.3904 54.7112 49.8628C54.7112 49.3355 54.8866 48.9022 55.2376 48.5632C55.5882 48.2246 56.03 48.0551 56.5625 48.0551C57.0947 48.0551 57.5377 48.2246 57.8913 48.5632C58.2443 48.9022 58.4212 49.3355 58.4212 49.8628C58.4212 50.3904 58.2433 50.8263 57.8874 51.1698ZM59.6263 48.1497V51.591H60.3016V48.9483H60.3088L61.5065 51.591H61.9203L63.1329 48.9555H63.1473V51.591H63.8226V48.1497H62.8496L61.7316 50.6616H61.7244L60.5918 48.1497H59.6263ZM65.2599 51.591V48.1497H68.3092V51.591H67.6264V48.7089H65.9424V51.591H65.2599ZM71.6232 50.8614C71.4465 51.0478 71.2032 51.1408 70.8935 51.1408C70.6951 51.1408 70.5279 51.0986 70.3926 51.0137C70.2569 50.9291 70.1893 50.7925 70.1893 50.6038C70.1893 50.1679 70.7 49.9503 71.7211 49.9503H71.8883V50.1318C71.8883 50.432 71.7998 50.675 71.6232 50.8614ZM70.3129 51.62C70.4531 51.6587 70.5959 51.6779 70.741 51.6779C71.254 51.6779 71.6391 51.4847 71.8954 51.0973H71.9172C71.9172 51.2622 71.9367 51.4264 71.9754 51.591H72.5925C72.5584 51.4362 72.5415 51.2085 72.5415 50.9086V49.4057C72.5415 49.004 72.4205 48.6787 72.1788 48.4292C71.9367 48.18 71.5783 48.0554 71.104 48.0554C70.5233 48.0554 70.0536 48.2272 69.6958 48.5707L70.0588 49.0063C70.3246 48.7405 70.6515 48.6071 71.0386 48.6071C71.3001 48.6071 71.507 48.6712 71.6596 48.7994C71.8118 48.9279 71.8883 49.1152 71.8883 49.3621V49.4565C71.6219 49.4565 71.3883 49.464 71.1876 49.4783C70.9869 49.4929 70.7738 49.5232 70.5487 49.569C70.3236 49.6152 70.1385 49.678 69.9931 49.758C69.848 49.8377 69.7283 49.9516 69.634 50.0989C69.5393 50.2466 69.4922 50.4197 69.4922 50.6181C69.4922 50.8071 69.5312 50.9727 69.6086 51.1155C69.686 51.2583 69.7875 51.3685 69.9134 51.4456C70.0393 51.5234 70.1724 51.5813 70.3129 51.62ZM73.9429 51.591V48.1497H74.6253V49.5146H76.3315V48.1497H77.0136V51.591H76.3315V50.0735H74.6253V51.591H73.9429ZM78.4512 48.1497V51.591H79.199L80.9559 49.1009H80.9705V51.591H81.6527V48.1497H80.9048L79.1408 50.6327H79.1336V48.1497H78.4512ZM85.4101 47.1986C85.2189 47.368 84.9684 47.4526 84.6587 47.4526C84.3487 47.4526 84.0982 47.3654 83.9073 47.1914C83.716 47.017 83.6009 46.7799 83.5625 46.48L83.9616 46.4218C83.9909 46.5961 84.0683 46.7314 84.1939 46.8284C84.3198 46.9253 84.4746 46.9735 84.6587 46.9735C84.8425 46.9735 84.9973 46.9253 85.1232 46.8284C85.2491 46.7314 85.3265 46.5961 85.3558 46.4218L85.755 46.5018C85.7162 46.7968 85.6011 47.0291 85.4101 47.1986ZM83.0905 51.591V48.1497H83.7729V50.6327H83.7801L85.5445 48.1497H86.292V51.591H85.6096V49.1009H85.5952L83.838 51.591H83.0905ZM77.5272 30.6438H84.6017C85.5831 30.6438 86.3085 31.3757 86.3085 32.3675V37.3438H79.317V37.8838C79.317 38.8236 79.9793 39.5288 80.9487 39.5288H86.1628V40.9855H77.5272C76.5055 40.9855 75.8214 40.2097 75.8214 39.2725V32.3584C75.8214 31.484 76.4538 30.6438 77.5272 30.6438ZM82.8126 35.8872V34.6462V33.8648C82.8126 33.4576 82.6662 33.0067 82.3377 32.6528C81.9834 32.2797 81.5492 32.0975 81.0655 32.0975C80.5798 32.0975 80.1855 32.266 79.8319 32.5962C79.5385 32.875 79.317 33.2897 79.317 33.8691V35.8872H82.8126ZM60.0663 35.0132C61.0991 35.0132 61.8388 35.9393 61.8388 36.8271V39.2726C61.8388 40.176 61.0894 40.9853 60.0605 40.9853H52.9538V39.5289H56.8105C57.6221 39.5289 58.2915 38.8888 58.2915 38.0739C58.2915 37.1634 57.5443 36.6156 56.8069 36.6156H54.7575C53.81 36.6156 52.9538 35.7923 52.9538 34.8021V32.3562C52.9538 31.3608 53.823 30.6439 54.7575 30.6439H61.8388V32.0928L58.0225 32.0833C57.2376 32.0833 56.5281 32.7105 56.5281 33.5624C56.5281 34.3968 57.2317 35.0132 58.0166 35.0132H60.0663ZM68.9758 27.5851H65.4799V39.2725C65.4799 40.237 66.2089 40.9852 67.2121 40.9852H72.4714V39.5285H70.6371C69.6612 39.5285 68.9758 38.7654 68.9758 37.8835V32.1001H72.4714V30.6438H68.9758V27.5851ZM100 32.0927L95.239 32.0973C94.444 32.0973 93.5914 32.6932 93.5914 33.7748V37.882C93.5914 38.8725 94.4167 39.5286 95.269 39.5286H100V40.9853H91.8511C90.6869 40.9853 90.0955 40.0566 90.0955 39.2772V32.3491C90.0955 31.369 90.899 30.6436 91.8511 30.6436H100V32.0927ZM49.458 39.2723V32.3582C49.458 31.4047 48.7011 30.6432 47.6868 30.6432H40.6198C39.5594 30.6432 38.8252 31.4792 38.8252 32.3562V39.2677C38.8252 40.2186 39.6361 40.985 40.6198 40.985H47.6868C48.6718 40.985 49.458 40.2433 49.458 39.2723ZM45.9628 37.7727C45.9628 38.2479 45.7497 38.6838 45.4371 39.0078C45.1404 39.3129 44.6837 39.5358 44.1671 39.5358C43.6574 39.5358 43.2013 39.338 42.8822 39.027C42.5745 38.7229 42.3214 38.2414 42.3214 37.7727V33.8536C42.3214 33.4453 42.5342 32.9629 42.8617 32.6298C43.1818 32.3039 43.6548 32.097 44.1405 32.097C44.6274 32.097 45.1232 32.31 45.4462 32.6483C45.7705 32.9915 45.9628 33.4453 45.9628 33.8575V37.7727Z" fill="#07150A"/>
</svg>
