<svg width="375" height="449" viewBox="0 0 375 449" fill="none" xmlns="http://www.w3.org/2000/svg">
<g clip-path="url(#clip0)">
<path d="M452.508 -42L470.665 -31.5018L449.77 -19.3843L428.841 -31.5018L446.998 -42H445.906L428.287 -31.823L418.635 -37.4088L410.687 -42H409.564L427.752 -31.5018L406.803 -19.3843L385.892 -31.5018L404.049 -42H402.94L385.322 -31.823L375.668 -37.4088L367.746 -42H366.6L384.803 -31.5018L363.838 -19.3843L342.943 -31.5018L361.085 -42H359.99L342.371 -31.823L332.719 -37.4088L324.784 -42H323.65L341.836 -31.5018L320.889 -19.3843L299.994 -31.5018L318.136 -42H317.039L299.406 -31.823L289.77 -37.4088L281.835 -42H280.683L298.87 -31.5018L277.94 -19.3843L257.027 -31.5018L275.17 -42H274.08L263.618 -35.9453L256.457 -31.823L253.533 -33.5206L238.869 -42H237.731L255.902 -31.5018L234.973 -19.3843L214.06 -31.5018L232.218 -42H231.113L213.523 -31.823L203.839 -37.4088L195.914 -42H194.768L212.972 -31.5018L192.006 -19.3843L171.094 -31.5018L189.251 -42H188.168L177.719 -35.9453L170.559 -31.823L167.617 -33.5206L152.953 -42H151.847L170.004 -31.5018L149.091 -19.3843L128.145 -31.5018L146.331 -42H145.197L127.608 -31.823L112.352 -40.639L109.994 -42H108.883L127.055 -31.5018L106.142 -19.3843L85.1954 -31.5018L103.368 -42H102.248L84.6595 -31.823L77.5846 -35.8928L67.0343 -42H65.9341L84.1058 -31.5018L63.1769 -19.3843L42.2286 -31.5018L50.307 -36.1439L60.4245 -42H59.2783L54.5279 -39.2539L41.7096 -31.823L24.0917 -42H22.9681L41.139 -31.5018L20.2101 -19.3843L-0.720453 -31.5018L17.4528 -42H16.3325L-1.25562 -31.823L-18.8752 -42H-19.9834L-1.82787 -31.5018L-22.498 -19.5466V6.23724L-1.82787 18.1811L-22.498 30.1193V55.9016L-1.82787 67.8551L-22.498 79.8103V105.569L-1.82787 117.547L-22.498 129.476V155.25L-12.1541 161.243L-1.82787 167.211L-22.498 179.168V204.924L-12.1541 210.917L-1.82787 216.877L-22.498 228.833V254.607L-12.1541 260.591L-1.82787 266.551L-22.498 278.507V304.281L-1.82787 316.26L-22.498 328.182V353.955L-12.1541 359.966L-1.82787 365.907L-22.498 377.862V403.62L-1.82787 415.59L-22.498 427.528V453.322L-12.1541 459.314L-1.82787 465.273L-22.498 477.195V502.969L-1.82787 514.92L-22.498 526.876V552.668L-12.1541 558.645L-1.82787 564.603L-22.498 576.559V602.333L-1.82787 614.285L-22.498 626.207V651.288H-21.7533L-1.25562 639.44L19.2058 651.288H21.2135L41.6935 639.44L62.1549 651.288H64.1634L84.6426 639.44L105.121 651.288H107.112L127.608 639.44L148.071 651.288H150.078L170.559 639.44L191.037 651.288H193.044L213.49 639.44L233.986 651.288H235.994L256.457 639.44L276.952 651.288H278.96L299.406 639.44L319.919 651.288H321.91L342.371 639.44L362.868 651.288H364.877L385.322 639.44L405.817 651.288H407.809L428.287 639.44L448.784 651.288H450.775L470.995 639.575V613.817L457.035 605.729L450.342 601.883L470.995 589.928V564.135L450.324 552.165L470.995 540.277V514.468L450.342 502.5L470.995 490.561V464.803L457.035 456.715L450.342 452.834L470.995 440.896V415.105L450.324 403.168L470.995 391.196V365.439L457.035 357.367L450.342 353.486L470.995 341.548V315.756L450.342 303.796L470.995 291.865V266.1L450.324 254.146L470.995 242.191V216.416L457.035 208.319L450.342 204.465L470.995 192.526V166.742L450.324 154.791L470.995 142.836V117.077L461.584 111.613L450.324 105.108L470.995 93.1708V67.3951L457.035 59.3071L450.342 55.4342L470.995 43.4968V17.7291L461.584 12.2653L450.342 5.7699L470.995 -6.1861V-31.9619L461.584 -37.4088L453.649 -42H452.508ZM450.064 -18.9154L470.977 -30.9997V-6.81653L450.064 5.26697V-18.9154ZM428.58 -6.81653V-30.9997L449.494 -18.9154V5.26697L428.58 -6.81653ZM407.098 -18.9154L428.028 -30.9997V-6.81653L407.098 5.26697V-18.9154ZM385.616 -6.81653V-30.9997L406.545 -18.9154V5.26697L385.616 -6.81653ZM364.149 -18.9154L385.061 -30.9997V-6.81653L364.149 5.26697V-18.9154ZM342.665 -6.81653V-30.9997L363.578 -18.9154V5.26697L342.665 -6.81653ZM321.199 -18.9154L342.111 -30.9997V-6.81653L321.199 5.26697V-18.9154ZM299.716 -6.81653V-30.9997L320.629 -18.9154V5.26697L299.716 -6.81653ZM278.234 -18.9154L299.146 -30.9997V-6.81653L278.234 5.26697V-18.9154ZM235.267 -18.9154L256.179 -30.9997V-6.81653L235.267 5.26697V-18.9154ZM213.802 -6.81653V-30.9997L234.713 -18.9154V5.26697L213.802 -6.81653ZM192.318 -18.9154L213.229 -30.9997V-6.81653L192.318 5.26697V-18.9154ZM149.369 -18.9154L170.264 -30.9997V-6.81653L149.369 5.26697V-18.9154ZM127.868 -6.81653L127.886 -30.9997L148.798 -18.9154V5.26697L127.868 -6.81653ZM106.402 -18.9154L127.331 -30.9997V-6.81653L106.402 5.26697V-18.9154ZM84.9367 -6.81653V-30.9997L105.848 -18.9154V5.27588L84.9367 -6.81653ZM20.4865 -18.9154L41.3993 -30.9997V-6.81653L20.4865 5.26697V-18.9154ZM-0.996904 -6.81653V-30.9997L19.932 -18.9154V5.26697L-0.996904 -6.81653ZM256.767 -6.81653V-30.9908L277.662 -18.9154V5.26697L256.767 -6.81653ZM170.835 -6.81653V-30.9908L191.747 -18.9154V5.26697L170.835 -6.81653ZM63.4356 -18.9154L84.3645 -30.9908V-6.81653L63.4356 5.27588V-18.9154ZM41.9699 -6.81653V-30.9908L62.8835 -18.9154V5.26697L41.9699 -6.81653ZM-22.4626 -18.9154L-1.56754 -30.9908V-6.81653L-22.4626 5.26697V-18.9154ZM203.839 12.2653L192.595 5.7699L213.49 -6.33063L234.436 5.7699L224.11 11.7277L213.523 17.8687L203.839 12.2653ZM112.352 9.04382L106.679 5.7699L127.608 -6.33063L148.521 5.7699L143.661 8.55786L127.608 17.8687L112.352 9.04382ZM31.0739 11.7277L20.763 5.7699L41.6935 -6.33063L62.6054 5.7699L59.5089 7.55371L41.6935 17.8687L31.0739 11.7277ZM418.635 12.2653L407.376 5.7699L428.287 -6.3233L449.217 5.7699L438.907 11.7277L428.287 17.8687L418.635 12.2653ZM375.668 12.2653L364.427 5.7699L385.322 -6.3233L406.268 5.7699L395.942 11.7277L385.322 17.8687L375.668 12.2653ZM332.719 12.2653L321.46 5.7699L342.371 -6.3233L363.301 5.7699L352.975 11.7277L342.371 17.8687L332.719 12.2653ZM289.77 12.2653L278.511 5.7699L299.406 -6.3233L320.352 5.7699L310.027 11.7277L299.406 17.8687L289.77 12.2653ZM253.533 16.1624L235.544 5.7699L256.457 -6.3233L277.403 5.7699L269.757 10.1682L256.457 17.8687L253.533 16.1624ZM167.617 16.1624L149.628 5.7699L170.559 -6.3233L191.47 5.7699L183.843 10.1682L170.559 17.8687L167.617 16.1624ZM77.5846 13.7642L63.712 5.7699L84.6426 -6.3233L105.554 5.7699L92.5476 13.296L84.6595 17.8687L77.5846 13.7642ZM-11.8776 11.7277L-22.1684 5.7699L-1.25562 -6.3233L19.6563 5.7699L9.32932 11.7277L-1.25562 17.8687L-11.8776 11.7277ZM428.841 18.1811L449.77 6.0976L470.665 18.1811L449.753 30.28L428.841 18.1811ZM385.892 18.1811L406.803 6.0976L427.734 18.1811L406.803 30.28L385.892 18.1811ZM342.943 18.1811L363.838 6.0976L384.786 18.1811L363.838 30.28L342.943 18.1811ZM299.994 18.1811L320.889 6.0976L341.836 18.1811L320.889 30.28L299.994 18.1811ZM257.027 18.1811L277.94 6.0976L298.87 18.1811L277.923 30.28L257.027 18.1811ZM214.078 18.1811L234.973 6.0976L240.161 9.09546L255.902 18.1811L234.973 30.28L214.078 18.1811ZM171.111 18.1811L192.006 6.0976L212.953 18.1811L192.006 30.28L171.111 18.1811ZM128.145 18.1811L149.091 6.0976L154.263 9.09546L170.004 18.1811L149.091 30.28L128.145 18.1811ZM85.1954 18.1811L106.126 6.0976L127.037 18.1811L106.126 30.28L85.1954 18.1811ZM42.2286 18.1811L63.1769 6.0976L84.0711 18.1811L63.1769 30.28L42.2286 18.1811ZM-0.720453 18.1811L20.2101 6.0976L41.139 18.1811L20.2101 30.28L-0.720453 18.1811ZM450.064 30.749L470.977 18.6646V42.8664L450.064 54.9572V30.749ZM428.58 42.8664V18.6646L449.494 30.749V54.9572L428.58 42.8664ZM407.098 30.749L428.028 18.6646V42.8664L407.098 54.9572V30.749ZM385.616 42.8664V18.6646L406.545 30.749V54.9572L385.616 42.8664ZM364.149 30.749L385.061 18.6646V42.8664L364.149 54.9572V30.749ZM342.665 42.8664V18.6646L363.578 30.749V54.9572L342.665 42.8664ZM321.199 30.749L342.111 18.6646V42.8664L321.199 54.9572V30.749ZM299.716 42.8664V18.6646L320.629 30.749V54.9572L299.716 42.8664ZM278.234 30.749L299.146 18.6646V42.8664L278.234 54.9572V30.749ZM256.767 42.8664V18.6646L277.662 30.749V54.9572L256.767 42.8664ZM235.267 30.749L256.179 18.6646V42.8664L235.267 54.9572V30.749ZM213.802 42.8664V18.6646L234.713 30.749V54.9572L213.802 42.8664ZM192.318 30.749L213.229 18.6646V42.8664L192.318 54.9572V30.749ZM170.835 42.8664V18.6646L191.747 30.749V54.9572L170.835 42.8664ZM149.369 30.749L170.264 18.6646V42.8664L149.369 54.9572V30.749ZM127.868 42.8664L127.886 18.6646L148.798 30.749V54.9572L127.868 42.8664ZM106.402 30.749L127.331 18.6646V42.8664L106.402 54.9572V30.749ZM84.9367 42.8664V18.6646L105.848 30.749V54.9572L84.9367 42.8664ZM63.4356 30.749L84.3645 18.6646V42.8664L63.4356 54.9572V30.749ZM41.9699 42.8664V18.6646L62.8835 30.749V54.9572L41.9699 42.8664ZM20.4865 30.749L41.3993 18.6646V42.8664L20.4865 54.9572V30.749ZM-0.996904 42.8664V18.6646L19.932 30.749V54.9572L-0.996904 42.8664ZM-22.4626 30.749L-1.56754 18.6646V42.8664L-22.4626 54.9572V30.749ZM414.069 59.3071L407.376 55.4342L428.287 43.3507L449.217 55.4431L438.907 61.3936L428.287 67.5339L414.069 59.3071ZM371.119 59.3071L364.427 55.4342L385.322 43.3507L406.268 55.4431L395.942 61.3936L385.322 67.5339L371.119 59.3071ZM328.153 59.3071L321.46 55.4342L342.371 43.3507L363.301 55.4431L352.975 61.3936L342.371 67.5339L328.153 59.3071ZM285.204 59.3071L278.511 55.4342L299.406 43.3507L320.352 55.4431L310.027 61.3936L299.406 67.5339L285.204 59.3071ZM238.171 56.976L235.544 55.4342L256.457 43.3507L277.403 55.4431L256.457 67.5339L238.171 56.976ZM199.305 59.3071L192.595 55.4342L213.49 43.3507L234.436 55.4431L224.11 61.3936L213.523 67.5339L199.305 59.3071ZM152.257 56.976L149.628 55.4342L170.559 43.3507L191.47 55.4431L170.574 67.5339L152.257 56.976ZM121.64 64.0969L106.679 55.4342L127.608 43.3507L148.521 55.4342L131.051 65.5425L127.608 67.5339L121.64 64.0969ZM63.712 55.4431L84.6426 43.3507L105.572 55.4431L84.6595 67.5339L63.712 55.4431ZM31.0739 61.3936L20.763 55.4342L41.6935 43.3507L62.6054 55.4342L41.7096 67.5339L31.0739 61.3936ZM-11.8776 61.3936L-22.1684 55.4342L-1.25562 43.3507L19.6563 55.4342L9.32932 61.3936L-1.25562 67.5339L-11.8776 61.3936ZM428.841 67.8551L449.77 55.7628L470.665 67.8551L449.753 79.9459L428.841 67.8551ZM385.892 67.8551L406.803 55.7628L427.752 67.8551L406.803 79.9459L385.892 67.8551ZM342.943 67.8551L363.838 55.7628L384.803 67.8551L363.838 79.9459L342.943 67.8551ZM299.994 67.8551L320.889 55.7628L341.836 67.8551L320.889 79.9459L299.994 67.8551ZM257.027 67.8551L277.94 55.7628L298.87 67.8551L277.923 79.9459L257.027 67.8551ZM214.06 67.8551L234.973 55.7628L240.161 58.7695L255.902 67.8551L234.973 79.9459L214.06 67.8551ZM171.094 67.8551L192.006 55.7628L212.972 67.8551L192.006 79.9459L171.094 67.8551ZM128.145 67.8551L149.091 55.7628L154.263 58.7695L170.004 67.8551L149.091 79.9459L128.145 67.8551ZM85.1954 67.8551L106.126 55.7628L127.055 67.8551L106.126 79.9459L85.1954 67.8551ZM42.2286 67.8551L63.1769 55.7628L84.1058 67.8551L63.1769 79.9459L42.2286 67.8551ZM-0.720453 67.8551L20.2101 55.7628L41.139 67.8551L20.2101 79.9459L-0.720453 67.8551ZM450.064 80.4407L470.977 68.3395V92.5404L450.064 104.622V80.4407ZM428.58 92.5404V68.3395L449.494 80.4407V104.622L428.58 92.5404ZM407.098 80.4407L428.028 68.3395V92.5404L407.098 104.622V80.4407ZM385.616 92.5404V68.3395L406.545 80.4407V104.622L385.616 92.5404ZM364.149 80.4407L385.061 68.3395V92.5404L364.149 104.622V80.4407ZM342.665 92.5404V68.3395L363.578 80.4407V104.622L342.665 92.5404ZM321.199 80.4407L342.111 68.3395V92.5404L321.199 104.622V80.4407ZM299.716 92.5404V68.3395L320.629 80.4407V104.622L299.716 92.5404ZM278.234 80.4407L299.146 68.3395V92.5404L278.234 104.622V80.4407ZM235.267 80.4407L256.179 68.3395V92.5404L235.267 104.622V80.4407ZM213.802 92.5404V68.3395L234.713 80.4407V104.622L213.802 92.5404ZM192.318 80.4407L213.229 68.3395V92.5404L192.318 104.622V80.4407ZM149.369 80.4407L170.264 68.3395V92.5404L149.369 104.622V80.4407ZM127.868 92.5404L127.886 68.3395L148.798 80.4407V104.622L127.868 92.5404ZM106.402 80.4407L127.331 68.3395V92.5404L106.402 104.622V80.4407ZM84.9367 92.5404V68.3395L105.848 80.4407V104.622L84.9367 92.5404ZM20.4865 80.4407L41.3993 68.3395V92.5404L20.4865 104.622V80.4407ZM-0.996904 92.5404V68.3395L19.932 80.4407V104.622L-0.996904 92.5404ZM256.767 92.5404V68.3572L277.662 80.4407V104.622L256.767 92.5404ZM170.835 92.5404V68.3572L191.747 80.4407V104.622L170.835 92.5404ZM63.4356 80.4407L84.3645 68.3572V92.5404L63.4356 104.622V80.4407ZM41.9699 92.5404V68.3572L62.8835 80.4407V104.622L41.9699 92.5404ZM-22.4626 80.4407L-1.56754 68.3572V92.5404L-22.4626 104.622V80.4407ZM418.635 111.613L407.358 105.108L428.287 93.0086L449.235 105.108L428.287 117.217L418.635 111.613ZM375.668 111.613L364.427 105.108L385.322 93.0086L406.268 105.108L385.322 117.217L375.668 111.613ZM332.719 111.613L321.46 105.108L342.371 93.0086L363.319 105.108L342.371 117.217L332.719 111.613ZM289.77 111.613L278.511 105.108L299.406 93.0086L320.371 105.108L299.406 117.217L289.77 111.613ZM253.533 115.519L235.544 105.108L256.457 93.0086L277.403 105.108L263.618 113.077L256.457 117.217L253.533 115.519ZM203.839 111.613L192.595 105.108L213.49 93.0086L234.436 105.108L213.523 117.217L203.839 111.613ZM167.617 115.519L149.628 105.108L170.559 93.0086L191.487 105.108L177.719 113.077L170.559 117.217L167.617 115.519ZM112.352 108.399L106.661 105.108L127.608 93.0086L148.521 105.108L127.608 117.217L112.352 108.399ZM77.5846 113.12L63.712 105.108L84.6426 93.0086L105.572 105.108L84.6595 117.217L77.5846 113.12ZM20.763 105.108L41.6935 93.0086L62.6054 105.108L54.5279 109.777L41.7096 117.217L20.763 105.108ZM-22.2039 105.108L-1.25562 93.0086L19.6563 105.108L-1.25562 117.217L-22.2039 105.108ZM428.841 117.547L449.77 105.43L452.746 107.161L470.665 117.547L449.77 129.638L428.841 117.547ZM385.892 117.547L406.803 105.43L409.797 107.161L427.752 117.547L406.803 129.638L385.892 117.547ZM342.943 117.547L363.838 105.43L366.847 107.161L384.803 117.547L363.838 129.638L342.943 117.547ZM299.994 117.547L320.889 105.43L323.881 107.161L341.836 117.547L320.889 129.638L299.994 117.547ZM257.027 117.547L277.94 105.43L280.914 107.161L298.87 117.547L277.94 129.638L257.027 117.547ZM214.06 117.547L234.973 105.43L236.841 106.512L255.902 117.547L234.973 129.638L214.06 117.547ZM171.094 117.547L192.006 105.43L195.016 107.161L212.972 117.547L192.006 129.638L171.094 117.547ZM128.145 117.547L149.091 105.43L150.909 106.512L170.004 117.547L149.091 129.629L128.145 117.547ZM85.1954 117.547L106.142 105.43L115.76 111.025L127.055 117.547L106.142 129.638L85.1954 117.547ZM42.2286 117.547L50.307 112.869L63.1769 105.43L70.2163 109.525L84.1058 117.547L63.1769 129.629L42.2286 117.547ZM-0.720453 117.547L20.2101 105.43L41.139 117.547L20.2101 129.638L-0.720453 117.547ZM235.267 130.106L256.179 118.013V142.206L235.267 154.296V130.106ZM149.369 130.106L170.264 118.013V142.206L149.369 154.296V130.106ZM450.064 130.106L470.977 118.022V142.206L450.064 154.296V130.106ZM428.58 142.206V118.022L449.494 130.106V154.296L428.58 142.206ZM407.098 130.106L428.028 118.022V142.206L407.098 154.296V130.106ZM385.616 142.206V118.022L406.545 130.106V154.296L385.616 142.206ZM364.149 130.106L385.061 118.022V142.206L364.149 154.296V130.106ZM342.665 142.206V118.022L363.578 130.106V154.296L342.665 142.206ZM321.199 130.106L342.111 118.022V142.206L321.199 154.296V130.106ZM299.716 142.206V118.022L320.629 130.106V154.296L299.716 142.206ZM278.234 130.106L299.146 118.022V142.206L278.234 154.296V130.106ZM256.767 142.206V118.022L277.662 130.106V154.296L256.767 142.206ZM213.802 142.206V118.022L234.713 130.106V154.296L213.802 142.206ZM192.318 130.106L213.229 118.022V142.206L192.318 154.296V130.106ZM170.835 142.206V118.022L191.747 130.106V154.296L170.835 142.206ZM127.868 142.206L127.886 118.022L148.798 130.106V154.296L127.868 142.206ZM106.402 130.106L127.331 118.022V142.206L106.402 154.296V130.106ZM84.9367 142.206V118.022L105.848 130.106V154.296L84.9367 142.206ZM63.4356 130.106L84.3645 118.022V142.206L63.4356 154.296V130.106ZM41.9699 142.206V118.022L62.8835 130.106V154.296L41.9699 142.206ZM20.4865 130.106L41.3993 118.022V142.206L20.4865 154.296V130.106ZM-0.996904 142.206V118.022L19.932 130.106V154.296L-0.996904 142.206ZM-22.4626 130.106L-1.56754 118.022V142.206L-22.4626 154.296V130.106ZM407.358 154.791L428.287 142.708L449.235 154.791L438.907 160.75L428.287 166.882L407.358 154.791ZM364.427 154.791L385.322 142.708L406.268 154.791L395.942 160.75L385.322 166.882L364.427 154.791ZM321.46 154.791L342.371 142.708L363.319 154.791L352.975 160.75L342.371 166.882L321.46 154.791ZM278.511 154.791L299.406 142.708L320.371 154.791L310.027 160.75L299.406 166.882L278.511 154.791ZM235.544 154.791L256.457 142.708L277.403 154.791L256.457 166.882L235.544 154.791ZM192.595 154.791L213.523 142.708L234.436 154.791L224.11 160.75L213.523 166.882L192.595 154.791ZM149.628 154.791L170.574 142.708L191.487 154.791L170.559 166.882L149.628 154.791ZM106.661 154.791L127.608 142.708L148.521 154.791L130.808 165.02L127.608 166.882L106.661 154.791ZM71.4793 159.286L63.712 154.791L84.6595 142.708L105.572 154.791L84.6595 166.882L71.4793 159.286ZM31.0739 160.75L20.763 154.791L41.6935 142.708L62.6054 154.791L41.7096 166.882L31.0739 160.75ZM-11.8776 160.75L-22.2039 154.791L-1.25562 142.708L19.6563 154.791L9.32932 160.75L-1.25562 166.882L-11.8776 160.75ZM428.841 167.211L439.168 161.243L449.753 155.11L468.193 165.747L470.665 167.211L449.753 179.294L428.841 167.211ZM385.892 167.211L396.218 161.243L406.803 155.11L425.243 165.747L427.734 167.211L406.803 179.294L385.892 167.211ZM342.943 167.211L353.269 161.243L363.838 155.11L382.277 165.747L384.786 167.211L363.838 179.294L342.943 167.211ZM299.994 167.211L310.303 161.243L320.889 155.11L339.311 165.747L341.836 167.211L320.889 179.294L299.994 167.211ZM257.027 167.211L274.635 157.034L277.923 155.11L296.362 165.747L298.87 167.211L277.923 179.294L257.027 167.211ZM214.078 167.211L224.387 161.243L234.973 155.11L255.902 167.211L234.973 179.294L214.078 167.211ZM171.111 167.211L188.703 157.034L192.006 155.11L210.446 165.747L212.953 167.211L192.006 179.294L171.111 167.211ZM128.145 167.211L138.471 161.243L149.091 155.11L170.004 167.211L149.091 179.294L128.145 167.211ZM85.1954 167.211L88.3605 165.383L106.126 155.11L120.568 163.451L127.037 167.211L106.126 179.294L85.1954 167.211ZM42.2286 167.211L63.1769 155.11L74.7483 161.816L84.0711 167.211L63.1769 179.294L42.2286 167.211ZM-0.720453 167.211L2.44463 165.383L20.2101 155.11L30.8127 161.243L41.139 167.211L20.2101 179.294L-0.720453 167.211ZM235.267 179.796L256.179 167.679V191.897L235.267 203.979V179.796ZM149.369 179.796L170.264 167.679V191.897L149.369 203.979V179.796ZM450.064 179.796L470.977 167.688V191.897L450.064 203.979V179.796ZM428.58 191.897V167.688L449.494 179.796V203.979L428.58 191.897ZM407.098 179.796L428.028 167.688V191.897L407.098 203.979V179.796ZM385.616 191.897V167.688L406.545 179.796V203.979L385.616 191.897ZM364.149 179.796L385.061 167.688V191.897L364.149 203.979V179.796ZM342.665 191.897V167.688L363.578 179.796V203.979L342.665 191.897ZM321.199 179.796L342.111 167.688V191.897L321.199 203.979V179.796ZM299.716 191.897V167.688L320.629 179.796V203.979L299.716 191.897ZM278.234 179.796L299.146 167.688V191.897L278.234 203.979V179.796ZM256.767 191.897V167.688L277.662 179.796V203.979L256.767 191.897ZM213.802 191.897V167.688L234.713 179.796V203.979L213.802 191.897ZM192.318 179.796L213.229 167.688V191.897L192.318 203.979V179.796ZM170.835 191.897V167.688L191.747 179.796V203.979L170.835 191.897ZM127.868 191.897L127.886 167.688L148.798 179.796V203.979L127.868 191.897ZM106.402 179.796L127.331 167.688V191.897L106.402 203.979V179.796ZM84.9367 191.897V167.688L105.848 179.796V203.988L84.9367 191.897ZM63.4356 179.796L84.3645 167.688V191.897L63.4356 203.988V179.796ZM41.9699 191.897V167.688L62.8835 179.796V203.979L41.9699 191.897ZM20.4865 179.796L41.3993 167.688V191.897L20.4865 203.979V179.796ZM-0.996904 191.897V167.688L19.932 179.796V203.979L-0.996904 191.897ZM-22.4626 179.796L-1.56754 167.688V191.897L-22.4626 203.979V179.796ZM199.305 208.319L192.595 204.465L213.49 192.364L234.436 204.465L224.11 210.442L213.523 216.556L199.305 208.319ZM121.64 213.118L106.679 204.465L127.608 192.364L148.521 204.465L131.051 214.574L127.608 216.556L121.64 213.118ZM31.0739 210.442L20.763 204.465L41.6935 192.364L62.6054 204.465L41.7096 216.556L31.0739 210.442ZM-11.8776 210.442L-22.1684 204.465L-1.25562 192.364L19.6563 204.465L9.32932 210.442L-1.25562 216.556L-11.8776 210.442ZM414.069 208.319L407.376 204.465L428.287 192.373L449.217 204.465L438.907 210.442L428.287 216.556L414.069 208.319ZM371.119 208.319L364.427 204.465L385.322 192.373L406.268 204.465L395.942 210.442L385.322 216.556L371.119 208.319ZM328.153 208.319L321.46 204.465L342.371 192.373L363.301 204.465L352.975 210.442L342.371 216.556L328.153 208.319ZM285.204 208.319L278.511 204.465L299.406 192.373L320.352 204.465L310.027 210.442L299.406 216.556L285.204 208.319ZM238.171 205.99L235.544 204.465L256.457 192.373L277.403 204.465L256.457 216.556L238.171 205.99ZM152.257 205.99L149.628 204.465L170.559 192.373L191.47 204.465L170.574 216.556L152.257 205.99ZM63.712 204.465L84.6426 192.373L105.572 204.465L84.6595 216.556L63.712 204.465ZM428.841 216.877L439.168 210.917L449.77 204.785L470.665 216.877L449.77 228.977L428.841 216.877ZM385.892 216.877L396.218 210.917L406.803 204.785L427.752 216.877L406.803 228.977L385.892 216.877ZM342.943 216.877L353.269 210.917L363.838 204.785L384.803 216.877L363.838 228.977L342.943 216.877ZM299.994 216.877L310.303 210.917L320.889 204.785L341.836 216.877L320.889 228.977L299.994 216.877ZM257.027 216.877L274.877 206.578L277.94 204.785L298.87 216.877L277.94 228.977L257.027 216.877ZM214.06 216.877L224.387 210.917L234.973 204.785L240.161 207.792L255.902 216.877L234.973 228.977L214.06 216.877ZM171.094 216.877L188.961 206.578L192.006 204.785L212.972 216.877L192.006 228.977L171.094 216.877ZM128.145 216.877L138.471 210.917L149.091 204.785L154.263 207.792L170.004 216.877L149.091 228.977L128.145 216.877ZM85.1954 216.877L88.1534 215.189L106.142 204.785L127.055 216.877L106.142 228.977L85.1954 216.877ZM42.2286 216.877L63.1769 204.785L84.1058 216.877L63.1769 228.977L42.2286 216.877ZM-0.720453 216.877L2.2375 215.189L20.2101 204.785L30.8127 210.917L41.139 216.877L20.2101 228.977L-0.720453 216.877ZM450.064 229.461L470.977 217.37V241.562L450.064 253.653V229.461ZM428.58 241.562V217.37L449.494 229.461V253.653L428.58 241.562ZM407.098 229.461L428.028 217.37V241.562L407.098 253.653V229.461ZM385.616 241.562V217.37L406.545 229.461V253.653L385.616 241.562ZM364.149 229.461L385.061 217.37V241.562L364.149 253.653V229.461ZM342.665 241.562V217.37L363.578 229.461V253.653L342.665 241.562ZM321.199 229.461L342.111 217.37V241.562L321.199 253.653V229.461ZM299.716 241.562V217.37L320.629 229.461V253.653L299.716 241.562ZM278.234 229.461L299.146 217.37V241.562L278.234 253.653V229.461ZM235.267 229.461L256.179 217.37V241.562L235.267 253.653V229.461ZM213.802 241.562V217.37L234.713 229.461V253.653L213.802 241.562ZM192.318 229.461L213.229 217.37V241.562L192.318 253.653V229.461ZM149.369 229.461L170.264 217.37V241.562L149.369 253.653V229.461ZM127.868 241.562L127.886 217.37L148.798 229.461V253.653L127.868 241.562ZM106.402 229.461L127.331 217.37V241.562L106.402 253.653V229.461ZM84.9367 241.562V217.37L105.848 229.461V253.653L84.9367 241.562ZM20.4865 229.461L41.3993 217.37V241.562L20.4865 253.653V229.461ZM-0.996904 241.562V217.37L19.932 229.461V253.653L-0.996904 241.562ZM256.767 241.562V217.38L277.662 229.461V253.653L256.767 241.562ZM170.835 241.562V217.38L191.747 229.461V253.653L170.835 241.562ZM63.4356 229.461L84.3645 217.38V241.562L63.4356 253.653V229.461ZM41.9699 241.562V217.38L62.8835 229.461V253.653L41.9699 241.562ZM-22.4626 229.461L-1.56754 217.38V241.562L-22.4626 253.653V229.461ZM192.595 254.146L213.49 242.03L234.436 254.146L224.11 260.107L213.523 266.239L192.595 254.146ZM106.661 254.146L127.608 242.03L148.521 254.146L130.808 264.376L127.608 266.239L106.661 254.146ZM31.0739 260.107L20.763 254.146L41.6935 242.03L62.6054 254.146L41.7096 266.239L31.0739 260.107ZM-11.8776 260.107L-22.2039 254.146L-1.25562 242.03L19.6563 254.146L9.32932 260.107L-1.25562 266.239L-11.8776 260.107ZM407.358 254.146L428.287 242.056L449.235 254.146L438.907 260.107L428.287 266.239L407.358 254.146ZM364.427 254.146L385.322 242.056L406.268 254.146L395.942 260.107L385.322 266.239L364.427 254.146ZM321.46 254.146L342.371 242.056L363.319 254.146L352.975 260.107L342.371 266.239L321.46 254.146ZM278.511 254.146L299.406 242.056L320.371 254.146L310.027 260.107L299.406 266.239L278.511 254.146ZM235.544 254.146L256.457 242.056L277.403 254.146L256.457 266.239L235.544 254.146ZM149.628 254.146L170.559 242.056L191.487 254.146L170.559 266.239L149.628 254.146ZM71.4793 258.625L63.712 254.146L84.6426 242.056L105.572 254.146L84.6595 266.239L71.4793 258.625ZM428.841 266.551L439.168 260.591L449.77 254.468L470.665 266.551L449.77 278.652L428.841 266.551ZM385.892 266.551L396.218 260.591L406.803 254.468L427.734 266.551L406.803 278.652L385.892 266.551ZM342.943 266.551L353.269 260.591L363.838 254.468L384.786 266.551L363.838 278.652L342.943 266.551ZM299.994 266.551L310.303 260.591L320.889 254.468L341.836 266.551L320.889 278.652L299.994 266.551ZM257.027 266.551L274.635 256.373L277.94 254.468L298.87 266.551L277.94 278.652L257.027 266.551ZM214.078 266.551L224.387 260.591L234.973 254.468L240.11 257.43L255.902 266.542L234.973 278.652L214.078 266.551ZM171.111 266.551L188.703 256.373L192.006 254.468L212.953 266.551L192.006 278.652L171.111 266.551ZM128.145 266.551L138.471 260.591L149.091 254.468L154.195 257.43L170.004 266.542L149.091 278.652L128.145 266.551ZM85.1954 266.542L88.3605 264.749L106.142 254.468L127.037 266.551L106.142 278.652L85.1954 266.542ZM42.2286 266.551L63.1769 254.468L84.0711 266.551L63.1769 278.652L42.2286 266.551ZM-0.720453 266.551L2.44463 264.749L20.2101 254.468L30.8127 260.591L41.139 266.551L20.2101 278.652L-0.720453 266.551ZM450.064 279.135L470.977 267.044V291.219L450.064 303.337V279.135ZM428.58 291.219V267.044L449.494 279.135V303.337L428.58 291.219ZM407.098 279.135L428.028 267.044V291.219L407.098 303.337V279.135ZM385.616 291.219V267.044L406.545 279.135V303.337L385.616 291.219ZM364.149 279.135L385.061 267.044V291.219L364.149 303.337V279.135ZM342.665 291.219V267.044L363.578 279.135V303.337L342.665 291.219ZM321.199 279.135L342.111 267.044V291.219L321.199 303.337V279.135ZM299.716 291.219V267.044L320.629 279.135V303.337L299.716 291.219ZM278.234 279.135L299.146 267.044V291.219L278.234 303.337V279.135ZM256.767 291.219V267.044L277.662 279.135V303.337L256.767 291.219ZM235.267 279.135L256.179 267.044V291.219L235.267 303.337V279.135ZM213.802 291.219V267.044L234.713 279.135V303.337L213.802 291.219ZM192.318 279.135L213.229 267.044V291.219L192.318 303.337V279.135ZM170.835 291.219V267.044L191.747 279.135V303.337L170.835 291.219ZM149.369 279.135L170.264 267.044V291.219L149.369 303.337V279.135ZM127.868 291.219L127.886 267.044L148.798 279.135V303.337L127.868 291.219ZM106.402 279.135L127.331 267.044V291.219L106.402 303.337V279.135ZM84.9367 291.219V267.044L105.848 279.135V303.337L84.9367 291.219ZM63.4356 279.135L84.3645 267.044V291.219L63.4356 303.337V279.135ZM41.9699 291.219V267.044L62.8835 279.135V303.337L41.9699 291.219ZM20.4865 279.135L41.3993 267.044V291.219L20.4865 303.337V279.135ZM-0.996904 291.219V267.044L19.932 279.135V303.337L-0.996904 291.219ZM-22.4626 279.135L-1.56754 267.044V291.219L-22.4626 303.337V279.135ZM407.376 303.796L428.287 291.721L449.217 303.796L428.287 315.896L407.376 303.796ZM364.427 303.796L385.322 291.721L406.268 303.796L385.322 315.896L364.427 303.796ZM321.46 303.796L342.371 291.721L363.301 303.796L342.371 315.896L321.46 303.796ZM278.511 303.796L299.406 291.721L320.352 303.796L299.406 315.896L278.511 303.796ZM235.544 303.796L256.457 291.721L277.403 303.796L256.457 315.896L235.544 303.796ZM192.595 303.796L213.523 291.721L234.436 303.796L213.523 315.896L192.595 303.796ZM149.628 303.796L170.574 291.721L191.47 303.796L170.559 315.896L149.628 303.796ZM106.679 303.796L127.608 291.721L148.521 303.796L127.608 315.896L106.679 303.796ZM71.4793 308.308L63.712 303.796L84.6595 291.721L105.572 303.796L98.7222 307.772L84.6595 315.896L71.4793 308.308ZM20.763 303.796L41.6935 291.721L62.6054 303.796L41.6935 315.896L20.763 303.796ZM-22.1684 303.796L-1.25562 291.721L19.6563 303.796L-1.25562 315.896L-22.1684 303.796ZM428.841 316.26L449.77 304.142L470.665 316.26L449.753 328.316L428.841 316.26ZM385.892 316.26L406.803 304.142L427.734 316.26L406.803 328.316L385.892 316.26ZM342.943 316.26L363.838 304.142L384.786 316.26L363.838 328.316L342.943 316.26ZM299.994 316.26L320.889 304.142L341.836 316.26L320.889 328.316L299.994 316.26ZM257.027 316.26L277.94 304.142L298.87 316.26L277.923 328.316L257.027 316.26ZM214.078 316.26L234.973 304.142L240.161 307.156L255.902 316.26L234.973 328.316L214.078 316.26ZM171.111 316.26L192.006 304.142L212.953 316.26L192.006 328.316L171.111 316.26ZM128.145 316.26L149.091 304.142L154.263 307.156L170.004 316.26L149.091 328.316L128.145 316.26ZM85.1954 316.26L106.126 304.142L127.037 316.26L106.126 328.316L85.1954 316.26ZM42.2286 316.26L63.1769 304.142L84.0711 316.26L63.1769 328.316L42.2286 316.26ZM-0.720453 316.26L20.2101 304.142L41.139 316.26L20.2101 328.316L-0.720453 316.26ZM450.064 328.819L470.977 316.71V340.894L450.064 353.02V328.819ZM428.58 340.894V316.71L449.494 328.819V353.02L428.58 340.894ZM407.098 328.819L428.028 316.71V340.894L407.098 353.02V328.819ZM385.616 340.894V316.71L406.545 328.819V353.02L385.616 340.894ZM364.149 328.819L385.061 316.71V340.894L364.149 353.02V328.819ZM342.665 340.894V316.71L363.578 328.819V353.02L342.665 340.894ZM321.199 328.819L342.111 316.71V340.894L321.199 353.02V328.819ZM299.716 340.894V316.71L320.629 328.819V353.02L299.716 340.894ZM278.234 328.819L299.146 316.71V340.894L278.234 353.02V328.819ZM256.767 340.894V316.71L277.662 328.819V353.02L256.767 340.894ZM235.267 328.819L256.179 316.71V340.894L235.267 353.02V328.819ZM213.802 340.894V316.71L234.713 328.819V353.02L213.802 340.894ZM192.318 328.819L213.229 316.71V340.894L192.318 353.02V328.819ZM170.835 340.894V316.71L191.747 328.819V353.02L170.835 340.894ZM149.369 328.819L170.264 316.71V340.894L149.369 353.02V328.819ZM127.868 340.894L127.886 316.71L148.798 328.819V353.02L127.868 340.894ZM106.402 328.819L127.331 316.71V340.894L106.402 353.02V328.819ZM84.9367 340.894V316.71L105.848 328.819V353.02L84.9367 340.894ZM63.4356 328.819L84.3645 316.71V340.894L63.4356 353.02V328.819ZM41.9699 340.894V316.71L62.8835 328.819V353.02L41.9699 340.894ZM20.4865 328.819L41.3993 316.71V340.894L20.4865 353.02V328.819ZM-0.996904 340.894V316.71L19.932 328.819V353.02L-0.996904 340.894ZM-22.4626 328.819L-1.56754 316.71V340.894L-22.4626 353.02V328.819ZM414.069 357.367L407.376 353.486L428.287 341.377L449.217 353.486L438.907 359.447L428.287 365.579L414.069 357.367ZM371.119 357.367L364.427 353.486L385.322 341.377L406.268 353.486L395.942 359.447L385.322 365.579L371.119 357.367ZM328.153 357.367L321.46 353.486L342.371 341.377L363.301 353.486L352.975 359.447L342.371 365.579L328.153 357.367ZM285.204 357.367L278.511 353.486L299.406 341.377L320.352 353.486L310.027 359.447L299.406 365.579L285.204 357.367ZM238.171 355.011L235.544 353.486L256.457 341.377L277.403 353.486L256.457 365.579L238.171 355.011ZM199.305 357.367L192.595 353.486L213.523 341.377L234.436 353.486L224.11 359.447L213.523 365.579L199.305 357.367ZM152.257 355.011L149.628 353.486L170.574 341.377L191.47 353.486L170.574 365.579L152.257 355.011ZM121.64 362.13L106.679 353.486L127.608 341.377L148.521 353.486L131.051 363.587L127.608 365.579L121.64 362.13ZM63.712 353.504L84.6595 341.377L105.572 353.504L84.6595 365.579L63.712 353.504ZM31.0739 359.447L20.763 353.486L41.6935 341.377L62.6054 353.486L41.7096 365.579L31.0739 359.447ZM-11.8776 359.447L-22.1684 353.486L-1.25562 341.377L19.6563 353.486L9.32932 359.447L-1.25562 365.579L-11.8776 359.447ZM428.841 365.907L439.168 359.966L449.77 353.816L470.665 365.907L449.77 378L428.841 365.907ZM385.892 365.907L396.218 359.966L406.803 353.816L427.752 365.907L406.803 378L385.892 365.907ZM342.943 365.907L353.269 359.966L363.838 353.816L384.803 365.907L363.838 378L342.943 365.907ZM299.994 365.907L310.303 359.966L320.889 353.816L341.836 365.907L320.889 378L299.994 365.907ZM257.027 365.907L274.877 355.583L277.94 353.816L298.87 365.907L277.94 378L257.027 365.907ZM214.06 365.907L224.387 359.966L234.973 353.816L240.161 356.83L255.902 365.907L234.973 378L214.06 365.907ZM171.094 365.907L188.961 355.583L192.006 353.816L212.972 365.907L192.006 378L171.094 365.907ZM128.145 365.907L138.471 359.966L149.091 353.816L154.263 356.83L170.004 365.907L149.091 378L128.145 365.907ZM85.1954 365.907L88.1534 364.209L106.142 353.816L127.055 365.907L106.142 378L85.1954 365.907ZM42.2286 365.907L63.1769 353.816L84.1058 365.907L63.1769 378L42.2286 365.907ZM-0.720453 365.907L2.2375 364.209L20.2101 353.816L30.8127 359.966L41.139 365.907L20.2101 378L-0.720453 365.907ZM450.064 378.483L470.977 366.375V390.61L450.064 402.685V378.483ZM428.58 390.61V366.375L449.494 378.483V402.685L428.58 390.61ZM407.098 378.483L428.028 366.375V390.61L407.098 402.685V378.483ZM385.616 390.61V366.375L406.545 378.483V402.685L385.616 390.61ZM364.149 378.483L385.061 366.375V390.61L364.149 402.685V378.483ZM342.665 390.61V366.375L363.578 378.483V402.685L342.665 390.61ZM321.199 378.483L342.111 366.375V390.61L321.199 402.685V378.483ZM299.716 390.61V366.375L320.629 378.483V402.685L299.716 390.61ZM278.234 378.483L299.146 366.375V390.61L278.234 402.685V378.483ZM256.767 390.61V366.375L277.662 378.483V402.685L256.767 390.61ZM235.267 378.483L256.179 366.375V390.61L235.267 402.685V378.483ZM213.802 390.61V366.375L234.713 378.483V402.685L213.802 390.61ZM192.318 378.483L213.229 366.375V390.61L192.318 402.685V378.483ZM170.835 390.61V366.375L191.747 378.483V402.685L170.835 390.61ZM149.369 378.483L170.264 366.375V390.61L149.369 402.685V378.483ZM127.868 390.61L127.886 366.375L148.798 378.483V402.685L127.868 390.61ZM106.402 378.483L127.331 366.375V390.61L106.402 402.685V378.483ZM84.9367 390.61V366.375L105.848 378.483V402.685L84.9367 390.61ZM63.4356 378.483L84.3645 366.375V390.61L63.4356 402.685V378.483ZM41.9699 390.61V366.375L62.8835 378.483V402.685L41.9699 390.61ZM20.4865 378.483L41.3993 366.375V390.61L20.4865 402.685V378.483ZM-0.996904 390.61V366.375L19.932 378.483V402.685L-0.996904 390.61ZM-22.4626 378.483L-1.56754 366.375V390.61L-22.4626 402.685V378.483ZM407.358 403.168L428.287 391.043L449.235 403.168L438.907 409.13L428.287 415.244L407.358 403.168ZM364.427 403.168L385.322 391.043L406.268 403.168L395.942 409.13L385.322 415.244L364.427 403.168ZM321.46 403.168L342.371 391.043L363.319 403.168L352.975 409.13L342.371 415.244L321.46 403.168ZM278.511 403.168L299.406 391.043L320.371 403.168L310.027 409.13L299.406 415.244L278.511 403.168ZM235.544 403.168L256.457 391.043L277.403 403.168L256.457 415.244L235.544 403.168ZM192.595 403.168L213.49 391.043L234.436 403.168L224.11 409.13L213.523 415.244L192.595 403.168ZM149.628 403.168L170.559 391.043L191.487 403.168L170.559 415.244L149.628 403.168ZM106.661 403.168L127.608 391.043L148.521 403.168L130.808 413.408L127.608 415.244L106.661 403.168ZM71.4793 407.673L63.712 403.168L84.6426 391.043L105.572 403.168L84.6595 415.244L71.4793 407.673ZM31.0739 409.13L20.763 403.168L41.6935 391.043L62.6054 403.168L41.7096 415.244L31.0739 409.13ZM-11.8776 409.13L-22.2039 403.168L-1.25562 391.043L19.6563 403.168L9.32932 409.13L-1.25562 415.244L-11.8776 409.13ZM428.841 415.59L449.753 403.481L470.665 415.59L449.77 427.682L428.841 415.59ZM385.892 415.59L406.803 403.481L427.752 415.59L406.803 427.682L385.892 415.59ZM342.943 415.59L363.838 403.481L384.803 415.59L363.838 427.682L342.943 415.59ZM299.994 415.59L320.889 403.481L341.836 415.59L320.889 427.682L299.994 415.59ZM257.027 415.59L277.923 403.481L298.87 415.59L277.94 427.682L257.027 415.59ZM214.06 415.59L234.973 403.481L255.902 415.59L234.973 427.682L214.06 415.59ZM171.094 415.59L192.006 403.481L212.972 415.59L192.006 427.682L171.094 415.59ZM128.145 415.59L149.091 403.481L170.004 415.59L149.091 427.647L128.145 415.59ZM85.1954 415.59L106.126 403.481L127.055 415.59L106.142 427.682L85.1954 415.59ZM42.2286 415.59L50.307 410.912L63.1769 403.481L84.1058 415.59L63.1769 427.647L42.2286 415.59ZM-0.720453 415.59L20.2101 403.481L41.139 415.59L20.2101 427.682L-0.720453 415.59ZM450.064 428.166L470.977 416.076V440.258L450.064 452.35V428.166ZM428.58 440.258V416.076L449.494 428.166V452.35L428.58 440.258ZM407.098 428.166L428.028 416.076V440.258L407.098 452.35V428.166ZM385.616 440.258V416.076L406.545 428.166V452.35L385.616 440.258ZM364.149 428.166L385.061 416.076V440.258L364.149 452.35V428.166ZM342.665 440.258V416.076L363.578 428.166V452.35L342.665 440.258ZM321.199 428.166L342.111 416.076V440.258L321.199 452.35V428.166ZM299.716 440.258V416.076L320.629 428.166V452.35L299.716 440.258ZM278.234 428.166L299.146 416.076V440.258L278.234 452.35V428.166ZM256.767 440.258V416.076L277.662 428.166V452.35L256.767 440.258ZM235.267 428.166L256.179 416.076V440.258L235.267 452.35V428.166ZM213.802 440.258V416.076L234.713 428.166V452.35L213.802 440.258ZM192.318 428.166L213.229 416.076V440.258L192.318 452.35V428.166ZM170.835 440.258V416.076L191.747 428.166V452.35L170.835 440.258ZM149.369 428.166L170.264 416.076V440.258L149.369 452.35V428.166ZM127.868 440.258L127.886 416.076L148.798 428.166V452.35L127.868 440.258ZM106.402 428.166L127.331 416.076V440.258L106.402 452.35V428.166ZM84.9367 440.258V416.076L105.848 428.166V452.35L84.9367 440.258ZM63.4356 428.166L84.3645 416.076V440.258L63.4356 452.35V428.166ZM41.9699 440.258V416.076L62.8835 428.166V452.35L41.9699 440.258ZM20.4865 428.166L41.3993 416.076V440.258L20.4865 452.35V428.166ZM-0.996904 440.258V416.076L19.932 428.166V452.35L-0.996904 440.258ZM-22.4626 428.166L-1.56754 416.076V440.258L-22.4626 452.35V428.166ZM414.069 456.715L407.376 452.834L428.287 440.743L449.217 452.834L438.907 458.795L428.287 464.943L414.069 456.715ZM371.119 456.715L364.427 452.834L385.322 440.743L406.268 452.834L395.942 458.795L385.322 464.943L371.119 456.715ZM328.153 456.715L321.46 452.834L342.371 440.743L363.301 452.834L352.975 458.795L342.371 464.943L328.153 456.715ZM285.204 456.715L278.511 452.834L299.406 440.743L320.352 452.834L310.027 458.795L299.406 464.943L285.204 456.715ZM238.171 454.36L235.544 452.834L256.457 440.743L277.403 452.834L256.457 464.943L238.171 454.36ZM199.305 456.715L192.595 452.834L213.523 440.743L234.436 452.834L224.11 458.795L213.523 464.943L199.305 456.715ZM152.257 454.36L149.628 452.834L170.574 440.743L191.47 452.834L170.574 464.943L152.257 454.36ZM121.64 461.462L106.679 452.834L127.608 440.743L148.521 452.834L131.051 462.951L127.608 464.943L121.64 461.462ZM63.712 452.834L84.6595 440.743L105.572 452.834L84.6595 464.943L63.712 452.834ZM31.0739 458.795L20.763 452.834L41.6935 440.743L62.6054 452.834L41.7096 464.943L31.0739 458.795ZM-11.8776 458.795L-22.1684 452.834L-1.25562 440.743L19.6563 452.834L9.32932 458.795L-1.25562 464.943L-11.8776 458.795ZM428.841 465.273L439.168 459.314L449.77 453.182L470.665 465.273L449.753 477.364L428.841 465.273ZM385.892 465.273L396.218 459.314L406.803 453.182L427.752 465.273L406.803 477.364L385.892 465.273ZM342.943 465.273L353.269 459.314L363.838 453.182L384.803 465.273L363.838 477.364L342.943 465.273ZM299.994 465.273L310.303 459.314L320.889 453.182L341.836 465.273L320.889 477.364L299.994 465.273ZM257.027 465.273L274.877 454.948L277.94 453.182L298.87 465.273L277.923 477.364L257.027 465.273ZM214.06 465.273L224.387 459.314L234.973 453.182L240.161 456.16L255.902 465.273L234.973 477.364L214.06 465.273ZM171.094 465.273L188.961 454.948L192.006 453.182L212.972 465.273L192.006 477.364L171.094 465.273ZM128.145 465.273L138.471 459.314L149.091 453.182L154.263 456.16L170.004 465.273L149.091 477.364L128.145 465.273ZM85.1954 465.273L88.1534 463.539L106.142 453.182L127.055 465.273L106.126 477.364L85.1954 465.273ZM42.2286 465.273L63.1769 453.182L84.1058 465.273L63.1769 477.364L42.2286 465.273ZM-0.720453 465.273L2.2375 463.539L20.2101 453.182L30.8127 459.314L41.139 465.273L20.2101 477.364L-0.720453 465.273ZM450.064 477.832L470.977 465.741V489.941L450.064 502.015V477.832ZM428.58 489.941V465.741L449.494 477.832V502.015L428.58 489.941ZM407.098 477.832L428.028 465.741V489.941L407.098 502.015V477.832ZM385.616 489.941V465.741L406.545 477.832V502.015L385.616 489.941ZM364.149 477.832L385.061 465.741V489.941L364.149 502.015V477.832ZM342.665 489.941V465.741L363.578 477.832V502.015L342.665 489.941ZM321.199 477.832L342.111 465.741V489.941L321.199 502.015V477.832ZM299.716 489.941V465.741L320.629 477.832V502.015L299.716 489.941ZM278.234 477.832L299.146 465.741V489.941L278.234 502.015V477.832ZM256.767 489.941V465.741L277.662 477.832V502.015L256.767 489.941ZM235.267 477.832L256.179 465.741V489.941L235.267 502.015V477.832ZM213.802 489.941V465.741L234.713 477.832V502.015L213.802 489.941ZM192.318 477.832L213.229 465.741V489.941L192.318 502.015V477.832ZM170.835 489.941V465.741L191.747 477.832V502.015L170.835 489.941ZM149.369 477.832L170.264 465.741V489.941L149.369 502.015V477.832ZM127.868 489.941L127.886 465.741L148.798 477.832V502.015L127.868 489.941ZM106.402 477.832L127.331 465.741V489.941L106.402 502.015V477.832ZM84.9367 489.941V465.741L105.848 477.832V502.015L84.9367 489.941ZM63.4356 477.832L84.3645 465.741V489.941L63.4356 502.015V477.832ZM41.9699 489.941V465.741L62.8835 477.832V502.015L41.9699 489.941ZM20.4865 477.832L41.3993 465.741V489.941L20.4865 502.015V477.832ZM-0.996904 489.941V465.741L19.932 477.832V502.015L-0.996904 489.941ZM-22.4626 477.832L-1.56754 465.741V489.941L-22.4626 502.015V477.832ZM407.376 502.5L428.287 490.427L449.217 502.5L438.907 508.46L428.287 514.607L407.376 502.5ZM364.427 502.5L385.322 490.427L406.268 502.5L395.942 508.46L385.322 514.607L364.427 502.5ZM321.46 502.5L342.371 490.427L363.301 502.5L352.975 508.46L342.371 514.607L321.46 502.5ZM278.511 502.5L299.406 490.427L320.352 502.5L310.027 508.46L299.406 514.607L278.511 502.5ZM235.544 502.5L256.457 490.427L277.403 502.5L256.457 514.607L235.544 502.5ZM192.595 502.5L213.49 490.427L234.436 502.5L224.11 508.46L213.523 514.607L192.595 502.5ZM149.628 502.5L170.559 490.427L191.47 502.5L170.559 514.607L149.628 502.5ZM106.679 502.5L127.608 490.427L148.521 502.5L131.051 512.634L127.608 514.607L106.679 502.5ZM71.3922 506.934L63.712 502.5L84.6426 490.427L105.572 502.5L84.6595 514.607L71.3922 506.934ZM31.0739 508.46L20.763 502.5L41.6935 490.427L62.6054 502.5L41.7096 514.607L31.0739 508.46ZM-11.8776 508.46L-22.1684 502.5L-1.25562 490.427L19.6563 502.5L9.32932 508.46L-1.25562 514.607L-11.8776 508.46ZM428.841 514.92L449.77 502.83L452.746 504.545L470.665 514.92L449.77 527.046L428.841 514.92ZM385.892 514.92L406.803 502.83L409.797 504.545L427.752 514.92L406.803 527.046L385.892 514.92ZM342.943 514.92L363.838 502.83L366.847 504.545L384.803 514.92L363.838 527.046L342.943 514.92ZM299.994 514.92L320.889 502.83L323.881 504.545L341.836 514.92L320.889 527.046L299.994 514.92ZM257.027 514.92L277.94 502.83L280.914 504.545L298.87 514.92L277.94 527.046L257.027 514.92ZM214.06 514.92L234.973 502.83L236.841 503.902L255.902 514.92L234.973 527.046L214.06 514.92ZM171.094 514.92L192.006 502.83L195.016 504.545L212.972 514.92L192.006 527.046L171.094 514.92ZM128.145 514.92L149.091 502.83L150.909 503.902L170.004 514.92L149.091 527.046L128.145 514.92ZM85.1954 514.92L106.142 502.83L115.76 508.407L127.055 514.92L106.142 527.046L85.1954 514.92ZM42.2286 514.92L50.307 510.278L63.1769 502.83L70.2163 506.918L84.1058 514.92L63.1769 527.046L42.2286 514.92ZM-0.720453 514.92L20.2101 502.83L41.139 514.92L20.2101 527.046L-0.720453 514.92ZM450.064 527.532L470.977 515.422V539.605L450.064 551.714V527.532ZM428.58 539.605V515.422L449.494 527.532V551.714L428.58 539.605ZM407.098 527.532L428.028 515.422V539.605L407.098 551.714V527.532ZM385.616 539.605V515.422L406.545 527.532V551.714L385.616 539.605ZM364.149 527.532L385.061 515.422V539.605L364.149 551.714V527.532ZM342.665 539.605V515.422L363.578 527.532V551.714L342.665 539.605ZM321.199 527.532L342.111 515.422V539.605L321.199 551.714V527.532ZM299.716 539.605V515.422L320.629 527.532V551.714L299.716 539.605ZM278.234 527.532L299.146 515.422V539.605L278.234 551.714V527.532ZM235.267 527.532L256.179 515.422V539.605L235.267 551.714V527.532ZM213.802 539.605V515.422L234.713 527.532V551.714L213.802 539.605ZM192.318 527.532L213.229 515.422V539.605L192.318 551.714V527.532ZM149.369 527.532L170.264 515.422V539.605L149.369 551.714V527.532ZM127.868 539.605L127.886 515.422L148.798 527.532V551.714L127.868 539.605ZM106.402 527.532L127.331 515.422V539.605L106.402 551.714V527.532ZM84.9367 539.605V515.422L105.848 527.532V551.714L84.9367 539.605ZM20.4865 527.532L41.3993 515.422V539.605L20.4865 551.714V527.532ZM-0.996904 539.605V515.422L19.932 527.532V551.714L-0.996904 539.605ZM256.767 539.605V515.44L277.662 527.532V551.714L256.767 539.605ZM170.835 539.605V515.44L191.747 527.532V551.714L170.835 539.605ZM63.4356 527.532L84.3645 515.44V539.605L63.4356 551.714V527.532ZM41.9699 539.605V515.44L62.8835 527.532V551.714L41.9699 539.605ZM-22.4626 527.532L-1.56754 515.44V539.605L-22.4626 551.714V527.532ZM407.358 552.165L428.287 540.107L449.235 552.165L428.287 564.275L407.358 552.165ZM364.427 552.165L385.322 540.107L406.268 552.165L385.322 564.275L364.427 552.165ZM321.46 552.165L342.371 540.107L363.319 552.165L342.371 564.275L321.46 552.165ZM278.511 552.165L299.406 540.107L320.371 552.165L299.406 564.275L278.511 552.165ZM235.544 552.165L256.457 540.107L277.403 552.165L256.457 564.275L235.544 552.165ZM192.595 552.165L213.523 540.107L234.436 552.165L213.523 564.275L192.595 552.165ZM149.628 552.165L170.574 540.107L191.487 552.165L170.559 564.275L149.628 552.165ZM106.661 552.165L127.608 540.107L148.521 552.165L127.608 564.275L106.661 552.165ZM71.4793 556.669L63.712 552.165L84.6595 540.107L105.572 552.165L98.7222 556.133L84.6595 564.275L71.4793 556.669ZM20.763 552.165L41.6935 540.107L62.6054 552.165L41.6935 564.275L20.763 552.165ZM-22.2039 552.165L-1.25562 540.107L19.6563 552.165L-1.25562 564.275L-22.2039 552.165ZM428.841 564.603L439.168 558.645L449.753 552.528L468.193 563.166L470.665 564.603L449.77 576.694L428.841 564.603ZM385.892 564.603L396.218 558.645L406.803 552.528L425.243 563.166L427.734 564.603L406.803 576.694L385.892 564.603ZM342.943 564.603L353.269 558.645L363.838 552.528L382.277 563.166L384.786 564.603L363.838 576.694L342.943 564.603ZM299.994 564.603L310.303 558.645L320.889 552.528L339.311 563.166L341.836 564.603L320.889 576.694L299.994 564.603ZM257.027 564.603L274.635 554.451L277.923 552.528L296.362 563.166L298.87 564.603L277.94 576.694L257.027 564.603ZM214.078 564.603L224.387 558.645L234.973 552.528L255.902 564.603L234.973 576.694L214.078 564.603ZM171.111 564.603L188.703 554.451L192.006 552.528L210.446 563.166L212.953 564.603L192.006 576.694L171.111 564.603ZM128.145 564.603L138.471 558.645L149.091 552.528L170.004 564.603L149.091 576.694L128.145 564.603ZM85.1954 564.603L88.3605 562.801L106.126 552.528L120.568 560.862L127.037 564.603L106.142 576.694L85.1954 564.603ZM42.2286 564.603L63.1769 552.528L74.7483 559.198L84.0711 564.603L63.1769 576.694L42.2286 564.603ZM-0.720453 564.603L2.44463 562.801L20.2101 552.528L30.8127 558.645L41.139 564.603L20.2101 576.694L-0.720453 564.603ZM450.064 577.198L470.977 565.089V589.271L450.064 601.397V577.198ZM428.58 589.271V565.089L449.494 577.198V601.397L428.58 589.271ZM407.098 577.198L428.028 565.089V589.271L407.098 601.397V577.198ZM385.616 589.271V565.089L406.545 577.198V601.397L385.616 589.271ZM364.149 577.198L385.061 565.089V589.271L364.149 601.397V577.198ZM342.665 589.271V565.089L363.578 577.198V601.397L342.665 589.271ZM321.199 577.198L342.111 565.089V589.271L321.199 601.397V577.198ZM299.716 589.271V565.089L320.629 577.198V601.397L299.716 589.271ZM278.234 577.198L299.146 565.089V589.271L278.234 601.397V577.198ZM256.767 589.271V565.089L277.662 577.198V601.397L256.767 589.271ZM235.267 577.198L256.179 565.089V589.271L235.267 601.397V577.198ZM213.802 589.271V565.089L234.713 577.198V601.397L213.802 589.271ZM192.318 577.198L213.229 565.089V589.271L192.318 601.397V577.198ZM170.835 589.271V565.089L191.747 577.198V601.397L170.835 589.271ZM149.369 577.198L170.264 565.089V589.271L149.369 601.397V577.198ZM127.868 589.271L127.886 565.089L148.798 577.198V601.397L127.868 589.271ZM106.402 577.198L127.331 565.089V589.271L106.402 601.397V577.198ZM84.9367 589.271V565.089L105.848 577.198V601.397L84.9367 589.271ZM63.4356 577.198L84.3645 565.089V589.271L63.4356 601.397V577.198ZM41.9699 589.271V565.089L62.8835 577.198V601.397L41.9699 589.271ZM20.4865 577.198L41.3993 565.089V589.271L20.4865 601.397V577.198ZM-0.996904 589.271V565.089L19.932 577.198V601.397L-0.996904 589.271ZM-22.4626 577.198L-1.56754 565.089V589.271L-22.4626 601.397V577.198ZM414.069 605.729L407.376 601.883L428.287 589.757L449.217 601.883L438.907 607.824L428.287 613.956L414.069 605.729ZM371.119 605.729L364.427 601.883L385.322 589.757L406.268 601.883L395.942 607.824L385.322 613.956L371.119 605.729ZM328.153 605.729L321.46 601.883L342.371 589.757L363.301 601.883L352.975 607.824L342.371 613.956L328.153 605.729ZM285.204 605.729L278.511 601.883L299.406 589.757L320.352 601.883L310.027 607.824L299.406 613.956L285.204 605.729ZM238.171 603.389L235.544 601.883L256.457 589.757L277.403 601.883L256.457 613.956L238.171 603.389ZM199.305 605.729L192.595 601.883L213.49 589.757L234.436 601.883L224.11 607.824L213.523 613.956L199.305 605.729ZM152.257 603.389L149.628 601.883L170.559 589.757L191.47 601.883L170.574 613.956L152.257 603.389ZM121.64 610.509L106.679 601.883L127.608 589.757L148.521 601.883L131.051 611.964L127.608 613.956L121.64 610.509ZM63.712 601.883L84.6426 589.757L105.572 601.883L84.6595 613.956L63.712 601.883ZM31.0739 607.824L20.763 601.883L41.6935 589.757L62.6054 601.883L41.7096 613.956L31.0739 607.824ZM-11.8776 607.824L-22.1684 601.883L-1.25562 589.757L19.6563 601.883L9.32932 607.824L-1.25562 613.956L-11.8776 607.824ZM428.841 614.285L449.77 602.194L470.665 614.285L449.753 626.377L428.841 614.285ZM385.892 614.285L406.803 602.194L427.752 614.285L406.803 626.377L385.892 614.285ZM342.943 614.285L363.838 602.194L384.803 614.285L363.838 626.377L342.943 614.285ZM299.994 614.285L320.889 602.194L341.836 614.285L320.889 626.377L299.994 614.285ZM257.027 614.285L277.94 602.194L298.87 614.285L277.923 626.377L257.027 614.285ZM214.06 614.285L234.973 602.194L240.161 605.191L255.902 614.285L234.973 626.377L214.06 614.285ZM171.094 614.285L192.006 602.194L212.972 614.285L192.006 626.377L171.094 614.285ZM128.145 614.285L149.091 602.194L154.263 605.191L170.004 614.285L149.091 626.377L128.145 614.285ZM85.1954 614.285L106.126 602.194L127.055 614.285L106.126 626.377L85.1954 614.285ZM42.2286 614.285L63.1769 602.194L84.1058 614.285L63.1769 626.377L42.2286 614.285ZM-0.720453 614.285L20.2101 602.194L41.139 614.285L20.2101 626.377L-0.720453 614.285ZM450.064 626.863L470.977 614.754V638.954L450.064 651.046V626.863ZM428.58 638.954V614.754L449.494 626.863V651.046L428.58 638.954ZM407.098 626.863L428.028 614.754V638.954L407.098 651.046V626.863ZM385.616 638.954V614.754L406.545 626.863V651.046L385.616 638.954ZM364.149 626.863L385.061 614.754V638.954L364.149 651.046V626.863ZM342.665 638.954V614.754L363.578 626.863V651.046L342.665 638.954ZM321.199 626.863L342.111 614.754V638.954L321.199 651.046V626.863ZM299.716 638.954V614.754L320.629 626.863V651.046L299.716 638.954ZM278.234 626.863L299.146 614.754V638.954L278.234 651.046V626.863ZM256.767 638.954V614.754L277.662 626.863V651.046L256.767 638.954ZM235.267 626.863L256.179 614.754V638.954L235.267 651.046V626.863ZM213.802 638.954V614.754L234.713 626.863V651.046L213.802 638.954ZM192.318 626.863L213.229 614.754V638.954L192.318 651.046V626.863ZM170.835 638.954V614.754L191.747 626.863V651.046L170.835 638.954ZM149.369 626.863L170.264 614.754V638.954L149.369 651.046V626.863ZM127.868 638.954L127.886 614.754L148.798 626.863V651.046L127.868 638.954ZM106.402 626.863L127.331 614.754V638.954L106.402 651.046V626.863ZM84.9367 638.954V614.754L105.848 626.863V651.046L84.9367 638.954ZM63.4356 626.863L84.3645 614.754V638.954L63.4356 651.046V626.863ZM41.9699 638.954V614.754L62.8835 626.863V651.046L41.9699 638.954ZM20.4865 626.863L41.3993 614.754V638.954L20.4865 651.046V626.863ZM-0.996904 638.954V614.754L19.932 626.863V651.046L-0.996904 638.954ZM-22.4626 626.863L-1.56754 614.754V638.954L-22.4626 651.046V626.863Z" fill="#D9EAED"/>
</g>
<defs>
<clipPath id="clip0">
<rect width="1465" height="449" fill="white" transform="translate(-144)"/>
</clipPath>
</defs>
</svg>
