<svg width="26" height="22" viewBox="0 0 26 22" fill="none" xmlns="http://www.w3.org/2000/svg">
<path fill-rule="evenodd" clip-rule="evenodd" d="M18.0786 0.0101871C18.0899 0.00475311 18.0997 0 18.1083 0H18.1753C18.311 0.0800323 18.3308 0.177294 18.2426 0.27751C18.1228 0.409899 17.9983 0.546555 17.8698 0.687624C17.138 1.49113 16.2757 2.43786 15.3998 3.55543C14.4598 4.75385 13.6636 6.0859 13.3527 7.11051C13.2236 7.53077 13.1624 7.84442 13.1345 8.1298C17.0035 8.14483 21.6666 8.56436 24.1223 9.499C24.2693 9.58913 24.409 9.69352 24.4946 9.78921C24.6319 9.94824 24.6698 10.0592 24.6698 10.1716C24.6698 10.3418 24.5802 10.5109 24.4111 10.6725C22.5854 9.4217 18.2249 8.73079 13.1129 8.71377V10.5953C15.3666 10.6002 17.9953 10.7083 19.7555 11.108C19.7808 11.1176 19.8107 11.1306 19.8345 11.1423C20.0304 11.2305 20.2858 11.3671 20.2858 11.5412C20.2858 11.6917 20.1748 11.8255 19.9742 11.9404C18.6296 11.2782 15.6471 11.1606 13.1129 11.1563V15.3722C13.1478 15.3719 13.1828 15.3717 13.2177 15.3717C14.7737 15.3717 16.1549 15.478 17.02 15.794C17.2088 15.898 17.3132 16.0176 17.3107 16.1472C17.3083 16.2672 17.2412 16.3756 17.1112 16.4689C16.7733 16.0266 14.8862 15.8088 13.1859 15.8088C13.1615 15.8088 13.1372 15.8089 13.1129 15.809V22H12.6329V21.688C12.4898 20.8637 11.9802 20.3091 11.3793 19.8156C11.0596 19.5538 10.6874 19.2949 10.351 19.061C10.0287 18.8368 9.73944 18.6357 9.561 18.4768C9.16691 18.124 8.9684 17.8498 8.83982 17.5931C8.98875 17.6575 9.14377 17.7193 9.30123 17.777C9.45765 17.8362 9.62798 17.8889 9.80928 17.9416C10.0119 18.1898 10.3937 18.4686 10.8181 18.7785C11.4907 19.2695 12.2702 19.8388 12.6131 20.4881C12.6197 20.5006 12.6263 20.5132 12.6329 20.526V15.8237C11.1281 15.9057 9.99048 16.312 9.58223 16.7144C9.37658 16.6658 9.18206 16.6126 8.99433 16.5559L8.89551 16.5113C9.36871 15.9608 10.9349 15.4804 12.6329 15.3878V11.1595C11.7304 11.1766 10.668 11.2606 9.70185 11.3947C8.61286 11.5486 7.21296 11.8402 6.40862 12.32H6.40357C6.17538 12.2705 5.95126 12.2361 5.73397 12.2028L5.73395 12.2028C5.60017 12.1823 5.46899 12.1622 5.34103 12.1392C6.48102 11.1993 9.82321 10.6371 12.6329 10.5974V8.71416C7.48098 8.73956 3.10616 9.45184 1.34197 10.7324C1.14328 10.5546 1.03906 10.3693 1.03906 10.1812C1.03906 9.9893 1.23132 9.76033 1.49265 9.58461C3.8668 8.59648 8.64924 8.15053 12.6329 8.13011V7.75409C12.6329 7.75409 12.6444 6.16942 12.775 5.23945C12.9431 4.03563 13.4675 3.04756 14.2035 2.33039C15.0664 1.49055 16.5433 0.456367 18.0482 0.0226173C18.0593 0.0194931 18.0694 0.014616 18.0786 0.0101871ZM7.35289 2.34507V2.48722C7.35289 2.50219 7.36673 2.51394 7.3815 2.52649L7.38665 2.53089L7.5925 2.69905C8.15876 3.16147 8.85061 3.72646 9.7099 4.4564C10.1334 4.81308 11.0167 5.56783 12.3087 6.89971L12.0923 5.09964C11.989 4.51208 11.7984 4.14653 11.5599 3.86641C11.2568 3.50521 10.987 3.24911 10.2621 2.95524C9.34226 2.58099 8.17342 2.31462 7.51279 2.27965L7.51277 2.27965C7.50982 2.27886 7.50834 2.27847 7.50684 2.27828C7.5061 2.27818 7.50536 2.27813 7.50444 2.27811C7.50348 2.27808 7.50233 2.27808 7.50078 2.27808C7.42666 2.27808 7.35289 2.30644 7.35289 2.34507Z" fill="#7AC30F"/>
<path fill-rule="evenodd" clip-rule="evenodd" d="M13.1088 18.4254C11.7614 18.4254 10.2533 18.159 9.29949 17.8111C7.09229 17.001 5.49182 15.5116 5.12335 13.9161C2.01272 13.2681 0 12.2245 0 10.9807C0 10.3847 0.640099 9.89524 1.68368 9.50933C1.36041 9.68715 1.10412 9.95979 1.10412 10.182C1.10412 11.5328 6.43231 12.6441 12.9107 12.6441C13.5736 12.6441 15.3037 12.5959 15.5231 12.5873C18.2596 12.4758 20.2065 12.176 20.2065 11.5415C20.2065 11.3661 19.9513 11.2304 19.7557 11.1413C19.6707 11.1048 19.5442 11.0648 19.5442 11.0648C19.5442 11.0648 19.6332 11.0836 19.6934 11.0968C20.9693 11.3586 21.7362 11.7987 21.7625 12.4095C21.8224 13.7193 18.9282 14.4086 15.1277 14.5788C15.0358 14.5849 13.824 14.6284 12.9375 14.6284C10.3858 14.6284 8.00365 14.4318 5.99643 14.0825C6.14165 14.6284 6.47103 14.9793 6.97345 15.4469C7.67775 16.0971 8.81737 16.589 10.4367 16.8402C11.1436 16.9516 12.2305 17.0332 13.0561 17.0332C15.4941 17.0332 17.2478 16.7591 17.2542 16.1488C17.2575 15.995 17.1119 15.853 16.8471 15.738C17.5465 15.9527 18.017 16.2927 18.017 16.7738C18.017 17.753 16.3498 18.4254 13.1088 18.4254ZM23.8603 9.40546C24.2907 9.55509 24.6667 9.7176 24.9533 9.88219C25.5419 10.2204 25.8281 10.5811 25.8281 10.9807C25.8281 11.8924 24.9515 12.5786 23.4858 13.1516C23.4241 13.1636 23.4312 13.0898 23.4312 13.0898V11.2511C24.1512 10.928 24.606 10.566 24.606 10.1846C24.606 10.071 24.5613 9.95979 24.4221 9.80163C24.301 9.66383 24.0771 9.51038 23.8603 9.40546Z" fill="#7AC30F"/>
<path d="M23.9571 12.1873C23.9571 12.7039 23.7286 13.1207 23.4475 13.1207C23.1628 13.1207 22.9375 12.7039 22.9375 12.1873C22.9375 11.6712 23.1628 11.2554 23.4475 11.2554C23.7286 11.2554 23.9571 11.6712 23.9571 12.1873Z" fill="#7AC30F"/>
</svg>
