<svg width="803" height="119" viewBox="0 0 803 119" fill="none" xmlns="http://www.w3.org/2000/svg">
<rect x="14" width="774" height="30" rx="4" fill="white"/>
<path opacity="0.2" d="M30.092 20H31.856V15.604H36.49V20H38.254V10.088H36.49V14.092H31.856V10.088H30.092V20ZM44.5296 20H46.0976V15.912C46.0976 14.568 45.5096 13.084 43.1016 13.084C42.0796 13.084 41.0156 13.448 40.2596 14.148L41.1276 15.17C41.5616 14.736 42.2476 14.4 42.9616 14.4C43.8016 14.4 44.5016 14.806 44.5016 15.632V15.8C42.4016 15.8 39.8816 16.08 39.8816 18.082C39.8816 19.65 41.3236 20.168 42.4016 20.168C43.3536 20.168 44.1516 19.734 44.4876 19.146H44.5296V20ZM44.5016 17.172C44.5016 18.236 43.8856 18.894 42.7376 18.894C42.1636 18.894 41.5616 18.698 41.5616 18.054C41.5616 17.06 43.0596 16.934 44.1236 16.934H44.5016V17.172ZM48.0549 20H49.9029L52.8149 15.688H52.8429V20H54.5229V13.28H52.7029L49.7629 17.62H49.7349V13.28H48.0549V20ZM56.5451 20H58.1971V15.226H58.2251L60.2551 20H61.3751L63.4611 15.24H63.4891V20H65.1411V13.28H62.7611L60.8711 17.816H60.8571L58.8971 13.28H56.5451V20ZM68.4425 15.968C68.5125 15.03 69.3105 14.344 70.3045 14.344C71.3965 14.344 71.8865 15.1 71.8865 15.968H68.4425ZM73.5665 16.724C73.5665 14.302 72.1945 13.084 70.3185 13.084C68.2885 13.084 66.7625 14.512 66.7625 16.682C66.7625 18.866 68.3025 20.196 70.3745 20.196C71.6485 20.196 72.6005 19.748 73.2585 18.852L72.1385 17.956C71.7605 18.488 71.2005 18.824 70.3605 18.824C69.3805 18.824 68.5125 18.124 68.4425 17.172H73.5525C73.5665 17.018 73.5665 16.878 73.5665 16.724ZM75.1935 20H76.8735V17.158H79.7015V20H81.3815V13.28H79.7015V15.814H76.8735V13.28H75.1935V20ZM83.0047 16.612C83.0047 18.726 84.6287 20.196 86.6587 20.196C88.6887 20.196 90.3127 18.726 90.3127 16.612C90.3127 14.498 88.6887 13.084 86.6587 13.084C84.6287 13.084 83.0047 14.498 83.0047 16.612ZM84.7127 16.612C84.7127 15.562 85.3287 14.456 86.6587 14.456C87.9887 14.456 88.6047 15.562 88.6047 16.612C88.6047 17.662 87.9887 18.796 86.6587 18.796C85.3287 18.796 84.7127 17.662 84.7127 16.612ZM91.9416 20H95.5116C96.9956 20 98.0596 19.328 98.0596 18.096C98.0596 17.172 97.4296 16.598 96.6316 16.472V16.444C97.3036 16.276 97.7656 15.73 97.7656 15.03C97.7656 13.602 96.4636 13.28 95.4136 13.28H91.9416V20ZM93.6216 18.796V17.172H95.2456C95.9596 17.172 96.3656 17.41 96.3656 17.984C96.3656 18.558 95.9036 18.796 95.2036 18.796H93.6216ZM93.6216 15.968V14.47H95.0916C95.7356 14.47 96.1416 14.666 96.1416 15.226C96.1416 15.772 95.7076 15.968 95.2176 15.968H93.6216ZM103.852 20H105.42V15.912C105.42 14.568 104.832 13.084 102.424 13.084C101.402 13.084 100.338 13.448 99.5819 14.148L100.45 15.17C100.884 14.736 101.57 14.4 102.284 14.4C103.124 14.4 103.824 14.806 103.824 15.632V15.8C101.724 15.8 99.2039 16.08 99.2039 18.082C99.2039 19.65 100.646 20.168 101.724 20.168C102.676 20.168 103.474 19.734 103.81 19.146H103.852V20ZM103.824 17.172C103.824 18.236 103.208 18.894 102.06 18.894C101.486 18.894 100.884 18.698 100.884 18.054C100.884 17.06 102.382 16.934 103.446 16.934H103.824V17.172ZM107.377 20H109.057V17.158H111.885V20H113.565V13.28H111.885V15.814H109.057V13.28H107.377V20ZM115.58 20H117.428L120.34 15.688H120.368V20H122.048V13.28H120.228L117.288 17.62H117.26V13.28H115.58V20ZM125.359 15.968C125.429 15.03 126.227 14.344 127.221 14.344C128.313 14.344 128.803 15.1 128.803 15.968H125.359ZM130.483 16.724C130.483 14.302 129.111 13.084 127.235 13.084C125.205 13.084 123.679 14.512 123.679 16.682C123.679 18.866 125.219 20.196 127.291 20.196C128.565 20.196 129.517 19.748 130.175 18.852L129.055 17.956C128.677 18.488 128.117 18.824 127.277 18.824C126.297 18.824 125.429 18.124 125.359 17.172H130.469C130.483 17.018 130.483 16.878 130.483 16.724Z" fill="#00758A"/>
<path opacity="0.2" d="M226.094 20H227.858V11.628H230.896V10.088H223.056V11.628H226.094V20ZM230.233 16.612C230.233 18.726 231.857 20.196 233.887 20.196C235.917 20.196 237.541 18.726 237.541 16.612C237.541 14.498 235.917 13.084 233.887 13.084C231.857 13.084 230.233 14.498 230.233 16.612ZM231.941 16.612C231.941 15.562 232.557 14.456 233.887 14.456C235.217 14.456 235.833 15.562 235.833 16.612C235.833 17.662 235.217 18.796 233.887 18.796C232.557 18.796 231.941 17.662 231.941 16.612ZM239.17 20H242.74C244.224 20 245.288 19.328 245.288 18.096C245.288 17.172 244.658 16.598 243.86 16.472V16.444C244.532 16.276 244.994 15.73 244.994 15.03C244.994 13.602 243.692 13.28 242.642 13.28H239.17V20ZM240.85 18.796V17.172H242.474C243.188 17.172 243.594 17.41 243.594 17.984C243.594 18.558 243.132 18.796 242.432 18.796H240.85ZM240.85 15.968V14.47H242.32C242.964 14.47 243.37 14.666 243.37 15.226C243.37 15.772 242.936 15.968 242.446 15.968H240.85ZM251.08 20H252.648V15.912C252.648 14.568 252.06 13.084 249.652 13.084C248.63 13.084 247.566 13.448 246.81 14.148L247.678 15.17C248.112 14.736 248.798 14.4 249.512 14.4C250.352 14.4 251.052 14.806 251.052 15.632V15.8C248.952 15.8 246.432 16.08 246.432 18.082C246.432 19.65 247.874 20.168 248.952 20.168C249.904 20.168 250.702 19.734 251.038 19.146H251.08V20ZM251.052 17.172C251.052 18.236 250.436 18.894 249.288 18.894C248.714 18.894 248.112 18.698 248.112 18.054C248.112 17.06 249.61 16.934 250.674 16.934H251.052V17.172ZM254.606 13.28V23.36H256.286V19.104H256.314C256.748 19.776 257.602 20.196 258.54 20.196C260.584 20.196 261.844 18.572 261.844 16.612C261.844 14.624 260.5 13.084 258.582 13.084C257.35 13.084 256.594 13.686 256.258 14.218H256.216V13.28H254.606ZM260.136 16.612C260.136 17.662 259.506 18.796 258.204 18.796C256.972 18.796 256.23 17.69 256.23 16.64C256.23 15.59 256.972 14.456 258.204 14.456C259.506 14.456 260.136 15.562 260.136 16.612ZM269.863 20H271.543V10.088H270.017L266.923 12.58L267.903 13.742L269.863 12.132V20Z" fill="#00758A"/>
<path opacity="0.2" d="M338.094 20H339.858V11.628H342.896V10.088H335.056V11.628H338.094V20ZM342.233 16.612C342.233 18.726 343.857 20.196 345.887 20.196C347.917 20.196 349.541 18.726 349.541 16.612C349.541 14.498 347.917 13.084 345.887 13.084C343.857 13.084 342.233 14.498 342.233 16.612ZM343.941 16.612C343.941 15.562 344.557 14.456 345.887 14.456C347.217 14.456 347.833 15.562 347.833 16.612C347.833 17.662 347.217 18.796 345.887 18.796C344.557 18.796 343.941 17.662 343.941 16.612ZM351.17 20H354.74C356.224 20 357.288 19.328 357.288 18.096C357.288 17.172 356.658 16.598 355.86 16.472V16.444C356.532 16.276 356.994 15.73 356.994 15.03C356.994 13.602 355.692 13.28 354.642 13.28H351.17V20ZM352.85 18.796V17.172H354.474C355.188 17.172 355.594 17.41 355.594 17.984C355.594 18.558 355.132 18.796 354.432 18.796H352.85ZM352.85 15.968V14.47H354.32C354.964 14.47 355.37 14.666 355.37 15.226C355.37 15.772 354.936 15.968 354.446 15.968H352.85ZM363.08 20H364.648V15.912C364.648 14.568 364.06 13.084 361.652 13.084C360.63 13.084 359.566 13.448 358.81 14.148L359.678 15.17C360.112 14.736 360.798 14.4 361.512 14.4C362.352 14.4 363.052 14.806 363.052 15.632V15.8C360.952 15.8 358.432 16.08 358.432 18.082C358.432 19.65 359.874 20.168 360.952 20.168C361.904 20.168 362.702 19.734 363.038 19.146H363.08V20ZM363.052 17.172C363.052 18.236 362.436 18.894 361.288 18.894C360.714 18.894 360.112 18.698 360.112 18.054C360.112 17.06 361.61 16.934 362.674 16.934H363.052V17.172ZM366.606 13.28V23.36H368.286V19.104H368.314C368.748 19.776 369.602 20.196 370.54 20.196C372.584 20.196 373.844 18.572 373.844 16.612C373.844 14.624 372.5 13.084 370.582 13.084C369.35 13.084 368.594 13.686 368.258 14.218H368.216V13.28H366.606ZM372.136 16.612C372.136 17.662 371.506 18.796 370.204 18.796C368.972 18.796 368.23 17.69 368.23 16.64C368.23 15.59 368.972 14.456 370.204 14.456C371.506 14.456 372.136 15.562 372.136 16.612ZM378.923 20H385.517V18.46H381.051L383.907 15.73C384.789 14.89 385.503 14.008 385.503 12.734C385.503 10.83 383.921 9.836 382.199 9.836C380.379 9.836 379.049 11.04 378.853 12.678L380.491 12.93C380.617 11.964 381.219 11.236 382.171 11.236C383.067 11.236 383.753 11.838 383.753 12.762C383.753 13.532 383.361 14.106 382.745 14.708L378.923 18.46V20Z" fill="#00758A"/>
<path opacity="0.2" d="M450.094 20H451.858V11.628H454.896V10.088H447.056V11.628H450.094V20ZM454.233 16.612C454.233 18.726 455.857 20.196 457.887 20.196C459.917 20.196 461.541 18.726 461.541 16.612C461.541 14.498 459.917 13.084 457.887 13.084C455.857 13.084 454.233 14.498 454.233 16.612ZM455.941 16.612C455.941 15.562 456.557 14.456 457.887 14.456C459.217 14.456 459.833 15.562 459.833 16.612C459.833 17.662 459.217 18.796 457.887 18.796C456.557 18.796 455.941 17.662 455.941 16.612ZM463.17 20H466.74C468.224 20 469.288 19.328 469.288 18.096C469.288 17.172 468.658 16.598 467.86 16.472V16.444C468.532 16.276 468.994 15.73 468.994 15.03C468.994 13.602 467.692 13.28 466.642 13.28H463.17V20ZM464.85 18.796V17.172H466.474C467.188 17.172 467.594 17.41 467.594 17.984C467.594 18.558 467.132 18.796 466.432 18.796H464.85ZM464.85 15.968V14.47H466.32C466.964 14.47 467.37 14.666 467.37 15.226C467.37 15.772 466.936 15.968 466.446 15.968H464.85ZM475.08 20H476.648V15.912C476.648 14.568 476.06 13.084 473.652 13.084C472.63 13.084 471.566 13.448 470.81 14.148L471.678 15.17C472.112 14.736 472.798 14.4 473.512 14.4C474.352 14.4 475.052 14.806 475.052 15.632V15.8C472.952 15.8 470.432 16.08 470.432 18.082C470.432 19.65 471.874 20.168 472.952 20.168C473.904 20.168 474.702 19.734 475.038 19.146H475.08V20ZM475.052 17.172C475.052 18.236 474.436 18.894 473.288 18.894C472.714 18.894 472.112 18.698 472.112 18.054C472.112 17.06 473.61 16.934 474.674 16.934H475.052V17.172ZM478.606 13.28V23.36H480.286V19.104H480.314C480.748 19.776 481.602 20.196 482.54 20.196C484.584 20.196 485.844 18.572 485.844 16.612C485.844 14.624 484.5 13.084 482.582 13.084C481.35 13.084 480.594 13.686 480.258 14.218H480.216V13.28H478.606ZM484.136 16.612C484.136 17.662 483.506 18.796 482.204 18.796C480.972 18.796 480.23 17.69 480.23 16.64C480.23 15.59 480.972 14.456 482.204 14.456C483.506 14.456 484.136 15.562 484.136 16.612ZM492.925 15.506H493.345C494.395 15.506 495.753 15.898 495.753 17.186C495.753 18.376 494.801 18.824 493.933 18.824C492.883 18.824 492.197 18.208 491.959 17.424L490.391 17.914C490.923 19.566 492.323 20.252 493.989 20.252C495.669 20.252 497.447 19.258 497.447 17.2C497.447 15.982 496.607 15.058 495.403 14.82V14.792C496.481 14.526 497.181 13.616 497.181 12.552C497.181 10.774 495.725 9.836 493.989 9.836C492.407 9.836 491.105 10.774 490.755 12.104L492.337 12.51C492.533 11.754 493.107 11.236 493.919 11.236C494.759 11.236 495.487 11.768 495.487 12.664C495.487 13.882 494.367 14.162 493.373 14.162H492.925V15.506Z" fill="#00758A"/>
<path opacity="0.2" d="M562.094 20H563.858V11.628H566.896V10.088H559.056V11.628H562.094V20ZM566.233 16.612C566.233 18.726 567.857 20.196 569.887 20.196C571.917 20.196 573.541 18.726 573.541 16.612C573.541 14.498 571.917 13.084 569.887 13.084C567.857 13.084 566.233 14.498 566.233 16.612ZM567.941 16.612C567.941 15.562 568.557 14.456 569.887 14.456C571.217 14.456 571.833 15.562 571.833 16.612C571.833 17.662 571.217 18.796 569.887 18.796C568.557 18.796 567.941 17.662 567.941 16.612ZM575.17 20H578.74C580.224 20 581.288 19.328 581.288 18.096C581.288 17.172 580.658 16.598 579.86 16.472V16.444C580.532 16.276 580.994 15.73 580.994 15.03C580.994 13.602 579.692 13.28 578.642 13.28H575.17V20ZM576.85 18.796V17.172H578.474C579.188 17.172 579.594 17.41 579.594 17.984C579.594 18.558 579.132 18.796 578.432 18.796H576.85ZM576.85 15.968V14.47H578.32C578.964 14.47 579.37 14.666 579.37 15.226C579.37 15.772 578.936 15.968 578.446 15.968H576.85ZM587.08 20H588.648V15.912C588.648 14.568 588.06 13.084 585.652 13.084C584.63 13.084 583.566 13.448 582.81 14.148L583.678 15.17C584.112 14.736 584.798 14.4 585.512 14.4C586.352 14.4 587.052 14.806 587.052 15.632V15.8C584.952 15.8 582.432 16.08 582.432 18.082C582.432 19.65 583.874 20.168 584.952 20.168C585.904 20.168 586.702 19.734 587.038 19.146H587.08V20ZM587.052 17.172C587.052 18.236 586.436 18.894 585.288 18.894C584.714 18.894 584.112 18.698 584.112 18.054C584.112 17.06 585.61 16.934 586.674 16.934H587.052V17.172ZM590.606 13.28V23.36H592.286V19.104H592.314C592.748 19.776 593.602 20.196 594.54 20.196C596.584 20.196 597.844 18.572 597.844 16.612C597.844 14.624 596.5 13.084 594.582 13.084C593.35 13.084 592.594 13.686 592.258 14.218H592.216V13.28H590.606ZM596.136 16.612C596.136 17.662 595.506 18.796 594.204 18.796C592.972 18.796 592.23 17.69 592.23 16.64C592.23 15.59 592.972 14.456 594.204 14.456C595.506 14.456 596.136 15.562 596.136 16.612ZM606.829 20H608.481V17.942H609.867V16.5H608.481V10.088H606.465L602.251 16.458V17.942H606.829V20ZM606.829 16.5H603.987L606.801 12.062H606.829V16.5Z" fill="#00758A"/>
<path opacity="0.2" d="M674.094 20H675.858V11.628H678.896V10.088H671.056V11.628H674.094V20ZM678.233 16.612C678.233 18.726 679.857 20.196 681.887 20.196C683.917 20.196 685.541 18.726 685.541 16.612C685.541 14.498 683.917 13.084 681.887 13.084C679.857 13.084 678.233 14.498 678.233 16.612ZM679.941 16.612C679.941 15.562 680.557 14.456 681.887 14.456C683.217 14.456 683.833 15.562 683.833 16.612C683.833 17.662 683.217 18.796 681.887 18.796C680.557 18.796 679.941 17.662 679.941 16.612ZM687.17 20H690.74C692.224 20 693.288 19.328 693.288 18.096C693.288 17.172 692.658 16.598 691.86 16.472V16.444C692.532 16.276 692.994 15.73 692.994 15.03C692.994 13.602 691.692 13.28 690.642 13.28H687.17V20ZM688.85 18.796V17.172H690.474C691.188 17.172 691.594 17.41 691.594 17.984C691.594 18.558 691.132 18.796 690.432 18.796H688.85ZM688.85 15.968V14.47H690.32C690.964 14.47 691.37 14.666 691.37 15.226C691.37 15.772 690.936 15.968 690.446 15.968H688.85ZM699.08 20H700.648V15.912C700.648 14.568 700.06 13.084 697.652 13.084C696.63 13.084 695.566 13.448 694.81 14.148L695.678 15.17C696.112 14.736 696.798 14.4 697.512 14.4C698.352 14.4 699.052 14.806 699.052 15.632V15.8C696.952 15.8 694.432 16.08 694.432 18.082C694.432 19.65 695.874 20.168 696.952 20.168C697.904 20.168 698.702 19.734 699.038 19.146H699.08V20ZM699.052 17.172C699.052 18.236 698.436 18.894 697.288 18.894C696.714 18.894 696.112 18.698 696.112 18.054C696.112 17.06 697.61 16.934 698.674 16.934H699.052V17.172ZM702.606 13.28V23.36H704.286V19.104H704.314C704.748 19.776 705.602 20.196 706.54 20.196C708.584 20.196 709.844 18.572 709.844 16.612C709.844 14.624 708.5 13.084 706.582 13.084C705.35 13.084 704.594 13.686 704.258 14.218H704.216V13.28H702.606ZM708.136 16.612C708.136 17.662 707.506 18.796 706.204 18.796C704.972 18.796 704.23 17.69 704.23 16.64C704.23 15.59 704.972 14.456 706.204 14.456C707.506 14.456 708.136 15.562 708.136 16.612ZM721.027 10.088H715.385L715.217 15.506C715.819 15.198 716.771 14.96 717.527 14.96C718.605 14.96 719.739 15.408 719.739 16.934C719.739 18.138 718.885 18.824 717.891 18.824C717.009 18.824 716.309 18.306 716.029 17.522L714.503 18.082C715.021 19.412 716.197 20.252 717.849 20.252C719.823 20.252 721.461 18.95 721.461 16.752C721.461 14.75 719.991 13.616 718.045 13.616C717.695 13.616 717.191 13.658 716.883 13.742L716.981 11.6H721.027V10.088Z" fill="#00758A"/>
<rect x="14" y="35" width="774" height="30" rx="4" fill="white"/>
<path fill-rule="evenodd" clip-rule="evenodd" d="M569.432 45.3293C569.644 45.1191 569.93 45.0008 570.229 45C570.527 44.9992 570.814 45.1159 571.027 45.3249C571.241 45.534 571.363 45.8185 571.368 46.117C571.373 46.4156 571.26 46.7041 571.055 46.9203L565.006 54.4812C564.902 54.5931 564.776 54.683 564.637 54.7453C564.497 54.8077 564.347 54.8413 564.194 54.8442C564.041 54.847 563.89 54.819 563.748 54.7618C563.606 54.7046 563.477 54.6195 563.369 54.5115L559.362 50.5022C559.25 50.3982 559.16 50.2727 559.098 50.1333C559.036 49.9939 559.003 49.8435 559 49.6909C558.997 49.5383 559.026 49.3867 559.083 49.2452C559.14 49.1037 559.225 48.9752 559.333 48.8673C559.441 48.7594 559.569 48.6743 559.711 48.6171C559.852 48.56 560.004 48.5319 560.156 48.5346C560.309 48.5373 560.46 48.5707 560.599 48.6328C560.738 48.6949 560.864 48.7845 560.968 48.8961L564.141 52.0674L569.403 45.3627C569.412 45.3509 569.422 45.3398 569.433 45.3293H569.432Z" fill="#E6F1F3"/>
<path fill-rule="evenodd" clip-rule="evenodd" d="M681.432 45.3293C681.644 45.1191 681.93 45.0008 682.229 45C682.527 44.9992 682.814 45.1159 683.027 45.3249C683.241 45.534 683.363 45.8185 683.368 46.117C683.373 46.4156 683.26 46.7041 683.055 46.9203L677.006 54.4812C676.902 54.5931 676.776 54.683 676.637 54.7453C676.497 54.8077 676.347 54.8413 676.194 54.8442C676.041 54.847 675.89 54.819 675.748 54.7618C675.606 54.7046 675.477 54.6195 675.369 54.5115L671.362 50.5022C671.25 50.3982 671.16 50.2727 671.098 50.1333C671.036 49.9939 671.003 49.8435 671 49.6909C670.997 49.5383 671.026 49.3867 671.083 49.2452C671.14 49.1037 671.225 48.9752 671.333 48.8673C671.441 48.7594 671.569 48.6743 671.711 48.6171C671.852 48.56 672.004 48.5319 672.156 48.5346C672.309 48.5373 672.46 48.5707 672.599 48.6328C672.738 48.6949 672.864 48.7845 672.968 48.8961L676.141 52.0674L681.403 45.3627C681.412 45.3509 681.422 45.3398 681.433 45.3293H681.432Z" fill="#E6F1F3"/>
<path fill-rule="evenodd" clip-rule="evenodd" d="M345.432 45.3293C345.644 45.1191 345.93 45.0008 346.229 45C346.527 44.9992 346.814 45.1159 347.027 45.3249C347.241 45.534 347.363 45.8185 347.368 46.117C347.373 46.4156 347.26 46.7041 347.055 46.9203L341.006 54.4812C340.902 54.5931 340.776 54.683 340.637 54.7453C340.497 54.8077 340.347 54.8413 340.194 54.8442C340.041 54.847 339.89 54.819 339.748 54.7618C339.606 54.7046 339.477 54.6195 339.369 54.5115L335.362 50.5022C335.25 50.3982 335.16 50.2727 335.098 50.1333C335.036 49.9939 335.003 49.8435 335 49.6909C334.997 49.5383 335.026 49.3867 335.083 49.2452C335.14 49.1037 335.225 48.9752 335.333 48.8673C335.441 48.7594 335.569 48.6743 335.711 48.6171C335.852 48.56 336.004 48.5319 336.156 48.5346C336.309 48.5373 336.46 48.5707 336.599 48.6328C336.738 48.6949 336.864 48.7845 336.968 48.8961L340.141 52.0674L345.403 45.3627C345.412 45.3509 345.422 45.3398 345.433 45.3293H345.432Z" fill="#E6F1F3"/>
<path fill-rule="evenodd" clip-rule="evenodd" d="M457.432 45.3293C457.644 45.1191 457.93 45.0008 458.229 45C458.527 44.9992 458.814 45.1159 459.027 45.3249C459.241 45.534 459.363 45.8185 459.368 46.117C459.373 46.4156 459.26 46.7041 459.055 46.9203L453.006 54.4812C452.902 54.5931 452.776 54.683 452.637 54.7453C452.497 54.8077 452.347 54.8413 452.194 54.8442C452.041 54.847 451.89 54.819 451.748 54.7618C451.606 54.7046 451.477 54.6195 451.369 54.5115L447.362 50.5022C447.25 50.3982 447.16 50.2727 447.098 50.1333C447.036 49.9939 447.003 49.8435 447 49.6909C446.997 49.5383 447.026 49.3867 447.083 49.2452C447.14 49.1037 447.225 48.9752 447.333 48.8673C447.441 48.7594 447.569 48.6743 447.711 48.6171C447.852 48.56 448.004 48.5319 448.156 48.5346C448.309 48.5373 448.46 48.5707 448.599 48.6328C448.738 48.6949 448.864 48.7845 448.968 48.8961L452.141 52.0674L457.403 45.3627C457.412 45.3509 457.422 45.3398 457.433 45.3293H457.432Z" fill="#E6F1F3"/>
<path fill-rule="evenodd" clip-rule="evenodd" d="M233.432 45.3293C233.644 45.1191 233.93 45.0008 234.229 45C234.527 44.9992 234.814 45.1159 235.027 45.3249C235.241 45.534 235.363 45.8185 235.368 46.117C235.373 46.4156 235.26 46.7041 235.055 46.9203L229.006 54.4812C228.902 54.5931 228.776 54.683 228.637 54.7453C228.497 54.8077 228.347 54.8413 228.194 54.8442C228.041 54.847 227.89 54.819 227.748 54.7618C227.606 54.7046 227.477 54.6195 227.369 54.5115L223.362 50.5022C223.25 50.3982 223.16 50.2727 223.098 50.1333C223.036 49.9939 223.003 49.8435 223 49.6909C222.997 49.5383 223.026 49.3867 223.083 49.2452C223.14 49.1037 223.225 48.9752 223.333 48.8673C223.441 48.7594 223.569 48.6743 223.711 48.6171C223.852 48.56 224.004 48.5319 224.156 48.5346C224.309 48.5373 224.46 48.5707 224.599 48.6328C224.738 48.6949 224.864 48.7845 224.968 48.8961L228.141 52.0674L233.403 45.3627C233.412 45.3509 233.422 45.3398 233.433 45.3293H233.432Z" fill="#E6F1F3"/>
<path opacity="0.2" d="M30.092 55H31.856V46.628H36.406V55H38.17V45.088H30.092V55ZM44.4476 55H46.0156V50.912C46.0156 49.568 45.4276 48.084 43.0196 48.084C41.9976 48.084 40.9336 48.448 40.1776 49.148L41.0456 50.17C41.4796 49.736 42.1656 49.4 42.8796 49.4C43.7196 49.4 44.4196 49.806 44.4196 50.632V50.8C42.3196 50.8 39.7996 51.08 39.7996 53.082C39.7996 54.65 41.2416 55.168 42.3196 55.168C43.2716 55.168 44.0696 54.734 44.4056 54.146H44.4476V55ZM44.4196 52.172C44.4196 53.236 43.8036 53.894 42.6556 53.894C42.0816 53.894 41.4796 53.698 41.4796 53.054C41.4796 52.06 42.9776 51.934 44.0416 51.934H44.4196V52.172ZM47.9728 48.28V58.36H49.6528V54.104H49.6808C50.1148 54.776 50.9688 55.196 51.9068 55.196C53.9508 55.196 55.2108 53.572 55.2108 51.612C55.2108 49.624 53.8668 48.084 51.9488 48.084C50.7168 48.084 49.9608 48.686 49.6248 49.218H49.5828V48.28H47.9728ZM53.5028 51.612C53.5028 52.662 52.8728 53.796 51.5708 53.796C50.3388 53.796 49.5968 52.69 49.5968 51.64C49.5968 50.59 50.3388 49.456 51.5708 49.456C52.8728 49.456 53.5028 50.562 53.5028 51.612ZM61.0042 55H62.5722V50.912C62.5722 49.568 61.9842 48.084 59.5762 48.084C58.5542 48.084 57.4902 48.448 56.7342 49.148L57.6022 50.17C58.0362 49.736 58.7222 49.4 59.4362 49.4C60.2762 49.4 60.9762 49.806 60.9762 50.632V50.8C58.8762 50.8 56.3562 51.08 56.3562 53.082C56.3562 54.65 57.7982 55.168 58.8762 55.168C59.8282 55.168 60.6262 54.734 60.9622 54.146H61.0042V55ZM60.9762 52.172C60.9762 53.236 60.3602 53.894 59.2122 53.894C58.6382 53.894 58.0362 53.698 58.0362 53.054C58.0362 52.06 59.5342 51.934 60.5982 51.934H60.9762V52.172ZM64.5295 55H66.1815V50.226H66.2095L68.2395 55H69.3595L71.4455 50.24H71.4735V55H73.1255V48.28H70.7455L68.8555 52.816H68.8415L66.8815 48.28H64.5295V55ZM76.4269 50.968C76.4969 50.03 77.2949 49.344 78.2889 49.344C79.3809 49.344 79.8709 50.1 79.8709 50.968H76.4269ZM81.5509 51.724C81.5509 49.302 80.1789 48.084 78.3029 48.084C76.2729 48.084 74.7469 49.512 74.7469 51.682C74.7469 53.866 76.2869 55.196 78.3589 55.196C79.6329 55.196 80.5849 54.748 81.2429 53.852L80.1229 52.956C79.7449 53.488 79.1849 53.824 78.3449 53.824C77.3649 53.824 76.4969 53.124 76.4269 52.172H81.5369C81.5509 52.018 81.5509 51.878 81.5509 51.724ZM84.6059 55H86.2859V49.624H88.4279V48.28H82.4499V49.624H84.6059V55ZM89.7131 48.28V58.36H91.3931V54.104H91.4211C91.8551 54.776 92.7091 55.196 93.6471 55.196C95.6911 55.196 96.9511 53.572 96.9511 51.612C96.9511 49.624 95.6071 48.084 93.6891 48.084C92.4571 48.084 91.7011 48.686 91.3651 49.218H91.3231V48.28H89.7131ZM95.2431 51.612C95.2431 52.662 94.6131 53.796 93.3111 53.796C92.0791 53.796 91.3371 52.69 91.3371 51.64C91.3371 50.59 92.0791 49.456 93.3111 49.456C94.6131 49.456 95.2431 50.562 95.2431 51.612ZM104.97 55H106.65V45.088H105.124L102.03 47.58L103.01 48.742L104.97 47.132V55Z" fill="#00758A"/>
<rect x="14" y="70" width="774" height="30" rx="4" fill="white"/>
<path fill-rule="evenodd" clip-rule="evenodd" d="M681.432 80.3293C681.644 80.1191 681.93 80.0008 682.229 80C682.527 79.9992 682.814 80.1159 683.027 80.3249C683.241 80.534 683.363 80.8185 683.368 81.117C683.373 81.4156 683.26 81.7041 683.055 81.9203L677.006 89.4812C676.902 89.5931 676.776 89.683 676.637 89.7453C676.497 89.8077 676.347 89.8413 676.194 89.8442C676.041 89.847 675.89 89.819 675.748 89.7618C675.606 89.7046 675.477 89.6195 675.369 89.5115L671.362 85.5022C671.25 85.3982 671.16 85.2727 671.098 85.1333C671.036 84.9939 671.003 84.8435 671 84.6909C670.997 84.5383 671.026 84.3867 671.083 84.2452C671.14 84.1037 671.225 83.9752 671.333 83.8673C671.441 83.7594 671.569 83.6743 671.711 83.6171C671.852 83.56 672.004 83.5319 672.156 83.5346C672.309 83.5373 672.46 83.5707 672.599 83.6328C672.738 83.6949 672.864 83.7845 672.968 83.8961L676.141 87.0674L681.403 80.3627C681.412 80.3509 681.422 80.3398 681.433 80.3293H681.432Z" fill="#E6F1F3"/>
<path fill-rule="evenodd" clip-rule="evenodd" d="M345.432 80.3293C345.644 80.1191 345.93 80.0008 346.229 80C346.527 79.9992 346.814 80.1159 347.027 80.3249C347.241 80.534 347.363 80.8185 347.368 81.117C347.373 81.4156 347.26 81.7041 347.055 81.9203L341.006 89.4812C340.902 89.5931 340.776 89.683 340.637 89.7453C340.497 89.8077 340.347 89.8413 340.194 89.8442C340.041 89.847 339.89 89.819 339.748 89.7618C339.606 89.7046 339.477 89.6195 339.369 89.5115L335.362 85.5022C335.25 85.3982 335.16 85.2727 335.098 85.1333C335.036 84.9939 335.003 84.8435 335 84.6909C334.997 84.5383 335.026 84.3867 335.083 84.2452C335.14 84.1037 335.225 83.9752 335.333 83.8673C335.441 83.7594 335.569 83.6743 335.711 83.6171C335.852 83.56 336.004 83.5319 336.156 83.5346C336.309 83.5373 336.46 83.5707 336.599 83.6328C336.738 83.6949 336.864 83.7845 336.968 83.8961L340.141 87.0674L345.403 80.3627C345.412 80.3509 345.422 80.3398 345.433 80.3293H345.432Z" fill="#E6F1F3"/>
<path opacity="0.2" d="M30.092 90H31.856V81.628H36.406V90H38.17V80.088H30.092V90ZM44.4476 90H46.0156V85.912C46.0156 84.568 45.4276 83.084 43.0196 83.084C41.9976 83.084 40.9336 83.448 40.1776 84.148L41.0456 85.17C41.4796 84.736 42.1656 84.4 42.8796 84.4C43.7196 84.4 44.4196 84.806 44.4196 85.632V85.8C42.3196 85.8 39.7996 86.08 39.7996 88.082C39.7996 89.65 41.2416 90.168 42.3196 90.168C43.2716 90.168 44.0696 89.734 44.4056 89.146H44.4476V90ZM44.4196 87.172C44.4196 88.236 43.8036 88.894 42.6556 88.894C42.0816 88.894 41.4796 88.698 41.4796 88.054C41.4796 87.06 42.9776 86.934 44.0416 86.934H44.4196V87.172ZM47.9728 83.28V93.36H49.6528V89.104H49.6808C50.1148 89.776 50.9688 90.196 51.9068 90.196C53.9508 90.196 55.2108 88.572 55.2108 86.612C55.2108 84.624 53.8668 83.084 51.9488 83.084C50.7168 83.084 49.9608 83.686 49.6248 84.218H49.5828V83.28H47.9728ZM53.5028 86.612C53.5028 87.662 52.8728 88.796 51.5708 88.796C50.3388 88.796 49.5968 87.69 49.5968 86.64C49.5968 85.59 50.3388 84.456 51.5708 84.456C52.8728 84.456 53.5028 85.562 53.5028 86.612ZM61.0042 90H62.5722V85.912C62.5722 84.568 61.9842 83.084 59.5762 83.084C58.5542 83.084 57.4902 83.448 56.7342 84.148L57.6022 85.17C58.0362 84.736 58.7222 84.4 59.4362 84.4C60.2762 84.4 60.9762 84.806 60.9762 85.632V85.8C58.8762 85.8 56.3562 86.08 56.3562 88.082C56.3562 89.65 57.7982 90.168 58.8762 90.168C59.8282 90.168 60.6262 89.734 60.9622 89.146H61.0042V90ZM60.9762 87.172C60.9762 88.236 60.3602 88.894 59.2122 88.894C58.6382 88.894 58.0362 88.698 58.0362 88.054C58.0362 87.06 59.5342 86.934 60.5982 86.934H60.9762V87.172ZM64.5295 90H66.1815V85.226H66.2095L68.2395 90H69.3595L71.4455 85.24H71.4735V90H73.1255V83.28H70.7455L68.8555 87.816H68.8415L66.8815 83.28H64.5295V90ZM76.4269 85.968C76.4969 85.03 77.2949 84.344 78.2889 84.344C79.3809 84.344 79.8709 85.1 79.8709 85.968H76.4269ZM81.5509 86.724C81.5509 84.302 80.1789 83.084 78.3029 83.084C76.2729 83.084 74.7469 84.512 74.7469 86.682C74.7469 88.866 76.2869 90.196 78.3589 90.196C79.6329 90.196 80.5849 89.748 81.2429 88.852L80.1229 87.956C79.7449 88.488 79.1849 88.824 78.3449 88.824C77.3649 88.824 76.4969 88.124 76.4269 87.172H81.5369C81.5509 87.018 81.5509 86.878 81.5509 86.724ZM84.6059 90H86.2859V84.624H88.4279V83.28H82.4499V84.624H84.6059V90ZM89.7131 83.28V93.36H91.3931V89.104H91.4211C91.8551 89.776 92.7091 90.196 93.6471 90.196C95.6911 90.196 96.9511 88.572 96.9511 86.612C96.9511 84.624 95.6071 83.084 93.6891 83.084C92.4571 83.084 91.7011 83.686 91.3651 84.218H91.3231V83.28H89.7131ZM95.2431 86.612C95.2431 87.662 94.6131 88.796 93.3111 88.796C92.0791 88.796 91.3371 87.69 91.3371 86.64C91.3371 85.59 92.0791 84.456 93.3111 84.456C94.6131 84.456 95.2431 85.562 95.2431 86.612ZM102.03 90H108.624V88.46H104.158L107.014 85.73C107.896 84.89 108.61 84.008 108.61 82.734C108.61 80.83 107.028 79.836 105.306 79.836C103.486 79.836 102.156 81.04 101.96 82.678L103.598 82.93C103.724 81.964 104.326 81.236 105.278 81.236C106.174 81.236 106.86 81.838 106.86 82.762C106.86 83.532 106.468 84.106 105.852 84.708L102.03 88.46V90Z" fill="#00758A"/>
<rect x="14" y="105" width="774" height="30" rx="4" fill="white"/>
<path fill-rule="evenodd" clip-rule="evenodd" d="M569.432 115.329C569.644 115.119 569.93 115.001 570.229 115C570.527 114.999 570.814 115.116 571.027 115.325C571.241 115.534 571.363 115.818 571.368 116.117C571.373 116.416 571.26 116.704 571.055 116.92L565.006 124.481C564.902 124.593 564.776 124.683 564.637 124.745C564.497 124.808 564.347 124.841 564.194 124.844C564.041 124.847 563.89 124.819 563.748 124.762C563.606 124.705 563.477 124.619 563.369 124.511L559.362 120.502C559.25 120.398 559.16 120.273 559.098 120.133C559.036 119.994 559.003 119.843 559 119.691C558.997 119.538 559.026 119.387 559.083 119.245C559.14 119.104 559.225 118.975 559.333 118.867C559.441 118.759 559.569 118.674 559.711 118.617C559.852 118.56 560.004 118.532 560.156 118.535C560.309 118.537 560.46 118.571 560.599 118.633C560.738 118.695 560.864 118.784 560.968 118.896L564.141 122.067L569.403 115.363C569.412 115.351 569.422 115.34 569.433 115.329H569.432Z" fill="#E6F1F3"/>
<path fill-rule="evenodd" clip-rule="evenodd" d="M457.432 115.329C457.644 115.119 457.93 115.001 458.229 115C458.527 114.999 458.814 115.116 459.027 115.325C459.241 115.534 459.363 115.818 459.368 116.117C459.373 116.416 459.26 116.704 459.055 116.92L453.006 124.481C452.902 124.593 452.776 124.683 452.637 124.745C452.497 124.808 452.347 124.841 452.194 124.844C452.041 124.847 451.89 124.819 451.748 124.762C451.606 124.705 451.477 124.619 451.369 124.511L447.362 120.502C447.25 120.398 447.16 120.273 447.098 120.133C447.036 119.994 447.003 119.843 447 119.691C446.997 119.538 447.026 119.387 447.083 119.245C447.14 119.104 447.225 118.975 447.333 118.867C447.441 118.759 447.569 118.674 447.711 118.617C447.852 118.56 448.004 118.532 448.156 118.535C448.309 118.537 448.46 118.571 448.599 118.633C448.738 118.695 448.864 118.784 448.968 118.896L452.141 122.067L457.403 115.363C457.412 115.351 457.422 115.34 457.433 115.329H457.432Z" fill="#E6F1F3"/>
<path fill-rule="evenodd" clip-rule="evenodd" d="M233.432 115.329C233.644 115.119 233.93 115.001 234.229 115C234.527 114.999 234.814 115.116 235.027 115.325C235.241 115.534 235.363 115.818 235.368 116.117C235.373 116.416 235.26 116.704 235.055 116.92L229.006 124.481C228.902 124.593 228.776 124.683 228.637 124.745C228.497 124.808 228.347 124.841 228.194 124.844C228.041 124.847 227.89 124.819 227.748 124.762C227.606 124.705 227.477 124.619 227.369 124.511L223.362 120.502C223.25 120.398 223.16 120.273 223.098 120.133C223.036 119.994 223.003 119.843 223 119.691C222.997 119.538 223.026 119.387 223.083 119.245C223.14 119.104 223.225 118.975 223.333 118.867C223.441 118.759 223.569 118.674 223.711 118.617C223.852 118.56 224.004 118.532 224.156 118.535C224.309 118.537 224.46 118.571 224.599 118.633C224.738 118.695 224.864 118.784 224.968 118.896L228.141 122.067L233.403 115.363C233.412 115.351 233.422 115.34 233.433 115.329H233.432Z" fill="#E6F1F3"/>
<path opacity="0.2" d="M30.092 125H31.856V116.628H36.406V125H38.17V115.088H30.092V125ZM44.4476 125H46.0156V120.912C46.0156 119.568 45.4276 118.084 43.0196 118.084C41.9976 118.084 40.9336 118.448 40.1776 119.148L41.0456 120.17C41.4796 119.736 42.1656 119.4 42.8796 119.4C43.7196 119.4 44.4196 119.806 44.4196 120.632V120.8C42.3196 120.8 39.7996 121.08 39.7996 123.082C39.7996 124.65 41.2416 125.168 42.3196 125.168C43.2716 125.168 44.0696 124.734 44.4056 124.146H44.4476V125ZM44.4196 122.172C44.4196 123.236 43.8036 123.894 42.6556 123.894C42.0816 123.894 41.4796 123.698 41.4796 123.054C41.4796 122.06 42.9776 121.934 44.0416 121.934H44.4196V122.172ZM47.9728 118.28V128.36H49.6528V124.104H49.6808C50.1148 124.776 50.9688 125.196 51.9068 125.196C53.9508 125.196 55.2108 123.572 55.2108 121.612C55.2108 119.624 53.8668 118.084 51.9488 118.084C50.7168 118.084 49.9608 118.686 49.6248 119.218H49.5828V118.28H47.9728ZM53.5028 121.612C53.5028 122.662 52.8728 123.796 51.5708 123.796C50.3388 123.796 49.5968 122.69 49.5968 121.64C49.5968 120.59 50.3388 119.456 51.5708 119.456C52.8728 119.456 53.5028 120.562 53.5028 121.612ZM61.0042 125H62.5722V120.912C62.5722 119.568 61.9842 118.084 59.5762 118.084C58.5542 118.084 57.4902 118.448 56.7342 119.148L57.6022 120.17C58.0362 119.736 58.7222 119.4 59.4362 119.4C60.2762 119.4 60.9762 119.806 60.9762 120.632V120.8C58.8762 120.8 56.3562 121.08 56.3562 123.082C56.3562 124.65 57.7982 125.168 58.8762 125.168C59.8282 125.168 60.6262 124.734 60.9622 124.146H61.0042V125ZM60.9762 122.172C60.9762 123.236 60.3602 123.894 59.2122 123.894C58.6382 123.894 58.0362 123.698 58.0362 123.054C58.0362 122.06 59.5342 121.934 60.5982 121.934H60.9762V122.172ZM64.5295 125H66.1815V120.226H66.2095L68.2395 125H69.3595L71.4455 120.24H71.4735V125H73.1255V118.28H70.7455L68.8555 122.816H68.8415L66.8815 118.28H64.5295V125ZM76.4269 120.968C76.4969 120.03 77.2949 119.344 78.2889 119.344C79.3809 119.344 79.8709 120.1 79.8709 120.968H76.4269ZM81.5509 121.724C81.5509 119.302 80.1789 118.084 78.3029 118.084C76.2729 118.084 74.7469 119.512 74.7469 121.682C74.7469 123.866 76.2869 125.196 78.3589 125.196C79.6329 125.196 80.5849 124.748 81.2429 123.852L80.1229 122.956C79.7449 123.488 79.1849 123.824 78.3449 123.824C77.3649 123.824 76.4969 123.124 76.4269 122.172H81.5369C81.5509 122.018 81.5509 121.878 81.5509 121.724ZM84.6059 125H86.2859V119.624H88.4279V118.28H82.4499V119.624H84.6059V125ZM89.7131 118.28V128.36H91.3931V124.104H91.4211C91.8551 124.776 92.7091 125.196 93.6471 125.196C95.6911 125.196 96.9511 123.572 96.9511 121.612C96.9511 119.624 95.6071 118.084 93.6891 118.084C92.4571 118.084 91.7011 118.686 91.3651 119.218H91.3231V118.28H89.7131ZM95.2431 121.612C95.2431 122.662 94.6131 123.796 93.3111 123.796C92.0791 123.796 91.3371 122.69 91.3371 121.64C91.3371 120.59 92.0791 119.456 93.3111 119.456C94.6131 119.456 95.2431 120.562 95.2431 121.612ZM104.032 120.506H104.452C105.502 120.506 106.86 120.898 106.86 122.186C106.86 123.376 105.908 123.824 105.04 123.824C103.99 123.824 103.304 123.208 103.066 122.424L101.498 122.914C102.03 124.566 103.43 125.252 105.096 125.252C106.776 125.252 108.554 124.258 108.554 122.2C108.554 120.982 107.714 120.058 106.51 119.82V119.792C107.588 119.526 108.288 118.616 108.288 117.552C108.288 115.774 106.832 114.836 105.096 114.836C103.514 114.836 102.212 115.774 101.862 117.104L103.444 117.51C103.64 116.754 104.214 116.236 105.026 116.236C105.866 116.236 106.594 116.768 106.594 117.664C106.594 118.882 105.474 119.162 104.48 119.162H104.032V120.506Z" fill="#00758A"/>
<rect y="35" width="803" height="84" fill="url(#paint0_linear)"/>
<defs>
<linearGradient id="paint0_linear" x1="392.973" y1="119" x2="391.497" y2="53.1047" gradientUnits="userSpaceOnUse">
<stop stop-color="#F2F8F9"/>
<stop offset="1" stop-color="#F2F8F9" stop-opacity="0"/>
</linearGradient>
</defs>
</svg>
