<svg width="100" height="50" viewBox="0 0 100 50" fill="none" xmlns="http://www.w3.org/2000/svg">
<path d="M0.27419 45.5734H2.20965V37.8316H0.27419V45.5734ZM0 35.2026C0 35.8155 0.516122 36.3639 1.22579 36.3639C1.93546 36.3639 2.48384 35.8639 2.48384 35.2026C2.48384 34.5413 1.93546 34.0413 1.22579 34.0413C0.516122 34.0413 0 34.5897 0 35.2026Z" fill="black"/>
<path d="M4.55765 45.5734H6.4931V41.3154C6.4931 40.2832 7.07374 39.2187 8.29953 39.2187C9.54145 39.2187 9.75112 40.3638 9.75112 41.2832V45.5734H11.6866V40.7348C11.6866 39.1542 10.8479 37.6058 8.83178 37.6058C7.68664 37.6058 6.76729 38.2994 6.42859 39.0735H6.39633V37.8316H4.55765V45.5734Z" fill="black"/>
<path d="M18.2192 39.38V42.9928C18.2192 44.4767 18.687 45.7347 20.7353 45.7347C21.1708 45.7347 21.6869 45.6541 22.0256 45.5251L21.9611 44.0089C21.7353 44.1218 21.3966 44.1702 21.1386 44.1702C20.2837 44.1702 20.1224 43.6702 20.1224 42.9767V39.38H22.0579V37.8316H20.1224V35.5897H18.2192V37.8316H16.8644V39.38H18.2192Z" fill="black"/>
<path d="M27.765 37.6058C26.6198 37.6058 25.765 38.2671 25.4586 38.9122H25.4263V33.3801H23.4908V45.5734H25.4263V41.3477C25.4263 40.3155 26.0231 39.2671 27.2489 39.2671C28.4908 39.2671 28.6843 40.3961 28.6843 41.3154V45.5734H30.6198V40.7348C30.6198 39.1542 29.7811 37.6058 27.765 37.6058Z" fill="black"/>
<path d="M34.3614 40.9283C34.4421 39.8477 35.3614 39.0574 36.5065 39.0574C37.7646 39.0574 38.3291 39.9284 38.3291 40.9283H34.3614ZM40.2645 41.7993C40.2645 39.009 38.6839 37.6058 36.5227 37.6058C34.184 37.6058 32.4259 39.2509 32.4259 41.7509C32.4259 44.267 34.2001 45.7992 36.5872 45.7992C38.0549 45.7992 39.1517 45.2831 39.9097 44.2509L38.6194 43.2186C38.1839 43.8315 37.5388 44.2186 36.5711 44.2186C35.442 44.2186 34.4421 43.4122 34.3614 42.3154H40.2484C40.2645 42.138 40.2645 41.9767 40.2645 41.7993Z" fill="black"/>
<path d="M55.413 37.6058C54.2518 37.6058 53.3808 38.1381 52.8647 39.0735C52.4292 38.2026 51.6389 37.6058 50.4454 37.6058C49.2034 37.6058 48.3809 38.3155 48.0422 39.0735H48.0099V37.8316H46.1712V45.5734H48.1067V41.3154C48.1067 40.2832 48.6389 39.2187 49.8002 39.2187C50.7841 39.2187 51.2357 39.9445 51.2357 40.8961V45.5734H53.1711V41.3477C53.1711 40.3477 53.6711 39.2187 54.8808 39.2187C56.1227 39.2187 56.3324 40.3638 56.3324 41.2832V45.5734H58.2678V40.7348C58.2678 39.1542 57.4291 37.6058 55.413 37.6058Z" fill="black"/>
<path d="M65.3266 45.5734H67.133V40.8638C67.133 39.3155 66.4556 37.6058 63.6814 37.6058C62.504 37.6058 61.2782 38.0252 60.4073 38.8316L61.4073 40.009C61.9073 39.509 62.6976 39.1219 63.5201 39.1219C64.4879 39.1219 65.2943 39.5897 65.2943 40.5413V40.7348C62.875 40.7348 59.9718 41.0574 59.9718 43.3638C59.9718 45.1702 61.6331 45.767 62.875 45.767C63.9717 45.767 64.8911 45.267 65.2782 44.5896H65.3266V45.5734ZM65.2943 42.3154C65.2943 43.5412 64.5846 44.2993 63.2621 44.2993C62.6008 44.2993 61.9073 44.0735 61.9073 43.3315C61.9073 42.1864 63.633 42.0412 64.8588 42.0412H65.2943V42.3154Z" fill="black"/>
<path d="M69.4201 45.5734H71.3556V41.6058H71.404L74.4684 45.5734H77.0329L73.4685 41.3316L76.8233 37.8316H74.3394L71.404 41.0896H71.3556V33.3801H69.4201V45.5734Z" fill="black"/>
<path d="M78.1776 45.5734H80.113V37.8316H78.1776V45.5734ZM77.9034 35.2026C77.9034 35.8155 78.4195 36.3639 79.1292 36.3639C79.8388 36.3639 80.3872 35.8639 80.3872 35.2026C80.3872 34.5413 79.8388 34.0413 79.1292 34.0413C78.4195 34.0413 77.9034 34.5897 77.9034 35.2026Z" fill="black"/>
<path d="M82.461 45.5734H84.3965V41.3154C84.3965 40.2832 84.9771 39.2187 86.2029 39.2187C87.4448 39.2187 87.6545 40.3638 87.6545 41.2832V45.5734H89.59V40.7348C89.59 39.1542 88.7513 37.6058 86.7352 37.6058C85.59 37.6058 84.6707 38.2994 84.332 39.0735H84.2997V37.8316H82.461V45.5734Z" fill="black"/>
<path d="M97.8807 37.8316V38.9929H97.8484C97.2839 38.0574 96.2678 37.6058 95.1872 37.6058C92.8485 37.6058 91.3969 39.4284 91.3969 41.6703C91.3969 43.8638 92.8969 45.7025 95.2194 45.7025C96.2839 45.7025 97.1871 45.2993 97.7516 44.5412H97.7839V45.1057C97.7839 46.6379 97.2033 47.767 95.3323 47.767C94.3646 47.767 93.3646 47.3799 92.6227 46.6702L91.5098 48.1702C92.5098 48.9927 94.0904 49.4444 95.3484 49.4444C98.3645 49.4444 99.7194 47.6702 99.7194 44.8799V37.8316H97.8807ZM95.5904 39.1864C96.9936 39.1864 97.8807 40.3155 97.8807 41.6541C97.8807 42.9444 97.0097 44.1057 95.5742 44.1057C94.1872 44.1057 93.3646 42.8799 93.3646 41.6541C93.3646 40.2832 94.1872 39.1864 95.5904 39.1864Z" fill="black"/>
<path d="M0.339844 29.0779H2.37207V24.2716H7.40426V22.5619H2.37207V19.4329H7.71071V17.6588H0.339844V29.0779Z" fill="black"/>
<path d="M16.5211 21.3361H14.5856V25.5941C14.5856 26.6264 14.005 27.6909 12.7792 27.6909C11.5373 27.6909 11.3276 26.5457 11.3276 25.6264V21.3361H9.39213V26.1748C9.39213 27.7554 10.2308 29.3037 12.2469 29.3037C13.3921 29.3037 14.3114 28.6102 14.6501 27.836H14.6824V29.0779H16.5211V21.3361Z" fill="black"/>
<path d="M19.7312 22.8845V26.4973C19.7312 27.9812 20.1989 29.2392 22.2473 29.2392C22.6828 29.2392 23.1989 29.1586 23.5376 29.0296L23.4731 27.5135C23.2473 27.6264 22.9086 27.6747 22.6505 27.6747C21.7957 27.6747 21.6344 27.1747 21.6344 26.4812V22.8845H23.5699V21.3361H21.6344V19.0942H19.7312V21.3361H18.3764V22.8845H19.7312Z" fill="black"/>
<path d="M32.6801 21.3361H30.7446V25.5941C30.7446 26.6264 30.164 27.6909 28.9382 27.6909C27.6963 27.6909 27.4866 26.5457 27.4866 25.6264V21.3361H25.5512V26.1748C25.5512 27.7554 26.3899 29.3037 28.406 29.3037C29.5511 29.3037 30.4705 28.6102 30.8092 27.836H30.8414V29.0779H32.6801V21.3361Z" fill="black"/>
<path d="M35.6483 29.0779H37.5838V24.9328C37.5838 24.3683 37.9225 22.8522 39.6644 22.8522C39.8418 22.8522 40.0031 22.8684 40.2611 22.9329V21.1587C40.1321 21.1264 39.9386 21.1103 39.7934 21.1103C38.7773 21.1103 37.9547 21.7393 37.5354 22.6264H37.5031V21.3361H35.6483V29.0779Z" fill="black"/>
<path d="M43.3688 24.4328C43.4495 23.3522 44.3688 22.5619 45.514 22.5619C46.772 22.5619 47.3365 23.4329 47.3365 24.4328H43.3688ZM49.272 25.3038C49.272 22.5135 47.6914 21.1103 45.5301 21.1103C43.1914 21.1103 41.4334 22.7555 41.4334 25.2554C41.4334 27.7715 43.2076 29.3037 45.5946 29.3037C47.0623 29.3037 48.1591 28.7876 48.9171 27.7554L47.6268 26.7231C47.1914 27.336 46.5462 27.7231 45.5785 27.7231C44.4495 27.7231 43.4495 26.9167 43.3688 25.8199H49.2558C49.272 25.6425 49.272 25.4812 49.272 25.3038Z" fill="black"/>
<path d="M52.0409 21.9168H53.6699V17.6588H52.0409V21.9168Z" fill="black"/>
<path d="M62.2452 22.2877C61.6162 21.4974 60.4549 21.1103 59.342 21.1103C57.8098 21.1103 56.2614 21.8522 56.2614 23.578C56.2614 25.0296 57.4066 25.4974 58.5517 25.7715C59.7291 26.0457 60.3259 26.2393 60.3259 26.8844C60.3259 27.578 59.6485 27.8038 59.084 27.8038C58.2453 27.8038 57.5195 27.3844 57.1001 26.836L55.826 28.0296C56.5679 28.8521 57.8098 29.3037 59.0033 29.3037C60.6969 29.3037 62.2291 28.6102 62.2291 26.7231C62.2291 25.207 60.8743 24.6909 59.7291 24.4167C58.6485 24.1587 58.0517 23.9974 58.0517 23.4006C58.0517 22.7877 58.6808 22.5619 59.2937 22.5619C60.0033 22.5619 60.6485 22.949 60.9872 23.4006L62.2452 22.2877Z" fill="black"/>
<path fill-rule="evenodd" clip-rule="evenodd" d="M4.54403 9.13447C7.05362 9.13447 9.08805 7.08965 9.08805 4.56724C9.08805 2.04482 7.05362 0 4.54403 0C2.03443 0 0 2.04482 0 4.56724C0 7.08965 2.03443 9.13447 4.54403 9.13447ZM17.4945 9.13447C20.0041 9.13447 22.0385 7.08965 22.0385 4.56724C22.0385 2.04482 20.0041 0 17.4945 0C14.9849 0 12.9505 2.04482 12.9505 4.56724C12.9505 7.08965 14.9849 9.13447 17.4945 9.13447ZM34.989 4.56724C34.989 7.08965 32.9546 9.13447 30.445 9.13447C27.9354 9.13447 25.9009 7.08965 25.9009 4.56724C25.9009 2.04482 27.9354 0 30.445 0C32.9546 0 34.989 2.04482 34.989 4.56724ZM43.3954 9.13447C45.905 9.13447 47.9395 7.08965 47.9395 4.56724C47.9395 2.04482 45.905 0 43.3954 0C40.8858 0 38.8514 2.04482 38.8514 4.56724C38.8514 7.08965 40.8858 9.13447 43.3954 9.13447Z" fill="#8FD700"/>
<path fill-rule="evenodd" clip-rule="evenodd" d="M56.5731 9.13447C59.0827 9.13447 61.1171 7.08965 61.1171 4.56724C61.1171 2.04482 59.0827 0 56.5731 0C54.0635 0 52.0291 2.04482 52.0291 4.56724C52.0291 7.08965 54.0635 9.13447 56.5731 9.13447ZM69.5235 9.13447C72.0331 9.13447 74.0676 7.08965 74.0676 4.56724C74.0676 2.04482 72.0331 0 69.5235 0C67.014 0 64.9795 2.04482 64.9795 4.56724C64.9795 7.08965 67.014 9.13447 69.5235 9.13447Z" fill="#07150A"/>
</svg>
