<svg width="72" height="45" viewBox="0 0 72 45" fill="none" xmlns="http://www.w3.org/2000/svg">
<g clip-path="url(#clip0)">
<path d="M0.751175 27.1696H4.54901C6.77948 27.1696 8.48247 26.19 8.48247 24.0047C8.48247 21.7743 6.76441 20.8399 4.53393 20.8399H2.65009V18.097H7.74401V16.4995H0.751175V27.1696ZM2.65009 25.5721V22.4374H4.33802C5.73959 22.4374 6.56849 22.9649 6.56849 24.0047C6.56849 25.1049 5.69438 25.5721 4.33802 25.5721H2.65009Z" fill="#07150A"/>
<path d="M11.9817 27.1696L11.62 28.0889C11.3186 28.8425 11.1076 29.2192 10.339 29.2192C10.1431 29.2192 9.90195 29.1891 9.66082 29.1137L9.51011 30.6811C9.82659 30.7564 10.1431 30.7866 10.4445 30.7866C12.042 30.7866 12.675 30.0331 13.1874 28.7219L16.6084 19.9356H14.7246L12.9312 25.1953H12.901L10.8815 19.9356H8.87714L11.9817 27.1696Z" fill="#07150A"/>
<path d="M16.5348 29.2343H18.057V27.1696H23.7236V29.2343H25.2457V25.6927H24.1757V19.9356H18.2981V21.8044C18.2981 23.8239 17.846 24.9693 17.2884 25.6927H16.5348V29.2343ZM19.2024 25.6927C19.6545 24.909 20.0162 23.9595 20.0162 22.2716V21.3824H22.3672V25.6927H19.2024Z" fill="#07150A"/>
<path d="M28.6567 27.1696L28.295 28.0889C27.9936 28.8425 27.7826 29.2192 27.014 29.2192C26.818 29.2192 26.5769 29.1891 26.3358 29.1137L26.1851 30.6811C26.5016 30.7564 26.818 30.7866 27.1195 30.7866C28.717 30.7866 29.3499 30.0331 29.8623 28.7219L33.2834 19.9356H31.3996L29.6061 25.1953H29.576L27.5565 19.9356H25.5521L28.6567 27.1696Z" fill="#07150A"/>
<path d="M45.1696 19.9356H43.3611V25.6927H40.6786V19.9356H38.8701V25.6927H36.1724V19.9356H34.3639V27.1696H44.7175V29.2343H46.2246V25.6927H45.1696V19.9356Z" fill="#07150A"/>
<path d="M48.9962 22.8292C49.0715 21.8195 49.9306 21.081 51.0006 21.081C52.1761 21.081 52.7036 21.8948 52.7036 22.8292H48.9962ZM54.5121 23.643C54.5121 21.0358 53.0352 19.7247 51.0157 19.7247C48.8304 19.7247 47.1877 21.2619 47.1877 23.5978C47.1877 25.9489 48.8455 27.3806 51.076 27.3806C52.4474 27.3806 53.4722 26.8983 54.1805 25.9338L52.9749 24.9693C52.568 25.542 51.9651 25.9037 51.0609 25.9037C50.0059 25.9037 49.0715 25.1501 48.9962 24.1253H54.497C54.5121 23.9595 54.5121 23.8088 54.5121 23.643Z" fill="#07150A"/>
<path d="M57.6501 22.8292C57.7255 21.8195 58.5845 21.081 59.6545 21.081C60.83 21.081 61.3575 21.8948 61.3575 22.8292H57.6501ZM63.166 23.643C63.166 21.0358 61.6891 19.7247 59.6696 19.7247C57.4843 19.7247 55.8416 21.2619 55.8416 23.5978C55.8416 25.9489 57.4994 27.3806 59.7299 27.3806C61.1013 27.3806 62.1261 26.8983 62.8344 25.9338L61.6288 24.9693C61.2219 25.542 60.619 25.9037 59.7148 25.9037C58.6598 25.9037 57.7255 25.1501 57.6501 24.1253H63.1509C63.166 23.9595 63.166 23.8088 63.166 23.643Z" fill="#07150A"/>
<path d="M6.83976 36.5625C6.26707 35.8542 5.16691 35.4322 4.11195 35.4322C1.98698 35.4322 0.23877 36.9091 0.23877 39.2602C0.23877 41.6715 2.01712 43.0881 4.15717 43.0881C5.22719 43.0881 6.22186 42.7264 6.82469 42.0784L5.69438 40.933C5.34776 41.355 4.72985 41.5811 4.17224 41.5811C2.8008 41.5811 2.12261 40.3905 2.12261 39.2602C2.12261 38.1299 2.78573 36.9393 4.11195 36.9393C4.69971 36.9393 5.31761 37.2407 5.60396 37.6476L6.83976 36.5625Z" fill="#07150A"/>
<path d="M7.59754 39.23C7.59754 41.5057 9.34574 43.0881 11.531 43.0881C13.7163 43.0881 15.4645 41.5057 15.4645 39.23C15.4645 36.9543 13.7163 35.4322 11.531 35.4322C9.34574 35.4322 7.59754 36.9543 7.59754 39.23ZM9.43617 39.23C9.43617 38.0997 10.0993 36.9091 11.531 36.9091C12.9627 36.9091 13.6258 38.0997 13.6258 39.23C13.6258 40.3603 12.9627 41.5811 11.531 41.5811C10.0993 41.5811 9.43617 40.3603 9.43617 39.23Z" fill="#07150A"/>
<path d="M19.5238 43.1183C21.2117 43.1183 22.6585 42.3497 22.6585 40.8727C22.6585 39.9082 21.9502 39.2903 21.0158 39.1095V39.0793C21.8296 38.8985 22.4626 38.2504 22.4626 37.4065C22.4626 36.1556 21.3022 35.4322 19.6293 35.4322C18.3483 35.4322 17.2783 35.8843 16.6754 36.6529L17.6852 37.6325C18.077 37.1201 18.7552 36.8036 19.4183 36.8036C20.0814 36.8036 20.639 36.9845 20.639 37.6024C20.639 38.3107 20.0211 38.5217 19.147 38.5217H18.5743V39.8178H19.147C20.0663 39.8178 20.8199 39.9836 20.8199 40.7974C20.8199 41.5057 20.1718 41.7167 19.3882 41.7167C18.5593 41.7167 17.8359 41.2797 17.444 40.7522L16.3589 41.8071C17.0974 42.6662 18.1825 43.1183 19.5238 43.1183Z" fill="#07150A"/>
<path d="M23.5698 44.9419H25.092V42.8772H30.7586V44.9419H32.2807V41.4002H31.2107V35.6432H25.3331V37.512C25.3331 39.5314 24.881 40.6768 24.3234 41.4002H23.5698V44.9419ZM26.2374 41.4002C26.6895 40.6165 27.0512 39.6671 27.0512 37.9792V37.09H29.4022V41.4002H26.2374Z" fill="#07150A"/>
<path d="M38.1633 42.8772H39.8512V38.4765C39.8512 37.0297 39.2182 35.4322 36.626 35.4322C35.5259 35.4322 34.3805 35.824 33.5667 36.5776L34.5011 37.6777C34.9683 37.2106 35.7067 36.8489 36.4753 36.8489C37.3796 36.8489 38.1331 37.2859 38.1331 38.1751V38.3559C35.8725 38.3559 33.1598 38.6573 33.1598 40.8125C33.1598 42.5004 34.7121 43.058 35.8725 43.058C36.8973 43.058 37.7564 42.5908 38.1181 41.9578H38.1633V42.8772ZM38.1331 39.8329C38.1331 40.9782 37.47 41.6866 36.2342 41.6866C35.6163 41.6866 34.9683 41.4756 34.9683 40.7823C34.9683 39.7123 36.5808 39.5767 37.7262 39.5767H38.1331V39.8329Z" fill="#07150A"/>
<path d="M43.3447 38.5368C43.42 37.527 44.279 36.7886 45.3491 36.7886C46.5246 36.7886 47.0521 37.6024 47.0521 38.5368H43.3447ZM48.8606 39.3506C48.8606 36.7434 47.3836 35.4322 45.3641 35.4322C43.1789 35.4322 41.5362 36.9694 41.5362 39.3054C41.5362 41.6564 43.194 43.0881 45.4244 43.0881C46.7959 43.0881 47.8207 42.6059 48.529 41.6414L47.3233 40.6768C46.9164 41.2495 46.3136 41.6112 45.4094 41.6112C44.3544 41.6112 43.42 40.8577 43.3447 39.8329H48.8455C48.8606 39.6671 48.8606 39.5164 48.8606 39.3506Z" fill="#07150A"/>
<path d="M52.1493 42.8772H53.9578V37.09H56.2636V35.6432H49.8284V37.09H52.1493V42.8772Z" fill="#07150A"/>
<path d="M63.6494 36.5625C63.0768 35.8542 61.9766 35.4322 60.9216 35.4322C58.7967 35.4322 57.0485 36.9091 57.0485 39.2602C57.0485 41.6715 58.8268 43.0881 60.9669 43.0881C62.0369 43.0881 63.0315 42.7264 63.6344 42.0784L62.5041 40.933C62.1574 41.355 61.5395 41.5811 60.9819 41.5811C59.6105 41.5811 58.9323 40.3905 58.9323 39.2602C58.9323 38.1299 59.5954 36.9393 60.9216 36.9393C61.5094 36.9393 62.1273 37.2407 62.4136 37.6476L63.6494 36.5625Z" fill="#07150A"/>
<path d="M64.2867 42.8772H66.4116L67.8886 40.3151H69.2299V42.8772H71.0384V35.6432H67.3912C65.7636 35.6432 64.4976 36.3817 64.4976 37.9792C64.4976 39.1547 65.1306 39.8479 66.1102 40.1343L64.2867 42.8772ZM67.8283 38.9738C66.7583 38.9738 66.2458 38.7026 66.2458 37.9942C66.2458 37.2708 66.698 36.9996 67.8283 36.9996H69.2299V38.9738H67.8283Z" fill="#07150A"/>
<path fill-rule="evenodd" clip-rule="evenodd" d="M4.24528 8.49057C6.58989 8.49057 8.49057 6.58989 8.49057 4.24528C8.49057 1.90068 6.58989 0 4.24528 0C1.90068 0 0 1.90068 0 4.24528C0 6.58989 1.90068 8.49057 4.24528 8.49057ZM16.3443 8.49057C18.6889 8.49057 20.5896 6.58989 20.5896 4.24528C20.5896 1.90068 18.6889 0 16.3443 0C13.9997 0 12.0991 1.90068 12.0991 4.24528C12.0991 6.58989 13.9997 8.49057 16.3443 8.49057ZM32.6887 4.24528C32.6887 6.58989 30.788 8.49057 28.4434 8.49057C26.0988 8.49057 24.1981 6.58989 24.1981 4.24528C24.1981 1.90068 26.0988 0 28.4434 0C30.788 0 32.6887 1.90068 32.6887 4.24528ZM40.5424 8.49057C42.8871 8.49057 44.7877 6.58989 44.7877 4.24528C44.7877 1.90068 42.8871 0 40.5424 0C38.1978 0 36.2972 1.90068 36.2972 4.24528C36.2972 6.58989 38.1978 8.49057 40.5424 8.49057Z" fill="#7AC30F"/>
<path fill-rule="evenodd" clip-rule="evenodd" d="M52.8537 8.49057C55.1983 8.49057 57.099 6.58989 57.099 4.24528C57.099 1.90068 55.1983 0 52.8537 0C50.5091 0 48.6084 1.90068 48.6084 4.24528C48.6084 6.58989 50.5091 8.49057 52.8537 8.49057ZM64.9527 8.49057C67.2973 8.49057 69.198 6.58989 69.198 4.24528C69.198 1.90068 67.2973 0 64.9527 0C62.6081 0 60.7075 1.90068 60.7075 4.24528C60.7075 6.58989 62.6081 8.49057 64.9527 8.49057Z" fill="#07150A"/>
</g>
<defs>
<clipPath id="clip0">
<rect width="71.3207" height="45" fill="white"/>
</clipPath>
</defs>
</svg>
