<svg width="375" height="530" viewBox="0 0 375 530" fill="none" xmlns="http://www.w3.org/2000/svg">
<g clip-path="url(#clip0)">
<path fill-rule="evenodd" clip-rule="evenodd" d="M94.0666 0L110.351 9.42354L91 20.6164V44.7888L110.351 55.996L91 67.2047V91.3552L110.351 102.585L91 113.77V137.934L100.684 143.553L110.351 149.149L91 160.359V184.507L100.684 190.125L110.351 195.713L91 206.923V231.088L100.684 236.698L110.351 242.286L91 253.495V277.66L110.351 288.891L91 300.069V324.233L100.684 329.868L110.351 335.438L91 346.646V370.797L110.351 382.019L91 393.211V417.395L100.684 423.013L110.351 428.6L91 439.778V463.942L110.351 475.147L91 486.356V510.538L100.684 516.142L110.351 521.727L91 532.937V557.102L110.351 568.308L91 579.485V603H91.6972L110.887 591.892L130.042 603H131.922L151.095 591.892L170.251 603H172.131L191.303 591.892L210.475 603H212.339L231.527 591.892L250.684 603H252.563L271.737 591.892L290.908 603H292.787L311.928 591.892L331.116 603H332.996L352.153 591.892L371.34 603H373.22L392.361 591.892L411.565 603H413.429L432.584 591.892L451.773 603H453.654L472.795 591.892L491.981 603H493.846L513.017 591.892L532.206 603H534.07L553 592.019V567.869L539.931 560.286L533.665 556.68L553 545.472V521.289L533.648 510.066L553 498.92V474.723L533.665 463.502L553 452.309V428.16L539.931 420.577L533.665 416.938L553 405.745V381.564L533.648 370.373L553 359.148V334.999L539.931 327.432L533.665 323.792L553 312.6V288.419L533.665 277.205L553 266.019V241.863L533.648 230.656L553 219.447V195.281L539.931 187.689L533.665 184.076L553 172.883V148.709L533.648 137.504L553 126.295V102.145L544.19 97.022L533.648 90.9231L553 79.731V55.5647L539.931 47.9817L533.665 44.3506L553 33.1585V8.99974L544.19 3.87709L537.489 0H536.42L552.691 9.42354L533.113 20.767L513.536 9.42354L529.834 0H528.789L522.96 3.37306L513.017 9.13065L503.982 3.87709L497.271 0H496.201L512.5 9.42354L492.905 20.767L473.328 9.42354L489.612 0H488.574L482.737 3.37306L472.795 9.13065L463.757 3.87709L457.057 0H455.98L472.292 9.42354L452.682 20.767L433.12 9.42354L449.391 0H448.35L442.512 3.37306L432.584 9.13065L423.549 3.87709L416.838 0H415.772L432.083 9.42354L412.473 20.767L392.912 9.42354L409.183 0H408.142L402.304 3.37306L392.361 9.13065L383.34 3.87709L376.629 0H375.561L391.859 9.42354L372.249 20.767L352.687 9.42354L368.972 0H367.922L364.604 1.91095L352.153 9.13065L349.415 7.53084L336.399 0H335.333L336.897 0.905199L351.634 9.42354L332.04 20.767L312.479 9.42354L328.75 0H327.708L321.871 3.37306L311.959 9.13065L302.893 3.87709L296.191 0H295.114L311.425 9.42354L291.816 20.767L272.253 9.42354L288.525 0H287.482L284.173 1.91095L271.737 9.13065L268.982 7.53084L255.966 0H254.922L256.481 0.905199L271.217 9.42354L251.639 20.767L232.029 9.42354L248.341 0H247.254L246.556 0.401169L231.527 9.13065L217.245 0.856745L215.762 0H214.708L230.992 9.42354L211.416 20.767L191.821 9.42354L208.12 0H207.062L198.704 4.84349L191.319 9.13065L184.696 5.28243L175.543 0H174.497L190.768 9.42354L171.207 20.767L151.596 9.42354L167.909 0H166.842L151.095 9.13065L141.153 3.37306L135.324 0H134.278L150.576 9.42354L130.983 20.767L111.388 9.42354L127.687 0H126.634L120.796 3.37306L110.887 9.13065L100.943 3.37306L95.125 0H94.0666ZM552.983 9.87685L533.404 21.2067V43.9033L552.983 32.5675V9.87685ZM513.292 9.87685V32.5675L532.871 43.9033V21.2067L513.292 9.87685ZM512.775 9.87685L493.18 21.2067V43.9033L512.775 32.5675V9.87685ZM473.069 9.87685V32.5675L492.663 43.9033V21.2067L473.069 9.87685ZM472.55 9.87685L452.972 21.2067V43.9033L472.55 32.5675V9.87685ZM432.86 9.87685V32.5675L452.438 43.9033V21.2067L432.86 9.87685ZM432.341 9.87685L412.764 21.2067V43.9033L432.341 32.5675V9.87685ZM392.651 9.87685V32.5675L412.23 43.9033V21.2067L392.651 9.87685ZM392.118 9.87685L372.541 21.2067V43.9033L392.118 32.5675V9.87685ZM352.443 9.87685V32.5675L372.005 43.9033V21.2067L352.443 9.87685ZM351.892 9.87685L332.316 21.2067V43.9033L351.892 32.5675V9.87685ZM312.22 9.87685V32.5675L331.797 43.9033V21.2067L312.22 9.87685ZM311.684 9.87685L292.108 21.2067V43.9033L311.684 32.5675V9.87685ZM271.995 9.87685V32.5675L291.573 43.9033V21.2067L271.995 9.87685ZM271.461 9.87685L251.899 21.2067V43.9033L271.461 32.5675V9.87685ZM231.787 9.87685L231.77 32.5675L251.364 43.9033V21.2067L231.787 9.87685ZM231.268 9.87685L211.674 21.2067V43.9033L231.268 32.5675V9.87685ZM191.579 9.87685V32.5675L211.155 43.9033V21.2067L191.579 9.87685ZM191.043 9.87685L171.45 21.2067V43.9033L191.043 32.5675V9.87685ZM151.354 9.87685V32.5675L170.933 43.9033V21.2067L151.354 9.87685ZM150.82 9.87685L131.241 21.2067V43.9033L150.82 32.5675V9.87685ZM111.129 9.87685V32.5675L130.722 43.9033V21.2067L111.129 9.87685ZM110.595 9.87685L91.0332 21.2067V43.9033L110.595 32.5675V9.87685ZM493.441 44.3506L499.707 47.9817L513.017 55.6948L522.96 49.9379L532.612 44.359L513.017 33.0216L493.441 44.3506ZM453.232 44.3506L459.498 47.9817L472.795 55.6948L482.737 49.9379L492.404 44.359L472.795 33.0216L453.232 44.3506ZM413.008 44.3506L419.274 47.9817L432.584 55.6948L442.512 49.9379L452.179 44.359L432.584 33.0216L413.008 44.3506ZM372.799 44.3506L379.066 47.9817L392.361 55.6948L402.304 49.9379L411.971 44.359L392.361 33.0216L372.799 44.3506ZM332.575 44.3506L335.034 45.7961L352.153 55.6948L371.763 44.359L352.153 33.0216L332.575 44.3506ZM292.366 44.3506L298.649 47.9817L311.959 55.6948L321.871 49.9379L331.538 44.359L311.928 33.0216L292.366 44.3506ZM252.142 44.3506L254.603 45.7961L271.751 55.6948L291.313 44.359L271.737 33.0216L252.142 44.3506ZM211.933 44.3506L225.94 52.4725L231.527 55.6948L234.75 53.8278L251.106 44.3506L231.527 33.0216L211.933 44.3506ZM191.303 33.0216L171.708 44.359L191.319 55.6948L210.897 44.359L191.303 33.0216ZM131.5 44.3506L141.153 49.9379L151.11 55.6948L170.672 44.3506L151.095 33.0216L131.5 44.3506ZM91.3086 44.3506L100.943 49.9379L110.887 55.6948L120.796 49.9379L130.464 44.3506L110.887 33.0216L91.3086 44.3506ZM533.13 44.6586L513.536 55.996L533.113 67.3319L552.691 55.996L533.13 44.6586ZM492.905 44.6586L473.328 55.996L492.905 67.3319L512.516 55.996L492.905 44.6586ZM452.682 44.6586L433.12 55.996L452.682 67.3319L472.308 55.996L452.682 44.6586ZM412.473 44.6586L392.912 55.996L412.473 67.3319L432.083 55.996L412.473 44.6586ZM372.265 44.6586L352.687 55.996L372.249 67.3319L391.859 55.996L372.265 44.6586ZM332.04 44.6586L312.461 55.996L332.04 67.3319L351.634 55.996L336.897 47.4776L332.04 44.6586ZM291.816 44.6586L272.237 55.996L291.816 67.3319L311.443 55.996L291.816 44.6586ZM251.639 44.6586L232.029 55.996L251.639 67.3319L271.217 55.996L256.481 47.4776L251.639 44.6586ZM211.416 44.6586L191.821 55.996L211.416 67.3319L231.009 55.996L211.416 44.6586ZM171.207 44.6586L151.596 55.996L171.207 67.3319L190.801 55.996L171.207 44.6586ZM130.983 44.6586L111.388 55.996L130.983 67.3319L150.576 55.996L130.983 44.6586ZM552.983 56.4501L533.404 67.7958V90.4675L552.983 79.14V56.4501ZM513.292 56.4501V79.14L532.871 90.4675V67.7958L513.292 56.4501ZM512.775 56.4501L493.18 67.7958V90.4675L512.775 79.14V56.4501ZM473.069 56.4501V79.14L492.663 90.4675V67.7958L473.069 56.4501ZM472.55 56.4501L452.972 67.7958V90.4675L472.55 79.14V56.4501ZM432.86 56.4501V79.14L452.438 90.4675V67.7958L432.86 56.4501ZM432.341 56.4501L412.764 67.7958V90.4675L432.341 79.14V56.4501ZM392.651 56.4501V79.14L412.23 90.4675V67.7958L392.651 56.4501ZM392.118 56.4501L372.541 67.7958V90.4675L392.118 79.14V56.4501ZM351.892 56.4501L332.316 67.7958V90.4675L351.892 79.14V56.4501ZM312.22 56.4501V79.14L331.797 90.4675V67.7958L312.22 56.4501ZM311.684 56.4501L292.108 67.7958V90.4675L311.684 79.14V56.4501ZM271.461 56.4501L251.899 67.7958V90.4675L271.461 79.14V56.4501ZM231.787 56.4501L231.77 79.14L251.364 90.4675V67.7958L231.787 56.4501ZM231.268 56.4501L211.674 67.7958V90.4675L231.268 79.14V56.4501ZM191.579 56.4501V79.14L211.155 90.4675V67.7958L191.579 56.4501ZM150.82 56.4501L131.241 67.7958V90.4675L150.82 79.14V56.4501ZM111.129 56.4501V79.14L130.722 90.4675V67.7958L111.129 56.4501ZM352.443 56.4667V79.14L372.005 90.4675V67.7958L352.443 56.4667ZM271.995 56.4667V79.14L291.573 90.4675V67.7958L271.995 56.4667ZM191.043 56.4667L171.45 67.7958V90.4675L191.043 79.14V56.4667ZM151.354 56.4667V79.14L170.933 90.4675V67.7958L151.354 56.4667ZM110.595 56.4667L91.0332 67.7958V90.4675L110.595 79.14V56.4667ZM493.424 90.9231L503.982 97.022L513.017 102.276L532.629 90.9231L513.017 79.5789L493.424 90.9231ZM453.232 90.9231L463.757 97.022L472.795 102.276L492.404 90.9231L472.795 79.5789L453.232 90.9231ZM413.008 90.9231L423.549 97.022L432.584 102.276L452.196 90.9231L432.584 79.5789L413.008 90.9231ZM372.799 90.9231L383.34 97.022L392.361 102.276L411.988 90.9231L392.361 79.5789L372.799 90.9231ZM332.575 90.9231L349.415 100.684L352.153 102.276L358.857 98.3941L371.763 90.9231L352.153 79.5789L332.575 90.9231ZM292.366 90.9231L302.893 97.022L311.959 102.276L331.538 90.9231L311.928 79.5789L292.366 90.9231ZM252.142 90.9231L268.982 100.684L271.737 102.276L278.44 98.3941L291.33 90.9231L271.737 79.5789L252.142 90.9231ZM211.917 90.9231L217.245 94.0085L231.527 102.276L251.106 90.9231L231.527 79.5789L211.917 90.9231ZM171.708 90.9231L184.696 98.4342L191.319 102.276L210.897 90.9231L191.303 79.5789L171.708 90.9231ZM151.095 79.5789L131.5 90.9231L151.11 102.276L163.11 95.3003L170.672 90.9231L151.095 79.5789ZM110.887 79.5789L91.2754 90.9231L110.887 102.276L130.464 90.9231L110.887 79.5789ZM533.13 91.2243L513.536 102.585L533.13 113.921L552.691 102.585L535.916 92.8476L533.13 91.2243ZM492.905 91.2243L473.328 102.585L492.905 113.921L512.516 102.585L495.707 92.8476L492.905 91.2243ZM452.682 91.2243L433.12 102.585L452.682 113.921L472.308 102.585L455.498 92.8476L452.682 91.2243ZM412.473 91.2243L392.912 102.585L412.473 113.921L432.083 102.585L415.274 92.8476L412.473 91.2243ZM372.265 91.2243L352.687 102.585L372.265 113.921L391.859 102.585L375.049 92.8476L372.265 91.2243ZM332.04 91.2243L312.461 102.585L332.04 113.921L351.634 102.585L333.789 92.2392L332.04 91.2243ZM291.816 91.2243L272.237 102.585L291.816 113.921L311.443 102.585L294.633 92.8476L291.816 91.2243ZM251.639 91.2243L232.029 102.585L251.639 113.913L271.217 102.585L253.34 92.2392L251.639 91.2243ZM211.431 91.2243L191.821 102.585L211.431 113.921L231.009 102.585L220.435 96.4703L211.431 91.2243ZM159.159 98.1996L151.596 102.585L171.207 113.913L190.801 102.585L177.798 95.0642L171.207 91.2243L159.159 98.1996ZM130.983 91.2243L111.388 102.585L130.983 113.921L150.576 102.585L130.983 91.2243ZM351.892 103.023L332.316 114.36V137.04L351.892 125.705V103.023ZM271.461 103.023L251.899 114.36V137.04L271.461 125.705V103.023ZM552.983 103.031L533.404 114.36V137.04L552.983 125.705V103.031ZM513.292 103.031V125.705L532.871 137.04V114.36L513.292 103.031ZM512.775 103.031L493.18 114.36V137.04L512.775 125.705V103.031ZM473.069 103.031V125.705L492.663 137.04V114.36L473.069 103.031ZM472.55 103.031L452.972 114.36V137.04L472.55 125.705V103.031ZM432.86 103.031V125.705L452.438 137.04V114.36L432.86 103.031ZM432.341 103.031L412.764 114.36V137.04L432.341 125.705V103.031ZM392.651 103.031V125.705L412.23 137.04V114.36L392.651 103.031ZM392.118 103.031L372.541 114.36V137.04L392.118 125.705V103.031ZM352.443 103.031V125.705L372.005 137.04V114.36L352.443 103.031ZM312.22 103.031V125.705L331.797 137.04V114.36L312.22 103.031ZM311.684 103.031L292.108 114.36V137.04L311.684 125.705V103.031ZM271.995 103.031V125.705L291.573 137.04V114.36L271.995 103.031ZM231.787 103.031L231.77 125.705L251.364 137.04V114.36L231.787 103.031ZM231.268 103.031L211.674 114.36V137.04L231.268 125.705V103.031ZM191.579 103.031V125.705L211.155 137.04V114.36L191.579 103.031ZM191.043 103.031L171.45 114.36V137.04L191.043 125.705V103.031ZM151.354 103.031V125.705L170.933 137.04V114.36L151.354 103.031ZM150.82 103.031L131.241 114.36V137.04L150.82 125.705V103.031ZM111.129 103.031V125.705L130.722 137.04V114.36L111.129 103.031ZM110.595 103.031L91.0332 114.36V137.04L110.595 125.705V103.031ZM513.017 126.175L493.424 137.504L513.017 148.84L522.96 143.09L532.629 137.504L513.017 126.175ZM472.795 126.175L453.232 137.504L472.795 148.84L482.737 143.09L492.404 137.504L472.795 126.175ZM432.584 126.175L413.008 137.504L432.584 148.84L442.512 143.09L452.196 137.504L432.584 126.175ZM392.361 126.175L372.799 137.504L392.361 148.84L402.304 143.09L411.988 137.504L392.361 126.175ZM352.153 126.175L332.575 137.504L352.153 148.84L371.763 137.504L352.153 126.175ZM311.959 126.175L292.366 137.504L311.959 148.84L321.871 143.09L331.538 137.504L311.959 126.175ZM271.751 126.175L252.142 137.504L271.737 148.84L291.33 137.504L271.751 126.175ZM231.527 126.175L211.917 137.504L231.527 148.84L234.523 147.094L251.106 137.504L231.527 126.175ZM171.708 137.504L178.98 141.718L191.319 148.84L210.897 137.504L191.319 126.175L171.708 137.504ZM131.5 137.504L141.153 143.09L151.11 148.84L170.672 137.504L151.095 126.175L131.5 137.504ZM91.2754 137.504L100.943 143.09L110.887 148.84L120.796 143.09L130.464 137.504L110.887 126.175L91.2754 137.504ZM523.204 143.553L513.536 149.149L533.113 160.477L552.691 149.149L550.376 147.776L533.113 137.803L523.204 143.553ZM482.995 143.553L473.328 149.149L492.905 160.477L512.5 149.149L510.168 147.776L492.905 137.803L482.995 143.553ZM442.787 143.553L433.12 149.149L452.682 160.477L472.292 149.149L469.943 147.776L452.682 137.803L442.787 143.553ZM402.562 143.553L392.912 149.149L412.473 160.477L432.083 149.149L429.719 147.776L412.473 137.803L402.562 143.553ZM369.171 139.607L352.687 149.149L372.249 160.477L391.859 149.149L389.511 147.776L372.249 137.803L369.171 139.607ZM322.129 143.553L312.479 149.149L332.04 160.477L351.634 149.149L332.04 137.803L322.129 143.553ZM288.723 139.607L272.253 149.149L291.816 160.477L311.425 149.149L309.078 147.776L291.816 137.803L288.723 139.607ZM241.696 143.553L232.029 149.149L251.639 160.477L271.217 149.149L251.639 137.803L241.696 143.553ZM194.784 147.434L191.821 149.149L211.416 160.477L230.992 149.149L224.936 145.623L211.416 137.803L194.784 147.434ZM171.207 137.803L151.596 149.149L171.207 160.477L190.768 149.149L182.04 144.09L171.207 137.803ZM114.351 147.434L111.388 149.149L130.983 160.477L150.576 149.149L140.909 143.553L130.983 137.803L114.351 147.434ZM351.892 149.587L332.316 160.948V183.621L351.892 172.293V149.587ZM271.461 149.587L251.899 160.948V183.621L271.461 172.293V149.587ZM552.983 149.595L533.404 160.948V183.621L552.983 172.293V149.595ZM513.292 149.595V172.293L532.871 183.621V160.948L513.292 149.595ZM512.775 149.595L493.18 160.948V183.621L512.775 172.293V149.595ZM473.069 149.595V172.293L492.663 183.621V160.948L473.069 149.595ZM472.55 149.595L452.972 160.948V183.621L472.55 172.293V149.595ZM432.86 149.595V172.293L452.438 183.621V160.948L432.86 149.595ZM432.341 149.595L412.764 160.948V183.621L432.341 172.293V149.595ZM392.651 149.595V172.293L412.23 183.621V160.948L392.651 149.595ZM392.118 149.595L372.541 160.948V183.621L392.118 172.293V149.595ZM352.443 149.595V172.293L372.005 183.621V160.948L352.443 149.595ZM312.22 149.595V172.293L331.797 183.621V160.948L312.22 149.595ZM311.684 149.595L292.108 160.948V183.621L311.684 172.293V149.595ZM271.995 149.595V172.293L291.573 183.621V160.948L271.995 149.595ZM231.787 149.595L231.77 172.293L251.364 183.621V160.948L231.787 149.595ZM231.268 149.595L211.674 160.948V183.621L231.268 172.293V149.595ZM191.579 149.595V172.293L211.155 183.629V160.948L191.579 149.595ZM191.043 149.595L171.45 160.948V183.629L191.043 172.293V149.595ZM151.354 149.595V172.293L170.933 183.621V160.948L151.354 149.595ZM150.82 149.595L131.241 160.948V183.621L150.82 172.293V149.595ZM111.129 149.595V172.293L130.722 183.621V160.948L111.129 149.595ZM110.595 149.595L91.0332 160.948V183.621L110.595 172.293V149.595ZM292.366 184.076L298.649 187.689L311.959 195.412L321.871 189.68L331.538 184.076L311.928 172.731L292.366 184.076ZM211.933 184.076L225.94 192.189L231.527 195.412L234.75 193.554L251.106 184.076L231.527 172.731L211.933 184.076ZM131.5 184.076L141.153 189.68L151.11 195.412L170.672 184.076L151.095 172.731L131.5 184.076ZM91.3086 184.076L100.943 189.68L110.887 195.412L120.796 189.68L130.464 184.076L110.887 172.731L91.3086 184.076ZM493.441 184.076L499.707 187.689L513.017 195.412L522.96 189.68L532.612 184.076L513.017 172.739L493.441 184.076ZM453.232 184.076L459.498 187.689L472.795 195.412L482.737 189.68L492.404 184.076L472.795 172.739L453.232 184.076ZM413.008 184.076L419.274 187.689L432.584 195.412L442.512 189.68L452.179 184.076L432.584 172.739L413.008 184.076ZM372.799 184.076L379.066 187.689L392.361 195.412L402.304 189.68L411.971 184.076L392.361 172.739L372.799 184.076ZM332.575 184.076L335.034 185.506L352.153 195.412L371.763 184.076L352.153 172.739L332.575 184.076ZM252.142 184.076L254.603 185.506L271.751 195.412L291.313 184.076L271.737 172.739L252.142 184.076ZM191.303 172.739L171.708 184.076L191.319 195.412L210.897 184.076L191.303 172.739ZM523.204 190.125L513.536 195.713L533.13 207.058L552.691 195.713L533.13 184.376L523.204 190.125ZM482.995 190.125L473.328 195.713L492.905 207.058L512.516 195.713L492.905 184.376L482.995 190.125ZM442.787 190.125L433.12 195.713L452.682 207.058L472.308 195.713L452.682 184.376L442.787 190.125ZM402.562 190.125L392.912 195.713L412.473 207.058L432.083 195.713L412.473 184.376L402.562 190.125ZM369.398 186.058L352.687 195.713L372.265 207.058L391.859 195.713L372.265 184.376L369.398 186.058ZM322.129 190.125L312.461 195.713L332.04 207.058L351.634 195.713L336.897 187.195L332.04 184.376L322.129 190.125ZM288.965 186.058L272.237 195.713L291.816 207.058L311.443 195.713L291.816 184.376L288.965 186.058ZM241.696 190.125L232.029 195.713L251.639 207.058L271.217 195.713L256.481 187.195L251.639 184.376L241.696 190.125ZM194.59 194.13L191.821 195.713L211.431 207.058L231.009 195.713L211.431 184.376L194.59 194.13ZM171.207 184.376L151.596 195.713L171.207 207.058L190.801 195.713L171.207 184.376ZM114.157 194.13L111.388 195.713L130.983 207.058L150.576 195.713L140.909 190.125L130.983 184.376L114.157 194.13ZM552.983 196.176L533.404 207.512V230.193L552.983 218.857V196.176ZM513.292 196.176V218.857L532.871 230.193V207.512L513.292 196.176ZM512.775 196.176L493.18 207.512V230.193L512.775 218.857V196.176ZM473.069 196.176V218.857L492.663 230.193V207.512L473.069 196.176ZM472.55 196.176L452.972 207.512V230.193L472.55 218.857V196.176ZM432.86 196.176V218.857L452.438 230.193V207.512L432.86 196.176ZM432.341 196.176L412.764 207.512V230.193L432.341 218.857V196.176ZM392.651 196.176V218.857L412.23 230.193V207.512L392.651 196.176ZM392.118 196.176L372.541 207.512V230.193L392.118 218.857V196.176ZM351.892 196.176L332.316 207.512V230.193L351.892 218.857V196.176ZM312.22 196.176V218.857L331.797 230.193V207.512L312.22 196.176ZM311.684 196.176L292.108 207.512V230.193L311.684 218.857V196.176ZM271.461 196.176L251.899 207.512V230.193L271.461 218.857V196.176ZM231.787 196.176L231.77 218.857L251.364 230.193V207.512L231.787 196.176ZM231.268 196.176L211.674 207.512V230.193L231.268 218.857V196.176ZM191.579 196.176V218.857L211.155 230.193V207.512L191.579 196.176ZM150.82 196.176L131.241 207.512V230.193L150.82 218.857V196.176ZM111.129 196.176V218.857L130.722 230.193V207.512L111.129 196.176ZM352.443 196.185V218.857L372.005 230.193V207.512L352.443 196.185ZM271.995 196.185V218.857L291.573 230.193V207.512L271.995 196.185ZM191.043 196.185L171.45 207.512V230.193L191.043 218.857V196.185ZM151.354 196.185V218.857L170.933 230.193V207.512L151.354 196.185ZM110.595 196.185L91.0332 207.512V230.193L110.595 218.857V196.185ZM311.928 219.296L292.366 230.656L311.959 241.993L321.871 236.244L331.538 230.656L311.928 219.296ZM231.527 219.296L211.917 230.656L231.527 241.993L234.523 240.246L251.106 230.656L231.527 219.296ZM131.5 230.656L141.153 236.244L151.11 241.993L170.672 230.656L151.095 219.296L131.5 230.656ZM91.2754 230.656L100.943 236.244L110.887 241.993L120.796 236.244L130.464 230.656L110.887 219.296L91.2754 230.656ZM513.017 219.32L493.424 230.656L513.017 241.993L522.96 236.244L532.629 230.656L513.017 219.32ZM472.795 219.32L453.232 230.656L472.795 241.993L482.737 236.244L492.404 230.656L472.795 219.32ZM432.584 219.32L413.008 230.656L432.584 241.993L442.512 236.244L452.196 230.656L432.584 219.32ZM392.361 219.32L372.799 230.656L392.361 241.993L402.304 236.244L411.988 230.656L392.361 219.32ZM352.153 219.32L332.575 230.656L352.153 241.993L371.763 230.656L352.153 219.32ZM271.737 219.32L252.142 230.656L271.737 241.993L291.33 230.656L271.737 219.32ZM171.708 230.656L178.98 234.855L191.319 241.993L210.897 230.656L191.303 219.32L171.708 230.656ZM523.204 236.698L513.536 242.286L533.13 253.631L552.691 242.286L533.13 230.957L523.204 236.698ZM482.995 236.698L473.328 242.286L492.905 253.631L512.5 242.286L492.905 230.957L482.995 236.698ZM442.787 236.698L433.12 242.286L452.682 253.631L472.292 242.286L452.682 230.957L442.787 236.698ZM402.562 236.698L392.912 242.286L412.473 253.631L432.083 242.286L412.473 230.957L402.562 236.698ZM369.171 232.743L352.687 242.286L372.265 253.631L391.859 242.286L372.265 230.957L369.171 232.743ZM322.129 236.698L312.479 242.286L332.04 253.631L351.634 242.278L336.849 233.734L332.04 230.957L322.129 236.698ZM288.723 232.743L272.253 242.286L291.816 253.631L311.425 242.286L291.816 230.957L288.723 232.743ZM241.696 236.698L232.029 242.286L251.639 253.631L271.217 242.278L256.417 233.734L251.639 230.957L241.696 236.698ZM194.784 240.596L191.821 242.278L211.431 253.631L230.992 242.286L211.431 230.957L194.784 240.596ZM171.207 230.957L151.596 242.286L171.207 253.631L190.768 242.286L171.207 230.957ZM114.351 240.596L111.388 242.286L130.983 253.631L150.576 242.286L140.909 236.698L130.983 230.957L114.351 240.596ZM552.983 242.748L533.404 254.084V276.775L552.983 265.413V242.748ZM513.292 242.748V265.413L532.871 276.775V254.084L513.292 242.748ZM512.775 242.748L493.18 254.084V276.775L512.775 265.413V242.748ZM473.069 242.748V265.413L492.663 276.775V254.084L473.069 242.748ZM472.55 242.748L452.972 254.084V276.775L472.55 265.413V242.748ZM432.86 242.748V265.413L452.438 276.775V254.084L432.86 242.748ZM432.341 242.748L412.764 254.084V276.775L432.341 265.413V242.748ZM392.651 242.748V265.413L412.23 276.775V254.084L392.651 242.748ZM392.118 242.748L372.541 254.084V276.775L392.118 265.413V242.748ZM352.443 242.748V265.413L372.005 276.775V254.084L352.443 242.748ZM351.892 242.748L332.316 254.084V276.775L351.892 265.413V242.748ZM312.22 242.748V265.413L331.797 276.775V254.084L312.22 242.748ZM311.684 242.748L292.108 254.084V276.775L311.684 265.413V242.748ZM271.995 242.748V265.413L291.573 276.775V254.084L271.995 242.748ZM271.461 242.748L251.899 254.084V276.775L271.461 265.413V242.748ZM231.787 242.748L231.77 265.413L251.364 276.775V254.084L231.787 242.748ZM231.268 242.748L211.674 254.084V276.775L231.268 265.413V242.748ZM191.579 242.748V265.413L211.155 276.775V254.084L191.579 242.748ZM191.043 242.748L171.45 254.084V276.775L191.043 265.413V242.748ZM151.354 242.748V265.413L170.933 276.775V254.084L151.354 242.748ZM150.82 242.748L131.241 254.084V276.775L150.82 265.413V242.748ZM111.129 242.748V265.413L130.722 276.775V254.084L111.129 242.748ZM110.595 242.748L91.0332 254.084V276.775L110.595 265.413V242.748ZM513.017 265.884L493.441 277.205L513.017 288.55L532.612 277.205L513.017 265.884ZM472.795 265.884L453.232 277.205L472.795 288.55L492.404 277.205L472.795 265.884ZM432.584 265.884L413.008 277.205L432.584 288.55L452.179 277.205L432.584 265.884ZM392.361 265.884L372.799 277.205L392.361 288.55L411.971 277.205L392.361 265.884ZM352.153 265.884L332.575 277.205L352.153 288.55L371.763 277.205L352.153 265.884ZM311.959 265.884L292.366 277.205L311.959 288.55L331.538 277.205L311.959 265.884ZM271.751 265.884L252.142 277.205L271.737 288.55L291.313 277.205L271.751 265.884ZM231.527 265.884L211.933 277.205L231.527 288.55L251.106 277.205L231.527 265.884ZM171.708 277.205L178.98 281.436L191.319 288.55L204.484 280.933L210.897 277.205L191.319 265.884L171.708 277.205ZM151.095 265.884L131.5 277.205L151.095 288.55L170.672 277.205L151.095 265.884ZM110.887 265.884L91.3086 277.205L110.887 288.55L130.464 277.205L110.887 265.884ZM533.13 277.529L513.536 288.891L533.113 300.194L552.691 288.891L533.13 277.529ZM492.905 277.529L473.328 288.891L492.905 300.194L512.5 288.891L492.905 277.529ZM452.682 277.529L433.12 288.891L452.682 300.194L472.292 288.891L452.682 277.529ZM412.473 277.529L392.912 288.891L412.473 300.194L432.083 288.891L412.473 277.529ZM372.265 277.529L352.687 288.891L372.249 300.194L391.859 288.891L372.265 277.529ZM332.04 277.529L312.479 288.891L332.04 300.194L351.634 288.891L336.897 280.355L332.04 277.529ZM291.816 277.529L272.253 288.891L291.816 300.194L311.425 288.891L291.816 277.529ZM251.639 277.529L232.029 288.891L251.639 300.194L271.217 288.891L256.481 280.355L251.639 277.529ZM211.416 277.529L191.821 288.891L211.416 300.194L230.992 288.891L211.416 277.529ZM171.207 277.529L151.596 288.891L171.207 300.194L190.768 288.891L171.207 277.529ZM130.983 277.529L111.388 288.891L130.983 300.194L150.576 288.891L130.983 277.529ZM552.983 289.313L533.404 300.666V323.356L552.983 311.986V289.313ZM513.292 289.313V311.986L532.871 323.356V300.666L513.292 289.313ZM512.775 289.313L493.18 300.666V323.356L512.775 311.986V289.313ZM473.069 289.313V311.986L492.663 323.356V300.666L473.069 289.313ZM472.55 289.313L452.972 300.666V323.356L472.55 311.986V289.313ZM432.86 289.313V311.986L452.438 323.356V300.666L432.86 289.313ZM432.341 289.313L412.764 300.666V323.356L432.341 311.986V289.313ZM392.651 289.313V311.986L412.23 323.356V300.666L392.651 289.313ZM392.118 289.313L372.541 300.666V323.356L392.118 311.986V289.313ZM352.443 289.313V311.986L372.005 323.356V300.666L352.443 289.313ZM351.892 289.313L332.316 300.666V323.356L351.892 311.986V289.313ZM312.22 289.313V311.986L331.797 323.356V300.666L312.22 289.313ZM311.684 289.313L292.108 300.666V323.356L311.684 311.986V289.313ZM271.995 289.313V311.986L291.573 323.356V300.666L271.995 289.313ZM271.461 289.313L251.899 300.666V323.356L271.461 311.986V289.313ZM231.787 289.313L231.77 311.986L251.364 323.356V300.666L231.787 289.313ZM231.268 289.313L211.674 300.666V323.356L231.268 311.986V289.313ZM191.579 289.313V311.986L211.155 323.356V300.666L191.579 289.313ZM191.043 289.313L171.45 300.666V323.356L191.043 311.986V289.313ZM151.354 289.313V311.986L170.933 323.356V300.666L151.354 289.313ZM150.82 289.313L131.241 300.666V323.356L150.82 311.986V289.313ZM111.129 289.313V311.986L130.722 323.356V300.666L111.129 289.313ZM110.595 289.313L91.0332 300.666V323.356L110.595 311.986V289.313ZM493.441 323.792L499.707 327.432L513.017 335.13L522.96 329.381L532.612 323.792L513.017 312.44L493.441 323.792ZM453.232 323.792L459.498 327.432L472.795 335.13L482.737 329.381L492.404 323.792L472.795 312.44L453.232 323.792ZM413.008 323.792L419.274 327.432L432.584 335.13L442.512 329.381L452.179 323.792L432.584 312.44L413.008 323.792ZM372.799 323.792L379.066 327.432L392.361 335.13L402.304 329.381L411.971 323.792L392.361 312.44L372.799 323.792ZM332.575 323.792L335.034 325.223L352.153 335.13L371.763 323.792L352.153 312.44L332.575 323.792ZM292.366 323.792L298.649 327.432L311.959 335.13L321.871 329.381L331.538 323.792L311.959 312.44L292.366 323.792ZM252.142 323.792L254.603 325.223L271.751 335.13L291.313 323.792L271.751 312.44L252.142 323.792ZM211.933 323.792L225.94 331.897L231.527 335.13L234.75 333.263L251.106 323.792L231.527 312.44L211.933 323.792ZM191.319 312.44L171.708 323.81L191.319 335.13L210.897 323.81L191.319 312.44ZM131.5 323.792L141.153 329.381L151.11 335.13L170.672 323.792L151.095 312.44L131.5 323.792ZM91.3086 323.792L100.943 329.381L110.887 335.13L120.796 329.381L130.464 323.792L110.887 312.44L91.3086 323.792ZM523.204 329.868L513.536 335.438L533.13 346.776L552.691 335.438L533.13 324.102L523.204 329.868ZM482.995 329.868L473.328 335.438L492.905 346.776L512.516 335.438L492.905 324.102L482.995 329.868ZM442.787 329.868L433.12 335.438L452.682 346.776L472.308 335.438L452.682 324.102L442.787 329.868ZM402.562 329.868L392.912 335.438L412.473 346.776L432.083 335.438L412.473 324.102L402.562 329.868ZM369.398 325.758L352.687 335.438L372.265 346.776L391.859 335.438L372.265 324.102L369.398 325.758ZM322.129 329.868L312.461 335.438L332.04 346.776L351.634 335.438L336.897 326.928L332.04 324.102L322.129 329.868ZM288.965 325.758L272.237 335.438L291.816 346.776L311.443 335.438L291.816 324.102L288.965 325.758ZM241.696 329.868L232.029 335.438L251.639 346.776L271.217 335.438L256.481 326.928L251.639 324.102L241.696 329.868ZM194.59 333.846L191.821 335.438L211.431 346.776L231.009 335.438L211.431 324.102L194.59 333.846ZM171.207 324.102L151.596 335.438L171.207 346.776L190.801 335.438L171.207 324.102ZM114.157 333.846L111.388 335.438L130.983 346.776L150.576 335.438L140.909 329.868L130.983 324.102L114.157 333.846ZM552.983 335.877L533.404 347.229V369.92L552.983 358.599V335.877ZM513.292 335.877V358.599L532.871 369.92V347.229L513.292 335.877ZM512.775 335.877L493.18 347.229V369.92L512.775 358.599V335.877ZM473.069 335.877V358.599L492.663 369.92V347.229L473.069 335.877ZM472.55 335.877L452.972 347.229V369.92L472.55 358.599V335.877ZM432.86 335.877V358.599L452.438 369.92V347.229L432.86 335.877ZM432.341 335.877L412.764 347.229V369.92L432.341 358.599V335.877ZM392.651 335.877V358.599L412.23 369.92V347.229L392.651 335.877ZM392.118 335.877L372.541 347.229V369.92L392.118 358.599V335.877ZM352.443 335.877V358.599L372.005 369.92V347.229L352.443 335.877ZM351.892 335.877L332.316 347.229V369.92L351.892 358.599V335.877ZM312.22 335.877V358.599L331.797 369.92V347.229L312.22 335.877ZM311.684 335.877L292.108 347.229V369.92L311.684 358.599V335.877ZM271.995 335.877V358.599L291.573 369.92V347.229L271.995 335.877ZM271.461 335.877L251.899 347.229V369.92L271.461 358.599V335.877ZM231.787 335.877L231.77 358.599L251.364 369.92V347.229L231.787 335.877ZM231.268 335.877L211.674 347.229V369.92L231.268 358.599V335.877ZM191.579 335.877V358.599L211.155 369.92V347.229L191.579 335.877ZM191.043 335.877L171.45 347.229V369.92L191.043 358.599V335.877ZM151.354 335.877V358.599L170.933 369.92V347.229L151.354 335.877ZM150.82 335.877L131.241 347.229V369.92L150.82 358.599V335.877ZM111.129 335.877V358.599L130.722 369.92V347.229L111.129 335.877ZM110.595 335.877L91.0332 347.229V369.92L110.595 358.599V335.877ZM513.017 359.005L493.424 370.373L513.017 381.695L522.96 375.962L532.629 370.373L513.017 359.005ZM472.795 359.005L453.232 370.373L472.795 381.695L482.737 375.962L492.404 370.373L472.795 359.005ZM432.584 359.005L413.008 370.373L432.584 381.695L442.512 375.962L452.196 370.373L432.584 359.005ZM392.361 359.005L372.799 370.373L392.361 381.695L402.304 375.962L411.988 370.373L392.361 359.005ZM352.153 359.005L332.575 370.373L352.153 381.695L371.763 370.373L352.153 359.005ZM311.928 359.005L292.366 370.373L311.959 381.695L321.871 375.962L331.538 370.373L311.928 359.005ZM271.737 359.005L252.142 370.373L271.737 381.695L291.33 370.373L271.737 359.005ZM231.527 359.005L211.917 370.373L231.527 381.695L234.523 379.973L251.106 370.373L231.527 359.005ZM171.708 370.373L178.98 374.596L191.319 381.695L210.897 370.373L191.303 359.005L171.708 370.373ZM131.5 370.373L141.153 375.962L151.11 381.695L170.672 370.373L151.095 359.005L131.5 370.373ZM91.2754 370.373L100.943 375.962L110.887 381.695L120.796 375.962L130.464 370.373L110.887 359.005L91.2754 370.373ZM533.113 370.666L513.536 382.019L533.13 393.356L552.691 382.019L533.113 370.666ZM492.905 370.666L473.328 382.019L492.905 393.356L512.516 382.019L492.905 370.666ZM452.682 370.666L433.12 382.019L452.682 393.356L472.308 382.019L452.682 370.666ZM412.473 370.666L392.912 382.019L412.473 393.356L432.083 382.019L412.473 370.666ZM372.249 370.666L352.687 382.019L372.265 393.356L391.859 382.019L372.249 370.666ZM332.04 370.666L312.461 382.019L332.04 393.356L351.634 382.019L332.04 370.666ZM291.816 370.666L272.237 382.019L291.816 393.356L311.443 382.019L291.816 370.666ZM251.639 370.666L232.029 382.019L251.639 393.323L271.217 382.019L251.639 370.666ZM211.416 370.666L191.821 382.019L211.431 393.356L231.009 382.019L211.416 370.666ZM159.159 377.633L151.596 382.019L171.207 393.323L190.801 382.019L171.207 370.666L159.159 377.633ZM130.983 370.666L111.388 382.019L130.983 393.356L150.576 382.019L130.983 370.666ZM552.983 382.475L533.404 393.81V416.484L552.983 405.146V382.475ZM513.292 382.475V405.146L532.871 416.484V393.81L513.292 382.475ZM512.775 382.475L493.18 393.81V416.484L512.775 405.146V382.475ZM473.069 382.475V405.146L492.663 416.484V393.81L473.069 382.475ZM472.55 382.475L452.972 393.81V416.484L472.55 405.146V382.475ZM432.86 382.475V405.146L452.438 416.484V393.81L432.86 382.475ZM432.341 382.475L412.764 393.81V416.484L432.341 405.146V382.475ZM392.651 382.475V405.146L412.23 416.484V393.81L392.651 382.475ZM392.118 382.475L372.541 393.81V416.484L392.118 405.146V382.475ZM352.443 382.475V405.146L372.005 416.484V393.81L352.443 382.475ZM351.892 382.475L332.316 393.81V416.484L351.892 405.146V382.475ZM312.22 382.475V405.146L331.797 416.484V393.81L312.22 382.475ZM311.684 382.475L292.108 393.81V416.484L311.684 405.146V382.475ZM271.995 382.475V405.146L291.573 416.484V393.81L271.995 382.475ZM271.461 382.475L251.899 393.81V416.484L271.461 405.146V382.475ZM231.787 382.475L231.77 405.146L251.364 416.484V393.81L231.787 382.475ZM231.268 382.475L211.674 393.81V416.484L231.268 405.146V382.475ZM191.579 382.475V405.146L211.155 416.484V393.81L191.579 382.475ZM191.043 382.475L171.45 393.81V416.484L191.043 405.146V382.475ZM151.354 382.475V405.146L170.933 416.484V393.81L151.354 382.475ZM150.82 382.475L131.241 393.81V416.484L150.82 405.146V382.475ZM111.129 382.475V405.146L130.722 416.484V393.81L111.129 382.475ZM110.595 382.475L91.0332 393.81V416.484L110.595 405.146V382.475ZM493.441 416.938L499.707 420.577L513.017 428.29L522.96 422.526L532.612 416.938L513.017 405.601L493.441 416.938ZM453.232 416.938L459.498 420.577L472.795 428.29L482.737 422.526L492.404 416.938L472.795 405.601L453.232 416.938ZM413.008 416.938L419.274 420.577L432.584 428.29L442.512 422.526L452.179 416.938L432.584 405.601L413.008 416.938ZM372.799 416.938L379.066 420.577L392.361 428.29L402.304 422.526L411.971 416.938L392.361 405.601L372.799 416.938ZM332.575 416.938L335.034 418.368L352.153 428.29L371.763 416.938L352.153 405.601L332.575 416.938ZM292.366 416.938L298.649 420.577L311.959 428.29L321.871 422.526L331.538 416.938L311.959 405.601L292.366 416.938ZM252.142 416.938L254.603 418.368L271.751 428.29L291.313 416.938L271.751 405.601L252.142 416.938ZM211.933 416.938L225.94 425.027L231.527 428.29L234.75 426.423L251.106 416.938L231.527 405.601L211.933 416.938ZM191.319 405.601L171.708 416.938L191.319 428.29L210.897 416.938L191.319 405.601ZM131.5 416.938L141.153 422.526L151.11 428.29L170.672 416.938L151.095 405.601L131.5 416.938ZM91.3086 416.938L100.943 422.526L110.887 428.29L120.796 422.526L130.464 416.938L110.887 405.601L91.3086 416.938ZM523.204 423.013L513.536 428.6L533.113 439.936L552.691 428.6L533.13 417.264L523.204 423.013ZM482.995 423.013L473.328 428.6L492.905 439.936L512.516 428.6L492.905 417.264L482.995 423.013ZM442.787 423.013L433.12 428.6L452.682 439.936L472.308 428.6L452.682 417.264L442.787 423.013ZM402.562 423.013L392.912 428.6L412.473 439.936L432.083 428.6L412.473 417.264L402.562 423.013ZM369.398 418.92L352.687 428.6L372.249 439.936L391.859 428.6L372.265 417.264L369.398 418.92ZM322.129 423.013L312.461 428.6L332.04 439.936L351.634 428.6L336.897 420.056L332.04 417.264L322.129 423.013ZM288.965 418.92L272.237 428.6L291.816 439.936L311.443 428.6L291.816 417.264L288.965 418.92ZM241.696 423.013L232.029 428.6L251.639 439.936L271.217 428.6L256.481 420.056L251.639 417.264L241.696 423.013ZM194.59 426.974L191.821 428.6L211.416 439.936L231.009 428.6L211.431 417.264L194.59 426.974ZM171.207 417.264L151.596 428.6L171.207 439.936L190.801 428.6L171.207 417.264ZM114.157 426.974L111.388 428.6L130.983 439.936L150.576 428.6L140.909 423.013L130.983 417.264L114.157 426.974ZM552.983 429.039L533.404 440.375V463.048L552.983 451.727V429.039ZM513.292 429.039V451.727L532.871 463.048V440.375L513.292 429.039ZM512.775 429.039L493.18 440.375V463.048L512.775 451.727V429.039ZM473.069 429.039V451.727L492.663 463.048V440.375L473.069 429.039ZM472.55 429.039L452.972 440.375V463.048L472.55 451.727V429.039ZM432.86 429.039V451.727L452.438 463.048V440.375L432.86 429.039ZM432.341 429.039L412.764 440.375V463.048L432.341 451.727V429.039ZM392.651 429.039V451.727L412.23 463.048V440.375L392.651 429.039ZM392.118 429.039L372.541 440.375V463.048L392.118 451.727V429.039ZM352.443 429.039V451.727L372.005 463.048V440.375L352.443 429.039ZM351.892 429.039L332.316 440.375V463.048L351.892 451.727V429.039ZM312.22 429.039V451.727L331.797 463.048V440.375L312.22 429.039ZM311.684 429.039L292.108 440.375V463.048L311.684 451.727V429.039ZM271.995 429.039V451.727L291.573 463.048V440.375L271.995 429.039ZM271.461 429.039L251.899 440.375V463.048L271.461 451.727V429.039ZM231.787 429.039L231.77 451.727L251.364 463.048V440.375L231.787 429.039ZM231.268 429.039L211.674 440.375V463.048L231.268 451.727V429.039ZM191.579 429.039V451.727L211.155 463.048V440.375L191.579 429.039ZM191.043 429.039L171.45 440.375V463.048L191.043 451.727V429.039ZM151.354 429.039V451.727L170.933 463.048V440.375L151.354 429.039ZM150.82 429.039L131.241 440.375V463.048L150.82 451.727V429.039ZM111.129 429.039V451.727L130.722 463.048V440.375L111.129 429.039ZM110.595 429.039L91.0332 440.375V463.048L110.595 451.727V429.039ZM513.017 452.183L493.441 463.502L513.017 474.854L522.96 469.09L532.612 463.502L513.017 452.183ZM472.795 452.183L453.232 463.502L472.795 474.854L482.737 469.09L492.404 463.502L472.795 452.183ZM432.584 452.183L413.008 463.502L432.584 474.854L442.512 469.09L452.179 463.502L432.584 452.183ZM392.361 452.183L372.799 463.502L392.361 474.854L402.304 469.09L411.971 463.502L392.361 452.183ZM352.153 452.183L332.575 463.502L352.153 474.854L371.763 463.502L352.153 452.183ZM311.928 452.183L292.366 463.502L311.959 474.854L321.871 469.09L331.538 463.502L311.928 452.183ZM271.737 452.183L252.142 463.502L271.737 474.854L291.313 463.502L271.737 452.183ZM231.527 452.183L211.933 463.502L231.527 474.854L234.75 473.003L251.106 463.502L231.527 452.183ZM171.708 463.502L178.899 467.66L191.319 474.854L210.897 463.502L191.303 452.183L171.708 463.502ZM131.5 463.502L141.153 469.09L151.11 474.854L170.672 463.502L151.095 452.183L131.5 463.502ZM91.3086 463.502L100.943 469.09L110.887 474.854L120.796 469.09L130.464 463.502L110.887 452.183L91.3086 463.502ZM533.13 463.812L513.536 475.147L533.13 486.516L552.691 475.147L535.916 465.42L533.13 463.812ZM492.905 463.812L473.328 475.147L492.905 486.516L512.516 475.147L495.707 465.42L492.905 463.812ZM452.682 463.812L433.12 475.147L452.682 486.516L472.308 475.147L455.498 465.42L452.682 463.812ZM412.473 463.812L392.912 475.147L412.473 486.516L432.083 475.147L415.274 465.42L412.473 463.812ZM372.265 463.812L352.687 475.147L372.265 486.516L391.859 475.147L375.049 465.42L372.265 463.812ZM332.04 463.812L312.461 475.147L332.04 486.516L351.634 475.147L333.789 464.817L332.04 463.812ZM291.816 463.812L272.237 475.147L291.816 486.516L311.443 475.147L294.633 465.42L291.816 463.812ZM251.639 463.812L232.029 475.147L251.639 486.516L271.217 475.147L253.34 464.817L251.639 463.812ZM211.431 463.812L191.821 475.147L211.431 486.516L231.009 475.147L220.435 469.04L211.431 463.812ZM159.159 470.794L151.596 475.147L171.207 486.516L190.801 475.147L177.798 467.645L171.207 463.812L159.159 470.794ZM130.983 463.812L111.388 475.147L130.983 486.516L150.576 475.147L130.983 463.812ZM552.983 475.617L533.404 486.971V509.644L552.983 498.291V475.617ZM513.292 475.617V498.291L532.871 509.644V486.971L513.292 475.617ZM512.775 475.617L493.18 486.971V509.644L512.775 498.291V475.617ZM473.069 475.617V498.291L492.663 509.644V486.971L473.069 475.617ZM472.55 475.617L452.972 486.971V509.644L472.55 498.291V475.617ZM432.86 475.617V498.291L452.438 509.644V486.971L432.86 475.617ZM432.341 475.617L412.764 486.971V509.644L432.341 498.291V475.617ZM392.651 475.617V498.291L412.23 509.644V486.971L392.651 475.617ZM392.118 475.617L372.541 486.971V509.644L392.118 498.291V475.617ZM351.892 475.617L332.316 486.971V509.644L351.892 498.291V475.617ZM312.22 475.617V498.291L331.797 509.644V486.971L312.22 475.617ZM311.684 475.617L292.108 486.971V509.644L311.684 498.291V475.617ZM271.461 475.617L251.899 486.971V509.644L271.461 498.291V475.617ZM231.787 475.617L231.77 498.291L251.364 509.644V486.971L231.787 475.617ZM231.268 475.617L211.674 486.971V509.644L231.268 498.291V475.617ZM191.579 475.617V498.291L211.155 509.644V486.971L191.579 475.617ZM150.82 475.617L131.241 486.971V509.644L150.82 498.291V475.617ZM111.129 475.617V498.291L130.722 509.644V486.971L111.129 475.617ZM352.443 475.635V498.291L372.005 509.644V486.971L352.443 475.635ZM271.995 475.635V498.291L291.573 509.644V486.971L271.995 475.635ZM191.043 475.635L171.45 486.971V509.644L191.043 498.291V475.635ZM151.354 475.635V498.291L170.933 509.644V486.971L151.354 475.635ZM110.595 475.635L91.0332 486.971V509.644L110.595 498.291V475.635ZM513.017 498.761L493.424 510.066L513.017 521.42L532.629 510.066L513.017 498.761ZM472.795 498.761L453.232 510.066L472.795 521.42L492.404 510.066L472.795 498.761ZM432.584 498.761L413.008 510.066L432.584 521.42L452.196 510.066L432.584 498.761ZM392.361 498.761L372.799 510.066L392.361 521.42L411.988 510.066L392.361 498.761ZM352.153 498.761L332.575 510.066L352.153 521.42L371.763 510.066L352.153 498.761ZM311.959 498.761L292.366 510.066L311.959 521.42L331.538 510.066L311.959 498.761ZM271.751 498.761L252.142 510.066L271.737 521.42L291.33 510.066L271.751 498.761ZM231.527 498.761L211.917 510.066L231.527 521.42L251.106 510.066L231.527 498.761ZM171.708 510.066L178.98 514.289L191.319 521.42L204.484 513.787L210.897 510.066L191.319 498.761L171.708 510.066ZM151.095 498.761L131.5 510.066L151.095 521.42L170.672 510.066L151.095 498.761ZM110.887 498.761L91.2754 510.066L110.887 521.42L130.464 510.066L110.887 498.761ZM523.204 516.142L513.536 521.727L533.13 533.064L552.691 521.727L550.376 520.38L533.113 510.407L523.204 516.142ZM482.995 516.142L473.328 521.727L492.905 533.064L512.5 521.727L510.168 520.38L492.905 510.407L482.995 516.142ZM442.787 516.142L433.12 521.727L452.682 533.064L472.292 521.727L469.943 520.38L452.682 510.407L442.787 516.142ZM402.562 516.142L392.912 521.727L412.473 533.064L432.083 521.727L429.719 520.38L412.473 510.407L402.562 516.142ZM369.171 512.21L352.687 521.727L372.265 533.064L391.859 521.727L389.511 520.38L372.249 510.407L369.171 512.21ZM322.129 516.142L312.479 521.727L332.04 533.064L351.634 521.727L332.04 510.407L322.129 516.142ZM288.723 512.21L272.253 521.727L291.816 533.064L311.425 521.727L309.078 520.38L291.816 510.407L288.723 512.21ZM241.696 516.142L232.029 521.727L251.639 533.064L271.217 521.727L251.639 510.407L241.696 516.142ZM194.784 520.038L191.821 521.727L211.431 533.064L230.992 521.727L224.936 518.221L211.416 510.407L194.784 520.038ZM171.207 510.407L151.596 521.727L171.207 533.064L190.768 521.727L182.04 516.66L171.207 510.407ZM114.351 520.038L111.388 521.727L130.983 533.064L150.576 521.727L140.909 516.142L130.983 510.407L114.351 520.038ZM552.983 522.183L533.404 533.536V556.225L552.983 544.856V522.183ZM513.292 522.183V544.856L532.871 556.225V533.536L513.292 522.183ZM512.775 522.183L493.18 533.536V556.225L512.775 544.856V522.183ZM473.069 522.183V544.856L492.663 556.225V533.536L473.069 522.183ZM472.55 522.183L452.972 533.536V556.225L472.55 544.856V522.183ZM432.86 522.183V544.856L452.438 556.225V533.536L432.86 522.183ZM432.341 522.183L412.764 533.536V556.225L432.341 544.856V522.183ZM392.651 522.183V544.856L412.23 556.225V533.536L392.651 522.183ZM392.118 522.183L372.541 533.536V556.225L392.118 544.856V522.183ZM352.443 522.183V544.856L372.005 556.225V533.536L352.443 522.183ZM351.892 522.183L332.316 533.536V556.225L351.892 544.856V522.183ZM312.22 522.183V544.856L331.797 556.225V533.536L312.22 522.183ZM311.684 522.183L292.108 533.536V556.225L311.684 544.856V522.183ZM271.995 522.183V544.856L291.573 556.225V533.536L271.995 522.183ZM271.461 522.183L251.899 533.536V556.225L271.461 544.856V522.183ZM231.787 522.183L231.77 544.856L251.364 556.225V533.536L231.787 522.183ZM231.268 522.183L211.674 533.536V556.225L231.268 544.856V522.183ZM191.579 522.183V544.856L211.155 556.225V533.536L191.579 522.183ZM191.043 522.183L171.45 533.536V556.225L191.043 544.856V522.183ZM151.354 522.183V544.856L170.933 556.225V533.536L151.354 522.183ZM150.82 522.183L131.241 533.536V556.225L150.82 544.856V522.183ZM111.129 522.183V544.856L130.722 556.225V533.536L111.129 522.183ZM110.595 522.183L91.0332 533.536V556.225L110.595 544.856V522.183ZM493.441 556.68L499.707 560.286L513.017 568L522.96 562.25L532.612 556.68L513.017 545.311L493.441 556.68ZM453.232 556.68L459.498 560.286L472.795 568L482.737 562.25L492.404 556.68L472.795 545.311L453.232 556.68ZM413.008 556.68L419.274 560.286L432.584 568L442.512 562.25L452.179 556.68L432.584 545.311L413.008 556.68ZM372.799 556.68L379.066 560.286L392.361 568L402.304 562.25L411.971 556.68L392.361 545.311L372.799 556.68ZM332.575 556.68L335.034 558.092L352.153 568L371.763 556.68L352.153 545.311L332.575 556.68ZM292.366 556.68L298.649 560.286L311.959 568L321.871 562.25L331.538 556.68L311.928 545.311L292.366 556.68ZM252.142 556.68L254.603 558.092L271.751 568L291.313 556.68L271.737 545.311L252.142 556.68ZM211.933 556.68L225.94 564.768L231.527 568L234.75 566.132L251.106 556.68L231.527 545.311L211.933 556.68ZM191.303 545.311L171.708 556.68L191.319 568L210.897 556.68L191.303 545.311ZM131.5 556.68L141.153 562.25L151.11 568L170.672 556.68L151.095 545.311L131.5 556.68ZM91.3086 556.68L100.943 562.25L110.887 568L120.796 562.25L130.464 556.68L110.887 545.311L91.3086 556.68ZM533.13 556.972L513.536 568.308L533.113 579.645L552.691 568.308L533.13 556.972ZM492.905 556.972L473.328 568.308L492.905 579.645L512.516 568.308L492.905 556.972ZM452.682 556.972L433.12 568.308L452.682 579.645L472.308 568.308L452.682 556.972ZM412.473 556.972L392.912 568.308L412.473 579.645L432.083 568.308L412.473 556.972ZM372.265 556.972L352.687 568.308L372.249 579.645L391.859 568.308L372.265 556.972ZM332.04 556.972L312.461 568.308L332.04 579.645L351.634 568.308L336.897 559.782L332.04 556.972ZM291.816 556.972L272.237 568.308L291.816 579.645L311.443 568.308L291.816 556.972ZM251.639 556.972L232.029 568.308L251.639 579.645L271.217 568.308L256.481 559.782L251.639 556.972ZM211.416 556.972L191.821 568.308L211.416 579.645L231.009 568.308L211.416 556.972ZM171.207 556.972L151.596 568.308L171.207 579.645L190.801 568.308L171.207 556.972ZM130.983 556.972L111.388 568.308L130.983 579.645L150.576 568.308L130.983 556.972ZM552.983 568.748L533.404 580.1V602.774L552.983 591.436V568.748ZM513.292 568.748V591.436L532.871 602.774V580.1L513.292 568.748ZM512.775 568.748L493.18 580.1V602.774L512.775 591.436V568.748ZM473.069 568.748V591.436L492.663 602.774V580.1L473.069 568.748ZM472.55 568.748L452.972 580.1V602.774L472.55 591.436V568.748ZM432.86 568.748V591.436L452.438 602.774V580.1L432.86 568.748ZM432.341 568.748L412.764 580.1V602.774L432.341 591.436V568.748ZM392.651 568.748V591.436L412.23 602.774V580.1L392.651 568.748ZM392.118 568.748L372.541 580.1V602.774L392.118 591.436V568.748ZM352.443 568.748V591.436L372.005 602.774V580.1L352.443 568.748ZM351.892 568.748L332.316 580.1V602.774L351.892 591.436V568.748ZM312.22 568.748V591.436L331.797 602.774V580.1L312.22 568.748ZM311.684 568.748L292.108 580.1V602.774L311.684 591.436V568.748ZM271.995 568.748V591.436L291.573 602.774V580.1L271.995 568.748ZM271.461 568.748L251.899 580.1V602.774L271.461 591.436V568.748ZM231.787 568.748L231.77 591.436L251.364 602.774V580.1L231.787 568.748ZM231.268 568.748L211.674 580.1V602.774L231.268 591.436V568.748ZM191.579 568.748V591.436L211.155 602.774V580.1L191.579 568.748ZM191.043 568.748L171.45 580.1V602.774L191.043 591.436V568.748ZM151.354 568.748V591.436L170.933 602.774V580.1L151.354 568.748ZM150.82 568.748L131.241 580.1V602.774L150.82 591.436V568.748ZM111.129 568.748V591.436L130.722 602.774V580.1L111.129 568.748ZM110.595 568.748L91.0332 580.1V602.774L110.595 591.436V568.748Z" fill="#D9EAED"/>
<path fill-rule="evenodd" clip-rule="evenodd" d="M6.12304 0L0.272732 3.37306L0 3.53089V4.1419L7.16722 0H6.12304ZM13.7701 0L30.1176 9.42354L10.4645 20.767L0 14.7119V15.305L10.2203 21.2067V43.9033L0 37.9986V38.6081L9.96088 44.359L0.272732 49.9379L0 50.0957V50.7105L10.4645 44.6586L30.1335 55.996L10.4645 67.3319L0 61.2808V61.8859L10.2203 67.7958V90.4675L0 84.5671V85.1641L9.97752 90.9231L0 96.6863V97.2887L10.4645 91.2243L13.2873 92.8476L30.1335 102.585L10.4645 113.921L0 107.87V108.459L10.2203 114.36V137.04L0 131.136V131.753L9.97752 137.504L0.272732 143.09L0 143.248V143.87L0.54873 143.553L10.4645 137.803L27.7636 147.776L30.1176 149.149L10.4645 160.477L0 154.43V155.034L10.2203 160.948V183.621L0 177.72V178.326L9.96088 184.076L0.272732 189.68L0 189.837V190.442L0.54873 190.125L10.4645 184.376L30.1335 195.713L10.4645 207.058L0 201.002V201.607L10.2203 207.512V230.193L0 224.288V224.901L9.97752 230.656L0.272732 236.244L0 236.401V237.014L0.54873 236.698L10.4645 230.957L30.1176 242.286L10.4645 253.631L0 247.575V248.179L10.2203 254.084V276.775L0 270.857V271.463L9.96088 277.205L0 282.96V283.594L10.4645 277.529L30.1176 288.891L10.4645 300.194L0 294.161V294.752L10.2203 300.666V323.356L0 317.433V318.034L9.96088 323.792L0.272732 329.381L0 329.539V330.183L0.54873 329.868L10.4645 324.102L30.1335 335.438L10.4645 346.776L0 340.724V341.316L10.2203 347.229V369.92L0 364.023V364.602L9.97752 370.373L0.272732 375.962L0 376.119V376.726L10.4645 370.666L30.1335 382.019L10.4645 393.356L0 387.304V387.905L10.2203 393.81V416.484L0 410.578V411.187L9.96088 416.938L0.272732 422.526L0 422.684V423.33L0.54873 423.013L10.4645 417.264L30.1335 428.6L10.4645 439.936L0 433.885V434.47L10.2203 440.375V463.048L0 457.151V457.76L9.96088 463.502L0.272732 469.09L0 469.248V469.862L10.4645 463.812L13.2873 465.42L30.1335 475.147L10.4645 486.516L0 480.447V481.057L10.2203 486.971V509.644L0 503.73V504.327L9.97752 510.066L0 515.83V516.458L0.54873 516.142L10.4645 510.407L27.7636 520.38L30.1176 521.727L10.4645 533.064L0 527.013V527.622L10.2203 533.536V556.225L0 550.303V550.913L9.96088 556.68L0.272732 562.25L0 562.408V563.023L10.4645 556.972L30.1335 568.308L10.4645 579.645L0 573.593V574.187L10.2203 580.1V602.774L0 596.868V597.481L9.55406 603H11.4392L30.6212 591.892L49.8493 603H51.7179L70.9308 591.892L90.1612 603H92.029L111 592.019V567.869L97.903 560.286L91.6229 556.68L111 545.472V521.289L91.6063 510.066L111 498.92V474.723L91.6229 463.502L111 452.309V428.16L97.903 420.577L91.6229 416.938L111 405.745V381.564L91.6063 370.373L111 359.148V334.999L97.903 327.432L91.6229 323.792L111 312.6V288.419L91.6229 277.205L111 266.019V241.863L91.6063 230.656L111 219.447V195.281L97.903 187.689L91.6229 184.076L111 172.883V148.709L91.6063 137.504L111 126.295V102.145L102.171 97.022L91.6063 90.9231L111 79.731V55.5647L97.903 47.9817L91.6229 44.3506L111 33.1585V8.99974L102.171 3.87709L95.4555 0H94.3841L110.691 9.42354L91.0701 20.767L71.4511 9.42354L87.7842 0H86.7362L80.895 3.37306L70.9308 9.13065L61.8756 3.87709L55.1501 0H54.0778L70.4121 9.42354L50.7749 20.767L31.1558 9.42354L47.4751 0H46.435L40.5846 3.37306L30.6212 9.13065L21.5637 3.87709L14.8488 0H13.7701ZM91.362 21.2067L110.983 9.87685V32.5675L91.362 43.9033V21.2067ZM71.2061 32.5675V9.87685L90.8274 21.2067V43.9033L71.2061 32.5675ZM51.0509 21.2067L70.6881 9.87685V32.5675L51.0509 43.9033V21.2067ZM30.8965 32.5675V9.87685L50.5321 21.2067V43.9033L30.8965 32.5675ZM10.7556 21.2067L30.3762 9.87685V32.5675L10.7556 43.9033V21.2067ZM57.5918 47.9817L51.3118 44.3506L70.9308 33.0216L90.568 44.359L80.895 49.9379L70.9308 55.6948L57.5918 47.9817ZM17.2958 47.9817L11.0165 44.3506L30.6212 33.0216L50.2728 44.359L40.5846 49.9379L30.6212 55.6948L17.2958 47.9817ZM71.4511 55.996L91.0868 44.6586L110.691 55.996L91.0701 67.3319L71.4511 55.996ZM31.1558 55.996L50.7749 44.6586L70.4287 55.996L50.7749 67.3319L31.1558 55.996ZM91.362 67.7958L110.983 56.4501V79.14L91.362 90.4675V67.7958ZM71.2061 79.14V56.4501L90.8274 67.7958V90.4675L71.2061 79.14ZM51.0509 67.7958L70.6881 56.4501V79.14L51.0509 90.4675V67.7958ZM30.8965 79.14V56.4501L50.5321 67.7958V90.4675L30.8965 79.14ZM10.7556 67.7958L30.3762 56.4501V79.14L10.7556 90.4675V67.7958ZM61.8756 97.022L51.2951 90.9231L70.9308 79.5789L90.5847 90.9231L70.9308 102.276L61.8756 97.022ZM21.5637 97.022L11.0165 90.9231L30.6212 79.5789L50.2728 90.9231L30.6212 102.276L21.5637 97.022ZM71.4511 102.585L91.0868 91.2243L93.8786 92.8476L110.691 102.585L91.0868 113.921L71.4511 102.585ZM31.1558 102.585L50.7749 91.2243L53.5833 92.8476L70.4287 102.585L50.7749 113.921L31.1558 102.585ZM91.362 114.36L110.983 103.031V125.705L91.362 137.04V114.36ZM71.2061 125.705V103.031L90.8274 114.36V137.04L71.2061 125.705ZM51.0509 114.36L70.6881 103.031V125.705L51.0509 137.04V114.36ZM30.8965 125.705V103.031L50.5321 114.36V137.04L30.8965 125.705ZM10.7556 114.36L30.3762 103.031V125.705L10.7556 137.04V114.36ZM51.2951 137.504L70.9308 126.175L90.5847 137.504L80.895 143.09L70.9308 148.84L51.2951 137.504ZM11.0165 137.504L30.6212 126.175L50.2728 137.504L40.5846 143.09L30.6212 148.84L11.0165 137.504ZM71.4511 149.149L81.1392 143.553L91.0701 137.803L108.371 147.776L110.691 149.149L91.0701 160.477L71.4511 149.149ZM31.1558 149.149L40.8432 143.553L50.7749 137.803L68.0755 147.776L70.4121 149.149L50.7749 160.477L31.1558 149.149ZM91.362 160.948L110.983 149.595V172.293L91.362 183.621V160.948ZM71.2061 172.293V149.595L90.8274 160.948V183.621L71.2061 172.293ZM51.0509 160.948L70.6881 149.595V172.293L51.0509 183.621V160.948ZM30.8965 172.293V149.595L50.5321 160.948V183.621L30.8965 172.293ZM10.7556 160.948L30.3762 149.595V172.293L10.7556 183.621V160.948ZM57.5918 187.689L51.3118 184.076L70.9308 172.739L90.568 184.076L80.895 189.68L70.9308 195.412L57.5918 187.689ZM17.2958 187.689L11.0165 184.076L30.6212 172.739L50.2728 184.076L40.5846 189.68L30.6212 195.412L17.2958 187.689ZM71.4511 195.713L81.1392 190.125L91.0868 184.376L110.691 195.713L91.0868 207.058L71.4511 195.713ZM31.1558 195.713L40.8432 190.125L50.7749 184.376L70.4287 195.713L50.7749 207.058L31.1558 195.713ZM91.362 207.512L110.983 196.176V218.857L91.362 230.193V207.512ZM71.2061 218.857V196.176L90.8274 207.512V230.193L71.2061 218.857ZM51.0509 207.512L70.6881 196.176V218.857L51.0509 230.193V207.512ZM30.8965 218.857V196.176L50.5321 207.512V230.193L30.8965 218.857ZM10.7556 207.512L30.3762 196.176V218.857L10.7556 230.193V207.512ZM51.2951 230.656L70.9308 219.32L90.5847 230.656L80.895 236.244L70.9308 241.993L51.2951 230.656ZM11.0165 230.656L30.6212 219.32L50.2728 230.656L40.5846 236.244L30.6212 241.993L11.0165 230.656ZM71.4511 242.286L81.1392 236.698L91.0868 230.957L110.691 242.286L91.0868 253.631L71.4511 242.286ZM31.1558 242.286L40.8432 236.698L50.7749 230.957L70.4121 242.286L50.7749 253.631L31.1558 242.286ZM91.362 254.084L110.983 242.748V265.413L91.362 276.775V254.084ZM71.2061 265.413V242.748L90.8274 254.084V276.775L71.2061 265.413ZM51.0509 254.084L70.6881 242.748V265.413L51.0509 276.775V254.084ZM30.8965 265.413V242.748L50.5321 254.084V276.775L30.8965 265.413ZM10.7556 254.084L30.3762 242.748V265.413L10.7556 276.775V254.084ZM51.3118 277.205L70.9308 265.884L90.568 277.205L70.9308 288.55L51.3118 277.205ZM11.0165 277.205L30.6212 265.884L50.2728 277.205L30.6212 288.55L11.0165 277.205ZM71.4511 288.891L91.0868 277.529L110.691 288.891L91.0701 300.194L71.4511 288.891ZM31.1558 288.891L50.7749 277.529L70.4121 288.891L50.7749 300.194L31.1558 288.891ZM91.362 300.666L110.983 289.313V311.986L91.362 323.356V300.666ZM71.2061 311.986V289.313L90.8274 300.666V323.356L71.2061 311.986ZM51.0509 300.666L70.6881 289.313V311.986L51.0509 323.356V300.666ZM30.8965 311.986V289.313L50.5321 300.666V323.356L30.8965 311.986ZM10.7556 300.666L30.3762 289.313V311.986L10.7556 323.356V300.666ZM57.5918 327.432L51.3118 323.792L70.9308 312.44L90.568 323.792L80.895 329.381L70.9308 335.13L57.5918 327.432ZM17.2958 327.432L11.0165 323.792L30.6212 312.44L50.2728 323.792L40.5846 329.381L30.6212 335.13L17.2958 327.432ZM71.4511 335.438L81.1392 329.868L91.0868 324.102L110.691 335.438L91.0868 346.776L71.4511 335.438ZM31.1558 335.438L40.8432 329.868L50.7749 324.102L70.4287 335.438L50.7749 346.776L31.1558 335.438ZM91.362 347.229L110.983 335.877V358.599L91.362 369.92V347.229ZM71.2061 358.599V335.877L90.8274 347.229V369.92L71.2061 358.599ZM51.0509 347.229L70.6881 335.877V358.599L51.0509 369.92V347.229ZM30.8965 358.599V335.877L50.5321 347.229V369.92L30.8965 358.599ZM10.7556 347.229L30.3762 335.877V358.599L10.7556 369.92V347.229ZM51.2951 370.373L70.9308 359.005L90.5847 370.373L80.895 375.962L70.9308 381.695L51.2951 370.373ZM11.0165 370.373L30.6212 359.005L50.2728 370.373L40.5846 375.962L30.6212 381.695L11.0165 370.373ZM71.4511 382.019L91.0701 370.666L110.691 382.019L91.0868 393.356L71.4511 382.019ZM31.1558 382.019L50.7749 370.666L70.4287 382.019L50.7749 393.356L31.1558 382.019ZM91.362 393.81L110.983 382.475V405.146L91.362 416.484V393.81ZM71.2061 405.146V382.475L90.8274 393.81V416.484L71.2061 405.146ZM51.0509 393.81L70.6881 382.475V405.146L51.0509 416.484V393.81ZM30.8965 405.146V382.475L50.5321 393.81V416.484L30.8965 405.146ZM10.7556 393.81L30.3762 382.475V405.146L10.7556 416.484V393.81ZM57.5918 420.577L51.3118 416.938L70.9308 405.601L90.568 416.938L80.895 422.526L70.9308 428.29L57.5918 420.577ZM17.2958 420.577L11.0165 416.938L30.6212 405.601L50.2728 416.938L40.5846 422.526L30.6212 428.29L17.2958 420.577ZM71.4511 428.6L81.1392 423.013L91.0868 417.264L110.691 428.6L91.0701 439.936L71.4511 428.6ZM31.1558 428.6L40.8432 423.013L50.7749 417.264L70.4287 428.6L50.7749 439.936L31.1558 428.6ZM91.362 440.375L110.983 429.039V451.727L91.362 463.048V440.375ZM71.2061 451.727V429.039L90.8274 440.375V463.048L71.2061 451.727ZM51.0509 440.375L70.6881 429.039V451.727L51.0509 463.048V440.375ZM30.8965 451.727V429.039L50.5321 440.375V463.048L30.8965 451.727ZM10.7556 440.375L30.3762 429.039V451.727L10.7556 463.048V440.375ZM51.3118 463.502L70.9308 452.183L90.568 463.502L80.895 469.09L70.9308 474.854L51.3118 463.502ZM11.0165 463.502L30.6212 452.183L50.2728 463.502L40.5846 469.09L30.6212 474.854L11.0165 463.502ZM71.4511 475.147L91.0868 463.812L93.8786 465.42L110.691 475.147L91.0868 486.516L71.4511 475.147ZM31.1558 475.147L50.7749 463.812L53.5833 465.42L70.4287 475.147L50.7749 486.516L31.1558 475.147ZM91.362 486.971L110.983 475.617V498.291L91.362 509.644V486.971ZM71.2061 498.291V475.617L90.8274 486.971V509.644L71.2061 498.291ZM51.0509 486.971L70.6881 475.617V498.291L51.0509 509.644V486.971ZM30.8965 498.291V475.617L50.5321 486.971V509.644L30.8965 498.291ZM10.7556 486.971L30.3762 475.617V498.291L10.7556 509.644V486.971ZM51.2951 510.066L70.9308 498.761L90.5847 510.066L70.9308 521.42L51.2951 510.066ZM11.0165 510.066L30.6212 498.761L50.2728 510.066L30.6212 521.42L11.0165 510.066ZM71.4511 521.727L81.1392 516.142L91.0701 510.407L108.371 520.38L110.691 521.727L91.0868 533.064L71.4511 521.727ZM31.1558 521.727L40.8432 516.142L50.7749 510.407L68.0755 520.38L70.4121 521.727L50.7749 533.064L31.1558 521.727ZM91.362 533.536L110.983 522.183V544.856L91.362 556.225V533.536ZM71.2061 544.856V522.183L90.8274 533.536V556.225L71.2061 544.856ZM51.0509 533.536L70.6881 522.183V544.856L51.0509 556.225V533.536ZM30.8965 544.856V522.183L50.5321 533.536V556.225L30.8965 544.856ZM10.7556 533.536L30.3762 522.183V544.856L10.7556 556.225V533.536ZM57.5918 560.286L51.3118 556.68L70.9308 545.311L90.568 556.68L80.895 562.25L70.9308 568L57.5918 560.286ZM17.2958 560.286L11.0165 556.68L30.6212 545.311L50.2728 556.68L40.5846 562.25L30.6212 568L17.2958 560.286ZM71.4511 568.308L91.0868 556.972L110.691 568.308L91.0701 579.645L71.4511 568.308ZM31.1558 568.308L50.7749 556.972L70.4287 568.308L50.7749 579.645L31.1558 568.308ZM91.362 580.1L110.983 568.748V591.436L91.362 602.774V580.1ZM71.2061 591.436V568.748L90.8274 580.1V602.774L71.2061 591.436ZM51.0509 580.1L70.6881 568.748V591.436L51.0509 602.774V580.1ZM30.8965 591.436V568.748L50.5321 580.1V602.774L30.8965 591.436ZM10.7556 580.1L30.3762 568.748V591.436L10.7556 602.774V580.1Z" fill="#D9EAED"/>
<circle cx="131" cy="510" r="2.5" stroke="#CBE8ED"/>
<circle cx="91" cy="440" r="2.5" stroke="#CBE8ED"/>
<circle cx="151" cy="498.5" r="2.5" stroke="#CBE8ED"/>
<path d="M151 477.5V496.5" stroke="#CBE8ED"/>
<path d="M133 511.5L168.5 532" stroke="#CBE8ED"/>
<circle cx="111" cy="429" r="2.5" stroke="#CBE8ED"/>
<circle cx="151" cy="475.5" r="2.5" stroke="#CBE8ED"/>
<path d="M133 509L149 499.5" stroke="#CBE8ED"/>
<path d="M93 439L109 430" stroke="#CBE8ED"/>
<circle cx="372" cy="487" r="2.5" stroke="#CBE8ED"/>
<circle cx="372" cy="510" r="2.5" stroke="#CBE8ED"/>
<path d="M372 489.5V507.5" stroke="#CBE8ED"/>
<path d="M374 486L390 477" stroke="#CBE8ED"/>
<path d="M374 509L390 500" stroke="#CBE8ED"/>
<circle cx="231.5" cy="475" r="2.5" stroke="#CBE8ED"/>
<circle cx="211.5" cy="463.5" r="2.5" stroke="#CBE8ED"/>
<circle cx="251.5" cy="463.5" r="2.5" stroke="#CBE8ED"/>
<path d="M213.5 465L229.5 474" stroke="#CBE8ED"/>
<path d="M233.5 476.5L249.5 486" stroke="#CBE8ED"/>
<path d="M233.5 499.5L249.5 509" stroke="#CBE8ED"/>
<path d="M231.5 477.5V496" stroke="#CBE8ED"/>
<path d="M251.5 489.5V508" stroke="#CBE8ED"/>
<circle cx="251.5" cy="510" r="2.5" stroke="#CBE8ED"/>
<circle cx="251.5" cy="486.5" r="2.5" stroke="#CBE8ED"/>
<circle cx="231.5" cy="498.5" r="2.5" stroke="#CBE8ED"/>
<circle cx="271.5" cy="475" r="2.5" stroke="#CBE8ED"/>
<path d="M233.5 473.5L249.5 464.5" stroke="#CBE8ED"/>
<path d="M213.5 531.5L249 511.5" stroke="#CBE8ED"/>
<path d="M253.5 464.5L269.5 474" stroke="#CBE8ED"/>
<circle cx="30.5" cy="475" r="2.5" stroke="#CBE8ED"/>
<path d="M30.5 477.5V496" stroke="#CBE8ED"/>
<circle cx="51" cy="510" r="2.5" stroke="#CBE8ED"/>
<circle cx="30.5" cy="498.5" r="2.5" stroke="#CBE8ED"/>
<path d="M32.5 499.5L48.5 509" stroke="#CBE8ED"/>
<circle cx="31" cy="382" r="2.5" stroke="#CBE8ED"/>
<circle cx="50.5" cy="416.5" r="2.5" stroke="#CBE8ED"/>
<circle cx="71" cy="242.5" r="2.5" stroke="#CBE8ED"/>
<circle cx="50.5" cy="253.5" r="2.5" stroke="#CBE8ED"/>
<path d="M71 245V263.5" stroke="#CBE8ED"/>
<path d="M-8 220L48 252.5" stroke="#CBE8ED"/>
<path d="M53 252.5L69 243.5" stroke="#CBE8ED"/>
<path d="M-7 360.5L29 381" stroke="#CBE8ED"/>
<path d="M0 271.5L8 276" stroke="#CBE8ED"/>
<circle cx="10.5" cy="277" r="2.5" stroke="#CBE8ED"/>
<circle cx="71" cy="405.5" r="2.5" stroke="#CBE8ED"/>
<circle cx="71" cy="265.5" r="2.5" stroke="#CBE8ED"/>
<path d="M0 283.5L8 278.5" stroke="#CBE8ED"/>
<path d="M53 416L68.5 406.5" stroke="#CBE8ED"/>
<circle cx="111" cy="335" r="2.5" stroke="#CBE8ED"/>
<circle cx="91" cy="324" r="2.5" stroke="#CBE8ED"/>
<path d="M93 325.5L108.5 334" stroke="#CBE8ED"/>
<circle cx="151" cy="335" r="2.5" stroke="#CBE8ED"/>
<circle cx="312" cy="428.5" r="2.5" stroke="#CBE8ED"/>
<circle cx="312" cy="382" r="2.5" stroke="#CBE8ED"/>
<circle cx="372" cy="347" r="2.5" stroke="#CBE8ED"/>
<circle cx="251.5" cy="254" r="2.5" stroke="#CBE8ED"/>
<circle cx="231.5" cy="242.5" r="2.5" stroke="#CBE8ED"/>
<path d="M234 244L249.5 253" stroke="#CBE8ED"/>
<path d="M273.5 288L309.5 267" stroke="#CBE8ED"/>
<circle cx="191" cy="382" r="2.5" stroke="#CBE8ED"/>
<circle cx="211.5" cy="393.5" r="2.5" stroke="#CBE8ED"/>
<circle cx="211.5" cy="370.5" r="2.5" stroke="#CBE8ED"/>
<circle cx="231.5" cy="382" r="2.5" stroke="#CBE8ED"/>
<circle cx="171" cy="370" r="2.5" stroke="#CBE8ED"/>
<circle cx="151" cy="359" r="2.5" stroke="#CBE8ED"/>
<circle cx="191" cy="335.5" r="2.5" stroke="#CBE8ED"/>
<circle cx="111" cy="312" r="2.5" stroke="#CBE8ED"/>
<circle cx="231.5" cy="312" r="2.5" stroke="#CBE8ED"/>
<circle cx="231.5" cy="289" r="2.5" stroke="#CBE8ED"/>
<circle cx="271.5" cy="289" r="2.5" stroke="#CBE8ED"/>
<circle cx="312" cy="265.5" r="2.5" stroke="#CBE8ED"/>
<circle cx="312" cy="335" r="2.5" stroke="#CBE8ED"/>
<circle cx="372" cy="393.5" r="2.5" stroke="#CBE8ED"/>
<circle cx="131" cy="277" r="2.5" stroke="#CBE8ED"/>
<circle cx="292" cy="323.5" r="2.5" stroke="#CBE8ED"/>
<circle cx="352" cy="382" r="2.5" stroke="#CBE8ED"/>
<circle cx="111" cy="265.5" r="2.5" stroke="#CBE8ED"/>
<path d="M294 325L309.5 334" stroke="#CBE8ED"/>
<path d="M354 383L370 392.5" stroke="#CBE8ED"/>
<path d="M113 267L128.5 276" stroke="#CBE8ED"/>
<path d="M312 384.5V403" stroke="#CBE8ED"/>
<path d="M372.5 349.5V367.5" stroke="#CBE8ED"/>
<path d="M251.5 257V275.5" stroke="#CBE8ED"/>
<path d="M191 384V403.5" stroke="#CBE8ED"/>
<path d="M211.5 396.5V414.5" stroke="#CBE8ED"/>
<circle cx="332" cy="440" r="2.5" stroke="#CBE8ED"/>
<circle cx="171" cy="323.5" r="2.5" stroke="#CBE8ED"/>
<circle cx="332" cy="417" r="2.5" stroke="#CBE8ED"/>
<circle cx="332" cy="393.5" r="2.5" stroke="#CBE8ED"/>
<path d="M372 396V415" stroke="#CBE8ED"/>
<path d="M354 381L370 371.5" stroke="#CBE8ED"/>
<circle cx="312" cy="405.5" r="2.5" stroke="#CBE8ED"/>
<circle cx="372" cy="370" r="2.5" stroke="#CBE8ED"/>
<circle cx="251.5" cy="278" r="2.5" stroke="#CBE8ED"/>
<circle cx="191" cy="405.5" r="2.5" stroke="#CBE8ED"/>
<circle cx="211.5" cy="417" r="2.5" stroke="#CBE8ED"/>
<path d="M213.5 392.5L229 383.5" stroke="#CBE8ED"/>
<path d="M193.5 334.5L229.5 313.5" stroke="#CBE8ED"/>
<path d="M231.5 291V309" stroke="#CBE8ED"/>
<circle cx="372" cy="417" r="2.5" stroke="#CBE8ED"/>
<path d="M153.5 334L169 325" stroke="#CBE8ED"/>
<path d="M314 427.5L330 418.5" stroke="#CBE8ED"/>
<path d="M113 313.5L148.5 334" stroke="#CBE8ED"/>
<path d="M173 325L188.5 334" stroke="#CBE8ED"/>
<path d="M151 337.5V356.5" stroke="#CBE8ED"/>
<path d="M153 360L168.5 369" stroke="#CBE8ED"/>
<path d="M173 371.5L189 381" stroke="#CBE8ED"/>
<path d="M193 406.5L209.5 416" stroke="#CBE8ED"/>
<path d="M213.5 371.5L229.5 381" stroke="#CBE8ED"/>
<path d="M334.5 439L370 418.5" stroke="#CBE8ED"/>
<path d="M314.5 383.5L330 392.5" stroke="#CBE8ED"/>
<path d="M314 430L330 439.5" stroke="#CBE8ED"/>
<path d="M332 414.5V396" stroke="#CBE8ED"/>
<circle cx="71" cy="103" r="2.5" stroke="#CBE8ED"/>
<path d="M10.5 116V135" stroke="#CBE8ED"/>
<circle cx="10.5" cy="137" r="2.5" stroke="#CBE8ED"/>
<circle cx="10.5" cy="114" r="2.5" stroke="#CBE8ED"/>
<path d="M0.5 131.5L8.5 136" stroke="#CBE8ED"/>
<path d="M0 108L8.5 113" stroke="#CBE8ED"/>
<path d="M33 80L69 101.5" stroke="#CBE8ED"/>
<circle cx="30.5" cy="79.5" r="2.5" stroke="#CBE8ED"/>
<path d="M0 97L28.5 80" stroke="#CBE8ED"/>
<circle cx="51" cy="161" r="2.5" stroke="#CBE8ED"/>
<circle cx="71" cy="195.5" r="2.5" stroke="#CBE8ED"/>
<path d="M51 163.5V181.5" stroke="#CBE8ED"/>
<circle cx="91" cy="160.5" r="2.5" stroke="#CBE8ED"/>
<path d="M53.5 185.5L68.5 194.5" stroke="#CBE8ED"/>
<circle cx="51" cy="184" r="2.5" stroke="#CBE8ED"/>
<path d="M93 159.5L109 150.5" stroke="#CBE8ED"/>
<circle cx="372" cy="184" r="2.5" stroke="#CBE8ED"/>
<circle cx="372" cy="160.5" r="2.5" stroke="#CBE8ED"/>
<path d="M372 162.5V181.5" stroke="#CBE8ED"/>
<circle cx="251.5" cy="114" r="2.5" stroke="#CBE8ED"/>
<circle cx="251.5" cy="137" r="2.5" stroke="#CBE8ED"/>
<circle cx="292" cy="184" r="2.5" stroke="#CBE8ED"/>
<circle cx="312" cy="196" r="2.5" stroke="#CBE8ED"/>
<circle cx="332" cy="230.5" r="2.5" stroke="#CBE8ED"/>
<circle cx="312" cy="149" r="2.5" stroke="#CBE8ED"/>
<circle cx="292" cy="114" r="2.5" stroke="#CBE8ED"/>
<path d="M312 198V216.5" stroke="#CBE8ED"/>
<path d="M312 151V169.5" stroke="#CBE8ED"/>
<path d="M251.5 116.5V134.5" stroke="#CBE8ED"/>
<circle cx="271.5" cy="102.5" r="2.5" stroke="#CBE8ED"/>
<circle cx="271.5" cy="126" r="2.5" stroke="#CBE8ED"/>
<circle cx="312" cy="172" r="2.5" stroke="#CBE8ED"/>
<circle cx="312" cy="219" r="2.5" stroke="#CBE8ED"/>
<path d="M254 113L269 104" stroke="#CBE8ED"/>
<path d="M254 136L269.5 127" stroke="#CBE8ED"/>
<path d="M294.5 182.5L309.5 173.5" stroke="#CBE8ED"/>
<circle cx="151" cy="126" r="2.5" stroke="#CBE8ED"/>
<circle cx="171" cy="137.5" r="2.5" stroke="#CBE8ED"/>
<circle cx="131" cy="160.5" r="2.5" stroke="#CBE8ED"/>
<circle cx="111" cy="149.5" r="2.5" stroke="#CBE8ED"/>
<circle cx="111" cy="172.5" r="2.5" stroke="#CBE8ED"/>
<circle cx="171" cy="207" r="2.5" stroke="#CBE8ED"/>
<circle cx="171" cy="230.5" r="2.5" stroke="#CBE8ED"/>
<path d="M153 127L168.5 136" stroke="#CBE8ED"/>
<path d="M169 138.5L133 159.5" stroke="#CBE8ED"/>
<path d="M113 150.5L128.5 159.5" stroke="#CBE8ED"/>
<path d="M111 152V170" stroke="#CBE8ED"/>
<path d="M113.5 174L169 206" stroke="#CBE8ED"/>
<path d="M171 209V228.5" stroke="#CBE8ED"/>
<path d="M274 103.5L289.5 113" stroke="#CBE8ED"/>
<path d="M274 127L309.5 148" stroke="#CBE8ED"/>
<path d="M294 185.5L309.5 194.5" stroke="#CBE8ED"/>
<path d="M314 220L329.5 229.5" stroke="#CBE8ED"/>
<circle cx="71" cy="33" r="2.5" stroke="#CBE8ED"/>
<circle cx="71" cy="9.5" r="2.5" stroke="#CBE8ED"/>
<path d="M71 11.5V30.4998" stroke="#CBE8ED"/>
<path d="M312 12V31" stroke="#CBE8ED"/>
<circle cx="131" cy="91" r="2.5" stroke="#CBE8ED"/>
<circle cx="131" cy="67.5" r="2.5" stroke="#CBE8ED"/>
<path d="M131 69.5V88.4998" stroke="#CBE8ED"/>
<circle cx="151" cy="33" r="2.5" stroke="#CBE8ED"/>
<circle cx="151" cy="9.5" r="2.5" stroke="#CBE8ED"/>
<circle cx="191" cy="9.5" r="2.5" stroke="#CBE8ED"/>
<circle cx="171" cy="21" r="2.5" stroke="#CBE8ED"/>
<circle cx="251.5" cy="21" r="2.5" stroke="#CBE8ED"/>
<circle cx="292" cy="21" r="2.5" stroke="#CBE8ED"/>
<circle cx="292" cy="44" r="2.5" stroke="#CBE8ED"/>
<circle cx="211" cy="91" r="2.5" stroke="#CBE8ED"/>
<circle cx="332" cy="67.5" r="2.5" stroke="#CBE8ED"/>
<circle cx="272" cy="9.5" r="2.5" stroke="#CBE8ED"/>
<circle cx="312" cy="9.5" r="2.5" stroke="#CBE8ED"/>
<circle cx="312" cy="33" r="2.5" stroke="#CBE8ED"/>
<circle cx="231.5" cy="79" r="2.5" stroke="#CBE8ED"/>
<path d="M253.5 20L270 10.5" stroke="#CBE8ED"/>
<path d="M294 20L310 10.5" stroke="#CBE8ED"/>
<path d="M294 43L309.5 34" stroke="#CBE8ED"/>
<path d="M213 90L229 80.5" stroke="#CBE8ED"/>
<path d="M294 45.5L329.5 66" stroke="#CBE8ED"/>
<path d="M151 11.5V30" stroke="#CBE8ED"/>
<path d="M153 31L169 22" stroke="#CBE8ED"/>
<path d="M173 20L189 10.5" stroke="#CBE8ED"/>
<path d="M153 10.5L168.5 19.5" stroke="#CBE8ED"/>
</g>
<defs>
<clipPath id="clip0">
<rect width="375" height="530" fill="white"/>
</clipPath>
</defs>
</svg>
