<?xml version="1.0" encoding="utf-8"?>
<!-- Generator: Adobe Illustrator 21.1.0, SVG Export Plug-In . SVG Version: 6.00 Build 0)  -->
<svg version="1.1" id="Слой_1" xmlns="http://www.w3.org/2000/svg" xmlns:xlink="http://www.w3.org/1999/xlink" x="0px" y="0px"
	 viewBox="0 0 16 16" style="enable-background:new 0 0 16 16;" xml:space="preserve">
<style type="text/css">
	.st0{fill:#ffffff;}
</style>
<path class="st0" d="M15,15.8c-0.2,0-0.4-0.1-0.5-0.2L8,9.1l-6.5,6.5c-0.3,0.3-0.8,0.3-1.1,0s-0.3-0.8,0-1.1L6.9,8L0.5,1.5
	c-0.3-0.3-0.3-0.8,0-1.1s0.8-0.3,1.1,0L8,6.9l6.5-6.5c0.3-0.3,0.8-0.3,1.1,0s0.3,0.8,0,1.1L9.1,8l6.5,6.5c0.3,0.3,0.3,0.8,0,1.1
	C15.4,15.7,15.2,15.8,15,15.8z"/>
</svg>
