<?xml version="1.0" encoding="utf-8"?><svg width="24" height="24" xmlns="http://www.w3.org/2000/svg" viewBox="0 0 24 24"><path d="M22.5 13.5V12H18v7.5h1.5v-3h2.25V15H19.5v-1.5h3zM14.25 19.5h-3V12h3a2.252 2.252 0 012.25 2.25v3a2.252 2.252 0 01-2.25 2.25zm-1.5-1.5h1.5a.75.75 0 00.75-.75v-3a.75.75 0 00-.75-.75h-1.5V18zM8.25 12H4.5v7.5H6v-2.25h2.25a1.502 1.502 0 001.5-1.5V13.5a1.501 1.501 0 00-1.5-1.5zM6 15.75V13.5h2.25v2.25H6z"/><path d="M16.5 10.5v-3a.684.684 0 00-.225-.525l-5.25-5.25A.682.682 0 0010.5 1.5H3A1.505 1.505 0 001.5 3v18A1.5 1.5 0 003 22.5h12V21H3V3h6v4.5A1.505 1.505 0 0010.5 9H15v1.5h1.5zm-6-3V3.3l4.2 4.2h-4.2z"/></svg>