<?xml version="1.0" encoding="utf-8"?><svg width="24" height="24" xmlns="http://www.w3.org/2000/svg" viewBox="0 0 24 24"><path d="M18.25 20.125h-.106C5.863 19.419 4.119 9.056 3.875 5.894A1.875 1.875 0 015.6 3.875h3.444a1.25 1.25 0 011.162.787L11.156 7a1.25 1.25 0 01-.275 1.35l-1.33 1.344a5.856 5.856 0 004.737 4.75l1.356-1.344A1.25 1.25 0 0117 12.844l2.356.944a1.25 1.25 0 01.77 1.162v3.3a1.875 1.875 0 01-1.876 1.875zm-12.5-15a.625.625 0 00-.625.625v.05c.288 3.7 2.131 12.45 13.088 13.075a.625.625 0 00.662-.587V14.95l-2.356-.944-1.794 1.781-.3-.037C8.988 15.069 8.25 9.631 8.25 9.575l-.037-.3 1.775-1.794-.938-2.356h-3.3z"/></svg>