<?xml version="1.0" encoding="utf-8"?><svg viewBox="0 0 24 24" xmlns="http://www.w3.org/2000/svg" width="24" height="24"><g clip-path="url(#cgclip0)"><path fill-rule="evenodd" clip-rule="evenodd" d="M13.986 4.777a3.125 3.125 0 10-3.472 5.196 3.125 3.125 0 003.472-5.196zM9.82 3.737a4.375 4.375 0 114.862 7.275 4.375 4.375 0 01-4.862-7.275zM17.25 20.5h1.25v-3.125A4.375 4.375 0 0014.125 13h-3.75A4.375 4.375 0 006 17.375V20.5h1.25v-3.125a3.125 3.125 0 013.125-3.125h3.75a3.124 3.124 0 013.125 3.125V20.5z"/><path d="M14 18l3 3 6-6" stroke="#7AC30F" stroke-width="2" fill="none"/></g><defs><clipPath id="cgclip0"><rect fill="#fff"/></clipPath></defs></svg>