<?xml version="1.0" encoding="utf-8"?><svg width="40" height="40" xmlns="http://www.w3.org/2000/svg" viewBox="0 0 40 40"><path d="M14.066 33.46l-.555.832.556-.831zm-3.933-4.792l-.924.382.924-.382zm-.608-6.171l-.98-.195.98.195zm2.923-5.469l-.707-.707.707.707zm5.468-2.922l.196.98-.195-.98zm6.171.607l-.382.924.382-.924zm4.794 3.934l-.832.556.832-.556zM30.68 5l.928.37A1 1 0 0030.68 4v1zm-7.12 0V4a1 1 0 00-.93.629l.93.371zm2.74 10.965l-.59.807a1 1 0 001.52-.436l-.93-.37zm-12.602 0l-.929.371a1 1 0 001.52.436l-.591-.807zM16.44 5l.928-.371A1 1 0 0016.44 4v1zM9.32 5V4a1 1 0 00-.929 1.37L9.32 5zm7.145 20.288l.707-.707-.707.707zm0-1.415l-.707-.707.707.707zm4.242 4.243L20 27.41l.707.707zm-1.414 0l-.707.707.707-.707zm4.243-4.243l.707-.707-.707.707zm0 1.415l.707.707-.707-.707zm-2.829-4.243l-.707.707.707-.707zm-1.414 0l.707.707-.707-.707zM20 34.261a9.68 9.68 0 01-5.378-1.632l-1.111 1.663A11.68 11.68 0 0020 36.261v-2zm-5.378-1.632a9.68 9.68 0 01-3.565-4.344l-1.848.765a11.68 11.68 0 004.302 5.242l1.111-1.663zm-3.565-4.344a9.68 9.68 0 01-.551-5.593l-1.962-.39a11.68 11.68 0 00.665 6.748l1.848-.765zm-.551-5.593a9.68 9.68 0 012.65-4.956L11.74 16.32a11.681 11.681 0 00-3.197 5.98l1.962.391zm2.65-4.956a9.677 9.677 0 011.13-.97l-1.18-1.614c-.482.353-.939.743-1.365 1.17l1.414 1.414zm1.13-.97a9.679 9.679 0 013.826-1.68l-.39-1.961a11.68 11.68 0 00-4.616 2.027l1.18 1.614zm3.826-1.68A9.68 9.68 0 0120 14.9v-2c-.761 0-1.524.075-2.279.225l.39 1.961zM20 14.9a9.68 9.68 0 013.705.737l.765-1.848A11.68 11.68 0 0020 12.9v2zm3.705.737c.716.297 1.39.677 2.009 1.13l1.18-1.615a11.678 11.678 0 00-2.424-1.363l-.765 1.848zm2.009 1.13a9.679 9.679 0 012.335 2.436l1.663-1.112a11.682 11.682 0 00-2.818-2.94l-1.18 1.615zm2.335 2.436a9.68 9.68 0 011.631 5.378h2c0-2.31-.685-4.569-1.968-6.49l-1.663 1.111zm1.631 5.378a9.68 9.68 0 01-2.835 6.845l1.414 1.414a11.68 11.68 0 003.421-8.26h-2zm-2.835 6.845A9.68 9.68 0 0120 34.26v2a11.68 11.68 0 008.26-3.421l-1.415-1.414zM30.68 4h-7.12v2h7.12V4zm-8.048.629l-3.56 8.9 1.857.743 3.56-8.9-1.857-.743zM19.999 14.9a9.68 9.68 0 015.712 1.872l1.181-1.613a11.68 11.68 0 00-6.89-2.259l-.003 2zm7.231 1.436l.003-.006-1.858-.742-.002.006 1.857.742zm.003-.006l4.376-10.96-1.857-.74-4.377 10.958 1.858.742zm-12.943.442A9.68 9.68 0 0120 14.9l-.002-2a11.68 11.68 0 00-6.891 2.258l1.182 1.614zm6.639-3.243l-3.56-8.9-1.857.742 3.56 8.9 1.857-.742zM16.44 4H9.32v2h7.12V4zM8.391 5.37l4.377 10.96 1.857-.742L10.248 4.63l-1.857.742zm4.377 10.96l.002.006 1.857-.742-.002-.006-1.857.742zM20 21.752l2.828 2.829 1.415-1.415-2.829-2.828L20 21.752zm2.828 2.829L20 27.409l1.414 1.414 2.829-2.828-1.415-1.415zM20 27.409l-2.828-2.828-1.415 1.414 2.829 2.828L20 27.41zm-2.828-2.828L20 21.752l-1.414-1.414-2.828 2.828 1.414 1.415zm0 0l-1.415-1.415a2 2 0 000 2.829l1.415-1.415zM20 27.409l-1.414 1.414a2 2 0 002.828 0L20 27.41zm2.828-2.828l1.415 1.414a2 2 0 000-2.829l-1.415 1.415zm-1.414-4.243a2 2 0 00-2.828 0L20 21.752l1.414-1.414z"/></svg>