<?xml version="1.0" encoding="utf-8"?><svg width="16" height="16" xmlns="http://www.w3.org/2000/svg" viewBox="0 0 16 16"><path fill-rule="evenodd" clip-rule="evenodd" d="M8 1.167a5.5 5.5 0 00-5.5 5.5c0 2.132 1.383 4.177 2.863 5.74A19.787 19.787 0 008 14.721a19.785 19.785 0 002.637-2.316c1.48-1.562 2.863-3.607 2.863-5.74a5.5 5.5 0 00-5.5-5.5zm0 14.166l-.278.416H7.72l-.004-.004-.015-.01a6.197 6.197 0 01-.253-.177 20.78 20.78 0 01-2.812-2.464C3.117 11.49 1.5 9.201 1.5 6.667a6.5 6.5 0 1113 0c0 2.534-1.617 4.823-3.137 6.427a20.784 20.784 0 01-3.01 2.604 6.197 6.197 0 01-.055.037l-.015.01-.004.003v.001h-.001L8 15.333zm0 0l.277.416a.5.5 0 01-.554 0L8 15.333zM8 5.167a1.5 1.5 0 100 3 1.5 1.5 0 000-3zm-2.5 1.5a2.5 2.5 0 115 0 2.5 2.5 0 01-5 0z"/></svg>