<?xml version="1.0" encoding="utf-8"?><svg width="20" height="20" xmlns="http://www.w3.org/2000/svg" viewBox="0 0 20 20"><path d="M17.493 14.338a.726.726 0 01-.223.636L15.16 17.07a1.19 1.19 0 01-.374.27 1.541 1.541 0 01-.452.143l-.095.008a2.151 2.151 0 01-.207.008c-.201 0-.527-.034-.976-.103-.45-.07-1-.239-1.652-.509-.651-.27-1.39-.675-2.215-1.215-.826-.54-1.704-1.282-2.636-2.225a17.41 17.41 0 01-1.842-2.097 14.944 14.944 0 01-1.175-1.852 9.974 9.974 0 01-.667-1.54 8.184 8.184 0 01-.302-1.193 3.938 3.938 0 01-.063-.786c.01-.19.016-.297.016-.318.02-.148.068-.3.142-.453a1.19 1.19 0 01.27-.373l2.112-2.114a.7.7 0 01.508-.222c.138 0 .26.04.366.12.106.079.196.177.27.293L7.886 6.14c.095.17.122.355.08.556a.99.99 0 01-.27.508l-.779.779a.265.265 0 00-.055.103.392.392 0 00-.024.12c.042.222.137.476.286.762a7 7 0 00.587.93c.265.365.64.786 1.128 1.263.476.487.9.866 1.27 1.136.37.27.68.469.929.596s.44.204.572.23l.198.04a.38.38 0 00.103-.024.265.265 0 00.103-.056l.905-.921a.973.973 0 01.667-.254c.18 0 .323.031.43.095h.015l3.065 1.811c.222.138.355.313.397.525z"/></svg>