<?xml version="1.0" encoding="utf-8"?><svg width="40" height="40" xmlns="http://www.w3.org/2000/svg" viewBox="0 0 40 40"><path d="M13.753 30.765C12.437 32.94 11.845 35 9.5 35 7.015 35 5 32.928 5 30.372c0-2.557 2.015-4.63 4.5-4.63 2.333 0 4.25 1.825 4.477 4.163a1.41 1.41 0 01-.224.858v.002zm0 0L17 24.972m9.247 5.793C27.563 32.94 28.155 35 30.5 35c2.485 0 4.5-2.072 4.5-4.628 0-2.557-2.015-4.63-4.5-4.63-2.333 0-4.25 1.825-4.478 4.163-.029.303.066.6.225.858m0 .002v-.002m0 .002L11.822 5.577a1.099 1.099 0 00-1.834-.135c-2.84 3.65-2.556 8.916.659 12.221l15.6 13.1m-6.329-11.048L28.173 5.56a1.1 1.1 0 011.83-.127c2.845 3.656 2.562 8.93-.658 12.242L27.5 19.57" stroke="#000" stroke-width="2" stroke-linecap="round" stroke-linejoin="round"/></svg>