<?xml version="1.0" encoding="utf-8"?><svg width="24" height="24" xmlns="http://www.w3.org/2000/svg" viewBox="0 0 24 24"><path fill-rule="evenodd" clip-rule="evenodd" d="M10.225 4.605A.637.637 0 0010.1 5v1.5h3.8V5a.637.637 0 00-.125-.395c-.068-.085-.133-.105-.175-.105h-3.2c-.042 0-.107.02-.175.105zM9.1 5c0-.719.484-1.5 1.3-1.5h3.2c.816 0 1.3.781 1.3 1.5v1.5H18v1h-.7V17c0 .718-.484 1.5-1.3 1.5H8c-.816 0-1.3-.782-1.3-1.5V7.5H6v-1h3.1V5zM7.7 7.5V17c0 .17.056.308.125.395.068.085.133.105.175.105h8c.042 0 .107-.02.175-.105A.637.637 0 0016.3 17V7.5H7.7zm3.8 8v-5h1v5h-1zm-2.4 0v-3h1v3h-1zm4.8 0v-3h1v3h-1z"/></svg>