<svg width="0" height="0" style="position:absolute"><symbol viewBox="0 0 16 14" id="car-usage" xmlns="http://www.w3.org/2000/svg"><path d="M14.533 6.064h.5v-.139l-.071-.119-.429.258zm-13.066 0l-.429-.258-.071.119v.139h.5zM3.45 2.759L3.022 2.5l.429.258zm9.098 0l.429-.258-.429.258zm-8.282 7.974v-.5h-.5v.5h.5zm7.466 0h.5v-.5h-.5v.5zm2.3-4.67v5.604h1V6.064h-1zm-12.138.258L3.88 3.016l-.858-.515-1.984 3.305.857.515zM5.851 1.9h4.298v-1H5.85v1zm6.27 1.116l1.984 3.305.857-.515-1.984-3.305-.858.515zM3.332 12.1H2.4v1h.933v-1zm.434-1.367v.934h1v-.934h-1zM13.6 12.1h-.933v1h.933v-1zm-1.367-.433v-.934h-1v.934h1zm-.5-1.434H4.267v1h7.466v-1zm-9.766 1.434V6.064h-1v5.603h1zm10.7.433a.433.433 0 01-.434-.433h-1c0 .791.642 1.433 1.434 1.433v-1zm-9.334 1c.792 0 1.434-.642 1.434-1.433h-1c0 .239-.194.433-.434.433v1zm-.933-1a.433.433 0 01-.433-.433h-1c0 .791.641 1.433 1.433 1.433v-1zm7.748-10.2a2.3 2.3 0 011.972 1.116l.858-.515A3.3 3.3 0 0010.148.9v1zM3.88 3.016A2.3 2.3 0 015.85 1.9v-1a3.3 3.3 0 00-2.829 1.601l.858.515zm10.153 8.65c0 .24-.194.434-.433.434v1c.792 0 1.433-.642 1.433-1.433h-1zm-11.166-2.3h2.8v-1h-2.8v1zm10.266-1h-2.8v1h2.8v-1zM3.8 6.567h8.4v-1H3.8v1z"/></symbol><symbol viewBox="0 0 12 9" id="check-usage" xmlns="http://www.w3.org/2000/svg"><path fill-rule="evenodd" clip-rule="evenodd" d="M11.387 1.316l-6.03 7.388L.684 4.887l.632-.774 3.899 3.183L10.613.684l.774.632z"/></symbol><symbol viewBox="0 0 15 16" id="chevron-usage" xmlns="http://www.w3.org/2000/svg"><path fill-rule="evenodd" clip-rule="evenodd" d="M11.207 9.09L7.5 5.135 3.793 9.089l.73.684L7.5 6.598l2.977 3.175.73-.684z"/></symbol><symbol viewBox="0 0 24 24" id="close-usage" xmlns="http://www.w3.org/2000/svg"><path fill-rule="evenodd" clip-rule="evenodd" d="M11.293 13L5.646 7.354l.708-.708L12 12.293l5.646-5.647.708.708L12.707 13l5.647 5.646-.707.708L12 13.707l-5.646 5.647-.708-.707L11.293 13z"/></symbol><symbol viewBox="0 0 14 14" id="floorplan-usage" xmlns="http://www.w3.org/2000/svg"><path fill-rule="evenodd" clip-rule="evenodd" d="M.9.9h3.851l2.526 1.684-.554.832L4.449 1.9H1.9v10.2h3.8V7.5H4.2v-1h4v1H6.7v4.6h5.4V7.5h-1.5v-1h1.5V1.9H9v-1h4.1v12.2H.9V.9z"/></symbol><symbol viewBox="0 0 24 24" id="pdf-usage" xmlns="http://www.w3.org/2000/svg"><path d="M7 11v-.5h-.5v.5H7zm4 0v-.5h-.5v.5h.5zm0 4h-.5v.5h.5V15zm7-7h.5v-.207l-.146-.147L18 8zm-3-3l.354-.354-.147-.146H15V5zm-8 6.5h1v-1H7v1zm.5 4V13h-1v2.5h1zm0-2.5v-2h-1v2h1zm.5-.5H7v1h1v-1zm.5-.5a.5.5 0 01-.5.5v1A1.5 1.5 0 009.5 12h-1zm-.5-.5a.5.5 0 01.5.5h1A1.5 1.5 0 008 10.5v1zm2.5-.5v4h1v-4h-1zm.5 4.5h1v-1h-1v1zm2.5-1.5v-2h-1v2h1zM12 10.5h-1v1h1v-1zm1.5 1.5a1.5 1.5 0 00-1.5-1.5v1a.5.5 0 01.5.5h1zM12 15.5a1.5 1.5 0 001.5-1.5h-1a.5.5 0 01-.5.5v1zm2.5-5v5h1v-5h-1zm.5 1h2.5v-1H15v1zm0 2h1.5v-1H15v1zm-8.5-4V6h-1v3.5h1zm11-1.5v1.5h1V8h-1zM7 5.5h8v-1H7v1zm7.646-.146l3 3 .708-.708-3-3-.708.708zM6.5 6a.5.5 0 01.5-.5v-1A1.5 1.5 0 005.5 6h1zm-1 10.5V18h1v-1.5h-1zm1.5 3h10v-1H7v1zM18.5 18v-1.5h-1V18h1zM17 19.5a1.5 1.5 0 001.5-1.5h-1a.5.5 0 01-.5.5v1zM5.5 18A1.5 1.5 0 007 19.5v-1a.5.5 0 01-.5-.5h-1z"/></symbol><symbol viewBox="0 0 13 13" id="pin-usage" xmlns="http://www.w3.org/2000/svg"><path d="M6.5 0C3.98 0 1.93 2.05 1.93 4.57c0 .852.236 1.683.682 2.404L6.24 12.82a.38.38 0 00.323.18h.003a.38.38 0 00.324-.185l3.536-5.903a4.565 4.565 0 00.644-2.342C11.07 2.05 9.02 0 6.5 0zm3.272 6.52l-3.214 5.367-3.299-5.315a3.804 3.804 0 01-.573-2.002C2.686 2.47 4.4.757 6.5.757a3.82 3.82 0 013.811 3.813c0 .689-.188 1.363-.539 1.95z"/><path d="M6.5 2.285A2.288 2.288 0 004.215 4.57 2.282 2.282 0 006.5 6.855 2.28 2.28 0 008.785 4.57 2.288 2.288 0 006.5 2.285zm0 3.814A1.53 1.53 0 014.971 4.57c0-.84.689-1.528 1.529-1.528s1.526.688 1.526 1.528C8.026 5.4 7.358 6.1 6.5 6.1z"/></symbol><symbol viewBox="0 0 24 24" id="search-usage" xmlns="http://www.w3.org/2000/svg"><path fill-rule="evenodd" clip-rule="evenodd" d="M4.25 11a6.75 6.75 0 1112.024 4.213l3.256 3.257-1.06 1.06-3.257-3.256A6.75 6.75 0 014.25 11zM11 5.75a5.25 5.25 0 100 10.5 5.25 5.25 0 000-10.5z"/></symbol><symbol viewBox="0 0 24 24" id="send-usage" xmlns="http://www.w3.org/2000/svg"><path d="M18 6l.46.197a.5.5 0 00-.657-.657L18 6zM5 11.571l-.197-.46a.5.5 0 00-.06.89L5 11.57zM12.429 19l-.43.257a.5.5 0 00.89-.06l-.46-.197zm5.374-13.46l-13 5.572.394.919 13-5.571-.394-.92zM4.743 12l4.643 2.786.514-.858-4.643-2.785-.514.857zm4.471 2.614L12 19.257l.857-.514-2.785-4.643-.858.514zm3.674 4.583l5.572-13-.92-.394-5.571 13 .92.394zm4.758-13.55L9.29 14.003l.707.707 8.358-8.357-.708-.708z"/></symbol><symbol viewBox="0 0 24 24" id="trash-usage" xmlns="http://www.w3.org/2000/svg"><path fill-rule="evenodd" clip-rule="evenodd" d="M10.225 4.605A.637.637 0 0010.1 5v1.5h3.8V5a.637.637 0 00-.125-.395c-.068-.085-.133-.105-.175-.105h-3.2c-.042 0-.107.02-.175.105zM9.1 5c0-.719.484-1.5 1.3-1.5h3.2c.816 0 1.3.781 1.3 1.5v1.5H18v1h-.7V17c0 .718-.484 1.5-1.3 1.5H8c-.816 0-1.3-.782-1.3-1.5V7.5H6v-1h3.1V5zM7.7 7.5V17c0 .17.056.308.125.395.068.085.133.105.175.105h8c.042 0 .107-.02.175-.105A.637.637 0 0016.3 17V7.5H7.7zm3.8 8v-5h1v5h-1zm-2.4 0v-3h1v3h-1zm4.8 0v-3h1v3h-1z"/></symbol></svg>