<svg xmlns="http://www.w3.org/2000/svg" width="900" height="195" fill="none" viewBox="0 0 900 195"><path fill="#fff" fill-rule="evenodd" d="M101.197 44.2 7.214 118.28h100.308v31.698l93.983-74.08H101.197zM0 118.28V80.325L107.522 0v37.948h101.197v75.904l-107.522 80.325v-37.948H0z" clip-rule="evenodd"/><path fill="#fff" d="M560.466 37.49h20.027v101.122h59.163V37.489h20.027v101.123h11.066v17.434H560.402v-17.434h.064z"/><path fill="#fff" fill-rule="evenodd" d="M475.597 159.815c35.846 0 71.746-24.685 71.746-62.807s-35.9-62.807-71.746-62.807-71.746 24.685-71.746 62.807 35.9 62.807 71.746 62.807m52.362-62.807c0 23.47-23.966 43.442-52.362 43.442s-52.362-19.972-52.362-43.442 23.966-43.441 52.362-43.441 52.362 19.972 52.362 43.441" clip-rule="evenodd"/><path fill="#fff" d="M313.341 37.585v74.849c0 15.335-12.527 27.102-27.02 27.113v19.991c25.203.011 46.999-20.442 46.999-47.104V57.532h38.117v98.488h19.979V37.585zm456.135 118.488V66.604l-64.01 89.469H685.72V37.516h19.746v89.468l64.01-89.468h19.746v118.557z"/><path fill="#fff" fill-rule="evenodd" d="M843.448 37.632c-20.21 0-36.593 16.386-36.593 36.599 0 15.634 9.801 28.978 23.593 34.222l-26.977 47.614h21.305l25.63-45.237h29.647v45.236H900V37.632zm1.39 19.947c-9.174 0-16.611 7.455-16.611 16.652s7.437 16.652 16.611 16.652h35.215V57.579z" clip-rule="evenodd"/></svg>