<svg width="40" height="41" viewBox="0 0 40 41" fill="none" xmlns="http://www.w3.org/2000/svg"><path d="M25.17 12.892l-4.227-8.565a1.052 1.052 0 00-1.886 0l-4.228 8.565a1.05 1.05 0 01-.79.575L4.581 14.85A1.052 1.052 0 004 16.643l6.841 6.664c.248.241.361.59.303.93L9.53 33.65a1.052 1.052 0 001.525 1.108l8.456-4.446c.306-.162.672-.162.979 0l8.455 4.446a1.052 1.052 0 001.526-1.108l-1.615-9.412c-.058-.342.055-.69.303-.931L36 16.643a1.051 1.051 0 00-.582-1.793l-9.456-1.383a1.052 1.052 0 01-.791-.575z" stroke="#00ADEF" stroke-width="2" stroke-linecap="round" stroke-linejoin="round"/></svg>