<svg width="40" height="41" viewBox="0 0 40 41" fill="none" xmlns="http://www.w3.org/2000/svg"><path d="M13.753 31.015C12.437 33.19 11.845 35.25 9.5 35.25c-2.485 0-4.5-2.072-4.5-4.628 0-2.557 2.015-4.63 4.5-4.63 2.333 0 4.25 1.825 4.477 4.163a1.41 1.41 0 01-.224.858v.002zm0 0L17 25.222m9.247 5.793c1.316 2.175 1.908 4.235 4.253 4.235 2.485 0 4.5-2.072 4.5-4.628 0-2.557-2.015-4.63-4.5-4.63-2.333 0-4.25 1.825-4.478 4.163-.029.303.066.6.225.858m0 .002v-.002m0 .002L11.822 5.827a1.099 1.099 0 00-1.834-.135c-2.84 3.65-2.556 8.916.659 12.221l15.6 13.1m-6.329-11.048l8.255-14.157a1.1 1.1 0 011.83-.126c2.845 3.656 2.562 8.93-.658 12.241L27.5 19.82" stroke="#00ADEF" stroke-width="2" stroke-linecap="round" stroke-linejoin="round"/></svg>