<svg width="0" height="0" style="position:absolute"><symbol fill="none" viewBox="0 0 12 12" id="arrow-down-bold-usage" xmlns="http://www.w3.org/2000/svg"><path d="M9.5 4.5L6 8 2.5 4.5"/></symbol><symbol fill="none" viewBox="0 0 24 24" id="arrow-down-usage" xmlns="http://www.w3.org/2000/svg"><path d="M19 8.5l-7 7-7-7"/></symbol><symbol fill="none" viewBox="0 0 24 24" id="arrow-left-usage" xmlns="http://www.w3.org/2000/svg"><path d="M15.5 19l-7-7 7-7"/></symbol><symbol fill="none" viewBox="0 0 24 24" id="arrow-right-usage" xmlns="http://www.w3.org/2000/svg"><path d="M8.5 5l7 7-7 7"/></symbol><symbol fill="none" viewBox="0 0 24 24" id="arrow-up-usage" xmlns="http://www.w3.org/2000/svg"><path d="M5 15.5l7-7 7 7"/></symbol><symbol viewBox="0 0 33 32" id="bookmark-usage" xmlns="http://www.w3.org/2000/svg"><path d="M19.5 29l-7-5-7 5V13a2 2 0 012-2h10a2 2 0 012 2v16z"/><path d="M12.5 6a4 4 0 014-4h10a4 4 0 014 4v7a4 4 0 01-4 4h-10a4 4 0 01-4-4V6z"/><path d="M20.2 10.79h.966v1.364h-.967V14h-1.693v-1.846h-3.498l-.076-1.066 3.556-5.62H20.2v5.321zm-3.58 0h1.886V7.776l-.111.194-1.776 2.818zm10.47 0h.967v1.364h-.967V14h-1.694v-1.846h-3.498l-.076-1.066 3.557-5.62h1.71v5.321zm-3.58 0h1.886V7.776l-.11.194-1.776 2.818z" fill="#fff"/><path d="M16.5 3.6h10V.4h-10v3.2zM28.9 6v7h3.2V6h-3.2zm-2.4 9.4h-10v3.2h10v-3.2zM14.1 13V6h-3.2v7h3.2zm2.4 2.4a2.4 2.4 0 01-2.4-2.4h-3.2a5.6 5.6 0 005.6 5.6v-3.2zM28.9 13a2.4 2.4 0 01-2.4 2.4v3.2a5.6 5.6 0 005.6-5.6h-3.2zm-2.4-9.4A2.4 2.4 0 0128.9 6h3.2A5.6 5.6 0 0026.5.4v3.2zM16.5.4A5.6 5.6 0 0010.9 6h3.2a2.4 2.4 0 012.4-2.4V.4z"/></symbol><symbol viewBox="0 0 40 40" id="brend-usage" xmlns="http://www.w3.org/2000/svg"><path d="M14.066 33.46l-.555.832.556-.831zm-3.933-4.792l-.924.382.924-.382zm-.608-6.171l-.98-.195.98.195zm2.923-5.469l-.707-.707.707.707zm5.468-2.922l.196.98-.195-.98zm6.171.607l-.382.924.382-.924zm4.794 3.934l-.832.556.832-.556zM30.68 5l.928.37A1 1 0 0030.68 4v1zm-7.12 0V4a1 1 0 00-.93.629l.93.371zm2.74 10.965l-.59.807a1 1 0 001.52-.436l-.93-.37zm-12.602 0l-.929.371a1 1 0 001.52.436l-.591-.807zM16.44 5l.928-.371A1 1 0 0016.44 4v1zM9.32 5V4a1 1 0 00-.929 1.37L9.32 5zm7.145 20.288l.707-.707-.707.707zm0-1.415l-.707-.707.707.707zm4.242 4.243L20 27.41l.707.707zm-1.414 0l-.707.707.707-.707zm4.243-4.243l.707-.707-.707.707zm0 1.415l.707.707-.707-.707zm-2.829-4.243l-.707.707.707-.707zm-1.414 0l.707.707-.707-.707zM20 34.261a9.68 9.68 0 01-5.378-1.632l-1.111 1.663A11.68 11.68 0 0020 36.261v-2zm-5.378-1.632a9.68 9.68 0 01-3.565-4.344l-1.848.765a11.68 11.68 0 004.302 5.242l1.111-1.663zm-3.565-4.344a9.68 9.68 0 01-.551-5.593l-1.962-.39a11.68 11.68 0 00.665 6.748l1.848-.765zm-.551-5.593a9.68 9.68 0 012.65-4.956L11.74 16.32a11.681 11.681 0 00-3.197 5.98l1.962.391zm2.65-4.956a9.677 9.677 0 011.13-.97l-1.18-1.614c-.482.353-.939.743-1.365 1.17l1.414 1.414zm1.13-.97a9.679 9.679 0 013.826-1.68l-.39-1.961a11.68 11.68 0 00-4.616 2.027l1.18 1.614zm3.826-1.68A9.68 9.68 0 0120 14.9v-2c-.761 0-1.524.075-2.279.225l.39 1.961zM20 14.9a9.68 9.68 0 013.705.737l.765-1.848A11.68 11.68 0 0020 12.9v2zm3.705.737c.716.297 1.39.677 2.009 1.13l1.18-1.615a11.678 11.678 0 00-2.424-1.363l-.765 1.848zm2.009 1.13a9.679 9.679 0 012.335 2.436l1.663-1.112a11.682 11.682 0 00-2.818-2.94l-1.18 1.615zm2.335 2.436a9.68 9.68 0 011.631 5.378h2c0-2.31-.685-4.569-1.968-6.49l-1.663 1.111zm1.631 5.378a9.68 9.68 0 01-2.835 6.845l1.414 1.414a11.68 11.68 0 003.421-8.26h-2zm-2.835 6.845A9.68 9.68 0 0120 34.26v2a11.68 11.68 0 008.26-3.421l-1.415-1.414zM30.68 4h-7.12v2h7.12V4zm-8.048.629l-3.56 8.9 1.857.743 3.56-8.9-1.857-.743zM19.999 14.9a9.68 9.68 0 015.712 1.872l1.181-1.613a11.68 11.68 0 00-6.89-2.259l-.003 2zm7.231 1.436l.003-.006-1.858-.742-.002.006 1.857.742zm.003-.006l4.376-10.96-1.857-.74-4.377 10.958 1.858.742zm-12.943.442A9.68 9.68 0 0120 14.9l-.002-2a11.68 11.68 0 00-6.891 2.258l1.182 1.614zm6.639-3.243l-3.56-8.9-1.857.742 3.56 8.9 1.857-.742zM16.44 4H9.32v2h7.12V4zM8.391 5.37l4.377 10.96 1.857-.742L10.248 4.63l-1.857.742zm4.377 10.96l.002.006 1.857-.742-.002-.006-1.857.742zM20 21.752l2.828 2.829 1.415-1.415-2.829-2.828L20 21.752zm2.828 2.829L20 27.409l1.414 1.414 2.829-2.828-1.415-1.415zM20 27.409l-2.828-2.828-1.415 1.414 2.829 2.828L20 27.41zm-2.828-2.828L20 21.752l-1.414-1.414-2.828 2.828 1.414 1.415zm0 0l-1.415-1.415a2 2 0 000 2.829l1.415-1.415zM20 27.409l-1.414 1.414a2 2 0 002.828 0L20 27.41zm2.828-2.828l1.415 1.414a2 2 0 000-2.829l-1.415 1.415zm-1.414-4.243a2 2 0 00-2.828 0L20 21.752l1.414-1.414z"/></symbol><symbol fill="none" viewBox="0 0 24 24" id="burger-usage" xmlns="http://www.w3.org/2000/svg"><path d="M17 10H3M21 6H3M21 14H3M17 18H3" stroke="#00ADEF" stroke-width="1.6" stroke-linecap="round" stroke-linejoin="round"/></symbol><symbol viewBox="0 0 25 24" id="cart-usage" xmlns="http://www.w3.org/2000/svg"><g clip-path="url(#iclip0)"><path d="M9.5 22a1 1 0 100-2 1 1 0 000 2z"/><path d="M20.5 22a1 1 0 100-2 1 1 0 000 2z" stroke="#133050" stroke-width="2" stroke-linecap="round" stroke-linejoin="round"/><path d="M1.5 1h4l2.68 13.39a2 2 0 002 1.61h9.72a2 2 0 002-1.61L23.5 6h-17"/></g><defs><clipPath id="iclip0"><path transform="translate(.5)" d="M0 0h24v24H0z"/></clipPath></defs></symbol><symbol viewBox="0 0 24 24" id="cross-usage" xmlns="http://www.w3.org/2000/svg"><path fill-rule="evenodd" clip-rule="evenodd" d="M5.47 6.53a.75.75 0 011.06-1.06L12 10.94l5.47-5.47a.75.75 0 111.06 1.06L13.06 12l5.47 5.47a.75.75 0 11-1.06 1.06L12 13.06l-5.47 5.47a.75.75 0 01-1.06-1.06L10.94 12 5.47 6.53z"/></symbol><symbol fill="none" viewBox="0 0 16 16" id="eye-off-usage" xmlns="http://www.w3.org/2000/svg"><path d="M6.6 2.827a6.08 6.08 0 011.4-.16C12.666 2.667 15.333 8 15.333 8c-.405.757-.887 1.47-1.44 2.127m-4.48-.714a2 2 0 11-2.827-2.826M2 2l12 12m-2.04-2.04A6.713 6.713 0 018 13.333C3.333 13.333.667 8 .667 8A12.3 12.3 0 014.04 4.04l7.92 7.92z" stroke="#B8B8B8" stroke-linecap="round" stroke-linejoin="round"/></symbol><symbol fill="none" viewBox="0 0 16 16" id="eye-usage" xmlns="http://www.w3.org/2000/svg"><path d="M8 2.667C3.333 2.667.667 8 .667 8S3.333 13.333 8 13.333c4.666 0 7.333-5.333 7.333-5.333S12.666 2.667 8 2.667z" stroke="#B8B8B8" stroke-linecap="round" stroke-linejoin="round"/></symbol><symbol viewBox="0 0 14 16" id="favorite-usage" xmlns="http://www.w3.org/2000/svg"><path d="M7 11.333l5.833 4.167V2.167A1.667 1.667 0 0011.167.5H2.833a1.667 1.667 0 00-1.666 1.667V15.5L7 11.333z"/></symbol><symbol viewBox="0 0 40 40" id="logo-usage" xmlns="http://www.w3.org/2000/svg"><path d="M19.514 23.722a1 1 0 00-.251 1.984l.25-1.984zm2.733.482l-.46-.888.46.888zm2.062-2.046l-.884-.468.884.468zm.533-2.855l.993-.117-.993.117zm-1.184-2.651l-.75.661.75-.661zm-5.382-1.337l.354.935-.354-.935zm-2.287 1.789l.822.568-.822-.568zm-1.865 2.772a1 1 0 002 0h-2zM35.667 20c0 8.653-7.014 15.667-15.667 15.667v2c9.757 0 17.667-7.91 17.667-17.667h-2zM20 35.667c-8.652 0-15.666-7.014-15.666-15.667h-2c0 9.757 7.91 17.667 17.666 17.667v-2zM4.334 20c0-8.652 7.014-15.666 15.666-15.666v-2c-9.757 0-17.666 7.91-17.666 17.666h2zM20 4.334c8.653 0 15.667 7.014 15.667 15.666h2c0-9.757-7.91-17.666-17.667-17.666v2zm-.737 21.372a5.876 5.876 0 003.445-.615l-.922-1.775a3.876 3.876 0 01-2.272.406l-.251 1.984zm3.445-.615a5.876 5.876 0 002.485-2.465l-1.768-.936a3.877 3.877 0 01-1.639 1.626l.922 1.775zm2.485-2.465a5.877 5.877 0 00.642-3.44l-1.986.235a3.876 3.876 0 01-.424 2.27l1.768.935zm.642-3.44a5.875 5.875 0 00-1.427-3.195l-1.5 1.322c.52.59.849 1.326.941 2.108l1.986-.235zm-1.427-3.195a5.877 5.877 0 00-2.991-1.817l-.482 1.94c.764.19 1.452.608 1.973 1.2l1.5-1.323zm-2.991-1.817a5.876 5.876 0 00-3.494.205l.707 1.871a3.877 3.877 0 012.305-.136l.482-1.94zm-3.494.205a5.876 5.876 0 00-2.757 2.156l1.645 1.137a3.876 3.876 0 011.819-1.422l-.707-1.87zm-2.757 2.156a5.876 5.876 0 00-1.042 3.341h2c0-.787.24-1.556.687-2.204l-1.645-1.137z"/></symbol><symbol viewBox="0 0 24 24" id="mail-dashed-usage" xmlns="http://www.w3.org/2000/svg"><path fill-rule="evenodd" clip-rule="evenodd" d="M3.107 5.554C3.272 5.227 3.612 5 4 5h16c.388 0 .728.227.893.554L12 11.779 3.107 5.554zM1 5.983V18c0 1.652 1.348 3 3 3h16c1.652 0 3-1.348 3-3V6.012m-2 1.909V18c0 .548-.452 1-1 1H4c-.548 0-1-.452-1-1V7.92l8.427 5.9a1 1 0 001.146 0L21 7.92zm2-1.937A3.006 3.006 0 0020 3H4a3.006 3.006 0 00-3 2.983"/></symbol><symbol viewBox="0 0 20 20" id="mail-usage" xmlns="http://www.w3.org/2000/svg"><path d="M10 12.4l-1.98-1.82-5.659 5.095c.206.2.484.325.79.325h13.698c.305 0 .582-.125.786-.325L11.98 10.58 10 12.4z"/><path d="M17.639 4.325a1.122 1.122 0 00-.79-.325H3.151c-.305 0-.582.125-.788.328L10 11.2l7.639-6.875zM2 5.054v9.97l5.523-4.93L2 5.055zM12.477 10.095L18 15.023V5.05l-5.523 5.045z"/></symbol><symbol viewBox="0 0 16 16" id="map-pin-dashed-usage" xmlns="http://www.w3.org/2000/svg"><path fill-rule="evenodd" clip-rule="evenodd" d="M8 1.167a5.5 5.5 0 00-5.5 5.5c0 2.132 1.383 4.177 2.863 5.74A19.787 19.787 0 008 14.721a19.785 19.785 0 002.637-2.316c1.48-1.562 2.863-3.607 2.863-5.74a5.5 5.5 0 00-5.5-5.5zm0 14.166l-.278.416H7.72l-.004-.004-.015-.01a6.197 6.197 0 01-.253-.177 20.78 20.78 0 01-2.812-2.464C3.117 11.49 1.5 9.201 1.5 6.667a6.5 6.5 0 1113 0c0 2.534-1.617 4.823-3.137 6.427a20.784 20.784 0 01-3.01 2.604 6.197 6.197 0 01-.055.037l-.015.01-.004.003v.001h-.001L8 15.333zm0 0l.277.416a.5.5 0 01-.554 0L8 15.333zM8 5.167a1.5 1.5 0 100 3 1.5 1.5 0 000-3zm-2.5 1.5a2.5 2.5 0 115 0 2.5 2.5 0 01-5 0z"/></symbol><symbol viewBox="0 0 20 20" id="map-pin-usage" xmlns="http://www.w3.org/2000/svg"><path fill-rule="evenodd" clip-rule="evenodd" d="M10 17s6-3.818 6-8.273a5.598 5.598 0 00-1.757-4.05A6.148 6.148 0 0010 3a6.148 6.148 0 00-4.243 1.677A5.598 5.598 0 004 8.727C4 13.182 10 17 10 17zm2.5-8.5a2.5 2.5 0 11-5 0 2.5 2.5 0 015 0z"/></symbol><symbol fill="none" viewBox="0 0 25 24" id="menu-usage" xmlns="http://www.w3.org/2000/svg"><path d="M2.5 10.962h5M2.5 4h18M2.5 18h4M22.5 21l-2.9-2.9m1.567-3.767a5.333 5.333 0 11-10.667 0 5.333 5.333 0 0110.667 0z" stroke="#fff" stroke-width="1.5" stroke-linecap="round" stroke-linejoin="round"/></symbol><symbol viewBox="0 0 40 40" id="needls-usage" xmlns="http://www.w3.org/2000/svg"><path d="M8.334 35h23.333m-20-17.353l16.099 4.314M8.334 5h23.333m-20 5l16.099 4.314m-16.1 10.98l16.1 4.314m-16.1 2.059V8.333C11.667 6.493 12.91 5 14.445 5h11.112c1.534 0 2.777 1.492 2.777 3.333v23.334c0 1.84-1.243 3.333-2.777 3.333H14.444c-1.534 0-2.777-1.492-2.777-3.333z" stroke="#000" stroke-width="2" stroke-linecap="round" stroke-linejoin="round"/></symbol><symbol fill="none" viewBox="0 0 16 16" id="phone-dashed-usage" xmlns="http://www.w3.org/2000/svg"><path fill-rule="evenodd" clip-rule="evenodd" d="M9.536.611a.5.5 0 01.552-.441 6.5 6.5 0 015.742 5.734.5.5 0 01-.994.112 5.5 5.5 0 00-4.858-4.853.5.5 0 01-.442-.552zm-4.24 1.424a.833.833 0 00-.551-.202H2.74a.833.833 0 00-.83.905 12.693 12.693 0 001.97 5.557l.002.003a12.5 12.5 0 003.846 3.847l.004.002a12.694 12.694 0 005.53 1.969.834.834 0 00.835-.497c.114-.26.145-.609.134-1.04-.005-.193-.018-.387-.032-.587l-.004-.059a10.01 10.01 0 01-.029-.653v-.012a.833.833 0 00-.714-.846c-.36-.048-.756-.179-1.1-.292-.101-.034-.199-.066-.29-.094-.445-.138-.784-.202-1.058-.143a.834.834 0 00-.412.221v.001l-.845.845a.5.5 0 01-.601.081 11.166 11.166 0 01-4.188-4.187.5.5 0 01.082-.601l.845-.846a.833.833 0 00.187-.878v-.001a9.06 9.06 0 01-.494-1.98.833.833 0 00-.282-.513zM4.738.833a1.833 1.833 0 011.83 1.577v.004a8.06 8.06 0 00.44 1.764l-.468.175.468-.176a1.833 1.833 0 01-.413 1.934l-.002.002-.572.572a10.167 10.167 0 003.293 3.293l.572-.572.002-.002c.25-.246.564-.416.907-.49.551-.117 1.112.027 1.564.167.136.042.262.084.382.123.32.105.585.193.844.227h.005a1.833 1.833 0 011.576 1.854c0 .173.012.365.027.582l.004.06c.013.197.028.411.033.625.013.462-.011.996-.217 1.468a1.834 1.834 0 01-1.845 1.091h-.009a13.694 13.694 0 01-5.97-2.124 13.5 13.5 0 01-4.15-4.15A13.693 13.693 0 01.916 2.839v-.007A1.833 1.833 0 012.738.833h1.999zm4.804 2.404a.5.5 0 01.587-.395 3.833 3.833 0 013.028 3.029.5.5 0 01-.981.191 2.834 2.834 0 00-2.239-2.238.5.5 0 01-.395-.587z" fill="#00ADEF"/></symbol><symbol viewBox="0 0 20 20" id="phone-usage" xmlns="http://www.w3.org/2000/svg"><path d="M17.493 14.338a.726.726 0 01-.223.636L15.16 17.07a1.19 1.19 0 01-.374.27 1.541 1.541 0 01-.452.143l-.095.008a2.151 2.151 0 01-.207.008c-.201 0-.527-.034-.976-.103-.45-.07-1-.239-1.652-.509-.651-.27-1.39-.675-2.215-1.215-.826-.54-1.704-1.282-2.636-2.225a17.41 17.41 0 01-1.842-2.097 14.944 14.944 0 01-1.175-1.852 9.974 9.974 0 01-.667-1.54 8.184 8.184 0 01-.302-1.193 3.938 3.938 0 01-.063-.786c.01-.19.016-.297.016-.318.02-.148.068-.3.142-.453a1.19 1.19 0 01.27-.373l2.112-2.114a.7.7 0 01.508-.222c.138 0 .26.04.366.12.106.079.196.177.27.293L7.886 6.14c.095.17.122.355.08.556a.99.99 0 01-.27.508l-.779.779a.265.265 0 00-.055.103.392.392 0 00-.024.12c.042.222.137.476.286.762a7 7 0 00.587.93c.265.365.64.786 1.128 1.263.476.487.9.866 1.27 1.136.37.27.68.469.929.596s.44.204.572.23l.198.04a.38.38 0 00.103-.024.265.265 0 00.103-.056l.905-.921a.973.973 0 01.667-.254c.18 0 .323.031.43.095h.015l3.065 1.811c.222.138.355.313.397.525z"/></symbol><symbol viewBox="0 0 25 24" id="search-usage" xmlns="http://www.w3.org/2000/svg"><path fill-rule="evenodd" clip-rule="evenodd" d="M11.5 4a7 7 0 104.856 12.041.998.998 0 01.185-.185A7 7 0 0011.5 4zm7.032 12.618a9 9 0 10-1.414 1.414l3.675 3.675a1 1 0 001.414-1.414l-3.675-3.675z"/></symbol><symbol viewBox="0 0 40 40" id="star-usage" xmlns="http://www.w3.org/2000/svg"><path d="M25.17 12.142l-4.227-8.565a1.052 1.052 0 00-1.886 0l-4.228 8.565c-.153.31-.449.525-.79.575L4.581 14.1A1.052 1.052 0 004 15.893l6.841 6.663c.248.242.361.59.303.931L9.53 32.9a1.052 1.052 0 001.525 1.108l8.456-4.447c.306-.16.672-.16.979 0l8.455 4.447A1.052 1.052 0 0030.47 32.9l-1.615-9.412c-.058-.342.055-.69.303-.932L36 15.893a1.051 1.051 0 00-.582-1.793l-9.456-1.383a1.052 1.052 0 01-.791-.575z" stroke="#000" stroke-width="2" stroke-linecap="round" stroke-linejoin="round"/></symbol><symbol viewBox="0 0 40 40" id="tools-usage" xmlns="http://www.w3.org/2000/svg"><path d="M13.753 30.765C12.437 32.94 11.845 35 9.5 35 7.015 35 5 32.928 5 30.372c0-2.557 2.015-4.63 4.5-4.63 2.333 0 4.25 1.825 4.477 4.163a1.41 1.41 0 01-.224.858v.002zm0 0L17 24.972m9.247 5.793C27.563 32.94 28.155 35 30.5 35c2.485 0 4.5-2.072 4.5-4.628 0-2.557-2.015-4.63-4.5-4.63-2.333 0-4.25 1.825-4.478 4.163-.029.303.066.6.225.858m0 .002v-.002m0 .002L11.822 5.577a1.099 1.099 0 00-1.834-.135c-2.84 3.65-2.556 8.916.659 12.221l15.6 13.1m-6.329-11.048L28.173 5.56a1.1 1.1 0 011.83-.127c2.845 3.656 2.562 8.93-.658 12.242L27.5 19.57" stroke="#000" stroke-width="2" stroke-linecap="round" stroke-linejoin="round"/></symbol><symbol viewBox="0 0 25 24" id="user-usage" xmlns="http://www.w3.org/2000/svg"><path d="M20.5 21v-2a4 4 0 00-4-4h-8a4 4 0 00-4 4v2M12.5 11a4 4 0 100-8 4 4 0 000 8z"/></symbol></svg>