<svg width="10" height="15" viewBox="0 0 10 15" fill="none" xmlns="http://www.w3.org/2000/svg">
<path d="M4.39774 9.99535C3.23709 9.88063 2.19059 9.60975 1.29462 8.94569C1.18344 8.86307 1.06867 8.78342 0.967214 8.69115C0.575051 8.33422 0.535537 7.92544 0.845849 7.50418C1.11132 7.14369 1.55695 7.04726 2.02014 7.25425C2.10983 7.29437 2.19529 7.34444 2.27714 7.39824C3.94693 8.48549 6.2408 8.51551 7.91686 7.44712C8.08292 7.32646 8.26042 7.2281 8.46614 7.17787C8.86615 7.08054 9.23918 7.21977 9.45384 7.55143C9.69908 7.9302 9.69594 8.2999 9.39379 8.59397C8.93028 9.0448 8.37284 9.37096 7.75347 9.59861C7.16782 9.81377 6.52634 9.92209 5.89144 9.99401C5.98725 10.0928 6.03241 10.1414 6.09231 10.1985C6.95441 11.0193 7.82027 11.8367 8.67955 12.6601C8.9723 12.9406 9.03345 13.2885 8.87226 13.6148C8.69601 13.9714 8.3015 14.206 7.91467 14.1809C7.66958 14.1649 7.47844 14.0493 7.30862 13.8872C6.65805 13.2668 5.99525 12.6578 5.35784 12.0257C5.17235 11.8419 5.08313 11.8767 4.91942 12.0363C4.26493 12.6748 3.59977 13.3035 2.9307 13.9286C2.63026 14.2093 2.27275 14.2598 1.92434 14.0995C1.55397 13.9294 1.3183 13.5711 1.33648 13.2111C1.34903 12.9675 1.47541 12.7815 1.65181 12.6146C2.50498 11.8073 3.35579 10.9979 4.20691 10.1893C4.2632 10.1355 4.31573 10.0784 4.39774 9.99535Z" fill="white"/>
<path d="M5.10468 7.18196C3.03404 7.17527 1.33613 5.54867 1.34821 3.58343C1.36013 1.5965 3.05913 -0.00469022 5.15015 0.000807572C7.24541 0.00615677 8.92716 1.63038 8.91666 3.63797C8.906 5.59919 7.19633 7.1888 5.10468 7.18196ZM6.98652 3.58819C6.98291 2.61241 6.16281 1.83558 5.1351 1.83469C4.09876 1.83365 3.27129 2.62459 3.27929 3.60929C3.28697 4.58136 4.11413 5.35268 5.14466 5.34912C6.17206 5.3457 6.98997 4.56382 6.98652 3.58819Z" fill="white"/>
</svg>
