<svg width="18" height="10" viewBox="0 0 18 10" fill="none" xmlns="http://www.w3.org/2000/svg">
<path fill-rule="evenodd" clip-rule="evenodd" d="M9.87506 9.82872C9.87506 9.82872 10.1929 9.79405 10.3557 9.6224C10.5048 9.46512 10.4996 9.16832 10.4996 9.16832C10.4996 9.16832 10.4798 7.78241 11.1353 7.57777C11.7814 7.37652 12.611 8.91803 13.4914 9.51078C14.1564 9.95894 14.6612 9.86085 14.6612 9.86085L17.0138 9.82872C17.0138 9.82872 18.2439 9.75431 17.6607 8.80472C17.6125 8.72692 17.3205 8.10204 15.912 6.81844C14.4364 5.47481 14.6345 5.69212 16.4108 3.36761C17.4927 1.9521 17.9252 1.08792 17.7899 0.718397C17.6616 0.364942 16.8656 0.458802 16.8656 0.458802L14.2176 0.474868C14.2176 0.474868 14.0212 0.448655 13.8756 0.534059C13.7334 0.617772 13.6413 0.813102 13.6413 0.813102C13.6413 0.813102 13.2226 1.90813 12.6635 2.83997C11.4842 4.8051 11.013 4.90911 10.8201 4.78735C10.3712 4.50239 10.4832 3.64412 10.4832 3.03445C10.4832 1.12935 10.7778 0.335347 9.91037 0.12987C9.62265 0.0613778 9.41074 0.0165619 8.67421 0.00895162C7.72922 -0.000349806 6.9298 0.0123339 6.47669 0.229649C6.17518 0.374244 5.94259 0.697257 6.08473 0.71586C6.2596 0.738691 6.65586 0.820712 6.86605 1.10145C7.13741 1.4642 7.12793 2.27765 7.12793 2.27765C7.12793 2.27765 7.28385 4.52014 6.76354 4.79834C6.40691 4.98944 5.91761 4.59963 4.8658 2.81629C4.3274 1.90306 3.9208 0.893432 3.9208 0.893432C3.9208 0.893432 3.84241 0.704867 3.70199 0.603397C3.53229 0.480787 3.2954 0.442736 3.2954 0.442736L0.779137 0.458802C0.779137 0.458802 0.400966 0.468949 0.262275 0.630456C0.139089 0.77336 0.252799 1.07016 0.252799 1.07016C0.252799 1.07016 2.22291 5.59488 4.45403 7.87542C6.49994 9.9657 8.82238 9.82872 8.82238 9.82872H9.87506Z" fill="white"/>
</svg>
