<svg width="344" height="101" viewBox="0 0 344 101" fill="none" xmlns="http://www.w3.org/2000/svg">
<path d="M93.6822 2.50028V98.5003H61.1702V17.2203H70.0022L23.5382 68.2923V58.4363H107.506V82.1163H0.242188V59.0763L52.0822 2.50028H93.6822Z" fill="#03161B"/>
<path d="M329.932 2.50028V98.5003H297.42V17.2203H306.252L259.788 68.2923V58.4363H343.756V82.1163H236.492V59.0763L288.332 2.50028H329.932Z" fill="#03161B"/>
<path fill-rule="evenodd" clip-rule="evenodd" d="M172.711 100.804C161.533 100.804 151.719 98.7136 143.271 94.5323C134.909 90.351 128.381 84.5056 123.687 76.9963C119.079 69.4016 116.775 60.5696 116.775 50.5003C116.775 40.431 119.079 31.6416 123.687 24.1323C128.381 16.5376 134.909 10.6496 143.271 6.46828C151.719 2.28695 161.533 0.196289 172.711 0.196289C183.89 0.196289 193.661 2.28695 202.023 6.46828C210.471 10.6496 216.999 16.5376 221.607 24.1323C226.301 31.6416 228.647 40.431 228.647 50.5003C228.647 60.5696 226.301 69.4016 221.607 76.9963C216.999 84.5056 210.471 90.351 202.023 94.5323C193.661 98.7136 183.89 100.804 172.711 100.804ZM189.735 68.0363C185.725 72.1323 180.093 74.1803 172.839 74.1803C165.501 74.1803 159.783 72.1323 155.687 68.0363C151.591 63.855 149.543 57.967 149.543 50.3723C149.543 42.863 151.591 37.0603 155.687 32.9643C159.783 28.8683 165.458 26.8203 172.711 26.8203C180.05 26.8203 185.725 28.8683 189.735 32.9643C193.831 37.0603 195.879 42.9056 195.879 50.5003C195.879 58.0096 193.831 63.855 189.735 68.0363Z" fill="#03161B"/>
<path d="M171.799 77.8968C157.85 77.8968 142.801 69.1473 142.801 49.9484C142.801 30.7495 157.85 22 171.799 22C179.549 22 186.698 24.5499 191.998 29.1996C197.748 34.2993 200.798 41.4989 200.798 49.9484C200.798 58.3979 197.748 65.5475 191.998 70.6472C186.698 75.2969 179.499 77.8968 171.799 77.8968Z" fill="url(#paint0_radial_1090_24944)"/>
<path d="M171.799 77.8968C157.85 77.8968 142.801 69.1473 142.801 49.9484C142.801 30.7495 157.85 22 171.799 22C179.549 22 186.698 24.5499 191.998 29.1996C197.748 34.2993 200.798 41.4989 200.798 49.9484C200.798 58.3979 197.748 65.5475 191.998 70.6472C186.698 75.2969 179.499 77.8968 171.799 77.8968Z" fill="url(#paint1_linear_1090_24944)"/>
<path d="M195.743 33.334C198.408 37.6337 199.798 42.7534 199.798 48.4481C199.798 56.8976 196.748 64.0472 190.999 69.1469C185.699 73.7967 178.499 76.3965 170.8 76.3965C161.77 76.3965 152.301 72.7217 146.711 64.9272C152.091 73.7567 162.21 77.8964 171.8 77.8964C179.499 77.8964 186.699 75.2966 191.999 70.6468C197.748 65.5471 200.798 58.3975 200.798 49.948C200.798 43.5784 199.063 37.9187 195.743 33.334Z" fill="#EB8F00"/>
<path d="M143.179 56.0458C142.269 57.1508 144.203 60.0856 144.548 61.5805C145.378 65.1903 144.548 66.0802 144.483 69.2901C144.428 72.8199 145.483 75.7897 148.173 77.6846C150.703 79.4795 153.753 80.3994 157.653 79.2495C161.553 78.0996 163.922 76.8296 164.122 74.9097C164.232 74.1148 163.812 73.3348 163.082 72.9949C163.472 72.8099 163.782 72.4949 163.957 72.0999C164.887 69.88 163.032 69.4101 163.032 69.4101C163.287 69.1051 163.502 68.7701 163.672 68.4101C164.227 67.3052 164.137 65.8053 162.538 65.3153C161.803 65.0903 161.603 65.2103 161.603 65.2103C162.363 64.4303 163.272 63.8054 164.277 63.3854C166.967 62.2305 170.157 61.5305 170.952 60.8556C172.107 59.8556 172.177 57.9307 170.137 57.3558C167.207 56.4958 161.818 58.4957 158.538 60.5806C155.258 62.6654 152.248 63.7904 151.248 63.4104C150.248 63.0304 149.628 62.4105 149.248 60.9105C148.543 58.1207 147.998 57.0408 146.803 55.9958C145.813 55.1459 143.879 55.1959 143.179 56.0458Z" fill="url(#paint2_radial_1090_24944)"/>
<path d="M172.092 58.6867C171.758 54.107 162.738 56.9368 158.133 59.9516C152.409 63.7014 151.569 63.0364 151.009 62.6865C150.334 62.2665 149.909 61.9165 149.579 60.6166C148.834 57.6768 148.629 56.5968 147.289 55.4269C146.169 54.3919 142.794 54.4169 142.569 56.0568C142.324 57.8217 143.324 58.1517 143.999 61.5465C144.834 64.9863 144.499 68.7861 144.499 68.7861C144.499 68.7861 146.059 65.1613 144.559 59.5116C144.254 57.9867 142.804 55.6519 145.254 55.9169C147.624 56.1718 147.779 58.2367 148.519 61.0916C148.929 62.7065 149.349 63.6564 150.979 64.1064C152.599 64.5514 156.343 62.4715 159.033 60.7616C162.328 58.6667 167.213 56.8368 169.778 57.5868C170.888 57.8267 171.628 59.2617 170.463 60.2766C168.613 62.0215 161.498 62.8065 157.213 67.4412C157.213 67.4412 157.733 67.6312 158.513 67.2462C159.298 66.8612 162.228 65.4113 162.228 65.4113C163.103 65.7813 163.523 67.2362 163.048 68.0112C162.278 69.2661 159.283 71.001 157.788 70.926C157.788 70.926 157.763 71.6909 159.263 71.486C159.738 71.421 161.703 70.991 163.078 69.926C164.103 70.666 163.813 71.9259 163.043 72.8359C162.278 73.7408 160.408 74.9108 158.483 75.1157C158.483 75.1157 158.293 75.8457 159.588 75.8307C160.883 75.8157 162.288 75.1557 163.323 74.3508C163.478 74.5958 163.623 75.1307 163.448 75.8657C163.178 77.0006 161.653 78.1506 158.708 78.7905C155.993 79.3805 152.934 79.7955 147.029 76.7307C147.029 76.7307 149.234 79.5955 154.988 80.1055C160.508 80.5954 166.953 78.1506 164.368 73.2459C164.368 73.2459 164.928 72.4159 164.998 71.276C165.048 70.496 164.803 69.4311 164.228 68.9461C164.768 67.3562 164.598 66.2563 164.253 65.6063C164.023 65.1763 163.443 64.7563 163.443 64.7563C163.443 64.7563 164.588 63.7214 167.963 62.8515C170.128 62.2865 172.297 61.4865 172.092 58.6867Z" fill="#EB8F00"/>
<path d="M149.318 59.5625C149.318 59.5625 151.733 63.4923 157.053 60.6424C157.053 60.6424 153.788 64.0672 151.248 63.4123C148.708 62.7573 149.318 59.5625 149.318 59.5625Z" fill="#EB8F00"/>
<path d="M164.498 66.2656C164.498 66.2656 165.728 63.6258 167.968 62.8408C167.968 62.8408 164.328 63.1508 162.943 64.6457L164.498 66.2656Z" fill="#EB8F00"/>
<path d="M178.434 54.1504C178.274 54.1204 178.124 54.0554 177.999 53.9505C175.744 52.1406 173.054 50.9606 170.199 50.5206C167.344 50.0257 164.414 50.2957 161.7 51.3006C161.55 51.3606 161.39 51.3806 161.23 51.3556C160.88 51.2956 160.595 51.0356 160.5 50.6906C160.405 50.3507 160.52 49.9907 160.79 49.7657C166.089 45.3659 173.949 46.0959 178.349 51.3956C178.709 51.8306 179.039 52.2905 179.339 52.7655C179.529 53.0605 179.529 53.4405 179.339 53.7355C179.144 54.0404 178.789 54.2004 178.434 54.1504Z" fill="#422B0D"/>
<path d="M180.385 34.0557C182.479 34.0557 184.384 35.8256 184.384 38.7654C184.384 41.7052 182.479 43.4701 180.385 43.4701C178.29 43.4701 176.385 41.7002 176.385 38.7654C176.385 35.8306 178.29 34.0557 180.385 34.0557Z" fill="#422B0D"/>
<path d="M163.07 29.5C160.975 29.5 159.07 31.2699 159.07 34.2047C159.07 37.1396 160.975 38.9145 163.07 38.9145C165.17 38.9145 167.07 37.1446 167.07 34.2047C167.07 31.2649 165.17 29.5 163.07 29.5Z" fill="#422B0D"/>
<path d="M159.865 23.8109C159.64 23.4409 159.61 22.9809 159.785 22.586C159.975 22.191 160.35 21.921 160.785 21.866C163.51 21.441 166.289 22.086 168.549 23.6609C169.394 24.2409 170.144 24.9408 170.779 25.7458C170.819 25.7958 170.854 25.8508 170.889 25.9108C171.229 26.4407 171.114 27.1407 170.624 27.5357C170.099 27.9706 169.329 27.9556 168.824 27.4957L169.034 27.1557L168.779 27.4557C166.589 25.6258 163.849 24.5808 161 24.4958C160.525 24.4958 160.085 24.2459 159.845 23.8359L159.865 23.8109Z" fill="#422B0D"/>
<path d="M186.497 32.7586C186.867 32.5536 187.117 32.1786 187.167 31.7586C187.197 31.3236 187.012 30.9037 186.667 30.6387C184.502 28.9138 181.752 28.0888 178.997 28.3488C177.977 28.4338 176.977 28.6738 176.027 29.0588L175.847 29.1438C175.292 29.4387 175.047 30.1037 175.277 30.6887C175.522 31.3236 176.187 31.6836 176.852 31.5386V31.1386L176.922 31.5286C179.722 31.0087 182.617 31.4436 185.142 32.7636C185.557 32.9985 186.062 32.9985 186.477 32.7636L186.497 32.7586Z" fill="#422B0D"/>
<path d="M162.978 31.076C162.463 30.716 161.688 30.831 161.188 31.5509C160.688 32.2759 160.853 33.0359 161.368 33.3958C161.883 33.7558 162.658 33.6408 163.158 32.9209C163.658 32.1959 163.493 31.436 162.978 31.076Z" fill="#896024"/>
<path d="M180.283 35.3475C179.768 34.9875 178.993 35.1025 178.493 35.8224C177.993 36.5474 178.158 37.3073 178.673 37.6673C179.188 38.0273 179.963 37.9123 180.463 37.1924C180.968 36.4674 180.803 35.7074 180.283 35.3475Z" fill="#896024"/>
<defs>
<radialGradient id="paint0_radial_1090_24944" cx="0" cy="0" r="1" gradientUnits="userSpaceOnUse" gradientTransform="translate(171.799 49.9484) scale(28.4783 28.4782)">
<stop offset="0.5" stop-color="#FDE030"/>
<stop offset="0.92" stop-color="#F7C02B"/>
<stop offset="1" stop-color="#F4A223"/>
</radialGradient>
<linearGradient id="paint1_linear_1090_24944" x1="171.799" y1="77.8968" x2="171.799" y2="22" gradientUnits="userSpaceOnUse">
<stop stop-color="#F4A223"/>
<stop offset="0.08" stop-color="#F7C02B"/>
<stop offset="0.54" stop-color="#FDE030" stop-opacity="0"/>
</linearGradient>
<radialGradient id="paint2_radial_1090_24944" cx="0" cy="0" r="1" gradientUnits="userSpaceOnUse" gradientTransform="translate(160.723 60.2527) scale(29.7144 27.9314)">
<stop offset="0.27" stop-color="#FFF176"/>
<stop offset="1" stop-color="#FFC400"/>
</radialGradient>
</defs>
</svg>
