<svg width="750" height="651" viewBox="0 0 750 651" fill="none" xmlns="http://www.w3.org/2000/svg">
<g opacity="0.16">
<path d="M357.331 285.257L357.331 285.26C356.784 289.312 357.509 292.106 358.925 294.071C360.348 296.044 362.521 297.255 365.013 298.029C367.507 298.803 370.272 299.126 372.827 299.358C373.254 299.397 373.678 299.434 374.094 299.469C376.129 299.645 377.989 299.805 379.31 300.165L379.31 300.165L379.317 300.167C383.888 301.485 388.295 300.589 392.772 299.678C392.901 299.652 393.031 299.625 393.16 299.599C397.731 298.671 402.386 297.794 407.103 299.623L407.103 299.623L407.111 299.626C411.001 301.217 415.459 300.357 419.254 297.477C419.997 296.734 420.845 295.872 421.356 294.684C422.039 292.97 421.877 291.011 421.233 289.278C420.587 287.541 419.488 286.114 418.403 285.44C417.281 284.84 416.06 284.617 414.743 284.432C414.574 284.408 414.403 284.385 414.231 284.362C413.076 284.205 411.851 284.04 410.664 283.616L410.661 283.615C408.64 282.876 406.829 281.34 405.145 279.526C403.821 278.101 402.544 276.468 401.291 274.865C400.949 274.427 400.608 273.992 400.269 273.564C398.674 271.55 397.105 269.688 395.464 268.375C393.828 267.065 392.174 266.343 390.398 266.513L390.398 266.513L390.386 266.514C387.983 266.685 385.825 268.456 383.573 270.591C383.261 270.886 382.947 271.189 382.631 271.493C381.832 272.264 381.021 273.045 380.204 273.751C379.06 274.739 377.861 275.616 376.581 276.158L376.58 276.158C374.704 276.948 372.795 276.989 370.938 276.895C370.461 276.871 369.991 276.838 369.525 276.806C368.145 276.71 366.805 276.618 365.45 276.753L365.438 276.754L365.425 276.755C361.951 276.929 358.046 279.717 357.331 285.257Z" stroke="#12BDA8" stroke-miterlimit="10"/>
<path d="M409.863 268.54L409.86 268.535C409.095 267.422 408.314 266.215 407.508 264.97C406.123 262.831 404.664 260.576 403.077 258.475C400.573 255.16 397.852 252.374 394.827 251.217C392.021 250.165 389.376 250.676 386.653 251.946C384.402 253.027 382.31 254.794 380.179 256.879C379.207 257.829 378.236 258.838 377.24 259.871C377.145 259.969 377.049 260.068 376.954 260.167C375.861 261.301 374.739 262.458 373.569 263.582C371.511 265.639 369.412 267.366 367.093 268.336C364.49 269.586 361.805 269.915 359.053 269.962C357.801 269.983 356.525 269.946 355.236 269.909C355.11 269.905 354.983 269.901 354.856 269.898C353.433 269.857 351.992 269.823 350.519 269.869L350.514 269.869C342.28 270.048 336.087 277.032 334.987 286.927C334.619 290.242 334.619 293.366 334.986 296.3C335.633 300.64 336.877 305.327 338.891 309.218C340.908 313.115 343.664 316.149 347.302 317.303C348.067 317.545 348.967 317.504 349.986 317.275C351.003 317.046 352.088 316.64 353.205 316.198C353.396 316.123 353.588 316.046 353.78 315.969C354.702 315.601 355.638 315.227 356.533 314.946C357.613 314.608 358.692 314.386 359.679 314.49L359.679 314.49L359.687 314.491C361.861 314.754 363.951 315.062 365.963 315.358C369.691 315.906 373.154 316.415 376.403 316.536L376.403 316.536L376.413 316.536C380.804 316.789 385.042 317.763 389.183 318.714C389.656 318.823 390.129 318.931 390.6 319.038C395.209 320.086 399.712 321.002 404.294 320.818C406.398 320.731 408.533 319.674 410.786 318.5C410.902 318.44 411.017 318.38 411.133 318.319C413.225 317.227 415.418 316.082 417.628 315.798C418.439 315.599 419.075 315.602 419.89 315.805L419.898 315.807L419.906 315.81C426.215 317.612 432.557 315.464 437.675 310.711L437.681 310.706L437.686 310.701C439.119 309.447 440.373 307.837 441.273 305.498L441.311 305.399L441.386 305.324C441.401 305.309 441.414 305.296 441.426 305.284L441.426 305.228L441.449 305.154C442.527 301.741 442.219 297.8 441.124 294.354C440.024 290.895 438.164 288.035 436.244 286.726L436.237 286.721L436.23 286.715C434.553 285.48 432.734 284.985 430.828 284.64C430.354 284.555 429.869 284.478 429.38 284.4C427.931 284.171 426.434 283.934 425.007 283.434C423.876 283.057 422.909 282.672 421.936 282.089C419.441 280.649 417.302 278.502 415.354 276.108C413.822 274.226 412.39 272.166 410.992 270.156C410.613 269.612 410.238 269.072 409.863 268.54Z" stroke="#12BDA8" stroke-miterlimit="10"/>
<path d="M395.064 234.662L395.056 234.66C390.609 233.415 386.67 234.998 382.99 237.39C380.066 239.309 377.402 241.969 374.731 244.918C373.775 245.974 372.815 247.07 371.843 248.181C370.118 250.152 368.355 252.166 366.507 254.074C363.862 256.907 361.026 258.987 358.187 260.501L358.187 260.501L358.176 260.507C354.733 262.229 351.16 262.747 347.471 262.864C345.628 262.923 343.747 262.881 341.837 262.838L341.728 262.835C339.85 262.792 337.943 262.749 335.994 262.794C322.564 263.157 314.309 274.214 312.832 288.406C312.46 293.426 312.279 298.401 313.014 302.993L313.014 302.993L313.015 302.999C313.943 309.316 315.472 316.901 318.171 323.36C320.877 329.836 324.709 335.061 330.174 336.855C331.216 337.174 332.535 336.948 334.084 336.34C335.624 335.736 337.298 334.795 339.012 333.803C339.194 333.698 339.375 333.593 339.558 333.487C341.083 332.603 342.628 331.707 344.084 331.038C345.702 330.295 347.297 329.79 348.697 329.945L348.703 329.946C351.686 330.311 354.58 330.778 357.396 331.231C358.892 331.472 360.366 331.709 361.819 331.926C366.023 332.553 370.086 333.014 374.138 332.922C380.773 332.733 387.103 335.15 393.304 337.612C393.542 337.706 393.779 337.801 394.016 337.895C400.008 340.277 405.886 342.614 411.964 342.79L411.966 342.79C413.18 342.832 414.467 342.372 415.832 341.568C417.194 340.765 418.586 339.649 420.004 338.441C420.429 338.079 420.857 337.707 421.287 337.334C422.277 336.475 423.275 335.609 424.26 334.833C425.672 333.72 427.104 332.751 428.525 332.211C429.504 331.82 430.538 331.602 431.598 331.814L431.616 331.818L431.635 331.823C440.718 334.366 449.479 330.75 456.285 324.128C458.293 322.12 460.106 319.761 461.378 316.126L461.495 315.791L461.552 315.791L461.558 315.772C463.104 310.771 462.701 304.917 461.184 299.792C459.663 294.652 457.054 290.353 454.299 288.397L454.299 288.398L454.288 288.39C451.773 286.503 449.117 285.776 446.348 285.245C445.767 285.134 445.179 285.031 444.584 284.927C442.37 284.54 440.079 284.14 437.831 283.24L437.831 283.24L437.82 283.236C436.499 282.67 434.975 281.909 433.631 280.95C427.325 276.518 422.568 269.023 418.3 262.298C417.837 261.57 417.38 260.85 416.928 260.144L416.926 260.141C416.001 258.674 415.042 257.049 414.037 255.347C412.074 252.022 409.936 248.401 407.54 245.085C403.92 240.071 399.818 235.918 395.064 234.662Z" stroke="#12BDA8" stroke-miterlimit="10"/>
<path d="M424.011 251.383L424.011 251.383C422.815 249.475 421.562 247.323 420.237 245.05C417.711 240.712 414.927 235.932 411.786 231.556C407.002 224.89 401.51 219.351 395.094 217.904C389.358 216.65 383.929 219.328 379.306 222.841C375.721 225.599 372.491 229.148 369.282 232.915C368.507 233.826 367.732 234.75 366.953 235.678C364.525 238.573 362.063 241.508 359.445 244.198C356.061 247.956 352.665 250.6 349.072 252.491L349.071 252.492C341.825 256.279 333.997 256.057 325.395 255.812C324.101 255.775 322.789 255.738 321.459 255.714L321.458 255.714C312.22 255.531 305.054 259.411 299.953 265.632C294.841 271.868 291.795 280.471 290.871 289.71L290.87 289.716C290.129 296.384 290.13 303.043 291.054 309.324C292.264 317.514 294.073 327.989 297.451 337.012C300.839 346.062 305.748 353.497 313.056 355.843L313.057 355.843C314.45 356.294 316.23 355.901 318.317 354.937C320.386 353.981 322.642 352.519 324.938 350.992C325.177 350.833 325.416 350.674 325.655 350.514C327.704 349.148 329.77 347.771 331.703 346.74C333.845 345.597 335.931 344.818 337.724 345.023L337.727 345.023C341.871 345.526 345.857 346.22 349.737 346.895C351.62 347.223 353.479 347.547 355.319 347.842C360.963 348.748 366.461 349.393 372.087 349.117C380.521 348.643 388.547 352.292 396.399 356.126C396.948 356.394 397.495 356.662 398.043 356.931C405.374 360.527 412.573 364.058 419.998 364.571C421.455 364.654 423.002 363.988 424.647 362.79C426.287 361.595 427.958 359.921 429.655 358.096C430.259 357.447 430.868 356.776 431.479 356.104C432.568 354.904 433.663 353.698 434.744 352.597C436.432 350.876 438.139 349.353 439.837 348.432L439.857 348.421L439.879 348.411L439.898 348.403C440.536 348.13 441.217 347.838 441.882 347.665C442.553 347.492 443.262 347.423 443.946 347.648C455.623 350.927 466.612 346.019 475.286 337.346C477.845 334.786 480.386 331.518 481.847 326.623C481.858 326.534 481.881 326.457 481.903 326.398C481.93 326.327 481.964 326.259 481.985 326.217L481.988 326.211C482.011 326.166 482.022 326.143 482.028 326.126L482.028 326.088L482.046 326.023C483.877 319.339 483.287 311.57 481.327 304.764C479.361 297.944 476.051 292.198 472.541 289.498L472.538 289.495C469.188 286.87 465.653 285.911 462 285.217C461.295 285.084 460.583 284.959 459.867 284.834C456.894 284.316 453.841 283.784 450.861 282.485L450.849 282.479L450.838 282.473L450.816 282.463C448.971 281.54 447.075 280.592 445.363 279.262C440.736 275.955 436.883 271.342 433.45 266.391C431.116 263.025 428.959 259.475 426.885 256.062C425.912 254.462 424.957 252.891 424.011 251.383Z" stroke="#12BDA8" stroke-miterlimit="10"/>
<path d="M395.285 201.34L395.283 201.339C387.881 199.895 381.148 203.676 375.591 208.307C371.347 211.905 367.556 216.341 363.763 220.994C363.086 221.826 362.408 222.664 361.728 223.506C358.61 227.363 355.44 231.285 351.987 234.892C347.864 239.389 343.91 242.595 339.564 244.862L339.563 244.862C330.438 249.6 320.499 249.278 309.172 248.911C308.305 248.883 307.431 248.855 306.548 248.829L306.547 248.829C294.799 248.461 285.821 253.363 279.487 261.211C273.142 269.074 269.442 279.911 268.331 291.386C267.588 299.746 267.406 308.077 268.699 316.024L268.7 316.027L268.704 316.055C270.288 326.208 272.377 339.601 276.405 351.202C280.449 362.844 286.384 372.495 295.54 375.397C297.293 375.938 299.543 375.339 302.165 373.992C304.765 372.656 307.604 370.654 310.483 368.579C310.747 368.388 311.013 368.197 311.278 368.005C313.882 366.125 316.501 364.234 318.941 362.82C321.608 361.276 324.178 360.228 326.356 360.481C331.611 361.065 336.675 361.989 341.641 362.895C343.817 363.292 345.974 363.686 348.121 364.046C355.183 365.231 362.164 366.061 369.457 365.507C379.683 364.656 389.352 369.533 398.832 374.761C399.644 375.209 400.455 375.659 401.265 376.109C409.964 380.942 418.541 385.707 427.451 386.548L427.453 386.548C429.159 386.714 430.981 385.854 432.928 384.251C434.865 382.656 436.84 380.398 438.839 377.933C439.591 377.006 440.348 376.048 441.106 375.088C442.351 373.514 443.598 371.935 444.828 370.488C446.811 368.155 448.807 366.092 450.783 364.838L450.796 364.831L450.808 364.823C452.482 363.894 453.944 363.234 455.641 363.658L455.641 363.658L455.654 363.662C470.126 367.692 483.538 361.483 493.889 350.762L493.895 350.756C497.009 347.642 500.109 343.632 501.944 337.438C501.955 337.2 502.019 337.019 502.07 336.889C502.085 336.853 502.095 336.828 502.103 336.809C502.113 336.785 502.12 336.77 502.127 336.748C502.127 336.748 502.128 336.747 502.128 336.747L502.128 336.706L502.145 336.641C504.443 328.186 503.758 318.459 501.378 309.979C498.994 301.482 494.938 294.341 490.592 290.992L490.589 290.989C486.404 287.714 481.986 286.568 477.445 285.71C476.716 285.573 475.983 285.443 475.246 285.312C471.415 284.632 467.497 283.936 463.686 282.111C461.241 280.982 458.972 279.66 456.886 277.954C451.333 273.717 446.644 267.895 442.467 261.688C439.495 257.272 436.767 252.636 434.17 248.223C433.119 246.436 432.089 244.686 431.073 243.002C429.682 240.725 428.209 238.125 426.642 235.357C423.557 229.907 420.103 223.807 416.173 218.244C410.246 209.853 403.363 202.883 395.285 201.34Z" stroke="#12BDA8" stroke-miterlimit="10"/>
<path d="M437.955 234.434L437.953 234.432C436.422 231.85 434.798 228.907 433.065 225.769C429.391 219.113 425.232 211.579 420.448 204.742C413.405 194.678 405.129 186.315 395.288 184.583C386.585 183.133 378.547 187.839 371.873 193.772C366.973 198.21 362.62 203.487 358.292 208.977C357.481 210.007 356.671 211.044 355.858 212.084C352.342 216.583 348.78 221.14 344.911 225.388C340.225 230.637 335.526 234.399 330.626 237.038L330.621 237.04C319.303 242.978 307.079 242.512 292.7 241.964L292.014 241.938L292.013 241.938C277.755 241.386 267.01 247.311 259.49 256.762C251.957 266.23 247.651 279.255 246.353 292.876C245.425 302.908 245.241 312.918 246.722 322.544L246.723 322.548C246.768 322.855 246.814 323.165 246.86 323.478C248.613 335.397 250.935 351.176 255.501 364.963C260.197 379.145 267.205 391.022 278.216 394.574C280.333 395.206 283.055 394.396 286.209 392.666C289.34 390.95 292.761 388.407 296.223 385.785C296.516 385.563 296.809 385.34 297.103 385.117C300.26 382.721 303.429 380.317 306.374 378.521C309.568 376.573 312.62 375.261 315.179 375.562L315.182 375.563C321.248 376.305 327.082 377.42 332.801 378.513C335.697 379.066 338.562 379.614 341.413 380.105C349.916 381.568 358.337 382.537 367.209 381.706L367.213 381.705C379.126 380.665 390.386 386.766 401.47 393.365C402.482 393.967 403.493 394.574 404.503 395.181C414.613 401.25 424.631 407.264 435.091 408.519L435.095 408.52C437.06 408.771 439.161 407.721 441.406 405.727C443.636 403.745 445.908 400.919 448.199 397.826C449.163 396.525 450.134 395.17 451.105 393.816C452.422 391.978 453.739 390.142 455.031 388.446C457.28 385.496 459.525 382.877 461.725 381.248C463.649 379.711 465.475 379.064 467.352 379.481L467.365 379.484L467.378 379.488C484.452 384.261 500.47 376.569 512.501 363.983C516.181 360.118 519.843 355.358 522.049 347.855C522.058 347.773 522.076 347.697 522.091 347.643C522.113 347.563 522.141 347.479 522.163 347.413C522.187 347.34 522.206 347.284 522.219 347.236C522.227 347.207 522.23 347.191 522.23 347.187L522.23 347.131L522.248 347.067C525.011 336.936 524.187 325.254 521.364 315.073C518.537 304.876 513.735 296.292 508.643 292.291C503.527 288.271 498.178 286.892 492.731 285.872C491.87 285.711 491.005 285.559 490.138 285.406C485.539 284.596 480.867 283.773 476.338 281.549C473.506 280.228 470.87 278.532 468.429 276.654L468.427 276.653C461.753 271.482 456.224 264.399 451.324 256.887C448.141 252.006 445.206 246.914 442.394 242.037C440.885 239.419 439.412 236.863 437.955 234.434Z" stroke="#12BDA8" stroke-miterlimit="10"/>
<path d="M526.895 293.406L526.898 293.409C532.826 298.06 538.374 308.086 541.644 319.983C544.909 331.863 545.873 345.502 542.737 357.311L542.72 357.374L542.72 357.439C542.72 357.536 542.699 357.607 542.652 357.747L542.649 357.758C542.607 357.884 542.547 358.062 542.536 358.292C539.957 367.091 535.739 372.596 531.497 377.207C517.603 391.841 499.353 400.83 479.68 395.316C477.563 394.683 475.335 395.764 473.266 397.457C470.789 399.458 468.254 402.626 465.71 406.188C464.241 408.246 462.749 410.464 461.256 412.685C460.167 414.304 459.078 415.923 457.996 417.482C455.414 421.204 452.855 424.613 450.351 427.019C447.83 429.442 445.476 430.741 443.294 430.491C436.722 429.617 430.279 427.006 423.87 423.598C418.736 420.869 413.649 417.643 408.546 414.407C407.273 413.6 405.999 412.792 404.722 411.991C391.988 403.997 379.045 396.675 365.35 398.092L365.349 398.092C354.898 399.202 344.99 398.047 335.045 396.304C331.857 395.746 328.66 395.125 325.439 394.5C318.635 393.18 311.726 391.84 304.573 391.017M526.895 293.406L224.576 294.366C224.576 294.364 224.576 294.363 224.576 294.362M526.895 293.406C521.035 288.736 514.85 287.125 508.517 285.919C507.528 285.731 506.534 285.552 505.537 285.373C500.17 284.408 494.703 283.426 489.378 280.804M526.895 293.406L489.595 280.354M304.573 391.017C304.573 391.017 304.573 391.017 304.573 391.017L304.515 391.513L304.574 391.017C304.574 391.017 304.574 391.017 304.573 391.017ZM304.573 391.017C303.091 390.841 301.47 391.158 299.771 391.801C298.069 392.444 296.257 393.427 294.382 394.617C290.993 396.769 287.342 399.637 283.695 402.501C283.309 402.804 282.924 403.107 282.538 403.409C278.495 406.578 274.492 409.649 270.833 411.711C267.146 413.788 263.954 414.753 261.473 413.941L261.47 413.939C255.042 411.888 249.805 407.332 245.496 401.171C241.187 395.008 237.825 387.263 235.144 378.886C230.144 363.256 227.544 345.519 225.553 331.936C225.41 330.956 225.269 329.998 225.132 329.064C223.464 317.76 223.647 305.886 224.576 294.362M224.576 294.362C226.06 278.6 230.972 263.388 239.693 252.291C248.4 241.212 260.913 234.218 277.684 234.863M224.576 294.362L277.684 234.863M277.684 234.863C294.598 235.606 308.707 236.183 321.695 229.218C327.34 226.208 332.785 221.886 338.033 215.888C342.445 210.935 346.473 205.563 350.46 200.245C351.284 199.146 352.106 198.05 352.93 196.96C357.746 190.585 362.611 184.425 368.162 179.243C375.776 172.186 385.117 166.189 395.488 167.826C406.999 169.654 416.67 179.408 424.854 191.149C430.467 199.202 435.323 208.098 439.572 215.883C441.514 219.442 443.33 222.769 445.034 225.677C446.406 228.043 447.795 230.505 449.215 233.019C452.698 239.185 456.361 245.672 460.385 251.882C466.053 260.629 472.465 268.873 480.161 274.973M277.684 234.863L480.472 274.582M480.161 274.973L480.472 274.582M480.161 274.973C480.16 274.973 480.16 274.973 480.159 274.972L480.472 274.582M480.161 274.973C482.978 277.227 486.174 279.296 489.378 280.804M480.472 274.582C483.264 276.816 486.43 278.864 489.595 280.354M489.378 280.804C489.377 280.804 489.375 280.803 489.374 280.802L489.595 280.354M489.378 280.804C489.379 280.805 489.381 280.806 489.382 280.806L489.595 280.354" stroke="#12BDA8" stroke-miterlimit="10"/>
<path d="M395.484 151.254L395.489 151.255C408.764 153.178 419.783 164.324 429.061 177.764C435.323 186.836 440.733 196.858 445.488 205.667C447.776 209.905 449.912 213.862 451.919 217.298C453.603 220.202 455.309 223.234 457.054 226.336C460.888 233.154 464.913 240.308 469.316 247.178C475.728 257.18 482.977 266.634 491.695 273.666C494.893 276.299 498.462 278.552 502.215 280.428C508.251 283.446 514.462 284.556 520.578 285.65C521.711 285.852 522.842 286.054 523.967 286.268C531.184 287.637 538.252 289.48 544.949 294.893L544.955 294.898C551.72 300.2 558.012 311.667 561.702 325.265C565.382 338.829 566.441 354.403 562.854 367.878C562.752 368.096 562.699 368.309 562.657 368.475L562.653 368.49C562.605 368.682 562.57 368.816 562.505 368.946L562.483 368.989L562.47 369.036C559.707 378.983 554.737 385.431 549.926 390.612C534.353 407.112 513.68 417.588 491.214 411.327L491.202 411.323C488.735 410.707 486.336 411.758 484.048 413.852C481.246 416.182 478.411 419.885 475.579 424.058C473.909 426.519 472.22 429.173 470.532 431.826C469.357 433.673 468.183 435.519 467.015 437.299C464.153 441.662 461.314 445.656 458.52 448.465C455.705 451.294 453.054 452.8 450.558 452.463C443.103 451.404 435.81 448.317 428.568 444.308C422.8 441.114 417.089 437.35 411.365 433.577C409.898 432.611 408.43 431.643 406.96 430.684C392.597 421.319 378.021 412.779 362.55 414.477L362.547 414.477C350.516 415.865 339.168 414.525 327.781 412.48C324.159 411.83 320.529 411.107 316.87 410.378C309.048 408.821 301.098 407.238 292.839 406.285M395.484 151.254L292.78 406.781M395.484 151.254C383.816 149.431 372.986 156.539 364.439 164.714C358.235 170.734 352.81 177.779 347.411 185.017C346.758 185.892 346.105 186.771 345.452 187.65C340.708 194.033 335.914 200.485 330.578 206.395M395.484 151.254L330.206 206.061M292.839 406.285C292.839 406.284 292.838 406.284 292.838 406.284L292.78 406.781M292.839 406.285C292.839 406.285 292.84 406.285 292.84 406.285L292.78 406.781M292.839 406.285C291.168 406.085 289.33 406.456 287.394 407.208C285.456 407.961 283.386 409.109 281.24 410.502C277.292 413.065 273.028 416.496 268.778 419.915C268.411 420.21 268.045 420.504 267.68 420.798C263.054 424.515 258.48 428.128 254.325 430.57C252.248 431.791 250.297 432.706 248.513 433.199C246.73 433.692 245.146 433.753 243.78 433.305L243.778 433.304C236.421 430.928 230.462 425.653 225.583 418.534C220.702 411.414 216.921 402.476 213.915 392.83C208.623 375.853 205.758 356.77 203.495 341.699C203.186 339.641 202.888 337.657 202.597 335.764L202.596 335.762C200.557 322.784 200.741 309.237 202.042 295.856L202.042 295.854C203.712 277.949 209.276 260.501 219.231 247.774C229.171 235.067 243.497 227.05 262.779 227.973L262.783 227.973C281.931 228.717 297.717 229.293 312.195 221.397M292.78 406.781C286.789 406.066 277.963 413.167 269.086 420.309C259.481 428.037 249.818 435.812 243.624 433.78C215.448 424.679 207.833 373.962 203 341.771C202.691 339.713 202.393 337.731 202.103 335.84C200.054 322.806 200.241 309.214 201.544 295.808C204.895 259.872 223.888 225.612 262.803 227.474C281.981 228.218 297.622 228.777 311.959 220.957M312.195 221.397C312.195 221.398 312.194 221.398 312.193 221.399L311.959 220.957M312.195 221.397C312.196 221.397 312.197 221.396 312.198 221.396L311.959 220.957M312.195 221.397C318.588 218.012 324.59 213.131 330.578 206.395M311.959 220.957C318.289 217.605 324.248 212.764 330.206 206.061M330.206 206.061L330.577 206.396C330.577 206.396 330.578 206.395 330.578 206.395M330.206 206.061L330.58 206.393C330.579 206.394 330.579 206.394 330.578 206.395" stroke="#12BDA8" stroke-miterlimit="10"/>
<path d="M360.722 150.372L360.725 150.369C370.195 140.899 382.331 132.857 395.679 134.684C410.628 136.794 423.043 149.335 433.461 164.451C440.635 174.86 446.803 186.395 452.178 196.447C454.605 200.986 456.871 205.223 458.994 208.917C460.872 212.203 462.776 215.644 464.728 219.169C468.953 226.803 473.4 234.837 478.276 242.566C485.41 253.873 493.497 264.585 503.24 272.548L503.244 272.551C506.983 275.543 510.738 278.172 514.877 280.242C521.693 283.69 528.72 284.951 535.653 286.195C536.851 286.41 538.046 286.624 539.237 286.85C547.34 288.382 555.292 290.412 562.828 296.385C570.341 302.434 577.378 315.3 581.533 330.549C585.679 345.765 586.924 363.249 582.963 378.492C582.862 378.711 582.809 378.923 582.767 379.088L582.764 379.103C582.716 379.295 582.68 379.429 582.615 379.559L582.594 379.602L582.581 379.648C579.445 390.899 573.917 398.093 568.544 404.022C551.298 422.565 528.208 434.344 502.952 427.342C500.257 426.516 497.646 427.999 495.038 430.235L495.034 430.239C491.952 432.941 488.825 437.205 485.696 442.005C483.871 444.805 482.026 447.818 480.182 450.829C478.869 452.974 477.557 455.118 476.252 457.183C473.099 462.174 469.974 466.739 466.908 469.937C463.817 473.161 460.917 474.86 458.202 474.436L458.201 474.435C449.909 473.146 441.79 469.548 433.726 464.913C427.407 461.28 421.148 457.027 414.877 452.765C413.142 451.586 411.405 450.406 409.666 449.238C393.676 438.5 377.466 428.789 360.311 430.863L360.31 430.863C346.698 432.53 333.861 431.05 321.032 428.749C316.819 427.994 312.601 427.148 308.355 426.297C299.696 424.561 290.924 422.803 281.855 421.739M360.722 150.372L281.796 422.236M360.722 150.372C353.864 157.138 347.879 164.976 341.944 173.028C341.109 174.162 340.274 175.301 339.438 176.441C334.344 183.387 329.202 190.399 323.509 196.894L360.722 150.372ZM281.855 421.739C281.855 421.739 281.854 421.739 281.854 421.739L281.796 422.236M281.855 421.739C281.855 421.739 281.855 421.739 281.856 421.739L281.796 422.236M281.855 421.739C279.995 421.516 277.943 421.941 275.776 422.802C273.605 423.664 271.284 424.977 268.873 426.573C264.422 429.518 259.609 433.464 254.807 437.401C254.411 437.725 254.015 438.05 253.619 438.374C248.412 442.637 243.256 446.791 238.57 449.615C236.229 451.026 234.025 452.092 232.009 452.675C229.993 453.258 228.198 453.349 226.648 452.854M281.796 422.236C275.078 421.43 265.129 429.586 255.119 437.791C244.321 446.643 233.453 455.553 226.495 453.33M226.648 452.854C226.648 452.854 226.648 452.854 226.648 452.854L226.495 453.33M226.648 452.854L226.495 453.33M226.648 452.854L226.495 453.33M180.627 342.468L180.132 342.543L180.627 342.468C180.627 342.468 180.627 342.468 180.627 342.468Z" stroke="#12BDA8" stroke-miterlimit="10"/>
<path d="M357.008 135.846L357.009 135.845C367.413 125.256 381.038 116.101 395.686 118.115L395.688 118.116C412.403 120.32 426.213 134.255 437.748 151.046C445.696 162.615 452.503 175.443 458.415 186.584C461.081 191.606 463.564 196.286 465.888 200.353L465.889 200.353C468.073 204.169 470.288 208.176 472.558 212.284C477.141 220.576 481.954 229.285 487.218 237.68C495.097 250.243 504.021 262.165 514.788 271.059L514.789 271.061C518.913 274.434 523.222 277.245 527.716 279.678L527.726 279.684C535.25 283.526 543.021 284.915 550.7 286.287C552.035 286.526 553.368 286.764 554.697 287.015C563.684 288.71 572.52 290.973 580.893 297.69C589.244 304.389 597.027 318.698 601.601 335.624C606.166 352.517 607.504 371.91 603.078 388.736C602.971 388.972 602.918 389.237 602.879 389.435L602.873 389.462C602.823 389.713 602.787 389.874 602.73 389.989L602.709 390.031L602.696 390.078C599.186 402.637 593.095 410.762 587.168 417.245C568.058 437.839 542.545 450.918 514.869 443.169C514.869 443.169 514.869 443.169 514.869 443.169L514.734 443.651C512.127 442.906 509.334 444.209 506.541 446.816L357.008 135.846ZM357.008 135.846C349.496 143.451 342.952 152.174 336.482 161.042C335.769 162.019 335.057 162.998 334.344 163.978C328.598 171.877 322.831 179.804 316.436 187.03M357.008 135.846L158.661 348.802C156.248 332.469 156.432 315.567 157.92 298.834C159.962 276.551 166.738 254.728 179.09 238.768C191.427 222.827 209.337 212.715 233.74 213.825C257.187 214.941 276.501 215.143 294.143 205.572C301.839 201.442 309.144 195.443 316.436 187.03M316.436 187.03C316.437 187.029 316.438 187.028 316.439 187.026L316.061 186.699L316.436 187.03C316.436 187.03 316.436 187.03 316.436 187.03ZM496.031 459.74C499.439 454.334 502.843 449.524 506.201 446.449L209.184 472.325C216.927 474.841 229.045 464.783 241.068 454.802C252.178 445.581 263.207 436.426 270.629 437.32L270.688 436.823C270.688 436.823 270.688 436.823 270.688 436.823C280.866 438.017 290.659 440.018 300.317 441.991C304.989 442.946 309.629 443.894 314.266 444.741C328.514 447.345 342.793 449.01 358.079 447.065L358.08 447.065C377.009 444.71 394.851 455.637 412.469 467.747C414.396 469.071 416.32 470.41 418.244 471.748C425.142 476.547 432.031 481.34 438.99 485.437C447.886 490.674 456.854 494.748 466.029 496.223C469.016 496.692 472.195 494.769 475.566 491.145C478.912 487.549 482.317 482.42 485.749 476.812C487.189 474.459 488.637 472.016 490.086 469.573C492.074 466.219 494.062 462.865 496.031 459.74Z" stroke="#12BDA8" stroke-miterlimit="10"/>
<path d="M353.283 121.318L353.286 121.315C364.615 109.428 379.547 99.3394 395.874 101.357C414.261 103.656 429.466 119.031 442.165 137.545C450.819 150.162 458.249 164.137 464.707 176.286C467.723 181.96 470.527 187.235 473.146 191.788C475.483 195.916 477.853 200.254 480.286 204.706C485.301 213.882 490.581 223.545 496.383 232.86C505.005 246.702 514.814 259.835 526.698 269.568M353.283 121.318L527.018 269.183M353.283 121.318C345.119 129.76 338.062 139.368 331.056 149.122C330.458 149.953 329.861 150.786 329.264 151.62C322.862 160.547 316.427 169.522 309.171 177.718L353.283 121.318ZM526.698 269.568C526.699 269.568 526.7 269.569 526.701 269.57L527.018 269.183M526.698 269.568C526.698 269.567 526.698 269.567 526.698 269.567L527.018 269.183M526.698 269.568C531.189 273.31 535.876 276.499 540.946 278.941M527.018 269.183C531.487 272.907 536.142 276.072 541.169 278.493M540.946 278.941C540.944 278.94 540.942 278.939 540.94 278.938L541.169 278.493M540.946 278.941C540.948 278.942 540.95 278.943 540.952 278.943L541.169 278.493M540.946 278.941L541.169 278.493M259.51 452.09C270.836 453.363 281.744 455.594 292.518 457.797C297.528 458.821 302.509 459.84 307.489 460.753C323.203 463.636 338.97 465.488 355.837 463.263C376.54 460.534 396.014 472.677 415.261 486.182C417.396 487.68 419.529 489.196 421.661 490.711C429.166 496.043 436.664 501.371 444.243 505.932C453.972 511.785 463.789 516.346 473.847 518.007L473.85 518.008L259.453 452.587M259.51 452.09C259.51 452.09 259.509 452.09 259.509 452.09L259.453 452.587M259.51 452.09C259.511 452.091 259.512 452.091 259.513 452.091L259.453 452.587M259.51 452.09C257.275 451.821 254.797 452.352 252.166 453.43C249.531 454.51 246.707 456.154 243.767 458.152C238.342 461.84 232.466 466.777 226.594 471.71C226.105 472.121 225.616 472.532 225.127 472.942C218.756 478.288 212.436 483.506 206.691 487.065C203.819 488.844 201.113 490.195 198.633 490.942C196.153 491.69 193.935 491.823 192.015 491.212M259.453 452.587C251.305 451.602 239.154 461.811 226.911 472.097C213.693 483.201 200.37 494.395 191.863 491.688M192.015 491.212C192.015 491.212 192.016 491.212 192.016 491.212L191.863 491.688M192.015 491.212C192.015 491.212 192.015 491.212 192.015 491.212L191.863 491.688M192.015 491.212L191.863 491.688M623.733 399.007C623.735 399.002 623.736 398.996 623.738 398.99L624.213 399.148L623.729 399.023C623.73 399.017 623.731 399.012 623.733 399.007ZM606.343 430.276L606.71 430.616L606.342 430.277C606.343 430.277 606.343 430.276 606.343 430.276ZM284.831 197.935C284.831 197.935 284.83 197.936 284.829 197.936L284.589 197.497L284.833 197.934C284.833 197.934 284.832 197.934 284.831 197.935ZM517.553 462.649L517.894 463.014L517.552 462.65C517.552 462.65 517.552 462.649 517.553 462.649Z" stroke="#12BDA8" stroke-miterlimit="10"/>
<path d="M349.564 106.791L349.563 106.792C340.746 116.073 333.131 126.566 325.589 137.226C324.818 138.317 324.047 139.41 323.275 140.503C316.515 150.085 309.721 159.713 302.1 168.591L302.098 168.593C293.502 178.497 284.892 185.614 275.891 190.49C254.899 201.923 232.419 201.721 204.502 200.418L204.5 200.418C175.072 198.937 153.579 211.142 138.822 230.341C124.049 249.56 116.016 275.805 113.601 302.372L113.601 302.373C111.741 322.269 111.557 342.522 114.528 362.394C115.119 366.293 115.72 370.475 116.353 374.875C119.518 396.876 123.465 424.32 130.69 448.956C135.023 463.735 140.528 477.472 147.731 488.4C154.933 499.325 163.811 507.411 174.885 510.949C176.99 511.607 179.42 511.445 182.131 510.612C184.844 509.778 187.802 508.283 190.939 506.321C197.213 502.395 204.116 496.653 211.069 490.772C211.625 490.301 212.182 489.829 212.739 489.358C219.125 483.949 225.509 478.542 231.401 474.487C234.605 472.283 237.681 470.466 240.547 469.264C243.41 468.064 246.101 467.462 248.523 467.731L248.527 467.732C260.63 469.167 272.291 471.586 283.811 473.975C289.5 475.156 295.155 476.329 300.81 477.372C317.944 480.534 335.153 482.525 353.602 480.022L353.603 480.022C375.984 477.013 397.089 490.322 417.965 505.177C420.339 506.866 422.71 508.576 425.081 510.285C433.162 516.111 441.238 521.934 449.397 526.934C459.947 533.399 470.59 538.459 481.485 540.352C485.018 540.955 488.761 538.585 492.714 534.136C496.637 529.719 500.625 523.416 504.639 516.527C506.339 513.611 508.046 510.583 509.754 507.556C512.063 503.462 514.372 499.369 516.66 495.552C520.643 488.907 524.616 483.004 528.531 479.229C531.909 475.852 535.444 473.999 538.887 475.009C572.146 484.246 602.499 468.376 624.96 443.873C631.996 436.097 639.195 426.497 643.451 411.366C643.466 410.751 643.665 410.154 643.837 409.639L643.843 409.62C649.117 389.434 647.5 366.119 642.048 345.817C636.589 325.492 627.316 308.298 617.383 300.296L617.383 300.295C607.334 292.182 596.775 289.454 586.043 287.41C584.457 287.108 582.867 286.821 581.273 286.533C572.1 284.877 562.822 283.202 553.79 278.567C548.162 275.752 543.105 272.192 538.249 268.269L538.243 268.264C525.335 257.508 514.688 243.118 505.321 227.995C499.142 218.02 493.504 207.698 488.141 197.879C485.378 192.821 482.688 187.896 480.035 183.221C477.297 178.409 474.362 172.855 471.206 166.882C464.132 153.494 455.946 138.003 446.379 124.047C432.539 103.857 415.937 87.0851 395.875 84.6003L395.874 84.6002C378.25 82.3972 361.83 93.7822 349.564 106.791ZM349.201 106.448C361.49 93.4139 378.061 81.8697 395.936 84.104L349.201 106.448Z" stroke="#12BDA8" stroke-miterlimit="10"/>
<path d="M345.835 92.2678L345.835 92.2681C336.365 102.388 328.19 113.72 320.066 125.196C319.45 126.066 318.834 126.937 318.218 127.809C310.717 138.42 303.179 149.084 294.643 158.913L294.642 158.915C285.3 169.564 276.133 177.051 266.393 182.482L266.391 182.484C243.909 194.849 219.754 194.834 189.598 193.345L189.595 193.345C157.655 191.586 134.395 204.814 118.45 225.641C102.49 246.489 93.8517 274.969 91.2503 303.678L91.2501 303.679C89.2042 325.441 88.8344 347.367 92.1774 368.911L91.6833 368.988L92.1774 368.911C92.9068 373.617 93.6472 378.712 94.4293 384.095C97.8449 407.6 102.058 436.595 109.643 462.715C114.302 478.762 120.226 493.693 128 505.577C135.772 517.46 145.372 526.266 157.377 530.13C159.643 530.856 162.267 530.684 165.198 529.777C168.129 528.87 171.332 527.24 174.728 525.101C181.524 520.82 189.014 514.555 196.561 508.138C197.156 507.632 197.751 507.125 198.346 506.618C205.288 500.709 212.229 494.799 218.63 490.37C222.106 487.964 225.44 485.983 228.543 484.673C231.642 483.364 234.55 482.709 237.159 483.002L237.16 483.002C250.409 484.516 263.184 487.165 275.818 489.784C281.847 491.034 287.844 492.277 293.845 493.387C312.444 496.828 331.142 499.005 351.173 496.223C363.26 494.53 374.984 497.321 386.489 502.556C397.989 507.789 409.3 515.478 420.567 523.614C423.147 525.477 425.723 527.363 428.3 529.248C436.991 535.609 445.68 541.967 454.461 547.431C465.842 554.513 477.334 560.061 489.113 562.14C490.989 562.463 492.923 561.983 494.93 560.803C496.941 559.62 499 557.749 501.097 555.342C505.292 550.527 509.565 543.658 513.87 536.153C515.696 532.97 517.531 529.667 519.366 526.363C521.842 521.905 524.318 517.446 526.773 513.283C531.051 506.029 535.315 499.578 539.508 495.432L539.515 495.425C543.254 491.874 546.787 489.832 550.6 490.835L550.606 490.837C586.659 500.821 619.247 483.463 643.574 457.094C651.351 448.576 659.111 438.046 663.74 421.795C663.755 421.18 663.954 420.583 664.125 420.069L664.132 420.05C669.778 398.094 668.021 372.87 662.127 350.916C656.226 328.94 646.208 310.347 635.436 301.6C624.643 292.836 613.2 289.876 601.559 287.645C599.856 287.319 598.147 287.008 596.435 286.696C586.469 284.884 576.391 283.05 566.629 278.009L566.623 278.006C560.631 274.823 555.204 271.08 549.969 266.779L549.968 266.778C535.941 255.183 524.41 239.582 514.297 223.178C507.579 212.28 501.471 200.999 495.674 190.293C492.75 184.894 489.906 179.641 487.103 174.657C484.165 169.474 481.014 163.48 477.621 157.026C470.009 142.548 461.182 125.761 450.84 110.642C435.883 88.7768 417.886 70.6102 396.057 68.0312L396.054 68.0309C376.755 65.6415 359.032 78.1417 345.835 92.2678Z" stroke="#12BDA8" stroke-miterlimit="10"/>
<path d="M342.117 77.7402L342.116 77.7418C331.993 88.7001 323.26 100.917 314.53 113.255C314.174 113.758 313.818 114.261 313.462 114.764C305.093 126.597 296.676 138.499 287.012 149.416C277.108 161.001 267.009 169.045 256.716 174.847L256.713 174.848C232.74 188.146 206.909 188.13 174.518 186.455L174.517 186.454C140.156 184.602 115.127 198.9 97.9718 221.357C80.801 243.834 71.511 274.502 68.7233 305.351C66.677 328.79 66.3071 352.394 69.8367 375.615L69.8368 375.615C70.5774 380.53 71.3298 385.842 72.1243 391.451C75.7289 416.898 80.201 448.469 88.3728 476.889C93.3584 494.229 99.7131 510.363 108.069 523.199C116.423 536.033 126.755 545.537 139.69 549.68C142.142 550.452 144.977 550.249 148.14 549.251C151.304 548.253 154.758 546.473 158.419 544.143C165.745 539.481 173.817 532.674 181.946 525.711C182.571 525.175 183.198 524.637 183.824 524.1C191.316 517.674 198.805 511.25 205.708 506.438C209.449 503.83 213.034 501.684 216.37 500.265C219.701 498.847 222.821 498.139 225.618 498.455L225.619 498.455C239.876 500.096 253.597 502.977 267.169 505.828C273.645 507.188 280.089 508.541 286.54 509.749C306.535 513.492 326.676 515.856 348.382 512.794C361.354 510.961 373.94 513.974 386.292 519.634C398.639 525.292 410.782 533.61 422.876 542.421C425.715 544.49 428.552 546.586 431.388 548.681C440.644 555.52 449.895 562.355 459.241 568.246C471.446 575.938 483.765 581.986 496.382 584.297C498.419 584.665 500.511 584.154 502.674 582.88C504.842 581.604 507.055 579.577 509.305 576.968C513.805 571.749 518.375 564.294 522.971 556.148C524.937 552.664 526.912 549.048 528.885 545.433C531.509 540.625 534.132 535.819 536.733 531.333C541.292 523.465 545.835 516.478 550.308 512.005C554.252 508.061 558.151 506.035 562.141 507.032L562.154 507.036C600.627 517.764 635.822 499.102 661.825 470.685L661.825 470.684C670.357 461.411 678.683 450.122 683.496 432.534L683.5 432.521L683.504 432.508C683.593 432.241 683.683 431.926 683.777 431.598L683.779 431.59C683.869 431.276 683.963 430.948 684.057 430.662C690.169 407.032 688.273 379.852 681.936 356.199C675.593 332.522 664.83 312.487 653.312 303.088L653.628 302.701L653.312 303.088C641.681 293.58 629.355 290.387 616.83 287.993C614.989 287.642 613.143 287.307 611.293 286.972C600.58 285.031 589.762 283.07 579.292 277.635L579.288 277.634C572.923 274.264 566.936 270.147 561.327 265.473L561.325 265.471C546.369 252.852 534.047 235.995 523.213 218.312C516.159 206.798 509.72 194.906 503.597 183.595C500.321 177.545 497.136 171.661 493.995 166.092L493.994 166.091C490.937 160.649 487.654 154.378 484.121 147.629C475.895 131.913 466.312 113.604 455.056 97.1422C438.958 73.6012 419.565 54.0381 396.06 51.2729C375.457 48.8814 356.242 62.3149 342.117 77.7402Z" stroke="#12BDA8" stroke-miterlimit="10"/>
<path d="M338.395 63.2135L338.395 63.2142C327.621 75.0099 318.375 88.1109 309.18 101.356C308.575 102.228 307.97 103.1 307.364 103.973C298.781 116.351 290.158 128.786 280.312 140.288L280.31 140.289C269.663 152.618 259.006 161.222 247.964 167.398L247.963 167.398C222.315 181.626 194.624 181.797 160.18 179.936L160.18 179.936C123.212 177.897 96.3675 193.174 78.0031 217.212C59.6221 241.272 49.7268 274.127 46.7529 307.212C44.5206 332.139 44.1505 357.605 47.8665 382.503C48.6758 387.875 49.4974 393.697 50.3663 399.855C54.2002 427.024 58.9555 460.722 67.6362 491.086C72.9594 509.705 79.7506 527.038 88.6909 540.823C97.6302 554.605 108.696 564.806 122.561 569.229L122.562 569.229C125.198 570.071 128.245 569.853 131.641 568.777C135.036 567.701 138.742 565.778 142.668 563.262C150.523 558.228 159.177 550.874 167.887 543.352C168.574 542.759 169.261 542.165 169.948 541.571C177.96 534.642 185.966 527.72 193.342 522.532C197.348 519.714 201.185 517.396 204.753 515.863C208.316 514.332 211.65 513.568 214.633 513.908L214.634 513.908C229.809 515.664 244.432 518.73 258.907 521.766C265.942 523.241 272.943 524.709 279.954 526.016C301.415 530.015 323.045 532.518 346.333 529.178L346.334 529.178C360.145 527.205 373.547 530.439 386.705 536.524C399.858 542.607 412.798 551.554 425.695 561.04C428.737 563.277 431.776 565.545 434.815 567.812C444.674 575.167 454.535 582.523 464.501 588.872C477.535 597.175 490.703 603.723 504.204 606.267C506.355 606.657 508.567 606.101 510.857 604.726C513.153 603.348 515.498 601.164 517.883 598.355C522.655 592.738 527.51 584.717 532.397 575.955C534.489 572.205 536.59 568.313 538.69 564.422C541.482 559.249 544.273 554.078 547.04 549.245C551.893 540.77 556.727 533.236 561.477 528.392L561.481 528.388C565.594 524.274 569.878 521.849 574.074 523.048C615.339 534.519 652.953 514.554 680.63 484.091L680.633 484.087C689.721 474.258 698.605 462.225 703.791 443.337C703.886 442.958 703.981 442.626 704.073 442.302C704.167 441.976 704.258 441.657 704.348 441.294L704.349 441.291C710.839 415.98 708.85 386.837 702.116 361.479C695.377 336.103 683.916 314.626 671.561 304.576L671.561 304.576C659.093 294.416 645.882 291.037 632.472 288.48C630.594 288.122 628.711 287.78 626.826 287.438C615.267 285.339 603.601 283.22 592.323 277.259L592.319 277.257C585.401 273.518 579.041 269.216 573.056 264.166C556.983 250.616 543.777 232.549 532.198 213.608C524.562 201.117 517.618 188.217 511.027 175.973C507.629 169.662 504.326 163.526 501.07 157.709L501.07 157.709C497.85 151.936 494.394 145.29 490.674 138.135C481.882 121.227 471.616 101.486 459.525 83.7568C442.311 58.517 421.521 37.5587 396.249 34.6994L396.248 34.6993C373.969 32.1217 353.451 46.6704 338.395 63.2135Z" stroke="#12BDA8" stroke-miterlimit="10"/>
<path d="M507.964 148.957L507.963 148.956C504.585 142.886 500.954 135.899 497.044 128.374C487.669 110.333 476.69 89.2038 463.742 70.2331C445.387 43.3408 423.201 20.986 396.253 17.9405C372.671 15.3622 350.849 30.8418 334.677 48.6877C323.25 61.3219 313.445 75.3076 303.668 89.3454L302.927 90.4093C293.403 104.085 283.867 117.778 272.866 130.235C261.661 143.306 250.445 152.469 238.657 159.018L238.656 159.019C211.52 173.99 182.155 174.348 145.474 172.3C105.993 170.169 77.38 186.516 57.8286 212.183C38.2604 237.872 27.7597 272.915 24.5996 308.142L24.5995 308.142C22.1812 334.744 21.8111 361.886 25.8991 388.458L25.8992 388.459C26.8401 394.602 27.7915 401.299 28.8001 408.398C32.8859 437.158 37.9097 472.519 46.9728 504.445C52.6219 524.345 59.8321 542.877 69.3429 557.621C78.8526 572.364 90.64 583.286 105.436 588.034L105.438 588.034C108.237 588.945 111.474 588.716 115.083 587.567C118.692 586.417 122.634 584.36 126.812 581.666C135.17 576.277 144.389 568.4 153.669 560.342C154.391 559.716 155.112 559.089 155.834 558.462C164.383 551.03 172.926 543.603 180.797 538.038C185.066 535.02 189.154 532.537 192.954 530.896C196.749 529.256 200.295 528.439 203.466 528.802L203.467 528.802C219.651 530.684 235.242 533.984 250.677 537.251C258.169 538.836 265.624 540.414 273.093 541.818C295.973 546.12 319.045 548.809 343.915 545.19C358.613 543.03 372.865 546.474 386.856 552.99C400.841 559.504 414.597 569.103 428.307 579.287C431.552 581.698 434.794 584.14 438.037 586.583C448.508 594.473 458.984 602.366 469.575 609.179C483.442 618.099 497.46 625.136 511.845 627.865L511.845 627.865C514.134 628.301 516.481 627.716 518.906 626.252C521.335 624.786 523.813 622.452 526.331 619.449C531.367 613.442 536.485 604.852 541.64 595.461C543.812 591.505 545.993 587.402 548.175 583.296C551.158 577.683 554.144 572.065 557.112 566.813C562.251 557.718 567.385 549.629 572.46 544.411C576.777 539.72 581.239 537.308 585.798 538.497L585.805 538.499C629.863 550.717 669.714 529.264 699.255 496.936C708.904 486.359 718.348 473.579 723.906 453.384L723.91 453.372L723.914 453.359C724.093 452.823 724.274 452.099 724.462 451.347L724.462 451.345C731.325 424.358 729.196 393.259 722.02 366.202C714.838 339.127 702.632 316.207 689.441 305.506L689.439 305.505C676.133 294.601 662.085 290.989 647.814 288.27C645.788 287.883 643.757 287.515 641.722 287.147C629.445 284.922 617.043 282.675 604.994 276.33C597.694 272.586 590.959 267.909 584.605 262.489C567.507 248.101 553.463 228.823 541.139 208.602C533.147 195.489 525.863 181.95 518.94 169.083C515.194 162.12 511.553 155.353 507.964 148.957Z" stroke="#12BDA8" stroke-miterlimit="10"/>
<path d="M515.038 140.578L515.038 140.577C511.468 134.151 507.625 126.738 503.482 118.748C493.549 99.5891 481.893 77.1059 468.14 56.9198C448.645 28.3046 425.063 4.50851 396.441 1.36929C371.183 -1.39609 348.058 15.1999 330.953 34.1642L330.581 33.8293L330.952 34.1643C318.874 47.5431 308.511 62.3666 298.199 77.2879C297.729 77.9676 297.259 78.6474 296.79 79.3272C286.954 93.5666 277.096 107.839 265.791 120.924L265.412 120.597L265.791 120.924C246.089 143.707 226.362 155.684 204.539 161.554C182.739 167.419 158.881 167.18 130.95 165.597C88.9558 163.28 58.5742 180.697 37.8122 208.016C17.0334 235.358 5.88095 272.636 2.44155 310.005C-0.162859 338.282 -0.53318 367.285 3.74132 395.721C4.75744 402.344 5.78449 409.589 6.87521 417.283C11.186 447.691 16.4915 485.116 26.0486 518.946C32.0352 540.137 39.682 559.886 49.7776 575.593C59.8723 591.299 72.3926 602.93 88.1189 607.957L88.1205 607.957C91.0805 608.914 94.5121 608.654 98.3414 607.414C102.17 606.173 106.356 603.965 110.794 601.081C119.674 595.311 129.481 586.893 139.354 578.288C140.082 577.654 140.809 577.019 141.537 576.384C150.674 568.413 159.81 560.443 168.219 554.479C172.76 551.259 177.106 548.611 181.143 546.861C185.174 545.113 188.936 544.243 192.294 544.629L192.295 544.629C209.398 546.627 225.892 550.112 242.231 553.564C250.28 555.264 258.292 556.957 266.319 558.46C290.666 563.018 315.227 565.846 341.68 561.948C357.263 559.648 372.377 563.325 387.214 570.281C402.046 577.235 416.634 587.48 431.171 598.35C434.633 600.939 438.092 603.563 441.551 606.187C452.63 614.593 463.711 623 474.909 630.258C489.599 639.78 504.443 647.294 519.665 650.209L519.666 650.209C522.614 650.777 525.663 649.72 528.831 647.32C532 644.919 535.229 641.214 538.505 636.614C544.989 627.508 551.571 615.011 558.164 602.493L558.37 602.102C565.021 589.474 571.683 576.859 578.237 567.822C581.514 563.304 584.787 559.648 588.045 557.33C591.308 555.009 594.613 553.993 597.905 554.884L597.906 554.885C644.571 567.662 686.843 544.905 718.059 510.53L718.061 510.528C728.266 499.395 738.27 485.684 744.201 464.184L744.202 464.183C752.178 435.43 750.143 401.962 742.547 372.764C734.947 343.548 721.809 318.72 707.686 307.181C693.542 295.625 678.609 291.78 663.454 288.875C661.319 288.465 659.178 288.075 657.034 287.683C643.981 285.301 630.808 282.896 618.022 276.141C593.334 263.142 574.006 240.716 557.65 215.832C546.109 198.275 536.023 179.452 526.577 161.824C522.639 154.475 518.813 147.333 515.038 140.578Z" stroke="#12BDA8" stroke-miterlimit="10"/>
</g>
</svg>
