<svg width="1920" height="988" viewBox="0 0 1920 988" fill="none" xmlns="http://www.w3.org/2000/svg">
<g opacity="0.12">
<path d="M1005.77 555.453V555.448C1006.47 552.373 1006.35 549.781 1005.61 547.585C1004.87 545.39 1003.5 543.555 1001.62 542.013C997.86 538.914 992.109 537.022 985.604 535.824C979.112 534.628 971.944 534.134 965.396 533.781C964.282 533.721 963.186 533.664 962.113 533.61C956.9 533.343 952.252 533.105 948.961 532.573L948.956 532.572C937.019 530.529 925.519 531.918 914.115 533.295C913.758 533.338 913.4 533.381 913.043 533.424C901.311 534.837 889.665 536.125 877.886 533.415L877.881 533.414C867.518 530.898 855.723 532.291 845.808 536.767C843.887 537.906 841.618 539.266 840.265 541.135C838.507 543.748 838.918 546.706 840.577 549.353C842.241 552.008 845.124 554.271 848.122 555.369C851.159 556.337 854.442 556.688 857.836 556.97C858.276 557.007 858.717 557.042 859.161 557.078C862.124 557.316 865.152 557.559 868.089 558.182H868.092C876.928 560.1 884.413 565.781 891.69 571.304C892.573 571.974 893.452 572.641 894.33 573.299C902.504 579.423 910.594 584.752 920.405 584.198L920.412 584.197C926.958 583.92 932.708 581.076 938.425 577.861C939.236 577.405 940.046 576.942 940.857 576.477C945.742 573.682 950.685 570.853 956.071 569.501H956.072C960.671 568.352 965.377 568.284 970.094 568.426C971.274 568.461 972.452 568.51 973.63 568.558C977.184 568.704 980.735 568.85 984.294 568.639L984.302 568.638H984.309C989.01 568.499 993.936 567.312 997.907 565.094C1001.88 562.877 1004.85 559.656 1005.77 555.453Z" stroke="white" stroke-miterlimit="10"/>
<path d="M869.74 580.919L869.745 580.923C871.686 582.598 873.678 584.424 875.739 586.313C879.295 589.572 883.058 593.021 887.13 596.22C893.54 601.255 900.624 605.59 908.626 607.405C916.147 609.078 923.21 608.246 930.313 606.28C936.214 604.599 941.655 601.865 947.123 598.691C949.619 597.242 952.115 595.705 954.663 594.137C954.907 593.986 955.151 593.836 955.396 593.685C958.196 591.962 961.062 590.208 964.049 588.507C969.311 585.385 974.599 582.815 980.382 581.384C986.88 579.529 993.604 579.033 1000.59 578.962C1003.77 578.93 1007.02 578.986 1010.32 579.043C1010.65 579.049 1010.97 579.054 1011.29 579.06C1014.94 579.122 1018.65 579.174 1022.46 579.104C1044.26 578.823 1060.18 567.87 1062.98 552.92C1063.92 547.888 1063.92 543.149 1062.99 538.697C1059.67 525.511 1050.24 510.171 1030.96 506.543C1026.55 505.718 1020.94 506.887 1015.19 508.236C1014.69 508.354 1014.19 508.473 1013.69 508.592C1008.49 509.823 1003.29 511.058 999.075 510.794H999.07C993.565 510.398 988.243 509.934 983.101 509.485C973.515 508.649 964.553 507.867 956.184 507.683H956.177C945.022 507.301 934.253 505.834 923.637 504.388C922.426 504.223 921.218 504.058 920.011 503.895C908.21 502.304 896.564 500.895 884.687 501.177C879.045 501.316 873.388 502.991 867.658 504.762C867.38 504.848 867.102 504.934 866.824 505.02C861.396 506.701 855.903 508.402 850.401 508.812C848.455 509.1 846.978 509.099 845.028 508.81L845.018 508.808C828.447 505.999 811.874 509.37 798.617 516.674L798.606 516.68C794.841 518.634 791.582 521.129 789.259 524.712L789.196 524.81L789.095 524.87C788.988 524.933 788.916 524.976 788.863 525.01V525.131L788.804 525.241C786.045 530.424 786.829 536.394 789.638 541.637C792.448 546.883 797.25 551.323 802.377 553.397L802.39 553.403C806.847 555.351 811.671 556.123 816.607 556.652C817.866 556.787 819.135 556.907 820.406 557.026C824.094 557.373 827.805 557.722 831.374 558.463C834.242 559.03 836.652 559.601 839.068 560.461C850.234 564.284 858.717 571.522 866.833 578.448C867.806 579.278 868.774 580.104 869.74 580.919Z" stroke="white" stroke-miterlimit="10"/>
<path d="M908.11 632.576L908.114 632.577C919.911 634.537 930.304 632.021 939.797 628.36C947.377 625.409 954.256 621.329 961.099 616.845C963.565 615.23 966.03 613.559 968.523 611.869C972.931 608.881 977.424 605.835 982.148 602.942C988.865 598.673 996.056 595.545 1003.24 593.271L1003.25 593.269C1011.89 590.704 1020.88 589.925 1030.26 589.747C1034.95 589.659 1039.74 589.721 1044.63 589.787L1044.92 589.791C1049.72 589.856 1054.63 589.923 1059.64 589.854C1094.77 589.29 1115.95 572.135 1119.71 550.674C1120.66 543.05 1121.12 535.499 1119.25 528.53L1119.24 528.52C1114.48 509.299 1103.58 482.436 1074.82 476.839C1071.82 476.293 1068.18 476.699 1064.15 477.635C1060.14 478.57 1055.79 480.02 1051.41 481.524C1050.95 481.684 1050.48 481.844 1050.01 482.004C1046.1 483.35 1042.18 484.698 1038.5 485.702C1034.38 486.824 1030.5 487.532 1027.2 487.314H1027.19C1019.55 486.758 1012.17 486.053 1004.97 485.365C990.121 483.945 976.029 482.598 961.917 482.788C945.159 483.072 929.129 479.45 913.222 475.703C912.593 475.555 911.965 475.407 911.337 475.259C896.048 471.651 880.851 468.066 865.112 467.795H865.11C858.338 467.657 851.173 470.848 843.89 474.531C842.791 475.087 841.689 475.654 840.586 476.222C834.434 479.389 828.25 482.573 822.322 483.907C819.904 484.481 817.459 484.775 814.998 484.483L814.987 484.481L814.975 484.479C791.264 480.54 768.495 486.167 750.943 496.299C745.732 499.391 741.046 503.016 737.77 508.569L737.625 508.815H737.363C737.363 508.834 737.363 508.856 737.363 508.88V509.003L737.306 509.111C733.35 516.706 734.377 525.584 738.264 533.375C742.151 541.168 748.863 547.794 756.129 550.853L756.138 550.857C762.74 553.795 769.708 554.921 776.851 555.733C778.37 555.906 779.899 556.064 781.433 556.224C787.091 556.811 792.828 557.406 798.485 558.749L798.493 558.751C801.841 559.602 805.682 560.741 809.052 562.169C825.066 568.846 837.172 580.159 848.125 590.396C849.307 591.5 850.475 592.592 851.633 593.664L851.636 593.667C853.988 595.88 856.437 598.34 859.006 600.922C864.041 605.982 869.541 611.508 875.689 616.559C884.953 624.169 895.599 630.615 908.11 632.576Z" stroke="white" stroke-miterlimit="10"/>
<path d="M833.511 606.966L833.167 607.329M833.511 606.966C836.557 609.848 839.758 613.109 843.144 616.559C849.622 623.157 856.779 630.448 864.835 637.107C877.077 647.227 891.294 655.791 908.088 658.037C923.215 660 937.42 655.796 949.299 650.439C958.554 646.215 966.867 640.791 975.085 635.067C977.079 633.678 979.069 632.271 981.065 630.859C987.283 626.46 993.566 622.016 1000.26 617.94C1008.88 612.258 1017.5 608.279 1026.6 605.438C1044.92 599.757 1064.68 600.087 1086.73 600.457C1090.05 600.512 1093.42 600.569 1096.84 600.606C1144.81 601.169 1171.25 576.676 1175.97 548.688V548.679C1177.86 538.553 1177.86 528.443 1175.5 518.905C1172.4 506.467 1167.77 490.549 1159.11 476.829C1150.46 463.122 1137.81 451.632 1118.67 447.987C1114.74 447.231 1109.88 447.913 1104.5 449.388C1099.13 450.86 1093.3 453.105 1087.42 455.422C1086.81 455.663 1086.2 455.905 1085.59 456.147C1080.33 458.225 1075.08 460.302 1070.17 461.856C1064.7 463.588 1059.59 464.691 1055.32 464.402C1044.7 463.638 1034.54 462.588 1024.62 461.562C1005.06 459.541 986.437 457.617 967.162 458.179C945.856 458.889 925.522 453.42 905.382 447.587C903.964 447.176 902.548 446.764 901.132 446.352C882.408 440.901 863.805 435.486 844.591 434.699C836.425 434.423 827.849 439.137 819.132 444.699C817.576 445.692 816.015 446.712 814.453 447.733C807.329 452.388 800.179 457.062 793.27 459.287L793.255 459.292L793.24 459.296L793.165 459.315C789.887 460.148 786.461 461.02 783.491 460.435C753.112 455.367 724.626 462.971 702.304 476.215C695.679 480.146 689.126 485.156 685.37 492.622C685.343 492.763 685.281 492.877 685.232 492.955C685.166 493.06 685.082 493.158 685.028 493.222C684.965 493.296 684.93 493.339 684.907 493.374V493.434L684.861 493.534C680.175 503.682 681.681 515.471 686.705 525.815C691.728 536.16 700.233 544.977 709.408 549.165L709.411 549.166C718.155 553.232 727.384 554.711 736.791 555.771C738.626 555.977 740.468 556.168 742.315 556.359C749.917 557.146 757.594 557.941 765.111 559.885L765.119 559.888L765.128 559.89L765.15 559.897C769.901 561.306 774.694 562.728 779.015 564.721C798.729 573.078 813.044 587.057 826.139 599.843C828.631 602.276 831.078 604.666 833.511 606.966Z" stroke="white" stroke-miterlimit="10"/>
<path d="M907.613 683.213C927.025 685.46 944.564 679.564 958.826 672.513C969.754 667.016 979.501 660.247 989.212 653.178C990.951 651.912 992.689 650.636 994.433 649.356C1002.42 643.495 1010.52 637.55 1019.34 632.084C1029.86 625.274 1039.91 620.445 1050.93 617.035C1074.06 609.907 1099.26 610.391 1128.33 610.948C1130.53 610.99 1132.75 611.033 1135 611.072C1195.83 612.2 1227.99 580.928 1233.67 546.147C1235.57 533.449 1236.04 520.799 1232.73 508.732L1232.72 508.727L1232.71 508.68C1228.66 493.259 1223.31 472.909 1212.99 455.28C1202.67 437.647 1187.4 422.775 1163.51 418.283C1158.62 417.386 1152.55 418.399 1145.81 420.453C1139.08 422.504 1131.76 425.57 1124.4 428.718C1123.72 429.008 1123.04 429.298 1122.37 429.588C1115.69 432.449 1109.02 435.305 1102.81 437.439C1095.98 439.786 1089.65 441.282 1084.42 440.922C1070.99 440.037 1058.08 438.639 1045.38 437.264C1039.8 436.66 1034.26 436.06 1028.73 435.51C1010.62 433.707 992.652 432.437 973.855 433.284C948.006 434.562 923.489 427.247 899.176 419.292C897.088 418.609 895.003 417.922 892.918 417.234C870.689 409.906 848.55 402.606 825.52 401.317C820.752 401.041 815.833 402.472 810.808 404.927C805.784 407.382 800.687 410.843 795.566 414.588C793.629 416.004 791.687 417.464 789.743 418.923C786.565 421.31 783.387 423.697 780.241 425.892C775.165 429.436 770.118 432.523 765.171 434.384L765.162 434.388L765.152 434.391C760.852 435.808 757.417 436.692 753.478 436.108L753.47 436.107C715.937 429.905 681.253 439.489 654.641 455.842L654.634 455.846C646.586 460.621 638.605 466.759 633.894 476.196C633.862 476.565 633.698 476.838 633.576 477.019C633.523 477.097 633.491 477.141 633.465 477.179C633.452 477.199 633.439 477.217 633.426 477.238C633.425 477.24 633.424 477.243 633.423 477.245V477.308L633.378 477.407C627.497 490.248 629.246 505.011 635.342 517.898C641.439 530.788 651.85 541.725 663.168 546.901L663.171 546.902C674.058 551.958 685.552 553.72 697.227 555.027C699.113 555.239 701.004 555.438 702.899 555.638C712.708 556.672 722.596 557.715 732.23 560.453C738.444 562.155 744.194 564.143 749.473 566.705C773.629 577.638 791.485 595.643 807.464 611.755C810.159 614.472 812.799 617.136 815.408 619.703C818.955 623.146 822.716 627.088 826.725 631.288C834.634 639.576 843.506 648.872 853.584 657.336C868.745 670.071 886.534 680.824 907.613 683.213Z" stroke="white" stroke-miterlimit="10"/>
<path d="M797.775 632.715L797.777 632.717C801.684 636.626 805.836 641.088 810.267 645.851C819.682 655.97 830.358 667.444 842.625 677.846C860.645 693.124 882.008 705.998 907.614 708.671C930.363 710.92 951.239 703.611 968.359 694.582C980.958 687.812 992.136 679.769 1003.22 671.427C1005.3 669.86 1007.38 668.283 1009.46 666.701C1018.46 659.867 1027.57 652.956 1037.45 646.515C1049.41 638.569 1061.37 632.891 1073.81 628.917L1073.82 628.915C1102.57 619.965 1133.64 620.667 1170.56 621.501L1172.2 621.538C1209.06 622.384 1236.84 613.283 1256.22 598.829C1275.6 584.376 1286.62 564.549 1289.94 543.882C1292.31 528.643 1292.78 513.442 1288.99 498.822V498.817C1288.88 498.349 1288.76 497.877 1288.64 497.401C1284.15 479.295 1278.2 455.321 1266.51 434.37C1254.52 412.884 1236.51 394.624 1207.85 389.144C1202.02 388.106 1194.73 389.452 1186.64 392.085C1178.55 394.714 1169.74 398.601 1160.89 402.581C1160.14 402.918 1159.39 403.255 1158.64 403.592C1150.54 407.237 1142.46 410.874 1134.96 413.588C1126.78 416.549 1119.22 418.438 1113.03 418.006C1097.52 416.88 1082.64 415.192 1068.02 413.534C1060.6 412.692 1053.24 411.858 1045.9 411.109C1024.1 408.882 1002.44 407.4 979.587 408.671H979.585C949.437 410.232 920.863 401.074 892.437 391.033C889.84 390.115 887.243 389.19 884.647 388.265C858.804 379.059 832.974 369.856 805.97 367.934H805.968C800.497 367.519 794.843 369.261 789.067 372.306C783.292 375.351 777.437 379.676 771.572 384.375C769.091 386.362 766.6 388.424 764.115 390.481C760.748 393.267 757.391 396.045 754.082 398.621C748.317 403.107 742.618 407.045 737.078 409.476C732.248 411.767 727.862 412.643 723.455 412.062L723.447 412.061L723.439 412.059C679.234 404.727 637.874 416.571 606.97 435.754C597.48 441.666 588.063 448.94 582.399 460.367C582.376 460.497 582.328 460.611 582.292 460.689C582.238 460.808 582.167 460.933 582.11 461.034C582.048 461.145 581.999 461.233 581.965 461.308C581.947 461.347 581.939 461.37 581.936 461.379V461.465L581.89 461.564C574.817 476.951 576.924 494.684 584.154 510.155C591.385 525.628 603.705 538.756 616.93 544.921C630.201 551.108 644.078 553.223 658.076 554.778C660.3 555.025 662.527 555.258 664.755 555.491C676.534 556.723 688.347 557.958 699.818 561.301C706.998 563.289 713.696 565.845 719.914 568.682L719.915 568.683C747.936 581.562 768.152 602.372 786.394 621.151C790.258 625.128 794.033 629.015 797.775 632.715Z" stroke="white" stroke-miterlimit="10"/>
<path d="M570.194 543.226L570.197 543.227C585.374 550.403 601.395 552.872 617.659 554.71C620.21 554.998 622.767 555.271 625.327 555.544C639.073 557.01 652.925 558.487 666.434 562.435C674.568 564.706 682.699 567.828 689.873 571.234C723.39 586.998 747.477 612.306 768.934 634.851C772.572 638.673 776.134 642.415 779.653 646.019C784.002 650.423 788.645 655.47 793.616 660.873C804.503 672.707 816.962 686.251 831.352 698.5C852.292 716.324 877.229 731.318 907.124 734.133C934.158 736.666 958.369 727.382 977.877 716.654C992.144 708.754 1004.64 699.368 1016.97 689.682C1019.08 688.024 1021.19 686.356 1023.3 684.686C1033.51 676.606 1043.81 668.459 1055.08 660.946C1068.48 651.866 1082.35 645.34 1096.69 640.8C1129.69 630.303 1165.54 631.159 1208.9 632.29C1252.2 633.278 1284.51 622.55 1306.93 605.622C1329.35 588.696 1341.92 565.548 1345.71 541.626C1348.09 524.12 1348.56 506.088 1344.29 488.919C1343.94 487.499 1343.58 486.044 1343.21 484.555C1338.11 463.92 1331.46 436.971 1318.65 413.22C1304.93 387.771 1284.17 366.052 1250.75 359.725V359.724C1243.97 358.406 1235.46 359.996 1226.01 363.155C1216.57 366.31 1206.27 371.001 1195.93 375.812C1194.94 376.27 1193.96 376.73 1192.97 377.189C1183.62 381.545 1174.31 385.886 1165.67 389.14C1156.13 392.733 1147.34 395.031 1140.2 394.528C1121.92 393.28 1104.29 391.251 1086.89 389.247C1078.63 388.297 1070.42 387.352 1062.22 386.499C1036.73 383.848 1011.25 382.083 984.349 383.778H984.348C949.663 385.907 916.793 374.906 884.136 362.743C880.879 361.53 877.625 360.306 874.372 359.082C844.964 348.018 815.597 336.969 784.981 334.555C778.923 334.141 772.619 336.282 766.149 339.972C759.681 343.66 753.095 348.868 746.484 354.521C743.703 356.9 740.911 359.363 738.123 361.823C734.306 365.191 730.497 368.551 726.736 371.676C720.218 377.093 713.772 381.864 707.516 384.862C702.234 387.425 696.876 388.89 691.957 388.015C641.083 379.553 594.006 393.374 558.333 415.667C547.413 422.71 536.568 431.113 529.95 444.512C529.919 444.864 529.768 445.132 529.666 445.314L529.653 445.336C529.529 445.558 529.479 445.663 529.479 445.798V445.905L529.435 446.003C521.406 463.938 523.871 484.644 532.234 502.697C540.598 520.753 554.826 536.071 570.194 543.226Z" stroke="white" stroke-miterlimit="10"/>
<path d="M907.123 759.31H907.126C937.357 762.113 965.265 751.246 987.113 738.891C1002.78 730.033 1017.01 719.107 1031.1 707.912C1033 706.398 1034.9 704.879 1036.81 703.36C1048.96 693.651 1061.15 683.924 1074.16 675.372C1089.45 665.164 1104.75 657.788 1121.01 652.681C1157.82 640.769 1197.96 641.625 1247.05 642.756C1296.78 644.168 1333.74 631.884 1359.32 612.482C1384.9 593.08 1399.13 566.536 1403.41 539.357V539.354C1406.74 519.029 1407.21 498.454 1401.99 478.741V478.739C1401.24 475.863 1400.48 472.849 1399.69 469.721C1393.89 446.826 1386.55 417.831 1373 392.033C1357.61 362.73 1334.23 337.62 1296.05 330.303C1288.56 328.845 1278.98 330.767 1268.26 334.506C1257.56 338.239 1245.79 343.752 1233.96 349.394C1233.03 349.84 1232.09 350.286 1231.16 350.732C1220.26 355.932 1209.38 361.129 1199.3 365.008C1188.38 369.216 1178.34 371.904 1170.24 371.33C1149.13 369.885 1128.84 367.488 1108.83 365.124C1099.57 364.03 1090.37 362.943 1081.18 361.961C1052.11 358.855 1023.07 356.79 992.273 358.832C952.012 361.501 915.052 348.695 878.426 334.44C874.587 332.946 870.752 331.436 866.916 329.926C834.135 317.019 801.373 304.12 766.384 301.173C759.499 300.619 752.424 303.092 745.211 307.394C737.999 311.695 730.699 317.793 723.373 324.419C720.372 327.133 717.362 329.941 714.353 332.747C710.036 336.773 705.723 340.795 701.449 344.532C694.188 350.879 686.969 356.465 679.879 359.96C674.094 363.105 668.265 364.556 662.411 363.688L662.403 363.687C604.376 354.092 551.098 370.176 511.132 395.3C498.753 403.209 485.983 413.046 478.894 428.188L478.867 428.247L478.824 428.298C478.64 428.516 478.546 428.733 478.426 429.019L478.419 429.034C478.308 429.297 478.174 429.616 477.917 429.938C468.728 450.407 471.436 474.058 480.863 494.672C490.3 515.308 506.435 532.818 523.948 540.962L523.953 540.964C541.275 549.271 559.559 552.093 578.088 554.179C580.988 554.505 583.895 554.814 586.805 555.123C602.465 556.784 618.217 558.455 633.542 563.002C643.098 565.836 652.183 569.24 660.318 573.215C697.806 591.153 724.761 619.588 748.853 645.002C753.323 649.717 757.694 654.328 762.015 658.749C767.138 663.953 772.601 669.957 778.454 676.39C790.638 689.782 804.518 705.037 820.57 718.834C844.309 739.238 872.701 756.352 907.123 759.31Z" stroke="white" stroke-miterlimit="10"/>
<path d="M746.823 267.791C735.26 266.719 725.253 271.104 715.997 278.224C706.977 285.161 698.715 294.659 690.452 304.157L689.77 304.941C681.297 314.677 672.8 324.342 663.516 331.036C654.217 337.741 644.084 341.498 632.353 339.357C567.175 328.632 507.701 346.696 463.447 374.929C448.711 384.577 433.937 396.479 426.88 412.997C417.237 435.566 419.149 461.782 428.946 484.98C438.743 508.179 456.403 528.306 478.172 538.702C497.64 547.857 518.189 550.963 538.982 553.296C542.047 553.64 545.118 553.966 548.191 554.293C565.947 556.185 583.791 558.086 601.112 563.284C656.06 579.585 695.397 620.756 733.791 660.939C737.161 664.467 740.525 667.986 743.89 671.48C750.316 678.113 756.709 684.964 763.146 691.863C780.437 710.395 798.045 729.267 817.454 745.145C844.069 766.918 874.009 783.005 911.023 784.771C947.849 786.528 979.03 772.369 1008.08 752.963C1022.61 743.259 1036.59 732.253 1050.48 721.275L1051.6 720.39C1065.1 709.715 1078.53 699.102 1092.26 689.804C1108.99 678.177 1126.2 669.952 1143.89 664.28C1184.99 651.238 1229.89 651.809 1284.23 653.224C1340.4 654.777 1381.88 640.867 1410.5 618.991C1439.12 597.115 1454.91 567.245 1459.66 536.812V536.807C1466.67 494.707 1459.73 439.998 1439.51 393.628C1419.29 347.25 1385.84 309.333 1339.91 300.601C1331.47 299 1320.67 301.257 1308.59 305.575C1296.53 309.887 1283.28 316.221 1269.95 322.694C1268.94 323.185 1267.93 323.678 1266.92 324.17C1254.61 330.155 1242.32 336.134 1230.96 340.594C1218.68 345.416 1207.42 348.496 1198.36 347.851C1175.17 346.238 1152.78 343.573 1130.63 340.939C1119.75 339.644 1108.92 338.357 1098.1 337.205C1065.21 333.705 1032.22 331.446 997.222 333.989C953.707 337.11 912.486 322.497 871.485 306.16C867.045 304.391 862.607 302.602 858.17 300.813C821.595 286.066 785.011 271.315 746.823 267.791Z" stroke="white" stroke-miterlimit="10"/>
<path d="M1167.26 676.724C1212.18 662.267 1261.37 662.556 1321.43 664.253C1384.28 665.948 1430.41 650.482 1462.13 626.166C1493.84 601.851 1511.19 568.66 1516.41 534.831C1520.22 509.412 1520.69 483.74 1514.51 458.931C1513.35 454.386 1512.16 449.548 1510.91 444.48C1503.99 416.388 1495.33 381.228 1479.45 349.766C1460.72 312.647 1431.98 280.755 1384.26 271.742C1374.87 269.93 1362.85 272.468 1349.42 277.326C1336 282.177 1321.26 289.308 1306.44 296.594C1305.27 297.17 1304.1 297.747 1302.93 298.323C1289.29 305.039 1275.68 311.741 1263.12 316.748C1249.48 322.18 1236.99 325.649 1226.98 324.933C1200.96 323.122 1175.95 320.091 1151.24 317.095C1139.27 315.644 1127.37 314.2 1115.45 312.909C1078.93 308.949 1042.25 306.407 1002.96 309.374C954.909 312.92 909.514 296.466 864.341 278.043C859.42 276.037 854.502 274.007 849.583 271.976C809.313 255.354 769.004 238.715 726.808 234.69C718.624 233.927 710.186 237.063 701.564 242.561C692.944 248.058 684.199 255.878 675.412 264.396C671.715 267.98 668.004 271.694 664.295 275.407C659.21 280.496 654.128 285.584 649.086 290.33C640.355 298.549 631.675 305.817 623.153 310.446C615.95 314.435 608.681 316.466 601.853 315.309C530.478 303.452 464.805 323.495 415.781 354.84C400.546 364.727 384.909 377.111 375.91 396.219L375.882 396.278L375.84 396.328C375.673 396.526 375.58 396.785 375.455 397.156L375.444 397.188C375.338 397.502 375.202 397.905 374.935 398.249C363.598 423.81 367.022 453.263 378.714 478.934C390.417 504.628 410.367 526.452 431.935 536.718C453.548 547.005 476.361 550.464 499.42 553.045C502.838 553.427 506.262 553.79 509.688 554.154C529.354 556.24 549.096 558.335 568.228 564.131L568.236 564.134C579.697 567.817 590.686 572.069 601.2 577.173L601.202 577.174C647.031 599.636 679.902 634.928 709.171 666.353C714.986 672.595 720.658 678.685 726.262 684.492C732.199 690.657 738.551 697.758 745.372 705.384C760.517 722.317 777.975 741.835 798.344 759.427C827.863 784.922 863.406 806.278 906.646 809.661H906.648C944.646 812.761 979.822 798.671 1006.48 782.574L1110.68 705.207L1110.39 704.794C1110.4 704.794 1110.4 704.793 1110.4 704.793C1129.03 692.037 1147.67 682.963 1167.26 676.724ZM1167.26 676.724L1167.42 677.201" stroke="white" stroke-miterlimit="10"/>
<path d="M1016.01 804.645V804.644C1036.96 791.792 1055.05 777.173 1072.99 762.357C1074.52 761.093 1076.05 759.828 1077.58 758.563C1093.98 744.995 1110.44 731.374 1129 718.938C1149.54 705.052 1170.08 695.13 1191.1 688.325C1239.83 672.17 1293.32 672.46 1359.1 674.44C1428.15 676.559 1478.81 659.536 1513.62 632.746C1548.44 605.956 1567.45 569.369 1573.15 532.286C1577.44 504.599 1578.38 476.384 1571.26 448.751V448.75C1569.91 443.51 1568.54 437.906 1567.1 432.02C1559.59 401.329 1550.21 362.982 1533.03 328.585C1512.57 287.611 1481.09 252.326 1428.61 242.323C1418.26 240.37 1405.02 243.243 1390.23 248.68C1375.46 254.11 1359.23 262.062 1342.92 270.18C1341.67 270.802 1340.42 271.424 1339.17 272.047C1324.13 279.547 1309.11 287.032 1295.26 292.619C1280.27 298.665 1266.56 302.524 1255.59 301.738C1226.63 299.807 1198.77 296.427 1171.2 293.082C1158.37 291.524 1145.59 289.974 1132.8 288.582C1092.52 284.198 1052.03 281.373 1008.68 284.764C956.102 288.877 906.534 270.582 857.188 250.038C851.734 247.767 846.282 245.469 840.829 243.17C796.916 224.657 752.931 206.115 706.784 201.593H706.782C692.643 200.158 680.649 205.508 669.692 214.279C658.873 222.938 649.111 234.895 639.33 246.873L638.917 247.379C629.016 259.505 619.08 271.606 608.047 280.14C596.998 288.685 584.803 293.687 570.396 291.55L570.388 291.549C491.86 278.559 419.988 300.866 366.672 335.041C350.009 345.775 332.941 359.291 322.988 380.38L322.981 380.396L322.972 380.411C322.759 380.791 322.652 381.105 322.533 381.458L322.531 381.465C322.414 381.812 322.285 382.196 322.031 382.652C309.719 410.769 313.498 443.209 326.329 471.475C339.164 499.751 361.022 523.767 384.734 535.022C408.493 546.3 433.572 550.112 458.896 552.976C462.593 553.394 466.296 553.792 470 554.19C491.648 556.516 513.361 558.849 534.374 565.264C547.279 568.95 559.225 573.77 570.689 579.439C621.43 604.093 657.475 643.231 689.37 677.864C695.603 684.631 701.677 691.227 707.671 697.509C714.361 704.41 721.533 712.415 729.251 721.028C745.795 739.493 764.846 760.756 787.023 779.939C819.523 808.051 858.64 831.598 906.169 835.123C948.461 838.225 986.975 822.718 1016.01 804.645Z" stroke="white" stroke-miterlimit="10"/>
<path d="M338.477 532.761C312.858 520.517 289.093 494.308 275.124 463.45C261.161 432.602 257.025 397.192 270.527 366.53L270.55 366.489C270.983 365.72 271.491 364.816 271.531 363.878C282.442 340.865 300.914 326.241 318.985 314.391C376.59 277.105 454.659 252.818 540.339 266.938C548.606 268.38 557.31 265.776 565.945 260.653C575.897 254.961 586.035 246.03 596.239 235.93C602.097 230.131 608.002 223.921 613.911 217.705C618.283 213.106 622.658 208.504 627.019 204.064C637.296 193.601 647.532 183.997 657.626 177.255C667.724 170.511 677.618 166.675 687.224 167.648C737.03 172.782 784.594 193.127 832.07 213.435C838.134 216.029 844.197 218.623 850.263 221.184C903.781 243.778 957.523 263.843 1014.4 259.306L1014.36 258.846L1014.4 259.305C1061.79 255.49 1105.98 258.528 1149.89 263.335C1164.42 264.926 1178.92 266.711 1193.5 268.505C1222.97 272.133 1252.76 275.8 1283.71 277.977C1295.64 278.763 1310.57 274.479 1326.91 267.806C1341.96 261.661 1358.28 253.461 1374.64 245.239C1376.06 244.524 1377.49 243.808 1378.91 243.094C1396.71 234.163 1414.43 225.415 1430.56 219.428C1446.7 213.435 1461.16 210.243 1472.46 212.339C1529.71 223.19 1563.93 261.868 1586.12 306.767C1604.62 344.199 1614.73 385.895 1622.83 419.321C1624.45 426.006 1625.99 432.361 1627.51 438.284C1635.11 468.469 1634.64 499.233 1629.88 529.457V529.459C1623.7 569.796 1603.14 609.706 1565.23 638.972C1527.31 668.237 1472 686.886 1396.28 684.626C1324.77 682.646 1267.47 682.356 1213.98 699.643C1191.05 707.013 1169.07 717.785 1147.1 732.804V732.806C1127.6 746.279 1110.22 760.893 1092.91 775.453C1090.93 777.114 1088.96 778.773 1086.98 780.43C1067.68 796.625 1048.15 812.589 1025.53 826.714C994.114 846.485 951.786 863.969 906.161 860.585L906.124 861.084L906.16 860.585C854.34 856.777 811.646 831.108 776.226 800.45C751.711 779.231 730.724 755.667 712.602 735.319C704.525 726.251 697.017 717.821 690.02 710.523C683.216 703.41 676.326 695.926 669.252 688.241C634.727 650.736 595.813 608.463 541.121 581.422L541.115 581.419C528.703 575.471 515.804 570.085 501.467 565.831C478.474 558.829 454.871 556.3 431.381 553.783C427.294 553.345 423.21 552.908 419.134 552.447C391.606 549.336 364.382 545.17 338.477 532.761ZM338.477 532.761L338.261 533.212" stroke="white" stroke-miterlimit="10"/>
<path d="M1035.08 848.776C1001.28 870.245 955.614 889.425 905.698 885.758H905.696C849.347 881.808 803.078 854.017 764.798 820.814C738.298 797.829 715.67 772.295 696.172 750.292C687.488 740.492 679.425 731.393 671.917 723.532C664.729 715.95 657.443 707.967 649.958 699.764C612.8 659.045 570.709 612.919 511.095 583.68L511.094 583.679C497.723 577.163 483.873 571.495 468.591 566.678L468.587 566.677C443.722 559.059 418.073 556.29 392.55 553.535C388.16 553.061 383.774 552.587 379.396 552.089C349.542 548.695 320.054 544.175 292.243 530.777C264.477 517.401 238.805 489.07 223.704 455.702C208.609 422.345 204.114 384.034 218.571 350.683L218.594 350.644C219.026 349.874 219.534 348.971 219.574 348.033C231.44 323.319 251.345 307.281 271.318 294.302C333.694 254.185 417.486 227.636 510.317 242.889H510.321C519.542 244.329 528.245 241.439 537.821 236.041L537.829 236.037C548.496 229.779 559.38 220.016 570.337 208.991C576.623 202.666 582.957 195.9 589.294 189.131C593.992 184.112 598.692 179.092 603.375 174.248C614.397 162.847 625.364 152.385 636.151 145.038C646.943 137.689 657.49 133.502 667.688 134.545C721.454 140.174 772.702 162.426 823.828 184.625C830.419 187.487 837.008 190.348 843.6 193.172C901.289 217.888 959.205 239.793 1020.61 234.69C1072.05 230.45 1120.06 233.77 1167.72 239.002C1183.13 240.694 1198.51 242.586 1213.96 244.486C1246.29 248.463 1278.93 252.478 1312.81 254.776C1325.69 255.632 1341.87 250.959 1359.61 243.675C1375.96 236.961 1393.71 227.998 1411.49 219.015C1413.01 218.246 1414.53 217.477 1416.05 216.71C1435.37 206.966 1454.59 197.422 1472.06 190.896C1489.54 184.363 1505.16 180.89 1517.29 183.196C1579.3 195.038 1616.15 237.108 1640.01 285.862C1659.43 325.549 1670.22 369.602 1678.97 405.313C1680.97 413.491 1682.87 421.231 1684.73 428.382M1035.08 848.776L1035.33 849.17M1035.08 848.776C1059.37 833.378 1080.32 816.141 1101.12 798.708C1102.7 797.386 1104.28 796.063 1105.85 794.739C1125.06 778.614 1144.35 762.427 1166.18 747.51L1166.19 747.509C1190.06 731.358 1213.47 720.022 1238.3 711.804L1238.31 711.803C1295.62 693.102 1357.21 693.108 1434.44 695.371C1516.6 698.056 1576.43 677.851 1617.39 646.111C1658.34 614.371 1680.45 571.066 1687.11 527.475V527.472C1692.35 494.413 1693.29 461.107 1684.73 428.382M1684.73 428.382L1685.17 428.268" stroke="white" stroke-miterlimit="10"/>
<path d="M246.459 528.516C216.786 514.15 189.206 483.627 172.973 447.677C156.744 411.737 151.892 370.456 167.542 334.56C167.785 334.124 168.026 333.623 168.259 333.139C168.499 332.641 168.731 332.161 168.96 331.753L168.969 331.736L168.978 331.717C181.314 304.973 202.673 287.781 224.58 273.653L224.581 273.652C291.247 230.424 381.714 201.895 480.743 218.279L480.751 218.28C490.441 219.717 500.095 216.834 510.164 210.86C521.547 204.106 533.147 193.529 544.827 181.571C551.485 174.754 558.193 167.462 564.909 160.163C569.962 154.67 575.019 149.173 580.062 143.871C591.829 131.498 603.555 120.144 615.124 112.183C626.698 104.22 638.048 99.6986 649.079 100.882C706.455 107.117 761.235 131.131 815.919 155.103C823.174 158.284 830.428 161.463 837.685 164.601C899.606 191.368 961.814 215.042 1027.75 209.514C1083.49 204.85 1135.18 208.453 1186.43 214.145C1202.99 215.985 1219.51 218.044 1236.11 220.112C1270.84 224.44 1305.89 228.808 1342.36 231.297C1356.19 232.225 1373.6 227.162 1392.69 219.264C1410.33 211.969 1429.48 202.224 1448.67 192.456C1450.27 191.641 1451.87 190.826 1453.47 190.013C1474.28 179.438 1494.99 169.072 1513.81 161.967C1532.65 154.855 1549.49 151.046 1562.58 153.495C1629.36 166.185 1668.94 211.648 1694.47 264.327C1715.4 307.509 1726.85 355.475 1736.08 394.137C1738.12 402.659 1740.04 410.73 1741.94 418.197C1750.98 453.47 1750.03 489.325 1744.79 524.932C1737.66 571.776 1713.88 618.404 1669.82 652.62C1625.77 686.835 1561.41 708.666 1473.05 705.84C1390.1 703.294 1324.21 703.287 1263.09 723.404V723.405C1236.82 732.187 1211.03 744.371 1185.72 761.939C1161 778.51 1139.46 796.578 1118.02 814.563C1117.11 815.325 1116.21 816.088 1115.3 816.85C1092.95 835.593 1070.56 854.173 1044.6 870.845V870.846C1008.42 894.292 958.938 914.888 905.683 911.22C845.043 906.987 795.198 877.075 753.998 841.326C725.155 816.299 700.59 788.455 679.521 764.572C670.479 754.322 662.08 744.803 654.264 736.548L653.901 736.892L654.263 736.547C646.21 728.075 638.051 719.134 629.665 709.942C589.933 666.399 545.076 617.239 482.002 585.664L481.999 585.662C467.673 578.579 452.392 572.346 436.156 567.246L436.153 567.245C409.478 559.029 381.932 556.067 354.499 553.117C349.756 552.607 345.017 552.097 340.286 551.561C308.167 547.919 276.415 543.045 246.459 528.516ZM246.459 528.516L246.28 528.887" stroke="white" stroke-miterlimit="10"/>
<path d="M1606.44 123.792C1677.99 137.33 1720.32 186.187 1747.58 242.756C1769.8 288.89 1781.98 340.089 1791.8 381.367C1794.02 390.722 1796.13 399.568 1798.2 407.729C1807.71 445.551 1806.77 484.235 1801.05 522.103C1793.44 572.343 1768.11 622.295 1720.96 658.915C1673.81 695.534 1604.79 718.851 1509.76 715.742C1421.56 712.913 1350.91 713.189 1285.5 734.72V734.721C1257.32 744.07 1230.1 757.104 1202.89 775.802L1202.88 775.804C1177.69 793.262 1155.63 812.141 1133.64 830.951C1132.1 832.276 1130.55 833.6 1129 834.924C1105.46 855.044 1081.76 874.969 1054.14 892.913C1015.57 918.056 962.751 940.349 905.206 936.398C840.037 932.024 786.617 899.99 742.557 861.66C711.575 834.708 685.264 804.686 662.745 778.992C653.223 768.128 644.38 758.038 636.148 749.28C627.801 740.433 619.34 731.106 610.641 721.518C568.205 674.743 520.107 621.728 451.965 587.644C436.682 579.994 420.447 573.478 402.784 567.813L402.781 567.812C374.04 558.798 344.326 555.596 314.723 552.406C309.89 551.885 305.059 551.364 300.236 550.819C265.853 546.93 231.835 541.773 199.734 526.254M1606.44 123.792L1606.54 123.3M1606.44 123.792C1592.4 121.132 1574.34 125.24 1554.15 132.917C1533.97 140.588 1511.77 151.785 1489.47 163.209C1487.72 164.109 1485.96 165.01 1484.2 165.911C1463.68 176.443 1443.21 186.945 1424.36 194.812C1403.91 203.346 1385.28 208.817 1370.49 207.818C1331.68 205.153 1294.31 200.504 1257.27 195.895C1239.24 193.652 1221.29 191.418 1203.29 189.428C1148.3 183.348 1092.79 179.532 1033 184.62M1033 184.62L1032.96 184.193M1033 184.62C962.768 190.573 896.507 165.13 830.474 136.312C822.698 132.918 814.925 129.478 807.149 126.036C748.856 100.235 690.391 74.3567 629.055 67.5018C617.431 66.2478 605.427 71.1198 593.159 79.6894C580.897 88.2553 568.44 100.467 555.928 113.777C550.564 119.482 545.184 125.397 539.806 131.309C532.661 139.163 525.522 147.012 518.435 154.355C506.003 167.237 493.659 178.645 481.561 185.964L481.558 185.967C471.022 192.218 460.408 195.676 450.227 193.95C344.047 176.435 247.384 206.945 176.427 253.283L176.424 253.286C153.09 268.26 130.303 286.583 117.012 315.304C116.77 315.876 116.529 316.377 116.293 316.867L116.29 316.874C116.051 317.37 115.818 317.854 115.585 318.407L115.583 318.411C98.9668 356.86 104.057 401.123 121.302 439.652C138.549 478.184 167.917 510.898 199.734 526.254M199.734 526.254L199.517 526.704" stroke="white" stroke-miterlimit="10"/>
<path d="M618.504 762.575L618.506 762.576C627.145 771.786 636.435 782.394 646.443 793.821C670.454 821.237 698.593 853.366 731.768 882.204C778.748 923.045 835.744 957.201 905.205 961.858C966.088 965.809 1022.24 942.102 1063.67 914.979C1092.96 895.762 1118.09 874.494 1143.13 853.169L1145.01 851.561C1169.41 830.776 1193.81 809.985 1221.96 791.077C1250.61 771.248 1279.26 757.365 1309.34 747.45C1378.57 724.788 1453.51 724.228 1547.43 727.34C1648.9 730.59 1722.44 705.647 1772.63 666.553C1822.82 627.458 1849.7 574.182 1857.79 520.688C1863.98 480.275 1864.93 439.045 1854.46 398.679C1852.05 389.346 1849.62 379.17 1847.04 368.385C1836.57 324.69 1823.71 270.964 1800.5 222.457C1771.57 161.997 1726.62 109.747 1650.31 95.2184C1635.44 92.3472 1616.24 96.7369 1594.76 104.954C1573.3 113.164 1549.64 125.157 1525.89 137.394C1524.05 138.344 1522.2 139.295 1520.36 140.247C1498.46 151.543 1476.61 162.812 1456.49 171.251C1434.69 180.395 1414.84 186.255 1399.1 185.186C1357.7 182.33 1317.85 177.326 1278.35 172.366C1259.16 169.956 1240.04 167.556 1220.87 165.417C1162.24 158.877 1103.04 154.779 1039.2 160.291C964.435 166.81 894.001 139.527 823.796 108.587C815.5 104.931 807.208 101.224 798.912 97.5157C736.961 69.8217 674.804 42.0359 609.503 34.6856C597.166 33.2914 584.478 38.4796 571.533 47.6408C558.593 56.7983 545.466 69.8756 532.268 84.1404C526.7 90.1582 521.114 96.3942 515.526 102.632C507.89 111.156 500.25 119.684 492.652 127.662C479.484 141.488 466.367 153.744 453.437 161.63C442.408 168.741 431.32 172.193 420.195 170.471L420.19 170.47C306.858 151.823 204.472 184.595 128.746 233.764C103.977 249.872 79.7566 269.328 65.5125 300.035L65.5044 300.052L65.495 300.069C65.035 300.888 64.5697 301.99 64.0892 303.13L64.088 303.133C46.5172 344.129 51.9651 391.363 70.3429 432.474C88.722 473.587 119.998 508.493 153.96 524.839L153.962 524.84C188.208 541.49 224.37 547 260.959 551.137C266.161 551.725 271.372 552.285 276.588 552.846C308.032 556.227 339.632 559.625 370.353 569.225C388.978 574.892 406.169 581.975 422.404 590.191C494.419 626.148 545.358 682.326 590.387 731.986C599.979 742.564 609.302 752.847 618.504 762.575Z" stroke="white" stroke-miterlimit="10"/>
<path d="M1911.2 387.645C1908.6 377.582 1905.97 366.575 1903.18 354.886C1892.14 308.687 1878.55 251.827 1854.08 200.427C1823.42 136.042 1775.73 80.3267 1694.65 64.95C1678.94 61.9374 1658.59 66.6622 1635.77 75.4586C1612.97 84.2478 1587.82 97.0622 1562.54 110.13C1560.68 111.092 1558.82 112.056 1556.96 113.019C1533.56 125.134 1510.19 137.228 1488.69 146.273C1465.5 156.032 1444.4 162.281 1427.7 161.141C1383.95 158.109 1341.79 152.824 1299.98 147.583C1279.36 144.997 1258.82 142.423 1238.22 140.134C1175.83 133.205 1112.81 128.895 1044.92 134.831C965.626 141.775 890.901 112.653 816.464 79.6263C807.612 75.6989 798.765 71.7165 789.914 67.7325C724.297 38.1969 658.504 8.58173 589.477 0.739367C573.601 -1.07475 557.143 7.57441 540.327 21.5872C523.702 35.44 506.836 54.4398 489.963 73.4475L489.423 74.0556C472.385 93.2487 455.342 112.395 438.587 126.101C421.847 139.795 405.278 148.159 389.201 145.577M1911.2 387.645C1922.15 430.842 1921.2 474.901 1914.53 517.858C1905.73 574.607 1877.18 631.279 1823.89 672.884C1770.6 714.488 1692.52 741.058 1584.62 737.525C1441.58 732.716 1340.83 736.097 1240.08 805.224M1911.2 387.645V387.647M389.201 145.577L389.275 145.116M389.201 145.577C269.193 126.081 160.607 160.833 80.5904 213.113L80.5887 213.114C54.3934 230.069 28.7406 250.94 13.5424 283.628L13.5419 283.629C-6.88144 327.309 -1.67208 378.144 17.7785 422.506C37.2307 466.871 70.8901 504.676 107.236 522.294C143.628 539.935 182.055 545.798 220.909 550.218C226.391 550.842 231.882 551.436 237.377 552.032C270.804 555.653 304.379 559.29 336.982 569.51C444.465 603.086 512.379 678.29 570.821 743.006C580.907 754.175 590.711 765.031 600.387 775.307L600.388 775.308C609.519 785.058 619.351 796.311 629.954 808.445C655.395 837.559 685.268 871.747 720.504 902.432C770.405 945.89 830.977 982.237 904.728 987.037C969.901 991.27 1029.39 965.867 1073.21 937.046M1073.21 937.046L1073.48 937.463M1073.21 937.046C1104.17 916.697 1130.73 894.156 1157.13 871.488C1158.33 870.458 1159.53 869.428 1160.73 868.398C1185.92 846.758 1211.15 825.089 1240.08 805.224M1240.08 805.224L1240.36 805.636" stroke="white" stroke-miterlimit="10"/>
</g>
</svg>
