<svg width="750" height="648" viewBox="0 0 750 648" fill="none" xmlns="http://www.w3.org/2000/svg">
<g opacity="0.16">
<path d="M357.162 283.78L357.162 283.783C356.889 285.796 356.935 287.492 357.224 288.929C357.512 290.366 358.046 291.567 358.779 292.576C360.245 294.605 362.486 295.843 365.022 296.627C367.552 297.41 370.346 297.733 372.899 297.964C373.333 298.004 373.76 298.041 374.178 298.076C376.21 298.251 378.022 298.407 379.305 298.755L379.307 298.756C383.96 300.093 388.442 299.184 392.887 298.282C393.026 298.254 393.166 298.226 393.305 298.198C397.878 297.273 402.418 296.43 407.009 298.204L407.011 298.205C411.05 299.851 415.648 298.94 419.512 296.01C420.261 295.264 421.146 294.374 421.673 293.151C422.358 291.441 422.198 289.505 421.551 287.772C420.903 286.035 419.779 284.553 418.61 283.835C417.427 283.201 416.147 282.972 414.824 282.787C414.653 282.763 414.481 282.74 414.308 282.716C413.153 282.56 411.972 282.401 410.828 281.994L410.826 281.994C407.382 280.738 404.465 277.02 401.628 273.405C401.284 272.967 400.941 272.53 400.599 272.099C397.413 268.091 394.26 264.603 390.436 264.966L390.433 264.967C387.881 265.148 385.64 267.009 383.412 269.114C383.096 269.412 382.78 269.715 382.464 270.019C380.56 271.849 378.633 273.7 376.533 274.585L376.533 274.585C374.74 275.337 372.906 275.382 371.068 275.289C370.608 275.266 370.148 275.234 369.689 275.202C368.304 275.107 366.92 275.011 365.533 275.149L365.529 275.15L365.527 275.15C363.694 275.241 361.774 276.018 360.226 277.47C358.678 278.921 357.52 281.029 357.162 283.78Z" stroke="#12BDA8" stroke-miterlimit="10"/>
<path d="M410.182 267.111L410.18 267.108C409.424 266.012 408.647 264.817 407.844 263.58C406.458 261.447 404.991 259.19 403.404 257.096C400.906 253.801 398.144 250.963 395.025 249.775C392.094 248.68 389.341 249.225 386.572 250.512C384.272 251.612 382.151 253.401 380.02 255.479C379.047 256.427 378.074 257.433 377.081 258.459C376.986 258.558 376.89 258.656 376.795 258.755C375.704 259.883 374.586 261.031 373.422 262.144C371.371 264.188 369.31 265.87 367.056 266.806C364.523 268.02 361.902 268.345 359.179 268.392C357.939 268.412 356.672 268.376 355.386 268.338C355.257 268.335 355.133 268.331 355.008 268.327C353.585 268.287 352.139 268.253 350.654 268.299C342.157 268.483 335.951 275.651 334.86 285.436C334.493 288.73 334.493 291.831 334.856 294.745C336.15 303.376 339.826 313.416 347.341 315.79C349.06 316.33 351.246 315.565 353.488 314.682C353.683 314.605 353.877 314.527 354.072 314.449C356.099 313.644 358.126 312.835 359.77 313.008L359.771 313.008C361.917 313.267 363.992 313.571 365.996 313.865C369.732 314.412 373.226 314.924 376.488 315.044L376.491 315.044C380.839 315.294 385.036 316.254 389.174 317.201C389.646 317.309 390.117 317.417 390.588 317.524C395.187 318.565 399.727 319.487 404.356 319.302C406.555 319.211 408.761 318.115 410.994 316.956C411.102 316.9 411.211 316.843 411.319 316.787C413.435 315.687 415.576 314.574 417.72 314.305C418.479 314.117 419.055 314.117 419.815 314.307L419.819 314.308C426.278 316.146 432.738 313.94 437.905 309.16L437.909 309.156C439.377 307.877 440.647 306.244 441.553 303.899L441.577 303.834L441.617 303.795C441.658 303.754 441.686 303.726 441.707 303.704L441.707 303.624L441.73 303.552C442.806 300.16 442.5 296.253 441.405 292.821C440.31 289.388 438.438 286.482 436.44 285.124L436.435 285.12C434.697 283.845 432.817 283.34 430.893 282.994C430.402 282.905 429.908 282.827 429.412 282.749C427.975 282.522 426.528 282.293 425.137 281.808C424.019 281.437 423.08 281.063 422.138 280.501C417.786 277.998 414.479 273.261 411.316 268.728C410.936 268.185 410.559 267.644 410.182 267.111Z" stroke="#12BDA8" stroke-miterlimit="10"/>
<path d="M395.223 233.301L395.221 233.3C390.623 232.017 386.572 233.664 382.871 236.06C379.917 237.992 377.235 240.662 374.568 243.597C373.607 244.654 372.646 245.748 371.674 246.854C369.956 248.809 368.205 250.803 366.364 252.697C363.745 255.491 360.942 257.538 358.142 259.026L358.138 259.028C354.77 260.707 351.266 261.216 347.61 261.333C345.782 261.39 343.915 261.35 342.009 261.307L341.896 261.304C340.025 261.262 338.111 261.218 336.158 261.263C322.465 261.632 314.209 272.86 312.743 286.906C312.373 291.896 312.194 296.839 312.923 301.4L312.927 301.406C314.782 313.987 319.031 331.569 330.241 335.232C331.41 335.589 332.829 335.324 334.4 334.711C335.963 334.099 337.659 333.15 339.366 332.166C339.545 332.061 339.728 331.956 339.912 331.852C341.436 330.971 342.964 330.088 344.398 329.431C346.004 328.697 347.516 328.233 348.803 328.376L348.806 328.376C351.784 328.74 354.661 329.201 357.467 329.652C363.256 330.581 368.749 331.463 374.249 331.338C380.781 331.153 387.03 333.523 393.23 335.976C393.475 336.072 393.72 336.169 393.965 336.266C399.924 338.628 405.848 340.974 411.983 341.151L411.983 341.151C414.623 341.242 417.416 339.153 420.255 336.743C420.683 336.379 421.112 336.008 421.542 335.636C423.94 333.563 426.351 331.479 428.661 330.606C429.604 330.23 430.557 330.038 431.516 330.229L431.521 330.23L431.525 330.232C440.767 332.81 449.642 329.127 456.484 322.495C458.515 320.472 460.342 318.099 461.619 314.465L461.675 314.304L461.777 314.304C461.777 314.291 461.777 314.277 461.777 314.261L461.777 314.181L461.799 314.11C463.341 309.139 462.941 303.328 461.426 298.229C459.911 293.128 457.295 288.791 454.463 286.789L454.459 286.787C451.886 284.864 449.17 284.127 446.385 283.595C445.793 283.482 445.197 283.379 444.599 283.274C442.394 282.89 440.158 282.5 437.953 281.621L437.95 281.62C436.645 281.063 435.147 280.318 433.834 279.383C427.592 275.013 422.873 267.608 418.604 260.908C418.143 260.186 417.688 259.471 417.236 258.769L417.235 258.767C416.319 257.319 415.364 255.709 414.363 254.019C412.4 250.707 410.256 247.09 407.86 243.784C404.249 238.803 400.099 234.584 395.223 233.301Z" stroke="#12BDA8" stroke-miterlimit="10"/>
<path d="M424.299 250.063L424.433 249.825M424.299 250.063C423.111 248.176 421.864 246.042 420.544 243.784C418.019 239.465 415.229 234.693 412.089 230.335C407.317 223.711 401.776 218.106 395.23 216.636C389.333 215.351 383.796 218.103 379.166 221.609C375.559 224.374 372.318 227.924 369.115 231.67C368.338 232.579 367.562 233.5 366.784 234.424C364.361 237.304 361.911 240.212 359.303 242.88C355.943 246.599 352.583 249.203 349.036 251.063C341.895 254.781 334.193 254.565 325.598 254.323C324.304 254.287 322.99 254.249 321.657 254.225C302.959 253.857 292.653 269.888 290.813 288.206L290.813 288.212C290.077 294.839 290.077 301.456 290.997 307.699C292.205 315.84 294.01 326.258 297.385 335.238C300.757 344.21 305.688 351.73 313.148 354.116C314.68 354.61 316.574 354.164 318.671 353.199C320.765 352.235 323.037 350.766 325.329 349.249C325.567 349.092 325.804 348.933 326.042 348.775C328.092 347.415 330.139 346.055 332.053 345.038C334.185 343.905 336.177 343.183 337.841 343.372C341.981 343.872 345.941 344.559 349.807 345.231C357.432 346.553 364.69 347.813 372.203 347.445C380.508 346.98 388.434 350.56 396.284 354.377C396.837 354.646 397.389 354.916 397.941 355.186C405.239 358.754 412.49 362.298 419.98 362.813C423.163 362.993 426.506 359.908 429.903 356.268C430.51 355.618 431.118 354.95 431.727 354.282C434.504 351.235 437.291 348.176 439.984 346.72L439.99 346.716L439.996 346.714L440.025 346.701C441.303 346.156 442.638 345.585 443.796 345.968C455.637 349.285 466.74 344.309 475.441 335.64C478.024 333.067 480.578 329.788 482.042 324.902C482.052 324.809 482.077 324.735 482.096 324.684C482.121 324.615 482.154 324.551 482.175 324.509C482.2 324.461 482.213 324.432 482.222 324.409L482.222 324.37L482.24 324.305C484.067 317.663 483.48 309.947 481.522 303.177C479.564 296.406 476.249 290.635 472.672 287.894L472.671 287.893C469.263 285.232 465.665 284.264 461.999 283.57C461.283 283.435 460.565 283.31 459.846 283.185C456.882 282.67 453.89 282.15 450.96 280.877L450.957 280.876L450.953 280.874L450.945 280.87C449.093 279.947 447.225 279.017 445.54 277.712C437.856 272.243 432.276 263.093 427.172 254.725C426.201 253.132 425.247 251.568 424.299 250.063Z" stroke="#12BDA8" stroke-miterlimit="10"/>
<path d="M395.413 200.16C387.846 198.689 381.01 202.548 375.45 207.163C371.191 210.761 367.392 215.192 363.606 219.818C362.929 220.647 362.251 221.482 361.571 222.32C358.459 226.156 355.301 230.047 351.863 233.624C347.763 238.082 343.845 241.242 339.55 243.474C330.534 248.139 320.712 247.823 309.381 247.458C308.523 247.431 307.658 247.402 306.781 247.377C283.07 246.639 270.535 267.106 268.321 289.871C267.58 298.182 267.397 306.461 268.687 314.359L268.691 314.363L268.695 314.393C270.273 324.487 272.359 337.806 276.381 349.344C280.404 360.885 286.356 370.619 295.668 373.559C297.574 374.146 299.94 373.483 302.567 372.139C305.19 370.796 308.044 368.79 310.912 366.729C311.177 366.539 311.443 366.35 311.704 366.16C314.307 364.287 316.907 362.418 319.328 361.021C321.99 359.485 324.457 358.506 326.496 358.742C331.731 359.321 336.763 360.236 341.713 361.136C343.888 361.531 346.048 361.924 348.203 362.284C355.262 363.464 362.266 364.295 369.592 363.741C379.668 362.904 389.224 367.692 398.701 372.899C399.515 373.346 400.327 373.795 401.14 374.246C409.805 379.042 418.434 383.82 427.411 384.663C429.27 384.844 431.187 383.907 433.146 382.301C435.104 380.694 437.09 378.429 439.086 375.977C439.842 375.051 440.599 374.095 441.357 373.14C442.595 371.578 443.834 370.015 445.06 368.579C447.039 366.259 449.006 364.239 450.934 363.021L450.938 363.018L450.942 363.016C452.618 362.089 453.956 361.51 455.492 361.892L455.495 361.893C470.125 365.952 483.644 359.679 494.017 348.976L494.02 348.974C497.157 345.848 500.268 341.831 502.104 335.654C502.117 335.413 502.181 335.234 502.228 335.116C502.249 335.065 502.261 335.036 502.272 335.011C502.277 334.998 502.281 334.986 502.286 334.972C502.287 334.971 502.288 334.969 502.288 334.968L502.288 334.927L502.305 334.862C504.598 326.457 503.916 316.795 501.54 308.36C499.163 299.924 495.105 292.765 490.693 289.377L490.692 289.377C486.449 286.068 481.969 284.914 477.418 284.059C476.683 283.92 475.946 283.79 475.207 283.659C471.384 282.982 467.529 282.3 463.774 280.508C461.352 279.394 459.111 278.092 457.053 276.416C447.638 269.26 440.678 257.475 434.449 246.93C433.399 245.152 432.369 243.408 431.352 241.728C429.97 239.474 428.504 236.894 426.941 234.145C423.858 228.721 420.401 222.637 416.472 217.097C410.563 208.762 403.629 201.724 395.413 200.16Z" stroke="#12BDA8" stroke-miterlimit="10"/>
<path d="M438.234 233.21L438.233 233.208C436.71 230.65 435.092 227.729 433.364 224.612C429.695 217.989 425.533 210.479 420.752 203.671C413.728 193.671 405.401 185.245 395.42 183.496C386.553 182.024 378.416 186.808 371.742 192.717C366.832 197.148 362.475 202.412 358.155 207.872C357.344 208.898 356.533 209.93 355.722 210.966C352.214 215.438 348.663 219.962 344.812 224.177C340.15 229.378 335.488 233.094 330.639 235.695L330.636 235.697C319.429 241.555 307.319 241.095 292.928 240.549L292.289 240.525C277.921 239.971 267.093 245.928 259.539 255.388C251.985 264.848 247.689 277.825 246.395 291.352C245.471 301.326 245.288 311.275 246.765 320.844L246.765 320.847C246.808 321.153 246.855 321.462 246.902 321.774C248.652 333.624 250.971 349.316 255.528 363.028C260.201 377.091 267.221 389.042 278.393 392.629C280.665 393.308 283.507 392.427 286.66 390.704C289.813 388.983 293.247 386.439 296.697 383.834C296.989 383.614 297.282 383.393 297.574 383.173C300.731 380.787 303.881 378.406 306.804 376.63C309.993 374.692 312.939 373.456 315.352 373.738C321.398 374.475 327.198 375.58 332.896 376.665C335.789 377.217 338.657 377.762 341.518 378.253C350.016 379.71 358.459 380.68 367.366 379.848L367.367 379.848C379.118 378.827 390.256 384.821 401.336 391.393C402.348 391.993 403.36 392.599 404.372 393.204C414.445 399.23 424.514 405.253 435.039 406.511L435.04 406.511C437.173 406.783 439.376 405.643 441.628 403.65C443.879 401.657 446.161 398.826 448.447 395.75C449.414 394.45 450.385 393.1 451.354 391.754C452.666 389.93 453.975 388.112 455.265 386.426C457.512 383.49 459.733 380.913 461.892 379.321C463.775 377.822 465.485 377.249 467.203 377.629L467.206 377.63L467.209 377.631C484.439 382.43 500.561 374.678 512.607 362.122C516.306 358.253 519.976 353.492 522.184 346.013C522.193 345.928 522.212 345.853 522.226 345.802C522.247 345.724 522.275 345.642 522.297 345.576C522.321 345.504 522.34 345.446 522.353 345.397C522.36 345.371 522.363 345.356 522.365 345.351L522.365 345.294L522.383 345.229C525.139 335.159 524.318 323.552 521.5 313.426C518.682 303.299 513.879 294.707 508.724 290.672C503.552 286.622 498.143 285.238 492.686 284.22C491.819 284.058 490.951 283.906 490.083 283.753C485.492 282.947 480.887 282.139 476.416 279.951C473.617 278.65 471.006 276.977 468.583 275.12L468.582 275.119C457.66 266.69 449.78 253.069 442.67 240.778C441.164 238.175 439.692 235.631 438.234 233.21Z" stroke="#12BDA8" stroke-miterlimit="10"/>
<path d="M526.946 291.78L526.944 291.78C521.029 287.083 514.784 285.467 508.444 284.264C507.45 284.076 506.453 283.897 505.455 283.718C500.097 282.759 494.698 281.792 489.433 279.208C486.262 277.722 483.093 275.678 480.296 273.449C467.232 263.131 457.843 246.567 449.479 231.811C448.061 229.31 446.673 226.86 445.301 224.502C443.606 221.619 441.796 218.316 439.859 214.779C435.615 207.034 430.759 198.169 425.15 190.152C416.988 178.486 407.268 168.673 395.615 166.83C385.078 165.172 375.64 171.249 368.036 178.27C362.475 183.441 357.605 189.584 352.799 195.924C351.977 197.009 351.154 198.101 350.332 199.194C346.352 204.482 342.338 209.814 337.945 214.732C332.722 220.675 327.315 224.946 321.726 227.917C308.863 234.788 294.889 234.228 277.988 233.487C261.11 232.841 248.516 239.862 239.777 250.942C231.038 262.02 226.138 277.17 224.661 292.828C223.733 304.285 223.55 316.088 225.215 327.325C225.351 328.254 225.491 329.206 225.636 330.181C227.624 343.687 230.216 361.325 235.209 376.87C240.557 393.527 248.649 407.742 261.675 411.883L261.675 411.884C264.318 412.747 267.635 411.706 271.319 409.638C274.998 407.573 279.013 404.503 283.043 401.354C283.429 401.054 283.811 400.753 284.197 400.453C287.842 397.602 291.47 394.761 294.838 392.631C298.557 390.279 301.983 388.775 304.766 389.104C311.891 389.921 318.763 391.249 325.546 392.561C328.765 393.183 331.965 393.801 335.162 394.36C345.097 396.095 355.029 397.25 365.514 396.14L365.514 396.14C379.034 394.747 391.846 401.947 404.575 409.908C405.845 410.702 407.113 411.503 408.381 412.304C419.844 419.546 431.291 426.777 443.225 428.357C445.586 428.628 448.043 427.227 450.565 424.812C453.086 422.398 455.653 418.989 458.23 415.289C459.314 413.732 460.402 412.12 461.489 410.51C462.977 408.306 464.462 406.107 465.928 404.061C468.468 400.516 470.981 397.393 473.419 395.431C475.478 393.753 477.567 392.795 479.484 393.367C499.314 398.906 517.664 389.86 531.569 375.269C535.825 370.659 540.052 365.159 542.632 356.39C542.644 356.159 542.703 355.984 542.743 355.865L542.748 355.85C542.796 355.705 542.816 355.636 542.816 355.548L542.816 355.478L542.833 355.414C545.962 343.675 545.002 330.123 541.742 318.307C538.482 306.489 532.936 296.463 526.946 291.78Z" stroke="#12BDA8" stroke-miterlimit="10"/>
<path d="M395.61 150.351L395.609 150.351C383.825 148.516 372.947 155.629 364.431 163.715C358.325 169.513 352.778 176.664 347.286 183.991C346.545 184.982 345.805 185.976 345.06 186.971C340.324 193.325 335.573 199.692 330.502 205.289C324.542 211.97 318.578 216.798 312.24 220.14C297.892 227.937 282.246 227.377 263.112 226.637C243.728 225.712 229.321 233.752 219.35 246.451C209.38 259.15 203.833 276.523 202.165 294.312L202.165 294.314C200.867 307.617 200.684 321.083 202.718 333.986L202.718 333.987C203.011 335.869 203.307 337.842 203.615 339.889C205.876 354.874 208.737 373.852 214.018 390.737C220.017 409.916 229.13 426.351 244.012 431.14C246.932 432.094 250.666 430.836 254.844 428.389C259.015 425.945 263.603 422.337 268.214 418.644C268.576 418.352 268.943 418.061 269.305 417.769C273.554 414.365 277.795 410.964 281.724 408.425C285.98 405.671 289.894 403.911 293.051 404.287C301.279 405.233 309.188 406.802 316.988 408.349C320.597 409.065 324.183 409.776 327.765 410.419C339.096 412.452 350.416 413.804 362.42 412.467C378.113 410.72 392.519 419.102 406.796 428.432C408.292 429.41 409.787 430.398 411.282 431.386C424.06 439.834 436.83 448.277 450.468 450.205C453.152 450.568 455.909 448.949 458.721 446.134C461.532 443.319 464.378 439.328 467.233 434.991C468.403 433.214 469.576 431.377 470.749 429.54C472.432 426.905 474.113 424.273 475.779 421.827C478.609 417.672 481.423 414.016 484.186 411.729C486.441 409.67 488.713 408.721 490.995 409.289L490.998 409.29C513.616 415.57 534.383 405.042 549.962 388.599C554.787 383.422 559.764 376.984 562.528 367.073L562.538 367.034L562.555 367.001C562.627 366.858 562.663 366.716 562.71 366.529L562.713 366.519C562.756 366.347 562.808 366.138 562.908 365.928C566.49 352.531 565.435 337.051 561.76 323.559C558.082 310.052 551.792 298.592 544.966 293.262L544.964 293.26C538.212 287.823 531.085 285.976 523.863 284.611C522.733 284.398 521.6 284.195 520.465 283.993C514.361 282.906 508.221 281.812 502.248 278.836C498.523 276.981 494.982 274.753 491.811 272.152C477.199 260.411 466.692 241.8 457.301 225.166C455.559 222.08 453.855 219.063 452.171 216.169C450.174 212.763 448.045 208.833 445.763 204.623C441.014 195.858 435.604 185.873 429.347 176.843C420.094 163.488 409.027 152.287 395.61 150.351Z" stroke="#12BDA8" stroke-miterlimit="10"/>
<path d="M458.092 472.057C462.599 472.759 466.5 469.889 470.107 465.228C473.623 460.688 476.844 454.472 480.064 448.255L480.33 447.742C483.633 441.37 486.945 435.044 490.564 430.663C494.188 426.274 498.138 423.815 502.711 425.216C528.116 432.236 551.298 420.413 568.548 401.934C574.292 395.62 580.05 387.83 582.801 377.018C586.56 362.247 585.815 345.088 581.996 329.905C578.177 314.721 571.293 301.548 562.808 294.744C555.22 288.752 547.21 286.719 539.105 285.192C537.911 284.967 536.714 284.753 535.516 284.539C528.595 283.301 521.639 282.056 514.888 278.654C493.47 267.985 478.137 241.039 463.172 214.739C461.858 212.43 460.547 210.126 459.235 207.839C456.73 203.498 454.238 199.014 451.729 194.498C444.99 182.369 438.126 170.018 430.561 159.625C420.187 145.375 408.517 134.846 394.089 133.69C379.735 132.54 367.581 141.806 356.258 154.508C350.594 160.859 345.145 168.063 339.731 175.249L339.295 175.827C334.032 182.814 328.798 189.76 323.446 195.846C316.925 203.456 310.216 208.839 303.321 212.552C287.301 221.088 269.8 220.714 248.619 219.788C226.724 218.771 210.556 227.876 199.4 242.194C188.245 256.512 182.09 276.062 180.239 295.98L180.239 295.984C177.506 323.539 180.211 359.346 188.093 389.696C195.974 420.05 209.012 444.868 226.915 450.583C230.205 451.631 234.415 450.154 239.123 447.328C243.824 444.505 248.989 440.359 254.185 436.122C254.578 435.801 254.972 435.479 255.366 435.157C260.164 431.24 264.955 427.326 269.383 424.407C274.169 421.251 278.558 419.235 282.09 419.658C291.129 420.713 299.856 422.457 308.49 424.181C312.731 425.029 316.952 425.871 321.169 426.625C333.99 428.916 346.849 430.395 360.49 428.73C377.451 426.688 393.519 436.252 409.5 446.944C411.231 448.102 412.961 449.273 414.69 450.444C428.947 460.096 443.207 469.75 458.092 472.057Z" stroke="#12BDA8" stroke-miterlimit="10"/>
<path d="M294.215 204.404C276.706 213.866 257.532 213.677 234.121 212.566C209.623 211.457 191.643 221.579 179.279 237.494C166.918 253.409 160.156 275.132 158.121 297.274C156.636 313.911 156.453 330.713 158.862 346.951C159.314 349.926 159.778 353.092 160.265 356.409C162.962 374.796 166.338 397.808 172.527 418.4C179.828 442.695 191.031 463.569 209.631 469.468C213.291 470.654 217.976 468.993 223.211 465.813C228.442 462.638 234.188 457.971 239.964 453.202C240.42 452.825 240.876 452.447 241.332 452.07C246.649 447.675 251.954 443.288 256.85 440.011C262.166 436.456 267.035 434.185 270.937 434.654C281.079 435.839 290.827 437.823 300.459 439.784C305.125 440.734 309.763 441.679 314.409 442.524C328.644 445.116 342.942 446.779 358.256 444.837C376.985 442.516 394.68 453.286 412.287 465.344C414.206 466.657 416.123 467.985 418.04 469.315C433.737 480.194 449.448 491.084 465.896 493.719C469.086 494.218 472.375 492.166 475.736 488.567C479.096 484.969 482.504 479.851 485.929 474.276C487.37 471.93 488.817 469.499 490.263 467.069C492.245 463.738 494.225 460.408 496.191 457.302C499.594 451.922 502.977 447.165 506.299 444.136C509.107 441.525 511.94 440.196 514.602 440.953C542.422 448.713 568.021 435.595 587.13 415.08C593.068 408.608 599.163 400.503 602.671 387.997L602.682 387.958L602.698 387.925C602.763 387.796 602.8 387.626 602.848 387.383L602.853 387.362C602.894 387.157 602.947 386.893 603.051 386.668C607.47 369.938 606.135 350.661 601.578 333.859C597.016 317.042 589.24 302.758 580.833 296.039C572.409 289.306 563.517 287.042 554.528 285.353C553.196 285.103 551.862 284.865 550.526 284.627C542.861 283.262 535.165 281.89 527.708 278.097L527.705 278.095C523.238 275.684 518.954 272.901 514.856 269.561L514.855 269.56C496.992 254.858 484.179 231.76 472.771 211.192C470.504 207.106 468.293 203.12 466.109 199.319C463.795 195.284 461.319 190.637 458.66 185.646C452.757 174.563 445.952 161.788 438.012 150.274C426.506 133.587 412.652 119.61 395.798 117.395L395.797 117.395C380.986 115.366 367.275 124.588 356.884 135.124L316.269 185.761L316.382 186.032C316.378 186.032 316.378 186.032 316.378 186.032C309.116 194.381 301.851 200.32 294.215 204.404ZM294.215 204.404L294.152 204.092" stroke="#12BDA8" stroke-miterlimit="10"/>
<path d="M353.17 120.681L353.17 120.682C345.004 129.093 337.953 138.662 330.96 148.359C330.364 149.186 329.768 150.014 329.171 150.842C322.779 159.722 316.363 168.637 309.128 176.777C301.122 185.865 293.116 192.359 284.923 196.813C265.928 207.387 245.079 207.197 219.439 205.901C192.524 204.514 172.777 215.656 159.209 233.19C145.637 250.724 138.227 274.671 136.005 298.942C134.333 317.063 133.966 335.53 136.742 353.616L136.742 353.617C137.268 357.047 137.802 360.715 138.363 364.567C141.29 384.655 144.947 409.753 151.643 432.266C159.618 459.084 171.889 482.178 192.345 488.725C196.379 490.004 201.54 488.123 207.305 484.565C213.062 481.011 219.388 475.806 225.745 470.493C226.233 470.086 226.72 469.678 227.207 469.271C233.069 464.362 238.924 459.463 244.323 455.806C250.165 451.849 255.509 449.323 259.785 449.838C271.074 451.102 281.933 453.314 292.679 455.503C297.68 456.523 302.662 457.537 307.647 458.448C323.348 461.318 339.13 463.167 356.027 460.947C376.521 458.255 395.842 470.23 415.076 483.676C417.202 485.162 419.327 486.666 421.453 488.171C438.569 500.288 455.714 512.424 473.701 515.383L473.702 515.383C479.213 516.323 483.888 512.821 488.159 507.08C492.376 501.413 496.181 493.587 499.994 485.747L500.155 485.416C504.014 477.48 507.887 469.559 512.188 463.974C516.494 458.381 521.248 455.107 526.863 456.506L526.867 456.506C557.476 465.009 585.49 450.408 606.272 428.041C612.767 421.015 619.42 412.169 623.3 398.366L623.302 398.355L623.306 398.346C623.389 398.097 623.431 397.891 623.477 397.66L623.478 397.656C623.523 397.429 623.574 397.177 623.673 396.879C628.472 378.476 626.999 357.244 621.997 338.743C616.994 320.237 608.474 304.518 599.232 297.151C589.971 289.77 580.195 287.275 570.325 285.4C568.884 285.127 567.44 284.866 565.996 284.606C557.558 283.083 549.095 281.556 540.904 277.358C535.874 274.945 531.218 271.79 526.749 268.08C506.971 251.944 492.921 226.328 480.489 203.66C478.06 199.231 475.692 194.914 473.356 190.802C470.748 186.286 467.952 181.046 464.944 175.409C458.495 163.323 451.07 149.407 442.425 136.851C429.757 118.452 414.51 103.04 395.984 100.733C379.499 98.7025 364.487 108.852 353.17 120.681Z" stroke="#12BDA8" stroke-miterlimit="10"/>
<path d="M617.264 298.632C627.25 306.646 636.513 323.8 641.958 343.996C647.401 364.187 649.013 387.363 643.75 407.431L643.741 407.458C643.572 407.961 643.374 408.553 643.359 409.167C639.106 424.229 631.906 433.801 624.862 441.557C602.408 465.961 571.978 481.857 538.581 472.615C535.359 471.671 531.966 473.376 528.6 476.729C524.721 480.454 520.77 486.3 516.792 492.91C514.509 496.706 512.207 500.77 509.904 504.839C508.2 507.849 506.494 510.861 504.795 513.767C500.789 520.615 496.799 526.901 492.864 531.313C488.928 535.727 485.072 538.238 481.328 537.601C461.914 534.241 443.374 520.925 424.869 507.633C422.505 505.935 420.142 504.238 417.777 502.561C396.917 487.773 375.969 474.641 353.799 477.61L353.815 477.911L353.799 477.611C335.327 480.108 318.102 478.12 300.987 474.973C295.323 473.932 289.671 472.764 283.988 471.589C272.501 469.215 260.89 466.815 248.826 465.39C244.176 464.876 238.356 467.679 231.987 472.047C226.121 476.069 219.76 481.436 213.383 486.817C212.829 487.285 212.272 487.754 211.718 488.221C204.78 494.067 197.873 499.792 191.586 503.711C185.295 507.633 179.658 509.722 175.254 508.351C152.939 501.248 139.6 475.933 130.951 446.547C123.74 422.047 119.799 394.757 116.642 372.879C116.01 368.504 115.41 364.344 114.818 360.468C111.855 340.711 112.038 320.576 113.894 300.794L113.894 300.793C116.303 274.392 124.317 248.271 139.093 229.116C153.874 209.962 175.433 197.756 204.948 199.235C232.821 200.531 255.156 200.72 276.006 189.406C284.943 184.582 293.511 177.532 302.074 167.702L302.074 167.701C309.675 158.882 316.45 149.317 323.197 139.788C323.969 138.701 324.737 137.615 325.508 136.53C333.031 125.93 340.644 115.482 349.461 106.237C361.706 93.2967 378.205 81.8532 395.989 84.0681L396.003 83.7415L395.989 84.0681C416.188 86.5605 432.83 103.361 446.636 123.427C456.191 137.315 464.372 152.738 471.436 166.056C474.584 171.991 477.51 177.508 480.238 182.285C482.89 186.94 485.575 191.839 488.333 196.869C501.79 221.416 516.958 249.084 538.276 266.783L538.279 266.785C543.117 270.678 548.145 274.203 553.733 276.987C562.695 281.57 571.895 283.225 581.052 284.873C582.645 285.159 584.236 285.445 585.825 285.747C596.555 287.783 607.167 290.51 617.264 298.632ZM617.264 298.632L617.348 298.337" stroke="#12BDA8" stroke-miterlimit="10"/>
<path d="M345.731 91.7954C358.906 77.7438 376.707 65.1903 396.163 67.5904L396.164 67.5904C418.128 70.1757 436.163 88.3652 451.084 110.097C461.413 125.141 470.234 141.853 477.834 156.254C481.218 162.668 484.361 168.624 487.288 173.769C490.09 178.731 492.93 183.956 495.847 189.325C510.331 215.976 526.737 246.166 549.974 265.303L549.974 265.304C555.186 269.568 560.585 273.278 566.541 276.431L566.543 276.432C576.235 281.418 586.233 283.23 596.181 285.033C597.892 285.343 599.602 285.654 601.308 285.98C612.945 288.201 624.439 291.159 635.279 299.928C646.102 308.683 656.109 327.226 661.995 349.066C667.879 370.898 669.631 395.973 663.996 417.802L663.987 417.827C663.818 418.331 663.62 418.922 663.605 419.536C658.979 435.711 651.221 446.208 643.436 454.703C619.122 480.96 586.461 498.337 550.277 488.354L550.276 488.354C546.681 487.411 543.289 489.303 539.557 492.836L539.553 492.838C535.396 496.934 531.153 503.324 526.882 510.54C524.432 514.68 521.963 519.108 519.493 523.539C517.662 526.824 515.83 530.109 514.004 533.28C509.708 540.742 505.433 547.589 501.229 552.398C497.022 557.208 492.911 559.948 488.936 559.266C467.979 555.581 448.003 541.017 428.075 526.488C425.506 524.615 422.938 522.742 420.368 520.894C397.882 504.717 375.307 490.38 351.371 493.72C331.321 496.495 312.607 494.322 294.03 490.898C288.023 489.79 282.029 488.552 276.006 487.308C263.405 484.705 250.682 482.077 237.476 480.573C232.456 480.013 226.149 483.072 219.234 487.839C212.861 492.233 205.942 498.1 199.012 503.979C198.419 504.483 197.827 504.986 197.235 505.488C189.704 511.865 182.212 518.112 175.403 522.383C168.589 526.659 162.501 528.932 157.773 527.423C133.602 519.672 119.238 492.137 109.938 460.227C102.368 434.252 98.1627 405.419 94.7521 382.046C93.9725 376.693 93.2319 371.627 92.5069 366.947M345.731 91.7954L345.634 91.5376M345.731 91.7954C336.263 101.874 328.097 113.155 319.99 124.565C319.374 125.431 318.758 126.297 318.146 127.163C310.658 137.717 303.139 148.312 294.63 158.075L294.626 158.076C285.322 168.647 276.197 176.066 266.519 181.445L266.515 181.445C244.176 193.685 220.17 193.681 190.066 192.2C158.042 190.443 134.721 203.667 118.755 224.441C102.793 245.215 94.1752 273.559 91.5792 302.09L91.5792 302.092C89.5368 323.729 89.1704 345.528 92.5069 366.947M92.5069 366.947L92.3354 367.021" stroke="#12BDA8" stroke-miterlimit="10"/>
<path d="M653.13 301.408C664.696 310.81 675.446 330.788 681.774 354.317C688.1 377.84 689.991 404.859 683.891 428.353C683.796 428.639 683.702 428.967 683.611 429.284C683.518 429.609 683.427 429.924 683.338 430.191L683.334 430.202L683.331 430.214C678.523 447.718 670.197 458.971 661.658 468.218L661.658 468.218C635.672 496.511 600.409 515.184 561.809 504.46L561.806 504.46C558.029 503.519 554.266 505.406 550.341 509.316C545.905 513.737 541.383 520.659 536.83 528.486C534.235 532.948 531.62 537.721 529.003 542.498C527.033 546.093 525.062 549.691 523.096 553.161C518.51 561.259 513.939 568.691 509.43 573.901C504.918 579.113 500.494 582.072 496.194 581.298C473.83 577.217 452.478 561.499 431.163 545.81C428.335 543.728 425.507 541.647 422.678 539.593C398.543 522.074 374.295 506.579 348.594 510.197C326.868 513.25 306.72 510.892 286.743 507.166C280.288 505.962 273.849 504.614 267.378 503.261C253.841 500.428 240.179 497.569 225.964 495.94C220.573 495.333 213.787 498.646 206.346 503.816C199.47 508.59 192.006 514.968 184.526 521.362C183.902 521.895 183.278 522.429 182.655 522.961C174.543 529.882 166.471 536.667 159.135 541.317C151.791 545.972 145.227 548.465 140.125 546.862C114.095 538.556 98.6675 508.8 88.7163 474.322C80.558 446.059 76.095 414.664 72.4973 389.36C71.7021 383.782 70.9537 378.5 70.2132 373.612C66.6895 350.526 67.0597 327.058 69.1022 303.753C71.8814 273.094 81.1505 242.575 98.3245 220.181C115.495 197.787 140.581 183.498 175.023 185.348C207.355 187.014 233.038 187.019 256.862 173.852L256.862 173.851C267.102 168.103 277.154 160.129 287.02 148.63C296.655 137.784 305.051 125.959 313.408 114.187C313.763 113.689 314.114 113.189 314.468 112.691C323.18 100.423 331.908 88.2624 342.026 77.3505L342.026 77.3498C356.129 62.0042 375.416 48.524 396.174 50.9247C419.81 53.6952 439.239 73.2729 455.298 96.6709C466.541 113.051 476.116 131.275 484.329 146.907C487.853 153.616 491.127 159.846 494.173 165.249L494.315 165.024L494.174 165.25C497.313 170.795 500.493 176.647 503.762 182.663C519.249 211.162 536.733 243.338 561.319 264.004L561.32 264.005C566.904 268.641 572.86 272.721 579.189 276.059L579.19 276.059C589.587 281.437 600.325 283.375 611.017 285.306C612.866 285.64 614.713 285.974 616.558 286.325C629.077 288.708 641.454 291.898 653.13 301.408ZM653.13 301.408L653.2 301.165" stroke="#12BDA8" stroke-miterlimit="10"/>
<path d="M123.029 566.303C95.14 557.443 78.6404 525.465 68.0148 488.44C59.3538 458.245 54.6062 424.735 50.7785 397.718C49.9131 391.595 49.0907 385.806 48.2839 380.464C44.577 355.709 44.9434 330.39 47.173 305.605C50.1392 272.723 60.0125 240.029 78.3909 216.061C96.7693 192.093 123.672 176.832 160.714 178.867C195.093 180.719 222.631 180.538 248.127 166.446L248.127 166.445C259.111 160.326 269.721 151.795 280.327 139.557L280.331 139.556C290.15 128.13 298.749 115.773 307.32 103.462C307.92 102.595 308.524 101.728 309.128 100.861C318.304 87.6927 327.542 74.6517 338.308 62.9072C353.342 46.4509 373.93 31.8599 396.361 34.4459C421.763 37.3087 442.585 58.2752 459.759 83.3626C471.835 101.003 482.091 120.653 490.868 137.469C494.58 144.58 498.027 151.184 501.236 156.916C504.489 162.707 507.787 168.811 511.178 175.087C527.719 205.701 546.467 240.4 573.027 262.708C578.985 267.715 585.313 271.98 592.198 275.688L592.199 275.689C603.402 281.588 614.984 283.684 626.522 285.772C628.406 286.113 630.289 286.454 632.169 286.811C645.571 289.356 658.831 292.731 671.344 302.889M123.029 566.303L122.99 566.625M123.029 566.303C128.502 568.044 135.541 565.356 143.411 560.331C151.277 555.31 159.93 547.982 168.622 540.505C169.305 539.916 169.991 539.326 170.677 538.736C178.675 531.843 186.654 524.969 194.001 519.82C201.972 514.235 209.234 510.654 214.999 511.308C230.127 513.052 244.693 516.095 259.131 519.111C266.158 520.579 273.155 522.042 280.171 523.344C301.606 527.323 323.243 529.821 346.548 526.491M346.548 526.491L346.563 526.77M346.548 526.491C373.924 522.595 399.751 539.247 425.49 558.109C428.521 560.33 431.551 562.582 434.582 564.835C457.304 581.722 480.092 598.659 504 603.146C508.531 603.966 513.21 600.778 517.992 595.169C522.772 589.562 527.627 581.57 532.504 572.858C534.595 569.124 536.692 565.253 538.788 561.383C541.573 556.243 544.356 551.106 547.118 546.3C551.964 537.868 556.776 530.402 561.491 525.611L561.493 525.609C565.599 521.518 569.736 519.255 573.705 520.384C615.092 531.848 652.77 511.879 680.428 481.55L680.429 481.548C689.525 471.748 698.407 459.755 703.587 440.957C703.682 440.583 703.776 440.255 703.868 439.934L703.869 439.93C703.962 439.605 704.053 439.288 704.144 438.926L704.144 438.924C710.621 413.758 708.637 384.788 701.915 359.57C695.193 334.351 683.745 312.939 671.344 302.889M671.344 302.889L671.428 302.594" stroke="#12BDA8" stroke-miterlimit="10"/>
<path d="M508.115 148.215L508.114 148.214C504.746 142.186 501.125 135.243 497.224 127.764C487.865 109.82 476.897 88.7913 463.966 69.9166C445.654 43.1858 423.438 20.8305 396.363 17.7824C372.631 15.1965 350.744 30.7129 334.596 48.4651C323.179 61.0428 313.384 74.9629 303.623 88.9202L302.89 89.9727C293.38 103.577 283.869 117.185 272.896 129.56C261.729 142.538 250.562 151.625 238.837 158.114C211.852 172.947 182.642 173.313 146.033 171.276C106.481 169.149 77.8164 185.475 58.2531 211.062C38.6897 236.65 28.2123 271.52 25.0589 306.532C22.6461 332.982 22.2759 359.968 26.3569 386.388C27.2963 392.496 28.2435 399.157 29.2491 406.215C33.3302 434.814 38.3428 469.978 47.3897 501.727C58.6662 541.298 76.1871 575.496 105.932 585.005C111.728 586.884 119.212 584.011 127.584 578.633C135.949 573.26 145.171 565.41 154.429 557.401C155.146 556.779 155.867 556.157 156.584 555.534C165.121 548.14 173.637 540.765 181.48 535.241C189.977 529.256 197.715 525.421 203.85 526.121C219.987 527.99 235.52 531.265 250.916 534.512C258.396 536.089 265.849 537.66 273.321 539.06C296.174 543.34 319.25 546.022 344.134 542.415C373.276 538.148 400.73 556.005 428.095 576.255C431.328 578.648 434.56 581.075 437.794 583.502C461.942 601.628 486.17 619.814 511.623 624.624C516.432 625.537 521.377 622.141 526.423 616.145C531.467 610.151 536.584 601.592 541.728 592.256C543.898 588.317 546.076 584.236 548.254 580.153C551.23 574.574 554.208 568.992 557.17 563.771C562.303 554.721 567.415 546.7 572.455 541.538C576.754 536.884 581.076 534.625 585.413 535.752L585.415 535.753C629.59 547.957 669.498 526.508 699.015 494.326C708.67 483.783 718.111 471.049 723.663 450.951L723.666 450.94L723.669 450.929C723.849 450.393 724.03 449.672 724.217 448.925L724.218 448.923C731.067 422.091 728.943 391.176 721.78 364.269C714.616 337.36 702.425 314.514 689.187 303.815L689.186 303.814C675.838 292.917 661.742 289.31 647.481 286.603C645.453 286.218 643.422 285.851 641.389 285.484C629.132 283.271 616.815 281.047 604.84 274.764C597.581 271.055 590.88 266.419 584.552 261.042C556.481 237.507 536.626 200.738 519.074 168.236C515.335 161.312 511.701 154.582 508.115 148.215Z" stroke="#12BDA8" stroke-miterlimit="10"/>
<path d="M4.23642 393.61C5.24987 400.197 6.27496 407.401 7.36246 415.051C11.6657 445.289 16.9629 482.504 26.501 516.146C38.4518 558.287 57.0407 594.753 88.6445 604.817C94.768 606.789 102.7 603.696 111.595 597.939C120.482 592.186 130.285 583.799 140.139 575.246C140.864 574.617 141.589 573.986 142.314 573.355C151.435 565.426 160.544 557.51 168.925 551.59C177.964 545.203 186.188 541.113 192.698 541.859C209.751 543.844 226.184 547.303 242.481 550.733C250.519 552.426 258.525 554.11 266.554 555.608C290.873 560.144 315.437 562.964 341.9 559.079C372.808 554.534 401.934 573.595 430.949 595.211C434.399 597.782 437.848 600.388 441.298 602.996C466.874 622.327 492.519 641.71 519.425 646.843C525.613 648.031 532.029 642.37 538.583 633.198C545.063 624.131 551.637 611.696 558.214 599.255L558.425 598.857C565.066 586.295 571.709 573.764 578.24 564.793C584.765 555.83 591.223 550.356 597.49 552.046M4.23642 393.61C-0.0317271 365.338 0.338541 336.501 2.93841 308.385C6.36853 271.242 17.4969 234.15 38.2686 206.919C59.0403 179.689 89.4748 162.299 131.533 164.611C187.288 167.759 226.559 165.546 265.829 120.301M4.23642 393.61L4.23642 393.609M597.49 552.046L597.461 552.348M597.49 552.046C644.267 564.806 686.593 542.061 717.782 507.843L717.783 507.842C727.993 496.745 737.992 483.085 743.916 461.69L743.916 461.69C751.877 433.101 749.847 399.829 742.265 370.794C734.683 341.756 721.563 317.013 707.396 305.482C693.211 293.935 678.233 290.098 663.088 287.205C660.951 286.797 658.811 286.408 656.669 286.018C643.639 283.648 630.552 281.267 617.844 274.578C575.949 252.602 549.477 203.381 526.697 161.024C522.766 153.713 518.944 146.608 515.173 139.882L515.172 139.882C511.613 133.5 507.781 126.135 503.648 118.193C493.731 99.1379 482.087 76.7616 468.353 56.678C448.902 28.2344 425.292 4.44498 396.545 1.30333C371.141 -1.4672 347.953 15.1592 330.873 34.0228M330.873 34.0228L330.768 33.7499M330.873 34.0228C318.805 47.3414 308.453 62.0947 298.162 76.9311C297.694 77.6053 297.227 78.2794 296.759 78.9535C286.94 93.1171 277.106 107.3 265.829 120.301M265.829 120.301L265.72 120.032" stroke="#12BDA8" stroke-miterlimit="10"/>
</g>
</svg>
