<svg width="962" height="934" viewBox="0 0 962 934" fill="none" xmlns="http://www.w3.org/2000/svg">
<g opacity="0.16">
<path d="M471.74 510.675L471.741 510.672C472.984 509.066 473.792 507.573 474.261 506.184C474.729 504.796 474.867 503.489 474.737 502.248C474.482 499.759 473.16 497.566 471.356 495.619C469.556 493.676 467.298 491.999 465.203 490.523C464.847 490.271 464.496 490.026 464.151 489.786C462.479 488.618 460.988 487.578 460.051 486.635L460.049 486.633C456.688 483.149 452.352 481.695 448.052 480.253C447.917 480.208 447.782 480.162 447.648 480.117C443.225 478.631 438.872 477.092 435.783 473.26L435.781 473.258C433.107 469.813 428.669 468.304 423.857 468.908C422.836 469.179 421.625 469.508 420.557 470.304C419.108 471.442 418.279 473.199 417.973 475.023C417.666 476.852 417.898 478.697 418.551 479.903C419.259 481.044 420.253 481.883 421.306 482.704C421.443 482.811 421.58 482.916 421.718 483.023C422.64 483.736 423.583 484.464 424.371 485.389L424.372 485.39C426.727 488.199 427.394 492.878 428.043 497.427C428.122 497.978 428.2 498.528 428.282 499.072C429.037 504.136 430.024 508.733 433.517 510.332L433.519 510.332C435.82 511.451 438.691 510.96 441.673 510.252C442.096 510.151 442.521 510.047 442.947 509.941C445.511 509.309 448.105 508.669 450.366 508.952L450.366 508.952C452.295 509.197 453.906 510.076 455.451 511.076C455.838 511.325 456.22 511.583 456.602 511.84C457.754 512.615 458.905 513.39 460.175 513.964L460.178 513.965L460.181 513.966C461.813 514.804 463.864 515.091 465.931 514.608C467.997 514.125 470.054 512.878 471.74 510.675Z" stroke="#828282" stroke-miterlimit="10"/>
<path d="M417.487 498.599L417.488 498.603C417.595 499.93 417.67 501.354 417.747 502.826C417.881 505.366 418.023 508.055 418.35 510.662C418.866 514.765 419.839 518.603 421.946 521.191C423.938 523.605 426.594 524.51 429.635 524.78C432.177 524.977 434.909 524.488 437.793 523.754C439.11 523.419 440.456 523.035 441.829 522.643C441.961 522.605 442.092 522.567 442.224 522.529C443.733 522.098 445.275 521.663 446.84 521.281C449.638 520.537 452.264 520.11 454.684 520.426C457.485 520.641 459.917 521.671 462.299 522.992C463.382 523.594 464.461 524.259 465.556 524.934C465.666 525.002 465.772 525.067 465.878 525.133C467.09 525.879 468.326 526.632 469.635 527.335C477.085 531.424 486.044 528.319 491.882 520.39C493.846 517.721 495.396 515.035 496.539 512.33C499.734 504.209 501.571 493.676 496.25 487.862C495.031 486.535 492.755 486.105 490.372 485.749C490.165 485.718 489.957 485.688 489.749 485.658C487.591 485.342 485.432 485.029 484.095 484.058L484.093 484.057C482.365 482.759 480.72 481.459 479.131 480.202C476.169 477.86 473.399 475.67 470.635 473.935L470.632 473.934C466.992 471.543 463.837 468.613 460.726 465.724C460.371 465.395 460.018 465.066 459.664 464.738C456.201 461.536 452.73 458.468 448.629 456.313C446.679 455.292 444.221 455.139 441.707 455.026C441.585 455.021 441.463 455.015 441.341 455.01C438.959 454.905 436.548 454.799 434.557 453.959C433.805 453.743 433.307 453.454 432.744 452.91L432.741 452.907C428.066 448.086 421.369 446.766 414.503 448.323L414.498 448.324C412.587 448.698 410.671 449.477 408.714 451.055L408.661 451.098L408.607 451.113C408.55 451.127 408.512 451.138 408.483 451.147L408.443 451.215L408.387 451.266C405.76 453.666 404.071 457.203 403.303 460.722C402.535 464.243 402.703 467.696 403.755 469.871L403.757 469.877C404.624 471.85 406 473.227 407.493 474.489C407.874 474.811 408.263 475.126 408.653 475.442C409.785 476.357 410.923 477.278 411.885 478.394C412.668 479.274 413.295 480.067 413.829 481.026C416.347 485.369 416.842 491.125 417.315 496.632C417.372 497.292 417.428 497.949 417.487 498.599Z" stroke="#828282" stroke-miterlimit="10"/>
<path d="M413.538 535.359L413.539 535.36C416.88 538.77 421.212 539.37 425.615 539.145C429.139 538.949 432.796 537.977 436.574 536.769C437.935 536.335 439.314 535.868 440.708 535.396C443.174 534.561 445.687 533.71 448.229 532.991C451.893 531.881 455.344 531.509 458.514 531.62L458.518 531.621C462.274 531.851 465.564 533.162 468.788 534.889C470.4 535.753 471.997 536.722 473.626 537.712L473.723 537.771C475.322 538.743 476.957 539.738 478.671 540.676C490.714 547.202 503.478 541.606 511.77 530.175C514.586 526.038 517.212 521.848 518.862 517.533L518.862 517.526C523.545 505.703 528.656 488.352 520.78 479.575C519.946 478.681 518.584 478.201 516.917 477.946C515.258 477.695 513.315 477.669 511.344 477.668C511.137 477.669 510.926 477.668 510.715 477.667C508.954 477.668 507.19 477.668 505.619 477.52C503.861 477.353 502.32 476.998 501.277 476.231L501.274 476.229C498.877 474.425 496.616 472.587 494.411 470.794C489.863 467.095 485.546 463.585 480.721 460.943C474.971 457.837 470.745 452.66 466.601 447.436C466.438 447.23 466.274 447.024 466.11 446.817C462.13 441.792 458.173 436.799 452.949 433.578L452.948 433.577C450.708 432.179 447.245 432.591 443.581 433.26C443.028 433.361 442.47 433.467 441.912 433.574C438.799 434.17 435.67 434.77 433.232 434.371C432.228 434.225 431.306 433.915 430.571 433.27L430.568 433.267L430.565 433.263C423.85 426.409 414.322 425.161 405.082 427.484C402.311 428.221 399.543 429.362 396.62 431.871L396.49 431.982L396.402 431.931C396.395 431.942 396.388 431.954 396.38 431.968L396.34 432.038L396.286 432.088C392.465 435.622 389.906 440.854 388.668 446.028C387.43 451.203 387.528 456.267 388.979 459.417L388.981 459.421C390.248 462.373 392.232 464.369 394.377 466.221C394.833 466.615 395.298 467.003 395.763 467.393C397.481 468.828 399.223 470.283 400.693 472.147L400.695 472.15C401.547 473.285 402.471 474.679 403.141 476.145C406.362 483.051 406.746 491.823 407.093 499.76C407.131 500.616 407.168 501.462 407.208 502.296L407.208 502.298C407.278 504.011 407.299 505.883 407.322 507.847C407.365 511.696 407.414 515.9 407.836 519.962C408.473 526.081 409.957 531.809 413.538 535.359Z" stroke="#828282" stroke-miterlimit="10"/>
<path d="M396.738 506.305L396.503 506.444M396.738 506.305C396.823 508.533 396.837 511.005 396.851 513.62C396.878 518.623 396.908 524.15 397.448 529.495C398.269 537.617 400.266 545.242 405.2 549.788C409.664 553.849 415.835 554.234 421.598 553.513C426.104 552.923 430.685 551.468 435.333 549.825C436.46 549.427 437.592 549.017 438.728 548.606C442.267 547.324 445.842 546.03 449.435 545.024C454.205 543.483 458.416 542.908 462.418 543.071C470.461 543.421 477.024 547.459 484.346 551.966C485.449 552.645 486.567 553.334 487.71 554.021C503.719 563.689 520.659 554.959 531.412 540.015L531.415 540.01C535.366 534.639 538.675 528.908 541 523.042C544.024 515.387 547.67 505.462 549.237 495.998C550.802 486.543 550.292 477.564 545.024 471.768C543.945 470.574 542.081 470.013 539.782 469.801C537.488 469.588 534.785 469.725 532.042 469.892C531.757 469.91 531.472 469.928 531.187 469.946C528.731 470.099 526.28 470.253 524.114 470.177C521.7 470.093 519.614 469.722 518.268 468.726C514.933 466.223 511.847 463.648 508.834 461.133C502.892 456.175 497.236 451.456 490.545 448.018C483.121 444.268 478.047 437.205 473.157 429.973C472.813 429.464 472.47 428.954 472.126 428.445C467.59 421.706 463.082 415.011 456.854 410.82C454.187 409.072 449.75 410.073 444.987 411.527C444.137 411.786 443.276 412.06 442.415 412.335C438.487 413.585 434.543 414.841 431.483 414.755L431.476 414.755L431.47 414.754L431.438 414.751C430.059 414.584 428.617 414.411 427.806 413.5C419.21 404.707 407.106 403.465 395.236 406.622C391.714 407.559 387.862 409.121 384.151 412.621C384.096 412.696 384.037 412.748 383.995 412.783C383.939 412.83 383.878 412.869 383.839 412.895C383.794 412.924 383.768 412.942 383.748 412.957L383.729 412.991L383.681 413.039C378.778 417.878 375.428 424.854 373.739 431.696C372.049 438.539 372.035 445.194 373.761 449.356L373.762 449.357C375.383 453.366 378.014 456.003 380.843 458.437C381.395 458.911 381.954 459.379 382.515 459.847C384.824 461.775 387.155 463.721 389.056 466.288L389.058 466.292L389.061 466.294L389.066 466.303C390.208 468.027 391.361 469.767 392.167 471.739C396.087 480.318 396.345 491.032 396.581 500.831C396.626 502.696 396.67 504.528 396.738 506.305Z" stroke="#828282" stroke-miterlimit="10"/>
<path d="M396.803 563.965C402.621 569.022 410.471 569.098 417.593 567.881C423.08 566.895 428.586 564.957 434.177 562.843C435.179 562.465 436.183 562.08 437.19 561.694C441.804 559.929 446.484 558.138 451.25 556.758C457.03 554.948 462.003 554.17 466.839 554.385C476.979 554.852 485.327 560.038 494.958 566.019C495.687 566.472 496.422 566.929 497.169 567.39C517.334 579.884 538.424 568.426 551.724 549.819C556.52 542.992 560.819 535.913 563.65 528.428L563.649 528.423L563.661 528.395C567.34 518.864 572.194 506.287 574.479 494.283C576.766 482.277 576.478 470.871 569.884 463.669C568.527 462.208 566.146 461.599 563.199 461.449C560.256 461.3 556.782 461.612 553.267 461.962C552.943 461.993 552.618 462.025 552.297 462.059C549.106 462.379 545.92 462.698 543.125 462.697C540.051 462.696 537.425 462.311 535.777 461.087C531.534 457.968 527.633 454.66 523.796 451.405C522.11 449.975 520.436 448.556 518.75 447.166C513.226 442.615 507.577 438.393 500.955 435.21C491.811 430.896 485.929 421.972 480.325 412.725C479.843 411.931 479.364 411.135 478.886 410.338C473.78 401.852 468.695 393.4 461.343 388.181C459.824 387.095 457.695 386.948 455.196 387.36C452.696 387.772 449.843 388.741 446.889 389.865C445.772 390.291 444.638 390.739 443.505 391.188C441.651 391.921 439.797 392.655 438.016 393.286C435.143 394.305 432.429 395.072 430.15 395.162L430.146 395.163L430.142 395.162C428.226 395.128 426.778 394.959 425.639 393.861L425.637 393.859C414.997 383.028 400.152 381.701 385.817 385.784L385.813 385.784C381.534 386.923 376.831 388.846 372.153 393.277C372.021 393.48 371.876 393.603 371.776 393.682C371.733 393.716 371.707 393.734 371.686 393.751C371.675 393.76 371.665 393.767 371.654 393.777C371.653 393.778 371.651 393.779 371.65 393.78L371.63 393.816L371.582 393.863C365.395 399.995 361.154 408.704 358.994 417.197C356.834 425.692 356.77 433.92 358.896 439.06L358.897 439.061C360.917 444.049 364.22 447.287 367.734 450.303C368.301 450.791 368.874 451.272 369.449 451.755C372.421 454.253 375.418 456.771 377.774 460.201C379.315 462.377 380.605 464.624 381.549 467.105C386.125 478.01 386.26 491.696 386.381 503.942C386.402 506.008 386.422 508.032 386.462 509.996C386.533 512.639 386.513 515.606 386.491 518.768C386.449 525.007 386.401 532.005 387.033 538.767C387.984 548.94 390.47 558.502 396.803 563.965Z" stroke="#828282" stroke-miterlimit="10"/>
<path d="M376.245 513.934L376.245 513.935C376.285 516.912 376.226 520.251 376.163 523.814C376.03 531.385 375.879 539.969 376.615 548.256C377.699 560.428 380.697 571.888 388.466 578.394C395.409 584.102 404.848 584.028 413.582 582.247C420.05 580.865 426.456 578.484 432.927 575.916C434.142 575.433 435.36 574.945 436.58 574.453C441.854 572.334 447.191 570.192 452.634 568.466C459.272 566.293 465.167 565.406 470.667 565.578L470.671 565.579C483.305 566.109 493.563 572.562 505.753 580.23L506.295 580.571C518.461 588.234 530.817 588.49 542.089 584.074C553.36 579.659 563.569 570.568 571.453 559.5C577.24 551.325 582.373 542.8 585.878 533.774L585.88 533.772C585.996 533.485 586.11 533.194 586.225 532.901C590.635 521.763 596.472 507.014 599.382 492.86C602.366 478.345 602.262 464.485 594.381 455.793C592.753 454.068 589.851 453.411 586.259 453.326C582.668 453.24 578.422 453.726 574.132 454.257C573.768 454.302 573.405 454.347 573.041 454.392C569.114 454.879 565.196 455.366 561.776 455.443C558.046 455.527 554.876 455.124 552.928 453.673C548.061 450.012 543.59 446.155 539.198 442.366C536.968 440.442 534.757 438.535 532.524 436.68C525.894 431.169 519.068 426.108 510.938 422.375L510.937 422.374C500.249 417.383 493.601 406.624 487.291 395.392C486.715 394.366 486.141 393.335 485.567 392.305C479.856 382.05 474.149 371.8 465.662 365.447L465.661 365.447C463.95 364.145 461.472 364.031 458.525 364.631C455.579 365.232 452.188 366.542 448.67 368.063C447.182 368.705 445.667 369.389 444.155 370.07C442.106 370.993 440.064 371.914 438.104 372.729C434.69 374.148 431.477 375.269 428.812 375.568C426.432 375.925 424.664 375.567 423.367 374.378L423.364 374.376L423.362 374.374C410.84 361.602 393.002 360.255 376.292 365.105C371.154 366.607 365.595 368.895 359.943 374.268C359.893 374.337 359.84 374.392 359.802 374.43C359.745 374.486 359.68 374.544 359.627 374.59C359.57 374.64 359.525 374.681 359.489 374.717C359.47 374.735 359.46 374.747 359.456 374.751L359.428 374.8L359.38 374.847C351.957 382.19 346.865 392.652 344.242 402.831C341.62 413.011 341.482 422.853 343.929 428.925C346.384 435.018 350.376 438.921 354.593 442.531C355.263 443.104 355.938 443.67 356.614 444.237C360.187 447.231 363.77 450.233 366.549 454.364C368.322 456.89 369.746 459.644 370.917 462.464L370.917 462.465C376.161 475.226 376.175 490.961 376.188 505.161C376.19 508.168 376.193 511.107 376.245 513.934Z" stroke="#828282" stroke-miterlimit="10"/>
<path d="M328.703 418.854L328.703 418.855C331.478 425.88 336.078 430.402 340.967 434.614C341.734 435.274 342.508 435.927 343.283 436.581C347.443 440.091 351.636 443.628 354.904 448.498C356.906 451.371 358.629 454.725 359.936 458.054C366.092 473.521 365.94 492.561 365.806 509.522C365.783 512.397 365.761 515.212 365.769 517.941C365.796 521.285 365.712 525.051 365.622 529.082C365.424 537.911 365.197 548.017 366.046 557.764C367.282 571.948 370.793 585.307 379.963 592.729C388.26 599.434 399.471 598.89 409.567 596.611C416.968 594.914 424.257 592.028 431.589 588.941C432.844 588.413 434.102 587.878 435.361 587.343C441.452 584.753 447.595 582.142 453.858 580.08C461.353 577.545 468.17 576.549 474.497 576.771C489.072 577.252 500.893 584.724 515.16 593.816C529.453 602.815 543.871 603.031 556.979 597.805C570.086 592.581 581.904 581.91 591.012 569.089C597.545 559.63 603.604 549.501 607.781 538.937C608.128 538.064 608.483 537.169 608.845 536.253C613.876 523.562 620.451 506.991 623.899 491.032C627.596 473.933 627.696 457.576 618.485 447.477L618.485 447.476C616.628 445.408 613.235 444.65 609.011 444.599C604.792 444.548 599.78 445.199 594.715 445.911C594.231 445.978 593.75 446.047 593.265 446.115C588.684 446.762 584.12 447.408 580.139 447.568C575.743 447.746 572.023 447.335 569.778 445.658C564.016 441.388 558.728 436.802 553.51 432.275C551.033 430.127 548.571 427.991 546.082 425.91C538.345 419.439 530.322 413.473 520.687 409.191L520.686 409.191C508.281 403.638 500.786 390.996 493.742 377.737C493.04 376.415 492.342 375.087 491.644 373.759C485.338 361.756 479.041 349.77 469.496 342.435C467.586 341.02 464.757 341.005 461.366 341.835C457.976 342.665 454.048 344.334 449.966 346.249C448.249 347.056 446.501 347.908 444.754 348.759C442.364 349.924 439.978 351.086 437.686 352.125C433.713 353.925 429.976 355.373 426.883 355.853C424.261 356.276 421.973 356.062 420.599 354.608C406.195 339.896 385.781 338.555 366.443 344.239C360.452 346.103 354.041 348.752 347.422 355.057C347.297 355.251 347.158 355.373 347.064 355.457L347.052 355.466C346.938 355.568 346.887 355.618 346.843 355.694L346.808 355.755L346.761 355.802C338.181 364.403 332.237 376.62 329.152 388.483C326.067 400.348 325.857 411.803 328.703 418.854Z" stroke="#828282" stroke-miterlimit="10"/>
<path d="M371.728 607.002L371.729 607.003C381.017 614.484 393.994 613.763 405.412 611.018C413.599 609.05 421.978 605.63 430.398 602.031C431.535 601.543 432.673 601.052 433.815 600.564C441.094 597.428 448.392 594.291 455.582 591.979C464.084 589.172 471.663 587.973 478.823 588.248C495.147 588.67 508.417 596.978 524.618 607.186C540.943 617.679 557.439 617.919 572.423 611.907C587.408 605.895 600.898 593.622 611.237 579.051L611.238 579.049C619.013 568.178 625.905 556.607 630.594 544.416L630.595 544.415C631.283 542.638 632.013 540.782 632.77 538.855C638.304 524.747 645.315 506.882 649.184 489.618C653.578 470.009 653.904 451.22 643.41 439.631C641.359 437.345 637.496 436.567 632.653 436.597C627.82 436.628 622.043 437.459 616.203 438.351C615.743 438.423 615.28 438.493 614.82 438.564C609.439 439.387 604.065 440.213 599.393 440.447C594.33 440.704 590.061 440.271 587.515 438.367C580.861 433.433 574.797 428.12 568.816 422.88C566.048 420.456 563.298 418.047 560.517 415.699C551.721 408.273 542.594 401.443 531.53 396.598C517.066 390.264 508.78 375.802 501.081 360.584C500.274 358.989 499.474 357.386 498.673 355.782C491.831 342.078 484.993 328.381 474.147 319.892C472.004 318.236 468.806 318.259 464.964 319.291C461.122 320.324 456.662 322.357 452.02 324.685C450.119 325.639 448.184 326.644 446.25 327.648C443.475 329.089 440.703 330.528 438.038 331.813C433.509 333.996 429.244 335.755 425.707 336.354C422.725 337.009 420.283 336.696 418.591 335.063L418.588 335.061C402.141 318.313 378.892 317.046 357.179 323.498C350.412 325.568 342.882 328.655 335.534 335.857L335.506 335.885L335.475 335.905C335.341 335.993 335.238 336.098 335.104 336.236L335.097 336.244C334.973 336.371 334.824 336.526 334.632 336.658C324.831 346.47 318.005 360.403 314.442 373.925C310.874 387.461 310.59 400.531 313.837 408.56L313.838 408.562C316.967 416.647 322.215 421.81 327.787 426.603C328.66 427.353 329.54 428.095 330.421 428.837C335.164 432.831 339.934 436.848 343.619 442.412C345.918 445.881 347.87 449.581 349.316 453.419C356.1 470.893 355.894 492.264 355.709 511.364C355.675 514.908 355.642 518.374 355.654 521.722C355.68 525.67 355.559 530.138 355.43 534.925C355.16 544.89 354.853 556.242 355.757 567.191C357.093 583.383 361.076 598.617 371.728 607.002Z" stroke="#828282" stroke-miterlimit="10"/>
<path d="M478.469 297.156C474.917 294.295 470.104 294.83 464.649 297.062C459.334 299.236 453.437 303.01 447.54 306.783L447.053 307.095C441.006 310.962 434.975 314.784 429.651 316.769C424.317 318.757 419.667 318.912 416.408 315.412C397.916 296.63 371.928 295.278 347.75 302.657C339.619 305.253 330.736 309.12 322.949 317.108C312.308 328.021 304.374 343.253 300.089 358.312C295.805 373.371 295.18 388.22 299.126 398.356C302.702 407.339 308.622 413.105 314.877 418.479C315.799 419.272 316.729 420.056 317.659 420.84C323.034 425.373 328.435 429.928 332.581 436.25C345.795 456.199 345.601 487.201 345.411 517.461C345.394 520.117 345.378 522.768 345.37 525.404C345.369 530.416 345.285 535.546 345.2 540.711C344.972 554.585 344.74 568.713 346.096 581.496C347.955 599.024 352.797 613.978 364.714 622.192C376.57 630.365 391.729 628.417 407.886 623.079C415.966 620.41 424.287 616.896 432.569 613.381L433.236 613.098C441.287 609.678 449.293 606.28 456.971 603.685C466.423 600.355 474.924 599.047 482.752 599.28C500.894 599.898 515.864 608.972 533.744 620.365C552.197 632.192 570.751 632.391 587.571 625.569C604.391 618.747 619.496 604.894 631.059 588.57L631.061 588.567C647.205 566.07 662.766 533.707 671.115 503.483C679.467 473.254 680.584 445.242 667.937 431.342C665.612 428.789 661.228 427.964 655.737 428.057C650.255 428.151 643.709 429.159 637.091 430.23C636.589 430.312 636.087 430.394 635.585 430.476C629.471 431.469 623.366 432.463 618.071 432.777C612.348 433.117 607.539 432.668 604.692 430.537C597.392 425.103 590.706 419.229 584.091 413.419C580.842 410.565 577.607 407.725 574.332 404.963C564.374 396.569 553.978 388.859 541.332 383.479C525.621 376.768 516.489 360.451 507.994 343.201C507.075 341.333 506.162 339.454 505.25 337.575C497.729 322.088 490.207 306.596 478.469 297.156Z" stroke="#828282" stroke-miterlimit="10"/>
<path d="M486.566 610.89C506.461 611.45 522.971 621.201 542.69 633.868C563.351 647.078 583.984 647.302 602.649 639.701C621.31 632.099 638.029 616.667 650.862 598.509C660.466 584.843 669.026 570.384 675.059 555.117C676.155 552.315 677.336 549.34 678.573 546.224C685.43 528.952 694.013 507.335 698.949 486.407C704.774 461.717 705.509 438.039 692.35 423.629C689.773 420.772 684.885 419.868 678.762 420.005C672.644 420.139 665.335 421.308 657.947 422.55C657.364 422.648 656.78 422.747 656.197 422.846C649.395 423.994 642.607 425.14 636.729 425.53C630.347 425.951 624.995 425.483 621.851 423.127C613.66 417.029 606.209 410.437 598.848 403.923C595.283 400.767 591.738 397.63 588.137 394.575C577.105 385.213 565.555 376.623 551.321 370.647C533.941 363.293 524.002 345.119 514.782 325.873C513.778 323.777 512.782 321.668 511.786 319.558C503.632 302.288 495.47 285 482.543 274.495C480.03 272.468 476.156 272.601 471.446 274.037C466.737 275.473 461.226 278.201 455.473 281.317C453.052 282.628 450.584 284.009 448.116 285.391C444.735 287.285 441.354 289.178 438.099 290.886C432.462 293.843 427.153 296.271 422.762 297.234C419.025 298.091 415.906 297.826 413.98 295.839C393.767 275.208 365.039 273.769 338.232 281.982C329.854 284.617 320.523 288.589 311.232 297.666L311.203 297.694L311.172 297.714C311.051 297.794 310.935 297.922 310.771 298.108L310.757 298.124C310.619 298.282 310.441 298.483 310.238 298.626C298.046 310.905 289.564 328.267 285.109 345.097C280.651 361.942 280.244 378.2 284.165 388.222C288.094 398.266 294.663 404.672 301.602 410.629C302.631 411.512 303.668 412.385 304.705 413.259C310.661 418.274 316.64 423.309 321.201 430.323L321.203 430.326C323.867 434.648 326.185 439.2 328.064 444.142L328.064 444.143C336.183 465.806 335.73 492.217 335.326 515.734C335.246 520.405 335.168 524.962 335.159 529.346C335.146 533.998 334.966 539.261 334.773 544.912C334.344 557.462 333.85 571.928 334.969 585.869C336.59 606.073 341.599 625.105 355.089 635.45L355.089 635.45C366.902 644.613 383.387 643.482 397.653 639.553L458.146 616.008L458.183 615.717C458.186 615.719 458.187 615.719 458.187 615.719C468.65 612.119 477.912 610.608 486.566 610.89ZM486.566 610.89L486.464 611.192" stroke="#828282" stroke-miterlimit="10"/>
<path d="M393.646 653.919L393.647 653.918C404.925 650.716 415.815 645.955 426.72 641.054C427.65 640.636 428.58 640.217 429.511 639.798C439.487 635.303 449.501 630.791 459.836 627.359C471.314 623.491 481.494 621.87 490.817 622.11C512.553 622.45 530.515 633.039 552.072 646.981C574.687 661.64 597.359 661.864 617.877 653.463C638.398 645.064 656.788 628.031 670.848 608.122C681.357 593.265 690.907 577.455 697.547 560.405L697.547 560.404C698.806 557.171 700.178 553.727 701.618 550.11C709.127 531.25 718.509 507.687 723.967 484.841C730.469 457.629 731.39 431.493 716.948 415.595C714.093 412.471 708.684 411.519 701.912 411.719C695.149 411.918 687.068 413.262 678.906 414.685C678.28 414.794 677.655 414.903 677.029 415.012C669.497 416.332 661.978 417.648 655.474 418.115C648.435 418.621 642.544 418.136 639.099 415.553C629.955 408.814 621.656 401.469 613.444 394.199C609.623 390.816 605.816 387.446 601.954 384.165C589.792 373.83 577.048 364.337 561.305 357.811C542.212 349.895 531.466 329.865 521.532 308.603C520.434 306.253 519.346 303.888 518.257 301.522C509.492 282.47 500.713 263.387 486.615 251.831L486.614 251.83C482.311 248.261 476.511 248.956 469.942 251.792C463.456 254.592 456.248 259.467 449.027 264.35L448.722 264.556C441.411 269.5 434.097 274.422 427.58 277.109C421.054 279.8 415.3 280.258 411.136 276.239L411.134 276.237C388.877 253.569 357.315 252.206 328.134 261.186C318.996 264.023 308.811 268.358 298.55 278.372L298.543 278.379L298.535 278.386C298.338 278.56 298.199 278.717 298.044 278.894L298.041 278.898C297.888 279.071 297.719 279.264 297.484 279.473C284.126 293.011 274.786 312.135 269.867 330.657C264.946 349.186 264.465 367.059 268.786 378.06C273.116 389.083 280.334 396.131 287.945 402.69C289.056 403.648 290.176 404.595 291.296 405.542C297.842 411.08 304.409 416.634 309.402 424.365C312.552 428.97 315.008 434.03 317.022 439.478C326.082 463.341 325.442 492.55 324.875 518.397C324.764 523.447 324.656 528.37 324.624 533.099C324.624 538.314 324.425 544.25 324.212 550.636C323.753 564.326 323.226 580.092 324.434 595.287C326.206 617.556 331.704 638.526 346.595 649.787C359.856 659.788 377.932 658.504 393.646 653.919Z" stroke="#828282" stroke-miterlimit="10"/>
<path d="M253.91 367.762C249.269 355.829 249.824 336.341 255.207 316.128C260.588 295.921 270.78 275.044 285.372 260.296L285.393 260.277C285.791 259.925 286.259 259.512 286.579 258.988C297.793 248.07 308.815 243.381 318.793 240.186C350.44 230.279 384.741 231.727 409.043 256.429C411.362 258.858 415.152 259.078 419.743 257.857C424.966 256.571 431.311 253.484 438.06 249.748C441.936 247.603 445.961 245.233 449.99 242.862C452.971 241.107 455.954 239.351 458.879 237.684C465.772 233.757 472.37 230.308 477.984 228.454C483.6 226.599 488.195 226.353 491.119 228.777C506.252 241.393 515.65 262.195 525.03 282.959C526.228 285.611 527.426 288.263 528.636 290.897C539.307 314.134 550.882 335.981 571.567 344.494L571.704 344.226L571.567 344.494C588.813 351.567 602.735 361.902 615.985 373.184C620.369 376.918 624.679 380.756 629.014 384.614C637.775 392.414 646.631 400.298 656.366 407.564C660.136 410.335 666.578 410.816 674.277 410.218C681.369 409.668 689.561 408.201 697.774 406.729C698.488 406.601 699.205 406.474 699.918 406.346C708.849 404.752 717.694 403.247 725.098 402.997C732.507 402.746 738.433 403.755 741.562 407.145C757.336 424.453 756.23 453.046 749.027 482.821C743.022 507.643 732.79 533.248 724.585 553.773C722.945 557.878 721.385 561.78 719.959 565.434C712.647 584.024 702.421 601.37 690.923 617.574L690.922 617.575C675.636 639.235 655.634 657.85 633.26 667.05C610.882 676.248 586.109 676.039 561.288 660C537.797 644.941 518.549 633.61 494.836 632.983C484.683 632.692 473.739 634.514 461.407 638.745L461.407 638.746C450.415 642.583 439.766 647.479 429.158 652.358C427.946 652.914 426.738 653.47 425.527 654.024C413.712 659.442 401.895 664.684 389.637 668.282C372.562 673.366 352.552 675.027 338.258 664.217L338.082 664.493L338.258 664.217C322.011 651.959 316 629.089 314.076 604.808C312.745 588.003 313.372 570.556 313.913 555.49C314.154 548.776 314.379 542.535 314.405 537.034C314.436 531.677 314.559 526.092 314.686 520.357C315.306 492.37 316.004 460.824 306.391 434.838L306.39 434.835C304.146 429.045 301.555 423.478 298.107 418.272C292.637 409.822 285.497 403.789 278.391 397.784C277.155 396.739 275.92 395.696 274.695 394.64C266.42 387.511 258.594 379.844 253.91 367.762ZM253.91 367.762L253.689 367.975" stroke="#828282" stroke-miterlimit="10"/>
<path d="M385.646 682.652C367.211 688.234 345.518 690.205 329.868 678.398L329.868 678.398C312.139 665.177 305.615 640.407 303.559 614.126C302.135 595.933 302.853 577.05 303.472 560.778C303.747 553.531 304.003 546.802 304.042 540.883C304.096 535.184 304.249 529.239 304.407 523.131C305.189 492.809 306.076 458.46 295.521 430.269L295.521 430.268C293.14 423.969 290.319 418.057 286.737 412.348L286.736 412.347C280.835 403.182 273.083 396.614 265.369 390.078C264.043 388.954 262.717 387.831 261.402 386.695C252.435 378.953 243.96 370.644 238.957 357.629C233.962 344.636 234.567 323.574 240.389 301.718C246.21 279.868 257.23 257.277 273.024 241.19L273.045 241.173C273.443 240.82 273.91 240.408 274.23 239.884C286.324 228.188 298.291 222.977 309.281 219.512C343.465 208.93 380.439 210.212 406.784 236.95L406.785 236.95C409.426 239.564 413.31 239.622 418.309 238.428L418.313 238.428C423.962 236.959 430.831 233.547 438.137 229.433C442.329 227.073 446.682 224.472 451.036 221.87C454.264 219.941 457.494 218.012 460.66 216.179C468.111 211.865 475.237 208.072 481.283 206.01C487.331 203.947 492.261 203.63 495.362 206.208C511.67 219.878 521.687 242.478 531.681 265.025C532.969 267.932 534.257 270.838 535.558 273.723C546.943 298.976 559.325 322.68 581.724 331.755C600.476 339.377 615.596 350.616 629.972 362.87C634.62 366.832 639.193 370.902 643.786 374.99C653.398 383.545 663.103 392.182 673.787 400.088C677.855 403.083 684.846 403.588 693.218 402.917C700.934 402.298 709.859 400.676 718.801 399.05C719.566 398.91 720.331 398.771 721.095 398.632C730.805 396.874 740.416 395.21 748.449 394.916C756.488 394.62 762.897 395.695 766.237 399.367C783.294 418.164 781.966 449.192 774.065 481.477C767.633 507.757 756.859 534.83 748.126 556.777C746.125 561.803 744.233 566.56 742.521 570.976M385.646 682.652L385.602 682.924M385.646 682.652C398.885 678.658 411.598 672.971 424.324 667.143C425.29 666.702 426.256 666.26 427.22 665.815C438.981 660.419 450.79 655.004 463.041 650.803L463.045 650.804C476.388 646.301 488 644.438 499.071 644.62L499.075 644.621C524.54 645.19 545.329 657.197 570.659 673.531C597.514 691.066 624.323 691.273 648.537 681.265C672.747 671.255 694.382 651.018 710.896 627.608L710.897 627.606C723.484 609.889 734.701 591.194 742.521 570.976M742.521 570.976L742.707 570.997" stroke="#828282" stroke-miterlimit="10"/>
<path d="M224.238 347.424C218.923 333.498 219.602 310.822 225.887 287.281C232.17 263.746 244.042 239.402 261.072 222.105C261.297 221.906 261.542 221.669 261.779 221.44C262.023 221.204 262.258 220.977 262.469 220.791L262.478 220.783L262.487 220.774C275.403 208.019 288.239 202.437 300.258 198.698L300.259 198.698C336.909 187.188 376.784 188.649 404.851 217.235L404.853 217.238C407.654 219.941 411.856 220.188 417.21 218.764C423.263 217.154 430.64 213.42 438.496 208.918C442.974 206.352 447.625 203.526 452.281 200.697C455.784 198.569 459.29 196.438 462.728 194.416C470.749 189.696 478.423 185.546 484.933 183.288C491.446 181.03 496.757 180.679 500.094 183.5C517.421 198.216 528.054 222.504 538.669 246.749C540.077 249.966 541.485 253.182 542.908 256.375C555.051 283.615 568.302 309.158 592.369 318.875C612.711 327.095 628.981 339.211 644.418 352.425C649.406 356.696 654.309 361.082 659.236 365.49C669.543 374.712 679.945 384.019 691.441 392.537C695.806 395.759 703.34 396.282 712.369 395.526C720.711 394.828 730.364 393.037 740.039 391.24C740.846 391.09 741.652 390.94 742.459 390.791C752.944 388.853 763.327 387.013 772.005 386.654C780.693 386.294 787.624 387.417 791.241 391.357C809.631 411.565 808.113 445.048 799.492 479.883C792.426 508.439 780.594 537.858 771.057 561.571C768.957 566.8 766.964 571.749 765.162 576.351C756.67 598.107 744.616 618.245 731.194 637.406C713.457 662.569 690.171 684.364 664.101 695.171C638.034 705.98 609.164 705.811 580.262 686.989C553.094 669.379 530.854 656.534 503.639 656.024L503.638 656.025C491.896 655.883 479.203 657.763 464.91 662.788C451.143 667.363 437.959 673.406 424.836 679.422C424.279 679.677 423.726 679.934 423.169 680.188C409.491 686.456 395.853 692.624 381.633 697.015L381.633 697.016C361.747 703.254 338.304 705.285 321.528 692.827C302.443 678.609 295.406 651.94 293.197 623.647C291.651 603.84 292.471 583.27 293.174 565.626C293.477 558.054 293.756 551.022 293.82 544.819L293.584 544.943L293.82 544.818C293.874 538.447 294.045 531.789 294.223 524.944C295.06 492.52 296.006 455.912 285.047 425.722L285.047 425.721C282.529 418.914 279.411 412.403 275.599 406.348L275.598 406.346C269.282 396.491 260.953 389.443 252.658 382.425C251.224 381.211 249.791 379.998 248.37 378.773C238.719 370.448 229.596 361.498 224.238 347.424ZM224.238 347.424L224.057 347.599" stroke="#828282" stroke-miterlimit="10"/>
<path d="M815.767 383.068C835.489 404.686 833.79 440.629 824.479 478.006C816.882 508.487 804.239 539.881 794.045 565.192C791.733 570.927 789.55 576.353 787.578 581.382C778.411 604.674 765.435 626.417 751.111 646.767C732.101 673.761 707.204 697.138 679.303 708.706C651.403 720.273 620.474 720.038 589.413 699.755C560.565 680.962 536.626 667.349 507.5 666.806L507.5 666.806C494.928 666.613 481.474 668.696 466.17 673.992L466.166 673.991C451.949 678.977 438.324 685.379 424.746 691.755C423.792 692.206 422.836 692.654 421.879 693.103C407.348 699.919 392.828 706.594 377.632 711.382C356.384 718.117 331.258 720.459 313.126 707.004C292.559 691.824 285.009 663.255 282.68 632.942C281.042 611.627 281.985 589.482 282.792 570.529C283.133 562.516 283.45 555.073 283.537 548.504C283.614 541.863 283.811 534.927 284.012 527.797C284.994 493.014 286.107 453.59 274.259 420.99C271.604 413.675 268.256 406.817 264.147 400.164L264.147 400.163C257.395 389.452 248.412 381.846 239.463 374.269C238.002 373.031 236.542 371.794 235.092 370.546C224.758 361.64 214.963 352.087 209.205 337.035M815.767 383.068L815.962 382.808M815.767 383.068C811.898 378.824 804.457 377.633 795.129 378.049C785.807 378.464 774.649 380.484 763.382 382.614C762.497 382.783 761.608 382.95 760.719 383.118C750.346 385.089 739.999 387.052 731.061 387.837C721.365 388.689 713.286 388.159 708.621 384.711C696.392 375.636 685.298 365.718 674.303 355.887C668.951 351.101 663.623 346.337 658.198 341.701C641.625 327.537 624.136 314.556 602.288 305.787M602.288 305.787L602.414 305.537M602.288 305.787C576.631 295.473 562.59 268.138 549.731 238.934C548.217 235.495 546.718 232.03 545.22 228.563C533.986 202.578 522.719 176.515 504.257 160.676C500.744 157.7 495.097 158.122 488.152 160.588C481.209 163.054 473.008 167.548 464.428 172.654C460.751 174.842 456.999 177.146 453.249 179.449C448.267 182.508 443.288 185.566 438.493 188.347C430.081 193.226 422.18 197.286 415.701 199.077L415.699 199.078C410.097 200.568 405.382 200.46 402.511 197.497C372.4 166.875 329.785 165.33 290.668 177.767L290.666 177.768C277.889 181.708 264.201 187.652 250.315 201.342C250.047 201.619 249.801 201.856 249.561 202.088L249.558 202.091C249.315 202.326 249.078 202.554 248.818 202.822L248.816 202.824C230.625 221.38 217.858 247.461 211.07 272.661C204.282 297.863 203.49 322.13 209.205 337.035M209.205 337.035L208.985 337.247" stroke="#828282" stroke-miterlimit="10"/>
<path d="M273.229 552.6L273.229 552.601C273.131 559.505 272.796 567.329 272.434 575.756C271.568 595.976 270.552 619.671 272.313 642.483C274.807 674.788 282.869 705.257 304.792 721.434C324.051 735.539 350.764 733.045 373.626 725.745C389.802 720.561 405.245 713.404 420.676 706.196L421.837 705.651C436.875 698.625 451.916 691.596 467.606 686.365C483.766 680.709 497.981 678.423 511.379 678.666C542.165 679.313 567.646 693.601 598.331 713.669C631.52 735.287 664.508 735.481 694.244 723.104C723.98 710.725 750.489 685.766 770.726 657.021C786.04 635.321 799.854 612.136 809.529 587.215C811.77 581.455 814.28 575.214 816.939 568.598C827.704 541.79 840.945 508.831 848.984 476.812C859.004 436.904 860.929 398.527 839.924 375.42C835.844 370.895 827.927 369.641 817.987 370.112C808.056 370.583 796.144 372.77 784.122 375.077C783.19 375.257 782.255 375.436 781.322 375.617C770.233 377.751 759.169 379.881 749.616 380.743C739.264 381.677 730.646 381.13 725.683 377.456C712.642 367.769 700.828 357.166 689.117 346.656C683.428 341.55 677.759 336.464 671.988 331.515C654.337 316.382 635.694 302.521 612.34 293.203C584.969 282.328 570.122 253.136 556.548 221.916C554.944 218.227 553.358 214.51 551.771 210.791C539.922 183.02 528.033 155.156 508.395 138.263C504.687 135.068 498.706 135.536 491.338 138.206C483.973 140.875 475.262 145.729 466.139 151.243C462.29 153.568 458.364 156.014 454.436 158.461C449.069 161.804 443.699 165.149 438.523 168.191C429.554 173.461 421.115 177.852 414.17 179.802C408.119 181.683 403.247 181.478 400.055 178.334L400.054 178.333C367.899 145.676 322.612 144.297 280.959 157.409C267.327 161.712 252.784 168.019 237.927 182.649L237.918 182.657L237.91 182.665C237.486 183.039 236.969 183.573 236.433 184.126L236.432 184.127C217.084 203.94 203.466 231.775 196.216 258.659C188.966 285.545 188.1 311.426 194.215 327.31L194.215 327.311C200.327 343.423 210.731 353.594 221.728 363.07C223.292 364.417 224.867 365.75 226.445 367.084C235.952 375.129 245.508 383.214 252.736 394.642C257.169 401.484 260.654 408.85 263.446 416.671C275.988 451.087 274.799 492.858 273.748 529.782C273.524 537.647 273.306 545.293 273.229 552.6Z" stroke="#828282" stroke-miterlimit="10"/>
<path d="M832.297 592.021C834.713 585.81 837.427 579.059 840.311 571.889C851.703 543.551 865.723 508.673 874.283 474.769C885.004 432.299 887.139 391.424 864.801 366.907C860.484 362.137 852.068 360.849 841.486 361.388C830.913 361.926 818.23 364.288 805.42 366.768C804.477 366.951 803.534 367.135 802.591 367.318C790.727 369.625 778.881 371.925 768.663 372.862C757.641 373.874 748.473 373.304 743.209 369.403C729.433 359.158 716.931 347.945 704.532 336.826C698.418 331.342 692.327 325.88 686.122 320.567C667.329 304.481 647.466 289.755 622.606 279.889C593.567 268.371 577.873 237.301 563.554 204.073C561.851 200.122 560.168 196.14 558.484 192.157C545.999 162.628 533.482 133.018 512.747 115.12C507.982 110.998 499.595 112.693 489.333 117.358C479.188 121.97 467.277 129.453 455.361 136.938L454.979 137.178C442.947 144.736 430.928 152.267 420.787 156.77C410.655 161.27 402.324 162.782 397.742 158.185M832.297 592.021C821.857 618.64 807.118 643.428 790.809 666.477C769.267 696.929 741.083 723.487 709.479 736.684C677.875 749.88 642.823 749.724 607.556 726.692C560.844 696.089 525.728 678.37 469.097 697.917M832.297 592.021L832.297 592.022M397.742 158.185L397.918 157.938M397.742 158.185C363.612 123.745 315.585 122.281 271.465 136.32L271.464 136.32C257.073 140.825 241.583 147.656 225.756 163.222L225.755 163.222C204.567 184.001 189.689 213.83 181.737 242.766C173.785 271.705 172.775 299.693 179.279 316.763C185.79 333.855 196.843 344.667 208.513 354.745C210.159 356.167 211.818 357.574 213.478 358.983C223.577 367.55 233.72 376.155 241.381 388.302C266.676 428.281 264.99 484.144 263.54 532.217C263.289 540.513 263.046 548.577 262.949 556.288L262.949 556.288C262.841 563.594 262.477 571.889 262.086 580.833C261.146 602.294 260.042 627.495 261.894 651.755C264.517 686.113 273.07 718.52 296.395 735.615C317.009 750.716 345.404 747.911 369.628 740.115M369.628 740.115L369.583 740.404M369.628 740.115C386.738 734.614 403.081 727.014 419.41 719.31C420.153 718.96 420.895 718.61 421.637 718.26C437.222 710.904 452.83 703.538 469.097 697.917M469.097 697.917L469.056 698.205" stroke="#828282" stroke-miterlimit="10"/>
</g>
</svg>
