<svg width="750" height="648" viewBox="0 0 750 648" fill="none" xmlns="http://www.w3.org/2000/svg">
<g opacity="0.16">
<path d="M357.162 283.78L357.162 283.783C356.889 285.796 356.935 287.492 357.224 288.929C357.512 290.366 358.046 291.567 358.779 292.576C360.245 294.605 362.486 295.843 365.022 296.627C367.552 297.41 370.346 297.733 372.899 297.964C373.333 298.004 373.76 298.041 374.178 298.076C376.21 298.251 378.022 298.407 379.305 298.755L379.307 298.756C383.96 300.093 388.442 299.184 392.887 298.282C393.026 298.254 393.166 298.226 393.305 298.198C397.878 297.273 402.418 296.43 407.009 298.204L407.011 298.205C411.05 299.851 415.648 298.94 419.512 296.01C420.261 295.264 421.146 294.374 421.673 293.151C422.358 291.441 422.198 289.505 421.551 287.772C420.903 286.035 419.779 284.553 418.61 283.835C417.427 283.201 416.147 282.972 414.824 282.787C414.653 282.763 414.481 282.74 414.308 282.716C413.153 282.56 411.972 282.401 410.828 281.994L410.826 281.994C407.382 280.738 404.465 277.02 401.628 273.405C401.284 272.967 400.941 272.53 400.599 272.099C397.413 268.091 394.26 264.603 390.436 264.966L390.433 264.967C387.881 265.148 385.64 267.009 383.412 269.114C383.096 269.412 382.78 269.715 382.464 270.019C380.56 271.849 378.633 273.7 376.533 274.585L376.533 274.585C374.74 275.337 372.906 275.382 371.068 275.289C370.608 275.266 370.148 275.234 369.689 275.202C368.304 275.107 366.92 275.011 365.533 275.149L365.529 275.15L365.527 275.15C363.694 275.241 361.774 276.018 360.226 277.47C358.678 278.921 357.52 281.029 357.162 283.78Z" stroke="#12BDA8" stroke-miterlimit="10"/>
<path d="M410.182 267.111L410.18 267.108C409.424 266.012 408.647 264.817 407.844 263.58C406.458 261.447 404.991 259.19 403.404 257.096C400.906 253.801 398.144 250.963 395.025 249.775C392.094 248.68 389.341 249.225 386.572 250.512C384.272 251.612 382.151 253.401 380.02 255.479C379.047 256.427 378.074 257.433 377.081 258.459C376.986 258.558 376.89 258.656 376.795 258.755C375.704 259.883 374.586 261.031 373.422 262.144C371.371 264.188 369.31 265.87 367.056 266.806C364.523 268.02 361.902 268.345 359.179 268.392C357.939 268.412 356.672 268.376 355.386 268.338C355.257 268.335 355.133 268.331 355.008 268.327C353.585 268.287 352.139 268.253 350.654 268.299C342.157 268.483 335.951 275.651 334.86 285.436C334.493 288.73 334.493 291.831 334.856 294.745C336.15 303.376 339.826 313.416 347.341 315.79C349.06 316.33 351.246 315.565 353.488 314.682C353.683 314.605 353.877 314.527 354.072 314.449C356.099 313.644 358.126 312.835 359.77 313.008L359.771 313.008C361.917 313.267 363.992 313.571 365.996 313.865C369.732 314.412 373.226 314.924 376.488 315.044L376.491 315.044C380.839 315.294 385.036 316.254 389.174 317.201C389.646 317.309 390.117 317.417 390.588 317.524C395.187 318.565 399.727 319.487 404.356 319.302C406.555 319.211 408.761 318.115 410.994 316.956C411.102 316.9 411.211 316.843 411.319 316.787C413.435 315.687 415.576 314.574 417.72 314.305C418.479 314.117 419.055 314.117 419.815 314.307L419.819 314.308C426.278 316.146 432.738 313.94 437.905 309.16L437.909 309.156C439.377 307.877 440.647 306.244 441.553 303.899L441.577 303.834L441.617 303.795C441.658 303.754 441.686 303.726 441.707 303.704L441.707 303.624L441.73 303.552C442.806 300.16 442.5 296.253 441.405 292.821C440.31 289.388 438.438 286.482 436.44 285.124L436.435 285.12C434.697 283.845 432.817 283.34 430.893 282.994C430.402 282.905 429.908 282.827 429.412 282.749C427.975 282.522 426.528 282.293 425.137 281.808C424.019 281.437 423.08 281.063 422.138 280.501C417.786 277.998 414.479 273.261 411.316 268.728C410.936 268.185 410.559 267.644 410.182 267.111Z" stroke="#12BDA8" stroke-miterlimit="10"/>
<path d="M395.226 233.301L395.225 233.3C390.627 232.017 386.576 233.664 382.875 236.06C379.921 237.992 377.239 240.662 374.572 243.597C373.611 244.654 372.65 245.748 371.678 246.854C369.96 248.809 368.209 250.803 366.367 252.697C363.749 255.491 360.946 257.538 358.146 259.026L358.142 259.028C354.774 260.707 351.27 261.216 347.614 261.333C345.786 261.39 343.919 261.35 342.012 261.307L341.899 261.304C340.028 261.262 338.115 261.218 336.162 261.263C322.469 261.632 314.213 272.86 312.747 286.906C312.377 291.896 312.198 296.839 312.927 301.4L312.931 301.406C314.786 313.987 319.035 331.569 330.245 335.232C331.414 335.589 332.833 335.324 334.404 334.711C335.967 334.099 337.662 333.15 339.37 332.166C339.549 332.061 339.732 331.956 339.915 331.852C341.439 330.971 342.967 330.088 344.402 329.431C346.008 328.697 347.52 328.233 348.806 328.376L348.81 328.376C351.788 328.74 354.665 329.201 357.471 329.652C363.26 330.581 368.753 331.463 374.253 331.338C380.785 331.153 387.034 333.523 393.234 335.976C393.479 336.072 393.724 336.169 393.969 336.266C399.928 338.628 405.852 340.974 411.986 341.151L411.987 341.151C414.627 341.242 417.42 339.153 420.258 336.743C420.687 336.379 421.116 336.008 421.546 335.636C423.944 333.563 426.355 331.479 428.665 330.606C429.608 330.23 430.561 330.038 431.52 330.229L431.524 330.23L431.529 330.232C440.771 332.81 449.646 329.127 456.488 322.495C458.519 320.472 460.346 318.099 461.623 314.465L461.679 314.304L461.781 314.304C461.781 314.291 461.781 314.277 461.781 314.261L461.781 314.181L461.803 314.11C463.345 309.139 462.945 303.328 461.43 298.229C459.915 293.128 457.299 288.791 454.466 286.789L454.463 286.787C451.89 284.864 449.174 284.127 446.389 283.595C445.797 283.482 445.201 283.379 444.603 283.274C442.398 282.89 440.162 282.5 437.957 281.621L437.954 281.62C436.649 281.063 435.151 280.318 433.838 279.383C427.596 275.013 422.877 267.608 418.608 260.908C418.147 260.186 417.692 259.471 417.24 258.769L417.239 258.767C416.322 257.319 415.368 255.709 414.366 254.019C412.404 250.707 410.26 247.09 407.864 243.784C404.253 238.803 400.103 234.584 395.226 233.301Z" stroke="#12BDA8" stroke-miterlimit="10"/>
<path d="M424.301 250.063L424.435 249.825M424.301 250.063C423.113 248.176 421.866 246.042 420.546 243.784C418.021 239.465 415.231 234.693 412.091 230.335C407.319 223.711 401.778 218.106 395.232 216.636C389.335 215.351 383.798 218.103 379.168 221.609C375.561 224.374 372.32 227.924 369.117 231.67C368.34 232.579 367.564 233.5 366.786 234.424C364.362 237.304 361.913 240.212 359.305 242.88C355.945 246.599 352.585 249.203 349.038 251.063C341.897 254.781 334.195 254.565 325.6 254.323C324.306 254.287 322.992 254.249 321.659 254.225C302.961 253.857 292.655 269.888 290.815 288.206L290.815 288.212C290.079 294.839 290.079 301.456 290.999 307.699C292.207 315.84 294.012 326.258 297.387 335.238C300.759 344.21 305.69 351.73 313.15 354.116C314.682 354.61 316.576 354.164 318.673 353.199C320.766 352.235 323.039 350.766 325.331 349.249C325.569 349.092 325.806 348.933 326.044 348.775C328.094 347.415 330.141 346.055 332.055 345.038C334.187 343.905 336.179 343.183 337.843 343.372C341.983 343.872 345.943 344.559 349.809 345.231C357.434 346.553 364.692 347.813 372.205 347.445C380.51 346.98 388.436 350.56 396.286 354.377C396.839 354.646 397.391 354.916 397.943 355.186C405.241 358.754 412.492 362.298 419.982 362.813C423.165 362.993 426.508 359.908 429.905 356.268C430.512 355.618 431.12 354.95 431.729 354.282C434.506 351.235 437.293 348.176 439.986 346.72L439.992 346.716L439.998 346.714L440.027 346.701C441.305 346.156 442.64 345.585 443.798 345.968C455.639 349.285 466.742 344.309 475.443 335.64C478.026 333.067 480.58 329.788 482.044 324.902C482.054 324.809 482.079 324.735 482.098 324.684C482.123 324.615 482.156 324.551 482.177 324.509C482.202 324.461 482.215 324.432 482.224 324.409L482.224 324.37L482.242 324.305C484.069 317.663 483.482 309.947 481.523 303.177C479.566 296.406 476.25 290.635 472.674 287.894L472.673 287.893C469.265 285.232 465.667 284.264 462.001 283.57C461.285 283.435 460.567 283.31 459.847 283.185C456.884 282.67 453.892 282.15 450.962 280.877L450.959 280.876L450.955 280.874L450.947 280.87C449.095 279.947 447.227 279.017 445.542 277.712C437.858 272.243 432.278 263.093 427.174 254.725C426.203 253.132 425.249 251.568 424.301 250.063Z" stroke="#12BDA8" stroke-miterlimit="10"/>
<path d="M395.416 200.16C387.85 198.689 381.013 202.548 375.454 207.163C371.195 210.761 367.396 215.192 363.61 219.818C362.933 220.647 362.255 221.482 361.575 222.32C358.462 226.156 355.305 230.047 351.867 233.624C347.767 238.082 343.849 241.242 339.554 243.474C330.538 248.139 320.716 247.823 309.385 247.458C308.527 247.431 307.662 247.402 306.785 247.377C283.074 246.639 270.538 267.106 268.324 289.871C267.584 298.182 267.401 306.461 268.691 314.359L268.695 314.363L268.699 314.393C270.277 324.487 272.363 337.806 276.385 349.344C280.408 360.885 286.36 370.619 295.672 373.559C297.578 374.146 299.944 373.483 302.571 372.139C305.194 370.796 308.048 368.79 310.916 366.729C311.181 366.539 311.446 366.35 311.708 366.16C314.311 364.287 316.911 362.418 319.332 361.021C321.994 359.485 324.461 358.506 326.5 358.742C331.735 359.321 336.767 360.236 341.717 361.136C343.892 361.531 346.052 361.924 348.207 362.284C355.266 363.464 362.269 364.295 369.596 363.741C379.672 362.904 389.228 367.692 398.705 372.899C399.519 373.346 400.331 373.795 401.144 374.246C409.809 379.042 418.438 383.82 427.415 384.663C429.274 384.844 431.191 383.907 433.15 382.301C435.108 380.694 437.094 378.429 439.09 375.977C439.845 375.051 440.603 374.095 441.361 373.14C442.599 371.578 443.838 370.015 445.064 368.579C447.043 366.259 449.01 364.239 450.938 363.021L450.942 363.018L450.946 363.016C452.622 362.089 453.96 361.51 455.496 361.892L455.499 361.893C470.129 365.952 483.648 359.679 494.021 348.976L494.024 348.974C497.161 345.848 500.272 341.831 502.108 335.654C502.121 335.413 502.185 335.234 502.232 335.116C502.253 335.065 502.265 335.036 502.275 335.011C502.281 334.998 502.285 334.986 502.29 334.972C502.291 334.971 502.291 334.969 502.292 334.968L502.292 334.927L502.309 334.862C504.602 326.457 503.92 316.795 501.544 308.36C499.167 299.924 495.109 292.765 490.697 289.377L490.696 289.377C486.453 286.068 481.973 284.914 477.422 284.059C476.687 283.92 475.95 283.79 475.211 283.659C471.388 282.982 467.533 282.3 463.778 280.508C461.356 279.394 459.115 278.092 457.057 276.416C447.642 269.26 440.682 257.475 434.453 246.93C433.403 245.152 432.373 243.408 431.356 241.728C429.974 239.474 428.508 236.894 426.945 234.145C423.862 228.721 420.404 222.637 416.476 217.097C410.567 208.762 403.633 201.724 395.416 200.16Z" stroke="#12BDA8" stroke-miterlimit="10"/>
<path d="M438.232 233.21L438.231 233.208C436.708 230.65 435.09 227.729 433.362 224.612C429.693 217.989 425.531 210.479 420.75 203.671C413.726 193.671 405.399 185.245 395.418 183.496C386.551 182.024 378.414 186.808 371.74 192.717C366.83 197.148 362.473 202.412 358.153 207.872C357.342 208.898 356.531 209.93 355.72 210.966C352.212 215.438 348.661 219.962 344.81 224.177C340.148 229.378 335.486 233.094 330.638 235.695L330.634 235.697C319.427 241.555 307.317 241.095 292.926 240.549L292.287 240.525C277.919 239.971 267.091 245.928 259.537 255.388C251.983 264.848 247.687 277.825 246.393 291.352C245.469 301.326 245.286 311.275 246.763 320.844L246.763 320.847C246.806 321.153 246.853 321.462 246.9 321.774C248.65 333.624 250.969 349.316 255.526 363.028C260.199 377.091 267.219 389.042 278.391 392.629C280.663 393.308 283.505 392.427 286.658 390.704C289.811 388.983 293.245 386.439 296.695 383.834C296.987 383.614 297.28 383.393 297.572 383.173C300.729 380.787 303.879 378.406 306.802 376.63C309.991 374.692 312.937 373.456 315.35 373.738C321.396 374.475 327.196 375.58 332.894 376.665C335.787 377.217 338.655 377.762 341.516 378.253C350.014 379.71 358.457 380.68 367.364 379.848L367.365 379.848C379.116 378.827 390.254 384.821 401.334 391.393C402.346 391.993 403.358 392.599 404.37 393.204C414.443 399.23 424.512 405.253 435.037 406.511L435.038 406.511C437.171 406.783 439.375 405.643 441.626 403.65C443.877 401.657 446.159 398.826 448.445 395.75C449.412 394.45 450.383 393.1 451.352 391.754C452.664 389.93 453.973 388.112 455.263 386.426C457.51 383.49 459.731 380.913 461.891 379.321C463.773 377.822 465.483 377.249 467.201 377.629L467.204 377.63L467.207 377.631C484.437 382.43 500.559 374.678 512.605 362.122C516.304 358.253 519.974 353.492 522.182 346.013C522.191 345.928 522.21 345.853 522.224 345.802C522.245 345.724 522.273 345.642 522.295 345.576C522.319 345.504 522.338 345.446 522.351 345.397C522.358 345.371 522.361 345.356 522.363 345.351L522.363 345.294L522.381 345.229C525.138 335.159 524.316 323.552 521.498 313.426C518.68 303.299 513.877 294.707 508.722 290.672C503.55 286.622 498.141 285.238 492.684 284.22C491.817 284.058 490.949 283.906 490.081 283.753C485.49 282.947 480.885 282.139 476.414 279.951C473.615 278.65 471.004 276.977 468.581 275.12L468.58 275.119C457.658 266.69 449.778 253.069 442.668 240.778C441.162 238.175 439.69 235.631 438.232 233.21Z" stroke="#12BDA8" stroke-miterlimit="10"/>
<path d="M526.944 291.78L526.942 291.78C521.027 287.083 514.782 285.467 508.442 284.264C507.448 284.076 506.451 283.897 505.453 283.718C500.095 282.759 494.696 281.792 489.431 279.208C486.26 277.722 483.091 275.678 480.294 273.449C467.23 263.131 457.841 246.567 449.478 231.811C448.059 229.31 446.671 226.86 445.299 224.502C443.604 221.619 441.794 218.316 439.857 214.779C435.613 207.034 430.757 198.169 425.148 190.152C416.986 178.486 407.266 168.673 395.613 166.83C385.076 165.172 375.638 171.249 368.035 178.27C362.473 183.441 357.603 189.584 352.797 195.924C351.975 197.009 351.153 198.101 350.33 199.194C346.35 204.482 342.336 209.814 337.943 214.732C332.72 220.675 327.313 224.946 321.724 227.917C308.861 234.788 294.887 234.228 277.986 233.487C261.108 232.841 248.514 239.862 239.775 250.942C231.036 262.02 226.137 277.17 224.659 292.828C223.732 304.285 223.548 316.088 225.213 327.325C225.349 328.254 225.489 329.206 225.634 330.181C227.622 343.687 230.214 361.325 235.207 376.87C240.555 393.527 248.647 407.742 261.673 411.883L261.673 411.884C264.316 412.747 267.633 411.706 271.317 409.638C274.996 407.573 279.011 404.503 283.041 401.354C283.427 401.054 283.809 400.753 284.195 400.453C287.84 397.602 291.468 394.761 294.836 392.631C298.555 390.279 301.981 388.775 304.764 389.104C311.889 389.921 318.761 391.249 325.544 392.561C328.763 393.183 331.963 393.801 335.16 394.36C345.095 396.095 355.027 397.25 365.512 396.14L365.512 396.14C379.032 394.747 391.844 401.947 404.573 409.908C405.843 410.702 407.111 411.503 408.379 412.304C419.842 419.546 431.289 426.777 443.223 428.357C445.584 428.628 448.041 427.227 450.563 424.812C453.084 422.398 455.651 418.989 458.228 415.289C459.312 413.732 460.4 412.12 461.487 410.51C462.975 408.306 464.46 406.107 465.926 404.061C468.466 400.516 470.979 397.393 473.417 395.431C475.476 393.753 477.565 392.795 479.482 393.367C499.312 398.906 517.662 389.86 531.567 375.269C535.823 370.659 540.05 365.159 542.63 356.39C542.642 356.159 542.701 355.984 542.741 355.865L542.746 355.85C542.794 355.705 542.814 355.636 542.814 355.548L542.814 355.478L542.831 355.414C545.96 343.675 545 330.123 541.74 318.307C538.48 306.489 532.934 296.463 526.944 291.78Z" stroke="#12BDA8" stroke-miterlimit="10"/>
<path d="M395.61 150.351L395.609 150.351C383.825 148.516 372.947 155.629 364.431 163.715C358.325 169.513 352.778 176.664 347.286 183.991C346.545 184.982 345.805 185.976 345.06 186.971C340.324 193.325 335.573 199.692 330.502 205.289C324.542 211.97 318.578 216.798 312.24 220.14C297.892 227.937 282.246 227.377 263.112 226.637C243.728 225.712 229.321 233.752 219.35 246.451C209.38 259.15 203.833 276.523 202.165 294.312L202.165 294.314C200.867 307.617 200.684 321.083 202.718 333.986L202.718 333.987C203.011 335.869 203.307 337.842 203.615 339.889C205.876 354.874 208.737 373.852 214.018 390.737C220.017 409.916 229.13 426.351 244.012 431.14C246.932 432.094 250.666 430.836 254.844 428.389C259.015 425.945 263.603 422.337 268.214 418.644C268.576 418.352 268.943 418.061 269.305 417.769C273.554 414.365 277.795 410.964 281.724 408.425C285.98 405.671 289.894 403.911 293.051 404.287C301.279 405.233 309.188 406.802 316.988 408.349C320.597 409.065 324.183 409.776 327.765 410.419C339.096 412.452 350.416 413.804 362.42 412.467C378.113 410.72 392.519 419.102 406.796 428.432C408.292 429.41 409.787 430.398 411.282 431.386C424.06 439.834 436.83 448.277 450.468 450.205C453.152 450.568 455.909 448.949 458.721 446.134C461.532 443.319 464.378 439.328 467.233 434.991C468.403 433.214 469.576 431.377 470.749 429.54C472.432 426.905 474.113 424.273 475.779 421.827C478.609 417.672 481.423 414.016 484.186 411.729C486.441 409.67 488.713 408.721 490.995 409.289L490.998 409.29C513.616 415.57 534.383 405.042 549.962 388.599C554.787 383.422 559.764 376.984 562.528 367.073L562.538 367.034L562.555 367.001C562.627 366.858 562.663 366.716 562.71 366.529L562.713 366.519C562.756 366.347 562.808 366.138 562.908 365.928C566.49 352.531 565.435 337.051 561.76 323.559C558.082 310.052 551.792 298.592 544.966 293.262L544.964 293.26C538.212 287.823 531.085 285.976 523.863 284.611C522.733 284.398 521.6 284.195 520.465 283.993C514.361 282.906 508.221 281.812 502.248 278.836C498.523 276.981 494.982 274.753 491.811 272.152C477.199 260.411 466.692 241.8 457.301 225.166C455.559 222.08 453.855 219.063 452.171 216.169C450.174 212.763 448.045 208.833 445.763 204.623C441.014 195.858 435.604 185.873 429.347 176.843C420.094 163.488 409.027 152.287 395.61 150.351Z" stroke="#12BDA8" stroke-miterlimit="10"/>
<path d="M458.096 472.057C462.603 472.759 466.503 469.889 470.111 465.228C473.627 460.688 476.848 454.472 480.068 448.255L480.334 447.742C483.637 441.37 486.949 435.044 490.568 430.663C494.192 426.274 498.142 423.815 502.715 425.216C528.12 432.236 551.302 420.413 568.552 401.934C574.296 395.62 580.054 387.83 582.805 377.018C586.564 362.247 585.818 345.088 582 329.905C578.181 314.721 571.297 301.548 562.812 294.744C555.224 288.752 547.214 286.719 539.109 285.192C537.915 284.967 536.718 284.753 535.52 284.539C528.599 283.301 521.643 282.056 514.892 278.654C493.474 267.985 478.141 241.039 463.175 214.739C461.862 212.43 460.551 210.126 459.239 207.839C456.734 203.498 454.242 199.014 451.733 194.498C444.994 182.369 438.13 170.018 430.565 159.625C420.191 145.375 408.52 134.846 394.093 133.69C379.739 132.54 367.585 141.806 356.262 154.508C350.598 160.859 345.149 168.063 339.735 175.249L339.298 175.827C334.036 182.814 328.801 189.76 323.45 195.846C316.929 203.456 310.22 208.839 303.325 212.552C287.305 221.088 269.804 220.714 248.623 219.788C226.728 218.771 210.56 227.876 199.404 242.194C188.249 256.512 182.094 276.062 180.242 295.98L180.242 295.984C177.51 323.539 180.215 359.346 188.097 389.696C195.978 420.05 209.016 444.868 226.919 450.583C230.209 451.631 234.419 450.154 239.127 447.328C243.828 444.505 248.993 440.359 254.189 436.122C254.582 435.801 254.976 435.479 255.37 435.157C260.168 431.24 264.958 427.326 269.386 424.407C274.173 421.251 278.562 419.235 282.093 419.658C291.133 420.713 299.86 422.457 308.494 424.181C312.734 425.029 316.956 425.871 321.173 426.625C333.993 428.916 346.852 430.395 360.494 428.73C377.455 426.688 393.523 436.252 409.504 446.944C411.235 448.102 412.965 449.273 414.694 450.444C428.951 460.096 443.211 469.75 458.096 472.057Z" stroke="#12BDA8" stroke-miterlimit="10"/>
<path d="M294.211 204.404C276.702 213.866 257.528 213.677 234.117 212.566C209.619 211.457 191.639 221.579 179.275 237.494C166.915 253.409 160.152 275.132 158.117 297.274C156.632 313.911 156.449 330.713 158.858 346.951C159.31 349.926 159.774 353.092 160.261 356.409C162.958 374.796 166.334 397.808 172.524 418.4C179.824 442.695 191.027 463.569 209.627 469.468C213.287 470.654 217.973 468.993 223.207 465.813C228.438 462.638 234.184 457.971 239.96 453.202C240.416 452.825 240.872 452.447 241.329 452.07C246.645 447.675 251.95 443.288 256.846 440.011C262.163 436.456 267.031 434.185 270.933 434.654C281.075 435.839 290.824 437.823 300.455 439.784C305.121 440.734 309.759 441.679 314.406 442.524C328.641 445.116 342.938 446.779 358.253 444.837C376.981 442.516 394.676 453.286 412.284 465.344C414.202 466.657 416.119 467.985 418.036 469.315C433.733 480.194 449.445 491.084 465.892 493.719C469.082 494.218 472.371 492.166 475.732 488.567C479.092 484.969 482.5 479.851 485.925 474.276C487.366 471.93 488.813 469.499 490.259 467.069C492.241 463.738 494.222 460.408 496.187 457.302C499.59 451.922 502.973 447.165 506.295 444.136C509.103 441.525 511.936 440.196 514.598 440.953C542.419 448.713 568.017 435.595 587.126 415.08C593.064 408.608 599.159 400.503 602.667 387.997L602.678 387.958L602.694 387.925C602.759 387.796 602.796 387.626 602.844 387.383L602.849 387.362C602.89 387.157 602.943 386.893 603.047 386.668C607.466 369.938 606.131 350.661 601.574 333.859C597.012 317.042 589.236 302.758 580.829 296.039C572.405 289.306 563.513 287.042 554.525 285.353C553.192 285.103 551.858 284.865 550.522 284.627C542.857 283.262 535.162 281.89 527.704 278.097L527.701 278.095C523.234 275.684 518.95 272.901 514.852 269.561L514.851 269.56C496.988 254.858 484.175 231.76 472.767 211.192C470.5 207.106 468.289 203.12 466.105 199.319C463.791 195.284 461.315 190.637 458.656 185.646C452.753 174.563 445.948 161.788 438.008 150.274C426.502 133.587 412.648 119.61 395.794 117.395L395.793 117.395C380.982 115.366 367.271 124.588 356.881 135.124L316.265 185.761L316.378 186.032C316.374 186.032 316.374 186.032 316.374 186.032C309.112 194.381 301.847 200.32 294.211 204.404ZM294.211 204.404L294.148 204.092" stroke="#12BDA8" stroke-miterlimit="10"/>
<path d="M353.168 120.681L353.168 120.682C345.002 129.093 337.951 138.662 330.958 148.359C330.362 149.186 329.766 150.014 329.169 150.842C322.777 159.722 316.361 168.637 309.126 176.777C301.12 185.865 293.114 192.359 284.921 196.813C265.926 207.387 245.077 207.197 219.437 205.901C192.522 204.514 172.775 215.656 159.207 233.19C145.635 250.724 138.225 274.671 136.003 298.942C134.331 317.063 133.964 335.53 136.74 353.616L136.74 353.617C137.266 357.047 137.8 360.715 138.361 364.567C141.289 384.655 144.945 409.753 151.641 432.266C159.616 459.084 171.887 482.178 192.343 488.725C196.377 490.004 201.538 488.123 207.303 484.565C213.06 481.011 219.386 475.806 225.743 470.493C226.231 470.086 226.718 469.678 227.205 469.271C233.067 464.362 238.922 459.463 244.321 455.806C250.163 451.849 255.507 449.323 259.783 449.838C271.072 451.102 281.931 453.314 292.677 455.503C297.678 456.523 302.66 457.537 307.645 458.448C323.346 461.318 339.128 463.167 356.025 460.947C376.519 458.255 395.84 470.23 415.074 483.676C417.2 485.162 419.325 486.666 421.451 488.171C438.567 500.288 455.712 512.424 473.699 515.383L473.7 515.383C479.211 516.323 483.886 512.821 488.157 507.08C492.374 501.413 496.179 493.587 499.992 485.747L500.153 485.416C504.012 477.48 507.885 469.559 512.186 463.974C516.492 458.381 521.246 455.107 526.861 456.506L526.865 456.506C557.474 465.009 585.488 450.408 606.27 428.041C612.765 421.015 619.418 412.169 623.298 398.366L623.3 398.355L623.304 398.346C623.387 398.097 623.429 397.891 623.475 397.66L623.476 397.656C623.521 397.429 623.572 397.177 623.671 396.879C628.47 378.476 626.997 357.244 621.995 338.743C616.992 320.237 608.473 304.518 599.23 297.151C589.969 289.77 580.194 287.275 570.323 285.4C568.882 285.127 567.438 284.866 565.994 284.606C557.556 283.083 549.093 281.556 540.902 277.358C535.872 274.945 531.216 271.79 526.747 268.08C506.969 251.944 492.919 226.328 480.487 203.66C478.058 199.231 475.69 194.914 473.354 190.802C470.746 186.286 467.95 181.046 464.942 175.409C458.493 163.323 451.068 149.407 442.423 136.851C429.755 118.452 414.508 103.04 395.982 100.733C379.497 98.7025 364.485 108.852 353.168 120.681Z" stroke="#12BDA8" stroke-miterlimit="10"/>
<path d="M617.264 298.632C627.25 306.646 636.513 323.8 641.958 343.996C647.401 364.187 649.013 387.363 643.75 407.431L643.741 407.458C643.572 407.961 643.374 408.553 643.359 409.167C639.106 424.229 631.906 433.801 624.862 441.557C602.408 465.961 571.978 481.857 538.581 472.615C535.359 471.671 531.966 473.376 528.6 476.729C524.721 480.454 520.77 486.3 516.792 492.91C514.509 496.706 512.207 500.77 509.904 504.839C508.2 507.849 506.494 510.861 504.795 513.767C500.789 520.615 496.799 526.901 492.864 531.313C488.928 535.727 485.072 538.238 481.328 537.601C461.914 534.241 443.374 520.925 424.869 507.633C422.505 505.935 420.142 504.238 417.777 502.561C396.917 487.773 375.969 474.641 353.799 477.61L353.815 477.911L353.799 477.611C335.327 480.108 318.102 478.12 300.987 474.973C295.323 473.932 289.671 472.764 283.988 471.589C272.501 469.215 260.89 466.815 248.826 465.39C244.176 464.876 238.356 467.679 231.987 472.047C226.121 476.069 219.76 481.436 213.383 486.817C212.829 487.285 212.272 487.754 211.718 488.221C204.78 494.067 197.873 499.792 191.586 503.711C185.295 507.633 179.658 509.722 175.254 508.351C152.939 501.248 139.6 475.933 130.951 446.547C123.74 422.047 119.799 394.757 116.642 372.879C116.01 368.504 115.41 364.344 114.818 360.468C111.855 340.711 112.038 320.576 113.894 300.794L113.894 300.793C116.303 274.392 124.317 248.271 139.093 229.116C153.874 209.962 175.433 197.756 204.948 199.235C232.821 200.531 255.156 200.72 276.006 189.406C284.943 184.582 293.511 177.532 302.074 167.702L302.074 167.701C309.675 158.882 316.45 149.317 323.197 139.788C323.969 138.701 324.737 137.615 325.508 136.53C333.031 125.93 340.644 115.482 349.461 106.237C361.706 93.2967 378.205 81.8532 395.989 84.0681L396.003 83.7415L395.989 84.0681C416.188 86.5605 432.83 103.361 446.636 123.427C456.191 137.315 464.372 152.738 471.436 166.056C474.584 171.991 477.51 177.508 480.238 182.285C482.89 186.94 485.575 191.839 488.333 196.869C501.79 221.416 516.958 249.084 538.276 266.783L538.279 266.785C543.117 270.678 548.145 274.203 553.733 276.987C562.695 281.57 571.895 283.225 581.052 284.873C582.645 285.159 584.236 285.445 585.825 285.747C596.555 287.783 607.167 290.51 617.264 298.632ZM617.264 298.632L617.348 298.337" stroke="#12BDA8" stroke-miterlimit="10"/>
<path d="M345.733 91.7954C358.908 77.7438 376.709 65.1903 396.165 67.5904L396.166 67.5904C418.13 70.1757 436.165 88.3652 451.086 110.097C461.415 125.141 470.235 141.853 477.836 156.254C481.22 162.668 484.363 168.624 487.29 173.769C490.092 178.731 492.932 183.956 495.849 189.325C510.333 215.976 526.739 246.166 549.976 265.303L549.976 265.304C555.188 269.568 560.587 273.278 566.543 276.431L566.545 276.432C576.237 281.418 586.235 283.23 596.183 285.033C597.894 285.343 599.604 285.654 601.31 285.98C612.947 288.201 624.441 291.159 635.281 299.928C646.104 308.683 656.111 327.226 661.997 349.066C667.881 370.898 669.633 395.973 663.998 417.802L663.989 417.827C663.82 418.331 663.622 418.922 663.607 419.536C658.981 435.711 651.223 446.208 643.438 454.703C619.124 480.96 586.463 498.337 550.279 488.354L550.278 488.354C546.683 487.411 543.291 489.303 539.558 492.836L539.555 492.838C535.397 496.934 531.155 503.324 526.884 510.54C524.434 514.68 521.965 519.108 519.495 523.539C517.664 526.824 515.832 530.109 514.006 533.28C509.71 540.742 505.435 547.589 501.231 552.398C497.024 557.208 492.913 559.948 488.938 559.266C467.981 555.581 448.005 541.017 428.077 526.488C425.508 524.615 422.94 522.742 420.37 520.894C397.884 504.717 375.309 490.38 351.373 493.72C331.323 496.495 312.609 494.322 294.032 490.898C288.025 489.79 282.031 488.552 276.008 487.308C263.407 484.705 250.684 482.077 237.478 480.573C232.458 480.013 226.151 483.072 219.236 487.839C212.863 492.233 205.944 498.1 199.014 503.979C198.421 504.483 197.829 504.986 197.236 505.488C189.706 511.865 182.214 518.112 175.405 522.383C168.591 526.659 162.503 528.932 157.775 527.423C133.604 519.672 119.24 492.137 109.94 460.227C102.37 434.252 98.1647 405.419 94.754 382.046C93.9745 376.693 93.2339 371.627 92.5089 366.947M345.733 91.7954L345.636 91.5376M345.733 91.7954C336.265 101.874 328.099 113.155 319.992 124.565C319.376 125.431 318.76 126.297 318.148 127.163C310.66 137.717 303.141 148.312 294.632 158.075L294.628 158.076C285.324 168.647 276.199 176.066 266.521 181.445L266.517 181.445C244.178 193.685 220.172 193.681 190.068 192.2C158.044 190.443 134.723 203.667 118.757 224.441C102.795 245.215 94.1772 273.559 91.5812 302.09L91.5812 302.092C89.5387 323.729 89.1723 345.528 92.5089 366.947M92.5089 366.947L92.3373 367.021" stroke="#12BDA8" stroke-miterlimit="10"/>
<path d="M653.128 301.408C664.694 310.81 675.444 330.788 681.772 354.317C688.098 377.84 689.989 404.859 683.889 428.353C683.794 428.639 683.7 428.967 683.609 429.284C683.516 429.609 683.425 429.924 683.336 430.191L683.332 430.202L683.329 430.214C678.521 447.718 670.195 458.971 661.656 468.218L661.656 468.218C635.67 496.511 600.407 515.184 561.807 504.46L561.804 504.46C558.027 503.519 554.264 505.406 550.34 509.316C545.903 513.737 541.381 520.659 536.828 528.486C534.233 532.948 531.619 537.721 529.001 542.498C527.031 546.093 525.06 549.691 523.094 553.161C518.508 561.259 513.937 568.691 509.428 573.901C504.916 579.113 500.492 582.072 496.192 581.298C473.828 577.217 452.476 561.499 431.161 545.81C428.333 543.728 425.505 541.647 422.677 539.593C398.541 522.074 374.293 506.579 348.592 510.197C326.866 513.25 306.718 510.892 286.741 507.166C280.286 505.962 273.847 504.614 267.377 503.261C253.839 500.428 240.177 497.569 225.962 495.94C220.571 495.333 213.785 498.646 206.344 503.816C199.468 508.59 192.004 514.968 184.524 521.362C183.9 521.895 183.276 522.429 182.653 522.961C174.541 529.882 166.469 536.667 159.133 541.317C151.789 545.972 145.225 548.465 140.123 546.862C114.093 538.556 98.6655 508.8 88.7143 474.322C80.5561 446.059 76.0931 414.664 72.4953 389.36C71.7002 383.782 70.9518 378.5 70.2112 373.612C66.6875 350.526 67.0578 327.058 69.1003 303.753C71.8795 273.094 81.1486 242.575 98.3226 220.181C115.493 197.787 140.579 183.498 175.021 185.348C207.353 187.014 233.036 187.019 256.86 173.852L256.86 173.851C267.1 168.103 277.152 160.129 287.018 148.63C296.653 137.784 305.049 125.959 313.406 114.187C313.761 113.689 314.112 113.189 314.467 112.691C323.178 100.423 331.906 88.2624 342.024 77.3505L342.024 77.3498C356.127 62.0042 375.414 48.524 396.172 50.9247C419.808 53.6952 439.237 73.2729 455.297 96.6709C466.539 113.051 476.114 131.275 484.327 146.907C487.851 153.616 491.125 159.846 494.171 165.249L494.313 165.024L494.172 165.25C497.311 170.795 500.491 176.647 503.76 182.663C519.247 211.162 536.731 243.338 561.317 264.004L561.318 264.005C566.902 268.641 572.858 272.721 579.187 276.059L579.188 276.059C589.586 281.437 600.323 283.375 611.016 285.306C612.864 285.64 614.711 285.974 616.556 286.325C629.075 288.708 641.452 291.898 653.128 301.408ZM653.128 301.408L653.198 301.165" stroke="#12BDA8" stroke-miterlimit="10"/>
<path d="M123.027 566.303C95.1381 557.443 78.6384 525.465 68.0129 488.44C59.3518 458.245 54.6042 424.735 50.7765 397.718C49.9112 391.595 49.0888 385.806 48.2819 380.464C44.5751 355.709 44.9414 330.39 47.171 305.605C50.1373 272.723 60.0106 240.029 78.389 216.061C96.7674 192.093 123.67 176.832 160.712 178.867C195.091 180.719 222.629 180.538 248.125 166.446L248.125 166.445C259.109 160.326 269.719 151.795 280.325 139.557L280.329 139.556C290.148 128.13 298.747 115.773 307.318 103.462C307.918 102.595 308.522 101.728 309.127 100.861C318.302 87.6927 327.54 74.6517 338.306 62.9072C353.34 46.4509 373.928 31.8599 396.359 34.4459C421.761 37.3087 442.583 58.2752 459.757 83.3626C471.833 101.003 482.089 120.653 490.866 137.469C494.578 144.58 498.025 151.184 501.234 156.916C504.487 162.707 507.785 168.811 511.176 175.087C527.717 205.701 546.465 240.4 573.026 262.708C578.983 267.715 585.311 271.98 592.196 275.688L592.197 275.689C603.4 281.588 614.982 283.684 626.521 285.772C628.404 286.113 630.287 286.454 632.167 286.811C645.569 289.356 658.829 292.731 671.342 302.889M123.027 566.303L122.988 566.625M123.027 566.303C128.5 568.044 135.539 565.356 143.409 560.331C151.275 555.31 159.928 547.982 168.62 540.505C169.303 539.916 169.989 539.326 170.675 538.736C178.673 531.843 186.652 524.969 193.999 519.82C201.971 514.235 209.232 510.654 214.997 511.308C230.125 513.052 244.691 516.095 259.129 519.111C266.157 520.579 273.153 522.042 280.169 523.344C301.604 527.323 323.241 529.821 346.546 526.491M346.546 526.491L346.562 526.77M346.546 526.491C373.922 522.595 399.749 539.247 425.488 558.109C428.519 560.33 431.549 562.582 434.58 564.835C457.302 581.722 480.09 598.659 503.998 603.146C508.529 603.966 513.208 600.778 517.99 595.169C522.77 589.562 527.625 581.57 532.502 572.858C534.593 569.124 536.69 565.253 538.786 561.383C541.571 556.243 544.354 551.106 547.116 546.3C551.962 537.868 556.774 530.402 561.489 525.611L561.491 525.609C565.597 521.518 569.735 519.255 573.703 520.384C615.09 531.848 652.768 511.879 680.426 481.55L680.427 481.548C689.523 471.748 698.405 459.755 703.585 440.957C703.68 440.583 703.774 440.255 703.866 439.934L703.867 439.93C703.96 439.605 704.051 439.288 704.142 438.926L704.142 438.924C710.619 413.758 708.635 384.788 701.913 359.57C695.191 334.351 683.743 312.939 671.342 302.889M671.342 302.889L671.426 302.594" stroke="#12BDA8" stroke-miterlimit="10"/>
<path d="M508.115 148.215L508.114 148.214C504.746 142.186 501.125 135.243 497.224 127.764C487.865 109.82 476.897 88.7913 463.966 69.9166C445.654 43.1858 423.438 20.8305 396.363 17.7824C372.631 15.1965 350.744 30.7129 334.596 48.4651C323.179 61.0428 313.384 74.9629 303.623 88.9202L302.89 89.9727C293.38 103.577 283.869 117.185 272.896 129.56C261.729 142.538 250.562 151.625 238.837 158.114C211.852 172.947 182.642 173.313 146.033 171.276C106.481 169.149 77.8164 185.475 58.2531 211.062C38.6897 236.65 28.2123 271.52 25.0589 306.532C22.6461 332.982 22.2759 359.968 26.3569 386.388C27.2963 392.496 28.2435 399.157 29.2491 406.215C33.3302 434.814 38.3428 469.978 47.3897 501.727C58.6662 541.298 76.1871 575.496 105.932 585.005C111.728 586.884 119.212 584.011 127.584 578.633C135.949 573.26 145.171 565.41 154.429 557.401C155.146 556.779 155.867 556.157 156.584 555.534C165.121 548.14 173.637 540.765 181.48 535.241C189.977 529.256 197.715 525.421 203.85 526.121C219.987 527.99 235.52 531.265 250.916 534.512C258.396 536.089 265.849 537.66 273.321 539.06C296.174 543.34 319.25 546.022 344.134 542.415C373.276 538.148 400.73 556.005 428.095 576.255C431.328 578.648 434.56 581.075 437.794 583.502C461.942 601.628 486.17 619.814 511.623 624.624C516.432 625.537 521.377 622.141 526.423 616.145C531.467 610.151 536.584 601.592 541.728 592.256C543.898 588.317 546.076 584.236 548.254 580.153C551.23 574.574 554.208 568.992 557.17 563.771C562.303 554.721 567.415 546.7 572.455 541.538C576.754 536.884 581.076 534.625 585.413 535.752L585.415 535.753C629.59 547.957 669.498 526.508 699.015 494.326C708.67 483.783 718.111 471.049 723.663 450.951L723.666 450.94L723.669 450.929C723.849 450.393 724.03 449.672 724.217 448.925L724.218 448.923C731.067 422.091 728.943 391.176 721.78 364.269C714.616 337.36 702.425 314.514 689.187 303.815L689.186 303.814C675.838 292.917 661.742 289.31 647.481 286.603C645.453 286.218 643.422 285.851 641.389 285.484C629.132 283.271 616.815 281.047 604.84 274.764C597.581 271.055 590.88 266.419 584.552 261.042C556.481 237.507 536.626 200.738 519.074 168.236C515.335 161.312 511.701 154.582 508.115 148.215Z" stroke="#12BDA8" stroke-miterlimit="10"/>
<path d="M4.23642 393.61C5.24987 400.197 6.27496 407.401 7.36246 415.051C11.6657 445.289 16.9629 482.504 26.501 516.146C38.4518 558.287 57.0407 594.753 88.6445 604.817C94.768 606.789 102.7 603.696 111.595 597.939C120.482 592.186 130.285 583.799 140.139 575.246C140.864 574.617 141.589 573.986 142.314 573.355C151.435 565.426 160.544 557.51 168.925 551.59C177.964 545.203 186.188 541.113 192.698 541.859C209.751 543.844 226.184 547.303 242.481 550.733C250.519 552.426 258.525 554.11 266.554 555.608C290.873 560.144 315.437 562.964 341.9 559.079C372.808 554.534 401.934 573.595 430.949 595.211C434.399 597.782 437.848 600.388 441.298 602.996C466.874 622.327 492.519 641.71 519.425 646.843C525.613 648.031 532.029 642.37 538.583 633.198C545.063 624.131 551.637 611.696 558.214 599.255L558.425 598.857C565.066 586.295 571.709 573.764 578.24 564.793C584.765 555.83 591.223 550.356 597.49 552.046M4.23642 393.61C-0.0317271 365.338 0.338541 336.501 2.93841 308.385C6.36853 271.242 17.4969 234.15 38.2686 206.919C59.0403 179.689 89.4748 162.299 131.533 164.611C187.288 167.759 226.559 165.546 265.829 120.301M4.23642 393.61L4.23642 393.609M597.49 552.046L597.461 552.348M597.49 552.046C644.267 564.806 686.593 542.061 717.782 507.843L717.783 507.842C727.993 496.745 737.992 483.085 743.916 461.69L743.916 461.69C751.877 433.101 749.847 399.829 742.265 370.794C734.683 341.756 721.563 317.013 707.396 305.482C693.211 293.935 678.233 290.098 663.088 287.205C660.951 286.797 658.811 286.408 656.669 286.018C643.639 283.648 630.552 281.267 617.844 274.578C575.949 252.602 549.477 203.381 526.697 161.024C522.766 153.713 518.944 146.608 515.173 139.882L515.172 139.882C511.613 133.5 507.781 126.135 503.648 118.193C493.731 99.1379 482.087 76.7616 468.353 56.678C448.902 28.2344 425.292 4.44498 396.545 1.30333C371.141 -1.4672 347.953 15.1592 330.873 34.0228M330.873 34.0228L330.768 33.7499M330.873 34.0228C318.805 47.3414 308.453 62.0947 298.162 76.9311C297.694 77.6053 297.227 78.2794 296.759 78.9535C286.94 93.1171 277.106 107.3 265.829 120.301M265.829 120.301L265.72 120.032" stroke="#12BDA8" stroke-miterlimit="10"/>
</g>
</svg>
