<svg width="640" height="200" viewBox="0 0 640 200" fill="none" xmlns="http://www.w3.org/2000/svg">
<g opacity="0.12">
<path d="M244.125 -16.4036L244.122 -16.3988C241.948 -13.7728 240.616 -11.2702 239.938 -8.89008C239.26 -6.51094 239.223 -4.21616 239.705 -1.99118C240.662 2.47298 243.683 6.60493 247.614 10.3868C251.537 14.1614 256.32 17.5467 260.744 20.5461C261.496 21.0563 262.238 21.5564 262.965 22.0443C266.494 24.4189 269.641 26.5361 271.67 28.3792L271.673 28.3822C278.972 35.175 287.839 38.5409 296.631 41.8792C296.906 41.9838 297.182 42.0887 297.457 42.1933C306.501 45.631 315.415 49.152 322.238 56.5119L322.241 56.5149C328.172 63.1147 337.249 66.5969 346.685 66.3954C348.662 66.099 351.005 65.7351 352.98 64.5165C355.648 62.7584 356.975 59.7909 357.252 56.6098C357.53 53.4191 356.734 50.1033 355.221 47.8436C353.609 45.6911 351.486 44.0225 349.248 42.3741C348.958 42.16 348.666 41.9473 348.372 41.7325C346.414 40.3012 344.412 38.8387 342.682 37.0534L342.68 37.0522C337.499 31.64 335.327 23.2153 333.215 15.0249C332.959 14.0312 332.703 13.042 332.444 12.0617C330.029 2.93728 327.238 -5.40038 320.018 -8.86931L320.013 -8.87122C315.246 -11.2734 309.638 -10.9215 303.851 -10.205C303.03 -10.1034 302.206 -9.99477 301.38 -9.88467C296.408 -9.22709 291.377 -8.5609 286.841 -9.47328L286.84 -9.4737C282.97 -10.2579 279.615 -12.1091 276.367 -14.1635C275.554 -14.6769 274.751 -15.2027 273.946 -15.7276C271.521 -17.3124 269.097 -18.896 266.473 -20.1449L266.466 -20.1472L266.462 -20.1501C263.071 -21.932 258.95 -22.8133 254.938 -22.3299C250.925 -21.8483 247.071 -20.008 244.125 -16.4036Z" stroke="white" stroke-miterlimit="10"/>
<path d="M353.944 14.8587L353.943 14.8529C353.49 12.4771 353.084 9.93773 352.663 7.31058C351.937 2.77799 351.17 -2.01873 350.047 -6.70455C348.28 -14.0801 345.655 -21.0673 341.006 -26.0426C336.618 -30.6877 331.184 -32.7749 325.102 -33.8049C320.023 -34.6154 314.693 -34.2419 309.103 -33.4628C306.551 -33.107 303.951 -32.668 301.298 -32.2207C301.044 -32.1771 300.79 -32.1344 300.534 -32.0912C297.619 -31.5997 294.639 -31.1058 291.604 -30.7114C286.188 -29.8977 281.055 -29.6171 276.196 -30.6162C270.601 -31.5051 265.59 -33.7724 260.625 -36.5491C258.365 -37.8132 256.105 -39.1891 253.81 -40.5863C253.58 -40.7263 253.357 -40.8612 253.135 -40.9971C250.596 -42.5415 248.008 -44.1008 245.284 -45.5854C229.762 -54.1926 212.552 -50.3037 202.407 -37.2907C198.994 -32.9097 196.403 -28.4235 194.626 -23.8303C189.759 -9.99625 188.023 8.36397 199.633 19.646C202.291 22.2221 206.885 23.3988 211.676 24.4622C212.093 24.554 212.511 24.6449 212.928 24.7357C217.267 25.6869 221.608 26.6344 224.436 28.6003L224.439 28.6024C228.104 31.218 231.602 33.8235 234.982 36.3415C241.283 41.0347 247.174 45.4228 252.974 49.0034L252.979 49.0062C260.634 53.9083 267.424 59.6804 274.118 65.3703C274.882 66.0194 275.643 66.6673 276.405 67.3129C283.855 73.6225 291.296 79.6966 299.823 84.2639C303.877 86.4288 308.78 87.1457 313.788 87.8015C314.031 87.8332 314.274 87.865 314.517 87.8967C319.262 88.5147 324.065 89.1402 328.168 90.9916C329.697 91.511 330.738 92.1132 331.954 93.1805L331.96 93.1864C342.108 102.591 355.634 106.145 368.972 104.627L368.983 104.625C372.706 104.308 376.367 103.273 379.963 100.826L380.061 100.759L380.165 100.743C380.275 100.727 380.349 100.716 380.405 100.705L380.471 100.591L380.573 100.511C385.351 96.7271 388.061 90.7564 388.946 84.6496C389.832 78.5397 388.874 72.382 386.393 68.3317L386.387 68.3207C384.309 64.6625 381.33 61.9681 378.14 59.4583C377.326 58.818 376.497 58.1879 375.666 57.5579C373.255 55.7282 370.83 53.8874 368.719 51.7332C367.007 50.0291 365.62 48.5076 364.387 46.7101C358.604 38.546 356.58 28.2412 354.643 18.3811C354.411 17.1994 354.18 16.0234 353.944 14.8587Z" stroke="white" stroke-miterlimit="10"/>
<path d="M355.13 -49.6616L355.127 -49.6642C347.882 -56.3215 339.179 -58.1699 330.486 -58.5681C323.529 -58.8598 316.45 -57.7973 309.174 -56.3378C306.553 -55.8127 303.902 -55.2341 301.221 -54.649C296.48 -53.6145 291.648 -52.5598 286.736 -51.7439C279.667 -50.4366 272.888 -50.4024 266.58 -51.1742L266.572 -51.1763C259.079 -52.2649 252.315 -55.1867 245.605 -58.8361C242.25 -60.6618 238.907 -62.6701 235.496 -64.723L235.293 -64.8449C231.945 -66.8602 228.52 -68.9221 224.95 -70.896C199.875 -84.6611 175.567 -77.0419 161.187 -58.2559C156.35 -51.4252 151.899 -44.4642 149.408 -37.1057L149.41 -37.0922C142.26 -16.9588 135.262 12.9082 152.479 29.9129C154.296 31.6509 157.084 32.7481 160.437 33.5024C163.775 34.2494 167.634 34.6474 171.544 35.0064C171.955 35.0421 172.374 35.082 172.793 35.1218C176.285 35.4391 179.786 35.7585 182.929 36.306C186.447 36.9208 189.569 37.8298 191.776 39.3794L191.783 39.3835C196.866 43.0196 201.683 46.6908 206.383 50.2728C216.076 57.6615 225.275 64.6725 235.328 70.2366C247.297 76.7888 256.619 86.7423 265.785 96.7642C266.148 97.1603 266.51 97.556 266.872 97.9517C275.678 107.59 284.433 117.17 295.381 123.833L295.382 123.833C300.081 126.721 306.876 126.616 314.024 126.094C315.102 126.015 316.189 125.927 317.277 125.838C323.345 125.344 329.445 124.847 334.354 125.997C336.372 126.438 338.257 127.155 339.832 128.433L339.839 128.439L339.846 128.446C354.409 141.826 373.537 145.767 391.449 143.319C396.812 142.513 402.097 140.989 407.442 137.065L407.679 136.892L407.863 136.998C407.874 136.98 407.886 136.959 407.899 136.937L407.966 136.82L408.065 136.741C415.005 131.161 419.134 122.339 420.652 113.381C422.171 104.422 421.06 95.4172 417.61 89.5638L417.605 89.5564C414.557 84.0879 410.26 80.1858 405.668 76.5097C404.691 75.7276 403.7 74.9556 402.706 74.1798C399.038 71.3211 395.318 68.4227 392.064 64.8487L392.06 64.8436C390.165 62.6753 388.079 60.0336 386.484 57.31C378.843 44.4709 376.492 28.8338 374.365 14.6845C374.135 13.1583 373.909 11.6491 373.678 10.163L373.678 10.1589C373.229 7.1066 372.847 3.78098 372.447 0.29102C371.663 -6.54852 370.806 -14.0185 369.232 -21.3025C366.86 -32.2774 362.878 -42.7129 355.13 -49.6616Z" stroke="white" stroke-miterlimit="10"/>
<path d="M393.722 4.94549L394.162 4.74189M393.722 4.94549C393.149 0.977379 392.675 -3.41263 392.173 -8.05684C391.213 -16.9397 390.152 -26.7549 388.112 -36.3378C385.013 -50.901 379.67 -64.795 369.058 -73.7569C359.467 -81.7724 347.154 -83.5745 335.852 -83.3383C327.018 -83.1067 318.193 -81.3556 309.271 -79.2819C307.106 -78.7786 304.934 -78.2566 302.755 -77.7323C295.967 -76.0988 289.109 -74.4492 282.162 -73.3149C272.98 -71.4445 264.728 -71.1863 256.76 -72.2008C240.739 -74.2796 226.989 -82.6349 211.646 -91.9602C209.335 -93.3636 206.99 -94.7893 204.6 -96.2164C171.088 -116.275 139.061 -103.85 120.437 -79.2757L120.432 -79.2672C113.565 -70.4505 108.039 -60.8797 104.49 -50.8898C99.8773 -37.8534 94.4413 -20.8998 93.0478 -4.3866C91.6544 12.1102 94.2926 28.1363 105.794 39.3775C108.152 41.6928 111.951 43.0254 116.55 43.8189C121.14 44.6111 126.477 44.8588 131.889 45.0588C132.451 45.0789 133.013 45.0981 133.575 45.1173C138.419 45.2911 143.256 45.4618 147.567 45.9892C152.37 46.576 156.575 47.6118 159.428 49.6234C166.497 54.6693 173.086 59.7988 179.519 64.8078C192.204 74.6825 204.281 84.0837 218.177 91.3972C233.586 99.3972 244.932 112.851 255.943 126.571C256.718 127.537 257.491 128.503 258.264 129.47C268.485 142.251 278.64 154.949 291.756 163.515C297.362 167.1 305.985 166.128 315.17 164.411C316.81 164.104 318.468 163.774 320.127 163.443C327.694 161.936 335.289 160.422 341.376 161.128L341.389 161.129L341.402 161.131L341.465 161.144C344.232 161.69 347.124 162.259 348.898 164.021C367.545 181.184 391.784 185.58 414.759 182.129C421.578 181.104 428.936 179.028 435.665 173.489C435.761 173.367 435.867 173.284 435.944 173.23C436.048 173.158 436.161 173.099 436.234 173.06C436.319 173.016 436.367 172.99 436.402 172.966L436.435 172.909L436.522 172.833C445.372 165.134 450.754 153.36 452.866 141.523C454.979 129.685 453.802 117.877 449.622 110.178L449.621 110.175C445.679 102.767 439.981 97.6106 433.928 92.7782C432.747 91.8363 431.553 90.9057 430.355 89.9731C425.426 86.1338 420.448 82.2564 416.211 77.3565L416.207 77.3504L416.202 77.3448L416.19 77.3293C413.611 74.0616 411.009 70.7645 409.052 67.119C399.721 51.1835 397.269 32.1234 395.026 14.6892C394.599 11.3717 394.18 8.11313 393.722 4.94549Z" stroke="white" stroke-miterlimit="10"/>
<path d="M383.152 -97.396C370.695 -107.424 355.107 -108.982 341.199 -108.112C330.49 -107.356 319.919 -104.915 309.209 -102.176C307.291 -101.685 305.368 -101.185 303.439 -100.683C294.606 -98.3853 285.646 -96.0542 276.44 -94.4698C265.302 -92.3049 255.577 -91.8241 245.944 -93.0815C225.742 -95.7483 208.24 -106.464 188.05 -118.823C186.522 -119.759 184.981 -120.703 183.416 -121.656C141.147 -147.483 101.383 -130.969 78.3683 -100.355C70.0886 -89.1076 62.8433 -77.3235 58.5815 -64.5528L58.5859 -64.544L58.5672 -64.4955C52.994 -48.2484 45.6433 -26.8061 43.2836 -5.91678C40.9217 14.9764 43.5586 35.2706 57.9459 49.247C60.903 52.0865 65.736 53.5982 71.6103 54.3971C77.476 55.1948 84.3123 55.2718 91.2217 55.2875C91.8596 55.2897 92.4975 55.292 93.1284 55.2901C99.4015 55.3007 105.665 55.3119 111.209 55.8194C117.307 56.3776 122.587 57.5379 126.078 60.0074C135.062 66.3117 143.4 72.8899 151.602 79.3609C155.205 82.2039 158.783 85.0268 162.381 87.7984C174.163 96.8766 186.136 105.392 199.851 112.241C218.773 121.553 232.058 138.456 244.851 155.883C245.95 157.38 247.044 158.879 248.138 160.379C259.804 176.364 271.423 192.286 286.955 202.88C290.165 205.082 294.415 205.73 299.3 205.451C304.184 205.172 309.668 203.97 315.325 202.509C317.465 201.957 319.632 201.365 321.8 200.776C325.345 199.809 328.89 198.843 332.308 198.046C337.824 196.757 343.069 195.889 347.574 196.141L347.582 196.141L347.591 196.142C351.397 196.551 354.301 197.111 356.759 199.268L356.764 199.272C379.835 220.42 409.526 225.465 437.225 220.816L437.233 220.815C445.516 219.571 454.498 217.009 462.977 209.992C463.201 209.656 463.466 209.464 463.651 209.343C463.731 209.291 463.777 209.262 463.816 209.237C463.836 209.223 463.855 209.211 463.875 209.196C463.877 209.195 463.88 209.193 463.882 209.191L463.917 209.131L464.002 209.056C475.167 199.294 482.003 184.606 484.748 169.925C487.495 155.241 486.132 140.649 480.982 131.143L480.981 131.14C476.069 121.923 468.929 115.577 461.413 109.587C460.199 108.619 458.975 107.661 457.748 106.7C451.398 101.729 444.996 96.7162 439.701 90.2029C436.25 86.0624 433.284 81.8404 430.962 77.2663C419.908 57.0841 417.16 32.7714 414.701 11.0148C414.286 7.34571 413.88 3.74884 413.444 0.256803C412.825 -4.44631 412.328 -9.70895 411.797 -15.3167C410.751 -26.3819 409.578 -38.7929 407.099 -50.9076C403.371 -69.1344 396.707 -86.5546 383.152 -97.396Z" stroke="white" stroke-miterlimit="10"/>
<path d="M432.99 -4.88505L432.99 -4.88772C432.372 -10.1785 431.884 -16.0926 431.363 -22.4051C430.256 -35.8166 429.001 -51.0241 426.038 -65.8644C421.684 -87.6623 413.66 -108.545 397.068 -121.498C382.26 -132.887 363.547 -134.465 346.543 -132.885C333.96 -131.605 321.684 -128.54 309.311 -125.155C306.988 -124.518 304.66 -123.871 302.329 -123.22C292.248 -120.414 282.049 -117.58 271.563 -115.504C258.788 -112.85 247.253 -112.343 236.311 -113.644L236.303 -113.646C211.142 -116.876 189.622 -130.187 164.049 -146.004L162.913 -146.706C137.389 -162.51 112.83 -165.202 91.2671 -159.407C69.7048 -153.613 51.0992 -139.329 37.4628 -121.116C27.463 -107.654 18.8233 -93.4553 13.5046 -78.0723L13.5019 -78.0676C13.3236 -77.5798 13.1502 -77.0841 12.9747 -76.5847C6.24414 -57.6168 -2.66432 -32.4995 -5.87383 -7.90768C-9.16426 17.3127 -6.44735 41.9295 10.7628 58.7828C14.3056 62.1384 20.1807 63.8314 27.3232 64.6317C34.4635 65.4358 42.799 65.3421 51.2136 65.1766C51.9265 65.1628 52.6395 65.1491 53.3524 65.1353C61.0551 64.9816 68.7394 64.8275 75.5102 65.3109C82.8955 65.8374 89.2577 67.1262 93.3855 70.0547C103.705 77.4337 113.272 85.0884 122.673 92.6087C127.444 96.426 132.177 100.211 136.942 103.908C151.094 114.889 165.555 125.109 182.36 133.207L182.361 133.208C204.469 144.001 219.608 164.301 234.16 185.377C235.489 187.303 236.815 189.236 238.139 191.168C251.327 210.402 264.507 229.628 282.494 242.439L282.496 242.44C286.126 245.059 291.064 245.712 296.801 245.18C302.536 244.648 309.028 242.937 315.731 240.876C318.566 240.005 321.449 239.067 324.325 238.131C328.222 236.864 332.107 235.6 335.848 234.509C342.364 232.608 348.534 231.2 353.768 231.154C358.426 230.951 361.997 231.907 364.786 234.251L364.791 234.255L364.796 234.26C391.953 259.194 427.585 264.816 459.857 259.235C469.779 257.501 480.393 254.448 490.632 245.936C490.719 245.822 490.815 245.734 490.883 245.675C490.986 245.584 491.105 245.495 491.2 245.422C491.305 245.342 491.387 245.279 491.452 245.222C491.486 245.192 491.504 245.174 491.511 245.166L491.558 245.085L491.645 245.01C505.041 233.323 513.248 215.678 516.607 198.089C519.966 180.498 518.455 163.055 512.501 151.836C506.527 140.577 497.899 132.927 488.881 125.757C487.448 124.618 486.005 123.491 484.562 122.364C476.931 116.403 469.278 110.426 463.018 102.592C459.043 97.7874 455.718 92.6414 452.884 87.4248L452.884 87.4234C440.169 63.8259 437.29 35.8972 434.693 10.6947C434.143 5.35699 433.606 0.140733 432.99 -4.88505Z" stroke="white" stroke-miterlimit="10"/>
<path d="M544.519 172.464L544.518 172.462C537.74 159.491 527.795 150.633 517.333 142.273C515.692 140.962 514.039 139.663 512.383 138.362C503.494 131.38 494.535 124.343 487.169 115.107C482.676 109.646 478.65 103.381 475.454 97.2369C460.44 68.6712 457.291 34.9088 454.486 4.83248C454.011 -0.266463 453.545 -5.25873 453.033 -10.1029C452.374 -16.0422 451.86 -22.7098 451.308 -29.848C450.101 -45.4822 448.72 -63.3751 445.27 -80.828C440.249 -106.225 430.863 -130.569 411.326 -145.402C393.652 -158.804 371.509 -159.87 351.892 -157.654C337.516 -155.983 323.578 -152.183 309.591 -148.032C307.197 -147.321 304.798 -146.601 302.398 -145.879C290.784 -142.385 279.069 -138.865 267.018 -136.34C252.608 -133.199 239.263 -132.666 226.672 -134.205C197.67 -137.7 172.863 -153.103 142.913 -171.822C112.926 -190.382 84.2841 -193.377 59.2259 -186.478C34.1688 -179.58 12.6552 -162.783 -3.09149 -141.679C-14.3374 -126.076 -24.5244 -109.197 -30.8979 -91.2055C-31.4273 -89.7188 -31.9687 -88.1948 -32.5216 -86.6346C-40.2044 -65.0243 -50.2454 -36.8058 -54.1957 -9.10743C-58.4325 20.5688 -55.6674 49.5794 -35.5644 69.172L-35.5649 69.1729C-31.5054 73.1803 -24.6369 75.1389 -16.248 75.9949C-7.86846 76.8505 1.95691 76.6021 11.8761 76.2564C12.8244 76.2257 13.7667 76.1892 14.7156 76.1577C23.6881 75.8397 32.6242 75.5196 40.4939 75.9559C49.1834 76.4376 56.6364 77.84 61.3951 81.2224C73.6004 89.8444 84.9205 98.9411 96.0922 107.921C101.396 112.182 106.668 116.418 111.983 120.564C128.504 133.448 145.503 145.49 165.393 154.834L165.394 154.835C191.01 166.937 208.171 190.731 224.546 215.537C226.179 218.011 227.804 220.495 229.429 222.977C244.114 245.421 258.779 267.834 279.044 282.581C283.089 285.439 288.703 285.978 295.281 285.118C301.857 284.26 309.346 282.01 317.097 279.35C320.358 278.229 323.672 277.034 326.982 275.84C331.514 274.206 336.036 272.575 340.395 271.148C347.951 268.673 355.103 266.78 361.152 266.488C366.277 266.212 370.855 267.006 373.845 269.836C405.086 298.554 445.829 304.632 483.163 298.048C494.711 295.825 506.949 292.285 518.938 282.294C519.153 281.974 519.406 281.781 519.577 281.651L519.598 281.635C519.807 281.475 519.9 281.396 519.973 281.268L520.032 281.167L520.116 281.092C535.579 267.382 545.159 246.777 549.13 226.283C553.102 205.785 551.443 185.493 544.519 172.464Z" stroke="white" stroke-miterlimit="10"/>
<path d="M425.09 -169.236L425.088 -169.237C405.307 -184.196 379.693 -185.268 357.537 -182.465C341.651 -180.456 325.648 -175.904 309.595 -171.041C307.429 -170.382 305.259 -169.717 303.082 -169.056C289.21 -164.811 275.299 -160.564 261.453 -157.764C245.094 -154.324 230.277 -153.569 216.022 -155.352C183.56 -159.058 155.73 -176.207 121.739 -197.259C87.4515 -218.837 54.6809 -222.252 26.0427 -214.297C-2.5955 -206.341 -27.1356 -187.005 -45.0079 -163.018L-45.0095 -163.015C-58.466 -145.129 -70.0427 -125.843 -77.1369 -105.057L-77.138 -105.055C-78.1812 -102.027 -79.2927 -98.8642 -80.4454 -95.5815C-88.8698 -71.5467 -99.5427 -41.1105 -104.09 -11.1731C-109.256 22.8313 -106.497 56.1185 -83.5795 78.5857C-79.0959 83.0146 -71.2915 85.0945 -61.6904 85.9183C-52.1066 86.7396 -40.7955 86.3114 -29.3717 85.7855C-28.4723 85.7418 -27.5659 85.7022 -26.6665 85.6585C-16.1399 85.1725 -5.62903 84.6811 3.59746 85.1119C13.596 85.5731 22.1433 87.1151 27.5401 90.9554C41.6329 100.916 54.6272 111.444 67.4422 121.826C73.3725 126.631 79.2643 131.405 85.2066 136.075C104.003 150.848 123.348 164.623 146.175 175.225C176.018 189.085 195.075 216.252 213.105 244.655C214.995 247.632 216.874 250.622 218.753 253.613C234.809 279.175 250.856 304.721 273.912 321.752C278.464 325.079 284.803 325.618 292.24 324.481C299.675 323.345 308.154 320.544 316.94 317.253C320.54 315.905 324.196 314.472 327.851 313.041C333.095 310.986 338.334 308.934 343.39 307.136C351.978 304.083 360.12 301.734 367.029 301.311C372.826 300.688 377.729 301.687 381.381 304.892L381.387 304.896C417.051 337.598 463.403 344.058 505.311 336.541C518.361 334.092 532.74 329.978 546.014 318.529L546.065 318.484L546.123 318.453C546.372 318.322 546.557 318.154 546.798 317.933L546.811 317.921C547.033 317.717 547.302 317.47 547.659 317.27C565.325 301.633 576.342 278.141 580.963 254.789C585.589 231.413 583.784 208.269 575.888 193.431L575.886 193.427C568.214 178.512 556.866 168.399 544.944 158.882C543.077 157.393 541.197 155.917 539.314 154.44C529.182 146.494 518.99 138.5 510.671 127.958C505.483 121.386 500.938 114.465 497.376 107.391C480.751 75.1511 477.289 37.2611 474.195 3.39627C473.62 -2.8867 473.059 -9.03092 472.429 -14.9749C471.662 -21.9866 471.092 -29.894 470.481 -38.3663C469.211 -56.0033 467.763 -76.0943 463.988 -95.6891C458.404 -124.667 447.741 -152.425 425.09 -169.236Z" stroke="white" stroke-miterlimit="10"/>
<path d="M269.454 361.315C277.02 367.036 286.472 366.958 296.889 363.986C307.039 361.09 318.055 355.461 329.072 349.833L329.981 349.369C341.276 343.601 352.549 337.91 362.753 335.352C372.973 332.789 382.17 333.357 389.271 340.159C429.359 376.841 481.161 383.948 527.791 375.234C543.453 372.098 560.374 366.845 574.377 354.08C593.511 336.64 606.492 311.044 612.264 285.095C618.037 259.146 616.586 232.905 606.921 214.203C598.2 197.612 585.411 186.307 572.027 175.635C570.054 174.062 568.068 172.503 566.08 170.942C554.596 161.924 543.055 152.861 533.685 140.89C503.856 103.093 498.625 48.1074 493.52 -5.56006C493.072 -10.2716 492.624 -14.9731 492.162 -19.6504C491.257 -28.5453 490.494 -37.633 489.727 -46.7841C487.666 -71.3657 485.566 -96.3973 480.561 -119.329C473.698 -150.774 461.383 -178.189 436.253 -194.927C411.251 -211.579 381.53 -210.868 350.444 -204.321C334.897 -201.049 319.025 -196.319 303.232 -191.58L301.96 -191.199C286.608 -186.588 271.339 -182.008 256.577 -178.794C238.428 -174.597 221.799 -173.816 206.228 -175.647C170.124 -180.029 138.782 -198.845 101.245 -222.303C62.4945 -246.636 25.6479 -250.351 -6.48564 -241.291C-38.6192 -232.231 -66.0763 -210.381 -86.0585 -183.505L-86.0612 -183.5C-114.013 -146.499 -139.022 -91.8828 -150.111 -39.7557C-161.204 12.379 -158.347 61.8899 -130.739 88.8512C-125.663 93.8021 -116.816 96.0615 -105.939 96.8907C-95.0804 97.7175 -82.2767 97.1135 -69.3412 96.4114C-68.3608 96.3577 -67.3799 96.303 -66.3989 96.2484C-54.4492 95.5931 -42.5163 94.9345 -32.0699 95.3363C-20.777 95.7698 -11.1559 97.4381 -5.1211 101.736C10.3462 112.702 24.6751 124.338 38.8512 135.847C45.8138 141.502 52.7455 147.128 59.744 152.623C81.0184 169.323 103.041 184.891 129.104 196.728C161.488 211.486 182.562 242.097 202.539 274.251C204.702 277.733 206.853 281.233 209.003 284.732C226.729 313.58 244.458 342.435 269.454 361.315Z" stroke="white" stroke-miterlimit="10"/>
<path d="M196.553 -196.939C156.982 -201.536 122.461 -221.832 81.0468 -247.885C37.664 -275.071 -3.31063 -279.206 -38.9633 -269.098C-74.6084 -258.987 -104.981 -234.628 -127.151 -204.728C-143.73 -182.215 -158.092 -158.104 -167.295 -132.103C-168.961 -127.328 -170.767 -122.264 -172.655 -116.957C-183.131 -87.5466 -196.242 -50.7368 -202.243 -14.4891C-209.326 28.2739 -206.495 70.1631 -177.779 98.1189C-172.149 103.656 -162.288 106.146 -150.164 107.014C-138.052 107.884 -123.763 107.133 -109.332 106.268C-108.193 106.198 -107.053 106.128 -105.913 106.059C-92.6261 105.253 -79.368 104.449 -67.7766 104.821C-55.1915 105.231 -44.49 107.03 -37.8243 111.783C-20.4701 124.088 -4.4947 137.137 11.2883 150.031C18.9341 156.277 26.5344 162.488 34.2324 168.562C57.8146 187.175 82.2845 204.511 111.606 217.695C147.418 233.896 170.428 267.949 192.206 303.776C194.579 307.678 196.937 311.602 199.295 315.527C218.6 347.653 237.924 379.812 265.472 400.798C270.824 404.851 278.487 405.317 287.571 403.621C296.652 401.926 307.092 398.083 317.942 393.596C322.507 391.708 327.153 389.702 331.798 387.697C338.164 384.949 344.528 382.201 350.676 379.76C361.324 375.533 371.416 372.186 379.954 371.273C387.212 370.428 393.447 371.464 397.628 375.339C441.467 415.615 498.721 423.372 550.415 413.653C566.559 410.495 584.352 405.136 601.14 390.71L601.192 390.665L601.248 390.635C601.474 390.516 601.682 390.308 601.972 390.008L601.998 389.982C602.244 389.728 602.56 389.402 602.936 389.185C624.9 369.602 638.583 340.326 644.371 311.265C650.164 282.178 648.027 253.397 638.433 234.9C628.818 216.364 614.626 203.804 599.78 191.975C597.579 190.222 595.363 188.485 593.147 186.746C580.423 176.767 567.65 166.748 557.329 153.474L557.325 153.467C551.258 145.316 545.835 136.818 541.212 127.706L541.212 127.705C521.179 87.7868 517.294 40.9975 513.835 -0.664947C513.147 -8.94093 512.477 -17.0148 511.7 -24.7931C510.884 -33.0458 510.287 -42.3536 509.646 -52.3492C508.224 -74.5436 506.584 -100.127 501.839 -125.071C494.962 -161.222 481.577 -195.906 452.942 -216.708L452.94 -216.709C427.846 -235.11 395.346 -236.089 367.756 -231.701L252.009 -200.873L251.988 -200.364C251.981 -200.368 251.98 -200.367 251.98 -200.367C231.874 -195.874 213.773 -194.871 196.553 -196.939ZM196.553 -196.939L196.7 -197.455" stroke="white" stroke-miterlimit="10"/>
<path d="M373.106 -256.474L373.105 -256.473C351.311 -252.834 330.567 -246.358 309.822 -239.634C308.052 -239.06 306.282 -238.485 304.512 -237.911C285.535 -231.741 266.486 -225.547 246.604 -221.328C224.534 -216.543 204.63 -215.511 186.092 -217.625C142.907 -222.166 105.355 -244.213 60.0628 -272.862C12.5408 -302.973 -32.4785 -307.478 -71.6618 -296.286C-110.852 -285.097 -144.251 -258.199 -168.538 -225.414C-186.695 -200.95 -202.779 -174.622 -212.862 -145.565L-212.863 -145.564C-214.775 -140.054 -216.872 -134.191 -219.074 -128.033C-230.554 -95.9219 -244.9 -55.8021 -251.588 -16.2468C-259.558 30.8698 -256.65 77.0863 -225.119 107.917C-218.89 113.978 -207.985 116.648 -194.587 117.521C-181.206 118.392 -165.418 117.47 -149.482 116.424C-148.261 116.344 -147.04 116.264 -145.818 116.183C-131.116 115.205 -116.436 114.233 -103.618 114.581C-89.7452 114.959 -77.9705 116.886 -70.6662 122.095C-51.3049 135.711 -33.511 150.25 -15.9024 164.639C-7.7088 171.336 0.453854 178.005 8.70998 184.529C34.7112 205.074 61.7126 224.229 94.1277 238.664C133.442 256.17 158.388 293.665 181.948 333.199C184.552 337.569 187.14 341.963 189.728 346.359C210.568 381.759 231.443 417.215 261.505 440.279L261.506 440.28C270.69 447.394 282.07 447.211 294.588 443.368C306.948 439.574 320.366 432.228 333.808 424.87L334.376 424.559C347.983 417.11 361.602 409.699 374.045 406.111C386.505 402.519 397.836 402.747 406.825 410.634L406.83 410.639C455.092 454.899 517.954 463.036 574.221 452.385C591.835 449.006 611.255 443.158 629.798 427.245L629.812 427.232L629.826 427.222C630.184 426.949 630.431 426.695 630.708 426.409L630.713 426.404C630.985 426.123 631.286 425.812 631.715 425.483C655.762 403.877 670.828 371.629 677.231 339.648C683.637 307.656 681.354 276.024 670.788 255.718C660.202 235.37 644.605 221.554 628.317 208.535C625.939 206.634 623.546 204.75 621.152 202.866C607.162 191.853 593.129 180.806 581.821 166.18C574.738 157.438 568.95 148.013 563.967 137.98C541.669 93.9876 537.649 42.2655 534.092 -3.5027C533.396 -12.4458 532.719 -21.1623 531.927 -29.549C530.982 -38.805 530.301 -49.3023 529.567 -60.5974C527.996 -84.8116 526.187 -112.695 521.036 -139.882C513.489 -179.723 498.781 -217.936 467.2 -240.619C439.08 -260.769 403.452 -261.766 373.106 -256.474Z" stroke="white" stroke-miterlimit="10"/>
<path d="M702.161 276.687C713.531 298.706 715.96 333.19 708.943 368.088C701.926 402.975 685.489 438.179 659.211 461.71L659.172 461.74C658.447 462.292 657.595 462.941 657.054 463.812C636.784 481.157 615.768 487.482 596.551 491.345C535.561 503.195 467.248 494.41 414.561 446.169C409.521 441.439 401.961 440.361 393.074 441.696C382.947 443.034 370.918 447.362 358.204 452.77C350.904 455.876 343.347 459.351 335.784 462.83C330.188 465.404 324.589 467.98 319.087 470.408C306.123 476.13 293.658 481.056 282.857 483.33C272.052 485.604 262.98 485.208 256.739 480.377C224.432 455.244 202.019 416.624 179.648 378.075C176.791 373.151 173.934 368.228 171.058 363.334C145.677 320.162 118.755 279.292 76.1772 260.436L75.954 260.888L76.1766 260.437C40.6816 244.76 11.1882 223.897 -17.141 201.474C-26.5151 194.053 -35.7619 186.461 -45.0603 178.829C-63.8537 163.399 -82.8514 147.802 -103.481 133.144C-111.462 127.544 -124.329 125.522 -139.496 125.188C-153.465 124.88 -169.452 126 -185.48 127.124C-186.872 127.223 -188.271 127.319 -189.663 127.417C-207.093 128.626 -224.367 129.695 -239.011 128.797C-253.665 127.901 -265.604 125.037 -272.425 118.454C-306.855 84.8789 -309.841 34.3351 -300.944 -17.2013C-293.528 -60.167 -277.866 -103.754 -265.308 -138.695C-262.796 -145.682 -260.408 -152.325 -258.243 -158.551C-247.103 -190.22 -229.957 -219.152 -210.082 -245.826L-210.081 -245.828C-183.678 -281.499 -147.37 -310.911 -104.648 -323.186C-61.9189 -335.456 -12.7327 -330.597 39.4146 -297.637C88.7469 -266.656 128.985 -243.059 176.144 -237.652C196.337 -235.295 217.721 -236.546 241.418 -241.822L241.419 -241.824C262.531 -246.641 282.771 -253.401 302.932 -260.139C305.236 -260.906 307.532 -261.674 309.833 -262.437C332.291 -269.913 354.785 -277.076 378.452 -281.241C411.407 -287.17 450.804 -286.493 481.12 -264.718L481.419 -265.176L481.121 -264.718C515.572 -240.021 531.642 -198.343 539.857 -154.903C545.542 -124.837 547.459 -93.9874 549.113 -67.3484C549.852 -55.4764 550.537 -44.4401 551.481 -34.6833C552.39 -25.1802 553.157 -15.2909 553.944 -5.13645C557.786 44.4211 562.115 100.279 585.894 148.139L585.896 148.144C591.396 158.827 597.546 169.176 605.328 179.039C617.711 195.026 632.969 207.028 648.154 218.972C650.796 221.05 653.436 223.126 656.058 225.221C673.765 239.371 690.681 254.396 702.161 276.687ZM702.161 276.687L702.56 276.348" stroke="white" stroke-miterlimit="10"/>
<path d="M383.78 -306.013C419.344 -312.58 462.022 -312.148 495.209 -288.36L495.21 -288.359C532.777 -261.684 550.208 -216.542 559.047 -169.529C565.167 -136.983 567.164 -103.601 568.884 -74.8347C569.65 -62.0227 570.362 -50.1271 571.358 -39.6293C572.282 -29.526 573.055 -19.0031 573.849 -8.19095C577.79 45.4809 582.253 106.279 608.3 158.224L608.3 158.225C614.166 169.836 620.832 180.839 628.973 191.619L628.975 191.622C642.341 208.954 658.91 222.016 675.398 235.012C678.234 237.248 681.067 239.482 683.881 241.735C703.073 257.1 721.392 273.381 733.676 297.385C745.94 321.349 748.554 358.618 740.963 396.353C733.373 434.075 715.603 472.173 687.183 497.861L687.145 497.888C686.42 498.441 685.568 499.089 685.027 499.961C663.154 518.527 640.355 525.608 619.181 529.765C553.279 542.353 479.695 533.381 422.586 481.156L422.584 481.154C416.87 476.038 409.155 475.231 399.453 476.444L399.445 476.444C388.505 478.027 375.496 482.839 361.745 488.816C353.856 492.245 345.693 496.072 337.526 499.901C331.471 502.74 325.413 505.579 319.464 508.259C305.462 514.565 292.013 520.005 280.392 522.57C268.767 525.134 259.043 524.805 252.424 519.667C217.595 492.454 193.628 450.529 169.717 408.704C166.634 403.312 163.553 397.921 160.449 392.565C133.287 345.686 104.429 301.375 58.3478 281.212C19.7652 264.288 -12.2672 241.603 -43.0079 217.251C-52.9471 209.377 -62.7559 201.326 -72.6097 193.239C-93.2286 176.314 -114.045 159.228 -136.675 143.262C-145.287 137.209 -159.248 135.047 -175.736 134.722C-190.932 134.423 -208.345 135.683 -225.79 136.95C-227.281 137.06 -228.773 137.169 -230.264 137.276C-249.21 138.637 -267.977 139.849 -283.86 138.916C-299.754 137.985 -312.664 134.915 -319.956 127.795C-357.2 91.3446 -360.186 36.5192 -350.36 -19.3464C-342.36 -64.8213 -325.889 -110.917 -312.54 -148.285C-309.48 -156.841 -306.589 -164.941 -303.992 -172.468M383.78 -306.013L383.82 -306.488M383.78 -306.013C358.24 -301.323 334.049 -293.533 309.857 -285.496C308.021 -284.888 306.184 -284.278 304.353 -283.664C281.997 -276.218 259.55 -268.746 236.007 -263.51L236 -263.513C210.344 -257.939 187.644 -256.736 165.647 -259.063L165.64 -259.066C115.015 -264.69 71.5975 -289.764 18.3873 -323.342C-38.0679 -359.325 -91.2912 -364.551 -137.516 -351.175C-183.733 -337.796 -222.989 -305.8 -251.51 -267.245L-251.511 -267.242C-273.274 -238.079 -292.141 -206.932 -303.992 -172.468M-303.992 -172.468L-304.365 -172.539" stroke="white" stroke-miterlimit="10"/>
<path d="M764.713 318.161C777.781 343.839 780.542 383.96 772.338 424.6C764.136 465.229 744.994 506.283 714.341 533.894C713.932 534.208 713.488 534.584 713.059 534.948C712.618 535.322 712.192 535.682 711.807 535.975L711.792 535.987L711.775 536.001C688.461 556.298 664.006 563.879 640.84 568.337L640.839 568.337C570.213 582.125 490.841 572.309 429.981 516.491L429.975 516.487C423.929 511.183 415.548 509.982 405.184 511.539C393.467 513.3 379.508 518.591 364.738 525.157C356.319 528.901 347.604 533.074 338.88 537.25C332.315 540.393 325.746 543.538 319.292 546.505C304.234 553.429 289.762 559.404 277.254 562.232C264.742 565.059 254.269 564.719 247.139 559.109C210.097 529.853 184.602 484.822 159.152 439.871C155.776 433.907 152.4 427.944 148.999 422.02C119.974 371.477 89.0568 323.745 39.5513 302.14C-2.29445 283.868 -36.7666 259.417 -69.7868 233.169C-80.4559 224.686 -90.9771 216.013 -101.55 207.298C-123.669 189.065 -145.992 170.664 -170.343 153.463C-179.586 146.955 -194.627 144.662 -212.402 144.368C-228.825 144.094 -247.652 145.525 -266.52 146.961C-268.093 147.081 -269.667 147.202 -271.239 147.32C-291.69 148.861 -311.956 150.244 -329.108 149.31C-346.277 148.374 -360.231 145.126 -368.121 137.479C-408.265 98.2844 -411.321 39.1357 -400.527 -21.1253C-391.681 -70.5234 -373.537 -120.592 -358.913 -160.949C-355.694 -169.847 -352.636 -178.269 -349.894 -186.111C-336.989 -223.182 -316.722 -256.738 -293.567 -288.313C-262.937 -329.757 -220.687 -364.219 -170.924 -378.676C-121.168 -393.137 -63.8625 -387.607 -3.11339 -348.966C53.9747 -312.793 100.423 -285.967 154.508 -280.133L154.509 -280.134C177.829 -277.755 202.67 -278.792 230.115 -285.121C256.6 -290.747 281.661 -299.084 306.606 -307.383C307.664 -307.734 308.715 -308.09 309.773 -308.441C335.774 -317.087 361.714 -325.562 389.128 -330.779L389.129 -330.78C427.45 -338.249 473.591 -337.606 509.131 -312.457C549.569 -283.768 568.361 -235.162 577.868 -184.55C584.523 -149.118 586.623 -112.76 588.423 -81.5754C589.196 -68.1916 589.914 -55.7616 590.913 -44.7655L591.357 -44.9435L590.913 -44.7642C591.96 -33.4662 592.825 -21.6811 593.713 -9.56599C597.926 47.8269 602.681 112.623 629.89 168.187L629.891 168.191C636.12 180.727 643.486 192.847 652.145 204.284L652.147 204.286C666.462 222.921 684.263 236.938 701.991 250.896C705.056 253.31 708.118 255.721 711.161 258.154C731.814 274.676 751.535 292.214 764.713 318.161ZM764.713 318.161L765.042 317.883" stroke="white" stroke-miterlimit="10"/>
<path d="M-415.279 147.745C-458.322 105.806 -461.462 42.325 -449.762 -22.3227C-440.212 -75.0405 -420.815 -128.467 -405.178 -171.54C-401.63 -181.3 -398.282 -190.533 -395.281 -199.101C-381.314 -238.777 -359.508 -275.015 -334.778 -308.535C-301.954 -352.999 -256.795 -389.976 -203.539 -405.452C-150.284 -420.926 -88.881 -414.906 -23.5843 -373.283C37.0504 -334.705 87.0094 -306.209 144.891 -299.968L144.892 -299.969C169.869 -297.349 196.182 -298.609 225.585 -305.234L225.593 -305.232C252.894 -311.506 278.765 -320.399 304.548 -329.255C306.358 -329.883 308.175 -330.505 309.991 -331.128C337.583 -340.593 365.182 -349.809 394.462 -355.554C435.396 -363.656 484.818 -363.261 523.228 -336.098C566.781 -305.432 586.934 -253.362 597.046 -199.143C604.158 -161.018 606.298 -121.887 608.131 -88.3978C608.906 -74.2375 609.626 -61.0862 610.642 -49.4446C611.692 -37.672 612.559 -25.3985 613.451 -12.7811C617.803 48.7721 622.736 118.537 652.148 178.539C658.741 192.002 666.625 204.778 675.981 217.331L675.983 217.333C691.319 237.565 710.517 252.69 729.643 267.76C732.766 270.22 735.887 272.68 738.989 275.159C761.104 292.835 782.268 311.564 796.417 339.321M-415.279 147.745L-415.618 148.17M-415.279 147.745C-406.835 155.978 -391.857 159.44 -373.427 160.39C-355.008 161.342 -333.237 159.779 -311.272 158.041C-309.546 157.901 -307.813 157.764 -306.079 157.628C-285.856 156.01 -265.685 154.4 -248.096 154.625C-229.015 154.87 -212.89 157.274 -203.009 164.239C-177.105 182.559 -153.3 202.171 -129.706 221.61C-118.221 231.073 -106.787 240.494 -95.1848 249.704C-59.74 277.843 -22.6912 304.049 22.2416 323.569M22.2416 323.569L22.0364 323.99M22.2416 323.569C75.0094 346.521 107.817 397.577 138.62 451.735C142.247 458.114 145.847 464.534 149.447 470.957C176.442 519.109 203.516 567.404 243.011 598.859C250.521 604.778 261.646 605.052 274.979 601.933C288.306 598.815 303.762 592.325 319.858 584.817C326.757 581.6 333.783 578.19 340.806 574.783C350.136 570.256 359.459 565.731 368.468 561.664C384.274 554.53 399.211 548.754 411.741 546.75L411.744 546.748C422.589 545.119 431.962 546.166 438.196 551.944C503.48 611.743 588.303 622.205 663.654 607.22L663.657 607.219C688.292 602.541 714.371 594.47 739.439 572.691C739.922 572.248 740.366 571.872 740.8 571.504L740.806 571.499C741.246 571.126 741.675 570.763 742.141 570.334L742.145 570.331C774.874 540.696 795.478 496.722 804.378 453.229C813.279 409.731 810.455 366.808 796.417 339.321M796.417 339.321L796.816 338.983" stroke="white" stroke-miterlimit="10"/>
<path d="M630.352 -54.8504L630.351 -54.8521C629.295 -67.0873 628.543 -80.9108 627.733 -95.8019C625.79 -131.529 623.512 -173.398 615.885 -214.201C605.087 -271.986 583.573 -327.52 537.148 -360.201C496.385 -388.723 443.841 -389.135 399.809 -380.322C368.656 -374.052 339.316 -364.147 310.007 -354.151L307.803 -353.394C279.241 -343.65 250.675 -333.899 220.495 -327.457C189.459 -320.347 161.673 -318.866 135.048 -321.723C73.8545 -328.449 20.7158 -358.422 -43.7968 -399.596C-113.557 -443.974 -179.035 -450.294 -235.786 -433.714C-292.538 -417.133 -340.607 -377.64 -375.548 -330.292C-402 -294.553 -425.204 -255.909 -439.885 -213.434C-443.287 -203.618 -447.136 -192.996 -451.212 -181.736C-467.712 -136.109 -488.01 -80.0143 -498.159 -24.6471C-510.808 44.3638 -507.676 112.123 -461.819 156.937C-452.905 165.708 -436.969 169.367 -417.335 170.332C-397.718 171.294 -374.483 169.571 -351.051 167.654C-349.235 167.504 -347.411 167.356 -345.593 167.204C-323.98 165.425 -302.416 163.65 -283.619 163.851C-263.253 164.068 -246.056 166.6 -235.543 174.018C-207.917 193.573 -182.558 214.531 -157.422 235.304C-145.21 245.396 -133.042 255.451 -120.696 265.278C-82.9367 295.334 -43.4406 323.309 4.57917 344.076C60.8507 368.336 95.5948 422.833 128.179 480.699C132.029 487.536 135.849 494.421 139.671 501.308C168.21 552.741 196.844 604.344 238.864 637.882C246.799 644.224 258.58 644.477 272.713 641.073C286.841 637.671 303.243 630.634 320.344 622.502C327.559 619.072 334.905 615.442 342.254 611.811C352.296 606.85 362.343 601.887 372.06 597.427C388.901 589.698 404.847 583.435 418.273 581.232C429.935 578.99 439.638 580.235 446.54 586.393L446.543 586.396C516.25 650.178 606.344 660.828 686.605 645.105C712.871 639.937 740.58 631.377 767.405 608.106L767.42 608.093L767.436 608.081C768.208 607.493 769.138 606.639 770.1 605.755L770.102 605.753C804.897 574.095 826.872 527.163 836.385 480.764C845.899 434.363 842.928 388.588 827.918 359.291L827.918 359.289C812.874 329.588 790.392 309.652 766.858 290.843C763.512 288.169 760.144 285.518 756.773 282.864C736.453 266.864 716.032 250.785 699.621 229.193C689.588 216.247 681.34 202.545 674.384 188.159C643.267 124.807 638.059 50.8914 633.456 -14.4483C632.475 -28.3664 631.523 -41.8957 630.352 -54.8504Z" stroke="white" stroke-miterlimit="10"/>
<path d="M-485.921 -226.083C-489.588 -215.498 -493.749 -204.008 -498.171 -191.807C-515.639 -143.578 -537.135 -84.219 -547.977 -25.6003C-561.552 47.8305 -558.382 119.985 -509.625 167.544C-500.196 176.791 -483.267 180.601 -462.371 181.562C-441.493 182.522 -416.758 180.628 -391.794 178.547C-389.957 178.393 -388.119 178.238 -386.281 178.083C-363.162 176.139 -340.076 174.202 -319.975 174.391C-298.293 174.591 -280.002 177.264 -268.851 185.141C-239.665 205.818 -212.831 227.982 -186.219 249.961C-173.095 260.803 -160.022 271.6 -146.75 282.151C-106.552 314.106 -64.4786 343.837 -13.3718 365.851C46.3257 391.552 83.0899 449.537 117.517 511.1C121.611 518.421 125.672 525.792 129.734 533.166C159.851 587.835 190.049 642.65 234.426 678.17C244.627 686.35 260.957 684.861 280.471 678.44C299.763 672.093 322.038 660.971 344.323 649.845L345.036 649.489C367.538 638.255 390.017 627.067 409.321 620.912C428.607 614.762 444.86 613.588 454.783 622.576M-485.921 -226.083C-470.031 -271.433 -445.28 -312.756 -417.099 -350.707M-485.921 -226.083L-485.919 -226.085M454.783 622.576L454.479 622.982M454.783 622.576C528.733 689.879 624.28 701.179 709.265 684.256L709.267 684.256C737.001 678.867 766.494 669.551 795.075 644.792L795.075 644.792C833.348 611.754 857.459 561.51 867.993 511.597C878.527 461.68 875.46 412.191 859.466 380.719C843.451 349.206 819.565 328.015 794.588 308.016C791.065 305.194 787.518 302.396 783.97 299.595C762.383 282.562 740.701 265.453 723.301 242.507C665.877 166.973 659.101 68.1367 653.271 -16.9156C652.265 -31.5942 651.286 -45.8618 650.081 -59.5282L650.081 -59.5296C648.973 -72.4762 648.192 -87.131 647.348 -102.934C645.325 -140.85 642.95 -185.374 634.88 -228.765C623.452 -290.216 600.615 -349.28 551.244 -383.842C507.611 -414.377 451.787 -414.543 405.141 -405.095M405.141 -405.095L405.179 -405.6M405.141 -405.095C372.193 -398.433 341.148 -387.905 310.147 -377.191C308.738 -376.705 307.329 -376.218 305.92 -375.732C276.333 -365.499 246.703 -355.255 215.45 -348.225M215.45 -348.225L215.478 -348.729M215.45 -348.225C106.639 -323.793 33.7627 -361.601 -64.4519 -424.375C-138.59 -471.638 -208.159 -478.266 -268.467 -460.572C-328.776 -442.876 -379.878 -400.847 -417.099 -350.707M-417.099 -350.707L-417.402 -350.979" stroke="white" stroke-miterlimit="10"/>
</g>
</svg>
