<svg width="24" height="24" viewBox="0 0 24 24" fill="none" xmlns="http://www.w3.org/2000/svg">
<path d="M2.48242 7.24805V19.7546C2.48242 20.2747 2.96582 20.6231 3.53589 21.0231C4.12429 21.4365 4.44933 21.3982 4.73104 21.3982L20.7097 21.5015C21.3381 21.5015 21.5481 21.0731 21.5481 20.6114V7.24805H2.48242Z" fill="#BDBDBD"/>
<path d="M18.6317 20.7707C18.1017 20.8357 17.5716 20.8624 17.0415 20.909C16.5115 20.9424 15.9814 20.9724 15.4513 20.9907C14.9213 21.0174 14.3912 21.0224 13.8612 21.0374L12.271 21.0524L10.6808 21.0374C10.1507 21.0224 9.62062 21.0157 9.09055 20.9907C8.56049 20.9724 8.03042 20.9424 7.50036 20.909C6.97029 20.8624 6.44022 20.834 5.91016 20.7707V20.7374L12.2693 20.7207L18.6284 20.7374V20.7707H18.6317Z" fill="#757575"/>
<path opacity="0.29" d="M21.5577 20.6097L20.1777 19.1912V7.24805L21.5577 8.08482V20.6097Z" fill="url(#paint0_linear_1611_12899)"/>
<path d="M21.5525 8.20049L20.4759 7.52553L18.791 3.66406C18.791 3.66406 18.891 3.66406 19.6976 3.66406C21.3059 3.66406 21.5525 4.59235 21.5525 4.909V8.20049Z" fill="#C62828"/>
<path d="M2.96875 7.38867V19.4118C2.96875 19.8619 3.3338 20.2253 3.78219 20.2253H19.5925C20.0426 20.2253 20.4626 19.8902 20.4626 19.4402V18.5667V7.38867H2.96875Z" fill="#FAFAFA"/>
<path d="M8.42099 8.8457V10.866H4.03711V19.0753H12.7299V17.0301H19.1873V8.8457H8.42099Z" fill="#B3E5FC"/>
<path fill-rule="evenodd" clip-rule="evenodd" d="M4.21158 8.76953V19.1592H4.04492V8.76953H4.21158Z" fill="#1E88E5"/>
<path fill-rule="evenodd" clip-rule="evenodd" d="M6.37564 8.76953V19.1592H6.20898V8.76953H6.37564Z" fill="#1E88E5"/>
<path fill-rule="evenodd" clip-rule="evenodd" d="M8.51431 8.76953V19.1592H8.34766V8.76953H8.51431Z" fill="#1E88E5"/>
<path fill-rule="evenodd" clip-rule="evenodd" d="M10.6764 8.76953V19.1592H10.5098V8.76953H10.6764Z" fill="#1E88E5"/>
<path fill-rule="evenodd" clip-rule="evenodd" d="M12.8151 8.76953V19.1592H12.6484V8.76953H12.8151Z" fill="#1E88E5"/>
<path fill-rule="evenodd" clip-rule="evenodd" d="M14.9792 8.76953V19.1592H14.8125V8.76953H14.9792Z" fill="#1E88E5"/>
<path fill-rule="evenodd" clip-rule="evenodd" d="M17.1178 8.76953V19.1592H16.9512V8.76953H17.1178Z" fill="#1E88E5"/>
<path fill-rule="evenodd" clip-rule="evenodd" d="M19.2819 8.76953V19.1592H19.1152V8.76953H19.2819Z" fill="#1E88E5"/>
<path fill-rule="evenodd" clip-rule="evenodd" d="M4.04492 18.9902H19.2785V19.1569H4.04492V18.9902Z" fill="#1E88E5"/>
<path fill-rule="evenodd" clip-rule="evenodd" d="M4.04492 16.9492H19.2785V17.1159H4.04492V16.9492Z" fill="#1E88E5"/>
<path fill-rule="evenodd" clip-rule="evenodd" d="M4.04492 14.9004H19.2785V15.067H4.04492V14.9004Z" fill="#1E88E5"/>
<path fill-rule="evenodd" clip-rule="evenodd" d="M4.04492 12.8594H19.2785V13.026H4.04492V12.8594Z" fill="#1E88E5"/>
<path fill-rule="evenodd" clip-rule="evenodd" d="M4.04492 10.8164H19.2785V10.9831H4.04492V10.8164Z" fill="#1E88E5"/>
<path fill-rule="evenodd" clip-rule="evenodd" d="M4.04492 8.76953H19.2785V8.93619H4.04492V8.76953Z" fill="#1E88E5"/>
<path d="M18.6358 17.7422C18.7517 17.7422 18.8458 17.6482 18.8458 17.5323C18.8458 17.4163 18.7517 17.3223 18.6358 17.3223C18.5198 17.3223 18.4258 17.4163 18.4258 17.5323C18.4258 17.6482 18.5198 17.7422 18.6358 17.7422Z" fill="#1E88E5"/>
<path d="M16.4737 17.7422C16.5896 17.7422 16.6836 17.6482 16.6836 17.5323C16.6836 17.4163 16.5896 17.3223 16.4737 17.3223C16.3577 17.3223 16.2637 17.4163 16.2637 17.5323C16.2637 17.6482 16.3577 17.7422 16.4737 17.7422Z" fill="#1E88E5"/>
<path d="M14.3096 17.7422C14.4256 17.7422 14.5196 17.6482 14.5196 17.5323C14.5196 17.4163 14.4256 17.3223 14.3096 17.3223C14.1936 17.3223 14.0996 17.4163 14.0996 17.5323C14.0996 17.6482 14.1936 17.7422 14.3096 17.7422Z" fill="#1E88E5"/>
<path d="M12.1475 17.7422C12.2635 17.7422 12.3575 17.6482 12.3575 17.5323C12.3575 17.4163 12.2635 17.3223 12.1475 17.3223C12.0315 17.3223 11.9375 17.4163 11.9375 17.5323C11.9375 17.6482 12.0315 17.7422 12.1475 17.7422Z" fill="#1E88E5"/>
<path d="M9.98343 17.7422C10.0994 17.7422 10.1934 17.6482 10.1934 17.5323C10.1934 17.4163 10.0994 17.3223 9.98343 17.3223C9.86745 17.3223 9.77344 17.4163 9.77344 17.5323C9.77344 17.6482 9.86745 17.7422 9.98343 17.7422Z" fill="#1E88E5"/>
<path d="M7.82132 17.7422C7.93729 17.7422 8.03131 17.6482 8.03131 17.5323C8.03131 17.4163 7.93729 17.3223 7.82132 17.3223C7.70534 17.3223 7.61133 17.4163 7.61133 17.5323C7.61133 17.6482 7.70534 17.7422 7.82132 17.7422Z" fill="#1E88E5"/>
<path d="M5.65725 17.7422C5.77323 17.7422 5.86724 17.6482 5.86724 17.5323C5.86724 17.4163 5.77323 17.3223 5.65725 17.3223C5.54128 17.3223 5.44727 17.4163 5.44727 17.5323C5.44727 17.6482 5.54128 17.7422 5.65725 17.7422Z" fill="#1E88E5"/>
<path d="M18.6358 15.6954C18.7517 15.6954 18.8458 15.6014 18.8458 15.4854C18.8458 15.3694 18.7517 15.2754 18.6358 15.2754C18.5198 15.2754 18.4258 15.3694 18.4258 15.4854C18.4258 15.6014 18.5198 15.6954 18.6358 15.6954Z" fill="#1E88E5"/>
<path d="M16.4737 15.6954C16.5896 15.6954 16.6836 15.6014 16.6836 15.4854C16.6836 15.3694 16.5896 15.2754 16.4737 15.2754C16.3577 15.2754 16.2637 15.3694 16.2637 15.4854C16.2637 15.6014 16.3577 15.6954 16.4737 15.6954Z" fill="#1E88E5"/>
<path d="M14.3096 15.6954C14.4256 15.6954 14.5196 15.6014 14.5196 15.4854C14.5196 15.3694 14.4256 15.2754 14.3096 15.2754C14.1936 15.2754 14.0996 15.3694 14.0996 15.4854C14.0996 15.6014 14.1936 15.6954 14.3096 15.6954Z" fill="#1E88E5"/>
<path d="M12.1475 15.6954C12.2635 15.6954 12.3575 15.6014 12.3575 15.4854C12.3575 15.3694 12.2635 15.2754 12.1475 15.2754C12.0315 15.2754 11.9375 15.3694 11.9375 15.4854C11.9375 15.6014 12.0315 15.6954 12.1475 15.6954Z" fill="#1E88E5"/>
<path d="M9.98343 15.6954C10.0994 15.6954 10.1934 15.6014 10.1934 15.4854C10.1934 15.3694 10.0994 15.2754 9.98343 15.2754C9.86745 15.2754 9.77344 15.3694 9.77344 15.4854C9.77344 15.6014 9.86745 15.6954 9.98343 15.6954Z" fill="#1E88E5"/>
<path d="M7.82132 15.6954C7.93729 15.6954 8.03131 15.6014 8.03131 15.4854C8.03131 15.3694 7.93729 15.2754 7.82132 15.2754C7.70534 15.2754 7.61133 15.3694 7.61133 15.4854C7.61133 15.6014 7.70534 15.6954 7.82132 15.6954Z" fill="#1E88E5"/>
<path d="M5.65725 15.6954C5.77323 15.6954 5.86724 15.6014 5.86724 15.4854C5.86724 15.3694 5.77323 15.2754 5.65725 15.2754C5.54128 15.2754 5.44727 15.3694 5.44727 15.4854C5.44727 15.6014 5.54128 15.6954 5.65725 15.6954Z" fill="#1E88E5"/>
<path d="M18.6358 13.6544C18.7517 13.6544 18.8458 13.5603 18.8458 13.4444C18.8458 13.3284 18.7517 13.2344 18.6358 13.2344C18.5198 13.2344 18.4258 13.3284 18.4258 13.4444C18.4258 13.5603 18.5198 13.6544 18.6358 13.6544Z" fill="#1E88E5"/>
<path d="M16.4737 13.6544C16.5896 13.6544 16.6836 13.5603 16.6836 13.4444C16.6836 13.3284 16.5896 13.2344 16.4737 13.2344C16.3577 13.2344 16.2637 13.3284 16.2637 13.4444C16.2637 13.5603 16.3577 13.6544 16.4737 13.6544Z" fill="#1E88E5"/>
<path d="M14.3096 13.6544C14.4256 13.6544 14.5196 13.5603 14.5196 13.4444C14.5196 13.3284 14.4256 13.2344 14.3096 13.2344C14.1936 13.2344 14.0996 13.3284 14.0996 13.4444C14.0996 13.5603 14.1936 13.6544 14.3096 13.6544Z" fill="#1E88E5"/>
<path d="M12.1475 13.6544C12.2635 13.6544 12.3575 13.5603 12.3575 13.4444C12.3575 13.3284 12.2635 13.2344 12.1475 13.2344C12.0315 13.2344 11.9375 13.3284 11.9375 13.4444C11.9375 13.5603 12.0315 13.6544 12.1475 13.6544Z" fill="#1E88E5"/>
<path d="M9.98343 13.6544C10.0994 13.6544 10.1934 13.5603 10.1934 13.4444C10.1934 13.3284 10.0994 13.2344 9.98343 13.2344C9.86745 13.2344 9.77344 13.3284 9.77344 13.4444C9.77344 13.5603 9.86745 13.6544 9.98343 13.6544Z" fill="#1E88E5"/>
<path d="M7.82132 13.6544C7.93729 13.6544 8.03131 13.5603 8.03131 13.4444C8.03131 13.3284 7.93729 13.2344 7.82132 13.2344C7.70534 13.2344 7.61133 13.3284 7.61133 13.4444C7.61133 13.5603 7.70534 13.6544 7.82132 13.6544Z" fill="#1E88E5"/>
<path d="M5.65725 13.6544C5.77323 13.6544 5.86724 13.5603 5.86724 13.4444C5.86724 13.3284 5.77323 13.2344 5.65725 13.2344C5.54128 13.2344 5.44727 13.3284 5.44727 13.4444C5.44727 13.5603 5.54128 13.6544 5.65725 13.6544Z" fill="#1E88E5"/>
<path d="M18.6358 11.6055C18.7517 11.6055 18.8458 11.5115 18.8458 11.3955C18.8458 11.2796 18.7517 11.1855 18.6358 11.1855C18.5198 11.1855 18.4258 11.2796 18.4258 11.3955C18.4258 11.5115 18.5198 11.6055 18.6358 11.6055Z" fill="#1E88E5"/>
<path d="M16.4737 11.6055C16.5896 11.6055 16.6836 11.5115 16.6836 11.3955C16.6836 11.2796 16.5896 11.1855 16.4737 11.1855C16.3577 11.1855 16.2637 11.2796 16.2637 11.3955C16.2637 11.5115 16.3577 11.6055 16.4737 11.6055Z" fill="#1E88E5"/>
<path d="M14.3096 11.6055C14.4256 11.6055 14.5196 11.5115 14.5196 11.3955C14.5196 11.2796 14.4256 11.1855 14.3096 11.1855C14.1936 11.1855 14.0996 11.2796 14.0996 11.3955C14.0996 11.5115 14.1936 11.6055 14.3096 11.6055Z" fill="#1E88E5"/>
<path d="M12.1475 11.6055C12.2635 11.6055 12.3575 11.5115 12.3575 11.3955C12.3575 11.2796 12.2635 11.1855 12.1475 11.1855C12.0315 11.1855 11.9375 11.2796 11.9375 11.3955C11.9375 11.5115 12.0315 11.6055 12.1475 11.6055Z" fill="#1E88E5"/>
<path d="M9.98343 11.6055C10.0994 11.6055 10.1934 11.5115 10.1934 11.3955C10.1934 11.2796 10.0994 11.1855 9.98343 11.1855C9.86745 11.1855 9.77344 11.2796 9.77344 11.3955C9.77344 11.5115 9.86745 11.6055 9.98343 11.6055Z" fill="#1E88E5"/>
<path d="M7.82132 11.6055C7.93729 11.6055 8.03131 11.5115 8.03131 11.3955C8.03131 11.2796 7.93729 11.1855 7.82132 11.1855C7.70534 11.1855 7.61133 11.2796 7.61133 11.3955C7.61133 11.5115 7.70534 11.6055 7.82132 11.6055Z" fill="#1E88E5"/>
<path d="M5.65725 11.6055C5.77323 11.6055 5.86724 11.5115 5.86724 11.3955C5.86724 11.2796 5.77323 11.1855 5.65725 11.1855C5.54128 11.1855 5.44727 11.2796 5.44727 11.3955C5.44727 11.5115 5.54128 11.6055 5.65725 11.6055Z" fill="#1E88E5"/>
<path d="M18.6358 9.56451C18.7517 9.56451 18.8458 9.47049 18.8458 9.35452C18.8458 9.23855 18.7517 9.14453 18.6358 9.14453C18.5198 9.14453 18.4258 9.23855 18.4258 9.35452C18.4258 9.47049 18.5198 9.56451 18.6358 9.56451Z" fill="#1E88E5"/>
<path d="M16.4737 9.56451C16.5896 9.56451 16.6836 9.47049 16.6836 9.35452C16.6836 9.23855 16.5896 9.14453 16.4737 9.14453C16.3577 9.14453 16.2637 9.23855 16.2637 9.35452C16.2637 9.47049 16.3577 9.56451 16.4737 9.56451Z" fill="#1E88E5"/>
<path d="M14.3096 9.56451C14.4256 9.56451 14.5196 9.47049 14.5196 9.35452C14.5196 9.23855 14.4256 9.14453 14.3096 9.14453C14.1936 9.14453 14.0996 9.23855 14.0996 9.35452C14.0996 9.47049 14.1936 9.56451 14.3096 9.56451Z" fill="#1E88E5"/>
<path d="M12.1475 9.56451C12.2635 9.56451 12.3575 9.47049 12.3575 9.35452C12.3575 9.23855 12.2635 9.14453 12.1475 9.14453C12.0315 9.14453 11.9375 9.23855 11.9375 9.35452C11.9375 9.47049 12.0315 9.56451 12.1475 9.56451Z" fill="#1E88E5"/>
<path d="M9.98343 9.56451C10.0994 9.56451 10.1934 9.47049 10.1934 9.35452C10.1934 9.23855 10.0994 9.14453 9.98343 9.14453C9.86745 9.14453 9.77344 9.23855 9.77344 9.35452C9.77344 9.47049 9.86745 9.56451 9.98343 9.56451Z" fill="#1E88E5"/>
<path d="M7.82132 9.56451C7.93729 9.56451 8.03131 9.47049 8.03131 9.35452C8.03131 9.23855 7.93729 9.14453 7.82132 9.14453C7.70534 9.14453 7.61133 9.23855 7.61133 9.35452C7.61133 9.47049 7.70534 9.56451 7.82132 9.56451Z" fill="#1E88E5"/>
<path d="M5.65725 9.56451C5.77323 9.56451 5.86724 9.47049 5.86724 9.35452C5.86724 9.23855 5.77323 9.14453 5.65725 9.14453C5.54128 9.14453 5.44727 9.23855 5.44727 9.35452C5.44727 9.47049 5.54128 9.56451 5.65725 9.56451Z" fill="#1E88E5"/>
<path d="M20.4713 7.52553H2.48242V4.42236C2.48242 4.00404 2.91081 3.66406 3.44087 3.66406H19.5412C20.073 3.66406 20.503 4.00571 20.4997 4.42736L20.4713 7.52553Z" fill="#F44336"/>
<path d="M4.52846 5.18197C4.80091 5.18197 5.02177 4.93574 5.02177 4.632C5.02177 4.32826 4.80091 4.08203 4.52846 4.08203C4.25602 4.08203 4.03516 4.32826 4.03516 4.632C4.03516 4.93574 4.25602 5.18197 4.52846 5.18197Z" fill="#AF1E1E"/>
<path d="M4.74696 4.17799C4.67863 4.03466 4.63197 3.85634 4.63197 3.66468C4.63197 3.2197 4.86362 2.84306 5.13861 2.84306C5.41359 2.84306 5.64525 3.2197 5.64525 3.66468H6.39187C6.39187 2.75306 5.83024 2.00977 5.14027 2.00977C4.45031 2.00977 3.88867 2.75139 3.88867 3.66468C3.88867 3.98966 3.96033 4.29131 4.08199 4.54797C4.19366 4.77962 4.43198 4.88295 4.64363 4.77129C4.82029 4.67463 4.84362 4.37798 4.74696 4.17799Z" fill="#94D1E0"/>
<path d="M6.39154 3.66605C6.39154 3.10775 6.17988 2.61444 5.8599 2.31445C5.86323 2.32445 5.95489 2.56277 5.8249 2.79109C5.69324 3.02442 5.41992 2.98775 5.41992 2.98775C5.55491 3.13774 5.64491 3.38773 5.64491 3.66605H6.39154Z" fill="#2F7889"/>
<path d="M7.27846 5.18197C7.55091 5.18197 7.77177 4.93574 7.77177 4.632C7.77177 4.32826 7.55091 4.08203 7.27846 4.08203C7.00602 4.08203 6.78516 4.32826 6.78516 4.632C6.78516 4.93574 7.00602 5.18197 7.27846 5.18197Z" fill="#AF1E1E"/>
<path d="M7.49696 4.17799C7.42863 4.03466 7.38197 3.85634 7.38197 3.66468C7.38197 3.2197 7.61362 2.84306 7.88861 2.84306C8.16359 2.84306 8.39525 3.2197 8.39525 3.66468H9.14187C9.14187 2.75306 8.58024 2.00977 7.89027 2.00977C7.20031 2.00977 6.63867 2.75139 6.63867 3.66468C6.63867 3.98966 6.71034 4.29131 6.832 4.54797C6.94366 4.77962 7.18198 4.88295 7.39363 4.77129C7.57029 4.67463 7.59362 4.37798 7.49696 4.17799Z" fill="#94D1E0"/>
<path d="M8.6099 2.31445C8.61323 2.32445 8.70489 2.56277 8.5749 2.79109C8.44324 3.02275 8.16992 2.98775 8.16992 2.98775C8.30491 3.13774 8.39491 3.38773 8.39491 3.66605H9.1432C9.1432 3.10775 8.92988 2.61444 8.6099 2.31445Z" fill="#2F7889"/>
<path d="M10.0226 5.18197C10.2951 5.18197 10.5159 4.93574 10.5159 4.632C10.5159 4.32826 10.2951 4.08203 10.0226 4.08203C9.75016 4.08203 9.5293 4.32826 9.5293 4.632C9.5293 4.93574 9.75016 5.18197 10.0226 5.18197Z" fill="#AF1E1E"/>
<path d="M10.2411 4.17799C10.1728 4.03466 10.1261 3.85634 10.1261 3.66468C10.1261 3.2197 10.3578 2.84306 10.6327 2.84306C10.9077 2.84306 11.1394 3.2197 11.1394 3.66468H11.886C11.886 2.75306 11.3244 2.00977 10.6344 2.00977C9.94445 2.00977 9.38281 2.75139 9.38281 3.66468C9.38281 3.98966 9.45448 4.29131 9.57614 4.54797C9.6878 4.77962 9.92612 4.88295 10.1378 4.77129C10.3144 4.67463 10.3378 4.37798 10.2411 4.17799Z" fill="#94D1E0"/>
<path d="M11.354 2.31445C11.3574 2.32445 11.449 2.56277 11.319 2.79109C11.1874 3.02442 10.9141 2.98775 10.9141 2.98775C11.0491 3.13774 11.1391 3.38773 11.1391 3.66605H11.8907C11.8923 3.10775 11.6757 2.61444 11.354 2.31445Z" fill="#2F7889"/>
<path d="M12.7726 5.18197C13.0451 5.18197 13.2659 4.93574 13.2659 4.632C13.2659 4.32826 13.0451 4.08203 12.7726 4.08203C12.5002 4.08203 12.2793 4.32826 12.2793 4.632C12.2793 4.93574 12.5002 5.18197 12.7726 5.18197Z" fill="#AF1E1E"/>
<path d="M12.9911 4.17799C12.9228 4.03466 12.8761 3.85634 12.8761 3.66468C12.8761 3.2197 13.1078 2.84306 13.3827 2.84306C13.6577 2.84306 13.8894 3.2197 13.8894 3.66468H14.636C14.636 2.75306 14.0744 2.00977 13.3844 2.00977C12.6944 2.00977 12.1328 2.75139 12.1328 3.66468C12.1328 3.98966 12.2045 4.29131 12.3261 4.54797C12.4378 4.77962 12.6761 4.88295 12.8878 4.77129C13.0644 4.67463 13.0861 4.37798 12.9911 4.17799Z" fill="#94D1E0"/>
<path d="M14.104 2.31445C14.1074 2.32445 14.199 2.56277 14.069 2.79109C13.9374 3.02442 13.6641 2.98775 13.6641 2.98775C13.7991 3.13774 13.8891 3.38773 13.8891 3.66605H14.6423C14.644 3.10775 14.4257 2.61444 14.104 2.31445Z" fill="#2F7889"/>
<path d="M15.5167 5.18197C15.7892 5.18197 16.0101 4.93574 16.0101 4.632C16.0101 4.32826 15.7892 4.08203 15.5167 4.08203C15.2443 4.08203 15.0234 4.32826 15.0234 4.632C15.0234 4.93574 15.2443 5.18197 15.5167 5.18197Z" fill="#AF1E1E"/>
<path d="M15.7352 4.17799C15.6669 4.03466 15.6202 3.85634 15.6202 3.66468C15.6202 3.2197 15.8519 2.84306 16.1269 2.84306C16.4019 2.84306 16.6335 3.2197 16.6335 3.66468H17.3802C17.3802 2.75306 16.8185 2.00977 16.1286 2.00977C15.4386 2.00977 14.877 2.75139 14.877 3.66468C14.877 3.98966 14.9486 4.29131 15.0703 4.54797C15.1819 4.77962 15.4203 4.88295 15.6319 4.77129C15.8086 4.67463 15.8319 4.37798 15.7352 4.17799Z" fill="#94D1E0"/>
<path d="M16.8482 2.31445C16.8515 2.32445 16.9432 2.56277 16.8132 2.79109C16.6815 3.02442 16.4082 2.98775 16.4082 2.98775C16.5432 3.13774 16.6332 3.38773 16.6332 3.66605H17.3898C17.3898 3.10775 17.1682 2.61444 16.8482 2.31445Z" fill="#2F7889"/>
<path d="M18.2589 5.18197C18.5314 5.18197 18.7522 4.93574 18.7522 4.632C18.7522 4.32826 18.5314 4.08203 18.2589 4.08203C17.9865 4.08203 17.7656 4.32826 17.7656 4.632C17.7656 4.93574 17.9865 5.18197 18.2589 5.18197Z" fill="#AF1E1E"/>
<path d="M18.4774 4.17799C18.4091 4.03466 18.3624 3.85634 18.3624 3.66468C18.3624 3.2197 18.5941 2.84306 18.8691 2.84306C19.1441 2.84306 19.3757 3.2197 19.3757 3.66468H20.1223C20.1223 2.75306 19.5607 2.00977 18.8707 2.00977C18.1808 2.00977 17.6191 2.75139 17.6191 3.66468C17.6191 3.98966 17.6908 4.29131 17.8125 4.54797C17.9241 4.77962 18.1624 4.88295 18.3741 4.77129C18.5508 4.67463 18.5741 4.37798 18.4774 4.17799Z" fill="#94D1E0"/>
<path d="M20.1337 3.69438C20.1087 3.02442 19.892 2.59444 19.5904 2.31445C19.5937 2.32445 19.6854 2.56277 19.5554 2.79109C19.4237 3.02442 19.1504 2.98775 19.1504 2.98775C19.2854 3.13774 19.352 3.38773 19.352 3.66605H19.607C19.8187 3.66272 20.1337 3.69438 20.1337 3.69438Z" fill="#2F7889"/>
<defs>
<linearGradient id="paint0_linear_1611_12899" x1="20.8676" y1="12.7706" x2="20.8676" y2="19.8917" gradientUnits="userSpaceOnUse">
<stop offset="0.3374" stop-color="#616161"/>
<stop offset="1" stop-color="#616161" stop-opacity="0"/>
</linearGradient>
</defs>
</svg>
