<svg width="50" height="50" viewBox="0 0 50 50" fill="none" xmlns="http://www.w3.org/2000/svg">
<path d="M11.9009 24.4206C11.144 23.8581 10.4357 23.2019 9.78988 22.4554C9.46004 22.0908 8.80729 21.4902 8.16149 21.5457C8.02955 21.5561 7.85943 21.6013 7.69624 21.7228C7.25529 21.1534 6.23798 19.6257 5.73107 18.2785C5.52621 17.8515 5.16859 17.782 4.92208 17.8515C4.4846 17.9799 4.20337 18.5355 4.26934 19.15C4.4846 21.1985 6.08869 23.6949 6.68935 24.2817L6.67893 24.2886C7.85942 25.7261 7.97053 27.8232 7.97053 27.844C7.97747 28.0072 8.099 28.1426 8.25871 28.1704L11.5606 28.7224C11.5815 28.7259 11.5988 28.7259 11.6196 28.7259C11.7655 28.7259 11.9009 28.6322 11.946 28.4898C12.1648 27.8475 12.6717 26.3198 12.6786 25.9726C12.6994 24.9587 12.0571 24.5143 11.9009 24.4206Z" fill="url(#paint0_linear_782_48582)"/>
<path d="M45.1631 17.8606C44.9165 17.7842 44.5485 17.8537 44.3263 18.3154C43.8298 19.6348 42.8125 21.159 42.3715 21.7284C42.2084 21.6069 42.0382 21.5653 41.9063 21.5514C41.2605 21.4958 40.6077 22.0965 40.2744 22.4645C39.6321 23.2041 38.9238 23.8638 38.1669 24.4227C38.0107 24.5165 37.3683 24.9574 37.3892 25.9782C37.3961 26.3254 37.903 27.8566 38.1218 28.4954C38.1704 28.6378 38.3023 28.7315 38.4481 28.7315C38.469 28.7315 38.4863 28.7315 38.5072 28.7281L41.8091 28.176C41.9861 28.1482 42.1111 27.9885 42.0973 27.808C42.0973 27.7906 41.9792 25.9366 43.3854 24.2978L43.375 24.2908C43.9756 23.7075 45.5276 21.1556 45.7984 19.1626C45.8818 18.555 45.6075 17.9925 45.1631 17.8606Z" fill="url(#paint1_linear_782_48582)"/>
<path d="M42.9298 27.2599C42.9228 26.9822 42.7041 26.7565 42.4263 26.7357L37.9786 26.4753C37.9647 26.4753 37.9543 26.4753 37.9404 26.4753C37.6696 26.4753 37.437 26.6801 37.4057 26.9544L36.4752 33.5409C35.0239 32.2979 33.0206 31.3847 30.2672 31.3847C29.361 31.3847 20.6913 31.3431 19.7817 31.3431C17.0283 31.3431 15.025 32.2562 13.5737 33.4992L12.6466 26.9127C12.6154 26.6384 12.3828 26.4336 12.1085 26.4336C12.0946 26.4336 12.0842 26.4336 12.0703 26.4336L7.62259 26.694C7.34483 26.7148 7.12956 26.9405 7.11914 27.2183L7.08095 41.2939C7.03234 43.7625 9.01835 45.7867 11.487 45.7867C13.1952 45.7867 14.5632 44.5055 14.7715 42.9015L14.7819 42.9084V45.8284H15.3027H15.8235H34.2184H34.7392H35.26V42.9501L35.2739 42.9431C35.4822 44.5472 36.8502 45.8284 38.5585 45.8284C41.0271 45.8284 43.0131 43.8007 42.9645 41.3356L42.9298 27.2599Z" fill="url(#paint2_linear_782_48582)"/>
<path d="M37.1718 45.5172C36.9669 45.427 36.776 45.3159 36.5989 45.1805C36.3524 44.9964 36.1302 44.7777 35.9427 44.5347C35.5885 44.0798 35.3559 43.5312 35.2795 42.941L35.2726 42.9445L35.1406 39.2363C35.1406 39.2363 35.3594 42.4132 37.1718 45.5172Z" fill="#009984"/>
<path d="M14.9038 39.2363L14.7718 42.9132V42.9167C14.6225 44.0382 13.9038 44.9999 12.9004 45.4721C14.685 42.382 14.9038 39.2363 14.9038 39.2363Z" fill="#009984"/>
<path d="M21.8457 29.9688V33.4338C21.8457 34.9997 23.1026 36.2705 24.9983 36.2705C26.894 36.2705 28.1509 34.9997 28.1509 33.4338V29.9688H21.8457Z" fill="#E59600"/>
<path d="M32.8083 17.9725L15.5453 20.0731C13.6843 20.2988 12.358 22.1077 12.601 24.0903C12.8406 26.0728 14.5627 27.5102 16.4237 27.2846L33.6867 25.184C35.5477 24.9583 36.874 23.1494 36.631 21.1668C36.3914 19.1843 34.6693 17.7469 32.8083 17.9725Z" fill="#E59600"/>
<path d="M22.6666 6.58801C17.1669 7.25812 12.7921 13.7543 13.8233 22.2156C14.8476 30.6284 20.5973 34.1525 25.9408 33.5032C31.2842 32.854 36.0236 28.0556 34.9993 19.6394C33.9681 11.178 28.1629 5.92138 22.6666 6.58801Z" fill="#FFCA28"/>
<path d="M27.4501 29.063C27.5265 30.0282 26.6828 30.2955 25.6203 30.3789C24.5579 30.4622 23.6829 30.3059 23.6065 29.365C23.5302 28.372 24.3426 27.6915 25.4016 27.6082C26.464 27.5248 27.3702 28.0526 27.4501 29.063Z" fill="#795548"/>
<path d="M26.0742 24.4416C26.0395 24.4312 26.0048 24.4277 25.9701 24.4277L23.7341 24.6986C23.6994 24.7055 23.6681 24.7194 23.6369 24.7367C23.4424 24.8444 23.3591 25.0666 23.4806 25.2784C23.6022 25.4902 24.123 26.0631 25.0222 25.9554C25.918 25.8478 26.286 25.1638 26.3555 24.9312C26.4214 24.6951 26.286 24.5006 26.0742 24.4416Z" fill="#E59600"/>
<path d="M19.4819 23.9693C20.3368 23.8666 20.9436 23.0656 20.8372 22.1803C20.7308 21.295 19.9516 20.6605 19.0967 20.7632C18.2418 20.866 17.6351 21.6669 17.7414 22.5523C17.8478 23.4376 18.6271 24.072 19.4819 23.9693Z" fill="#404040"/>
<path d="M29.8179 22.7232C30.6727 22.6205 31.2795 21.8195 31.1731 20.9342C31.0668 20.0489 30.2875 19.4144 29.4326 19.5171C28.5778 19.6199 27.971 20.4208 28.0774 21.3062C28.1838 22.1915 28.963 22.8259 29.8179 22.7232Z" fill="#404040"/>
<path d="M31.1708 18.4023C30.2334 18.1246 29.2959 18.0794 28.3724 18.4544C28.0703 18.5759 27.7405 18.871 27.4072 18.9023C27.1676 18.9266 26.935 18.7669 26.8725 18.5308C26.8169 18.3155 26.9245 18.135 27.0426 17.9614C27.7196 16.9718 29.0425 16.5378 30.1952 16.7635C30.7091 16.8642 31.2715 17.1003 31.6326 17.4961C31.9729 17.8711 31.7576 18.562 31.1708 18.4023Z" fill="#6D4C41"/>
<path d="M16.5277 19.4095C17.0901 18.3574 18.4026 17.8714 19.5449 17.9929C20.0622 18.0484 20.5761 18.2359 20.9927 18.5553C21.3087 18.7984 21.7149 19.2984 21.2045 19.6108C20.8816 19.8053 20.3677 19.5379 20.0414 19.4824C19.5726 19.406 19.09 19.4164 18.6283 19.5171C18.1561 19.6178 17.7359 19.8053 17.3228 20.0483C16.8853 20.2983 16.2534 19.9511 16.5277 19.4095Z" fill="#6D4C41"/>
<path d="M22.4202 4.31253C22.4167 4.31253 22.4167 4.31253 22.4132 4.31253C22.4098 4.31253 22.4098 4.31253 22.4063 4.31253C7.93136 6.11799 12.8686 22.3081 12.8686 22.3081C12.8686 22.3081 13.7227 23.9365 14.1081 24.6552C14.1637 24.7594 14.3199 24.7281 14.3303 24.6101C14.4762 23.19 15.0039 18.1521 15.3858 16.5931C15.6115 15.6765 16.4622 15.055 17.4066 15.114C18.8579 15.2008 21.1564 15.2529 23.6528 14.9543C23.6632 14.9543 23.6701 14.9509 23.6805 14.9509C23.6909 14.9509 23.6979 14.9474 23.7083 14.9474C26.2047 14.6488 28.4268 14.062 29.8156 13.635C30.7184 13.3572 31.6905 13.7599 32.128 14.6002C32.8641 16.0202 34.5515 20.7665 35.0306 22.131C35.0688 22.2421 35.2285 22.2352 35.2598 22.1206L35.9195 19.5617C35.9229 19.5617 36.9159 2.66332 22.4202 4.31253Z" fill="#543930"/>
<path d="M35.9225 19.5617C35.9225 19.5617 36.919 2.66332 22.4232 4.31253C22.4197 4.31253 22.4197 4.31253 22.4197 4.31253C22.4163 4.31253 22.4163 4.31253 22.4163 4.31253C22.1906 4.34031 21.9719 4.37156 21.7566 4.40628C21.3261 4.47572 20.9164 4.55905 20.5205 4.65279C20.5171 4.65279 20.5136 4.65627 20.5101 4.65627C20.4823 4.66321 20.4546 4.67015 20.4268 4.6771C8.4066 7.66999 12.8751 22.3081 12.8751 22.3081L14.1146 24.6413C14.1702 24.7455 14.3229 24.7142 14.3368 24.5996C14.4827 23.1657 15.0104 18.1486 15.3923 16.5931C15.618 15.6765 16.4687 15.055 17.4131 15.114C18.8644 15.2008 21.1629 15.2529 23.6593 14.9543C23.6697 14.9543 23.6766 14.9509 23.687 14.9509C23.6975 14.9509 23.7044 14.9474 23.7148 14.9474C26.2112 14.6488 28.4333 14.062 29.8221 13.635C30.7249 13.3572 31.697 13.7599 32.1345 14.6002C32.8741 16.0272 34.5719 20.8082 35.0441 22.1484C35.0823 22.2595 35.2385 22.2526 35.2698 22.138C35.4711 21.3533 35.9225 19.5617 35.9225 19.5617Z" fill="url(#paint3_radial_782_48582)"/>
<defs>
<linearGradient id="paint0_linear_782_48582" x1="8.46988" y1="28.7881" x2="8.46988" y2="17.504" gradientUnits="userSpaceOnUse">
<stop offset="0.5" stop-color="#FFCA28"/>
<stop offset="1" stop-color="#FFB300"/>
</linearGradient>
<linearGradient id="paint1_linear_782_48582" x1="41.6015" y1="28.7903" x2="41.6015" y2="17.5061" gradientUnits="userSpaceOnUse">
<stop offset="0.5" stop-color="#FFCA28"/>
<stop offset="1" stop-color="#FFB300"/>
</linearGradient>
<linearGradient id="paint2_linear_782_48582" x1="25.0236" y1="31.7455" x2="25.0236" y2="46.5895" gradientUnits="userSpaceOnUse">
<stop stop-color="#00BFA5"/>
<stop offset="0.4701" stop-color="#00B29A"/>
<stop offset="1" stop-color="#009E89"/>
</linearGradient>
<radialGradient id="paint3_radial_782_48582" cx="0" cy="0" r="1" gradientUnits="userSpaceOnUse" gradientTransform="translate(24.0531 18.0439) rotate(-6.79954) scale(12.2314 13.7995)">
<stop offset="0.7945" stop-color="#6D4C41" stop-opacity="0"/>
<stop offset="1" stop-color="#6D4C41"/>
</radialGradient>
</defs>
</svg>
