<svg width="1920" height="1578" viewBox="0 0 1920 1578" fill="none" xmlns="http://www.w3.org/2000/svg">
<g opacity="0.12">
<path d="M1005.76 932.453L1005.76 932.453L1005.76 932.448C1006.46 929.373 1006.35 926.781 1005.61 924.585C1004.87 922.39 1003.49 920.555 1001.62 919.013C997.856 915.914 992.105 914.022 985.6 912.824C979.108 911.628 971.94 911.134 965.392 910.781C964.279 910.721 963.182 910.664 962.109 910.61C956.896 910.343 952.248 910.105 948.957 909.573L948.953 909.572C937.015 907.529 925.515 908.918 914.111 910.295C913.754 910.338 913.396 910.381 913.039 910.424C901.307 911.837 889.661 913.125 877.882 910.415L877.877 910.414C867.514 907.898 855.719 909.291 845.804 913.767C843.883 914.906 841.614 916.266 840.261 918.135C838.503 920.748 838.914 923.706 840.573 926.353C842.237 929.008 845.121 931.271 848.119 932.369C851.155 933.337 854.438 933.688 857.832 933.97C858.272 934.007 858.713 934.042 859.157 934.078C862.12 934.316 865.148 934.559 868.085 935.182L868.088 935.182C876.924 937.1 884.409 942.781 891.686 948.304C892.569 948.974 893.448 949.641 894.327 950.299C902.5 956.423 910.59 961.752 920.401 961.198L920.408 961.197C926.954 960.92 932.704 958.076 938.422 954.861C939.232 954.405 940.042 953.942 940.853 953.477C945.738 950.682 950.681 947.854 956.067 946.501L956.068 946.501C960.667 945.352 965.373 945.284 970.091 945.426C971.27 945.461 972.448 945.51 973.626 945.558C977.18 945.704 980.731 945.85 984.29 945.639L984.298 945.638L984.305 945.638C989.007 945.499 993.932 944.312 997.903 942.094C1001.87 939.877 1004.85 936.656 1005.76 932.453Z" stroke="white" stroke-miterlimit="10"/>
<path d="M869.739 957.919L869.744 957.923C871.685 959.598 873.677 961.424 875.738 963.313C879.294 966.572 883.057 970.021 887.129 973.22C893.539 978.255 900.621 982.589 908.623 984.405C916.145 986.079 923.209 985.246 930.312 983.28C936.213 981.599 941.654 978.865 947.122 975.691C949.618 974.242 952.114 972.705 954.663 971.136C954.906 970.986 955.151 970.836 955.395 970.685C958.195 968.962 961.061 967.208 964.048 965.507C969.31 962.385 974.598 959.815 980.381 958.384C986.879 956.529 993.603 956.033 1000.59 955.962C1003.77 955.93 1007.02 955.986 1010.32 956.043C1010.65 956.049 1010.97 956.054 1011.29 956.06C1014.94 956.122 1018.65 956.174 1022.46 956.104L1022.46 956.104C1044.26 955.823 1060.18 944.87 1062.98 929.92C1063.92 924.888 1063.92 920.149 1062.99 915.697C1059.67 902.512 1050.24 887.171 1030.96 883.543C1026.55 882.718 1020.94 883.887 1015.19 885.236C1014.69 885.354 1014.19 885.473 1013.69 885.592C1008.49 886.823 1003.29 888.058 999.074 887.794L999.069 887.794C993.564 887.398 988.242 886.934 983.1 886.485C973.514 885.649 964.552 884.867 956.183 884.683L956.176 884.683C945.021 884.301 934.252 882.834 923.636 881.388C922.425 881.223 921.217 881.058 920.01 880.895C908.209 879.304 896.563 877.895 884.687 878.177C879.045 878.316 873.387 879.991 867.657 881.762C867.379 881.848 867.101 881.934 866.823 882.02C861.395 883.701 855.902 885.402 850.4 885.812C848.454 886.1 846.977 886.099 845.027 885.81L845.017 885.808C828.446 882.999 811.873 886.37 798.616 893.674L798.605 893.68C794.84 895.634 791.581 898.129 789.258 901.712L789.195 901.81L789.094 901.87C788.987 901.933 788.915 901.976 788.862 902.01L788.862 902.131L788.803 902.241C786.044 907.424 786.828 913.394 789.637 918.637C792.447 923.883 797.249 928.323 802.377 930.397L802.389 930.403C806.846 932.351 811.67 933.123 816.606 933.652C817.865 933.787 819.134 933.907 820.405 934.026C824.093 934.373 827.804 934.722 831.373 935.463C834.241 936.03 836.651 936.601 839.067 937.461C850.233 941.284 858.716 948.522 866.832 955.448C867.805 956.278 868.773 957.104 869.739 957.919Z" stroke="white" stroke-miterlimit="10"/>
<path d="M908.109 1009.58L908.113 1009.58C919.91 1011.54 930.303 1009.02 939.796 1005.36C947.376 1002.41 954.255 998.329 961.098 993.845C963.564 992.23 966.029 990.559 968.521 988.869C972.93 985.881 977.423 982.835 982.147 979.942C988.864 975.673 996.055 972.545 1003.24 970.271L1003.24 970.271L1003.25 970.269C1011.89 967.704 1020.88 966.925 1030.26 966.747C1034.95 966.659 1039.74 966.721 1044.63 966.787L1044.92 966.791C1049.72 966.856 1054.63 966.923 1059.64 966.853C1094.77 966.29 1115.95 949.135 1119.71 927.674C1120.66 920.05 1121.12 912.499 1119.25 905.53L1119.25 905.53L1119.24 905.52C1114.48 886.299 1103.58 859.436 1074.82 853.839C1071.82 853.293 1068.18 853.699 1064.15 854.635C1060.14 855.57 1055.79 857.02 1051.41 858.524C1050.95 858.684 1050.48 858.844 1050.01 859.004C1046.1 860.35 1042.18 861.698 1038.5 862.702C1034.38 863.824 1030.5 864.532 1027.2 864.314L1027.19 864.314C1019.55 863.758 1012.17 863.053 1004.97 862.365C990.12 860.945 976.028 859.598 961.917 859.788C945.158 860.072 929.128 856.45 913.221 852.703C912.592 852.555 911.964 852.407 911.336 852.259C896.047 848.651 880.85 845.066 865.111 844.795L865.109 844.795C858.337 844.657 851.172 847.848 843.889 851.531C842.79 852.087 841.688 852.654 840.585 853.222C834.433 856.389 828.249 859.573 822.321 860.907C819.903 861.481 817.458 861.775 814.997 861.483L814.986 861.481L814.974 861.479C791.263 857.54 768.494 863.167 750.942 873.299C745.731 876.391 741.045 880.016 737.769 885.569L737.624 885.815L737.362 885.815C737.362 885.834 737.362 885.856 737.362 885.88L737.362 886.003L737.305 886.111C733.349 893.706 734.376 902.584 738.263 910.375C742.15 918.168 748.862 924.794 756.128 927.853L756.137 927.857C762.739 930.795 769.707 931.921 776.85 932.733C778.369 932.906 779.898 933.064 781.432 933.224C787.09 933.811 792.827 934.406 798.484 935.749L798.492 935.751C801.84 936.602 805.681 937.741 809.051 939.169C825.065 945.846 837.171 957.159 848.124 967.396C849.306 968.5 850.474 969.592 851.632 970.664L851.635 970.667C853.987 972.88 856.436 975.341 859.005 977.923C864.04 982.982 869.54 988.508 875.688 993.559C884.952 1001.17 895.598 1007.62 908.109 1009.58Z" stroke="white" stroke-miterlimit="10"/>
<path d="M833.512 983.966L833.168 984.329L833.512 983.966C836.558 986.848 839.759 990.109 843.145 993.559C849.623 1000.16 856.78 1007.45 864.836 1014.11C877.078 1024.23 891.296 1032.79 908.091 1035.04C923.218 1037 937.422 1032.8 949.3 1027.44C958.555 1023.22 966.868 1017.79 975.086 1012.07C977.08 1010.68 979.07 1009.27 981.066 1007.86C987.284 1003.46 993.567 999.016 1000.26 994.94C1008.88 989.258 1017.5 985.279 1026.6 982.438L1026.6 982.437C1044.92 976.756 1064.68 977.087 1086.73 977.457C1090.05 977.512 1093.42 977.569 1096.84 977.606L1096.84 977.606C1144.81 978.169 1171.25 953.676 1175.97 925.688L1175.97 925.687L1175.97 925.679C1177.86 915.553 1177.86 905.442 1175.5 895.904C1172.4 883.466 1167.77 867.549 1159.11 853.829C1150.46 840.122 1137.81 828.632 1118.67 824.987L1118.67 824.987C1114.74 824.231 1109.88 824.913 1104.5 826.388C1099.13 827.86 1093.3 830.105 1087.42 832.422C1086.81 832.663 1086.2 832.905 1085.59 833.147C1080.33 835.225 1075.08 837.302 1070.17 838.856C1064.7 840.588 1059.59 841.691 1055.32 841.402L1055.32 841.402C1044.7 840.638 1034.54 839.588 1024.62 838.562C1005.06 836.541 986.438 834.617 967.163 835.179C945.857 835.889 925.523 830.42 905.383 824.587C903.965 824.176 902.549 823.764 901.133 823.352C882.409 817.901 863.806 812.486 844.592 811.699C836.426 811.423 827.85 816.137 819.133 821.699C817.577 822.692 816.016 823.712 814.454 824.733C807.33 829.389 800.18 834.062 793.271 836.287L793.256 836.292L793.241 836.296L793.166 836.315C789.888 837.148 786.462 838.02 783.492 837.435C753.113 832.367 724.627 839.971 702.305 853.215C695.68 857.146 689.127 862.156 685.371 869.622C685.344 869.763 685.282 869.877 685.233 869.955C685.17 870.055 685.091 870.148 685.037 870.213L685.029 870.222C684.966 870.296 684.931 870.339 684.908 870.374L684.908 870.434L684.862 870.534C680.176 880.682 681.682 892.471 686.706 902.815C691.729 913.16 700.234 921.977 709.409 926.165L709.412 926.166C718.156 930.232 727.385 931.711 736.792 932.771C738.627 932.977 740.469 933.168 742.316 933.359C749.918 934.146 757.595 934.941 765.112 936.885L765.12 936.888L765.129 936.89L765.151 936.897C769.902 938.306 774.695 939.728 779.016 941.721C798.73 950.078 813.045 964.057 826.14 976.843C828.632 979.276 831.079 981.666 833.512 983.966Z" stroke="white" stroke-miterlimit="10"/>
<path d="M1233.2 885.6C1236.54 897.764 1236.07 910.494 1234.16 923.224C1228.44 958.303 1196.01 989.704 1134.98 988.572C1132.75 988.533 1130.53 988.49 1128.34 988.448C1099.24 987.891 1074.13 987.41 1051.07 994.513C1040.1 997.908 1030.09 1002.72 1019.6 1009.51L1233.2 885.6ZM1233.2 885.6L1233.19 885.529M1233.2 885.6L1233.19 885.529M1019.33 1009.08C1010.51 1014.55 1002.41 1020.5 994.43 1026.36C992.686 1027.64 990.948 1028.91 989.209 1030.18C979.499 1037.25 969.753 1044.01 958.826 1049.51C944.564 1056.56 927.024 1062.46 907.612 1060.21L907.61 1060.21C886.531 1057.82 868.742 1047.07 853.581 1034.34C843.504 1025.87 834.632 1016.58 826.723 1008.29C822.714 1004.09 818.951 1000.14 815.405 996.701M1019.33 1009.08L815.056 997.059M1019.33 1009.08C1029.85 1002.27 1039.91 997.445 1050.92 994.035L1050.92 994.035C1074.06 986.907 1099.26 987.391 1128.33 987.948C1130.53 987.99 1132.75 988.033 1134.99 988.072L1134.99 988.072C1195.83 989.2 1227.99 957.928 1233.66 923.147C1235.57 910.449 1236.03 897.799 1232.72 885.732L1232.72 885.727L1232.71 885.68C1228.66 870.259 1223.31 849.909 1212.99 832.28C1202.66 814.647 1187.4 799.775 1163.5 795.283C1158.62 794.386 1152.54 795.399 1145.81 797.453C1139.08 799.504 1131.76 802.57 1124.39 805.718C1123.72 806.008 1123.04 806.298 1122.36 806.588C1115.68 809.449 1109.02 812.305 1102.81 814.439C1095.98 816.786 1089.64 818.282 1084.41 817.922C1070.99 817.037 1058.08 815.639 1045.37 814.264C1039.79 813.66 1034.25 813.06 1028.73 812.51C1010.62 810.707 992.649 809.437 973.852 810.284C948.003 811.562 923.487 804.247 899.174 796.292C897.087 795.609 895.001 794.921 892.916 794.234C870.687 786.906 848.547 779.606 825.517 778.317L825.516 778.317C820.748 778.041 815.83 779.472 810.805 781.927C805.781 784.382 800.685 787.843 795.564 791.588C793.627 793.004 791.684 794.464 789.74 795.923C786.562 798.31 783.384 800.697 780.238 802.892C775.162 806.436 770.115 809.523 765.169 811.384L765.159 811.388L765.149 811.391C760.849 812.808 757.415 813.692 753.476 813.108L753.468 813.107C715.935 806.905 681.25 816.489 654.638 832.842L654.631 832.846C646.583 837.621 638.602 843.759 633.892 853.196L1019.33 1009.08ZM815.405 996.701C815.405 996.701 815.404 996.701 815.404 996.7L815.056 997.059M815.405 996.701C815.405 996.702 815.406 996.702 815.407 996.703L815.056 997.059M815.405 996.701C812.796 994.135 810.155 991.472 807.461 988.755C791.482 972.643 773.627 954.639 749.47 943.705M815.056 997.059C812.439 994.485 809.793 991.817 807.095 989.097C791.112 972.982 773.326 955.05 749.258 944.158M749.47 943.705C749.472 943.706 749.475 943.707 749.477 943.708L749.258 944.158M749.47 943.705C749.468 943.705 749.466 943.704 749.464 943.703L749.258 944.158M749.47 943.705L749.258 944.158M1233.19 885.529C1225.08 854.687 1211.71 803.837 1163.59 794.791L1233.19 885.529ZM732.228 937.453C732.229 937.453 732.23 937.454 732.23 937.454L732.094 937.935L732.226 937.452C732.227 937.453 732.227 937.453 732.228 937.453ZM633.42 854.245C633.414 854.257 633.411 854.263 633.41 854.265C633.408 854.27 633.42 854.244 633.42 854.199L633.42 854.245Z" stroke="white" stroke-miterlimit="10"/>
<path d="M797.776 1009.72L797.778 1009.72C801.685 1013.63 805.837 1018.09 810.268 1022.85C819.683 1032.97 830.359 1044.44 842.626 1054.85C860.646 1070.12 882.009 1083 907.615 1085.67C930.364 1087.92 951.24 1080.61 968.36 1071.58C980.959 1064.81 992.137 1056.77 1003.22 1048.43C1005.3 1046.86 1007.38 1045.28 1009.46 1043.7C1018.46 1036.87 1027.57 1029.96 1037.45 1023.51C1049.41 1015.57 1061.37 1009.89 1073.81 1005.92L1073.82 1005.92C1102.57 996.965 1133.64 997.667 1170.56 998.501L1172.2 998.538L1172.2 998.538C1209.06 999.385 1236.84 990.283 1256.22 975.829C1275.6 961.376 1286.62 941.549 1289.94 920.882C1292.31 905.643 1292.78 890.442 1288.99 875.822L1288.99 875.817C1288.88 875.349 1288.76 874.877 1288.64 874.401C1284.15 856.295 1278.2 832.321 1266.51 811.37C1254.52 789.884 1236.51 771.624 1207.85 766.144C1202.02 765.106 1194.73 766.452 1186.64 769.085C1178.55 771.714 1169.74 775.601 1160.89 779.581C1160.14 779.918 1159.39 780.255 1158.64 780.592C1150.54 784.237 1142.46 787.874 1134.96 790.588C1126.78 793.549 1119.22 795.438 1113.03 795.006L1113.03 795.006C1097.52 793.88 1082.64 792.192 1068.02 790.534C1060.6 789.692 1053.24 788.858 1045.9 788.109C1024.1 785.882 1002.44 784.4 979.588 785.671L979.586 785.671C949.438 787.232 920.864 778.074 892.438 768.033C889.841 767.115 887.244 766.19 884.648 765.265C858.805 756.059 832.975 746.856 805.971 744.934L805.969 744.934C800.498 744.519 794.844 746.261 789.068 749.306C783.293 752.351 777.438 756.676 771.573 761.375C769.092 763.362 766.601 765.424 764.116 767.481C760.749 770.267 757.392 773.045 754.083 775.621C748.318 780.107 742.619 784.045 737.08 786.475C732.25 788.767 727.863 789.643 723.456 789.062L723.448 789.061L723.44 789.059C679.235 781.727 637.876 793.571 606.971 812.754C597.482 818.665 588.064 825.94 582.4 837.367C582.377 837.497 582.329 837.611 582.293 837.689C582.24 837.804 582.172 837.925 582.117 838.025L582.111 838.034C582.085 838.08 582.062 838.122 582.041 838.161C582.011 838.216 581.986 838.264 581.966 838.308C581.948 838.347 581.94 838.37 581.937 838.379L581.937 838.465L581.891 838.564C574.819 853.951 576.925 871.684 584.155 887.155C591.386 902.628 603.706 915.756 616.931 921.921C630.202 928.108 644.079 930.223 658.077 931.778C660.301 932.026 662.528 932.258 664.756 932.491C676.535 933.723 688.347 934.958 699.818 938.301C706.998 940.289 713.697 942.844 719.915 945.682L719.916 945.683C747.937 958.562 768.153 979.372 786.395 998.151C790.259 1002.13 794.034 1006.01 797.776 1009.72Z" stroke="white" stroke-miterlimit="10"/>
<path d="M570.195 920.227L570.192 920.226C554.824 913.071 540.596 897.753 532.232 879.697C523.869 861.644 521.404 840.938 529.433 823.003L529.477 822.905L529.477 822.798C529.477 822.663 529.527 822.558 529.651 822.336L529.664 822.314C529.766 822.132 529.917 821.864 529.948 821.512C536.565 808.114 547.41 799.711 558.329 792.668C594.002 770.375 641.08 756.553 691.955 765.015C696.874 765.89 702.232 764.426 707.514 761.862C713.77 758.864 720.216 754.093 726.734 748.676C730.495 745.551 734.304 742.191 738.121 738.823C740.909 736.363 743.701 733.9 746.482 731.521C753.093 725.868 759.679 720.66 766.147 716.972C772.617 713.282 778.921 711.141 784.979 711.555C815.595 713.969 844.962 725.018 874.37 736.082C877.623 737.306 880.877 738.53 884.134 739.743C916.791 751.906 949.662 762.907 984.347 760.778L984.347 760.778C1011.25 759.083 1036.72 760.848 1062.22 763.499C1070.42 764.352 1078.63 765.297 1086.88 766.247C1104.29 768.251 1121.92 770.28 1140.19 771.528C1147.34 772.031 1156.13 769.733 1165.67 766.14C1174.31 762.886 1183.62 758.545 1192.97 754.189C1193.95 753.73 1194.94 753.27 1195.93 752.812C1206.27 748.001 1216.57 743.31 1226.01 740.155C1235.46 736.996 1243.97 735.406 1250.75 736.724L1250.75 736.725C1284.17 743.052 1304.92 764.771 1318.65 790.22C1331.45 813.971 1338.11 840.92 1343.21 861.555C1343.57 863.044 1343.93 864.499 1344.29 865.919C1348.56 883.088 1348.09 901.12 1345.71 918.626C1341.91 942.548 1329.34 965.696 1306.92 982.622C1284.5 999.55 1252.2 1010.28 1208.9 1009.29C1165.53 1008.16 1129.68 1007.3 1096.69 1017.8C1082.34 1022.34 1068.47 1028.87 1055.08 1037.95C1043.8 1045.46 1033.51 1053.61 1023.3 1061.69C1021.19 1063.36 1019.08 1065.02 1016.97 1066.68C1004.63 1076.37 992.142 1085.75 977.875 1093.65C958.367 1104.38 934.156 1113.67 907.122 1111.13C877.227 1108.32 852.29 1093.32 831.351 1075.5C816.96 1063.25 804.501 1049.71 793.614 1037.87C788.643 1032.47 783.999 1027.42 779.65 1023.02C776.131 1019.41 772.569 1015.67 768.932 1011.85C747.475 989.306 723.389 963.998 689.871 948.234C689.871 948.233 689.87 948.233 689.87 948.233L689.657 948.685C682.505 945.291 674.399 942.179 666.294 939.915L570.195 920.227ZM570.195 920.227C585.372 927.403 601.393 929.872 617.657 931.71C620.208 931.998 622.765 932.271 625.325 932.544C639.071 934.01 652.923 935.487 666.431 939.435L570.195 920.227Z" stroke="white" stroke-miterlimit="10"/>
<path d="M907.123 1136.31L907.12 1136.31C872.698 1133.35 844.306 1116.24 820.567 1095.83C804.515 1082.04 790.635 1066.78 778.451 1053.39C772.597 1046.96 767.135 1040.95 762.011 1035.75M907.123 1136.31L761.655 1036.1M907.123 1136.31C937.491 1139.13 965.515 1128.15 987.407 1115.72C1003.34 1106.55 1017.26 1095.82 1031.09 1084.82C1032.76 1083.49 1034.43 1082.16 1036.11 1080.82C1048.26 1071.12 1060.52 1061.34 1074.16 1052.37C1089.45 1042.16 1104.75 1034.79 1121.01 1029.68C1157.81 1017.77 1197.96 1018.63 1247.04 1019.76L1247.05 1019.76C1296.78 1021.17 1333.73 1008.88 1359.31 989.482C1384.89 970.08 1399.13 943.536 1403.4 916.357L1403.4 916.354C1406.73 896.029 1407.2 875.454 1401.98 855.741L1401.98 855.739C1401.24 852.863 1400.47 849.849 1399.68 846.721C1393.89 823.826 1386.55 794.831 1373 769.033C1357.61 739.73 1334.23 714.62 1296.05 707.303L1296.05 707.303C1288.56 705.845 1278.98 707.767 1268.26 711.506C1257.55 715.239 1245.79 720.752 1233.96 726.394C1233.02 726.84 1232.09 727.286 1231.15 727.732C1220.26 732.932 1209.37 738.129 1199.3 742.008C1188.38 746.216 1178.34 748.904 1170.23 748.33C1149.12 746.885 1128.83 744.488 1108.82 742.124C1099.44 741.016 1090.13 739.915 1080.82 738.923C1051.62 735.812 1022.45 733.764 991.504 735.883L991.502 735.883C952.283 738.437 915.238 725.595 878.408 711.345C874.656 709.893 870.905 708.427 867.155 706.96C834.067 694.022 800.99 681.088 766.381 678.173L907.123 1136.31ZM762.011 1035.75L761.655 1036.1M762.011 1035.75C762.011 1035.75 762.012 1035.75 762.012 1035.75L761.655 1036.1M762.011 1035.75C757.69 1031.33 753.319 1026.72 748.85 1022C724.758 996.588 697.803 968.153 660.315 950.215M761.655 1036.1C757.324 1031.67 752.947 1027.05 748.473 1022.33C724.38 996.917 697.495 968.559 660.097 950.665M660.315 950.215C660.316 950.215 660.316 950.215 660.317 950.216L660.097 950.665M660.315 950.215C660.315 950.215 660.314 950.214 660.313 950.214L660.097 950.665M660.315 950.215L660.097 950.665M477.914 806.938C477.899 806.957 477.883 806.976 477.867 806.995L477.485 806.673L477.941 806.878C477.932 806.898 477.923 806.918 477.914 806.938ZM511.128 772.3C511.128 772.3 511.127 772.301 511.127 772.301L510.861 771.878L511.13 772.299C511.129 772.299 511.129 772.3 511.128 772.3ZM679.876 736.96C679.873 736.962 679.87 736.963 679.867 736.965L679.646 736.516L679.885 736.955C679.882 736.957 679.879 736.958 679.876 736.96Z" stroke="white" stroke-miterlimit="10"/>
<path d="M996.937 1137.51L996.935 1137.51C972.666 1151.91 941.303 1164.3 906.64 1161.49C867.928 1158.25 835.961 1139.01 809.301 1116.06C790.913 1100.23 775.093 1082.68 761.322 1067.4C755.112 1060.51 749.319 1054.08 743.894 1048.48C739.078 1043.48 734.199 1038.25 729.201 1032.89C702.578 1004.35 672.588 972.199 630.753 951.912L630.749 951.91C621.199 947.377 611.638 943.406 601.116 940.284C583.795 935.086 565.951 933.185 548.195 931.293C545.122 930.966 542.051 930.639 538.986 930.295C518.193 927.962 497.644 924.856 478.176 915.701C458.753 906.425 440.709 886.792 430.08 863.644C419.461 840.519 416.276 813.967 426.42 790.812C426.676 790.49 426.811 790.171 426.921 789.909L426.928 789.894C427.048 789.608 427.142 789.391 427.326 789.173L427.368 789.123L427.396 789.063C435.439 771.94 449.64 760.971 463.451 751.929C507.705 723.696 567.179 705.632 632.357 716.357C638.718 717.517 645.038 715.475 651.74 712.067L651.745 712.065C659.552 708.002 667.518 701.566 675.534 694.27C680.207 690.017 684.921 685.449 689.637 680.879C693 677.621 696.363 674.361 699.714 671.214C707.786 663.633 715.817 656.669 723.721 651.777C731.628 646.883 739.353 644.098 746.827 644.791L746.827 644.791C785.015 648.315 821.599 663.066 858.174 677.813C862.611 679.602 867.049 681.391 871.489 683.16C912.49 699.496 953.711 714.109 997.226 710.988L997.226 710.988C1032.23 708.445 1065.21 710.705 1098.1 714.205C1108.93 715.357 1119.75 716.644 1130.63 717.939C1152.78 720.573 1175.18 723.237 1198.36 724.85C1207.42 725.495 1218.69 722.416 1230.96 717.594C1242.32 713.134 1254.62 707.154 1266.92 701.169C1267.93 700.677 1268.95 700.185 1269.96 699.694C1283.28 693.221 1296.53 686.886 1308.59 682.574C1320.67 678.256 1331.47 675.999 1339.91 677.6C1382.86 685.765 1408.98 714.265 1426.1 747.495C1440.94 776.296 1449 808.595 1455.39 834.209C1456.37 838.162 1457.32 841.956 1458.24 845.554M996.937 1137.51L1458.73 845.429M996.937 1137.51C1014.54 1127.2 1029.9 1115.27 1045.09 1103.04C1047.23 1101.31 1049.37 1099.58 1051.51 1097.85C1064.56 1087.3 1077.71 1076.66 1092.27 1066.8M996.937 1137.51L997.19 1137.94M1458.24 845.554L1458.73 845.429M1458.24 845.554C1458.24 845.553 1458.24 845.553 1458.24 845.553L1458.73 845.429M1458.24 845.554C1463.94 867.815 1463.47 890.938 1459.66 913.807L1459.66 913.812C1454.91 944.245 1439.12 974.113 1410.51 995.99C1381.89 1017.87 1340.41 1031.78 1284.23 1030.22L1284.23 1030.22C1229.89 1028.81 1184.99 1028.24 1143.89 1041.28L1143.89 1041.28C1126.2 1046.95 1108.99 1055.18 1092.27 1066.8M1458.73 845.429C1464.45 867.778 1463.97 890.975 1460.16 913.889C1450.62 974.993 1396.74 1033.84 1284.22 1030.72C1229.87 1029.31 1185.05 1028.74 1144.04 1041.76C1126.4 1047.41 1109.24 1055.62 1092.55 1067.22M1092.27 1066.8C1092.27 1066.8 1092.27 1066.8 1092.27 1066.8L1092.55 1067.22M1092.27 1066.8C1092.26 1066.8 1092.26 1066.81 1092.26 1066.81L1092.55 1067.22M1092.55 1067.22C1078.01 1077.06 1064.88 1087.68 1051.83 1098.24C1034.5 1112.26 1017.32 1126.16 997.19 1137.94M997.19 1137.94C972.873 1152.37 941.405 1164.81 906.599 1161.98C840.944 1156.49 794.684 1105.16 760.922 1067.7C754.719 1060.82 748.937 1054.4 743.535 1048.83C738.709 1043.82 733.823 1038.58 728.821 1033.22C702.196 1004.68 672.279 972.605 630.535 952.362C620.999 947.836 611.463 943.875 600.974 940.764L997.19 1137.94Z" stroke="white" stroke-miterlimit="10"/>
<path d="M1167.26 1053.72C1212.17 1039.27 1261.37 1039.56 1321.43 1041.25C1384.28 1042.95 1430.41 1027.48 1462.12 1003.17C1493.84 978.851 1511.18 945.659 1516.41 911.83C1520.22 886.411 1520.69 860.74 1514.51 835.931C1513.34 831.386 1512.15 826.548 1510.9 821.48C1503.98 793.388 1495.32 758.228 1479.44 726.766C1460.71 689.647 1431.97 657.755 1384.26 648.742L1384.26 648.742C1374.86 646.93 1362.85 649.468 1349.41 654.326C1335.99 659.177 1321.25 666.308 1306.44 673.594C1305.27 674.17 1304.1 674.747 1302.93 675.323C1289.29 682.038 1275.68 688.741 1263.11 693.748C1249.48 699.18 1236.99 702.649 1226.98 701.933C1200.95 700.122 1175.95 697.091 1151.24 694.095C1139.27 692.644 1127.36 691.2 1115.45 689.909C1078.92 685.949 1042.25 683.407 1002.96 686.374L1002.95 686.374C954.907 689.92 909.513 673.466 864.339 655.043C859.418 653.037 854.5 651.007 849.581 648.976C809.311 632.354 769.002 615.715 726.806 611.69C718.622 610.927 710.184 614.063 701.562 619.561C692.943 625.058 684.197 632.878 675.41 641.396C671.713 644.98 668.003 648.694 664.293 652.406C659.208 657.496 654.126 662.584 649.084 667.33C640.354 675.548 631.676 682.815 623.155 687.445C615.95 691.434 608.68 693.467 601.851 692.309C530.475 680.452 464.801 700.496 415.776 731.842C400.542 741.729 384.906 754.112 375.908 773.219L375.88 773.278L375.838 773.328C375.671 773.526 375.578 773.785 375.453 774.156L375.442 774.187C375.336 774.502 375.201 774.905 374.933 775.249C363.596 800.81 367.02 830.263 378.712 855.934C390.415 881.628 410.365 903.452 431.933 913.718C453.546 924.005 476.359 927.464 499.419 930.045C502.836 930.427 506.26 930.79 509.686 931.154C529.352 933.24 549.094 935.335 568.226 941.131L568.234 941.134C579.695 944.817 590.684 949.069 601.198 954.173L601.2 954.174C647.029 976.636 679.9 1011.93 709.169 1043.35C714.984 1049.6 720.656 1055.69 726.26 1061.49L726.26 1061.49C732.197 1067.66 738.549 1074.76 745.37 1082.38C760.515 1099.32 777.973 1118.84 798.342 1136.43C827.861 1161.92 863.404 1183.28 906.644 1186.66L906.646 1186.66C944.644 1189.76 979.82 1175.67 1006.47 1159.57L1006.47 1159.57C1025.75 1147.99 1042.54 1134.72 1059.1 1121.25C1060.93 1119.76 1062.75 1118.28 1064.58 1116.79C1079.29 1104.78 1094.04 1092.76 1110.39 1081.79C1129.03 1069.04 1147.66 1059.96 1167.26 1053.72ZM1167.26 1053.72C1167.26 1053.72 1167.26 1053.72 1167.26 1053.72L1167.41 1054.2L1167.26 1053.72C1167.26 1053.72 1167.26 1053.72 1167.26 1053.72Z" stroke="white" stroke-miterlimit="10"/>
<path d="M1016.01 1181.65L1016.01 1181.64C1036.96 1168.79 1055.05 1154.17 1072.99 1139.36C1074.52 1138.09 1076.05 1136.83 1077.58 1135.56C1093.97 1122 1110.43 1108.37 1128.99 1095.94C1149.53 1082.05 1170.08 1072.13 1191.1 1065.33C1239.83 1049.17 1293.32 1049.46 1359.1 1051.44L1359.1 1051.44C1428.15 1053.56 1478.8 1036.54 1513.62 1009.75C1548.44 982.955 1567.45 946.369 1573.15 909.286L1573.15 909.285C1577.43 881.599 1578.38 853.384 1571.25 825.751L1571.25 825.75C1569.91 820.51 1568.54 814.906 1567.1 809.02C1559.59 778.329 1550.2 739.982 1533.03 705.585C1512.56 664.611 1481.08 629.326 1428.6 619.323C1418.26 617.37 1405.02 620.243 1390.23 625.679C1375.45 631.11 1359.22 639.062 1342.92 647.18C1341.67 647.802 1340.42 648.424 1339.17 649.047C1324.12 656.547 1309.11 664.032 1295.26 669.619C1280.27 675.665 1266.56 679.524 1255.59 678.738C1226.63 676.807 1198.77 673.427 1171.2 670.082C1158.36 668.524 1145.59 666.974 1132.79 665.582C1092.52 661.198 1052.02 658.373 1008.68 661.764C956.1 665.876 906.532 647.581 857.186 627.038C851.732 624.767 846.28 622.468 840.827 620.17C796.914 601.657 752.929 583.115 706.782 578.593L706.78 578.593C697.886 577.69 688.706 581.158 679.323 587.271C669.944 593.381 660.423 602.094 650.862 611.584C646.823 615.593 642.771 619.747 638.721 623.898C633.205 629.553 627.693 635.204 622.226 640.475C612.737 649.626 603.312 657.709 594.074 662.834C585.919 667.388 578.175 669.704 570.394 668.55L570.386 668.548C491.859 655.559 419.987 677.865 366.67 712.041C350.007 722.775 332.939 736.291 322.987 757.379L322.979 757.395L322.97 757.411C322.757 757.791 322.65 758.105 322.532 758.457L322.529 758.465C322.412 758.812 322.283 759.196 322.029 759.652C309.718 787.769 313.497 820.209 326.327 848.475C339.163 876.751 361.02 900.767 384.732 912.022C408.491 923.299 433.57 927.112 458.894 929.976C462.591 930.394 466.293 930.792 469.998 931.19C491.646 933.516 513.359 935.849 534.373 942.263C547.277 945.95 559.223 950.77 570.688 956.439C621.429 981.093 657.473 1020.23 689.368 1054.86C695.601 1061.63 701.675 1068.23 707.669 1074.51C714.359 1081.41 721.531 1089.41 729.249 1098.03C745.793 1116.49 764.844 1137.76 787.021 1156.94C819.521 1185.05 858.638 1208.6 906.167 1212.12C948.459 1215.22 986.974 1199.72 1016.01 1181.65Z" stroke="white" stroke-miterlimit="10"/>
<path d="M1025.53 1203.71L1025.53 1203.71C1048.15 1189.59 1067.68 1173.62 1086.98 1157.43C1088.96 1155.77 1090.93 1154.11 1092.91 1152.45C1110.22 1137.89 1127.6 1123.28 1147.1 1109.81L1147.1 1109.8C1169.07 1094.79 1191.05 1084.01 1213.98 1076.64C1267.47 1059.36 1324.77 1059.65 1396.28 1061.63L1396.28 1061.63C1472 1063.89 1527.31 1045.24 1565.23 1015.97C1603.14 986.706 1623.7 946.796 1629.88 906.459L1629.88 906.457C1634.64 876.233 1635.11 845.469 1627.51 815.284C1625.99 809.361 1624.45 803.006 1622.83 796.321C1614.73 762.895 1604.62 721.199 1586.12 683.767C1563.93 638.867 1529.71 600.19 1472.46 589.338C1461.16 587.244 1446.7 590.435 1430.56 596.428C1414.43 602.415 1396.71 611.163 1378.91 620.094C1377.49 620.808 1376.06 621.524 1374.64 622.239C1358.28 630.461 1341.96 638.661 1326.91 644.806C1310.57 651.479 1295.64 655.763 1283.71 654.977L1283.71 654.977C1252.76 652.8 1222.97 649.133 1193.5 645.505C1178.92 643.711 1164.42 641.926 1149.89 640.335C1105.98 635.528 1061.79 632.49 1014.4 636.305L1014.36 635.807L1014.4 636.306C957.523 640.843 903.781 620.778 850.263 598.184C844.197 595.623 838.134 593.029 832.07 590.435C784.594 570.127 737.031 549.782 687.225 544.648C677.618 543.675 667.724 547.511 657.626 554.255C647.532 560.997 637.296 570.601 627.019 581.064C622.658 585.504 618.283 590.106 613.911 594.705C608.002 600.92 602.097 607.131 596.239 612.93C586.035 623.03 575.897 631.961 565.945 637.653C557.311 642.776 548.607 645.38 540.339 643.939C454.66 629.818 376.59 654.105 318.985 691.391C300.914 703.241 282.442 717.865 271.531 740.878C271.491 741.816 270.983 742.719 270.551 743.488L270.527 743.53C257.025 774.192 261.161 809.603 275.124 840.45C289.093 871.308 312.858 897.517 338.477 909.761L338.261 910.212L338.477 909.761C364.382 922.17 391.606 926.336 419.134 929.447C423.21 929.908 427.294 930.345 431.381 930.783C454.871 933.3 478.474 935.829 501.467 942.831C515.804 947.085 528.703 952.471 541.115 958.419L541.121 958.422C595.813 985.463 634.727 1027.74 669.252 1065.24C676.326 1072.93 683.216 1080.41 690.02 1087.52C697.017 1094.82 704.525 1103.25 712.602 1112.32C730.724 1132.67 751.711 1156.23 776.226 1177.45C811.646 1208.11 854.34 1233.78 906.16 1237.59C951.786 1240.97 994.114 1223.49 1025.53 1203.71Z" stroke="white" stroke-miterlimit="10"/>
<path d="M905.69 1262.76L905.692 1262.76C955.608 1266.43 1001.27 1247.24 1035.08 1225.78L1035.34 1226.2L1035.08 1225.78C1059.36 1210.38 1080.32 1193.14 1101.12 1175.71C1102.69 1174.39 1104.27 1173.06 1105.85 1171.74C1125.06 1155.61 1144.35 1139.43 1166.18 1124.51L1166.18 1124.51C1190.06 1108.36 1213.46 1097.02 1238.3 1088.8L1238.3 1088.8C1295.61 1070.1 1357.2 1070.11 1434.44 1072.37L1434.44 1072.37C1516.59 1075.06 1576.43 1054.85 1617.38 1023.11C1658.34 991.371 1680.45 948.066 1687.1 904.475L1687.1 904.472C1692.34 871.413 1693.29 838.107 1684.73 805.382L1685.21 805.255L1684.73 805.382C1682.86 798.231 1680.97 790.491 1678.96 782.313C1670.22 746.602 1659.43 702.549 1640.01 662.862C1616.15 614.108 1579.3 572.037 1517.29 560.196C1505.16 557.89 1489.53 561.363 1472.05 567.896C1454.59 574.422 1435.36 583.966 1416.05 593.71C1414.53 594.477 1413.01 595.246 1411.49 596.014C1393.7 604.998 1375.96 613.961 1359.6 620.675C1341.87 627.959 1325.68 632.632 1312.8 631.776L1312.8 631.776C1278.92 629.478 1246.28 625.463 1213.96 621.486C1198.51 619.586 1183.13 617.694 1167.72 616.002C1120.05 610.77 1072.05 607.45 1020.6 611.69C959.199 616.793 901.283 594.888 843.594 570.172C837.002 567.348 830.413 564.487 823.822 561.625C772.696 539.426 721.449 517.175 667.684 511.545C657.485 510.502 646.938 514.688 636.145 522.038C625.358 529.385 614.391 539.847 603.369 551.248C598.686 556.092 593.986 561.112 589.288 566.131C582.951 572.9 576.617 579.666 570.331 585.991C559.374 597.016 548.49 606.779 537.823 613.037L537.815 613.041C528.239 618.439 519.537 621.329 510.315 619.889L510.311 619.889C417.48 604.636 333.688 631.185 271.312 671.302C251.339 684.281 231.433 700.319 219.568 725.033C219.528 725.971 219.02 726.875 218.587 727.644L218.566 727.682C204.108 761.033 208.603 799.344 223.698 832.702C238.799 866.07 264.472 894.401 292.237 907.777C320.048 921.175 349.536 925.695 379.39 929.089C383.768 929.587 388.154 930.061 392.543 930.535C418.067 933.29 443.716 936.059 468.581 943.677L468.585 943.678C483.868 948.495 497.718 954.163 511.088 960.679L511.089 960.68C570.703 989.919 612.794 1036.04 649.952 1076.76C657.438 1084.97 664.724 1092.95 671.912 1100.53C679.42 1108.39 687.483 1117.49 696.167 1127.29C715.665 1149.29 738.292 1174.83 764.792 1197.81C803.072 1231.02 849.341 1258.81 905.69 1262.76Z" stroke="white" stroke-miterlimit="10"/>
<path d="M1044.6 1247.85L1044.6 1247.84C1070.56 1231.17 1092.95 1212.59 1115.3 1193.85C1116.21 1193.09 1117.11 1192.33 1118.02 1191.56C1139.46 1173.58 1161 1155.51 1185.72 1138.94C1211.03 1121.37 1236.82 1109.19 1263.09 1100.4L1263.09 1100.4C1324.21 1080.29 1390.1 1080.29 1473.05 1082.84C1561.41 1085.67 1625.77 1063.83 1669.82 1029.62C1713.88 995.404 1737.66 948.776 1744.79 901.932C1750.03 866.325 1750.98 830.47 1741.94 795.197L1741.94 795.196C1740.04 787.729 1738.12 779.659 1736.08 771.137C1726.85 732.475 1715.4 684.509 1694.47 641.327C1668.94 588.648 1629.36 543.185 1562.58 530.495C1549.49 528.046 1532.65 531.855 1513.81 538.967C1494.99 546.072 1474.28 556.438 1453.47 567.013C1451.87 567.826 1450.27 568.641 1448.67 569.455C1429.48 579.224 1410.33 588.969 1392.69 596.264C1373.6 604.162 1356.19 609.225 1342.36 608.297L1342.36 608.297C1305.89 605.808 1270.84 601.44 1236.11 597.112C1219.51 595.044 1202.99 592.985 1186.43 591.145C1135.18 585.453 1083.49 581.85 1027.75 586.514C961.815 592.042 899.607 568.368 837.686 541.601C830.429 538.463 823.175 535.284 815.92 532.103C761.236 508.131 706.456 484.117 649.08 477.882C638.049 476.699 626.699 481.22 615.125 489.183C603.556 497.144 591.83 508.498 580.063 520.871C575.02 526.173 569.963 531.67 564.91 537.163C558.194 544.462 551.486 551.754 544.828 558.571C533.148 570.529 521.548 581.106 510.165 587.86C500.096 593.834 490.442 596.717 480.752 595.28L480.744 595.279C381.715 578.895 291.248 607.424 224.582 650.652L224.581 650.653C202.674 664.781 181.315 681.973 168.979 708.717L168.97 708.736L168.961 708.753C168.732 709.161 168.5 709.641 168.26 710.139C168.027 710.623 167.786 711.124 167.543 711.56C151.893 747.456 156.745 788.737 172.974 824.677C189.207 860.627 216.787 891.15 246.46 905.516L246.242 905.966L246.46 905.516C276.416 920.045 308.168 924.919 340.287 928.561C345.018 929.097 349.757 929.607 354.499 930.117C381.933 933.067 409.478 936.029 436.154 944.245L436.156 944.246C452.393 949.346 467.674 955.579 482 962.662L482.003 962.664C545.077 994.239 589.934 1043.4 629.666 1086.94C638.053 1096.13 646.211 1105.07 654.264 1113.55L653.902 1113.89L654.265 1113.55C662.082 1121.8 670.48 1131.32 679.522 1141.57C700.592 1165.45 725.156 1193.3 753.999 1218.33C795.199 1254.07 845.044 1283.99 905.684 1288.22C958.939 1291.89 1008.42 1271.29 1044.6 1247.85Z" stroke="white" stroke-miterlimit="10"/>
<path d="M1054.14 1269.91L1054.14 1269.91C1081.76 1251.97 1105.46 1232.04 1129 1211.92C1130.55 1210.6 1132.1 1209.28 1133.64 1207.95C1155.63 1189.14 1177.69 1170.26 1202.88 1152.8L1202.89 1152.8C1230.1 1134.1 1257.32 1121.07 1285.5 1111.72L1285.5 1111.72C1350.91 1090.19 1421.56 1089.91 1509.76 1092.74C1604.79 1095.85 1673.81 1072.53 1720.96 1035.91C1768.11 999.295 1793.44 949.343 1801.05 899.103C1806.77 861.235 1807.71 822.551 1798.2 784.729C1796.13 776.568 1794.02 767.722 1791.8 758.367C1781.98 717.089 1769.8 665.89 1747.58 619.756C1720.32 563.187 1677.99 514.33 1606.44 500.792L1606.54 500.3L1606.44 500.792C1592.4 498.132 1574.34 502.24 1554.15 509.917C1533.97 517.588 1511.77 528.785 1489.47 540.209C1487.72 541.109 1485.96 542.01 1484.2 542.911C1463.68 553.443 1443.21 563.945 1424.36 571.812C1403.91 580.346 1385.28 585.817 1370.49 584.818L1370.49 584.818C1331.68 582.153 1294.31 577.504 1257.27 572.895C1239.24 570.652 1221.29 568.418 1203.29 566.428C1148.3 560.348 1092.79 556.532 1033 561.62L1032.95 561.122L1033 561.62C962.767 567.573 896.506 542.13 830.473 513.312C822.697 509.918 814.924 506.478 807.148 503.036C748.854 477.234 690.388 451.356 629.052 444.502C617.429 443.249 605.425 448.121 593.158 456.69C580.896 465.255 568.439 477.467 555.927 490.777C550.563 496.483 545.182 502.398 539.804 508.31C532.66 516.164 525.52 524.012 518.434 531.355C506.002 544.237 493.658 555.645 481.56 562.964L481.557 562.967C471.021 569.218 460.407 572.676 450.226 570.95C344.046 553.435 247.383 583.945 176.427 630.283L176.423 630.286C153.09 645.26 130.303 663.581 117.012 692.301C116.769 692.877 116.526 693.381 116.289 693.874C116.17 694.121 116.053 694.365 115.936 694.616C115.818 694.869 115.701 695.129 115.584 695.407L115.582 695.411C98.9658 733.86 104.056 778.123 121.301 816.652C138.548 855.184 167.916 887.898 199.733 903.254L199.516 903.704L199.734 903.254C231.835 918.773 265.852 923.93 300.235 927.819C305.058 928.364 309.889 928.885 314.722 929.406C344.325 932.596 374.039 935.798 402.78 944.812L402.783 944.813C420.446 950.478 436.681 956.994 451.964 964.644C520.106 998.728 568.204 1051.74 610.64 1098.52C619.339 1108.11 627.8 1117.43 636.147 1126.28L636.147 1126.28C644.379 1135.04 653.222 1145.13 662.744 1155.99C685.263 1181.69 711.574 1211.71 742.556 1238.66C786.616 1276.99 840.036 1309.02 905.205 1313.4L905.206 1313.4C962.751 1317.35 1015.57 1295.06 1054.14 1269.91Z" stroke="white" stroke-miterlimit="10"/>
<path d="M618.503 1139.58L618.501 1139.57C609.299 1129.85 599.976 1119.56 590.384 1108.99C545.355 1059.33 494.416 1003.15 422.401 967.191C406.167 958.976 388.977 951.893 370.354 946.226C339.632 936.626 308.03 933.227 276.585 929.846C271.369 929.285 266.158 928.725 260.956 928.137C224.367 924 188.205 918.49 153.959 901.84L153.957 901.839C119.995 885.493 88.7195 850.587 70.3402 809.474C51.9626 768.363 46.5147 721.129 64.0855 680.133L64.0867 680.13C64.5672 678.99 65.0325 677.888 65.4923 677.069L65.5019 677.052L65.51 677.035C79.7542 646.328 103.974 626.872 128.743 610.764C204.469 561.595 306.855 528.823 420.187 547.47L420.192 547.471C431.317 549.193 442.404 545.742 453.432 538.631C466.363 530.745 479.48 518.489 492.649 504.662C500.248 496.684 507.887 488.156 515.523 479.632C521.111 473.394 526.697 467.158 532.265 461.141C545.463 446.876 558.59 433.799 571.53 424.641C584.475 415.48 597.163 410.292 609.5 411.686L609.5 411.686C674.802 419.036 736.958 446.822 798.909 474.516C807.205 478.224 815.497 481.931 823.793 485.587C893.998 516.527 964.432 543.81 1039.19 537.291C1103.03 531.779 1162.24 535.877 1220.87 542.417C1240.04 544.555 1259.15 546.956 1278.35 549.366C1317.85 554.326 1357.69 559.33 1399.09 562.186L1399.09 562.186C1414.83 563.255 1434.69 557.395 1456.48 548.251C1476.6 539.812 1498.45 528.543 1520.35 517.247C1522.2 516.295 1524.04 515.344 1525.89 514.394C1549.64 502.157 1573.29 490.164 1594.75 481.954C1616.24 473.737 1635.43 469.347 1650.3 472.218L1650.3 472.219C1726.62 486.747 1771.57 538.997 1800.5 599.457C1823.7 647.964 1836.57 701.69 1847.03 745.385C1849.61 756.17 1852.05 766.345 1854.46 775.678L1854.46 775.679C1864.93 816.045 1863.98 857.274 1857.79 897.687L1857.79 897.688C1849.7 951.182 1822.82 1004.46 1772.63 1043.55C1722.44 1082.65 1648.89 1107.59 1547.43 1104.34C1453.5 1101.23 1378.56 1101.79 1309.33 1124.45L1309.33 1124.45C1279.25 1134.37 1250.6 1148.25 1221.95 1168.08C1221.95 1168.08 1221.95 1168.08 1221.95 1168.08L1222.24 1168.49L618.503 1139.58ZM618.503 1139.58C627.142 1148.79 636.432 1159.39 646.44 1170.82C670.451 1198.24 698.59 1230.37 731.765 1259.2C778.746 1300.04 835.742 1334.2 905.202 1338.86M618.503 1139.58L905.202 1338.86M905.202 1338.86C966.085 1342.81 1022.24 1319.1 1063.67 1291.98L905.202 1338.86Z" stroke="white" stroke-miterlimit="10"/>
<path d="M1911.2 764.645C1908.6 754.582 1905.97 743.575 1903.18 731.886C1892.14 685.687 1878.55 628.827 1854.08 577.427C1823.42 513.042 1775.73 457.327 1694.65 441.95L1694.65 441.95C1678.94 438.937 1658.59 443.662 1635.77 452.459C1612.97 461.248 1587.82 474.062 1562.54 487.13C1560.68 488.092 1558.82 489.055 1556.96 490.018C1533.56 502.134 1510.19 514.228 1488.69 523.273C1465.5 533.032 1444.4 539.281 1427.7 538.141L1427.7 538.141C1383.95 535.109 1341.79 529.824 1299.98 524.583C1279.36 521.997 1258.82 519.423 1238.22 517.134C1175.83 510.205 1112.81 505.895 1044.92 511.831C965.626 518.775 890.901 489.653 816.464 456.626C807.612 452.699 798.765 448.717 789.914 444.733C724.297 415.197 658.504 385.582 589.477 377.74L589.477 377.74C573.601 375.925 557.143 384.575 540.327 398.587C523.702 412.44 506.836 431.44 489.963 450.448L489.423 451.056C472.385 470.249 455.342 489.395 438.587 503.101C421.848 516.795 405.278 525.159 389.201 522.577L389.2 522.577C269.192 503.081 160.607 537.833 80.5905 590.113L80.5888 590.114C54.3933 607.069 28.7409 627.94 13.5425 660.628L13.542 660.629C-6.88132 704.309 -1.67196 755.144 17.7786 799.506C37.2308 843.871 70.8902 881.676 107.236 899.294C143.628 916.935 182.055 922.798 220.909 927.218C226.391 927.842 231.882 928.436 237.377 929.032C270.804 932.653 304.379 936.29 336.982 946.51C444.465 980.086 512.378 1055.29 570.821 1120.01C580.907 1131.17 590.711 1142.03 600.387 1152.31L600.388 1152.31C609.519 1162.06 619.351 1173.31 629.954 1185.45C655.395 1214.56 685.268 1248.75 720.504 1279.43C770.405 1322.89 830.977 1359.24 904.728 1364.04C969.901 1368.27 1029.39 1342.87 1073.21 1314.05L1073.48 1314.46L1073.21 1314.05C1104.17 1293.7 1130.73 1271.16 1157.13 1248.49C1158.33 1247.46 1159.53 1246.43 1160.73 1245.4C1185.92 1223.76 1211.15 1202.09 1240.08 1182.22L1240.36 1182.64L1240.08 1182.22C1340.83 1113.1 1441.58 1109.72 1584.62 1114.52C1692.52 1118.06 1770.6 1091.49 1823.89 1049.88C1877.18 1008.28 1905.73 951.607 1914.53 894.858L1915.02 894.935L1914.53 894.858C1921.2 851.901 1922.15 807.842 1911.2 764.645ZM1911.2 764.645C1911.2 764.645 1911.2 764.646 1911.2 764.647L1911.69 764.521M1911.2 764.645C1911.2 764.645 1911.2 764.644 1911.2 764.644L1911.69 764.521M1911.69 764.521C1909.09 754.473 1906.46 743.477 1903.67 731.795C1878.8 627.711 1840.92 469.183 1694.74 441.459L1911.69 764.521ZM589.534 377.243C557.525 373.585 523.512 411.901 489.605 450.098C455.328 488.712 421.159 527.203 389.28 522.083C269.128 502.564 160.418 537.36 80.317 589.695C54.0933 606.668 28.3466 627.602 13.0891 660.418L589.534 377.243ZM589.534 377.243C658.643 385.095 724.514 414.745 790.122 444.278M589.534 377.243L790.122 444.278M790.122 444.278C873.431 481.778 956.317 519.088 1044.87 511.333M790.122 444.278L1044.87 511.333M1044.87 511.333C1135.26 503.43 1217.01 513.677 1300.06 524.089M1044.87 511.333L1300.06 524.089M1300.06 524.089C1341.86 529.329 1384 534.611 1427.74 537.642L1300.06 524.089Z" stroke="white" stroke-miterlimit="10"/>
</g>
<g opacity="0.5" filter="url(#filter0_f_1002_21135)">
<path d="M961 404L814.901 730.469L0 789L814.901 847.531L961 1174L1107.1 847.531L1922 789L1107.1 730.469L961 404Z" fill="url(#paint0_linear_1002_21135)"/>
</g>
<defs>
<filter id="filter0_f_1002_21135" x="-404" y="0" width="2730" height="1578" filterUnits="userSpaceOnUse" color-interpolation-filters="sRGB">
<feFlood flood-opacity="0" result="BackgroundImageFix"/>
<feBlend mode="normal" in="SourceGraphic" in2="BackgroundImageFix" result="shape"/>
<feGaussianBlur stdDeviation="202" result="effect1_foregroundBlur_1002_21135"/>
</filter>
<linearGradient id="paint0_linear_1002_21135" x1="1922" y1="789" x2="0" y2="789" gradientUnits="userSpaceOnUse">
<stop stop-color="#1D976C"/>
<stop offset="1" stop-color="#93F9B9"/>
</linearGradient>
</defs>
</svg>
