<svg width="64" height="65" viewBox="0 0 64 65" fill="none" xmlns="http://www.w3.org/2000/svg">
<path d="M32 3.7C32 1.93269 33.4363 0.483414 35.1947 0.659842C40.8158 1.2238 46.2081 3.26859 50.8091 6.61146C56.2763 10.5836 60.3456 16.1845 62.4338 22.6115C64.5221 29.0384 64.5221 35.9616 62.4338 42.3885C60.3456 48.8155 56.2762 54.4164 50.8091 58.3885C45.342 62.3606 38.7577 64.5 32 64.5C25.2423 64.5 18.658 62.3606 13.1909 58.3885C7.72375 54.4164 3.65444 48.8155 1.56619 42.3885C-0.191256 36.9797 -0.469659 31.2194 0.730982 25.6992C1.10659 23.9723 2.92876 23.0542 4.60957 23.6003C6.29039 24.1464 7.1889 25.9507 6.85659 27.6864C6.04795 31.9103 6.31341 36.2881 7.65295 40.4108C9.32355 45.5524 12.579 50.0332 16.9527 53.2108C21.3264 56.3885 26.5938 58.1 32 58.1C37.4062 58.1 42.6736 56.3885 47.0473 53.2108C51.421 50.0332 54.6764 45.5524 56.347 40.4108C58.0177 35.2692 58.0177 29.7308 56.347 24.5892C54.6764 19.4476 51.421 14.9668 47.0473 11.7892C43.5403 9.2412 39.4588 7.6359 35.1918 7.09972C33.4383 6.87938 32 5.46731 32 3.7Z" fill="#12BDA8"/>
</svg>
