<svg width="95" height="48" viewBox="0 0 95 48" fill="none" xmlns="http://www.w3.org/2000/svg">
<g clip-path="url(#clip0_731_9002)">
<path d="M0 0.527595V33.9578H2.22613V18.3002L51.9801 18.2728V33.9303H54.2062V0.500126H51.9801V16.0752L2.22613 16.0478V0.472656H0V0.527595Z" fill="black"/>
<path d="M65.5859 0.527344H67.8121V33.9575H65.5859V0.527344Z" fill="black"/>
<path d="M74.7656 0.527344V2.72489H83.7536V33.985H85.9797V2.72489H94.9956V0.527344H74.7656Z" fill="black"/>
<path d="M0.0546875 40.8252V47.5277H0.806006V44.5061H4.92434V43.7644H0.806006V41.5943H5.23043V40.8527H0.0546875V40.8252Z" fill="black"/>
<path d="M12.6562 40.8525H13.4076V47.5276H12.6562V40.8525Z" fill="black"/>
<path d="M20.3438 40.8252V41.5669H23.2934V47.5002H24.0447V41.5669H26.9943V40.8252H20.3438Z" fill="black"/>
<path d="M53.4542 40.8253V46.7862L34.7826 40.8528H34.0312V47.5004H34.7826V41.5945L53.4542 47.5004H54.2055V40.7979L53.4542 40.8253Z" fill="black"/>
<path d="M62.6406 40.8525V47.5001H67.7885V46.7584H63.3919V44.506H67.5103V43.7643H63.3919V41.5942H67.7885V40.8525H62.6406Z" fill="black"/>
<path d="M79.2246 47.4999C78.4455 47.4999 77.6942 47.3076 76.9985 46.9505L76.8594 46.8681V46.0165L77.2768 46.2363C77.889 46.5385 78.5568 46.7033 79.2246 46.7033C79.8368 46.7033 80.7273 46.6758 80.7273 45.7693C80.7273 44.9727 80.0594 44.698 78.9742 44.3409C77.9724 44.0113 76.9707 43.6542 76.9707 42.3906C76.9707 41.2094 78.0559 40.6875 79.1133 40.6875C79.7533 40.6875 80.3933 40.8248 80.9499 41.127L81.089 41.2094V42.061L80.6716 41.8137C80.1986 41.5665 79.642 41.4566 79.1133 41.4292C78.4177 41.4292 77.7498 41.4841 77.7498 42.2533C77.7498 42.9675 78.3898 43.2421 79.4194 43.5718C80.449 43.9014 81.5064 44.3959 81.5064 45.7144C81.4786 46.8406 80.6438 47.4724 79.2246 47.4999Z" fill="black"/>
<path d="M92.7403 47.4999C91.9611 47.4999 91.2098 47.3076 90.5141 46.9505L90.375 46.8681V46.0165L90.7924 46.2363C91.4046 46.5385 92.0724 46.7033 92.7403 46.7033C93.3524 46.7033 94.2429 46.6758 94.2429 45.7693C94.2429 44.9727 93.5751 44.698 92.4898 44.3409C91.4881 44.0113 90.4863 43.6542 90.4863 42.3906C90.4863 41.2094 91.5715 40.6875 92.629 40.6875C93.269 40.6875 93.909 40.8248 94.4655 41.127L94.6046 41.2094V42.061L94.1872 41.8137C93.7142 41.5665 93.1577 41.4566 92.629 41.4292C91.9333 41.4292 91.2655 41.4841 91.2655 42.2533C91.2655 42.9675 91.9055 43.2421 92.9351 43.5718C93.9646 43.9014 95.022 44.3959 95.022 45.7144C95.022 46.8406 94.1594 47.4724 92.7403 47.4999Z" fill="black"/>
</g>
<defs>
<clipPath id="clip0_731_9002">
<rect width="95" height="47" fill="white" transform="translate(0 0.5)"/>
</clipPath>
</defs>
</svg>
