<svg width="24" height="24" viewBox="0 0 24 24" fill="none" xmlns="http://www.w3.org/2000/svg">
<path d="M20.7131 18.3274H3.26597C2.56588 18.3274 1.99414 17.7556 1.99414 17.0555V6.94761C1.99414 6.24752 2.56588 5.67578 3.26597 5.67578H20.7131C21.4132 5.67578 21.985 6.24752 21.985 6.94761V17.0555C21.985 17.7556 21.4132 18.3274 20.7131 18.3274Z" fill="#FFC107"/>
<path d="M20.3522 13.6896H3.62845C3.46509 13.6896 3.33008 13.5563 3.33008 13.3913V11.9897C3.33008 11.8264 3.46343 11.6914 3.62845 11.6914H20.3522C20.5156 11.6914 20.6506 11.8247 20.6506 11.9897V13.3913C20.6489 13.5546 20.5156 13.6896 20.3522 13.6896Z" fill="white"/>
<path fill-rule="evenodd" clip-rule="evenodd" d="M5.81302 12.3976C5.75679 12.4408 5.70661 12.5068 5.67469 12.5776C5.6415 12.6513 5.61871 12.7304 5.59192 12.8234C5.58989 12.8304 5.58784 12.8375 5.58576 12.8447C5.55761 12.9422 5.52417 13.0545 5.469 13.1608C5.42662 13.2425 5.32602 13.2744 5.24429 13.2321C5.16256 13.1897 5.13067 13.0891 5.17304 13.0074C5.21121 12.9338 5.23694 12.8511 5.26547 12.7523C5.26782 12.7441 5.2702 12.7359 5.27261 12.7275C5.298 12.639 5.32722 12.5373 5.37073 12.4407C5.42216 12.3266 5.50449 12.2142 5.60995 12.1332C5.71603 12.0518 5.85652 11.9947 6.01384 12.0196L6.01445 12.0197L6.01445 12.0197C6.15809 12.0429 6.26598 12.1256 6.34316 12.2172C6.39592 12.2797 6.43791 12.3504 6.47127 12.4197C6.6267 12.2703 6.81402 12.1542 7.01957 12.0863C7.06701 12.0699 7.1469 12.0454 7.23661 12.062L7.23731 12.0621L7.23731 12.0621C7.33827 12.0812 7.40745 12.1422 7.45254 12.1979C7.49599 12.2516 7.52722 12.3133 7.54832 12.3555C7.64455 12.5431 7.76118 12.7211 7.89489 12.8831L7.89589 12.8843L7.89588 12.8843C7.95053 12.9518 7.98818 12.9835 8.02261 12.9945C8.06451 13.0063 8.1115 12.9941 8.22458 12.8838C8.24053 12.8682 8.25987 12.8486 8.28084 12.8272C8.318 12.7894 8.36027 12.7464 8.39782 12.7119C8.46215 12.6529 8.54127 12.5903 8.63706 12.5514L8.63733 12.5513C8.8735 12.4559 9.09556 12.5406 9.26466 12.6209C9.30651 12.6407 9.34823 12.662 9.38777 12.6821L9.39339 12.685C9.43536 12.7063 9.4751 12.7265 9.51465 12.745C9.59431 12.7825 9.66508 12.8095 9.732 12.8219M6.20104 12.6335C6.21186 12.661 6.22208 12.6888 6.23169 12.7168C6.15356 12.8438 6.09455 12.9826 6.05916 13.1281L6.05916 13.1281L6.05891 13.1291C6.03674 13.2229 6.00767 13.385 6.09346 13.527C6.14391 13.6104 6.22892 13.6636 6.31364 13.6823C6.39917 13.7011 6.51554 13.6894 6.59791 13.5959L6.60046 13.593C6.6797 13.4986 6.67777 13.3807 6.67612 13.3277M6.20104 12.6335C6.17044 12.5559 6.13263 12.4846 6.08827 12.432C6.04471 12.3803 6.00268 12.3555 5.9614 12.3487C5.91876 12.3421 5.86849 12.355 5.81302 12.3976M6.38571 13.3568C6.38571 13.3568 6.38565 13.3568 6.38553 13.3568L6.38571 13.3568ZM6.59741 12.7751C6.73389 12.6039 6.91822 12.4706 7.12504 12.4025L7.12743 12.4017C7.14562 12.3954 7.15766 12.3921 7.16661 12.3906C7.17103 12.3899 7.17373 12.3897 7.1751 12.3897C7.17755 12.3911 7.18358 12.3955 7.19333 12.4075C7.2113 12.4297 7.22829 12.4609 7.25052 12.5054L7.25051 12.5054L7.25128 12.5068C7.35822 12.7154 7.48799 12.9137 7.63727 13.0946C7.69542 13.1664 7.78744 13.2709 7.92566 13.3134L7.92566 13.3134L7.9279 13.3141C8.17074 13.3851 8.34897 13.2281 8.45738 13.1224C8.48555 13.0949 8.50901 13.0709 8.53108 13.0483C8.56153 13.0171 8.58934 12.9886 8.62324 12.9575C8.67606 12.909 8.72066 12.8772 8.76235 12.8603C8.85618 12.8224 8.95998 12.8452 9.12167 12.922C9.15928 12.9398 9.19732 12.9592 9.23804 12.9799L9.24219 12.982C9.2837 13.0031 9.32791 13.0256 9.37289 13.0467C9.46232 13.0887 9.56302 13.1296 9.67113 13.1497L9.67114 13.1497C9.98174 13.2073 10.2187 13.1115 10.4198 13.004C10.4714 12.9765 10.5191 12.9494 10.5646 12.9235C10.7041 12.8443 10.8229 12.7768 10.9699 12.7434C11.0229 12.7317 11.0541 12.7312 11.0731 12.7362C11.0884 12.7408 11.108 12.7523 11.1346 12.7811C11.162 12.8107 11.1867 12.8468 11.2193 12.8944L11.2239 12.9011C11.2239 12.9012 11.224 12.9012 11.224 12.9013C11.3786 13.1288 11.6385 13.4167 11.9989 13.4191C12.1934 13.4209 12.3733 13.3323 12.508 13.2659C12.5257 13.2572 12.5427 13.2489 12.5587 13.2412C13.0881 12.9884 13.6962 12.8921 14.222 13.0764C14.3089 13.1069 14.404 13.0611 14.4344 12.9743C14.4649 12.8874 14.4192 12.7923 14.3323 12.7619C13.6979 12.5395 12.9958 12.6632 12.4151 12.9404L12.4149 12.9405C12.3965 12.9493 12.3788 12.9578 12.3617 12.9661C12.2157 13.0367 12.1119 13.0869 12.0018 13.0858L12.0012 13.0858C11.8218 13.0847 11.6484 12.9328 11.4997 12.7138L11.4993 12.7134C11.4968 12.7096 11.4942 12.7058 11.4915 12.7018C11.4624 12.6591 11.4243 12.6033 11.3793 12.5547C11.3285 12.4998 11.2591 12.4429 11.1645 12.4157L11.1645 12.4157L11.163 12.4152C11.0619 12.3872 10.9634 12.4034 10.8972 12.4181L10.8965 12.4183C10.6963 12.4637 10.5202 12.5643 10.3732 12.6482C10.3343 12.6704 10.2974 12.6915 10.2627 12.7101C10.0879 12.8034 9.93313 12.8593 9.732 12.8219M7.17385 12.3892C7.17384 12.3891 7.17409 12.3892 7.17458 12.3894C7.17409 12.3893 7.17385 12.3892 7.17385 12.3892Z" fill="#424242"/>
<path d="M21.9883 7.81445H1.99414V10.4926H21.9883V7.81445Z" fill="#424242"/>
</svg>
