<?xml version="1.0" encoding="utf-8"?><svg xmlns="http://www.w3.org/2000/svg" xmlns:xlink="http://www.w3.org/1999/xlink"><symbol viewBox="0 0 10 18" id="arrow_left" xmlns="http://www.w3.org/2000/svg"><path d="M3.36 9.004L9.728 2.27c.176-.185.272-.433.272-.696 0-.264-.096-.511-.272-.697L9.17.287a.899.899 0 00-1.317 0L.272 8.306A1.006 1.006 0 000 9.003c0 .266.095.514.272.7l7.574 8.01a.899.899 0 001.317 0l.558-.59a1.026 1.026 0 000-1.393l-6.36-6.726z"/></symbol><symbol viewBox="0 0 10 18" id="arrow_right" xmlns="http://www.w3.org/2000/svg"><path d="M6.64 8.996L.272 15.73a1.005 1.005 0 00-.272.696c0 .264.096.511.272.697l.558.59a.899.899 0 001.317 0l7.581-8.018c.176-.186.273-.434.272-.698 0-.266-.095-.514-.272-.7L2.154.287a.899.899 0 00-1.317 0l-.558.59a1.026 1.026 0 000 1.393l6.36 6.726z"/></symbol><symbol viewBox="0 0 22 15" id="burger" xmlns="http://www.w3.org/2000/svg"><path d="M0 0h22v2.6H0zm0 5.2h22v2.6H0zm0 5.2h22V13H0z"/></symbol><symbol viewBox="0 0 19 19" id="cross" xmlns="http://www.w3.org/2000/svg"><path d="M17.277 19l-7.77-7.778L1.734 19 0 17.266 7.783 9.5 0 1.734 1.735 0l7.771 7.778L17.277.012 19 1.734 11.229 9.5 19 17.266 17.277 19z"/></symbol><symbol viewBox="0 0 7 15" id="fb" xmlns="http://www.w3.org/2000/svg"><path fill-rule="evenodd" clip-rule="evenodd" d="M4.626 14.135V7.53H6.45l.241-2.276H4.626l.003-1.14c0-.593.057-.912.91-.912h1.14V.926H4.854c-2.19 0-2.962 1.104-2.962 2.961v1.367H.528V7.53h1.365v6.605h2.733z"/></symbol><symbol viewBox="0 0 113 101" id="load" xmlns="http://www.w3.org/2000/svg"><path d="M42.59 40.218a7.763 7.763 0 100-15.526 7.763 7.763 0 000 15.526z"/><path d="M106.315 61.029c-3.666-3.45-8.303-5.715-13.37-6.362V15.203c0-4.205-1.725-7.979-4.421-10.782C85.72 1.617 81.947 0 77.74 0H15.203C10.998 0 7.224 1.725 4.421 4.42 1.617 7.225 0 10.999 0 15.204v64.371c0 4.206 1.725 7.98 4.42 10.783 2.804 2.803 6.578 4.42 10.783 4.42h60.49c3.99 3.235 8.95 5.284 14.448 5.284a22.81 22.81 0 0016.174-6.685A22.811 22.811 0 00113 77.202a22.811 22.811 0 00-6.685-16.173zM5.715 15.203c0-2.587 1.078-4.96 2.803-6.577 1.725-1.725 4.098-2.803 6.685-2.803h62.538c2.588 0 4.96 1.078 6.686 2.803 1.725 1.725 2.803 4.097 2.803 6.685v33.641L71.272 32.994c-1.078-1.078-2.911-1.186-4.097 0L43.13 57.147l-16.282-16.39c-1.078-1.078-2.911-1.185-4.097 0L5.715 58.01V15.203zm9.38 74.076v-.216c-2.587 0-4.96-1.078-6.685-2.803-1.617-1.726-2.695-4.098-2.695-6.686v-13.37L24.8 47.012l16.281 16.28c1.078 1.08 2.911 1.08 4.097 0L69.223 39.14l15.743 15.85-.97.324a10.09 10.09 0 00-1.402.431c-.432.108-.863.324-1.294.431-.324.108-.54.216-.863.432-.431.216-.755.323-1.078.539l-1.618.97c-.323.216-.539.324-.862.54-.216.107-.324.215-.54.323a13.008 13.008 0 00-2.587 2.264 22.81 22.81 0 00-6.685 16.174c0 1.617.215 3.127.539 4.744.108.431.216.755.323 1.186.324 1.079.647 2.157 1.079 3.235v.108c.43.862.862 1.833 1.401 2.588H15.095zm87.015 0c-3.127 3.127-7.332 4.96-12.077 4.96a17.01 17.01 0 01-11.752-4.745c-.432-.431-.863-.97-1.294-1.401-.324-.324-.647-.755-.97-1.079-.432-.539-.756-1.186-1.079-1.833-.216-.431-.431-.754-.647-1.186a9.158 9.158 0 01-.54-1.833c-.107-.431-.323-.97-.43-1.402a17.85 17.85 0 01-.324-3.45c0-4.744 1.941-8.95 4.96-12.076 3.02-3.127 7.332-4.96 12.076-4.96 4.745 0 8.95 1.94 12.077 4.96 3.127 3.127 4.96 7.332 4.96 12.076 0 4.637-1.941 8.842-4.96 11.969z"/><path d="M92.082 65.665c-.216-.216-.539-.431-.97-.647-.324-.108-.647-.216-.97-.216h-.216c-.324 0-.647.108-.97.216-.324.108-.648.324-.971.647L81.3 72.35c-1.079 1.078-1.079 2.912 0 4.098 1.078 1.078 2.91 1.078 4.097 0l1.725-1.726v11.861a2.9 2.9 0 002.911 2.911 2.9 2.9 0 002.912-2.911v-11.86l1.725 1.725c1.078 1.078 2.911 1.078 4.097 0 1.078-1.079 1.078-2.912 0-4.098l-6.685-6.685z"/></symbol><symbol viewBox="0 0 10 15" id="ok" xmlns="http://www.w3.org/2000/svg"><path d="M4.398 9.995c-1.16-.114-2.207-.385-3.103-1.05-.112-.082-.226-.162-.328-.254-.392-.357-.431-.766-.121-1.187.265-.36.711-.457 1.174-.25.09.04.175.09.257.144 1.67 1.087 3.964 1.118 5.64.05a1.56 1.56 0 01.55-.27c.4-.097.772.042.987.373.245.38.242.749-.06 1.043a4.59 4.59 0 01-1.64 1.005c-.586.215-1.228.323-1.863.395.096.099.141.147.201.204.862.821 1.728 1.639 2.588 2.462.292.28.353.629.192.955-.176.356-.57.591-.957.566-.245-.016-.437-.132-.606-.294-.65-.62-1.314-1.23-1.951-1.861-.186-.184-.275-.15-.439.01a126.91 126.91 0 01-1.988 1.893c-.3.28-.658.33-1.007.17-.37-.17-.606-.528-.588-.888.013-.244.14-.43.316-.596.853-.808 1.704-1.617 2.555-2.426.056-.053.109-.11.19-.194z"/><path d="M5.105 7.182c-2.071-.007-3.769-1.633-3.757-3.599C1.36 1.596 3.06-.005 5.15.001c2.095.005 3.777 1.63 3.767 3.637-.011 1.961-1.72 3.55-3.812 3.544zm1.882-3.594c-.004-.976-.824-1.752-1.852-1.753-1.036-.001-1.864.79-1.856 1.774.008.972.835 1.744 1.866 1.74 1.027-.003 1.845-.785 1.842-1.76z"/></symbol><symbol viewBox="0 0 18 10" id="vk" xmlns="http://www.w3.org/2000/svg"><path fill-rule="evenodd" clip-rule="evenodd" d="M9.875 9.829s.318-.035.48-.207c.15-.157.145-.454.145-.454s-.02-1.386.635-1.59c.646-.201 1.476 1.34 2.356 1.933.665.448 1.17.35 1.17.35l2.353-.032s1.23-.075.647-1.024c-.049-.078-.34-.703-1.749-1.987-1.476-1.343-1.278-1.126.499-3.45 1.082-1.416 1.514-2.28 1.379-2.65-.128-.353-.924-.26-.924-.26l-2.648.017s-.197-.026-.342.06c-.143.083-.235.278-.235.278s-.418 1.095-.977 2.027c-1.18 1.965-1.651 2.07-1.844 1.947-.449-.285-.337-1.143-.337-1.753 0-1.905.295-2.699-.573-2.904-.287-.07-.5-.113-1.236-.121-.945-.01-1.744.003-2.197.22-.302.145-.534.468-.392.487.175.023.57.105.781.385.271.363.262 1.177.262 1.177s.156 2.242-.364 2.52c-.357.191-.846-.198-1.898-1.982C4.327 1.903 3.92.893 3.92.893s-.079-.188-.219-.29c-.17-.122-.407-.16-.407-.16L.78.459S.401.469.262.63c-.123.143-.01.44-.01.44s1.97 4.525 4.202 6.805C6.5 9.965 8.822 9.83 8.822 9.83h1.053z"/></symbol><symbol viewBox="0 0 100 101" id="worksheet" xmlns="http://www.w3.org/2000/svg"><path d="M81.07 4.532A15.443 15.443 0 0070.019 0H15.584A15.913 15.913 0 004.532 4.532 15.443 15.443 0 000 15.584V85.02a15.913 15.913 0 004.532 11.053 15.444 15.444 0 0011.052 4.531h39.904a2.819 2.819 0 000-5.637H15.473v-.22a9.701 9.701 0 01-6.853-2.874 10.088 10.088 0 01-2.763-6.853V15.585a9.251 9.251 0 012.874-6.743 9.699 9.699 0 016.853-2.873h54.433a9.812 9.812 0 019.726 9.726v37.52a2.927 2.927 0 002.93 2.94 2.928 2.928 0 002.928-2.93v-37.64A15.913 15.913 0 0081.07 4.532z"/><path d="M97.984 97.228a5.39 5.39 0 01-4.188 1.992H67.544a5.403 5.403 0 01-4.2-1.99 5.4 5.4 0 01-1.108-4.537 18.858 18.858 0 016.476-10.68 18.762 18.762 0 014.09-2.555 10.377 10.377 0 01-2.616-6.892c0-5.76 4.703-10.446 10.484-10.446 5.782 0 10.484 4.686 10.484 10.446a10.38 10.38 0 01-2.615 6.892c1.46.67 2.836 1.526 4.089 2.556a18.865 18.865 0 016.422 10.43c.021.07.04.14.055.214a5.442 5.442 0 01-1.121 4.57zM75.562 72.566c0 2.806 2.292 5.089 5.108 5.089 2.817 0 5.108-2.283 5.108-5.09 0-2.805-2.291-5.088-5.108-5.088-2.816 0-5.108 2.283-5.108 5.089zm18.28 21.221a.056.056 0 01-.002-.005c-1.29-6.194-6.83-10.69-13.17-10.69s-11.88 4.496-13.17 10.69c-.012.06.03.08.03.08l.014.001h26.252a.12.12 0 00.045-.076zM67.95 39.688H17.802a3.134 3.134 0 000 6.269H67.95a3.134 3.134 0 000-6.269zm0-17.256H17.802a3.134 3.134 0 000 6.269H67.95a3.134 3.134 0 000-6.269zM55.41 56.944H17.064c-1.324 0-2.397 1.403-2.397 3.134 0 1.731 1.073 3.134 2.397 3.134H55.41c1.323 0 2.397-1.403 2.397-3.134 0-1.731-1.074-3.134-2.397-3.134zM43.14 74.2H17.255c-1.43 0-2.589 1.403-2.589 3.134 0 1.73 1.16 3.134 2.589 3.134h25.883c1.43 0 2.588-1.403 2.588-3.134 0-1.731-1.158-3.135-2.588-3.135z"/></symbol><symbol viewBox="0 0 117 117" id="worksheet_pen" xmlns="http://www.w3.org/2000/svg"><path d="M113.324 43.326c-4.334-3.636-10.818-3.067-14.448 1.259L89.119 56.13V22.65a10.33 10.33 0 00-3.2-7.455L72.897 2.828A10.24 10.24 0 0065.816 0H10.283C4.613 0 0 4.613 0 10.283v96.432c0 5.67 4.613 10.283 10.283 10.283h68.553c5.67 0 10.283-4.613 10.283-10.283v-18.73l25.473-30.172a10.277 10.277 0 00-1.268-14.487zm-44.77-35.17c13.713 13.027 12.74 12.075 12.996 12.41H68.553V8.156zm13.71 98.559a3.431 3.431 0 01-3.428 3.427H10.283a3.431 3.431 0 01-3.428-3.427V10.283a3.432 3.432 0 013.428-3.428h51.415v17.139a3.428 3.428 0 003.428 3.427h17.138v36.82L67.69 81.487a10.334 10.334 0 00-2.124 4.22l-3.185 13.335a3.43 3.43 0 004.697 3.942l12.58-5.453c.944-.41 1.825-.966 2.605-1.634v10.819zM74.11 84.51l5.25 4.406-1.167 1.383c-.34.405-.776.73-1.262.941l-6.29 2.727 1.593-6.668a3.433 3.433 0 01.7-1.397l1.176-1.392zm9.673-.832l-5.248-4.404 18.946-22.42 5.237 4.395-18.935 22.429zm25.563-30.28l-2.205 2.613-5.235-4.393L104.12 49a3.41 3.41 0 014.798-.422 3.425 3.425 0 01.429 4.82z"/><path d="M51.415 20.566H17.138a3.428 3.428 0 000 6.855h34.277a3.428 3.428 0 000-6.855zM71.98 41.36H17.139a3.428 3.428 0 000 6.855h54.843a3.428 3.428 0 000-6.855zm0 20.566H17.139a3.428 3.428 0 000 6.856h54.843a3.428 3.428 0 000-6.856zM51.415 82.492H17.138a3.428 3.428 0 000 6.856h34.277a3.428 3.428 0 000-6.856z"/></symbol></svg>