<svg xmlns="http://www.w3.org/2000/svg" width="16" height="16" viewBox="0 0 16 16"><path fill-rule="evenodd" d="M8 4.067a2.6 2.6 0 1 0 0 5.2 2.6 2.6 0 0 0 0-5.2m0 1.2a1.4 1.4 0 1 0 0 2.8 1.4 1.4 0 0 0 0-2.8" clip-rule="evenodd"/><path fill-rule="evenodd" d="M5.474 1.903a6.6 6.6 0 1 1 5.052 12.195A6.6 6.6 0 0 1 5.474 1.903m-.64 10.473a2.07 2.07 0 0 1 1.832-1.109h2.667a2.07 2.07 0 0 1 1.832 1.108 5.4 5.4 0 0 1-5.232.614 5.4 5.4 0 0 1-1.098-.614m8.155-2.31a5.4 5.4 0 0 1-.919 1.483 3.27 3.27 0 0 0-2.737-1.482H6.617A3.27 3.27 0 0 0 3.93 11.55a5.4 5.4 0 1 1 9.059-1.482" clip-rule="evenodd"/></svg>