<svg width="24" height="24" viewBox="0 0 24 24" xmlns="http://www.w3.org/2000/svg">
<path d="M17.5 4.875H15.625V4.25C15.625 3.91848 15.4933 3.60054 15.2589 3.36612C15.0245 3.1317 14.7065 3 14.375 3H9.375C9.04348 3 8.72554 3.1317 8.49112 3.36612C8.2567 3.60054 8.125 3.91848 8.125 4.25V4.875H6.25C5.91848 4.875 5.60054 5.0067 5.36612 5.24112C5.1317 5.47554 5 5.79348 5 6.125V19.25C5 19.5815 5.1317 19.8995 5.36612 20.1339C5.60054 20.3683 5.91848 20.5 6.25 20.5H17.5C17.8315 20.5 18.1495 20.3683 18.3839 20.1339C18.6183 19.8995 18.75 19.5815 18.75 19.25V6.125C18.75 5.79348 18.6183 5.47554 18.3839 5.24112C18.1495 5.0067 17.8315 4.875 17.5 4.875ZM9.375 4.25H14.375V6.75H9.375V4.25ZM17.5 19.25H6.25V6.125H8.125V8H15.625V6.125H17.5V19.25Z"/>
</svg>
