<svg width="20" height="20" viewBox="0 0 20 20" xmlns="http://www.w3.org/2000/svg">
<circle cx="10" cy="10" r="10" fill="#F4F9FA"/>
<path d="M14.2426 5.75736C14.5355 6.05025 14.5355 6.52513 14.2426 6.81802L11.0606 10L14.2426 13.182C14.5355 13.4749 14.5355 13.9497 14.2426 14.2426C13.9497 14.5355 13.4748 14.5355 13.1819 14.2426L9.99993 11.0607L6.81795 14.2426C6.52506 14.5355 6.05018 14.5355 5.75729 14.2426C5.4644 13.9497 5.4644 13.4749 5.75729 13.182L8.93927 10L5.75729 6.81802C5.4644 6.52513 5.4644 6.05025 5.75729 5.75736C6.05018 5.46447 6.52506 5.46447 6.81795 5.75736L9.99993 8.93934L13.1819 5.75736C13.4748 5.46447 13.9497 5.46447 14.2426 5.75736Z"/>
</svg>
