<svg width="24" height="24" viewBox="0 0 24 24" xmlns="http://www.w3.org/2000/svg">
<path d="M18.2501 20.125H18.1438C5.86259 19.4187 4.11884 9.05625 3.87509 5.89375C3.85545 5.64786 3.88452 5.40052 3.96064 5.16588C4.03676 4.93125 4.15842 4.71394 4.31867 4.52641C4.47891 4.33888 4.67458 4.1848 4.89448 4.07302C5.11437 3.96124 5.35415 3.89395 5.60009 3.875H9.04384C9.29419 3.87476 9.53885 3.94969 9.74611 4.0901C9.95338 4.23051 10.1137 4.42992 10.2063 4.6625L11.1563 7C11.2478 7.22722 11.2705 7.4763 11.2216 7.71631C11.1727 7.95631 11.0544 8.17667 10.8813 8.35L9.55009 9.69375C9.75804 10.8755 10.324 11.9648 11.1713 12.8143C12.0186 13.6639 13.1064 14.2327 14.2876 14.4438L15.6438 13.1C15.8198 12.9288 16.0422 12.8133 16.2834 12.7677C16.5246 12.7221 16.7738 12.7486 17.0001 12.8438L19.3563 13.7875C19.5854 13.8831 19.7809 14.0446 19.9178 14.2517C20.0547 14.4587 20.1269 14.7018 20.1251 14.95V18.25C20.1251 18.7473 19.9276 19.2242 19.5759 19.5758C19.2243 19.9275 18.7474 20.125 18.2501 20.125ZM5.75009 5.125C5.58433 5.125 5.42536 5.19085 5.30815 5.30806C5.19094 5.42527 5.12509 5.58424 5.12509 5.75V5.8C5.41259 9.5 7.25634 18.25 18.2126 18.875C18.2947 18.8801 18.377 18.8689 18.4548 18.8421C18.5326 18.8153 18.6043 18.7734 18.6658 18.7188C18.7274 18.6642 18.7775 18.598 18.8135 18.524C18.8494 18.45 18.8703 18.3696 18.8751 18.2875V14.95L16.5188 14.0062L14.7251 15.7875L14.4251 15.75C8.98759 15.0688 8.25009 9.63125 8.25009 9.575L8.21259 9.275L9.98759 7.48125L9.05009 5.125H5.75009Z"/>
</svg>
