<svg width="40" height="40" viewBox="0 0 40 40" xmlns="http://www.w3.org/2000/svg">
<path fill-rule="evenodd" clip-rule="evenodd" d="M20 40C31.0457 40 40 31.0457 40 20C40 8.9543 31.0457 0 20 0C8.9543 0 0 8.9543 0 20C0 31.0457 8.9543 40 20 40ZM14.2014 28.0489C14.3303 28.1778 14.5052 28.2502 14.6875 28.2502C14.8034 28.2502 14.9174 28.2209 15.0189 28.165L28.769 20.6024C28.8768 20.5431 28.9667 20.4559 29.0293 20.35C29.0919 20.244 29.1249 20.1232 29.1249 20.0002C29.1249 19.8771 29.0919 19.7563 29.0293 19.6504C28.9667 19.5445 28.8768 19.4573 28.769 19.3979L15.0189 11.8354C14.9142 11.7778 14.7963 11.7485 14.6769 11.7503C14.5574 11.7522 14.4405 11.7851 14.3377 11.8459C14.2348 11.9067 14.1496 11.9932 14.0904 12.097C14.0312 12.2008 14 12.3182 14 12.4376V27.5627C14 27.7451 14.0724 27.9199 14.2014 28.0489Z" />
</svg>
