<svg width="24" height="24" viewBox="0 0 24 24" xmlns="http://www.w3.org/2000/svg">
<path d="M20.8871 20.0058L16.1683 15.2621C17.2964 13.901 17.8568 12.1576 17.7332 10.3941C17.6095 8.63058 16.8113 6.98249 15.5043 5.79213C14.1973 4.60176 12.4819 3.96062 10.7146 4.00187C8.94723 4.04312 7.26369 4.7636 6.01364 6.01364C4.7636 7.26369 4.04312 8.94723 4.00187 10.7146C3.96062 12.4819 4.60176 14.1973 5.79213 15.5043C6.98249 16.8113 8.63058 17.6095 10.3941 17.7332C12.1576 17.8568 13.901 17.2964 15.2621 16.1683L20.0058 20.8871L20.8871 20.0058ZM5.26207 10.8871C5.26207 9.77455 5.59197 8.68702 6.21006 7.76199C6.82814 6.83696 7.70664 6.11599 8.73448 5.69025C9.76231 5.26451 10.8933 5.15311 11.9845 5.37016C13.0756 5.5872 14.0779 6.12293 14.8645 6.9096C15.6512 7.69627 16.1869 8.69855 16.404 9.78969C16.621 10.8808 16.5096 12.0118 16.0839 13.0397C15.6582 14.0675 14.9372 14.946 14.0122 15.5641C13.0871 16.1822 11.9996 16.5121 10.8871 16.5121C9.39523 16.5121 7.96449 15.9194 6.9096 14.8645C5.8547 13.8097 5.26207 12.3789 5.26207 10.8871Z"/>
</svg>
