<svg viewBox="0 0 24 24" xmlns="http://www.w3.org/2000/svg">
<g clip-path="url(#clip0)">
<path fill-rule="evenodd" clip-rule="evenodd" d="M13.9862 4.77666C13.4723 4.43328 12.8681 4.25 12.25 4.25C11.4212 4.25 10.6263 4.57924 10.0403 5.16529C9.45424 5.75134 9.125 6.5462 9.125 7.375C9.125 7.99307 9.30828 8.59725 9.65166 9.11116C9.99504 9.62506 10.4831 10.0256 11.0541 10.2621C11.6251 10.4986 12.2535 10.5605 12.8597 10.44C13.4659 10.3194 14.0227 10.0217 14.4597 9.58471C14.8968 9.14767 15.1944 8.59085 15.315 7.98466C15.4355 7.37847 15.3737 6.75013 15.1371 6.17911C14.9006 5.60809 14.5001 5.12004 13.9862 4.77666ZM9.81938 3.73732C10.5388 3.25659 11.3847 3 12.25 3C13.4103 3 14.5231 3.46094 15.3436 4.28141C16.1641 5.10188 16.625 6.21468 16.625 7.375C16.625 8.24029 16.3684 9.08615 15.8877 9.80562C15.407 10.5251 14.7237 11.0858 13.9242 11.417C13.1248 11.7481 12.2452 11.8347 11.3965 11.6659C10.5478 11.4971 9.76827 11.0804 9.15641 10.4686C8.54456 9.85674 8.12788 9.07719 7.95907 8.22852C7.79026 7.37985 7.8769 6.50019 8.20803 5.70076C8.53916 4.90133 9.09992 4.21805 9.81938 3.73732ZM17.25 20.5H18.5V17.375C18.5 16.2147 18.0391 15.1019 17.2186 14.2814C16.3981 13.4609 15.2853 13 14.125 13H10.375C9.21468 13 8.10188 13.4609 7.28141 14.2814C6.46094 15.1019 6 16.2147 6 17.375V20.5H7.25V17.375C7.25 16.5462 7.57924 15.7513 8.16529 15.1653C8.75134 14.5792 9.5462 14.25 10.375 14.25H14.125C14.5354 14.25 14.9417 14.3308 15.3209 14.4879C15.7 14.6449 16.0445 14.8751 16.3347 15.1653C16.6249 15.4555 16.8551 15.8 17.0121 16.1791C17.1692 16.5583 17.25 16.9646 17.25 17.375V20.5Z"/>
<path d="M14 18L17 21L23 15" stroke="#7AC30F" stroke-width="2" fill="none"/>
</g>
<defs>
<clipPath id="clip0">
<rect fill="white"/>
</clipPath>
</defs>
</svg>
