<?xml version="1.0" encoding="utf-8"?>
<!-- Generator: Adobe Illustrator 21.1.0, SVG Export Plug-In . SVG Version: 6.00 Build 0)  -->
<svg version="1.1" id="Слой_1" xmlns="http://www.w3.org/2000/svg" xmlns:xlink="http://www.w3.org/1999/xlink" x="0px" y="0px"
	 viewBox="0 0 24 24" style="enable-background:new 0 0 24 24;" xml:space="preserve">
<style type="text/css">
	.st0{fill:#2B2D3A;}
</style>
<path class="st0" d="M12,10c-2.8,0-5-2.2-5-5s2.2-5,5-5s5,2.2,5,5S14.8,10,12,10z M12,1.2C9.9,1.2,8.2,2.9,8.2,5S9.9,8.8,12,8.8
	c2.1,0,3.8-1.7,3.8-3.8S14.1,1.2,12,1.2z"/>
<path class="st0" d="M5,24c-2.8,0-5-2.2-5-5s2.2-5,5-5s5,2.2,5,5S7.8,24,5,24z M5,15.2c-2.1,0-3.8,1.7-3.8,3.8s1.7,3.8,3.8,3.8
	s3.8-1.7,3.8-3.8S7.1,15.2,5,15.2z"/>
<path class="st0" d="M19,24c-2.8,0-5-2.2-5-5s2.2-5,5-5s5,2.2,5,5S21.8,24,19,24z M19,15.2c-2.1,0-3.8,1.7-3.8,3.8s1.7,3.8,3.8,3.8
	s3.8-1.7,3.8-3.8S21.1,15.2,19,15.2z"/>
</svg>
