<?xml version="1.0" encoding="utf-8"?>
<!-- Generator: Adobe Illustrator 21.1.0, SVG Export Plug-In . SVG Version: 6.00 Build 0)  -->
<svg version="1.1" id="Слой_1" xmlns="http://www.w3.org/2000/svg" xmlns:xlink="http://www.w3.org/1999/xlink" x="0px" y="0px"
	 viewBox="0 0 24 24" style="enable-background:new 0 0 24 24;" xml:space="preserve">
<style type="text/css">
	.st0{fill:#397DFF;}
</style>
<path class="st0" d="M20,20.8H4c-1.5,0-2.8-1.2-2.8-2.8V6c0-1.5,1.2-2.8,2.8-2.8h16c1.5,0,2.8,1.2,2.8,2.8v12
	C22.8,19.5,21.5,20.8,20,20.8z M4,4.8C3.3,4.8,2.8,5.3,2.8,6v12c0,0.7,0.6,1.3,1.3,1.3h16c0.7,0,1.3-0.6,1.3-1.3V6
	c0-0.7-0.6-1.3-1.3-1.3H4z"/>
<path class="st0" d="M12,13.8c-0.2,0-0.3,0-0.4-0.1l-10-7c-0.3-0.2-0.4-0.7-0.2-1c0.2-0.3,0.7-0.4,1-0.2l9.6,6.7l9.6-6.7
	c0.3-0.2,0.8-0.2,1,0.2c0.2,0.3,0.2,0.8-0.2,1l-10,7C12.3,13.7,12.2,13.8,12,13.8z"/>
</svg>
