<?xml version="1.0" encoding="utf-8"?>
<!-- Generator: Adobe Illustrator 21.1.0, SVG Export Plug-In . SVG Version: 6.00 Build 0)  -->
<svg version="1.1" id="Слой_1" xmlns="http://www.w3.org/2000/svg" xmlns:xlink="http://www.w3.org/1999/xlink" x="0px" y="0px"
	 viewBox="0 0 22 22" style="enable-background:new 0 0 22 22;" xml:space="preserve">
<style type="text/css">
	.st0{fill:#397DFF;}
</style>
<path class="st0" d="M19,21.4c-0.1,0-0.2,0-0.2,0c-3.1-0.3-6.2-1.4-8.9-3.1c-2.5-1.6-4.6-3.7-6.1-6.2C2,9.5,1,6.4,0.6,3.2
	c0-0.4,0-0.7,0.1-1C0.9,1.9,1,1.6,1.3,1.3c0.2-0.3,0.5-0.5,0.8-0.6c0.3-0.1,0.7-0.2,1-0.2h3c0.6,0,1.2,0.2,1.6,0.6
	C8.2,1.5,8.5,2,8.6,2.7C8.7,3.6,9,4.5,9.3,5.4c0.2,0.4,0.2,0.9,0.1,1.4C9.3,7.2,9.1,7.7,8.7,8l-1,1c1.3,2.2,3.1,4,5.3,5.3l1-1
	c0.3-0.3,0.8-0.6,1.2-0.7c0.5-0.1,1-0.1,1.4,0.1c0.9,0.3,1.8,0.6,2.7,0.7c0.6,0.1,1.2,0.4,1.6,0.9c0.4,0.5,0.6,1.1,0.6,1.7v3
	c0,0.4-0.1,0.7-0.2,1c-0.1,0.3-0.3,0.6-0.6,0.8c-0.3,0.2-0.6,0.4-0.9,0.5C19.5,21.4,19.3,21.4,19,21.4z M6.1,1.5
	C6.1,1.5,6.1,1.5,6.1,1.5h-3c-0.2,0-0.4,0-0.6,0.1C2.3,1.7,2.1,1.8,2,2C1.9,2.1,1.8,2.3,1.7,2.5C1.6,2.7,1.6,2.9,1.6,3.1
	c0.3,3,1.4,5.9,3,8.4c1.5,2.3,3.5,4.4,5.8,5.8c2.5,1.6,5.4,2.7,8.4,3c0.2,0,0.4,0,0.6-0.1c0.2-0.1,0.4-0.2,0.5-0.3
	c0.2-0.1,0.3-0.3,0.4-0.5c0.1-0.2,0.1-0.4,0.1-0.6v-3c0,0,0,0,0,0c0-0.4-0.1-0.7-0.4-1c-0.2-0.3-0.6-0.5-0.9-0.5
	c-1-0.1-2-0.4-2.9-0.7c-0.3-0.1-0.6-0.1-0.8-0.1c-0.3,0.1-0.5,0.2-0.7,0.4l-1.3,1.3c-0.2,0.2-0.4,0.2-0.6,0.1
	c-2.6-1.5-4.7-3.6-6.2-6.2C6.5,9,6.6,8.7,6.7,8.6L8,7.3c0.2-0.2,0.3-0.5,0.4-0.7c0.1-0.3,0-0.6-0.1-0.8C8,4.8,7.7,3.8,7.6,2.8
	C7.6,2.4,7.4,2.1,7.1,1.9C6.8,1.6,6.5,1.5,6.1,1.5z"/>
</svg>
