<?xml version="1.0" encoding="utf-8"?>
<!-- Generator: Adobe Illustrator 21.1.0, SVG Export Plug-In . SVG Version: 6.00 Build 0)  -->
<svg version="1.1" id="Слой_1" xmlns="http://www.w3.org/2000/svg" xmlns:xlink="http://www.w3.org/1999/xlink" x="0px" y="0px"
	 viewBox="0 0 24 24" style="enable-background:new 0 0 24 24;" xml:space="preserve">
<style type="text/css">
	.st0{fill:#2B2D3A;}
</style>
<path class="st0" d="M12,22.7c-0.1,0-0.2,0-0.3-0.1c-0.3-0.2-8.2-5.6-8.2-12c0-2.3,0.9-4.4,2.5-6s3.7-2.5,6-2.5c2.3,0,4.4,0.9,6,2.5
	c1.6,1.6,2.5,3.7,2.5,6c0,6.4-7.9,11.7-8.2,12C12.2,22.7,12.1,22.7,12,22.7z M12,3.2c-2,0-3.9,0.8-5.3,2.2s-2.2,3.3-2.2,5.3
	c0,5.2,6.1,9.9,7.5,10.9c1.4-1,7.5-5.7,7.5-10.9c0-2-0.8-3.9-2.2-5.3C15.9,3.9,14,3.2,12,3.2z"/>
<path class="st0" d="M12,13.8c-1.7,0-3.2-1.4-3.2-3.2s1.4-3.2,3.2-3.2s3.2,1.4,3.2,3.2S13.7,13.8,12,13.8z M12,8.5
	c-1.2,0-2.2,1-2.2,2.2s1,2.2,2.2,2.2c1.2,0,2.2-1,2.2-2.2S13.2,8.5,12,8.5z"/>
</svg>
