<svg width="24" height="24" viewBox="0 0 24 24" xmlns="http://www.w3.org/2000/svg"><path d="M7 11v-.5h-.5v.5H7zm4 0v-.5h-.5v.5h.5zm0 4h-.5v.5h.5V15zm7-7h.5v-.207l-.146-.147L18 8zm-3-3l.354-.354-.147-.146H15V5zm-8 6.5h1v-1H7v1zm.5 4V13h-1v2.5h1zm0-2.5v-2h-1v2h1zm.5-.5H7v1h1v-1zm.5-.5a.5.5 0 01-.5.5v1A1.5 1.5 0 009.5 12h-1zm-.5-.5a.5.5 0 01.5.5h1A1.5 1.5 0 008 10.5v1zm2.5-.5v4h1v-4h-1zm.5 4.5h1v-1h-1v1zm2.5-1.5v-2h-1v2h1zM12 10.5h-1v1h1v-1zm1.5 1.5a1.5 1.5 0 00-1.5-1.5v1a.5.5 0 01.5.5h1zM12 15.5a1.5 1.5 0 001.5-1.5h-1a.5.5 0 01-.5.5v1zm2.5-5v5h1v-5h-1zm.5 1h2.5v-1H15v1zm0 2h1.5v-1H15v1zm-8.5-4V6h-1v3.5h1zm11-1.5v1.5h1V8h-1zM7 5.5h8v-1H7v1zm7.646-.146l3 3 .708-.708-3-3-.708.708zM6.5 6a.5.5 0 01.5-.5v-1A1.5 1.5 0 005.5 6h1zm-1 10.5V18h1v-1.5h-1zm1.5 3h10v-1H7v1zM18.5 18v-1.5h-1V18h1zM17 19.5a1.5 1.5 0 001.5-1.5h-1a.5.5 0 01-.5.5v1zM5.5 18A1.5 1.5 0 007 19.5v-1a.5.5 0 01-.5-.5h-1z"/></svg>